<svg width="259" height="172" viewBox="0 0 259 172" fill="none" xmlns="http://www.w3.org/2000/svg">
<path fill-rule="evenodd" clip-rule="evenodd" d="M258.962 88.6177L140.166 163.513L0.296387 75.4355L119.093 0.540283L258.962 88.6177Z" fill="#D1C393"/>
<path fill-rule="evenodd" clip-rule="evenodd" d="M0.296387 75.4355L140.166 163.513V171.028L0.338364 82.9922L0.296387 75.4355Z" fill="#AF9D64"/>
<path fill-rule="evenodd" clip-rule="evenodd" d="M258.963 88.6177L140.166 163.513V171.028L258.879 96.3003L258.963 88.6177Z" fill="#9D8B4E"/>
<path fill-rule="evenodd" clip-rule="evenodd" d="M158.594 123.924L115.399 35.343L136.472 35.175L222.484 88.4077L166.696 123.924H158.594Z" fill="#AF9D64"/>
<path fill-rule="evenodd" clip-rule="evenodd" d="M158.594 123.924L63.9346 64.3103V57.3413L158.594 116.871V123.924Z" fill="#9A3227"/>
<path fill-rule="evenodd" clip-rule="evenodd" d="M215.306 88.24V81.481C190.707 96.8882 183.235 101.254 158.594 116.746V123.924C183.067 108.769 190.917 103.563 215.306 88.24Z" fill="#6E2E2C"/>
<path fill-rule="evenodd" clip-rule="evenodd" d="M158.594 119.936L63.9346 60.448V55.5781L158.594 115.108V119.936Z" fill="#612F2B"/>
<path fill-rule="evenodd" clip-rule="evenodd" d="M159.014 119.474L62.0874 58.4749V50.8342L159.056 111.917L159.014 119.474Z" fill="#B0B0B0"/>
<path fill-rule="evenodd" clip-rule="evenodd" d="M217.153 82.9502V75.3516L159.098 111.918V119.474C184.074 103.941 192.176 98.6514 217.153 82.9502Z" fill="#7F7F7F"/>
<path fill-rule="evenodd" clip-rule="evenodd" d="M135.758 86.8545V65.5278C132.148 63.2608 128.496 60.9938 124.886 58.7688V80.0115L135.758 86.8545Z" fill="#979797"/>
<path fill-rule="evenodd" clip-rule="evenodd" d="M135.758 86.8545V73.2524C132.148 75.5194 130.511 76.569 126.859 78.794L124.844 80.0535L135.758 86.8545Z" fill="#E3E3E3"/>
<path fill-rule="evenodd" clip-rule="evenodd" d="M135.758 65.5279L126.859 59.9863V78.7521L135.758 84.2937V65.5279Z" fill="#3B3E40"/>
<path fill-rule="evenodd" clip-rule="evenodd" d="M104.736 125.184L58.1411 95.3766V93.1096L104.736 122.917V125.184Z" fill="#835F25"/>
<path fill-rule="evenodd" clip-rule="evenodd" d="M132.567 105.326L104.736 122.917L58.1411 93.1096L85.3426 75.6453L130.301 103.941L132.567 105.326Z" fill="#C4984C"/>
<path fill-rule="evenodd" clip-rule="evenodd" d="M132.568 107.593L104.779 125.184V122.917L132.61 105.326V107.593H132.568Z" fill="#835F25"/>
<path fill-rule="evenodd" clip-rule="evenodd" d="M104.737 120.104L63.0532 93.6135V91.3465L108.893 90.5908L104.737 120.104Z" fill="#835F25"/>
<path fill-rule="evenodd" clip-rule="evenodd" d="M130.301 101.632L104.737 117.837L63.0532 91.3465L88.3657 75.0996L128.077 100.247L130.301 101.632Z" fill="#C4984C"/>
<path fill-rule="evenodd" clip-rule="evenodd" d="M130.301 103.941L104.737 120.062V117.795L130.301 101.632V103.941Z" fill="#835F25"/>
<path fill-rule="evenodd" clip-rule="evenodd" d="M104.695 115.024L68.0063 91.8503V89.5833L104.737 112.757L104.695 115.024Z" fill="#835F25"/>
<path fill-rule="evenodd" clip-rule="evenodd" d="M128.076 97.9795L104.695 112.757L68.0063 89.5832L90.9261 74.8477L128.076 97.9795Z" fill="#B65627"/>
<path fill-rule="evenodd" clip-rule="evenodd" d="M128.076 100.247L104.695 115.024V112.757L128.076 98.0217V100.247Z" fill="#835F25"/>
<path fill-rule="evenodd" clip-rule="evenodd" d="M217.111 75.3516L159.056 111.918L119.513 87.0224L121.486 85.805L101.462 73.2945L99.4475 74.386L62.1294 50.8763L120.226 14.3103L217.111 75.3516Z" fill="#E3E3E3"/>
<path fill-rule="evenodd" clip-rule="evenodd" d="M99.4058 80.1374L101.463 73.2944L100.371 68.3406L122.326 82.3624L121.402 85.8889L119.513 87.0644L119.555 92.6899L99.4058 80.1374Z" fill="#CACACA"/>
<path fill-rule="evenodd" clip-rule="evenodd" d="M212.997 75.5614L158.636 109.315L66.2852 51.1282L120.268 17.165L212.997 75.5614Z" fill="#B0B0B0"/>
<path fill-rule="evenodd" clip-rule="evenodd" d="M100.329 72.5808L66.2432 51.1282L120.226 17.165V72.6227H100.329V72.5808Z" fill="#7F7F7F"/>
<path fill-rule="evenodd" clip-rule="evenodd" d="M71.2383 53.8989L120.436 22.9165L208.379 78.3742L159.181 109.357L71.2383 53.8989Z" fill="#CACACA"/>
<path fill-rule="evenodd" clip-rule="evenodd" d="M101.463 78.878V73.2944L99.4478 74.386V80.1374L101.463 78.878Z" fill="#979797"/>
<path fill-rule="evenodd" clip-rule="evenodd" d="M164.555 51.044L163.715 44.5369L168.123 47.3077V53.311L164.555 51.044Z" fill="#7F7F7F"/>
<path fill-rule="evenodd" clip-rule="evenodd" d="M152.255 58.8106L157.335 46.51L168.123 53.311L159.35 58.8106H152.255Z" fill="#B0B0B0"/>
<path fill-rule="evenodd" clip-rule="evenodd" d="M164.555 51.044L152.255 58.8106V53.0171L158.132 49.3227L164.555 45.1077L164.597 51.044H164.555Z" fill="#832C2A"/>
<path fill-rule="evenodd" clip-rule="evenodd" d="M152.256 58.8527L145.707 54.7385V48.9451L152.256 53.1012V58.8527Z" fill="#9A3227"/>
<path fill-rule="evenodd" clip-rule="evenodd" d="M158.132 49.3649L152.256 53.1013L145.707 48.9451L151.584 45.2507L158.132 49.3649Z" fill="#B65627"/>
<path fill-rule="evenodd" clip-rule="evenodd" d="M164.584 45.1076L158.025 49.4627L151.476 45.3065L158.03 40.7383L164.584 45.1076Z" fill="#B65627"/>
<path fill-rule="evenodd" clip-rule="evenodd" d="M150.073 56.6276L148.016 55.3262V53.437L150.073 54.7384V56.6276Z" fill="#832C2A"/>
<path fill-rule="evenodd" clip-rule="evenodd" d="M148.016 55.3262L149.485 54.3606L150.073 54.7384V56.6276L148.016 55.3262Z" fill="#B65627"/>
<path fill-rule="evenodd" clip-rule="evenodd" d="M153.137 49.1548L151.794 49.9945L150.618 49.2388L151.919 48.3992L153.137 49.1548Z" fill="#832C2A"/>
<path fill-rule="evenodd" clip-rule="evenodd" d="M151.919 49.9525V48.4412L153.137 49.1968L151.919 49.9525Z" fill="#9A3227"/>
<path fill-rule="evenodd" clip-rule="evenodd" d="M128.076 97.9795L104.695 112.757L68.0063 89.5832L90.9261 74.8477L128.076 97.9795Z" fill="#C4984C"/>
<path fill-rule="evenodd" clip-rule="evenodd" d="M115.567 52.0517L118.841 49.9526V44.1172L115.441 46.2583L115.567 52.0517Z" fill="#7F7F7F"/>
<path fill-rule="evenodd" clip-rule="evenodd" d="M113.636 45.0827L116.994 42.9417L118.883 44.1171L115.483 46.2582L113.636 45.0827Z" fill="#E3E3E3"/>
<path fill-rule="evenodd" clip-rule="evenodd" d="M124.676 60.406L92.8574 40.3808V34.3774L124.718 54.3187L124.676 60.406Z" fill="#B0B0B0"/>
<path fill-rule="evenodd" clip-rule="evenodd" d="M126.733 53.2271L94.7039 33.2019L92.8149 34.3774L124.676 54.3187L126.733 53.2271Z" fill="#E3E3E3"/>
<path fill-rule="evenodd" clip-rule="evenodd" d="M126.733 58.8108V53.2273L124.676 54.3188V60.0703L126.733 58.8108Z" fill="#979797"/>
<path fill-rule="evenodd" clip-rule="evenodd" d="M121.905 62.0854L126.817 58.9788V53.1853L121.905 56.2919V62.0854Z" fill="#7F7F7F"/>
<path fill-rule="evenodd" clip-rule="evenodd" d="M119.891 55.0744L124.76 51.9678L126.859 53.2272L121.948 56.3339L119.891 55.0744Z" fill="#E3E3E3"/>
<path fill-rule="evenodd" clip-rule="evenodd" d="M119.891 60.8259V55.0325L121.906 56.3339V62.0854L119.891 60.8259Z" fill="#979797"/>
<path fill-rule="evenodd" clip-rule="evenodd" d="M154.061 81.9846L146.043 76.9048V71.1533L158.636 79.0879L154.061 81.9846Z" fill="#B0B0B0"/>
<path fill-rule="evenodd" clip-rule="evenodd" d="M236.42 101.254L185.921 133.118L177.568 127.87L228.025 95.9644L236.42 101.254Z" fill="#AF9D64"/>
<path fill-rule="evenodd" clip-rule="evenodd" d="M214.382 113.765L212.367 115.024L207.624 112.043L209.639 110.784L214.382 113.765Z" fill="#C4984C"/>
<path fill-rule="evenodd" clip-rule="evenodd" d="M207.624 112.001L212.367 114.982V116.703L207.624 113.723V112.001Z" fill="#B08743"/>
<path fill-rule="evenodd" clip-rule="evenodd" d="M214.382 113.765L212.367 115.024V116.745L214.382 115.486V113.765Z" fill="#835F25"/>
<path fill-rule="evenodd" clip-rule="evenodd" d="M230.963 103.311L228.949 104.571L224.205 101.59L226.22 100.331L230.963 103.311Z" fill="#C4984C"/>
<path fill-rule="evenodd" clip-rule="evenodd" d="M224.205 101.59L228.949 104.571V106.292L224.205 103.311V101.59Z" fill="#B08743"/>
<path fill-rule="evenodd" clip-rule="evenodd" d="M230.963 103.311L228.948 104.571V106.292L230.921 105.033L230.963 103.311Z" fill="#835F25"/>
<path fill-rule="evenodd" clip-rule="evenodd" d="M198.851 123.714L196.836 124.974L192.092 121.993L194.107 120.734L198.851 123.714Z" fill="#C4984C"/>
<path fill-rule="evenodd" clip-rule="evenodd" d="M192.092 121.951L196.836 124.932V126.611L192.092 123.63V121.951Z" fill="#B08743"/>
<path fill-rule="evenodd" clip-rule="evenodd" d="M198.85 123.714L196.835 124.974V126.653L198.808 125.394L198.85 123.714Z" fill="#835F25"/>
<path fill-rule="evenodd" clip-rule="evenodd" d="M179.583 127.912V126.149L229.662 94.6211V96.3843L179.583 127.912Z" fill="#835F25"/>
<path fill-rule="evenodd" clip-rule="evenodd" d="M229.662 94.6209L179.583 126.149L176.98 124.512L227.059 93.0256L229.662 94.6209Z" fill="#C4984C"/>
<path fill-rule="evenodd" clip-rule="evenodd" d="M179.583 127.912V126.149L176.98 124.512V126.233L179.583 127.912Z" fill="#B08743"/>
<path fill-rule="evenodd" clip-rule="evenodd" d="M179.583 125.939V124.218L229.662 92.6899V94.4532L179.583 125.939Z" fill="#835F25"/>
<path fill-rule="evenodd" clip-rule="evenodd" d="M229.662 92.69L179.583 124.218L176.98 122.581L227.017 91.0527L229.662 92.69Z" fill="#C4984C"/>
<path fill-rule="evenodd" clip-rule="evenodd" d="M179.583 125.939V124.218L176.98 122.581V124.302L179.583 125.939Z" fill="#B08743"/>
<path fill-rule="evenodd" clip-rule="evenodd" d="M179.583 124.008V122.245L229.662 90.7168V92.48L179.583 124.008Z" fill="#835F25"/>
<path fill-rule="evenodd" clip-rule="evenodd" d="M229.662 90.7589L179.583 122.287L176.98 120.65L227.017 89.1216L229.662 90.7589Z" fill="#C4984C"/>
<path fill-rule="evenodd" clip-rule="evenodd" d="M179.583 124.008V122.245L176.98 120.608V122.329L179.583 124.008Z" fill="#B08743"/>
<path fill-rule="evenodd" clip-rule="evenodd" d="M179.583 122.077V120.356L229.662 88.8276V90.6328L179.583 122.077Z" fill="#835F25"/>
<path fill-rule="evenodd" clip-rule="evenodd" d="M229.662 88.8275L179.583 120.356L176.98 118.718L227.017 87.1902L229.662 88.8275Z" fill="#C4984C"/>
<path fill-rule="evenodd" clip-rule="evenodd" d="M179.583 122.077V120.356L176.98 118.719V120.44L179.583 122.077Z" fill="#B08743"/>
<path fill-rule="evenodd" clip-rule="evenodd" d="M179.583 120.146V118.383L229.662 86.8545V88.6177L179.583 120.146Z" fill="#835F25"/>
<path fill-rule="evenodd" clip-rule="evenodd" d="M229.662 86.8546L179.583 118.383L176.98 116.745L227.017 85.2173L229.662 86.8546Z" fill="#C4984C"/>
<path fill-rule="evenodd" clip-rule="evenodd" d="M179.583 120.146V118.383L176.98 116.745V118.467L179.583 120.146Z" fill="#B08743"/>
<path fill-rule="evenodd" clip-rule="evenodd" d="M179.583 118.215V116.494L229.662 84.9653V86.7705L179.583 118.215Z" fill="#835F25"/>
<path fill-rule="evenodd" clip-rule="evenodd" d="M229.662 84.9234L179.583 116.452L176.98 114.814L227.017 83.2861L229.662 84.9234Z" fill="#C4984C"/>
<path fill-rule="evenodd" clip-rule="evenodd" d="M179.583 118.214V116.493L176.98 114.856V116.577L179.583 118.214Z" fill="#B08743"/>
<path fill-rule="evenodd" clip-rule="evenodd" d="M182.479 129.592V127.87L232.517 96.3423L232.559 98.1055L182.479 129.592Z" fill="#835F25"/>
<path fill-rule="evenodd" clip-rule="evenodd" d="M232.516 96.3424L182.479 127.871L179.876 126.233L229.914 94.7051L232.516 96.3424Z" fill="#C4984C"/>
<path fill-rule="evenodd" clip-rule="evenodd" d="M182.479 129.592V127.87L179.876 126.233V127.912L182.479 129.592Z" fill="#B08743"/>
<path fill-rule="evenodd" clip-rule="evenodd" d="M182.479 127.661V125.939L232.517 94.4111L232.559 96.1744L182.479 127.661Z" fill="#835F25"/>
<path fill-rule="evenodd" clip-rule="evenodd" d="M232.516 94.4112L182.479 125.939L179.876 124.302L229.914 92.7739L232.516 94.4112Z" fill="#C4984C"/>
<path fill-rule="evenodd" clip-rule="evenodd" d="M182.479 127.661V125.939L179.876 124.302V126.023L182.479 127.661Z" fill="#B08743"/>
<path fill-rule="evenodd" clip-rule="evenodd" d="M182.479 125.729V123.966L232.517 92.438L232.559 94.2012L182.479 125.729Z" fill="#835F25"/>
<path fill-rule="evenodd" clip-rule="evenodd" d="M232.516 92.4381L182.479 123.966L179.876 122.329L229.914 90.8428L232.516 92.4381Z" fill="#C4984C"/>
<path fill-rule="evenodd" clip-rule="evenodd" d="M182.479 125.729V123.966L179.876 122.329V124.008L182.479 125.729Z" fill="#B08743"/>
<path fill-rule="evenodd" clip-rule="evenodd" d="M182.479 123.798V122.077L232.517 90.5068L232.559 92.2701L182.479 123.798Z" fill="#835F25"/>
<path fill-rule="evenodd" clip-rule="evenodd" d="M232.516 90.5069L182.479 122.035L179.876 120.398L229.914 88.9116L232.516 90.5069Z" fill="#C4984C"/>
<path fill-rule="evenodd" clip-rule="evenodd" d="M182.479 123.798V122.077L179.876 120.44V122.161L182.479 123.798Z" fill="#B08743"/>
<path fill-rule="evenodd" clip-rule="evenodd" d="M182.479 121.867V120.104L232.517 88.5757L232.559 90.3389L182.479 121.867Z" fill="#835F25"/>
<path fill-rule="evenodd" clip-rule="evenodd" d="M232.516 88.5758L182.479 120.104L179.876 118.467L229.914 86.9385L232.516 88.5758Z" fill="#C4984C"/>
<path fill-rule="evenodd" clip-rule="evenodd" d="M182.479 121.867V120.104L179.876 118.467V120.146L182.479 121.867Z" fill="#B08743"/>
<path fill-rule="evenodd" clip-rule="evenodd" d="M182.479 119.936V118.215L232.517 86.6865L232.559 88.4498L182.479 119.936Z" fill="#835F25"/>
<path fill-rule="evenodd" clip-rule="evenodd" d="M232.516 86.6446L182.479 118.173L179.876 116.536L229.914 85.0073L232.516 86.6446Z" fill="#C4984C"/>
<path fill-rule="evenodd" clip-rule="evenodd" d="M182.479 119.936V118.215L179.876 116.577V118.299L182.479 119.936Z" fill="#B08743"/>
<path fill-rule="evenodd" clip-rule="evenodd" d="M185.333 131.313V129.592L235.371 98.0635L235.413 99.8687L185.333 131.313Z" fill="#835F25"/>
<path fill-rule="evenodd" clip-rule="evenodd" d="M235.413 98.0216L185.376 129.55L182.773 127.912L232.81 96.3843L235.413 98.0216Z" fill="#C4984C"/>
<path fill-rule="evenodd" clip-rule="evenodd" d="M185.334 131.313V129.592L182.731 127.954V129.676L185.334 131.313Z" fill="#B08743"/>
<path fill-rule="evenodd" clip-rule="evenodd" d="M185.333 129.382V127.661L235.371 96.1323L235.413 97.8956L185.333 129.382Z" fill="#835F25"/>
<path fill-rule="evenodd" clip-rule="evenodd" d="M235.413 96.0904L185.376 127.619L182.773 125.981L232.81 94.4531L235.413 96.0904Z" fill="#C4984C"/>
<path fill-rule="evenodd" clip-rule="evenodd" d="M185.334 129.382V127.66L182.731 126.023V127.744L185.334 129.382Z" fill="#B08743"/>
<path fill-rule="evenodd" clip-rule="evenodd" d="M185.333 127.451V125.729L235.371 94.2012L235.413 96.0064L185.333 127.451Z" fill="#835F25"/>
<path fill-rule="evenodd" clip-rule="evenodd" d="M235.413 94.1593L185.376 125.687L182.773 124.05L232.81 92.522L235.413 94.1593Z" fill="#C4984C"/>
<path fill-rule="evenodd" clip-rule="evenodd" d="M185.334 127.451V125.729L182.731 124.092V125.813L185.334 127.451Z" fill="#B08743"/>
<path fill-rule="evenodd" clip-rule="evenodd" d="M185.333 125.519V123.756L235.371 92.228L235.413 93.9912L185.333 125.519Z" fill="#835F25"/>
<path fill-rule="evenodd" clip-rule="evenodd" d="M235.413 92.2281L185.376 123.756L182.773 122.119L232.81 90.5908L235.413 92.2281Z" fill="#C4984C"/>
<path fill-rule="evenodd" clip-rule="evenodd" d="M185.334 125.52V123.798L182.731 122.161V123.882L185.334 125.52Z" fill="#B08743"/>
<path fill-rule="evenodd" clip-rule="evenodd" d="M185.333 123.546V121.825L235.371 90.2969L235.413 92.0601L185.333 123.546Z" fill="#835F25"/>
<path fill-rule="evenodd" clip-rule="evenodd" d="M235.413 90.2969L185.376 121.825L182.773 120.188L232.81 88.6597L235.413 90.2969Z" fill="#C4984C"/>
<path fill-rule="evenodd" clip-rule="evenodd" d="M185.334 123.546V121.825L182.731 120.188V121.909L185.334 123.546Z" fill="#B08743"/>
<path fill-rule="evenodd" clip-rule="evenodd" d="M185.333 121.615V119.894L235.371 88.3657L235.413 90.129L185.333 121.615Z" fill="#835F25"/>
<path fill-rule="evenodd" clip-rule="evenodd" d="M235.413 88.3658L185.376 119.894L182.773 118.257L232.81 86.7285L235.413 88.3658Z" fill="#C4984C"/>
<path fill-rule="evenodd" clip-rule="evenodd" d="M185.334 121.615V119.894L182.731 118.257V119.978L185.334 121.615Z" fill="#B08743"/>
<path fill-rule="evenodd" clip-rule="evenodd" d="M193.184 104.571L201.411 109.734L200.194 110.49L192.008 105.368L193.184 104.571Z" fill="#E3E3E3"/>
<path fill-rule="evenodd" clip-rule="evenodd" d="M201.453 121.153V109.734L200.235 110.49L200.319 121.909L201.453 121.153Z" fill="#979797"/>
<path fill-rule="evenodd" clip-rule="evenodd" d="M214.718 90.9268L222.987 96.0905L221.728 96.8462L213.542 91.6824L214.718 90.9268Z" fill="#E3E3E3"/>
<path fill-rule="evenodd" clip-rule="evenodd" d="M222.987 107.467V96.0483L221.728 96.804L221.812 108.223L222.987 107.467Z" fill="#979797"/>
<path fill-rule="evenodd" clip-rule="evenodd" d="M128.538 90.3389L137.857 84.5034V78.668L123.962 87.4421L128.538 90.3389Z" fill="#7F7F7F"/>
<path d="M146.168 96.594C143.649 98.6931 144.814 99.9945 146.032 101.212C148.057 102.681 149.316 102.262 150.576 101.422L149.946 100.792C148.897 101.422 148.013 101.38 146.661 100.582C144.909 99.3228 145.538 98.0634 146.798 97.2237L146.168 96.594Z" fill="#D44B27"/>
<path d="M180.17 89.0374C182.479 87.568 181.575 85.5961 180.307 84.271C179.078 82.9875 177.022 83.1599 175.762 83.9995L176.392 84.6293C177.442 83.9995 178.796 83.9644 179.677 84.9007C180.597 85.8787 181.22 87.3581 179.54 88.4076L180.17 89.0374Z" fill="#D44B27"/>
<path d="M188.566 86.0988C188.566 86.0988 192.344 88.4078 188.566 90.7168L187.936 90.0871C190.665 88.6177 187.936 86.7286 187.936 86.7286L188.566 86.0988Z" fill="#D44B27"/>
<path d="M173.663 79.1717C173.663 79.1717 175.133 77.0726 177.441 78.9618L176.812 79.5915C175.343 78.3321 174.293 79.8014 174.293 79.8014L173.663 79.1717Z" fill="#D44B27"/>
<path d="M156.243 103.521C153.934 104.991 154.794 106.891 156.062 108.216C157.29 109.5 159.347 109.266 160.606 108.426L159.976 107.796C158.927 108.426 157.572 108.523 156.692 107.586C155.772 106.608 155.194 105.201 156.873 104.151L156.243 103.521Z" fill="#D44B27"/>
<path d="M201.369 76.7368C203.678 78.2062 202.984 80.3165 201.715 81.6416C200.487 82.9252 198.431 82.6142 197.171 81.7746L197.801 81.1449C198.85 81.7746 200.205 81.9482 201.086 81.0119C202.006 80.034 202.419 78.4161 200.739 77.3665L201.369 76.7368Z" fill="#D44B27"/>
<path d="M163.799 60.364C161.49 58.8947 162.233 56.8857 163.501 55.5605C164.73 54.277 166.947 54.6965 168.207 55.5361L167.577 56.1659C166.528 55.5361 165.012 55.254 164.131 56.1903C163.211 57.1682 162.75 58.6847 164.429 59.7343L163.799 60.364Z" fill="#D44B27"/>
<path d="M90.212 42.4379C91.3874 41.3463 93.1505 41.3463 94.032 42.2699L94.116 42.3539L94.1999 42.4379C95.0395 43.3615 94.9555 44.537 93.7382 45.6285L76.6533 56.7116L76.1915 56.2498L93.2764 45.1667C94.116 44.369 94.1579 43.6553 93.5703 43.0256L93.4863 42.9416L93.4024 42.8577C92.8147 42.228 91.5134 42.144 90.6738 42.9416L72.7074 54.4026L72.2456 53.9408L90.212 42.4379Z" fill="#D44B27"/>
<path d="M98.2721 46.6359C99.4475 45.5443 101.211 45.5443 102.092 46.4679L102.176 46.5519L102.26 46.6359C103.1 47.5595 103.016 48.7349 101.798 49.8265L84.7133 60.9096L84.2516 60.4478L101.336 49.3647C102.176 48.567 102.218 47.8533 101.63 47.2236L101.546 47.1396L101.462 47.0557C100.875 46.426 99.5734 46.342 98.7338 47.1396L80.7674 58.6006L80.3057 58.1388L98.2721 46.6359Z" fill="#D44B27"/>
<path d="M105.072 51.59C106.247 50.4984 108.01 50.4984 108.892 51.422L108.976 51.506L109.06 51.59C109.899 52.5136 109.815 53.689 108.598 54.7806L91.5131 65.8637L91.0514 65.4019L108.136 54.3188C108.976 53.5211 109.018 52.8074 108.43 52.1777L108.346 52.0937L108.262 52.0098C107.675 51.3801 106.373 51.2961 105.534 52.0937L87.5672 63.5547L87.1055 63.0929L105.072 51.59Z" fill="#D44B27"/>
<path d="M112.838 55.9559C114.013 54.8644 115.776 54.8644 116.658 55.788L116.742 55.872L116.826 55.9559C117.665 56.8795 117.581 58.055 116.364 59.1465L99.2792 70.2297L98.8175 69.7679L115.902 58.6847C116.742 57.8871 116.784 57.1734 116.196 56.5437L116.112 56.4597L116.028 56.3758C115.441 55.746 114.139 55.6621 113.3 56.4597L95.3333 67.9207L94.8716 67.4589L112.838 55.9559Z" fill="#D44B27"/>
<path d="M117.581 62.2533C118.757 61.1618 120.52 61.1618 121.401 62.0854L121.485 62.1693L121.569 62.2533C122.409 63.1769 122.325 64.3524 121.107 65.4439L104.022 76.5271L103.98 75.6035L120.646 64.9821C121.485 64.1845 121.527 63.4708 120.939 62.841L120.855 62.7571L120.772 62.6731C120.184 62.0434 118.883 61.9594 118.043 62.7571L101.672 73.2105L101.21 72.7487L117.581 62.2533Z" fill="#D44B27"/>
<path d="M130.007 63.6805C131.182 62.589 132.945 62.589 133.827 63.5126L133.911 63.5966L133.995 63.6805C134.834 64.6041 134.75 65.7796 133.533 66.8711L110.823 81.6067L110.277 81.0609L133.071 66.4094C133.911 65.6117 133.953 64.898 133.365 64.2683L133.281 64.1843L133.197 64.1004C132.609 63.4706 131.308 63.3867 130.469 64.1843L112.502 75.6453L112.04 75.1835L130.007 63.6805Z" fill="#D44B27"/>
<path d="M170.515 69.684C171.691 70.7755 173.663 70.7755 174.545 69.8519L174.629 69.7679L174.713 69.684C175.552 68.7604 175.469 67.5849 174.251 66.4934L164.428 59.7343L163.799 60.364L173.663 67.0811C174.503 67.8787 174.671 68.4665 174.083 69.0962L173.999 69.1802L173.915 69.2641C173.328 69.8939 171.984 69.7679 171.145 68.9703L158.552 60.574L157.922 61.2037L170.515 69.684Z" fill="#D44B27"/>
<path d="M158.477 60.5753C157.301 59.4838 155.538 59.4838 154.657 60.4074L154.573 60.4914L154.489 60.5753C153.649 61.4989 153.733 62.6744 154.95 63.7659L164.849 70.4397L165.403 69.8952L155.538 63.1782C154.699 62.3805 154.531 61.7928 155.118 61.1631L155.202 61.0791L155.286 60.9951C155.874 60.3654 157.217 60.4914 158.057 61.289L170.65 69.6853L171.28 69.0556L158.477 60.5753Z" fill="#D44B27"/>
<path d="M164.218 74.7218C165.394 75.8133 167.157 75.8133 168.038 74.8897L168.122 74.8058L168.206 74.7218C169.046 73.7982 169.004 72.5807 167.787 71.4892L157.922 64.7722L157.292 65.4019L167.157 72.1189C167.996 72.9166 168.164 73.5043 167.577 74.1341L167.493 74.218L167.409 74.302C166.821 74.9317 165.478 74.8058 164.638 74.0081L138.822 56.7957L138.192 57.4254L164.218 74.7218Z" fill="#D44B27"/>
<path d="M136.303 50.4998C134.834 49.4516 133.306 49.4083 132.425 50.3319L132.341 50.4159L132.257 50.4998C131.417 51.4234 131.459 52.6409 132.677 53.7324L142.6 60.3642L143.229 59.7345L133.306 53.1027C132.467 52.305 132.299 51.7173 132.887 51.0876L132.971 51.0036L133.054 50.9197C133.642 50.2899 134.985 50.4159 135.825 51.2135L139.661 53.7324L140.291 53.2273C140.291 53.2273 137.772 51.5481 136.303 50.4998Z" fill="#D44B27"/>
<path d="M140.711 54.4853C142.181 55.5335 143.708 55.5768 144.59 54.6532L144.674 54.5692L144.758 54.4853C145.597 53.5617 145.555 52.3442 144.338 51.2527L136.304 46.0903V47.1398L143.708 51.8824C144.548 52.6801 144.716 53.2678 144.128 53.8975L144.044 53.9815L143.96 54.0655C143.372 54.6952 142.181 54.6545 141.341 53.8569L137.143 51.1281L136.723 51.7578C136.723 51.7578 139.242 53.437 140.711 54.4853Z" fill="#D44B27"/>
<path d="M139.662 43.7672C138.193 42.7189 136.665 42.6756 135.784 43.5992L135.7 43.6832L135.616 43.7672C134.776 44.6908 134.818 45.9082 136.035 46.9997L139.872 49.4488L140.292 48.8191L136.665 46.37C135.826 45.5724 135.658 44.9846 136.245 44.3549L136.329 44.2709L136.413 44.187C137.001 43.5573 138.344 43.6832 139.184 44.4809L143.02 46.9997L143.65 46.37C143.65 46.37 141.131 44.8154 139.662 43.7672Z" fill="#D44B27"/>
<path d="M140.501 39.5692C139.032 38.5209 137.504 38.4776 136.623 39.4012C135.674 40.213 124.97 46.7202 124.97 46.7202L125.809 47.14C125.809 47.14 136.665 40.6187 137.252 39.989C137.84 39.3593 139.183 39.4852 140.023 40.2829L143.65 42.7319L144.069 42.1022C144.069 42.1022 141.97 40.6174 140.501 39.5692Z" fill="#D44B27"/>
<path d="M143.649 47.3639C145.119 48.4122 146.646 48.4555 147.528 47.5319L147.612 47.4479L147.696 47.3639C148.535 46.4403 148.493 45.2229 147.276 44.1314L143.44 41.6823L143.02 42.312L146.646 44.7611C147.486 45.5587 147.654 46.1465 147.066 46.7762L146.982 46.8602L146.898 46.9441C146.311 47.5738 144.967 47.4479 144.128 46.6502L140.291 44.1314L139.662 44.7611C139.662 44.7611 142.18 46.3157 143.649 47.3639Z" fill="#D44B27"/>
<path d="M127.068 46.5243C125.599 47.5726 124.071 47.6159 123.19 46.6923L123.106 46.6083L123.022 46.5243C122.182 45.6007 118.883 43.3616 120.562 41.8922L124.76 38.9535L125.179 39.5833L121.401 42.3121C120.116 43.3616 123.064 45.3069 123.652 45.9366L123.736 46.0206L123.82 46.1045C124.407 46.7342 125.751 46.6083 126.59 45.8106L130.426 43.3616L131.056 43.9215C131.056 43.9215 128.537 45.4761 127.068 46.5243Z" fill="#D44B27"/>
<path d="M137.227 68.5084C138.402 67.4169 140.165 67.4169 141.047 68.3405L141.131 68.4245L141.215 68.5084C142.054 69.432 141.97 70.6075 140.753 71.699L118.043 86.4346L118.043 85.6789L140.291 71.2372C141.131 70.4396 141.173 69.7259 140.585 69.0962L140.501 69.0122L140.417 68.9282C139.829 68.2985 138.528 68.2146 137.688 69.0122L119.722 80.4732L119.26 80.0114L137.227 68.5084Z" fill="#D44B27"/>
<path d="M149.736 70.3556C151.835 69.0961 153.514 70.7754 153.514 70.7754L167.997 79.8015L167.367 80.4312L152.626 71.0379C151.625 70.3556 150.292 71.0379 150.292 71.0379C150.292 71.0379 149.492 70.5021 149.736 70.3556Z" fill="#D44B27"/>
<path d="M177.068 70.2782C179.167 69.0188 181.01 70.6495 181.01 70.6495L197.801 81.1448L197.171 81.7746L179.958 70.9605C178.957 70.2782 177.624 70.9605 177.624 70.9605C177.624 70.9605 176.824 70.4247 177.068 70.2782Z" fill="#D44B27"/>
<path d="M146.169 96.5953L146.799 97.225C146.799 97.225 168.574 83.3271 168.837 83.1602C169.309 82.8598 169.584 82.2799 169.466 81.6908C169.256 80.6412 167.997 79.8017 167.997 79.8017L167.368 80.4314C167.368 80.4314 168.433 81.0228 168.627 81.6908C168.743 82.0908 168.399 82.5049 167.997 82.7404C167.735 82.894 146.169 96.5953 146.169 96.5953Z" fill="#D44B27"/>
<path d="M149.946 100.792L150.576 101.422L176.392 84.6295L175.762 83.9998L149.946 100.792Z" fill="#D44B27"/>
<path d="M156.243 103.521L156.873 104.151L180.17 89.0374L179.541 88.4077L156.243 103.521Z" fill="#D44B27"/>
<path d="M159.887 107.835L160.517 108.465L188.565 90.7169L187.936 90.0872L159.887 107.835Z" fill="#D44B27"/>
<path d="M201.368 76.7368L200.738 77.3666L167.576 56.1659L168.206 55.5361L201.368 76.7368Z" fill="#D44B27"/>
<path d="M188.566 86.0989L187.936 86.7286L176.812 79.5916L177.442 78.9619L188.566 86.0989Z" fill="#D44B27"/>
<path d="M146.756 79.8436C147.931 78.752 148.855 78.836 149.736 79.7596L149.82 79.8436L149.904 79.9275C150.744 80.8511 150.66 82.0266 149.442 83.1181L131.308 94.5371L130.846 94.0753L148.981 82.6563C149.82 81.8587 149.862 81.145 149.274 80.5153L149.19 80.4313L149.106 80.3473C148.519 79.7176 148.015 79.5497 147.175 80.3473" fill="#D44B27"/>
<path d="M136.766 78.2902C137.941 77.1986 139.704 77.1986 140.585 78.1222L140.669 78.2062L142.432 79.8855C143.272 80.8091 143.188 81.9845 141.971 83.0761L127.908 92.396L127.279 91.7663L141.509 82.6143C142.349 81.8166 142.391 81.1029 141.803 80.4732L140.04 78.7939L139.956 78.71C139.368 78.0803 138.067 77.9963 137.227 78.7939L121.402 88.6176L120.94 88.1558L136.766 78.2902Z" fill="#D44B27"/>
<path d="M147.637 80.0115C146.504 81.019 144.195 81.4389 143.356 80.5153L143.272 80.4313L141.509 78.752C140.669 77.8284 140.753 76.653 141.97 75.5614L149.736 70.3557L150.366 70.9854L142.432 76.0232C141.593 76.8209 141.551 77.5346 142.138 78.1643L143.901 79.8436L143.985 79.9275C144.573 80.5573 146 80.3893 146.756 79.8436" fill="#D44B27"/>
<path d="M174.293 79.8016C173.454 81.0611 172.824 81.271 171.355 80.2214L169.181 78.7521C167.997 77.4926 168.249 76.4851 169.466 75.3935L176.392 69.5161L177.022 70.1458L170.104 76.0233C169.264 76.8209 169.162 77.624 169.81 78.1643C170.515 78.7521 171.985 79.5917 171.985 79.5917C173.034 80.2214 173.034 79.8016 173.664 79.1719" fill="#D44B27"/>
<path d="M76.6531 56.7115C75.8136 57.5092 75.3938 57.7611 76.2333 58.8106L76.3173 58.8946L76.4013 58.9785C76.9889 59.6083 78.2902 59.6922 79.1298 58.8946L97.0962 47.4336L97.558 47.8954L79.5916 59.3564C78.4162 60.4479 76.7371 60.3639 75.8555 59.4403H75.6876L75.6037 59.3564C74.4283 57.929 75.1419 56.9634 76.1914 56.2078" fill="#D44B27"/>
<path d="M84.7552 60.8258C83.9156 61.6234 83.4958 61.8753 84.3354 62.9249L84.4193 63.0088L84.5033 63.0928C85.091 63.7225 86.3923 63.8065 87.2319 63.0088L105.198 51.5479L105.66 52.0097L87.6936 63.4706C86.5182 64.5622 84.7552 64.5622 83.8736 63.6386L83.7897 63.5546L83.7057 63.4706C82.5304 62.0433 83.244 61.0777 84.2934 60.322" fill="#D44B27"/>
<path d="M123.608 26.9038C124.662 25.9243 126.244 25.9243 127.035 26.7531L127.111 26.8284L127.186 26.9038C127.939 27.7325 127.864 28.7873 126.772 29.7668L111.441 39.712L111.027 39.2976L126.357 29.3524C127.111 28.6366 127.148 27.9962 126.621 27.4312L126.546 27.3558L126.47 27.2805C125.943 26.7154 124.775 26.6401 124.022 27.3558L107.9 37.64L107.486 37.2257L123.608 26.9038Z" fill="#D44B27"/>
<path d="M107.759 37.904C106.704 38.8834 105 38.6773 104.209 37.8485L104.134 37.7732L104.058 37.6979C103.305 36.8691 103.308 35.7348 104.401 34.7554L119.803 24.8897L120.218 25.3041L104.887 35.2492C104.133 35.965 104.096 36.6054 104.623 37.1705L104.699 37.2458L104.774 37.3212C105.301 37.8862 106.469 37.9616 107.222 37.2458L123.344 26.9616L123.758 27.376L107.759 37.904Z" fill="#D44B27"/>
<path d="M129.588 31.3966C130.642 30.4171 132.395 30.542 133.186 31.3708L133.261 31.4461L133.336 31.5215C134.09 32.3502 134.014 33.405 132.922 34.3845L121.402 42.1019L121.612 41.2623L132.508 33.9701C133.261 33.2543 133.299 32.6139 132.771 32.0488L132.696 31.9735L132.621 31.8982C132.093 31.3331 130.926 31.2578 130.172 31.9735L114.051 42.2577L113.636 41.8433L129.588 31.3966Z" fill="#D44B27"/>
<path d="M111.764 39.5121C111.011 40.2278 110.634 40.4539 111.388 41.3957L111.463 41.471L111.538 41.5463C112.066 42.1114 113.233 42.1867 113.987 41.471L130.108 31.1868L130.523 31.6012L114.475 41.9607C113.42 42.9402 111.764 42.8648 110.973 42.0361L110.898 41.9607L110.823 41.8854C109.768 40.6046 110.408 39.7381 111.35 39.06" fill="#D44B27"/>
<path d="M91.6814 65.6957C90.8419 66.4933 90.4221 66.7452 91.2617 67.7947L91.3456 67.8787L91.4296 67.9627C92.0173 68.5924 93.3186 68.6763 94.1581 67.8787L112.125 56.4177L112.586 56.8795L94.6199 68.3405C93.4445 69.432 91.6814 69.432 90.7999 68.5084L90.7159 68.4245L90.632 68.3405C89.4566 66.9131 90.1702 65.9475 91.2197 65.1919" fill="#D44B27"/>
<path d="M99.9505 69.726C99.1109 70.5237 98.6912 70.7756 99.5307 71.8251L99.6147 71.9091L99.6986 71.993C100.286 72.6228 101.588 72.7067 102.427 71.9091L118.379 61.7915L118.84 62.2533L102.889 72.3289C101.714 73.4204 99.9505 73.4204 99.069 72.4968L98.985 72.4128L98.901 72.3289C97.7257 70.9015 98.4393 69.9359 99.4887 69.1803" fill="#D44B27"/>
<path d="M104.4 76.2329C103.56 77.0305 103.141 77.2824 103.98 78.3319L104.064 78.4159L104.148 78.4999C104.736 79.1296 106.037 79.2136 106.877 78.4159L122.828 68.2983L123.29 68.7601L107.338 78.8357C106.163 79.9272 104.4 79.9272 103.518 79.0036L103.434 78.9197L103.35 78.8357C102.175 77.4083 102.931 76.3588 103.98 75.6031" fill="#D44B27"/>
<path d="M110.907 81.5227C110.067 82.3203 109.648 82.5722 110.487 83.6217L110.571 83.7057L110.655 83.7897C111.243 84.4194 112.544 84.5034 113.384 83.7057L129.335 73.5881L129.797 74.0499L113.845 84.1255C112.67 85.217 110.907 85.217 110.025 84.2934L109.942 84.2095L109.858 84.1255C108.682 82.6981 109.228 81.8165 110.277 81.0609" fill="#D44B27"/>
<path d="M118.547 86.0988C117.707 86.8965 117.288 87.1484 118.127 88.1979L118.211 88.2819L118.295 88.3658C118.883 88.9956 120.184 89.0795 121.024 88.2819L136.975 78.1643L137.437 78.6261L121.485 88.7017C120.31 89.7932 118.547 89.7932 117.665 88.8696L117.581 88.7857L117.498 88.7017C116.322 87.2743 116.994 86.3087 118.043 85.679" fill="#D44B27"/>
<path d="M127.908 92.2282C127.068 93.0259 126.649 93.2778 127.488 94.3273L127.572 94.4113L127.656 94.4953C128.244 95.125 129.545 95.2089 130.385 94.4113L146.336 84.2937L146.798 84.7555L130.846 94.8311C129.671 95.9226 127.908 95.9226 127.026 94.999L126.943 94.9151L126.859 94.8311C125.683 93.4037 126.397 92.4381 127.446 91.6825" fill="#D44B27"/>
<path fill-rule="evenodd" clip-rule="evenodd" d="M170.222 77.3665V71.783L172.111 73.0004V78.626L170.222 77.3665Z" fill="#979797"/>
<path fill-rule="evenodd" clip-rule="evenodd" d="M199.606 84.1677L175.091 68.7185L173.202 69.894L197.591 85.2593L199.606 84.1677Z" fill="#E3E3E3"/>
<path fill-rule="evenodd" clip-rule="evenodd" d="M193.1 88.1138L173.202 75.5613L173.244 69.8938L197.633 85.2591L193.1 88.1138Z" fill="#B0B0B0"/>
<path fill-rule="evenodd" clip-rule="evenodd" d="M172.111 78.626L175.091 76.7788V71.1113L172.111 73.0005V78.626Z" fill="#7F7F7F"/>
<path fill-rule="evenodd" clip-rule="evenodd" d="M170.222 71.783L173.202 69.8938L175.091 71.0693L172.111 72.9584L170.222 71.783Z" fill="#E3E3E3"/>
<path fill-rule="evenodd" clip-rule="evenodd" d="M160.525 77.9123L147.932 70.0198L146.043 71.1953L158.636 79.1298L160.525 77.9123Z" fill="#E3E3E3"/>
<path fill-rule="evenodd" clip-rule="evenodd" d="M144.867 80.0535L147.932 78.1223V72.3289L144.867 74.26V80.0535Z" fill="#7F7F7F"/>
<path fill-rule="evenodd" clip-rule="evenodd" d="M142.978 73.0845L146.042 71.1533L147.931 72.3288L144.867 74.26L142.978 73.0845Z" fill="#E3E3E3"/>
<path fill-rule="evenodd" clip-rule="evenodd" d="M142.978 78.668V73.0845L144.867 74.3019V80.0534L142.978 78.668Z" fill="#979797"/>
<path fill-rule="evenodd" clip-rule="evenodd" d="M134.667 94.2013L163.044 76.3591L164.891 77.5346L136.556 95.3768L134.667 94.2013Z" fill="#E3E3E3"/>
<path fill-rule="evenodd" clip-rule="evenodd" d="M141.089 98.2314L164.891 83.16V77.5344L136.556 95.3766L141.089 98.2314Z" fill="#7F7F7F"/>
<path fill-rule="evenodd" clip-rule="evenodd" d="M131.476 99.1132L119.513 91.2626V86.9805L134.037 96.1744L131.476 99.1132Z" fill="#B0B0B0"/>
<path fill-rule="evenodd" clip-rule="evenodd" d="M133.449 95.8386L119.555 87.0644L121.444 85.8889L135.38 94.6631L133.449 95.8386Z" fill="#E3E3E3"/>
<path fill-rule="evenodd" clip-rule="evenodd" d="M158.971 111.792L145.539 103.311L147.428 102.136L161.28 110.532L158.971 111.792Z" fill="#E3E3E3"/>
<path fill-rule="evenodd" clip-rule="evenodd" d="M122.031 86.2666L135.968 77.4924L137.857 78.6679L123.92 87.568L122.031 86.2666Z" fill="#E3E3E3"/>
<path fill-rule="evenodd" clip-rule="evenodd" d="M96.3828 70.1039L112.376 59.9443L114.265 61.1198L98.1879 71.2374L96.3828 70.1039Z" fill="#E3E3E3"/>
<path fill-rule="evenodd" clip-rule="evenodd" d="M98.188 73.5883L69.979 55.872L72.0779 54.8225L101.462 73.2944L98.188 73.5883Z" fill="#E3E3E3"/>
<path fill-rule="evenodd" clip-rule="evenodd" d="M101.463 75.0155L114.266 66.9131V61.1196L98.1885 71.2372L101.421 73.2523V75.0155H101.463Z" fill="#7F7F7F"/>
<path fill-rule="evenodd" clip-rule="evenodd" d="M59.4431 78.878L37.4888 92.732L16.5 79.5078L38.4543 65.6958L59.4431 78.878Z" fill="#AF9D64"/>
<path fill-rule="evenodd" clip-rule="evenodd" d="M26.1548 82.8242L28.1697 84.0836L32.9132 81.103L30.8983 79.8435L26.1548 82.8242Z" fill="#C4984C"/>
<path fill-rule="evenodd" clip-rule="evenodd" d="M32.9134 81.103L28.1699 84.0837V85.805L32.9134 82.8243V81.103Z" fill="#835F25"/>
<path fill-rule="evenodd" clip-rule="evenodd" d="M26.1548 82.8242L28.1697 84.0837V85.8049L26.1968 84.5455L26.1548 82.8242Z" fill="#B08743"/>
<path fill-rule="evenodd" clip-rule="evenodd" d="M19.1865 78.4163L21.2014 79.5221V81.4533L19.2285 80.1938L19.1865 78.4163Z" fill="#B08743"/>
<path fill-rule="evenodd" clip-rule="evenodd" d="M19.1865 78.4582L21.2014 79.7177L25.9449 76.737L23.93 75.4775L19.1865 78.4582Z" fill="#C4984C"/>
<path fill-rule="evenodd" clip-rule="evenodd" d="M25.9451 76.7368L21.2017 79.7175V81.4388L25.9451 78.4581V76.7368Z" fill="#835F25"/>
<path fill-rule="evenodd" clip-rule="evenodd" d="M32.9556 87.0644L34.9705 88.3239L39.714 85.3432L37.699 84.0837L32.9556 87.0644Z" fill="#C4984C"/>
<path fill-rule="evenodd" clip-rule="evenodd" d="M39.7137 85.343L34.9702 88.3237V90.045L39.7137 87.0643V85.343Z" fill="#835F25"/>
<path fill-rule="evenodd" clip-rule="evenodd" d="M32.9556 87.0645L34.9705 88.3239V90.0451L32.9556 88.7857V87.0645Z" fill="#B08743"/>
<path fill-rule="evenodd" clip-rule="evenodd" d="M49.5362 81.9006L47.5213 83.1601L42.7778 80.1794L44.7928 78.9199L49.5362 81.9006Z" fill="#C4984C"/>
<path fill-rule="evenodd" clip-rule="evenodd" d="M42.7778 80.1794L47.5213 83.1601V84.8814L42.7778 81.9007V80.1794Z" fill="#B08743"/>
<path fill-rule="evenodd" clip-rule="evenodd" d="M49.5364 81.9006L47.5215 83.1601V84.8813L49.4944 83.6219L49.5364 81.9006Z" fill="#835F25"/>
<path fill-rule="evenodd" clip-rule="evenodd" d="M56.463 77.5347L54.4481 78.7941L49.7046 75.8134L51.7195 74.554L56.463 77.5347Z" fill="#C4984C"/>
<path fill-rule="evenodd" clip-rule="evenodd" d="M49.7466 75.8132L54.4901 78.7939V80.4732L49.7466 77.4925V75.8132Z" fill="#B08743"/>
<path fill-rule="evenodd" clip-rule="evenodd" d="M56.4627 77.5344L54.4478 78.7939V80.4731L56.4627 79.2557V77.5344Z" fill="#835F25"/>
<path fill-rule="evenodd" clip-rule="evenodd" d="M42.7364 86.1409L40.7215 87.4003L35.978 84.4196L37.993 83.1602L42.7364 86.1409Z" fill="#C4984C"/>
<path fill-rule="evenodd" clip-rule="evenodd" d="M35.978 84.4194L40.7215 87.4001V89.0794L35.978 86.1407V84.4194Z" fill="#B08743"/>
<path fill-rule="evenodd" clip-rule="evenodd" d="M42.7361 86.1409L40.7212 87.4003V89.0796L42.7361 87.8621V86.1409Z" fill="#835F25"/>
<path fill-rule="evenodd" clip-rule="evenodd" d="M57.9742 73.8821L37.1113 87.0643L18.8091 75.5194L39.7139 62.3372L57.9742 73.8821Z" fill="#C4984C"/>
<path fill-rule="evenodd" clip-rule="evenodd" d="M18.8091 75.5195L37.1113 87.0645V89.3315L18.8091 77.7865V75.5195Z" fill="#B08743"/>
<path fill-rule="evenodd" clip-rule="evenodd" d="M57.9742 73.8821L37.1113 87.0643V89.3313L57.9742 76.1911V73.8821Z" fill="#835F25"/>
<path fill-rule="evenodd" clip-rule="evenodd" d="M43.7437 68.1728L35.5581 63.009V66.6195L43.7857 71.7832V68.1728H43.7437Z" fill="#CACACA"/>
<path fill-rule="evenodd" clip-rule="evenodd" d="M35.5581 63.009L43.7857 68.1727L48.6551 65.1501L40.3855 60.0283L35.5581 63.009Z" fill="#E3E3E3"/>
<path fill-rule="evenodd" clip-rule="evenodd" d="M43.7437 68.1726L48.6131 65.1499V68.7183L43.7437 71.783V68.1726Z" fill="#B0B0B0"/>
<path fill-rule="evenodd" clip-rule="evenodd" d="M45.5907 67.5429L46.934 66.7032C47.1019 66.6193 47.2278 66.7032 47.2278 66.8292C47.2278 66.9551 47.1859 67.0391 47.1439 67.165C47.1019 67.249 47.018 67.333 46.934 67.4169L45.5907 68.2146C45.4228 68.3405 45.2969 68.2146 45.2969 68.0886C45.2969 67.9627 45.3389 67.8787 45.3808 67.7948C45.4228 67.6688 45.5068 67.5848 45.5907 67.5429Z" fill="#CACACA"/>
<path fill-rule="evenodd" clip-rule="evenodd" d="M46.934 66.6614C46.934 66.7034 46.934 66.7453 46.934 66.7453C46.934 66.8713 46.892 66.9553 46.85 67.0392C46.8081 67.1232 46.7241 67.2071 46.6401 67.2491L45.3808 68.0888C45.3388 68.0888 45.2969 68.0888 45.2549 68.0888C45.2549 68.0888 45.2549 68.0888 45.2549 68.0048C45.2549 67.8788 45.2969 67.7949 45.3388 67.7109C45.3808 67.627 45.4648 67.543 45.5487 67.459L46.892 66.6614H46.934Z" fill="#7F7F7F"/>
<path fill-rule="evenodd" clip-rule="evenodd" d="M43.7437 64.4362L35.5581 59.2725V62.8829L43.7857 68.0466V64.4362H43.7437Z" fill="#CACACA"/>
<path fill-rule="evenodd" clip-rule="evenodd" d="M35.5581 59.2724L43.7857 64.4362L48.6551 61.4135L40.3855 56.2917L35.5581 59.2724Z" fill="#E3E3E3"/>
<path fill-rule="evenodd" clip-rule="evenodd" d="M43.7437 64.4363L48.6131 61.4136V64.982L43.7437 68.0467V64.4363Z" fill="#B0B0B0"/>
<path fill-rule="evenodd" clip-rule="evenodd" d="M45.5907 63.8065L46.934 63.0089C47.1019 62.9249 47.2278 63.0089 47.2278 63.1348C47.2278 63.2608 47.1859 63.3447 47.1439 63.4707C47.1019 63.5547 47.018 63.6386 46.934 63.7226L45.5907 64.5202C45.4228 64.6462 45.2969 64.5202 45.2969 64.3943C45.2969 64.2683 45.3389 64.1844 45.3808 64.1004C45.4228 63.9325 45.5068 63.8485 45.5907 63.8065Z" fill="#CACACA"/>
<path fill-rule="evenodd" clip-rule="evenodd" d="M46.934 62.925C46.934 62.967 46.934 63.009 46.934 63.009C46.934 63.1349 46.892 63.2189 46.85 63.3029C46.8081 63.3868 46.7241 63.4708 46.6401 63.5128L45.3808 64.3104C45.3388 64.3104 45.2969 64.3104 45.2549 64.3104C45.2549 64.3104 45.2549 64.3104 45.2549 64.2265C45.2549 64.1005 45.2969 64.0166 45.3388 63.9326C45.3808 63.8486 45.4648 63.7647 45.5487 63.7227L46.892 62.8831H46.934V62.925Z" fill="#7F7F7F"/>
<path fill-rule="evenodd" clip-rule="evenodd" d="M43.7437 60.6579L35.5581 55.4941V59.1046L43.7857 64.2683V60.6579H43.7437Z" fill="#CACACA"/>
<path fill-rule="evenodd" clip-rule="evenodd" d="M35.5581 55.4941L43.7857 60.6579L48.6551 57.6352L40.3855 52.5134L35.5581 55.4941Z" fill="#E3E3E3"/>
<path fill-rule="evenodd" clip-rule="evenodd" d="M43.7437 60.6579L48.6131 57.6353V61.2037L43.7437 64.2684V60.6579Z" fill="#B0B0B0"/>
<path fill-rule="evenodd" clip-rule="evenodd" d="M45.5907 60.0282L46.934 59.1886C47.1019 59.1046 47.2278 59.1886 47.2278 59.3145C47.2278 59.4405 47.1859 59.5244 47.1439 59.6084C47.1019 59.6924 47.018 59.7763 46.934 59.8183L45.5907 60.6579C45.4228 60.7839 45.2969 60.6579 45.2969 60.532C45.2969 60.4061 45.3389 60.3221 45.3808 60.2381C45.4228 60.1961 45.5068 60.1122 45.5907 60.0282Z" fill="#CACACA"/>
<path fill-rule="evenodd" clip-rule="evenodd" d="M46.934 59.1885C46.934 59.2305 46.934 59.2724 46.934 59.2724C46.934 59.3984 46.892 59.4823 46.85 59.5663C46.8081 59.6503 46.7241 59.7342 46.6401 59.7762L45.3808 60.5739C45.3388 60.5739 45.2969 60.5739 45.2549 60.5739C45.2549 60.5739 45.2549 60.5739 45.2549 60.4899C45.2549 60.364 45.2969 60.28 45.3388 60.196C45.3808 60.1121 45.4648 60.0281 45.5487 59.9861L46.892 59.1885H46.934Z" fill="#7F7F7F"/>
<path fill-rule="evenodd" clip-rule="evenodd" d="M43.7437 56.9216L35.5581 51.7578V55.3682L43.7857 60.532V56.9216H43.7437Z" fill="#CACACA"/>
<path fill-rule="evenodd" clip-rule="evenodd" d="M35.5581 51.7578L43.7857 56.9215L48.6551 53.8988L40.3855 48.7771L35.5581 51.7578Z" fill="#E3E3E3"/>
<path fill-rule="evenodd" clip-rule="evenodd" d="M43.7437 56.9216L48.6131 53.8989V57.4674L43.7437 60.532V56.9216Z" fill="#B0B0B0"/>
<path fill-rule="evenodd" clip-rule="evenodd" d="M45.5907 56.2919L46.934 55.4942C47.1019 55.4103 47.2278 55.4942 47.2278 55.6202C47.2278 55.7461 47.1859 55.8301 47.1439 55.9141C47.1019 55.998 47.018 56.082 46.934 56.124L45.5907 56.9216C45.4228 57.0476 45.2969 56.9216 45.2969 56.7957C45.2969 56.6697 45.3389 56.5858 45.3808 56.5018C45.4228 56.4178 45.5068 56.3759 45.5907 56.2919Z" fill="#CACACA"/>
<path fill-rule="evenodd" clip-rule="evenodd" d="M46.934 55.4521C46.934 55.4941 46.934 55.5361 46.934 55.5361C46.934 55.662 46.892 55.746 46.85 55.83C46.8081 55.9139 46.7241 55.9979 46.6401 56.0399L45.3808 56.8375C45.3388 56.8375 45.2969 56.8375 45.2549 56.8375C45.2549 56.8375 45.2549 56.8375 45.2549 56.7536C45.2549 56.6276 45.2969 56.5437 45.3388 56.4597C45.3808 56.3757 45.4648 56.2918 45.5487 56.2498L46.892 55.4102H46.934V55.4521Z" fill="#7F7F7F"/>
<path fill-rule="evenodd" clip-rule="evenodd" d="M43.7437 53.1852L35.5581 48.0215V51.6319L43.7857 56.7956V53.1852H43.7437Z" fill="#CACACA"/>
<path fill-rule="evenodd" clip-rule="evenodd" d="M35.5581 48.0215L43.7857 53.1852L48.6551 50.1625L40.3855 45.0408L35.5581 48.0215Z" fill="#E3E3E3"/>
<path fill-rule="evenodd" clip-rule="evenodd" d="M43.7437 53.1853L48.6131 50.1626V53.731L43.7437 56.7957V53.1853Z" fill="#B0B0B0"/>
<path fill-rule="evenodd" clip-rule="evenodd" d="M45.5907 52.5554L46.934 51.7577C47.1019 51.6318 47.2278 51.7577 47.2278 51.8837C47.2278 52.0096 47.1859 52.0936 47.1439 52.1776C47.1019 52.2615 47.018 52.3455 46.934 52.3875L45.5907 53.1851C45.4228 53.2691 45.2969 53.1851 45.2969 53.0592C45.2969 52.9332 45.3389 52.8493 45.3808 52.7653C45.4228 52.6813 45.5068 52.5974 45.5907 52.5554Z" fill="#CACACA"/>
<path fill-rule="evenodd" clip-rule="evenodd" d="M46.934 51.6738C46.934 51.7158 46.934 51.7578 46.934 51.7578C46.934 51.8837 46.892 51.9677 46.85 52.0517C46.8081 52.1356 46.7241 52.2196 46.6401 52.2616L45.3808 53.0592C45.3388 53.0592 45.2969 53.0592 45.2549 53.0592C45.2549 53.0592 45.2549 53.0592 45.2549 52.9753C45.2549 52.8493 45.2969 52.7654 45.3388 52.6814C45.3808 52.5974 45.4648 52.5135 45.5487 52.4715L46.892 51.6738H46.934Z" fill="#7F7F7F"/>
<path fill-rule="evenodd" clip-rule="evenodd" d="M38.6641 71.2792L30.4365 66.1155V69.7259L38.6641 74.8896V71.2792Z" fill="#CACACA"/>
<path fill-rule="evenodd" clip-rule="evenodd" d="M30.4785 66.1155L38.7061 71.2792L43.5755 68.2565L35.3059 63.1348L30.4785 66.1155Z" fill="#E3E3E3"/>
<path fill-rule="evenodd" clip-rule="evenodd" d="M38.6641 71.2793L43.5335 68.2566V71.825L38.6641 74.8897V71.2793Z" fill="#B0B0B0"/>
<path fill-rule="evenodd" clip-rule="evenodd" d="M40.4692 70.6496L41.7285 69.8099C41.8964 69.726 42.0643 69.8099 42.0643 69.9359C42.0643 70.0618 42.0223 70.1458 41.9803 70.2297C41.9384 70.3137 41.8544 70.3977 41.7705 70.4396L40.5111 71.2793C40.3432 71.4052 40.2173 71.2793 40.2173 71.1533C40.2173 71.0274 40.2593 70.9434 40.3012 70.8595C40.3012 70.7755 40.3852 70.6915 40.4692 70.6496Z" fill="#CACACA"/>
<path fill-rule="evenodd" clip-rule="evenodd" d="M41.8969 69.7678C41.8969 69.8098 41.8969 69.8518 41.8969 69.8518C41.8969 69.9777 41.8549 70.0617 41.8129 70.1457C41.7709 70.2296 41.687 70.3136 41.603 70.3556L40.3437 71.1532H40.1758C40.1758 71.1112 40.1758 71.0692 40.1758 71.0692C40.1758 70.9433 40.2178 70.8593 40.2597 70.7754C40.3017 70.6914 40.3857 70.6074 40.4696 70.5655L41.729 69.7678H41.8969Z" fill="#7F7F7F"/>
<path fill-rule="evenodd" clip-rule="evenodd" d="M38.6641 67.5009L30.4365 62.3372V65.9476L38.6641 71.1113V67.5009Z" fill="#CACACA"/>
<path fill-rule="evenodd" clip-rule="evenodd" d="M30.4785 62.3791L38.7061 67.5429L43.5755 64.5202L35.3059 59.3564L30.4785 62.3791Z" fill="#E3E3E3"/>
<path fill-rule="evenodd" clip-rule="evenodd" d="M38.6641 67.5009L43.5335 64.4783V68.0467L38.6641 71.1114V67.5009Z" fill="#B0B0B0"/>
<path fill-rule="evenodd" clip-rule="evenodd" d="M40.4692 66.9552L41.7285 66.1156C41.8964 66.0316 42.0643 66.1156 42.0643 66.2415C42.0643 66.3675 42.0223 66.4514 41.9803 66.5354C41.9384 66.6194 41.8544 66.7033 41.7705 66.7453L40.5111 67.5849C40.3432 67.6689 40.2173 67.5849 40.2173 67.459C40.2173 67.3331 40.2593 67.2491 40.3012 67.1651C40.3012 67.0812 40.3852 66.9972 40.4692 66.9552Z" fill="#CACACA"/>
<path fill-rule="evenodd" clip-rule="evenodd" d="M41.8969 66.0315C41.8969 66.0735 41.8969 66.1155 41.8969 66.1155C41.8969 66.2414 41.8549 66.3254 41.8129 66.4093C41.7709 66.4933 41.687 66.5773 41.603 66.6612L40.3437 67.4589H40.1758C40.1758 67.4169 40.1758 67.3749 40.1758 67.3749C40.1758 67.249 40.2178 67.165 40.2597 67.081C40.3017 66.9971 40.3857 66.9131 40.4696 66.8711L41.729 66.0315H41.8969Z" fill="#7F7F7F"/>
<path fill-rule="evenodd" clip-rule="evenodd" d="M38.6641 63.7646L30.4365 58.6008V62.2113L38.6641 67.375V63.7646Z" fill="#CACACA"/>
<path fill-rule="evenodd" clip-rule="evenodd" d="M30.4785 58.6428L38.7061 63.8065L43.5755 60.7839L35.3059 55.6621L30.4785 58.6428Z" fill="#E3E3E3"/>
<path fill-rule="evenodd" clip-rule="evenodd" d="M38.6641 63.7646L43.5335 60.7419V64.3104L38.6641 67.375V63.7646Z" fill="#B0B0B0"/>
<path fill-rule="evenodd" clip-rule="evenodd" d="M40.4692 63.1767L41.7285 62.3371C41.8964 62.2111 42.0643 62.3371 42.0643 62.463C42.0643 62.589 42.0223 62.6729 41.9803 62.7569C41.9384 62.8409 41.8544 62.9248 41.7705 62.9668L40.5111 63.7644C40.3432 63.8484 40.2173 63.7644 40.2173 63.6385C40.2173 63.5126 40.2593 63.4286 40.3012 63.3446C40.3012 63.3027 40.3852 63.2187 40.4692 63.1767Z" fill="#CACACA"/>
<path fill-rule="evenodd" clip-rule="evenodd" d="M41.8969 62.2952C41.8969 62.3371 41.8969 62.3791 41.8969 62.3791C41.8969 62.5051 41.8549 62.589 41.8129 62.673C41.7709 62.757 41.687 62.8409 41.603 62.9249L40.3437 63.7225H40.1758C40.1758 63.6806 40.1758 63.6386 40.1758 63.6386C40.1758 63.5126 40.2178 63.4287 40.2597 63.3447C40.3017 63.2607 40.3857 63.1768 40.4696 63.1348L41.729 62.3372H41.8969V62.2952Z" fill="#7F7F7F"/>
<path fill-rule="evenodd" clip-rule="evenodd" d="M38.6641 60.0282L30.4365 54.8645V58.4749L38.6641 63.6386V60.0282Z" fill="#CACACA"/>
<path fill-rule="evenodd" clip-rule="evenodd" d="M30.4785 54.8645L38.7061 60.0282L43.5755 57.0055L35.3059 51.8838L30.4785 54.8645Z" fill="#E3E3E3"/>
<path fill-rule="evenodd" clip-rule="evenodd" d="M38.6641 60.0283L43.5335 57.0056V60.574L38.6641 63.6387V60.0283Z" fill="#B0B0B0"/>
<path fill-rule="evenodd" clip-rule="evenodd" d="M40.4692 59.3984L41.7285 58.6008C41.8964 58.4748 42.0643 58.6008 42.0643 58.7267C42.0643 58.8526 42.0223 58.9366 41.9803 59.0206C41.9384 59.1045 41.8544 59.1885 41.7705 59.2305L40.5111 60.0281C40.3432 60.1121 40.2173 60.0281 40.2173 59.9022C40.2173 59.7762 40.2593 59.6923 40.3012 59.6083C40.3012 59.5663 40.3852 59.4824 40.4692 59.3984Z" fill="#CACACA"/>
<path fill-rule="evenodd" clip-rule="evenodd" d="M41.8969 58.5168C41.8969 58.5588 41.8969 58.6008 41.8969 58.6008C41.8969 58.7268 41.8549 58.8107 41.8129 58.8947C41.7709 58.9786 41.687 59.0626 41.603 59.1466L40.3437 59.9442H40.1758C40.1758 59.9022 40.1758 59.8603 40.1758 59.8603C40.1758 59.7343 40.2178 59.6504 40.2597 59.5664C40.3017 59.4824 40.3857 59.3985 40.4696 59.3565L41.729 58.5588L41.8969 58.5168Z" fill="#7F7F7F"/>
<path fill-rule="evenodd" clip-rule="evenodd" d="M38.6641 56.2919L30.4365 51.1282V54.7386L38.6641 59.9023V56.2919Z" fill="#CACACA"/>
<path fill-rule="evenodd" clip-rule="evenodd" d="M30.4785 51.1281L38.7061 56.2919L43.5755 53.2692L35.3059 48.1475L30.4785 51.1281Z" fill="#E3E3E3"/>
<path fill-rule="evenodd" clip-rule="evenodd" d="M38.6641 56.2917L43.5335 53.269V56.8375L38.6641 59.9021V56.2917Z" fill="#B0B0B0"/>
<path fill-rule="evenodd" clip-rule="evenodd" d="M40.4692 55.6621L41.7285 54.8644C41.8964 54.7385 42.0643 54.8644 42.0643 54.9904C42.0643 55.1163 42.0223 55.2003 41.9803 55.2842C41.9384 55.3682 41.8544 55.4522 41.7705 55.4941L40.5111 56.3338C40.3432 56.4177 40.2173 56.3338 40.2173 56.2078C40.2173 56.0819 40.2593 55.9979 40.3012 55.872C40.3012 55.788 40.3852 55.7041 40.4692 55.6621Z" fill="#CACACA"/>
<path fill-rule="evenodd" clip-rule="evenodd" d="M41.8969 54.7805C41.8969 54.8225 41.8969 54.8645 41.8969 54.8645C41.8969 54.9904 41.8549 55.0744 41.8129 55.1583C41.7709 55.2423 41.687 55.3263 41.603 55.4102L40.3437 56.2079H40.1758C40.1758 56.1659 40.1758 56.1239 40.1758 56.1239C40.1758 55.998 40.2178 55.914 40.2597 55.7881C40.3017 55.7041 40.3857 55.6201 40.4696 55.5362L41.729 54.7385L41.8969 54.7805Z" fill="#7F7F7F"/>
<path fill-rule="evenodd" clip-rule="evenodd" d="M33.5846 74.3859L25.3989 69.2222V72.8326L33.5846 77.9963V74.3859Z" fill="#CACACA"/>
<path fill-rule="evenodd" clip-rule="evenodd" d="M25.3574 69.2222L33.585 74.3859L38.4544 71.3632L30.1848 66.2415L25.3574 69.2222Z" fill="#E3E3E3"/>
<path fill-rule="evenodd" clip-rule="evenodd" d="M33.585 74.386L38.4544 71.3633V74.9317L33.585 77.9964V74.386Z" fill="#B0B0B0"/>
<path fill-rule="evenodd" clip-rule="evenodd" d="M35.39 73.7563L36.7333 72.9167C36.9012 72.7907 37.0691 72.9167 37.0691 73.0426C37.0691 73.1686 37.0272 73.2525 36.9852 73.3365C36.9432 73.4204 36.8592 73.5044 36.7753 73.5464L35.432 74.386C35.2641 74.47 35.0962 74.386 35.0962 74.2601C35.0962 74.1341 35.1382 74.0502 35.1801 73.9662C35.2221 73.8822 35.3061 73.8403 35.39 73.7563Z" fill="#CACACA"/>
<path fill-rule="evenodd" clip-rule="evenodd" d="M36.8173 72.9165C36.8173 72.9585 36.8173 73.0005 36.8173 73.0005C36.8173 73.1264 36.7753 73.2104 36.7333 73.2943C36.6913 73.3783 36.6074 73.4623 36.5234 73.5042L35.1801 74.3019C35.1382 74.3019 35.0962 74.3019 35.0542 74.3019C35.0542 74.2599 35.0542 74.2179 35.0542 74.2179C35.0542 74.092 35.0962 74.008 35.1382 73.924C35.1801 73.8401 35.2641 73.7561 35.348 73.7141L36.6913 72.9165C36.7333 72.8745 36.7753 72.8745 36.8173 72.9165Z" fill="#7F7F7F"/>
<path fill-rule="evenodd" clip-rule="evenodd" d="M33.5846 70.6496L25.3989 65.4858V69.0963L33.5846 74.26V70.6496Z" fill="#CACACA"/>
<path fill-rule="evenodd" clip-rule="evenodd" d="M25.3574 65.4858L33.585 70.6496L38.4544 67.6269L30.1848 62.5051L25.3574 65.4858Z" fill="#E3E3E3"/>
<path fill-rule="evenodd" clip-rule="evenodd" d="M33.585 70.6496L38.4544 67.627V71.1954L33.585 74.26V70.6496Z" fill="#B0B0B0"/>
<path fill-rule="evenodd" clip-rule="evenodd" d="M35.39 70.0197L36.7333 69.2221C36.9012 69.0961 37.0691 69.2221 37.0691 69.348C37.0691 69.474 37.0272 69.5579 36.9852 69.6419C36.9432 69.7259 36.8592 69.8098 36.7753 69.8518L35.432 70.6495C35.2641 70.7334 35.0962 70.6495 35.0962 70.5235C35.0962 70.3976 35.1382 70.3136 35.1801 70.1877C35.2221 70.1457 35.3061 70.0617 35.39 70.0197Z" fill="#CACACA"/>
<path fill-rule="evenodd" clip-rule="evenodd" d="M36.8173 69.1382V69.2221C36.8173 69.3481 36.7753 69.432 36.7333 69.516C36.6913 69.6 36.6074 69.6839 36.5234 69.7259L35.1801 70.5236H35.0542C35.0542 70.4816 35.0542 70.4396 35.0542 70.4396C35.0542 70.3136 35.0962 70.2297 35.1382 70.1037C35.1801 70.0198 35.2641 69.9358 35.348 69.8518L36.6913 69.0542L36.8173 69.1382Z" fill="#7F7F7F"/>
<path fill-rule="evenodd" clip-rule="evenodd" d="M33.5846 66.8713L25.3989 61.7075V65.3179L33.5846 70.4817V66.8713Z" fill="#CACACA"/>
<path fill-rule="evenodd" clip-rule="evenodd" d="M25.3574 61.7075L33.585 66.8712L38.4544 63.8486L30.1848 58.7268L25.3574 61.7075Z" fill="#E3E3E3"/>
<path fill-rule="evenodd" clip-rule="evenodd" d="M33.585 66.8713L38.4544 63.8486V67.4171L33.585 70.4817V66.8713Z" fill="#B0B0B0"/>
<path fill-rule="evenodd" clip-rule="evenodd" d="M35.39 66.2414L36.7333 65.4438C36.9012 65.3178 37.0691 65.4438 37.0691 65.5697C37.0691 65.6957 37.0272 65.7796 36.9852 65.8636C36.9432 65.9475 36.8592 66.0315 36.7753 66.0735L35.432 66.9131C35.2641 66.9971 35.0962 66.9131 35.0962 66.7872C35.0962 66.6612 35.1382 66.5773 35.1801 66.4513C35.2221 66.4093 35.3061 66.3254 35.39 66.2414Z" fill="#CACACA"/>
<path fill-rule="evenodd" clip-rule="evenodd" d="M36.8173 65.4019V65.4858C36.8173 65.6118 36.7753 65.6957 36.7333 65.8217C36.6913 65.9056 36.6074 65.9896 36.5234 66.0736L35.1801 66.8712H35.0542C35.0542 66.8292 35.0542 66.7872 35.0542 66.7872C35.0542 66.6613 35.0962 66.5773 35.1382 66.4514C35.1801 66.3674 35.2641 66.2835 35.348 66.1995L36.6913 65.4019H36.8173Z" fill="#7F7F7F"/>
<path fill-rule="evenodd" clip-rule="evenodd" d="M33.5846 63.1349L25.3989 57.9712V61.5816L33.5846 66.7454V63.1349Z" fill="#CACACA"/>
<path fill-rule="evenodd" clip-rule="evenodd" d="M25.3574 57.9712L33.585 63.1349L38.4544 60.1122L30.1848 54.9905L25.3574 57.9712Z" fill="#E3E3E3"/>
<path fill-rule="evenodd" clip-rule="evenodd" d="M33.585 63.1347L38.4544 60.1121V63.7225L33.585 66.7871V63.1347Z" fill="#B0B0B0"/>
<path fill-rule="evenodd" clip-rule="evenodd" d="M35.39 62.5471L36.7333 61.7494C36.9012 61.6235 37.0691 61.7494 37.0691 61.8754C37.0691 62.0013 37.0272 62.0853 36.9852 62.1692C36.9432 62.2532 36.8592 62.3372 36.7753 62.3792L35.432 63.1768C35.2641 63.3027 35.0962 63.1768 35.0962 63.0509C35.0962 62.9249 35.1382 62.841 35.1801 62.715C35.2221 62.715 35.3061 62.631 35.39 62.5471Z" fill="#CACACA"/>
<path fill-rule="evenodd" clip-rule="evenodd" d="M36.8172 61.6655V61.7495C36.8172 61.8754 36.7753 61.9594 36.7333 62.0853C36.6913 62.1693 36.6074 62.2533 36.5234 62.3372L35.1381 63.1349H35.0122C35.0122 63.0929 35.0122 63.0509 35.0122 63.0509C35.0122 62.925 35.0542 62.841 35.0962 62.7151C35.1381 62.6311 35.2221 62.5471 35.3061 62.4632L36.6493 61.6655H36.8172Z" fill="#7F7F7F"/>
<path fill-rule="evenodd" clip-rule="evenodd" d="M33.5846 59.3986L25.3989 54.2349V57.8453L33.5846 63.009V59.3986Z" fill="#CACACA"/>
<path fill-rule="evenodd" clip-rule="evenodd" d="M25.3574 54.2348L33.585 59.3986L38.4544 56.3759L30.1848 51.2542L25.3574 54.2348Z" fill="#E3E3E3"/>
<path fill-rule="evenodd" clip-rule="evenodd" d="M33.585 59.3984L38.4544 56.3757V59.9442L33.585 63.0088V59.3984Z" fill="#B0B0B0"/>
<path fill-rule="evenodd" clip-rule="evenodd" d="M35.39 58.7688L36.7333 57.9711C36.9012 57.8452 37.0691 57.9711 37.0691 58.0971C37.0691 58.223 37.0272 58.307 36.9852 58.3909C36.9432 58.4749 36.8592 58.5589 36.7753 58.6008L35.432 59.3985C35.2641 59.5244 35.0962 59.3985 35.0962 59.2725C35.0962 59.1466 35.1382 59.0626 35.1801 58.9367C35.2221 58.8947 35.3061 58.8527 35.39 58.7688Z" fill="#CACACA"/>
<path fill-rule="evenodd" clip-rule="evenodd" d="M36.8172 57.9292C36.8172 57.9292 36.8172 57.9292 36.8172 58.0132C36.8172 58.1391 36.7753 58.2231 36.7333 58.349C36.6913 58.433 36.6074 58.5169 36.5234 58.6009L35.1381 59.3566H35.0122C35.0122 59.3146 35.0122 59.2726 35.0122 59.2726C35.0122 59.1467 35.0542 59.0627 35.0962 58.9368C35.1381 58.8528 35.2221 58.7688 35.3061 58.6849L36.6493 57.8872H36.8172V57.9292Z" fill="#7F7F7F"/>
<path fill-rule="evenodd" clip-rule="evenodd" d="M28.5054 77.4926L20.2778 72.3289V75.9393L28.5054 81.103V77.4926Z" fill="#CACACA"/>
<path fill-rule="evenodd" clip-rule="evenodd" d="M20.2778 72.3288L28.5054 77.4926L33.3749 74.4699L25.1053 69.3481L20.2778 72.3288Z" fill="#E3E3E3"/>
<path fill-rule="evenodd" clip-rule="evenodd" d="M28.5059 77.4926L33.3753 74.47V78.0384L28.5059 81.1031V77.4926Z" fill="#B0B0B0"/>
<path fill-rule="evenodd" clip-rule="evenodd" d="M30.3109 76.8627L31.6542 76.0651C31.8221 75.9392 31.9481 76.0651 31.9481 76.1911C31.9481 76.317 31.9061 76.401 31.8641 76.4849C31.8221 76.5689 31.7382 76.6528 31.6542 76.7368L30.3109 77.5764C30.143 77.6604 30.0171 77.5764 30.0171 77.4505C30.0171 77.3245 30.0591 77.2406 30.101 77.1146C30.143 76.9887 30.227 76.9047 30.3109 76.8627Z" fill="#CACACA"/>
<path fill-rule="evenodd" clip-rule="evenodd" d="M31.6962 75.9812C31.6962 76.0232 31.6962 76.0652 31.6962 76.0652C31.6962 76.1911 31.6542 76.2751 31.6122 76.401C31.5703 76.485 31.4863 76.5689 31.4023 76.6529L30.143 77.4506H30.0171C30.0171 77.4086 30.0171 77.3666 30.0171 77.3666C30.0171 77.2406 30.0591 77.1567 30.101 77.0307C30.143 76.9468 30.227 76.8628 30.3109 76.7788L31.6542 75.9812H31.6962Z" fill="#7F7F7F"/>
<path fill-rule="evenodd" clip-rule="evenodd" d="M28.5054 73.7563L20.2778 68.5925V72.203L28.5054 77.3667V73.7563Z" fill="#CACACA"/>
<path fill-rule="evenodd" clip-rule="evenodd" d="M20.2778 68.5925L28.5054 73.7562L33.3749 70.7336L25.1053 65.6118L20.2778 68.5925Z" fill="#E3E3E3"/>
<path fill-rule="evenodd" clip-rule="evenodd" d="M28.5059 73.7561L33.3753 70.7334V74.3018L28.5059 77.3665V73.7561Z" fill="#B0B0B0"/>
<path fill-rule="evenodd" clip-rule="evenodd" d="M30.3109 73.1264L31.6542 72.3288C31.8221 72.2028 31.9481 72.3288 31.9481 72.4547C31.9481 72.5807 31.9061 72.6646 31.8641 72.7486C31.8221 72.8326 31.7382 72.9165 31.6542 73.0005L30.3109 73.7981C30.143 73.9241 30.0171 73.7981 30.0171 73.6722C30.0171 73.5462 30.0591 73.4623 30.101 73.3363C30.143 73.2524 30.227 73.1684 30.3109 73.1264Z" fill="#CACACA"/>
<path fill-rule="evenodd" clip-rule="evenodd" d="M31.6962 72.2449C31.6962 72.2869 31.6962 72.3288 31.6962 72.3288C31.6962 72.4548 31.6542 72.5387 31.6122 72.6647C31.5703 72.7487 31.4863 72.8326 31.4023 72.9166L30.143 73.7142H30.0171C30.0171 73.6723 30.0171 73.6303 30.0171 73.6303C30.0171 73.5043 30.0591 73.4204 30.101 73.2944C30.143 73.2105 30.227 73.1265 30.3109 73.0425L31.6542 72.2449H31.6962Z" fill="#7F7F7F"/>
<path fill-rule="evenodd" clip-rule="evenodd" d="M28.5054 70.0197L20.2778 64.856V68.4664L28.5054 73.6301V70.0197Z" fill="#CACACA"/>
<path fill-rule="evenodd" clip-rule="evenodd" d="M20.2778 64.8562L28.5054 70.0199L33.3749 66.9972L25.1053 61.8755L20.2778 64.8562Z" fill="#E3E3E3"/>
<path fill-rule="evenodd" clip-rule="evenodd" d="M28.5059 70.0197L33.3753 66.9971V70.5655L28.5059 73.6302V70.0197Z" fill="#B0B0B0"/>
<path fill-rule="evenodd" clip-rule="evenodd" d="M30.3109 69.3901L31.6542 68.5925C31.8221 68.4665 31.9481 68.5925 31.9481 68.7184C31.9481 68.8443 31.9061 68.9283 31.8641 69.0123C31.8221 69.0962 31.7382 69.1802 31.6542 69.2642L30.3109 70.0618C30.143 70.1877 30.0171 70.0618 30.0171 69.9359C30.0171 69.8099 30.0591 69.726 30.101 69.642C30.143 69.516 30.227 69.4321 30.3109 69.3901Z" fill="#CACACA"/>
<path fill-rule="evenodd" clip-rule="evenodd" d="M31.6962 68.5085C31.6962 68.5505 31.6962 68.5925 31.6962 68.5925C31.6962 68.7185 31.6542 68.8024 31.6122 68.9284C31.5703 69.0123 31.4863 69.0963 31.4023 69.1802L30.143 69.9779H30.0171C30.0171 69.9359 30.0171 69.8939 30.0171 69.8939C30.0171 69.768 30.0591 69.684 30.101 69.6001C30.143 69.5161 30.227 69.4321 30.3109 69.3482L31.6542 68.5505L31.6962 68.5085Z" fill="#7F7F7F"/>
<path fill-rule="evenodd" clip-rule="evenodd" d="M28.5054 66.2414L20.2778 61.0776V64.6881L28.5054 69.8518V66.2414Z" fill="#CACACA"/>
<path fill-rule="evenodd" clip-rule="evenodd" d="M20.2778 61.0779L28.5054 66.2416L33.3749 63.2189L25.1053 58.0972L20.2778 61.0779Z" fill="#E3E3E3"/>
<path fill-rule="evenodd" clip-rule="evenodd" d="M28.5059 66.2414L33.3753 63.2188V66.7872L28.5059 69.8518V66.2414Z" fill="#B0B0B0"/>
<path fill-rule="evenodd" clip-rule="evenodd" d="M30.3109 65.6118L31.6542 64.8141C31.8221 64.6882 31.9481 64.8141 31.9481 64.9401C31.9481 65.066 31.9061 65.15 31.8641 65.2759C31.8221 65.3599 31.7382 65.4439 31.6542 65.5278L30.3109 66.3255C30.143 66.4514 30.0171 66.3255 30.0171 66.1995C30.0171 66.0736 30.0591 65.9896 30.101 65.9057C30.143 65.7797 30.227 65.6957 30.3109 65.6118Z" fill="#CACACA"/>
<path fill-rule="evenodd" clip-rule="evenodd" d="M31.6962 64.7722C31.6962 64.8142 31.6962 64.8562 31.6962 64.8562C31.6962 64.9821 31.6542 65.0661 31.6122 65.192C31.5703 65.276 31.4863 65.36 31.4023 65.4439L30.143 66.2416H30.0171C30.0171 66.2416 30.0171 66.2416 30.0171 66.1576C30.0171 66.0317 30.0591 65.9477 30.101 65.8637C30.143 65.7798 30.227 65.6958 30.3109 65.6118L31.6542 64.8142L31.6962 64.7722Z" fill="#7F7F7F"/>
<path fill-rule="evenodd" clip-rule="evenodd" d="M28.5054 62.5051L20.2778 57.3413V60.9517L28.5054 66.1155V62.5051Z" fill="#CACACA"/>
<path fill-rule="evenodd" clip-rule="evenodd" d="M20.2778 57.3413L28.5054 62.505L33.3749 59.4824L25.1053 54.3606L20.2778 57.3413Z" fill="#E3E3E3"/>
<path fill-rule="evenodd" clip-rule="evenodd" d="M28.5059 62.5051L33.3753 59.4824V63.0509L28.5059 66.1155V62.5051Z" fill="#B0B0B0"/>
<path fill-rule="evenodd" clip-rule="evenodd" d="M30.3109 61.8754L31.6542 61.0358C31.8221 60.9518 31.9481 61.0358 31.9481 61.1617C31.9481 61.2876 31.9061 61.3716 31.8641 61.4976C31.8221 61.5815 31.7382 61.6655 31.6542 61.7494L30.3109 62.5471C30.143 62.673 30.0171 62.5471 30.0171 62.4212C30.0171 62.2952 30.0591 62.2112 30.101 62.1273C30.143 62.0433 30.227 61.9593 30.3109 61.8754Z" fill="#CACACA"/>
<path fill-rule="evenodd" clip-rule="evenodd" d="M31.6962 61.0776C31.6962 61.1196 31.6962 61.1616 31.6962 61.1616C31.6962 61.2875 31.6542 61.3715 31.6122 61.4555C31.5703 61.5394 31.4863 61.6234 31.4023 61.6654L30.143 62.505H30.0171C30.0171 62.463 30.0171 62.421 30.0171 62.421C30.0171 62.2951 30.0591 62.2111 30.101 62.1272C30.143 62.0432 30.227 61.9592 30.3109 61.8753L31.6542 61.0776H31.6962Z" fill="#7F7F7F"/>
<path fill-rule="evenodd" clip-rule="evenodd" d="M52.2232 73.5043L43.9956 68.3406V71.951L52.2232 77.1147V73.5043Z" fill="#CACACA"/>
<path fill-rule="evenodd" clip-rule="evenodd" d="M44.0371 68.3406L52.2647 73.5043L57.1341 70.4816L48.8645 65.3599L44.0371 68.3406Z" fill="#E3E3E3"/>
<path fill-rule="evenodd" clip-rule="evenodd" d="M52.2231 73.5044L57.0925 70.4817V74.0501L52.2231 77.1148V73.5044Z" fill="#B0B0B0"/>
<path fill-rule="evenodd" clip-rule="evenodd" d="M54.0277 72.8746L55.2871 72.035C55.455 71.9511 55.6229 72.035 55.6229 72.161C55.6229 72.2869 55.5809 72.3709 55.5389 72.4968C55.497 72.5808 55.413 72.6647 55.3291 72.7067L54.0697 73.5464C53.9018 73.6303 53.7759 73.5464 53.7759 73.4204C53.7759 73.2945 53.8179 73.2105 53.8598 73.1265C53.8598 73.0006 53.9438 72.9586 54.0277 72.8746Z" fill="#CACACA"/>
<path fill-rule="evenodd" clip-rule="evenodd" d="M55.455 72.0349C55.455 72.0769 55.455 72.1189 55.455 72.1189C55.455 72.2448 55.413 72.3288 55.371 72.4128C55.3291 72.4967 55.2451 72.5807 55.1611 72.6227L53.9018 73.4623H53.7759C53.7759 73.4203 53.7759 73.3783 53.7759 73.3783C53.7759 73.2524 53.8179 73.1684 53.8598 73.0845C53.9018 73.0005 53.9858 72.9165 54.0697 72.8745L55.3291 72.0769H55.455V72.0349Z" fill="#7F7F7F"/>
<path fill-rule="evenodd" clip-rule="evenodd" d="M52.2232 69.768L43.9956 64.6042V68.2147L52.2232 73.3784V69.768Z" fill="#CACACA"/>
<path fill-rule="evenodd" clip-rule="evenodd" d="M44.0371 64.6042L52.2647 69.768L57.1341 66.7453L48.8645 61.6235L44.0371 64.6042Z" fill="#E3E3E3"/>
<path fill-rule="evenodd" clip-rule="evenodd" d="M52.2231 69.768L57.0925 66.7454V70.3138L52.2231 73.3785V69.768Z" fill="#B0B0B0"/>
<path fill-rule="evenodd" clip-rule="evenodd" d="M54.0277 69.1382L55.2871 68.3405C55.455 68.2146 55.6229 68.3405 55.6229 68.4664C55.6229 68.5924 55.5809 68.6764 55.5389 68.8023C55.497 68.8863 55.413 68.9702 55.3291 69.0122L54.0697 69.8099C53.9018 69.8938 53.7759 69.8099 53.7759 69.6839C53.7759 69.558 53.8179 69.474 53.8598 69.39C53.8598 69.2641 53.9438 69.1801 54.0277 69.1382Z" fill="#CACACA"/>
<path fill-rule="evenodd" clip-rule="evenodd" d="M55.455 68.2986C55.455 68.3406 55.455 68.3825 55.455 68.3825C55.455 68.5085 55.413 68.5925 55.371 68.6764C55.3291 68.7604 55.2451 68.8443 55.1611 68.9283L53.9018 69.726H53.7759C53.7759 69.684 53.7759 69.642 53.7759 69.642C53.7759 69.516 53.8179 69.4321 53.8598 69.3481C53.9018 69.2642 53.9858 69.1802 54.0697 69.1382L55.3291 68.2986H55.455Z" fill="#7F7F7F"/>
<path fill-rule="evenodd" clip-rule="evenodd" d="M52.2232 66.0317L43.9956 60.8679V64.4783L52.2232 69.6421V66.0317Z" fill="#CACACA"/>
<path fill-rule="evenodd" clip-rule="evenodd" d="M44.0371 60.8679L52.2647 66.0316L57.1341 63.009L48.8645 57.8872L44.0371 60.8679Z" fill="#E3E3E3"/>
<path fill-rule="evenodd" clip-rule="evenodd" d="M52.2231 66.0317L57.0925 63.009V66.5775L52.2231 69.6421V66.0317Z" fill="#B0B0B0"/>
<path fill-rule="evenodd" clip-rule="evenodd" d="M54.0277 65.4018L55.2871 64.5622C55.455 64.4362 55.6229 64.5622 55.6229 64.6881C55.6229 64.8141 55.5809 64.898 55.5389 65.024C55.497 65.1079 55.413 65.1919 55.3291 65.2339L54.0697 66.0735C53.9018 66.1575 53.7759 66.0735 53.7759 65.9476C53.7759 65.8216 53.8179 65.7377 53.8598 65.6537C53.8598 65.5278 53.9438 65.4438 54.0277 65.4018Z" fill="#CACACA"/>
<path fill-rule="evenodd" clip-rule="evenodd" d="M55.455 64.5203C55.455 64.5203 55.455 64.5203 55.455 64.6042C55.455 64.7302 55.413 64.8141 55.371 64.8981C55.3291 64.9821 55.2451 65.066 55.1611 65.15L53.9018 65.9476H53.7759C53.7759 65.9057 53.7759 65.8637 53.7759 65.8637C53.7759 65.7377 53.8179 65.6538 53.8598 65.5698C53.9018 65.4858 53.9858 65.4019 54.0697 65.3599L55.3291 64.5622L55.455 64.5203Z" fill="#7F7F7F"/>
<path fill-rule="evenodd" clip-rule="evenodd" d="M52.2232 62.2533L43.9956 57.0896V60.7L52.2232 65.8638V62.2533Z" fill="#CACACA"/>
<path fill-rule="evenodd" clip-rule="evenodd" d="M44.0371 57.0896L52.2647 62.2533L57.1341 59.2306L48.8645 54.1089L44.0371 57.0896Z" fill="#E3E3E3"/>
<path fill-rule="evenodd" clip-rule="evenodd" d="M52.2231 62.2531L57.0925 59.2305V62.7989L52.2231 65.8636V62.2531Z" fill="#B0B0B0"/>
<path fill-rule="evenodd" clip-rule="evenodd" d="M54.0277 61.6235L55.2871 60.8258C55.455 60.6999 55.6229 60.8259 55.6229 60.9518C55.6229 61.0777 55.5809 61.1617 55.5389 61.2877C55.497 61.3716 55.413 61.4556 55.3291 61.4976L54.0697 62.2952C53.9018 62.3792 53.7759 62.2952 53.7759 62.1693C53.7759 62.0433 53.8179 61.9594 53.8598 61.8334C53.8598 61.7914 53.9438 61.7075 54.0277 61.6235Z" fill="#CACACA"/>
<path fill-rule="evenodd" clip-rule="evenodd" d="M55.455 60.7839C55.455 60.8259 55.455 60.8679 55.455 60.8679C55.455 60.9938 55.413 61.0778 55.371 61.1618C55.3291 61.2457 55.2451 61.3297 55.1611 61.4136L53.9018 62.2113H53.7759C53.7759 62.1693 53.7759 62.1273 53.7759 62.1273C53.7759 62.0014 53.8179 61.9174 53.8598 61.7915C53.9018 61.7075 53.9858 61.6236 54.0697 61.5396L55.3291 60.7419L55.455 60.7839Z" fill="#7F7F7F"/>
<path fill-rule="evenodd" clip-rule="evenodd" d="M52.2232 58.5168L43.9956 53.353V56.9635L52.2232 62.1272V58.5168Z" fill="#CACACA"/>
<path fill-rule="evenodd" clip-rule="evenodd" d="M44.0371 53.353L52.2647 58.5167L57.1341 55.4941L48.8645 50.3723L44.0371 53.353Z" fill="#E3E3E3"/>
<path fill-rule="evenodd" clip-rule="evenodd" d="M52.2231 58.5168L57.0925 55.4941V59.0626L52.2231 62.1272V58.5168Z" fill="#B0B0B0"/>
<path fill-rule="evenodd" clip-rule="evenodd" d="M54.0277 57.8872L55.2871 57.0895C55.455 56.9636 55.6229 57.0895 55.6229 57.2155C55.6229 57.3414 55.5809 57.4254 55.5389 57.5093C55.497 57.5933 55.413 57.6773 55.3291 57.7192L54.0697 58.5589C53.9018 58.6428 53.7759 58.5589 53.7759 58.4329C53.7759 58.307 53.8179 58.223 53.8598 58.0971C53.8598 58.0551 53.9438 57.9711 54.0277 57.8872Z" fill="#CACACA"/>
<path fill-rule="evenodd" clip-rule="evenodd" d="M55.455 57.0476C55.455 57.0896 55.455 57.1316 55.455 57.1316C55.455 57.2575 55.413 57.3415 55.371 57.4674C55.3291 57.5514 55.2451 57.6354 55.1611 57.7193L53.9018 58.517H53.7759C53.7759 58.475 53.7759 58.433 53.7759 58.433C53.7759 58.3071 53.8179 58.2231 53.8598 58.0971C53.9018 58.0132 53.9858 57.9292 54.0697 57.8453L55.3291 57.0476H55.455Z" fill="#7F7F7F"/>
<path fill-rule="evenodd" clip-rule="evenodd" d="M47.1436 76.611L38.958 71.4473V75.0577L47.1436 80.2214V76.611Z" fill="#CACACA"/>
<path fill-rule="evenodd" clip-rule="evenodd" d="M38.916 71.4472L47.1436 76.611L52.013 73.5883L43.7434 68.4666L38.916 71.4472Z" fill="#E3E3E3"/>
<path fill-rule="evenodd" clip-rule="evenodd" d="M47.1436 76.6111L52.013 73.5884V77.1568L47.1436 80.2215V76.6111Z" fill="#B0B0B0"/>
<path fill-rule="evenodd" clip-rule="evenodd" d="M48.9486 75.9812L50.208 75.1835C50.3759 75.0576 50.5438 75.1835 50.5438 75.3095C50.5438 75.4354 50.5018 75.5194 50.4598 75.6033C50.4178 75.6873 50.3339 75.7713 50.2499 75.8132L48.9906 76.6529C48.8227 76.7368 48.6548 76.6529 48.6548 76.5269C48.6548 76.401 48.6968 76.317 48.7387 76.1911C48.7807 76.1071 48.8647 76.0651 48.9486 75.9812Z" fill="#CACACA"/>
<path fill-rule="evenodd" clip-rule="evenodd" d="M50.3758 75.1416C50.3758 75.1836 50.3758 75.2256 50.3758 75.2256C50.3758 75.3515 50.3339 75.4355 50.2919 75.5194C50.2499 75.6034 50.166 75.6874 50.082 75.7713L48.7387 76.569H48.5708C48.5708 76.527 48.5708 76.485 48.5708 76.485C48.5708 76.3591 48.6128 76.2751 48.6548 76.1492C48.6967 76.0652 48.7807 75.9812 48.8646 75.8973L50.124 75.0996L50.3758 75.1416Z" fill="#7F7F7F"/>
<path fill-rule="evenodd" clip-rule="evenodd" d="M47.1436 72.8747L38.958 67.7109V71.3214L47.1436 76.4851V72.8747Z" fill="#CACACA"/>
<path fill-rule="evenodd" clip-rule="evenodd" d="M38.916 67.7109L47.1436 72.8747L52.013 69.852L43.7434 64.7302L38.916 67.7109Z" fill="#E3E3E3"/>
<path fill-rule="evenodd" clip-rule="evenodd" d="M47.1436 72.8745L52.013 69.8518V73.4202L47.1436 76.4849V72.8745Z" fill="#B0B0B0"/>
<path fill-rule="evenodd" clip-rule="evenodd" d="M48.9486 72.2448L50.208 71.4472C50.3759 71.3212 50.5438 71.4472 50.5438 71.5731C50.5438 71.6991 50.5018 71.783 50.4598 71.867C50.4178 71.951 50.3339 72.0349 50.2499 72.0769L48.9906 72.8746C48.8227 72.9585 48.6548 72.8746 48.6548 72.7486C48.6548 72.6227 48.6968 72.5387 48.7387 72.4128C48.7807 72.3708 48.8647 72.2868 48.9486 72.2448Z" fill="#CACACA"/>
<path fill-rule="evenodd" clip-rule="evenodd" d="M50.3758 71.3213C50.3758 71.3633 50.3758 71.4053 50.3758 71.4053C50.3758 71.5312 50.3339 71.6152 50.2919 71.7411C50.2499 71.8251 50.166 71.909 50.082 71.993L48.7387 72.7906H48.5708C48.5708 72.7487 48.5708 72.7067 48.5708 72.7067C48.5708 72.5807 48.6128 72.4968 48.6548 72.3708C48.6967 72.2869 48.7807 72.2029 48.8646 72.1189L50.124 71.3213H50.3758Z" fill="#7F7F7F"/>
<path fill-rule="evenodd" clip-rule="evenodd" d="M47.1436 69.1383L38.958 63.9746V67.585L47.1436 72.7488V69.1383Z" fill="#CACACA"/>
<path fill-rule="evenodd" clip-rule="evenodd" d="M38.916 63.9746L47.1436 69.1383L52.013 66.1157L43.7434 60.9939L38.916 63.9746Z" fill="#E3E3E3"/>
<path fill-rule="evenodd" clip-rule="evenodd" d="M47.1436 69.1382L52.013 66.1155V69.7259L47.1436 72.7905V69.1382Z" fill="#B0B0B0"/>
<path fill-rule="evenodd" clip-rule="evenodd" d="M48.9486 68.5085L50.208 67.7109C50.3759 67.5849 50.5438 67.7109 50.5438 67.8368C50.5438 67.9627 50.5018 68.0467 50.4598 68.1307C50.4178 68.2146 50.3339 68.2986 50.2499 68.3406L48.9906 69.1382C48.8227 69.2222 48.6548 69.1382 48.6548 69.0123C48.6548 68.8863 48.6968 68.8024 48.7387 68.6764C48.7807 68.6345 48.8647 68.5505 48.9486 68.5085Z" fill="#CACACA"/>
<path fill-rule="evenodd" clip-rule="evenodd" d="M50.3758 67.627C50.3758 67.6689 50.3758 67.7109 50.3758 67.7109C50.3758 67.8369 50.3339 67.9208 50.2919 68.0468C50.2499 68.1307 50.166 68.2147 50.082 68.2987L48.7387 69.0963H48.5708C48.5708 69.0543 48.5708 69.0123 48.5708 69.0123C48.5708 68.8864 48.6128 68.8024 48.6548 68.6765C48.6967 68.5925 48.7807 68.5086 48.8646 68.4246L50.124 67.627H50.3758Z" fill="#7F7F7F"/>
<path fill-rule="evenodd" clip-rule="evenodd" d="M47.1436 65.4018L38.958 60.238V63.8485L47.1436 69.0122V65.4018Z" fill="#CACACA"/>
<path fill-rule="evenodd" clip-rule="evenodd" d="M38.916 60.238L47.1436 65.4017L52.013 62.3791L43.7434 57.2573L38.916 60.238Z" fill="#E3E3E3"/>
<path fill-rule="evenodd" clip-rule="evenodd" d="M47.1436 65.4018L52.013 62.3792V65.9476L47.1436 69.0122V65.4018Z" fill="#B0B0B0"/>
<path fill-rule="evenodd" clip-rule="evenodd" d="M48.9486 64.7722L50.208 63.9745C50.3759 63.8486 50.5438 63.9745 50.5438 64.1005C50.5438 64.2264 50.5018 64.3104 50.4598 64.3943C50.4178 64.4783 50.3339 64.5623 50.2499 64.6043L48.9906 65.4019C48.8227 65.5278 48.6548 65.4019 48.6548 65.276C48.6548 65.15 48.6968 65.0661 48.7387 64.9401C48.7807 64.8981 48.8647 64.8142 48.9486 64.7722Z" fill="#CACACA"/>
<path fill-rule="evenodd" clip-rule="evenodd" d="M50.3758 63.8906C50.3758 63.9326 50.3758 63.9746 50.3758 63.9746C50.3758 64.1005 50.3339 64.1845 50.2919 64.3104C50.2499 64.3944 50.166 64.4784 50.082 64.5623L48.7387 65.36H48.5708C48.5708 65.318 48.5708 65.276 48.5708 65.276C48.5708 65.1501 48.6128 65.0661 48.6548 64.9402C48.6967 64.8562 48.7807 64.7722 48.8646 64.6883L50.124 63.8906H50.3758Z" fill="#7F7F7F"/>
<path fill-rule="evenodd" clip-rule="evenodd" d="M47.1436 61.6234L38.958 56.4597V60.0701L47.1436 65.2339V61.6234Z" fill="#CACACA"/>
<path fill-rule="evenodd" clip-rule="evenodd" d="M38.916 56.4597L47.1436 61.6234L52.013 58.6008L43.7434 53.479L38.916 56.4597Z" fill="#E3E3E3"/>
<path fill-rule="evenodd" clip-rule="evenodd" d="M47.1436 61.6235L52.013 58.6008V62.1693L47.1436 65.2339V61.6235Z" fill="#B0B0B0"/>
<path fill-rule="evenodd" clip-rule="evenodd" d="M48.9486 60.9939L50.208 60.1962C50.3759 60.0703 50.5438 60.1962 50.5438 60.3222C50.5438 60.4481 50.5018 60.5321 50.4598 60.658C50.4178 60.742 50.3339 60.8259 50.2499 60.9099L48.9906 61.7075C48.8227 61.8335 48.6548 61.7075 48.6548 61.5816C48.6548 61.4557 48.6968 61.3717 48.7387 61.2457C48.7807 61.1618 48.8647 61.0778 48.9486 60.9939Z" fill="#CACACA"/>
<path fill-rule="evenodd" clip-rule="evenodd" d="M50.3758 60.1541C50.3758 60.196 50.3758 60.238 50.3758 60.238C50.3758 60.364 50.3339 60.4479 50.2919 60.5739C50.2499 60.6578 50.166 60.7418 50.082 60.8258L48.7387 61.6234H48.5708C48.5708 61.5814 48.5708 61.5394 48.5708 61.5394C48.5708 61.4135 48.6128 61.3295 48.6548 61.2456C48.6967 61.1616 48.7807 61.0776 48.8646 61.0357L50.124 60.238L50.3758 60.1541Z" fill="#7F7F7F"/>
<path fill-rule="evenodd" clip-rule="evenodd" d="M42.064 79.7177L33.8364 74.554V78.1644L42.064 83.3281V79.7177Z" fill="#CACACA"/>
<path fill-rule="evenodd" clip-rule="evenodd" d="M33.8364 74.5539L42.064 79.7177L46.9334 76.695L38.6639 71.5732L33.8364 74.5539Z" fill="#E3E3E3"/>
<path fill-rule="evenodd" clip-rule="evenodd" d="M42.0645 79.7175L46.9339 76.6948V80.2633L42.0645 83.3279V79.7175Z" fill="#B0B0B0"/>
<path fill-rule="evenodd" clip-rule="evenodd" d="M43.8695 79.0879L45.2128 78.2902C45.3807 78.1643 45.5067 78.2902 45.5067 78.4161C45.5067 78.5421 45.4647 78.6261 45.4227 78.71C45.3807 78.794 45.2968 78.8779 45.2128 78.9619L43.8695 79.8015C43.7016 79.8855 43.5757 79.8015 43.5757 79.6756C43.5757 79.5496 43.6177 79.4657 43.6596 79.3817C43.7016 79.2558 43.7856 79.1718 43.8695 79.0879Z" fill="#CACACA"/>
<path fill-rule="evenodd" clip-rule="evenodd" d="M45.2548 78.2483C45.2548 78.2903 45.2548 78.3323 45.2548 78.3323C45.2548 78.4582 45.2128 78.5422 45.1708 78.6681C45.1288 78.7521 45.0449 78.836 44.9609 78.92L43.6176 79.7176H43.4917C43.4917 79.7176 43.4917 79.7176 43.4917 79.6337C43.4917 79.5077 43.5337 79.4238 43.5757 79.2978C43.6176 79.2139 43.7016 79.1299 43.7855 79.0459L45.0449 78.2483H45.2548Z" fill="#7F7F7F"/>
<path fill-rule="evenodd" clip-rule="evenodd" d="M42.064 75.9811L33.8364 70.8174V74.4278L42.064 79.5915V75.9811Z" fill="#CACACA"/>
<path fill-rule="evenodd" clip-rule="evenodd" d="M33.8364 70.8174L42.064 75.9811L46.9334 72.9584L38.6639 67.8367L33.8364 70.8174Z" fill="#E3E3E3"/>
<path fill-rule="evenodd" clip-rule="evenodd" d="M42.0645 75.9812L46.9339 72.9585V76.5269L42.0645 79.5916V75.9812Z" fill="#B0B0B0"/>
<path fill-rule="evenodd" clip-rule="evenodd" d="M43.8695 75.3515L45.2128 74.5539C45.3807 74.4279 45.5067 74.5539 45.5067 74.6798C45.5067 74.8058 45.4647 74.8897 45.4227 74.9737C45.3807 75.0577 45.2968 75.1416 45.2128 75.2256L43.8695 76.0232C43.7016 76.1492 43.5757 76.0232 43.5757 75.8973C43.5757 75.7713 43.6177 75.6874 43.6596 75.6034C43.7016 75.5195 43.7856 75.4355 43.8695 75.3515Z" fill="#CACACA"/>
<path fill-rule="evenodd" clip-rule="evenodd" d="M45.2548 74.512C45.2548 74.5539 45.2548 74.5959 45.2548 74.5959C45.2548 74.7219 45.2128 74.8058 45.1708 74.9318C45.1288 75.0157 45.0449 75.0997 44.9609 75.1837L43.6176 75.9813H43.4917C43.4917 75.9813 43.4917 75.9813 43.4917 75.8974C43.4917 75.7714 43.5337 75.6875 43.5757 75.5615C43.6176 75.4775 43.7016 75.3936 43.7855 75.3096L45.0449 74.512H45.2548Z" fill="#7F7F7F"/>
<path fill-rule="evenodd" clip-rule="evenodd" d="M42.064 72.2448L33.8364 67.0811V70.6915L42.064 75.8552V72.2448Z" fill="#CACACA"/>
<path fill-rule="evenodd" clip-rule="evenodd" d="M33.8364 67.081L42.064 72.2448L46.9334 69.2221L38.6639 64.1003L33.8364 67.081Z" fill="#E3E3E3"/>
<path fill-rule="evenodd" clip-rule="evenodd" d="M42.0645 72.2448L46.9339 69.2222V72.7906L42.0645 75.8553V72.2448Z" fill="#B0B0B0"/>
<path fill-rule="evenodd" clip-rule="evenodd" d="M43.8695 71.6152L45.2128 70.8175C45.3807 70.6916 45.5067 70.8175 45.5067 70.9435C45.5067 71.0694 45.4647 71.1534 45.4227 71.2793C45.3807 71.3633 45.2968 71.4473 45.2128 71.5312L43.8695 72.3289C43.7016 72.4548 43.5757 72.3289 43.5757 72.2029C43.5757 72.077 43.6177 71.993 43.6596 71.9091C43.7016 71.7411 43.7856 71.6572 43.8695 71.6152Z" fill="#CACACA"/>
<path fill-rule="evenodd" clip-rule="evenodd" d="M45.2548 70.7334C45.2548 70.7754 45.2548 70.8174 45.2548 70.8174C45.2548 70.9433 45.2128 71.0273 45.1708 71.1532C45.1288 71.2372 45.0449 71.3211 44.9609 71.4051L43.6176 72.2028H43.4917C43.4917 72.2028 43.4917 72.2028 43.4917 72.0768C43.4917 71.9509 43.5337 71.8669 43.5757 71.7829C43.6176 71.699 43.7016 71.615 43.7855 71.573L45.0449 70.7754C45.0868 70.7754 45.1288 70.7334 45.1288 70.7334C45.2128 70.7334 45.2548 70.7334 45.2548 70.7334Z" fill="#7F7F7F"/>
<path fill-rule="evenodd" clip-rule="evenodd" d="M42.064 68.5085L33.8364 63.3447V66.9551L42.064 72.1189V68.5085Z" fill="#CACACA"/>
<path fill-rule="evenodd" clip-rule="evenodd" d="M33.8364 63.3447L42.064 68.5085L46.9334 65.4858L38.6639 60.364L33.8364 63.3447Z" fill="#E3E3E3"/>
<path fill-rule="evenodd" clip-rule="evenodd" d="M42.0645 68.5085L46.9339 65.4858V69.0543L42.0645 72.1189V68.5085Z" fill="#B0B0B0"/>
<path fill-rule="evenodd" clip-rule="evenodd" d="M43.8695 67.8788L45.2128 67.0812C45.3807 66.9972 45.5067 67.0812 45.5067 67.2071C45.5067 67.3331 45.4647 67.417 45.4227 67.543C45.3807 67.6269 45.2968 67.7109 45.2128 67.7949L43.8695 68.5925C43.7016 68.7184 43.5757 68.5925 43.5757 68.4666C43.5757 68.3406 43.6177 68.2566 43.6596 68.1727C43.7016 68.0048 43.7856 67.9208 43.8695 67.8788Z" fill="#CACACA"/>
<path fill-rule="evenodd" clip-rule="evenodd" d="M45.2548 66.9551C45.2548 66.9971 45.2548 67.039 45.2548 67.039C45.2548 67.165 45.2128 67.2489 45.1708 67.3329C45.1288 67.4169 45.0449 67.5008 44.9609 67.5428L43.6176 68.3824C43.5757 68.3824 43.5337 68.3824 43.4917 68.3824C43.4917 68.3824 43.4917 68.3824 43.4917 68.2985C43.4917 68.1725 43.5337 68.0886 43.5757 68.0046C43.6176 67.9207 43.7016 67.8367 43.7855 67.7947L45.0449 66.9971H45.2548V66.9551Z" fill="#7F7F7F"/>
<path fill-rule="evenodd" clip-rule="evenodd" d="M36.9849 82.8661L28.7573 77.7024V81.3128L36.9849 86.4766V82.8661Z" fill="#CACACA"/>
<path fill-rule="evenodd" clip-rule="evenodd" d="M28.7573 77.7024L36.9849 82.8661L41.8543 79.8434L33.5848 74.7217L28.7573 77.7024Z" fill="#E3E3E3"/>
<path fill-rule="evenodd" clip-rule="evenodd" d="M36.9854 82.8662L41.8547 79.8435V83.4119L36.9854 86.4766V82.8662Z" fill="#B0B0B0"/>
<path fill-rule="evenodd" clip-rule="evenodd" d="M38.7904 82.2365L40.0498 81.4389C40.2177 81.3129 40.3856 81.4389 40.3856 81.5648C40.3856 81.6908 40.3436 81.7747 40.3016 81.9007C40.2597 81.9846 40.1757 82.0686 40.0918 82.1526L38.8324 82.9502C38.6645 83.0762 38.5386 82.9502 38.5386 82.8243C38.5386 82.6983 38.5806 82.6144 38.6225 82.5304C38.6225 82.3625 38.7065 82.2785 38.7904 82.2365Z" fill="#CACACA"/>
<path fill-rule="evenodd" clip-rule="evenodd" d="M40.2172 81.355C40.2172 81.397 40.2172 81.4389 40.2172 81.4389C40.2172 81.5649 40.1752 81.6489 40.1332 81.7748C40.0912 81.8588 40.0073 81.9427 39.9233 82.0267L38.664 82.8243H38.4961C38.4961 82.8243 38.4961 82.8243 38.4961 82.7404C38.4961 82.6144 38.5381 82.5305 38.58 82.4465C38.622 82.3625 38.706 82.2786 38.7899 82.1946L40.0493 81.397C40.1332 81.355 40.1752 81.355 40.2172 81.355Z" fill="#7F7F7F"/>
<path fill-rule="evenodd" clip-rule="evenodd" d="M36.9849 79.0878L28.7573 73.9241V77.5345L36.9849 82.6982V79.0878Z" fill="#CACACA"/>
<path fill-rule="evenodd" clip-rule="evenodd" d="M28.7573 73.924L36.9849 79.0878L41.8543 76.0651L33.5848 70.9434L28.7573 73.924Z" fill="#E3E3E3"/>
<path fill-rule="evenodd" clip-rule="evenodd" d="M36.9854 79.0879L41.8547 76.0652V79.6336L36.9854 82.6983V79.0879Z" fill="#B0B0B0"/>
<path fill-rule="evenodd" clip-rule="evenodd" d="M38.7904 78.4582L40.0498 77.6605C40.2177 77.5765 40.3856 77.6605 40.3856 77.7864C40.3856 77.9124 40.3436 77.9964 40.3016 78.1223C40.2597 78.2063 40.1757 78.2902 40.0918 78.3742L38.8324 79.1718C38.6645 79.2978 38.5386 79.1718 38.5386 79.0459C38.5386 78.92 38.5806 78.836 38.6225 78.752C38.6225 78.6261 38.7065 78.5421 38.7904 78.4582Z" fill="#CACACA"/>
<path fill-rule="evenodd" clip-rule="evenodd" d="M124.55 43.7813V37.9878L126.565 39.2892V45.0827L124.55 43.7813Z" fill="#979797"/>
<path fill-rule="evenodd" clip-rule="evenodd" d="M126.607 45.0827L140.921 36.1826V30.1792L126.565 39.2892L126.607 45.0827Z" fill="#7F7F7F"/>
<path fill-rule="evenodd" clip-rule="evenodd" d="M124.55 37.9877L138.949 28.9197L140.922 30.1791L126.565 39.2891L124.55 37.9877Z" fill="#E3E3E3"/>
</svg>
