<svg width="18" height="18" viewBox="0 0 18 18" fill="none" xmlns="http://www.w3.org/2000/svg">
<path d="M1.125 13.5C1.12597 13.9724 1.22668 14.4391 1.42055 14.8698C1.61442 15.3005 1.89707 15.6854 2.25 15.9993V17.4375C2.25 17.5867 2.30926 17.7298 2.41475 17.8352C2.52024 17.9407 2.66332 18 2.8125 18H3.9375C4.08668 18 4.22976 17.9407 4.33525 17.8352C4.44074 17.7298 4.5 17.5867 4.5 17.4375V16.875H13.5V17.4375C13.5 17.5867 13.5593 17.7298 13.6648 17.8352C13.7702 17.9407 13.9133 18 14.0625 18H15.1875C15.3367 18 15.4798 17.9407 15.5852 17.8352C15.6907 17.7298 15.75 17.5867 15.75 17.4375V15.9993C16.1029 15.6854 16.3856 15.3005 16.5794 14.8698C16.7733 14.4391 16.874 13.9724 16.875 13.5V11.8126H1.125V13.5ZM17.4375 9.0001H2.8125V2.43474C2.81282 2.28711 2.85685 2.14288 2.93905 2.02025C3.02124 1.89761 3.13791 1.80207 3.27434 1.74566C3.41078 1.68925 3.56086 1.67451 3.70566 1.7033C3.85046 1.73208 3.98349 1.80311 4.08797 1.90741L4.76543 2.58451C4.30383 3.63497 4.49789 4.66257 5.06848 5.38749L5.0625 5.39346C4.95741 5.4989 4.8984 5.64169 4.8984 5.79055C4.8984 5.93941 4.95741 6.0822 5.0625 6.18763L5.46012 6.58524C5.51235 6.63749 5.57437 6.67894 5.64262 6.70721C5.71088 6.73549 5.78403 6.75004 5.85791 6.75004C5.93179 6.75004 6.00495 6.73549 6.0732 6.70721C6.14145 6.67894 6.20347 6.63749 6.2557 6.58524L9.96012 2.88087C10.0124 2.82864 10.0538 2.76662 10.0821 2.69837C10.1104 2.63012 10.1249 2.55696 10.1249 2.48308C10.1249 2.40921 10.1104 2.33605 10.0821 2.2678C10.0538 2.19954 10.0124 2.13753 9.96012 2.0853L9.5625 1.68768C9.45702 1.58227 9.314 1.52306 9.16488 1.52306C9.01576 1.52306 8.87274 1.58227 8.76727 1.68768L8.76129 1.69366C8.03637 1.12308 7.00945 0.92902 5.95828 1.39062L5.28117 0.713163C4.94069 0.372645 4.50687 0.140745 4.03459 0.0467911C3.5623 -0.0471629 3.07276 0.00104955 2.62787 0.185331C2.18299 0.369612 1.80275 0.681685 1.53524 1.08208C1.26772 1.48248 1.12496 1.95321 1.125 2.43474V9.0001H0.5625C0.413316 9.0001 0.270242 9.05936 0.164752 9.16485C0.0592632 9.27034 0 9.41341 0 9.56259L0 10.1251C0 10.2743 0.0592632 10.4173 0.164752 10.5228C0.270242 10.6283 0.413316 10.6876 0.5625 10.6876H17.4375C17.5867 10.6876 17.7298 10.6283 17.8352 10.5228C17.9407 10.4173 18 10.2743 18 10.1251V9.56259C18 9.41341 17.9407 9.27034 17.8352 9.16485C17.7298 9.05936 17.5867 9.0001 17.4375 9.0001Z" fill="#B72A27"/>
</svg>
