<svg width="18" height="18" viewBox="0 0 18 18" fill="none" xmlns="http://www.w3.org/2000/svg">
<path d="M14.4373 8.25C14.9625 8.24997 15.4679 8.45032 15.8505 8.81017C16.233 9.17002 16.4639 9.66226 16.496 10.1865L16.4998 10.3125V15.1875C16.4997 15.33 16.4456 15.4672 16.3483 15.5713C16.251 15.6755 16.1178 15.7388 15.9756 15.7485C15.8334 15.7582 15.6928 15.7136 15.5823 15.6237C15.4717 15.5337 15.3994 15.4052 15.38 15.264L15.3748 15.1875V13.5H2.62476V15.1875C2.62475 15.3234 2.57552 15.4548 2.48618 15.5572C2.39684 15.6596 2.27342 15.7263 2.13876 15.7447L2.06226 15.75C1.92633 15.75 1.795 15.7008 1.69256 15.6114C1.59012 15.5221 1.52349 15.3987 1.50501 15.264L1.49976 15.1875V10.3125C1.49973 9.78728 1.70008 9.28184 2.05993 8.89928C2.41978 8.51671 2.91202 8.28584 3.43626 8.25375L3.56226 8.25H14.4373ZM5.06226 3H12.9373C13.4625 2.99997 13.9679 3.20032 14.3505 3.56017C14.733 3.92002 14.9639 4.41227 14.996 4.9365L14.9998 5.0625V7.5H12.7498L12.7445 7.41225C12.7248 7.24484 12.6492 7.08896 12.53 6.96976C12.4108 6.85056 12.2549 6.77499 12.0875 6.75525L11.9998 6.75H10.4998C10.3161 6.75002 10.1388 6.81747 10.0015 6.93954C9.8642 7.0616 9.7765 7.22981 9.75501 7.41225L9.74976 7.5H8.24976L8.24451 7.41225C8.22476 7.24484 8.1492 7.08896 8.03 6.96976C7.9108 6.85056 7.75492 6.77499 7.58751 6.75525L7.49976 6.75H5.99976C5.81606 6.75002 5.63875 6.81747 5.50148 6.93954C5.3642 7.0616 5.2765 7.22981 5.25501 7.41225L5.24976 7.5H2.99976V5.0625C2.99973 4.53728 3.20008 4.03184 3.55993 3.64928C3.91978 3.26671 4.41202 3.03584 4.93626 3.00375L5.06226 3Z" fill="#B72A27"/>
</svg>
