<svg width="42" height="42" viewBox="0 0 42 42" fill="none" xmlns="http://www.w3.org/2000/svg">
<g clip-path="url(#clip0)">
<path fill-rule="evenodd" clip-rule="evenodd" d="M36.75 7.875H5.25C4.55381 7.875 3.88613 8.15156 3.39384 8.64384C2.90156 9.13613 2.625 9.80381 2.625 10.5V31.5C2.625 32.1962 2.90156 32.8639 3.39384 33.3562C3.88613 33.8484 4.55381 34.125 5.25 34.125H36.75C37.4462 34.125 38.1139 33.8484 38.6062 33.3562C39.0984 32.8639 39.375 32.1962 39.375 31.5V10.5C39.375 9.80381 39.0984 9.13613 38.6062 8.64384C38.1139 8.15156 37.4462 7.875 36.75 7.875ZM5.25 5.25C3.85761 5.25 2.52226 5.80312 1.53769 6.78769C0.553123 7.77226 0 9.10761 0 10.5L0 31.5C0 32.8924 0.553123 34.2277 1.53769 35.2123C2.52226 36.1969 3.85761 36.75 5.25 36.75H36.75C38.1424 36.75 39.4777 36.1969 40.4623 35.2123C41.4469 34.2277 42 32.8924 42 31.5V10.5C42 9.10761 41.4469 7.77226 40.4623 6.78769C39.4777 5.80312 38.1424 5.25 36.75 5.25H5.25Z" fill="#B72A27"/>
<path d="M5.25 14.4375C5.25 14.0894 5.38828 13.7556 5.63442 13.5094C5.88056 13.2633 6.2144 13.125 6.5625 13.125H11.8125C12.1606 13.125 12.4944 13.2633 12.7406 13.5094C12.9867 13.7556 13.125 14.0894 13.125 14.4375V17.0625C13.125 17.4106 12.9867 17.7444 12.7406 17.9906C12.4944 18.2367 12.1606 18.375 11.8125 18.375H6.5625C6.2144 18.375 5.88056 18.2367 5.63442 17.9906C5.38828 17.7444 5.25 17.4106 5.25 17.0625V14.4375Z" fill="#B72A27"/>
<path fill-rule="evenodd" clip-rule="evenodd" d="M5.25 22.3125C5.25 21.9644 5.38828 21.6306 5.63442 21.3844C5.88056 21.1383 6.2144 21 6.5625 21H19.6875C20.0356 21 20.3694 21.1383 20.6156 21.3844C20.8617 21.6306 21 21.9644 21 22.3125C21 22.6606 20.8617 22.9944 20.6156 23.2406C20.3694 23.4867 20.0356 23.625 19.6875 23.625H6.5625C6.2144 23.625 5.88056 23.4867 5.63442 23.2406C5.38828 22.9944 5.25 22.6606 5.25 22.3125ZM5.25 27.5625C5.25 27.2144 5.38828 26.8806 5.63442 26.6344C5.88056 26.3883 6.2144 26.25 6.5625 26.25H9.1875C9.5356 26.25 9.86944 26.3883 10.1156 26.6344C10.3617 26.8806 10.5 27.2144 10.5 27.5625C10.5 27.9106 10.3617 28.2444 10.1156 28.4906C9.86944 28.7367 9.5356 28.875 9.1875 28.875H6.5625C6.2144 28.875 5.88056 28.7367 5.63442 28.4906C5.38828 28.2444 5.25 27.9106 5.25 27.5625ZM13.125 27.5625C13.125 27.2144 13.2633 26.8806 13.5094 26.6344C13.7556 26.3883 14.0894 26.25 14.4375 26.25H17.0625C17.4106 26.25 17.7444 26.3883 17.9906 26.6344C18.2367 26.8806 18.375 27.2144 18.375 27.5625C18.375 27.9106 18.2367 28.2444 17.9906 28.4906C17.7444 28.7367 17.4106 28.875 17.0625 28.875H14.4375C14.0894 28.875 13.7556 28.7367 13.5094 28.4906C13.2633 28.2444 13.125 27.9106 13.125 27.5625ZM21 27.5625C21 27.2144 21.1383 26.8806 21.3844 26.6344C21.6306 26.3883 21.9644 26.25 22.3125 26.25H24.9375C25.2856 26.25 25.6194 26.3883 25.8656 26.6344C26.1117 26.8806 26.25 27.2144 26.25 27.5625C26.25 27.9106 26.1117 28.2444 25.8656 28.4906C25.6194 28.7367 25.2856 28.875 24.9375 28.875H22.3125C21.9644 28.875 21.6306 28.7367 21.3844 28.4906C21.1383 28.2444 21 27.9106 21 27.5625ZM28.875 27.5625C28.875 27.2144 29.0133 26.8806 29.2594 26.6344C29.5056 26.3883 29.8394 26.25 30.1875 26.25H32.8125C33.1606 26.25 33.4944 26.3883 33.7406 26.6344C33.9867 26.8806 34.125 27.2144 34.125 27.5625C34.125 27.9106 33.9867 28.2444 33.7406 28.4906C33.4944 28.7367 33.1606 28.875 32.8125 28.875H30.1875C29.8394 28.875 29.5056 28.7367 29.2594 28.4906C29.0133 28.2444 28.875 27.9106 28.875 27.5625Z" fill="#B72A27"/>
</g>
<defs>
<clipPath id="clip0">
<rect width="42" height="42" fill="white"/>
</clipPath>
</defs>
</svg>
