<svg width="221" height="166" viewBox="0 0 221 166" fill="none" xmlns="http://www.w3.org/2000/svg">
<g clip-path="url(#clip0)">
<path d="M214.923 129.115C212.858 134.178 210.359 138.456 207.602 142.008C206.781 143.062 205.948 144.047 205.091 144.973C205.044 145.02 204.997 145.067 204.962 145.114C204.95 145.125 204.939 145.137 204.927 145.149C204.61 145.489 204.293 145.817 203.965 146.145C203.683 146.426 203.402 146.696 203.12 146.965C202.768 147.305 202.405 147.634 202.041 147.95C201.407 148.513 200.762 149.04 200.117 149.532C200.035 149.591 199.953 149.661 199.87 149.72C197.336 151.642 194.72 153.119 192.115 154.185H192.104C189.804 155.135 187.505 155.756 185.287 156.108C182.847 156.483 180.477 156.799 178.178 157.045C177.908 157.08 177.65 157.104 177.391 157.127C177.274 157.139 177.157 157.151 177.039 157.162C177.004 157.162 176.981 157.174 176.946 157.174C174.611 157.409 172.347 157.596 170.153 157.725C169.848 157.749 169.531 157.76 169.226 157.784C168.487 157.831 167.748 157.866 167.02 157.889C166.774 157.901 166.516 157.913 166.269 157.924C166.175 157.924 166.082 157.936 165.999 157.936C165.812 157.936 165.624 157.948 165.436 157.959C159.817 158.135 154.654 158.006 149.832 157.737C144.647 157.444 139.837 157.01 135.249 156.623C135.085 156.612 134.909 156.6 134.745 156.576C133.748 156.494 132.774 156.412 131.8 156.342C131.213 156.295 130.639 156.26 130.064 156.213C124.679 155.838 119.516 155.674 114.319 156.108C113.932 156.143 113.545 156.178 113.157 156.213C113.017 156.225 112.876 156.237 112.735 156.26C111.057 156.436 109.38 156.682 107.679 156.998C104.675 157.561 101.601 158.37 98.4335 159.495C97.6827 159.764 96.9318 160.046 96.1692 160.339C96.1692 160.339 95.5709 160.479 94.468 160.69C93.7406 160.831 92.8021 160.995 91.664 161.183C89.2472 161.569 85.9622 162.015 82.1023 162.32C82.0905 162.32 82.0788 162.32 82.0671 162.32H82.0553C77.2451 162.695 71.5315 162.87 65.4308 162.484C64.3279 162.413 63.2016 162.32 62.0753 162.214C57.664 161.78 53.1002 161.03 48.5716 159.835C46.9994 159.425 45.4273 158.944 43.8669 158.417C43.7379 158.37 43.5971 158.323 43.468 158.276C41.7903 157.69 40.1244 157.045 38.4936 156.319C38.3411 156.26 38.2003 156.19 38.0477 156.119C35.584 155.006 33.0733 153.623 30.5978 151.994C29.4363 151.232 28.2865 150.435 27.1485 149.567C27.0312 149.474 26.9021 149.38 26.7848 149.286C26.7261 149.239 26.6557 149.192 26.5971 149.134C18.4549 142.852 11.0636 134.038 7.10985 123.583C6.06569 120.817 5.26789 117.945 4.75168 114.968C4.03601 110.819 3.89522 106.482 4.44664 102.005C4.78687 99.274 5.38522 96.4728 6.2886 93.6481C6.92214 91.6322 7.7082 89.6045 8.64678 87.5534C9.0926 86.5923 9.63228 85.1037 10.6061 83.2636C13.0229 78.6339 18.056 71.7305 30.6095 65.0848C37.7544 61.299 47.3514 57.5953 60.2803 54.4425C63.4363 53.6689 66.7917 52.9305 70.3583 52.239C70.5108 52.2038 70.6633 52.1804 70.8159 52.1452C81.9967 49.8597 91.0305 44.3978 99.4542 37.9632C102.387 35.7245 105.262 33.3569 108.124 30.9776C109.732 29.6415 111.339 28.2936 112.946 26.9457C126.52 15.6822 140.752 5.08667 162.585 5.08667C204.024 5.08667 215.533 33.943 220.085 76.1609C222.525 99.3561 220.015 116.644 214.923 129.115Z" fill="#E0E0E0"/>
<path d="M204.95 145.114L203.472 146.965C203.12 147.516 202.697 148.102 202.216 148.571L202.662 149.978L200.175 150.751L199.858 149.731C197.324 151.654 194.708 153.13 192.103 154.197H192.092C189.792 155.146 187.492 155.768 185.275 156.119C182.835 156.494 180.465 156.811 178.165 157.057C178.201 157.702 178.224 158.37 178.201 158.838C178.201 158.862 178.189 158.885 178.189 158.909C178.588 159.495 178.799 159.823 178.799 159.823C178.799 159.823 180.16 162.788 177.485 164.664C177.332 164.769 177.18 164.875 177.039 164.957C177.121 162.484 177.215 160.139 177.332 157.959C177.332 157.854 177.344 157.748 177.344 157.655C177.356 157.479 177.368 157.315 177.368 157.139C177.59 153.189 177.872 149.872 178.224 147.516C178.341 146.708 178.482 146.016 178.623 145.453C178.893 144.375 179.151 143.402 179.386 142.523C179.397 142.5 179.397 142.465 179.409 142.441C180.5 138.515 181.345 136.452 181.931 135.374C182.612 134.131 182.952 134.19 182.952 134.19L187.27 134.237L196.092 134.319L199.565 134.354L200.879 134.366C200.879 134.366 201.63 134.811 202.568 136.616C203.026 137.495 203.542 138.714 204.023 140.355C204.281 141.234 204.539 142.23 204.774 143.379C204.809 143.555 204.844 143.731 204.88 143.906C204.915 144.094 204.95 144.293 204.997 144.504C205.02 144.61 205.032 144.703 205.056 144.809C205.067 144.867 205.079 144.914 205.079 144.973C205.044 145.02 204.997 145.067 204.95 145.114Z" fill="#DB4D30"/>
<path d="M191.083 78.5052C191.083 78.5052 188.256 78.2473 185.088 82.2206C181.92 86.1939 182.507 97.4458 192.632 96.1331C195.6 95.7463 188.924 113.796 188.924 113.796L209.925 116.14C209.925 116.14 212.26 113.327 211.497 111.159C210.981 109.706 206.511 106.752 206.265 104.982C206.1 103.775 207.743 100.657 206.957 99.2156C205.525 96.6019 196.011 97.2817 198.228 95.4181C203.273 91.1635 201.384 77.6496 191.083 78.5052Z" fill="#3E3E3E"/>
<path d="M195.916 94.0935C195.916 94.0935 195.564 102.837 195.893 103.294C197.043 104.865 200.421 106.26 201.196 106.459C201.97 106.67 188.548 111.78 188.548 111.78L182.107 108.627L184.595 106.388C184.595 106.388 186.683 105.334 187.598 104.396C188.513 103.447 188.959 94.5506 188.959 94.5506L195.916 94.0935Z" fill="white"/>
<path d="M188.549 111.991L181.803 108.686L184.501 106.26L184.525 106.248C184.548 106.236 186.601 105.205 187.481 104.29C188.126 103.634 188.619 98.1137 188.795 94.5624L188.807 94.41L196.116 93.9294L196.104 94.1287C195.975 97.4222 195.834 102.802 196.057 103.236C197.125 104.712 200.375 106.095 201.266 106.33C201.384 106.365 201.431 106.447 201.431 106.517C201.442 106.717 201.454 106.928 194.99 109.506C191.846 110.76 188.666 111.968 188.643 111.979L188.549 111.991ZM182.425 108.604L188.572 111.616C192.901 109.963 199.647 107.303 200.903 106.576C199.8 106.201 196.843 104.912 195.764 103.423C195.436 102.966 195.658 96.5666 195.741 94.3045L189.135 94.7499C189.065 96.1915 188.631 103.622 187.727 104.548C186.836 105.463 184.935 106.447 184.701 106.564L182.425 108.604Z" fill="#3E3E3E"/>
<path d="M195.81 95.5236C196.843 94.8438 198.649 93.4608 198.696 92.1129C198.743 90.765 197.206 90.9291 196.737 91.1401C196.42 91.2807 196.749 84.5531 196.749 84.5531L186.319 83.9905C186.319 83.9905 184.77 89.7805 185.146 93.4959C185.521 97.2231 187.234 98.1959 189.956 98.3131C191.305 98.3717 192.361 98.0787 193.194 97.6567L195.81 95.5236Z" fill="white"/>
<path d="M190.297 98.5004C190.179 98.5004 190.062 98.5004 189.945 98.4887C188.373 98.4184 187.328 98.0785 186.554 97.387C185.674 96.6017 185.158 95.3358 184.97 93.5074C184.595 89.8037 186.132 84.002 186.143 83.9434L186.179 83.8027L196.925 84.377L196.914 84.5529C196.785 87.2486 196.714 90.2491 196.82 90.9172C197.195 90.8 197.899 90.7296 198.38 91.0578C198.615 91.2102 198.885 91.5266 198.861 92.1244C198.814 93.5426 196.984 94.9491 195.905 95.6757C195.823 95.7344 195.717 95.7109 195.658 95.6289C195.6 95.5468 195.623 95.4413 195.705 95.3827C196.738 94.7029 198.462 93.3668 198.509 92.1127C198.521 91.7611 198.415 91.5032 198.181 91.3508C197.782 91.0813 197.078 91.175 196.796 91.3039C196.738 91.3274 196.656 91.3274 196.597 91.2922C196.48 91.2102 196.35 91.1164 196.433 87.776C196.468 86.475 196.526 85.1858 196.538 84.7169L186.425 84.1778C186.202 85.0803 184.958 90.1553 185.299 93.484C185.674 97.2112 187.352 98.0316 189.933 98.1488C191.094 98.1957 192.15 97.9847 193.089 97.5042C193.171 97.4573 193.277 97.4924 193.324 97.5862C193.37 97.6683 193.335 97.7737 193.241 97.8206C192.373 98.2777 191.376 98.5004 190.297 98.5004Z" fill="#3E3E3E"/>
<path d="M213.55 120.453C213.55 120.489 213.468 120.571 213.292 120.711C213.057 120.911 212.658 121.192 212.177 121.543C210.476 122.762 207.613 124.685 206.206 125.634C205.689 125.986 205.361 126.197 205.361 126.197L203.284 123.419L203.542 126.759L203.965 132.35L204.246 136.112L204.516 139.675L204.798 143.391L204.892 144.645L204.927 145.161L203.484 146.966L203.12 146.977L201.736 147.012L199.025 147.071L198.451 147.083L179.022 147.516L178.248 147.528L176.394 147.563H176.253L176.335 146.438L176.722 141.211L177.86 125.95L177.931 124.989L177.99 124.216V124.169L177.743 124.239L175.174 124.942L173.496 125.411C173.496 125.411 173.766 123.864 174.341 121.625C174.505 120.993 174.693 120.301 174.904 119.574C175.737 116.75 176.945 113.386 178.576 110.631C179.503 109.061 180.582 107.69 181.802 106.728C182.682 106.025 183.644 105.545 184.677 105.357C184.724 105.345 184.771 105.345 184.829 105.357C185.041 105.381 185.299 105.498 185.604 105.674C185.651 105.709 185.709 105.732 185.756 105.767C185.827 105.814 185.897 105.861 185.979 105.908C187.317 106.822 189.041 108.545 189.041 108.545C189.041 108.545 189.898 108.112 191.059 107.525C191.787 107.162 192.643 106.728 193.488 106.307C194.426 105.838 195.353 105.381 196.092 105.017C196.538 104.806 196.914 104.619 197.183 104.502C197.442 104.384 197.594 104.314 197.606 104.326C198.228 104.431 198.873 104.63 199.495 104.877C199.929 105.052 200.363 105.252 200.762 105.451C201.243 105.697 201.689 105.955 202.052 106.189C206.217 108.838 209.08 111.85 210.922 114.605C212.424 116.832 213.245 118.895 213.55 120.453Z" fill="#EAB7C2"/>
<path d="M203.472 146.966L203.109 146.977L201.724 147.012L199.014 147.071L198.439 147.083L179.011 147.516C179.022 147.434 179.022 147.341 179.034 147.247L179.421 142.453L180.759 125.939L181.392 118.144L181.545 116.257H181.826H182.143L183.891 116.246L196.105 116.175H196.574L198.322 116.164L199.894 116.152C199.894 116.152 201.185 124.286 203.543 126.771C203.695 126.935 203.86 127.076 204.012 127.181L204.352 133.616L204.481 136.042L204.657 139.453L204.892 143.93L204.927 144.61L204.951 145.137L203.472 146.966Z" fill="#DB4D30"/>
<path d="M202.663 149.978L200.175 150.751L199.859 149.732L199.73 149.333L199.014 147.059L198.498 145.418L197.09 140.918L198.333 140.531L199.577 140.144L200.187 142.078L201.724 147.001L202.029 147.962L202.217 148.571L202.663 149.978Z" fill="#3E3E3E"/>
<path d="M200.633 134.038L189.371 137.566C188.549 137.823 187.669 137.366 187.411 136.546L187.106 135.561C186.848 134.741 187.306 133.862 188.127 133.604L199.39 130.076C200.211 129.818 201.091 130.275 201.349 131.096L201.654 132.08C201.912 132.901 201.455 133.78 200.633 134.038Z" fill="#EAB7C2"/>
<path d="M188.901 137.812C188.619 137.812 188.349 137.741 188.091 137.612C187.68 137.401 187.375 137.038 187.235 136.593L186.93 135.608C186.648 134.694 187.152 133.721 188.068 133.428L199.33 129.9C199.776 129.76 200.246 129.806 200.656 130.017C201.067 130.228 201.372 130.592 201.513 131.037L201.818 132.022C201.958 132.467 201.911 132.936 201.7 133.346C201.489 133.756 201.125 134.061 200.68 134.202L189.417 137.73C189.252 137.777 189.076 137.812 188.901 137.812ZM199.847 130.17C199.706 130.17 199.565 130.193 199.436 130.228L188.173 133.756C187.821 133.862 187.528 134.108 187.364 134.436C187.188 134.764 187.152 135.139 187.27 135.491L187.575 136.476C187.68 136.827 187.927 137.12 188.255 137.284C188.584 137.46 188.959 137.484 189.311 137.378L200.574 133.85C201.301 133.616 201.712 132.842 201.489 132.115L201.184 131.131C200.985 130.545 200.445 130.17 199.847 130.17Z" fill="#3E3E3E"/>
<path d="M198.169 140.589L197.371 138.07L204.833 135.737L203.401 131.166L201.548 131.752L201.442 131.412L203.624 130.732L205.267 135.972L197.817 138.304L198.497 140.484L198.169 140.589Z" fill="#3E3E3E"/>
<path d="M215.404 132.76C214.735 135.022 210.57 139.16 207.602 142.008C206.487 143.074 205.537 143.977 205.009 144.516C204.985 144.539 204.95 144.574 204.927 144.598C204.915 144.61 204.891 144.633 204.88 144.645C204.798 144.727 204.739 144.797 204.68 144.856C204.563 144.985 204.317 145.5 203.953 146.145C203.812 146.403 203.648 146.672 203.472 146.965C203.12 147.516 202.697 148.102 202.216 148.571C201.782 149.005 201.301 149.356 200.773 149.532C200.539 149.614 200.316 149.614 200.105 149.544C199.976 149.497 199.847 149.427 199.729 149.333C199.154 148.888 198.732 147.95 198.439 147.071C198.333 146.766 198.251 146.473 198.181 146.204C198.098 145.922 198.239 145.664 198.509 145.418C199.002 144.961 199.94 144.528 200.785 144.012C200.574 143.367 200.292 142.441 200.198 142.101V142.09C200.187 142.019 200.257 141.972 200.316 141.984C200.785 142.09 201.618 142.781 202.005 143.227C202.533 142.559 203.249 141.539 204.047 140.367C204.199 140.132 204.363 139.91 204.516 139.663C204.563 139.593 204.61 139.511 204.668 139.441C205.982 137.483 207.379 135.303 208.352 133.791C208.845 133.018 207.355 128.716 206.217 125.634C206.217 125.622 206.205 125.61 206.205 125.599C205.548 123.817 205.02 122.458 205.067 122.411C205.067 122.411 208.446 118.848 211.063 120.219C211.415 120.406 211.79 120.864 212.165 121.496C212.177 121.508 212.189 121.532 212.189 121.543C213.245 123.36 214.324 126.56 214.934 129.115C215.345 130.838 215.544 132.268 215.404 132.76Z" fill="white"/>
<path d="M200.421 149.767C200.292 149.767 200.163 149.743 200.046 149.708C199.905 149.661 199.764 149.579 199.623 149.474C199.119 149.087 198.673 148.29 198.274 147.13C198.18 146.86 198.098 146.567 198.004 146.251C197.911 145.923 198.04 145.606 198.38 145.29C198.72 144.973 199.26 144.668 199.835 144.352C200.069 144.223 200.316 144.082 200.562 143.942C200.351 143.285 200.093 142.418 200.022 142.16V142.148C200.022 142.137 200.022 142.125 200.022 142.113C200.011 142.031 200.046 141.937 200.116 141.891C200.187 141.832 200.28 141.809 200.363 141.832C200.82 141.937 201.559 142.524 201.993 142.969C202.463 142.359 203.084 141.48 203.894 140.285L203.976 140.168C204.105 139.98 204.234 139.781 204.375 139.582C204.422 139.511 204.481 139.429 204.527 139.359C205.841 137.39 207.261 135.198 208.211 133.71C208.54 133.194 207.824 130.498 206.064 125.704L206.053 125.669C205.888 125.212 205.724 124.79 205.583 124.403C204.844 122.399 204.844 122.399 204.962 122.294C205.091 122.153 208.458 118.66 211.156 120.078C211.52 120.278 211.907 120.711 212.329 121.426C212.329 121.438 212.341 121.438 212.341 121.45C212.341 121.461 212.353 121.461 212.353 121.473C213.444 123.337 214.523 126.642 215.122 129.103C215.333 129.994 215.814 132.127 215.603 132.842C214.946 135.057 211.086 138.972 207.777 142.137L207.754 142.16C207.425 142.477 207.109 142.781 206.804 143.063C206.123 143.719 205.525 144.282 205.161 144.657C205.149 144.668 205.138 144.68 205.114 144.704L205.032 144.786C204.95 144.868 204.891 144.938 204.844 144.997C204.786 145.067 204.657 145.301 204.504 145.583C204.398 145.782 204.281 146.005 204.14 146.262C203.964 146.567 203.812 146.837 203.648 147.083C203.213 147.763 202.803 148.29 202.369 148.724C201.876 149.216 201.36 149.556 200.855 149.732C200.691 149.743 200.55 149.767 200.421 149.767ZM200.398 142.195C200.503 142.57 200.75 143.391 200.937 143.965L200.984 144.094L200.867 144.164C200.585 144.34 200.292 144.504 200.011 144.657C199.459 144.961 198.943 145.254 198.626 145.547C198.309 145.84 198.321 146.04 198.356 146.157C198.438 146.462 198.532 146.743 198.614 147.013C198.99 148.114 199.4 148.841 199.846 149.193C199.952 149.275 200.057 149.333 200.163 149.368C200.339 149.427 200.527 149.427 200.726 149.357C201.184 149.204 201.641 148.888 202.111 148.431C202.521 148.021 202.92 147.505 203.343 146.848C203.495 146.602 203.659 146.344 203.824 146.04C203.964 145.794 204.082 145.571 204.187 145.372C204.363 145.043 204.481 144.821 204.563 144.727C204.61 144.668 204.68 144.586 204.762 144.504L204.809 144.457C204.821 144.446 204.833 144.434 204.856 144.411L204.891 144.375C205.267 143.989 205.865 143.426 206.545 142.77C206.839 142.488 207.144 142.195 207.472 141.879L207.496 141.855C210.769 138.714 214.617 134.835 215.251 132.69C215.38 132.268 215.192 130.897 214.77 129.138C214.183 126.712 213.115 123.442 212.048 121.614C212.048 121.602 212.036 121.59 212.036 121.579L212.024 121.567C211.637 120.922 211.285 120.512 210.98 120.348C208.704 119.152 205.712 121.989 205.255 122.446C205.325 122.68 205.607 123.442 205.9 124.239C206.041 124.626 206.205 125.048 206.369 125.505L206.381 125.54C208.282 130.709 208.915 133.206 208.493 133.85C207.543 135.339 206.123 137.531 204.809 139.511C204.762 139.593 204.703 139.664 204.657 139.734C204.527 139.933 204.387 140.132 204.258 140.32L204.176 140.437C203.284 141.75 202.615 142.688 202.134 143.297L202.005 143.461L201.864 143.297C201.501 142.922 200.82 142.359 200.398 142.195ZM205.184 122.516C205.184 122.516 205.184 122.528 205.184 122.516V122.516Z" fill="#3E3E3E"/>
<path d="M179.01 147.505C178.858 149.439 178.764 150.728 178.752 150.904C178.705 151.724 180.606 154.162 180.477 154.725C180.336 155.287 178.389 153.178 178.389 153.178C178.389 153.178 177.99 154.83 178.048 155.393C178.084 155.791 178.142 156.412 178.166 157.057C178.201 157.702 178.224 158.37 178.201 158.839C178.201 158.862 178.189 158.885 178.189 158.909C178.13 159.05 177.931 159.073 177.849 158.921C177.708 158.663 177.532 158.335 177.333 157.96C177.204 157.713 177.063 157.456 176.934 157.186C176.828 156.987 176.723 156.776 176.629 156.577C176.218 155.744 175.854 154.936 175.772 154.525C175.631 153.857 176.558 150.681 176.558 150.681L176.394 147.552L176.335 146.426L176.136 142.816L175.761 135.749L175.409 129.092L175.326 127.638L175.233 125.915L175.174 124.919L175.092 123.348L177.532 123.501L178.166 123.536L180.864 123.7C180.864 123.7 180.794 124.532 180.688 125.915C180.407 129.49 179.843 136.733 179.398 142.512C179.257 144.258 179.139 145.887 179.034 147.223C179.022 147.329 179.022 147.423 179.01 147.505Z" fill="white"/>
<path d="M178.013 159.202C177.884 159.202 177.755 159.132 177.697 159.014C177.556 158.757 177.38 158.428 177.18 158.053C177.051 157.807 176.911 157.549 176.781 157.28C176.676 157.081 176.57 156.87 176.476 156.67L176.453 156.635C175.96 155.639 175.679 154.947 175.596 154.572C175.456 153.893 176.242 151.115 176.371 150.669L174.904 123.184L181.052 123.559L180.864 125.95C180.583 129.525 180.02 136.769 179.574 142.535V142.547C179.433 144.293 179.316 145.922 179.21 147.259L179.187 147.528C179.046 149.321 178.94 150.751 178.928 150.915C178.905 151.291 179.421 152.181 179.844 152.896C180.395 153.846 180.723 154.443 180.653 154.772C180.63 154.889 180.547 154.959 180.442 154.994C180.055 155.088 179.128 154.221 178.483 153.553C178.354 154.127 178.178 155.029 178.213 155.393C178.236 155.639 178.295 156.295 178.342 157.069C178.389 157.842 178.4 158.44 178.377 158.874C178.377 158.921 178.365 158.968 178.342 159.003C178.295 159.12 178.166 159.214 178.025 159.214C178.025 159.202 178.013 159.202 178.013 159.202ZM176.805 156.541C176.899 156.729 176.993 156.916 177.086 157.104C177.227 157.374 177.356 157.631 177.485 157.878C177.685 158.253 177.861 158.581 178.002 158.827C178.002 158.839 178.002 158.839 178.013 158.839H178.025C178.049 158.417 178.037 157.819 177.99 157.069C177.943 156.307 177.896 155.651 177.873 155.404C177.814 154.818 178.201 153.201 178.225 153.131L178.307 152.814L178.53 153.06C179.198 153.787 180.043 154.549 180.325 154.631C180.313 154.373 179.879 153.623 179.55 153.06C179.046 152.193 178.565 151.361 178.588 150.892C178.6 150.728 178.682 149.556 178.846 147.493V147.481L178.87 147.212C178.975 145.876 179.093 144.258 179.233 142.512V142.5C179.679 136.733 180.242 129.49 180.524 125.904L180.688 123.864L175.291 123.536L176.746 150.681L176.735 150.705C176.371 151.959 175.855 153.998 175.96 154.467C176.031 154.807 176.324 155.51 176.805 156.483V156.541Z" fill="#3E3E3E"/>
<path d="M187.398 90.8353C187.387 90.8353 187.363 90.8353 187.352 90.8353C187.164 90.8118 187.023 90.636 187.047 90.4367L187.093 90.0969C187.117 89.9093 187.293 89.7687 187.492 89.7921C187.68 89.8155 187.821 89.9914 187.797 90.1906L187.75 90.5305C187.727 90.7063 187.574 90.8353 187.398 90.8353Z" fill="#3E3E3E"/>
<path d="M192.033 91.0345C192.022 91.0345 191.998 91.0345 191.986 91.0345C191.799 91.011 191.658 90.8352 191.681 90.636L191.728 90.2961C191.752 90.1085 191.928 89.9679 192.127 89.9913C192.315 90.0148 192.456 90.1906 192.432 90.3898L192.385 90.7297C192.362 90.9055 192.209 91.0345 192.033 91.0345Z" fill="#3E3E3E"/>
<path d="M193.581 89.4872C193.546 89.4872 193.523 89.4755 193.488 89.4638C192.643 88.9481 191.094 89.2997 191.083 89.2997C190.989 89.3232 190.895 89.2646 190.871 89.1708C190.848 89.077 190.907 88.9833 191 88.9598C191.071 88.9481 192.713 88.5614 193.675 89.1708C193.757 89.2177 193.781 89.3349 193.734 89.4169C193.699 89.4521 193.64 89.4872 193.581 89.4872Z" fill="#3E3E3E"/>
<path d="M188.795 92.734C188.783 92.734 188.771 92.734 188.748 92.734C188.736 92.734 188.724 92.7223 188.701 92.7223C188.056 92.5816 187.739 92.3003 187.774 91.9018C187.798 91.6557 187.974 91.4682 188.185 91.2455C188.396 91.0228 188.631 90.7766 188.748 90.4367C188.783 90.343 188.877 90.2961 188.971 90.3313C189.065 90.3664 189.112 90.4719 189.076 90.5539C188.924 90.9642 188.654 91.2455 188.431 91.4799C188.267 91.6557 188.126 91.8081 188.114 91.9253C188.091 92.1949 188.478 92.3121 188.771 92.3707C188.795 92.3707 188.818 92.3824 188.83 92.3824C188.924 92.4058 188.982 92.4996 188.959 92.5934C188.936 92.6754 188.865 92.734 188.795 92.734Z" fill="#3E3E3E"/>
<path d="M188.607 89.1593C188.584 89.1593 188.572 89.1593 188.548 89.1476C187.457 88.7842 186.566 89.1007 186.554 89.1007C186.46 89.1358 186.366 89.089 186.331 88.9952C186.296 88.9014 186.343 88.8077 186.437 88.7725C186.484 88.7608 187.457 88.4091 188.666 88.8194C188.76 88.8545 188.807 88.9483 188.771 89.0421C188.748 89.1124 188.677 89.1593 188.607 89.1593Z" fill="#3E3E3E"/>
<path d="M187.305 93.8593C187.141 94.0468 188.009 94.8087 188.737 94.8087C190.543 94.8087 191.095 93.5311 190.696 93.7303C190.543 93.8007 189.628 94.2109 188.737 94.1523C187.587 94.0702 187.493 93.6483 187.305 93.8593Z" fill="#3E3E3E"/>
<path d="M192.08 153.846C191.986 153.846 191.916 153.775 191.904 153.693L191.458 149.919L189.276 148.36C189.194 148.302 189.182 148.196 189.241 148.114C189.299 148.032 189.405 148.021 189.487 148.079L191.787 149.732L192.244 153.67C192.256 153.764 192.185 153.857 192.092 153.869C192.092 153.846 192.08 153.846 192.08 153.846Z" fill="#3E3E3E"/>
<path d="M185.428 83.9903C185.428 83.9903 194.931 86.7095 196.597 91.3626C196.597 91.3626 197.195 91.1165 197.618 91.1751C198.157 91.2454 198.345 91.4329 198.345 91.4329L198.052 83.6973L185.428 83.9903Z" fill="#3E3E3E"/>
<path d="M175.808 117.312C175.808 117.312 173.179 124.298 173.531 125.939H180.864L181.38 118.144L175.808 117.312Z" fill="#EAB7C2"/>
<path d="M203.272 120.231L205.689 125.939L213.292 120.711L208.751 113.796L203.272 120.231Z" fill="#EAB7C2"/>
<path d="M202.134 83.8966V85.725H183.233V83.8966C183.233 80.4155 185.134 77.3799 187.961 75.7624C189.358 74.9654 190.965 74.5083 192.69 74.5083C194.555 74.5083 196.303 75.0474 197.77 75.9851C198.356 76.3484 198.884 76.7821 199.377 77.2627C201.078 78.9504 202.134 81.3063 202.134 83.8966Z" fill="#DB4D30"/>
<path d="M197.77 75.9265C197.77 75.9265 190.261 78.4933 188.103 85.8422C187.891 86.5806 184.876 86.5923 184.7 85.6078C183.762 80.3921 187.962 75.7155 187.962 75.7155C189.358 74.9068 190.965 74.4497 192.69 74.4497C194.555 74.4497 196.303 74.9889 197.77 75.9265Z" fill="#EAB7C2"/>
<path d="M201.525 86.9204H181.814C181.357 86.9204 180.981 86.5454 180.981 86.0883V86.018C180.981 85.5609 181.357 85.1858 181.814 85.1858H201.525C201.982 85.1858 202.358 85.5609 202.358 86.018V86.0883C202.358 86.5454 201.982 86.9204 201.525 86.9204Z" fill="#DB4D30"/>
<path d="M185.052 104.912C185.052 104.912 182.283 110.022 182.107 116.902H183.832C183.832 116.902 184.407 107.643 186.542 104.982L185.052 104.912Z" fill="#3E3E3E"/>
<path d="M199.612 104.642C199.612 104.642 196.702 110.022 196.526 116.902H198.251C198.251 116.902 198.767 107.912 200.902 105.252L199.612 104.642Z" fill="#3E3E3E"/>
<path d="M189.382 126.372C186.601 126.372 184.349 124.122 184.349 121.344V120.266C184.349 119.973 184.583 119.75 184.865 119.75H193.875C194.168 119.75 194.391 119.985 194.391 120.266V121.344C194.415 124.122 192.162 126.372 189.382 126.372Z" fill="#F9E5EF"/>
<path d="M189.382 126.548C186.508 126.548 184.173 124.216 184.173 121.344V120.266C184.173 119.879 184.49 119.574 184.865 119.574H193.875C194.263 119.574 194.568 119.891 194.568 120.266V121.344C194.591 124.216 192.256 126.548 189.382 126.548ZM184.877 119.926C184.689 119.926 184.537 120.078 184.537 120.266V121.344C184.537 124.016 186.719 126.196 189.394 126.196C192.069 126.196 194.251 124.016 194.251 121.344V120.266C194.251 120.078 194.098 119.926 193.911 119.926H184.877Z" fill="#3E3E3E"/>
<path d="M169.472 134.495L169.436 137.402L169.343 145.794L169.319 147.563L169.296 149.509L169.249 153.881L169.237 155.112L169.202 157.784L169.19 158.968L169.178 160.48L168.404 159.554C168.263 159.636 168.111 159.718 167.946 159.788C167.618 159.929 166.445 158.979 165.412 157.948C159.792 158.124 154.63 157.995 149.808 157.725C144.623 157.432 139.812 156.999 135.225 156.612C135.061 156.6 134.885 156.588 134.721 156.565L134.779 155.897L135.061 152.814L135.929 143.332L136.211 140.203L136.258 140.191L136.481 140.156L146.664 138.398L149.703 137.87L149.82 137.847L150.149 137.788L158.737 136.312L162.456 135.667L163.16 135.55L166.961 134.893L167.172 134.858L167.559 134.788L169.073 134.53L169.472 134.495Z" fill="#3E3E3E"/>
<path d="M137.959 121.333C137.959 121.333 137.948 121.45 137.936 121.661C137.795 123.419 137.138 131.893 136.493 140.179C136.411 141.152 136.34 142.137 136.27 143.098V143.11C136.258 143.192 136.258 143.274 136.246 143.367C135.965 146.93 135.707 150.283 135.519 152.849C135.425 154.127 135.343 155.205 135.273 156.026C135.261 156.248 135.237 156.459 135.226 156.635C135.061 156.623 134.885 156.612 134.721 156.588C133.724 156.506 132.75 156.424 131.776 156.354L131.835 155.276L132.445 143.367L133.219 128.084L133.29 126.63L133.548 121.626L135.988 121.473L136.293 121.45H136.317L136.387 121.438L137.959 121.333Z" fill="white"/>
<path d="M135.378 156.811L134.698 156.752C133.712 156.67 132.715 156.588 131.753 156.518L131.577 156.506L133.36 121.45L138.147 121.145L138.135 121.344C138.135 121.344 138.124 121.45 138.112 121.661V121.672C138.065 122.247 137.959 123.559 137.83 125.364C137.549 129.01 137.103 134.647 136.681 140.203C136.634 140.859 136.575 141.504 136.528 142.16L136.446 143.215C136.446 143.274 136.434 143.332 136.434 143.379C136.164 146.931 135.895 150.283 135.707 152.849V152.861C135.636 153.799 135.566 154.631 135.519 155.334L135.449 156.33C135.437 156.436 135.437 156.541 135.425 156.647L135.378 156.811ZM131.953 156.19C132.868 156.26 133.806 156.33 134.733 156.413L135.062 156.436C135.062 156.389 135.073 156.342 135.073 156.295L135.144 155.299C135.202 154.608 135.261 153.775 135.331 152.838V152.826C135.531 150.259 135.789 146.907 136.059 143.344C136.059 143.285 136.071 143.238 136.071 143.18L136.153 142.125C136.2 141.48 136.258 140.824 136.305 140.168C136.739 134.612 137.173 128.974 137.455 125.329C137.596 123.536 137.701 122.235 137.737 121.649V121.637C137.737 121.59 137.748 121.544 137.748 121.508L133.689 121.766L131.953 156.19Z" fill="#3E3E3E"/>
<path d="M149.739 83.6858C149.739 83.6858 150.56 92.2536 149.868 93.1913C149.175 94.1289 145.222 95.887 145.222 95.887L151.862 115.379L166.035 114.007L166.95 99.5087C166.95 99.5087 160.485 94.2461 160.086 93.1678C159.547 91.6676 159.547 83.6858 159.547 83.6858H149.739Z" fill="white"/>
<path d="M151.744 115.566L151.697 115.437L145.01 95.7933L145.162 95.723C145.197 95.7113 149.081 93.9884 149.738 93.0859C150.207 92.4295 149.902 87.1083 149.574 83.6976C149.562 83.6038 149.632 83.5101 149.738 83.5101C149.832 83.4983 149.926 83.5687 149.926 83.6742C150.008 84.5532 150.723 92.3357 150.019 93.3085C149.386 94.1876 146.195 95.6644 145.456 95.9926L151.99 115.203L165.87 113.867L166.773 99.6143C165.846 98.8524 160.32 94.3165 159.933 93.2499C159.393 91.738 159.382 84.0258 159.382 83.6976C159.382 83.6038 159.464 83.5218 159.558 83.5218C159.652 83.5218 159.734 83.6038 159.734 83.6976C159.734 83.7796 159.745 91.6794 160.262 93.121C160.567 93.9649 165.271 97.9382 167.066 99.3916L167.137 99.4502L166.198 114.183L151.744 115.566Z" fill="#3E3E3E"/>
<path d="M143.062 95.1135C138.78 96.6724 139.812 119.528 139.812 119.528C139.108 122.212 137.466 136.605 137.466 136.605L167.489 142.582L171.032 124.626C171.032 124.626 173.249 94.3986 161.482 92.6288C160.355 92.4647 156.906 94.0704 153.222 93.7188C151.627 93.5664 150.805 95.4652 150.019 92.6756C150.019 92.6639 144.001 94.7736 143.062 95.1135Z" fill="white"/>
<path d="M167.619 142.77L167.466 142.735L137.303 136.734L137.314 136.593C137.385 136.007 138.957 122.247 139.661 119.516C139.602 118.285 138.699 96.5434 143.016 94.9729C143.943 94.633 149.903 92.535 149.962 92.5115L150.126 92.4529L150.173 92.617C150.396 93.414 150.642 93.8594 150.912 93.9883C151.147 94.1055 151.428 93.9883 151.792 93.836C152.179 93.6836 152.672 93.4843 153.247 93.5429C155.535 93.7656 157.729 93.2148 159.336 92.8163C160.345 92.5701 161.072 92.3826 161.518 92.4529C164.252 92.8631 166.469 94.8322 168.088 98.2898C169.379 101.032 170.294 104.724 170.833 109.26C171.737 116.961 171.197 124.556 171.197 124.626V124.65L167.619 142.77ZM137.655 136.476L167.372 142.395L170.88 124.603C170.904 124.286 171.408 116.855 170.517 109.307C169.989 104.807 169.074 101.15 167.795 98.4422C166.223 95.0901 164.087 93.1796 161.459 92.7811C161.072 92.7225 160.333 92.91 159.394 93.1327C157.764 93.5312 155.535 94.0938 153.2 93.8594C152.695 93.8125 152.273 93.9883 151.898 94.129C151.499 94.2931 151.112 94.4454 150.748 94.2696C150.408 94.1055 150.138 93.6602 149.891 92.8631C148.929 93.203 143.943 94.9611 143.11 95.2659L143.052 95.1135L143.11 95.2659C141.421 95.8754 140.341 100.259 139.989 107.912C139.72 113.749 139.966 119.457 139.966 119.516V119.539L139.954 119.563C139.321 122.071 137.831 134.952 137.655 136.476Z" fill="#3E3E3E"/>
<path d="M150.043 122.505L147.192 93.1677C145.233 93.1677 137.478 96.9652 135.636 98.5827C134.967 99.1804 127.975 153.705 128.034 154.361C128.034 154.361 134.932 156.061 135.976 156.119C136.493 156.143 136.058 126.771 136.434 119.938L134.897 137.167L133.524 152.838L148.964 152.849L149.668 139.371L150.043 122.505Z" fill="#3E3E3E"/>
<path d="M160.754 92.0542L150.019 121.59C149.996 123.419 150.148 124.239 149.832 132.045C149.667 136.183 150.172 153.928 150.172 153.295C150.172 153.037 170.961 153.963 170.961 153.963L171.841 132.244C171.841 132.244 178.799 128.681 178.799 118.602C178.799 107.303 177.966 103.47 175.936 97.7973C175.643 96.9769 164.755 92.0542 160.754 92.0542Z" fill="#3E3E3E"/>
<path d="M154.619 67.1126C152.835 67.0775 148.506 66.9251 148.096 70.0663C147.638 73.6528 147.65 78.3411 147.697 80.8141C147.72 81.7869 148.448 82.6074 149.41 82.7246L160.25 84.1194C161.247 84.2483 162.174 83.6036 162.409 82.6308C163.218 79.349 164.861 72.4104 164.603 71.2969C163.746 67.5229 157.446 67.183 154.619 67.1126Z" fill="#3E3E3E"/>
<path d="M159.124 86.3698C159.793 85.8424 160.332 83.4631 160.755 80.7322C160.767 80.6501 160.813 80.5915 160.896 80.5563C161.658 80.2282 162.808 79.4546 162.949 78.0833C163.078 76.8995 162.186 77.0401 161.471 77.3331C161.341 77.38 161.212 77.2745 161.224 77.1339C161.6 73.8169 161.787 70.8985 161.787 70.8985L148.905 69.2458C148.905 69.2458 148.553 72.1995 148.248 75.5164C148.236 75.6688 147.767 83.6272 147.978 84.3773C148.096 84.7875 148.377 85.1509 148.776 85.4673C148.776 85.4673 149.515 86.2526 154.196 86.8504L159.124 86.3698Z" fill="white"/>
<path d="M154.197 87.0262C154.185 87.0262 154.185 87.0262 154.173 87.0262C149.738 86.4636 148.776 85.7134 148.659 85.608C148.213 85.2563 147.932 84.8578 147.803 84.4359C147.568 83.6272 148.061 75.5868 148.061 75.5164C148.354 72.2347 148.718 69.2693 148.718 69.2342L148.741 69.0583L161.963 70.7578L161.952 70.9219C161.952 70.9571 161.752 73.8873 161.388 77.1691C161.388 77.1808 161.388 77.1808 161.388 77.1808C162.034 76.9112 162.515 76.8995 162.808 77.1222C163.054 77.3097 163.148 77.6379 163.101 78.1184C162.937 79.7007 161.529 80.4743 160.943 80.7322C160.931 80.7439 160.919 80.7556 160.907 80.779C160.391 84.1546 159.84 86.0299 159.218 86.5339C159.148 86.5925 159.03 86.5808 158.972 86.5104C158.913 86.4401 158.925 86.3229 158.995 86.2643C159.371 85.9713 159.945 84.7641 160.555 80.7322C160.579 80.5915 160.661 80.4743 160.79 80.4157C161.33 80.1813 162.597 79.4898 162.738 78.0833C162.773 77.7434 162.726 77.509 162.585 77.4035C162.397 77.2628 162.022 77.298 161.506 77.509C161.388 77.5558 161.259 77.5441 161.166 77.4621C161.06 77.38 161.013 77.2628 161.025 77.1222C161.342 74.2975 161.529 71.7189 161.576 71.0626L149.034 69.4568C148.952 70.1366 148.659 72.7269 148.401 75.5516C148.377 75.8798 147.92 83.6506 148.131 84.3421C148.237 84.7055 148.483 85.0336 148.87 85.3501L148.894 85.3618C148.894 85.3618 149.727 86.1119 154.208 86.6863C154.302 86.698 154.373 86.7917 154.361 86.8855C154.361 86.9676 154.291 87.0262 154.197 87.0262Z" fill="#3E3E3E"/>
<path d="M156.085 77.7434C156.073 77.7434 156.073 77.7434 156.062 77.7434C155.897 77.7317 155.78 77.591 155.792 77.4269L155.815 77.1573C155.827 76.9933 155.968 76.876 156.132 76.8878C156.296 76.8995 156.414 77.0401 156.402 77.2042L156.378 77.4738C156.355 77.6262 156.226 77.7434 156.085 77.7434Z" fill="#3E3E3E"/>
<path d="M150.418 77.1926C150.407 77.1926 150.395 77.1926 150.383 77.1926C150.219 77.1691 150.102 77.0285 150.125 76.8644L150.16 76.5479C150.184 76.3839 150.325 76.2667 150.489 76.2901C150.653 76.3135 150.77 76.4542 150.747 76.6183L150.712 76.9347C150.688 77.0871 150.571 77.1926 150.418 77.1926Z" fill="#3E3E3E"/>
<path d="M157.669 75.7977C157.646 75.7977 157.611 75.7859 157.587 75.7742C156.567 75.2116 155.499 75.5281 155.487 75.5398C155.393 75.5632 155.299 75.5164 155.264 75.4226C155.229 75.3288 155.288 75.2351 155.382 75.1999C155.428 75.1882 156.613 74.8366 157.752 75.4695C157.834 75.5164 157.869 75.6219 157.822 75.7039C157.798 75.7742 157.74 75.7977 157.669 75.7977Z" fill="#3E3E3E"/>
<path d="M152.12 80.7203C152.097 80.7203 152.085 80.7203 152.061 80.7086C151.885 80.65 150.982 80.2984 150.959 79.7827C150.935 79.3842 150.994 79.2787 151.674 78.0246C151.827 77.755 152.003 77.4151 152.226 77.0166C152.261 76.9463 152.589 76.161 152.554 75.6687C152.554 75.6101 152.472 75.5046 152.284 75.3874C151.709 75.0358 150.407 74.778 149.574 75.1413C149.48 75.1765 149.386 75.1413 149.34 75.0475C149.304 74.9538 149.34 74.86 149.433 74.8131C150.313 74.4263 151.745 74.649 152.46 75.0827C152.742 75.2468 152.883 75.4343 152.906 75.6336C152.953 76.243 152.566 77.1221 152.542 77.1573L152.531 77.169C152.308 77.5792 152.132 77.9074 151.979 78.1887C151.311 79.4193 151.287 79.4662 151.299 79.7592C151.311 79.9702 151.827 80.2515 152.167 80.3804C152.261 80.4156 152.308 80.5094 152.273 80.6031C152.261 80.6735 152.19 80.7203 152.12 80.7203Z" fill="#3E3E3E"/>
<path d="M165.448 147.997C165.412 147.997 165.377 147.985 165.342 147.962L157.059 141.668C156.977 141.609 156.965 141.504 157.024 141.422C157.083 141.34 157.188 141.328 157.27 141.387L165.553 147.681C165.635 147.739 165.647 147.845 165.588 147.927C165.553 147.974 165.495 147.997 165.448 147.997Z" fill="#3E3E3E"/>
<path d="M136.27 146.52C136.211 146.52 136.141 146.485 136.117 146.426C136.07 146.344 136.106 146.239 136.2 146.192L145.116 141.668C145.198 141.621 145.304 141.656 145.351 141.75C145.398 141.832 145.362 141.937 145.269 141.984L136.352 146.509C136.329 146.52 136.305 146.52 136.27 146.52Z" fill="#3E3E3E"/>
<path d="M147.427 92.2888L141.443 98.8993L146.301 100.845L143.508 108.159L149.926 121.614C149.949 121.661 150.02 121.637 150.02 121.591L147.427 92.2888Z" fill="white"/>
<path d="M149.961 121.825C149.879 121.825 149.797 121.778 149.762 121.696L143.321 108.17L146.078 100.95L141.15 98.9694L147.58 91.8784L150.196 121.579C150.208 121.684 150.137 121.79 150.032 121.813C150.008 121.825 149.985 121.825 149.961 121.825ZM143.696 108.158L149.774 120.911L147.286 92.7106L141.737 98.8288L146.512 100.751L143.696 108.158Z" fill="#3E3E3E"/>
<path d="M160.755 92.0542L166.539 100.821L160.016 101.384L161.482 109.143L150.407 121.473C150.337 121.555 150.196 121.473 150.243 121.368L160.755 92.0542Z" fill="white"/>
<path d="M150.325 121.684C150.278 121.684 150.231 121.672 150.184 121.637C150.067 121.567 150.02 121.426 150.067 121.309L160.708 91.6675L166.856 100.974L160.227 101.548L161.67 109.202L150.536 121.59C150.477 121.649 150.407 121.684 150.325 121.684ZM160.802 92.441L150.536 121.063L161.295 109.084L159.805 101.22L166.234 100.657L160.802 92.441Z" fill="#3E3E3E"/>
<path d="M151.709 133.639C151.709 134.049 152.037 134.378 152.448 134.378C152.859 134.378 153.187 134.049 153.187 133.639C153.187 133.229 152.859 132.901 152.448 132.901C152.037 132.901 151.709 133.229 151.709 133.639Z" fill="white"/>
<path d="M152.437 134.554C151.932 134.554 151.521 134.143 151.521 133.639C151.521 133.135 151.932 132.725 152.437 132.725C152.941 132.725 153.352 133.135 153.352 133.639C153.352 134.143 152.941 134.554 152.437 134.554ZM152.437 133.077C152.132 133.077 151.873 133.323 151.873 133.639C151.873 133.956 152.12 134.202 152.437 134.202C152.742 134.202 153 133.956 153 133.639C153 133.323 152.753 133.077 152.437 133.077Z" fill="#3E3E3E"/>
<path d="M164.134 153.846C164.134 153.846 164.122 153.846 164.134 153.846L149.727 153.084L149.586 121.672C149.586 121.579 149.668 121.497 149.762 121.497C149.856 121.497 149.938 121.579 149.938 121.672L150.067 152.756L164.134 153.494C164.228 153.494 164.31 153.588 164.298 153.682C164.298 153.775 164.228 153.846 164.134 153.846Z" fill="#A1C5E2"/>
<path d="M147.932 153.014H133.337L136.751 113.995C136.763 113.902 136.845 113.831 136.939 113.831C137.033 113.843 137.103 113.925 137.103 114.019L133.724 152.65H147.932C148.026 152.65 148.108 152.732 148.108 152.826C148.108 152.92 148.026 153.014 147.932 153.014Z" fill="#A1C5E2"/>
<path d="M163.899 93.496L160.415 90.7886L153.223 93.707L155.534 96.4613L163.899 93.496Z" fill="white"/>
<path d="M145.28 93.8007L147.709 91.2339L153.223 93.7069L151.146 96.2386L145.28 93.8007Z" fill="white"/>
<path d="M164.274 93.5547L160.449 90.5776L153.234 93.5078L147.661 91.0113L144.963 93.8712L151.204 96.4614L153.222 94.0001L155.463 96.6724L164.274 93.5547ZM151.087 96.016L145.596 93.7305L147.743 91.4567L152.917 93.7774L151.087 96.016ZM160.391 90.9996L163.523 93.4375L155.592 96.2505L153.527 93.7891L160.391 90.9996Z" fill="#3E3E3E"/>
<path d="M155.534 96.4614L153.222 93.707L150.935 96.4614L151.932 97.6335L149.245 112.308L150.055 122.141L153.95 111.007L153.856 97.8679L155.534 96.4614Z" fill="#3E3E3E"/>
<path d="M177.485 164.664C177.333 164.769 177.18 164.875 177.04 164.957C174.459 166.563 173.344 165.437 173.344 165.437L169.202 160.503L168.428 159.577L167.02 157.913L166.704 157.526L165.284 155.838L163.442 153.646L162.984 153.107L154.807 143.367L151.475 139.394L150.173 137.835L149.833 137.437L149.739 137.319L142.089 128.213C142.089 128.213 140.764 126.419 144.131 124.145C144.131 124.145 144.142 124.134 144.166 124.122L144.178 124.11L143.192 122.669C143.192 122.669 146.536 120.477 149.187 120.055C149.399 120.02 149.61 119.996 149.809 119.985C149.833 119.985 149.856 119.985 149.88 119.985C149.95 119.985 150.02 119.985 150.091 119.985C150.267 119.985 150.431 120.008 150.595 120.031C150.642 120.043 150.677 120.043 150.713 120.055C150.971 120.114 151.217 120.207 151.428 120.348C151.463 120.371 151.487 120.395 151.522 120.407C151.862 120.664 153.106 122.317 154.877 124.802C156.895 127.627 159.606 131.529 162.468 135.714C162.703 136.054 162.938 136.394 163.172 136.733C164.158 138.175 165.155 139.628 166.14 141.082C166.269 141.281 166.41 141.48 166.551 141.68C166.739 141.961 166.926 142.23 167.114 142.512C167.349 142.852 167.572 143.192 167.806 143.531C168.17 144.071 168.534 144.598 168.886 145.125C169.038 145.36 169.203 145.583 169.355 145.817C169.977 146.743 170.599 147.645 171.185 148.524C171.209 148.548 171.22 148.583 171.244 148.607C171.455 148.923 171.666 149.228 171.866 149.532C173.755 152.322 175.409 154.783 176.629 156.6C176.77 156.811 176.899 157.01 177.028 157.198C177.145 157.362 177.251 157.526 177.345 157.678C177.673 158.171 177.955 158.593 178.178 158.921C178.577 159.507 178.788 159.835 178.788 159.835C178.788 159.835 180.16 162.789 177.485 164.664Z" fill="white"/>
<path d="M178.963 159.753L178.951 159.729C178.951 159.729 178.728 159.401 178.341 158.815C178.118 158.475 177.837 158.065 177.508 157.573L177.097 156.975C177.004 156.834 176.91 156.694 176.816 156.553L176.781 156.506C175.443 154.514 173.824 152.123 172.017 149.439L171.771 149.075C171.642 148.888 171.525 148.7 171.396 148.513L171.337 148.431C170.739 147.552 170.129 146.649 169.507 145.723L169.296 145.419C169.213 145.29 169.12 145.161 169.037 145.032L169.026 145.02C168.674 144.493 168.31 143.965 167.958 143.438C167.723 143.098 167.501 142.758 167.266 142.418L166.656 141.516C166.538 141.34 166.421 141.164 166.304 140.988C165.318 139.535 164.321 138.07 163.336 136.64L163.101 136.3C162.948 136.077 162.796 135.854 162.643 135.62L162.585 135.538C159.429 130.932 156.895 127.287 155.053 124.708L155.041 124.696C153.093 121.965 151.979 120.512 151.639 120.266C151.603 120.242 151.568 120.219 151.545 120.196C151.322 120.043 151.064 119.938 150.77 119.879C150.723 119.867 150.688 119.856 150.641 119.856C150.477 119.832 150.301 119.809 150.113 119.809C150.031 119.809 149.961 119.809 149.89 119.809C149.855 119.809 149.832 119.809 149.808 119.809C149.609 119.821 149.398 119.844 149.175 119.879H149.163C146.512 120.313 143.238 122.434 143.109 122.528L142.957 122.622L143.942 124.075C142.616 124.989 141.854 125.95 141.69 126.912C141.561 127.697 141.866 128.213 141.948 128.318L173.238 165.578C173.273 165.613 173.695 166.023 174.575 166.023C175.197 166.023 176.053 165.824 177.156 165.133C177.309 165.039 177.461 164.933 177.614 164.828C180.347 162.871 178.975 159.776 178.963 159.753ZM142.018 126.947C142.171 126.079 142.91 125.177 144.153 124.321C144.177 124.321 144.294 124.216 144.318 124.204C145.362 123.513 148.166 121.954 149.093 122.528C149.233 122.61 149.269 122.716 149.233 122.868C148.999 123.817 146.3 125.505 145.174 125.575C145.069 125.587 144.986 125.669 144.998 125.775C145.01 125.88 145.092 125.95 145.186 125.95H145.198C146.476 125.868 149.327 124.063 149.597 122.962C149.679 122.645 149.574 122.376 149.292 122.2C148.119 121.461 145.057 123.29 144.2 123.841L143.426 122.692C144.106 122.27 146.922 120.571 149.187 120.196C149.187 120.196 150.043 120.02 150.677 120.196C150.923 120.266 151.146 120.336 151.334 120.465C151.357 120.477 151.369 120.489 151.392 120.5C151.533 120.711 151.908 121.391 151.697 122.434C151.474 123.513 150.547 125.224 147.38 127.251C144.4 129.15 142.464 128.201 142.206 128.06C142.124 127.966 141.913 127.556 142.018 126.947ZM177.379 164.523C177.227 164.629 177.086 164.722 176.933 164.816C174.575 166.281 173.543 165.402 173.449 165.32L142.663 128.646C142.968 128.728 143.367 128.81 143.848 128.81C144.787 128.81 146.042 128.541 147.556 127.568C150.184 125.892 151.697 124.192 152.037 122.528C152.143 122.036 152.12 121.614 152.049 121.274C152.542 121.895 153.363 122.997 154.724 124.896L154.736 124.907C156.59 127.498 159.135 131.166 162.327 135.819L162.374 135.878C162.514 136.077 162.655 136.288 162.796 136.487L163.031 136.827C164.016 138.269 165.013 139.722 165.999 141.176C166.116 141.351 166.233 141.527 166.351 141.703L166.961 142.606C167.195 142.945 167.418 143.285 167.653 143.625C168.017 144.164 168.38 144.692 168.732 145.219L168.744 145.231C168.826 145.36 168.92 145.477 169.002 145.606L169.213 145.911C169.835 146.837 170.457 147.739 171.044 148.618L171.091 148.7C171.22 148.888 171.337 149.075 171.466 149.251L171.712 149.615C173.519 152.287 175.115 154.654 176.452 156.635L176.487 156.682C176.593 156.846 176.699 156.999 176.804 157.151L177.215 157.749C177.543 158.241 177.825 158.663 178.048 158.991C178.4 159.518 178.611 159.835 178.658 159.894C178.728 160.105 179.831 162.8 177.379 164.523Z" fill="#3E3E3E"/>
<path d="M170.481 153.963L166.034 158.135L154.56 123.876C154.56 123.876 154.103 122.129 157.352 121.45L157.059 120.078C157.059 120.078 162.761 118.941 163.946 120.899C164.849 122.411 170.481 153.963 170.481 153.963Z" fill="white"/>
<path d="M170.657 153.928C170.422 152.639 165.002 122.329 164.087 120.805C164.087 120.805 164.087 120.805 164.087 120.793C162.843 118.766 157.259 119.856 157.024 119.903L156.848 119.938L157.153 121.309C155.898 121.59 155.053 122.083 154.642 122.751C154.267 123.36 154.396 123.888 154.408 123.911L165.976 158.44L170.692 154.01L170.657 153.928ZM154.725 123.806C154.713 123.7 154.678 123.349 154.936 122.938C155.311 122.341 156.156 121.883 157.388 121.637C158.749 121.368 161.036 121.169 161.471 121.778C161.541 121.872 161.541 121.942 161.471 122.036C161.013 122.657 158.526 123.091 157.669 122.821C157.564 122.786 157.458 122.845 157.435 122.938C157.399 123.032 157.458 123.149 157.552 123.173C157.763 123.243 158.056 123.278 158.397 123.278C159.582 123.278 161.306 122.891 161.776 122.259C161.94 122.036 161.94 121.778 161.776 121.555C161.119 120.641 158.326 121.075 157.482 121.227L157.259 120.231C158.209 120.067 162.749 119.364 163.77 120.981C163.805 121.18 163.876 121.79 163.418 122.47C162.937 123.196 161.74 124.192 158.772 124.743C156.015 125.259 154.889 124.005 154.725 123.806ZM166.117 157.819L154.947 124.474C155.428 124.814 156.238 125.212 157.505 125.212C157.904 125.212 158.35 125.177 158.843 125.083C161.318 124.626 162.961 123.806 163.711 122.657C163.899 122.376 164.005 122.106 164.075 121.86C165.213 126.115 168.522 144.036 170.293 153.893L166.117 157.819Z" fill="#3E3E3E"/>
<path d="M175.76 135.761C174.399 140.426 172.264 145.817 171.243 148.595C171.22 148.654 171.196 148.712 171.185 148.771C171.079 149.052 170.997 149.298 170.915 149.521C170.821 149.791 170.751 150.002 170.715 150.154C170.633 150.459 170.985 152.088 170.962 153.963C170.95 155.229 170.762 156.6 170.164 157.749C169.929 158.206 169.613 158.628 169.225 158.991C168.991 159.214 168.733 159.402 168.428 159.577C168.287 159.659 168.134 159.741 167.97 159.812C167.642 159.952 166.468 159.003 165.436 157.972C164.603 157.128 163.864 156.225 163.746 155.792C163.629 155.381 164.122 154.83 164.122 154.83C163.993 154.83 161.482 154.748 161.74 154.256C161.834 154.08 162.057 153.858 162.35 153.611C162.538 153.447 162.761 153.283 162.996 153.107C163.348 152.85 163.735 152.58 164.11 152.31C164.908 151.748 165.659 151.197 165.964 150.787C166.116 150.588 166.269 150.154 166.457 149.521C166.809 148.29 167.243 146.286 167.829 143.532C167.947 142.969 168.076 142.371 168.216 141.738C168.228 141.68 168.24 141.621 168.252 141.574C168.557 140.18 168.979 138.773 169.472 137.425C171.161 132.76 173.695 128.705 175.361 127.674C175.831 127.381 176.218 127.334 176.511 127.568C176.734 127.744 176.887 128.096 176.969 128.635C177.168 130.147 176.617 132.807 175.76 135.761Z" fill="white"/>
<path d="M167.888 160.046C167.254 160.046 165.987 158.874 165.248 158.124C164.884 157.76 163.676 156.506 163.5 155.85C163.418 155.569 163.535 155.264 163.664 155.041C162.995 155.006 161.763 154.901 161.517 154.514C161.447 154.397 161.435 154.268 161.505 154.15C161.611 153.951 161.822 153.728 162.174 153.435C162.35 153.295 162.549 153.131 162.831 152.92C163.101 152.72 163.394 152.521 163.676 152.322L163.957 152.123C164.708 151.595 165.471 151.033 165.752 150.646C165.881 150.47 166.034 150.072 166.21 149.45C166.55 148.267 166.949 146.403 167.571 143.473C167.688 142.91 167.817 142.301 167.958 141.68C167.97 141.621 167.982 141.562 167.993 141.504C168.287 140.168 168.697 138.773 169.202 137.366L169.213 137.331C170.856 132.807 173.425 128.564 175.197 127.462C175.913 127.017 176.358 127.169 176.616 127.38C176.886 127.603 177.074 128.002 177.156 128.588C177.367 129.982 176.98 132.35 175.971 135.819C174.868 139.582 173.308 143.731 172.158 146.766C171.888 147.481 171.642 148.126 171.443 148.665C171.419 148.724 171.407 148.782 171.384 148.829C171.278 149.122 171.184 149.368 171.114 149.579C171.02 149.849 170.95 150.06 170.915 150.201C170.891 150.294 170.938 150.693 170.985 151.091C171.067 151.83 171.184 152.838 171.173 153.951C171.149 155.522 170.879 156.834 170.34 157.842C170.093 158.311 169.788 158.721 169.436 159.073L169.366 159.143C169.12 159.378 168.838 159.589 168.533 159.765C168.38 159.847 168.216 159.94 168.052 160.011C167.993 160.034 167.946 160.046 167.888 160.046ZM164.603 154.584L164.262 154.971C164.133 155.123 163.875 155.51 163.934 155.721C164.028 156.073 164.685 156.905 165.576 157.796C166.797 159.026 167.653 159.589 167.864 159.589C168.017 159.518 168.158 159.448 168.287 159.366C168.545 159.214 168.779 159.038 169.002 158.85L169.049 158.815C169.401 158.487 169.694 158.089 169.941 157.631C170.434 156.682 170.703 155.44 170.715 153.939C170.727 152.849 170.621 151.865 170.539 151.138C170.469 150.517 170.445 150.236 170.481 150.083C170.527 149.919 170.586 149.708 170.692 149.427C170.762 149.216 170.856 148.958 170.962 148.677V148.665C170.985 148.618 170.997 148.56 171.02 148.501C171.22 147.95 171.466 147.306 171.736 146.591C172.874 143.567 174.446 139.429 175.537 135.679C176.523 132.315 176.91 129.947 176.71 128.634C176.64 128.177 176.511 127.861 176.323 127.709C176.124 127.544 175.819 127.58 175.432 127.826C173.742 128.869 171.267 132.995 169.648 137.425L169.636 137.46C169.12 138.867 168.721 140.25 168.427 141.574C168.416 141.633 168.404 141.691 168.392 141.738C168.251 142.371 168.134 142.969 168.005 143.531C167.383 146.473 166.973 148.349 166.632 149.544C166.433 150.236 166.269 150.658 166.104 150.88C165.776 151.326 165.025 151.877 164.204 152.451L163.922 152.65C163.641 152.849 163.347 153.049 163.089 153.248C162.819 153.447 162.62 153.6 162.456 153.74C162.198 153.951 162.022 154.139 161.928 154.268C162.233 154.467 163.711 154.584 164.063 154.561L164.603 154.584Z" fill="#3E3E3E"/>
<path d="M172.335 149.521C172.335 149.521 177.004 144.469 178.224 134.378C179.445 124.286 178.788 115.566 178.788 115.566L168.874 116.41C168.874 116.41 168.111 130.264 167.724 133.44C167.184 137.859 164.803 149.521 164.803 149.521H172.335Z" fill="#3E3E3E"/>
<path d="M172.334 149.696H164.567L164.626 149.474C169.683 130.428 167.688 114.921 167.665 114.769C167.653 114.675 167.723 114.581 167.817 114.57C167.911 114.558 168.005 114.628 168.017 114.722C168.017 114.757 168.533 118.672 168.416 124.896C168.31 130.592 167.629 139.441 165.025 149.345H172.334C172.428 149.345 172.51 149.427 172.51 149.521C172.51 149.614 172.428 149.696 172.334 149.696Z" fill="#A1C5E2"/>
<path d="M147.767 78.6106C147.767 78.6106 146.453 84.049 148.014 85.4555C149.574 86.862 156.203 87.6238 157.388 87.0964C158.573 86.569 160.673 80.4156 160.673 80.4156C160.673 80.4156 158.033 81.4118 156.566 81.4001C155.1 81.3884 151.463 81.447 149.809 80.4156C148.647 79.7123 147.767 78.6106 147.767 78.6106Z" fill="#3E3E3E"/>
<path d="M153.88 82.0449C153.962 82.4434 152.8 83.6271 151.803 83.4513C150.172 83.1583 150.043 81.412 150.407 81.576C150.548 81.6346 151.04 82.2089 152.026 82.3613C153.093 82.5254 153.833 81.787 153.88 82.0449Z" fill="white"/>
<path d="M165.941 70.8048L165.753 72.6215L146.946 70.711L147.134 68.8943C147.486 65.4367 149.68 62.6003 152.66 61.2759C154.126 60.6195 155.781 60.3265 157.494 60.5023C159.359 60.6898 161.037 61.4048 162.398 62.4831C162.937 62.9051 163.43 63.3856 163.864 63.9248C165.389 65.7884 166.211 68.2263 165.941 70.8048Z" fill="#DB4D30"/>
<path d="M162.397 62.4362C162.397 62.4362 154.666 64.2294 151.768 71.3322C151.474 72.0471 148.483 71.7541 148.412 70.7579C148.002 65.4718 152.659 61.2407 152.659 61.2407C154.126 60.5843 155.78 60.2913 157.493 60.4554C159.359 60.6429 161.036 61.3579 162.397 62.4362Z" fill="#EAB7C2"/>
<path d="M165.026 73.7583L145.421 71.7658C144.964 71.7189 144.623 71.3087 144.67 70.8516L144.682 70.7813C144.729 70.3242 145.14 69.9843 145.597 70.0312L165.202 72.0237C165.659 72.0706 165.999 72.4808 165.953 72.9379L165.941 73.0082C165.906 73.4653 165.495 73.8052 165.026 73.7583Z" fill="#DB4D30"/>
<path d="M136.586 139.125C136.492 139.125 136.422 139.054 136.41 138.96C136.399 138.867 136.481 138.785 136.575 138.773L145.726 138.07C145.819 138.058 145.902 138.14 145.913 138.234C145.925 138.328 145.843 138.41 145.749 138.421L136.598 139.125C136.586 139.125 136.586 139.125 136.586 139.125Z" fill="#A1C5E2"/>
<path d="M48.3485 87.4011C48.3485 87.4011 47.5507 95.8049 48.2195 96.7425C48.8882 97.6684 53.9096 98.8757 53.9096 98.8757L46.2719 118.531L32.3575 117.183L31.4541 102.954C31.4541 102.954 37.8012 97.7856 38.1884 96.7191C38.7164 95.254 38.7164 87.4011 38.7164 87.4011H48.3485Z" fill="white"/>
<path d="M46.3767 118.707L32.1807 117.336L31.2656 102.861L31.336 102.802C33.0959 101.372 37.7184 97.481 38.0117 96.6488C38.5279 95.2306 38.5279 87.4715 38.5279 87.3894C38.5279 87.2957 38.61 87.2136 38.7039 87.2136C38.7977 87.2136 38.8798 87.2957 38.8798 87.3894C38.8798 87.7059 38.8681 95.2892 38.3402 96.766C37.9647 97.8091 32.5327 102.263 31.6176 103.013L32.5092 117.008L46.1421 118.32L53.6624 98.9812C52.6417 98.7234 48.7115 97.7154 48.0662 96.8363C47.374 95.8752 48.0779 88.245 48.16 87.3777C48.1718 87.284 48.2539 87.2136 48.3478 87.2136C48.4416 87.2253 48.512 87.3074 48.512 87.4012C48.1952 90.7533 47.8902 95.9807 48.3478 96.6136C48.864 97.3286 52.5596 98.3483 53.9323 98.6765L54.1317 98.7233L46.3767 118.707Z" fill="#3E3E3E"/>
<path d="M45.8371 70.7696C47.5735 70.9805 51.8088 71.4259 51.7736 74.5319C51.7267 78.0833 51.0697 82.6426 50.6943 85.0454C50.5417 85.9947 49.7205 86.6862 48.7584 86.6745L38.0234 86.5456C37.0379 86.5339 36.2167 85.7838 36.1228 84.8109C35.7826 81.5174 35.1373 74.5319 35.5362 73.4888C36.9089 69.9257 43.08 70.4414 45.8371 70.7696Z" fill="#3E3E3E"/>
<path d="M38.821 88.8664C38.2461 88.2569 38.0466 85.8776 38.0114 83.1584C38.0114 83.0763 37.9645 83.006 37.9058 82.9708C37.2019 82.5372 36.1929 81.6347 36.2399 80.2868C36.2751 79.1147 37.1198 79.3726 37.7768 79.7594C37.8941 79.8297 38.0349 79.7359 38.0466 79.607C38.1405 76.3369 38.3517 73.4653 38.3517 73.4653L51.1046 73.6177C51.1046 73.6177 51.0459 76.5362 50.8817 79.8062C50.87 79.9586 50.2482 87.7529 49.9314 88.4561C49.7554 88.8429 49.4386 89.1594 49.0045 89.4055C49.0045 89.4055 48.1833 90.0619 43.5373 90.0033L38.821 88.8664Z" fill="white"/>
<path d="M44.1014 90.2025C43.9254 90.2025 43.7377 90.2025 43.5382 90.2025C43.4443 90.2025 43.3622 90.1204 43.3622 90.0267C43.3622 89.9329 43.4443 89.8509 43.5382 89.8509C47.973 89.8977 48.8881 89.2883 48.8881 89.2883L48.8998 89.2765C49.3222 89.0304 49.6038 88.7374 49.7563 88.3975C50.0496 87.7411 50.6714 80.1344 50.6949 79.8062C50.8356 77.0284 50.8943 74.4851 50.9178 73.7935L38.5051 73.6412C38.4582 74.2975 38.2939 76.8175 38.2118 79.607C38.2118 79.7359 38.1414 79.8531 38.0241 79.9117C37.9185 79.9703 37.7894 79.9703 37.6721 79.9117C37.2028 79.6422 36.8391 79.5484 36.6397 79.6539C36.4871 79.7359 36.405 79.9469 36.3933 80.2868C36.3464 81.6698 37.4844 82.5137 37.9771 82.8185C38.0945 82.8888 38.1648 83.0177 38.1648 83.1584C38.2118 87.1551 38.6107 88.4092 38.9274 88.7491C38.9978 88.8194 38.9861 88.9366 38.9157 88.9952C38.8453 89.0656 38.728 89.0539 38.6693 88.9835C38.1297 88.4092 37.8481 86.5105 37.8129 83.1584C37.8129 83.1466 37.8012 83.1232 37.7894 83.1115C37.2497 82.7833 35.9944 81.8339 36.0413 80.2751C36.0531 79.8062 36.2056 79.4898 36.4637 79.3491C36.7804 79.1733 37.2497 79.2554 37.8481 79.607C37.9419 76.3604 38.1531 73.4771 38.1531 73.4536L38.1648 73.2896L51.258 73.4536V73.6295C51.258 73.6529 51.1993 76.5831 51.0351 79.8297C51.0351 79.9 50.4016 87.788 50.073 88.5499C49.8971 88.9484 49.5568 89.3 49.0875 89.5813C48.9702 89.6633 48.0434 90.2025 44.1014 90.2025Z" fill="#3E3E3E"/>
<path d="M43.1622 81.1189C43.1504 81.1189 43.1504 81.1189 43.1387 81.1189C42.9158 81.1072 42.7398 80.9079 42.7515 80.6852L42.7633 80.4274C42.775 80.2047 42.9744 80.0289 43.1974 80.0406C43.4203 80.0523 43.5963 80.2516 43.5845 80.4743L43.5728 80.7321C43.5493 80.9548 43.3733 81.1189 43.1622 81.1189Z" fill="#3E3E3E"/>
<path d="M48.5473 81.2946C48.3127 81.2946 48.1367 81.1071 48.1367 80.8727L48.1485 80.5679C48.1485 80.3452 48.3479 80.1694 48.5708 80.1694C48.7937 80.1694 48.9814 80.357 48.9697 80.5914L48.958 80.8961C48.958 81.1188 48.7703 81.2946 48.5473 81.2946Z" fill="#3E3E3E"/>
<path d="M44.8757 79.1147C44.8522 79.1147 44.8405 79.1147 44.817 79.103C44.7936 79.103 42.5996 78.5873 41.5437 78.9975C41.4147 79.0444 41.2856 78.9858 41.2387 78.8569C41.1918 78.7279 41.2504 78.599 41.3795 78.5404C42.5762 78.0833 44.8405 78.599 44.9344 78.6224C45.0634 78.6576 45.1455 78.7865 45.1103 78.9155C45.0869 79.0444 44.9813 79.1147 44.8757 79.1147Z" fill="#3E3E3E"/>
<path d="M43.9605 85.2328C43.7493 85.5259 44.77 86.5573 45.9667 86.5221C47.9142 86.4635 48.536 85.1273 48.0667 85.2211C47.879 85.2563 47.1634 85.6548 46.0019 85.6665C44.7465 85.6782 44.1013 85.0336 43.9605 85.2328Z" fill="#3E3E3E"/>
<path d="M40.2293 71.4728C40.2293 71.4728 34.2928 69.9257 35.9823 77.8606C36.9443 82.3965 34.856 76.5362 40.0181 73.2778C40.5461 72.9379 40.2293 71.4728 40.2293 71.4728Z" fill="#3E3E3E"/>
<path d="M51.4568 77.9075C51.4568 77.9075 51.7736 74.7546 50.3188 74.1451C48.8523 73.5356 49.1104 75.0359 46.1773 75.0359C43.2443 75.0242 40.8626 73.7349 39.7481 73.9224C38.6335 74.11 37.4486 75.9149 37.4486 75.9149L37.167 72.891L43.8661 72.0237L48.3947 72.516L51.0697 73.2661L51.4568 77.9075Z" fill="#3E3E3E"/>
<path d="M46.5643 84.1778C46.4705 84.1778 46.3883 84.1075 46.3649 84.0138C46.3414 83.9083 46.4118 83.8028 46.5174 83.7793C46.928 83.6973 47.3973 83.4981 47.4208 83.3222C47.4794 83.041 47.4677 83.0058 46.975 81.7165C46.8694 81.4235 46.7403 81.0836 46.5761 80.6499V80.6382C46.5643 80.6031 46.3062 79.6889 46.4353 79.0911C46.4822 78.8919 46.6582 78.7278 46.9515 78.5988C47.7141 78.2707 49.1454 78.2472 49.955 78.7512C50.0488 78.8098 50.084 78.9387 50.0253 79.0325C49.9667 79.1263 49.8376 79.1614 49.7438 79.1028C48.9929 78.6457 47.7024 78.7161 47.104 78.9739C46.8928 79.0677 46.8224 79.1497 46.8224 79.1849C46.7168 79.6537 46.928 80.4507 46.9515 80.5327C47.104 80.9547 47.2331 81.3063 47.3504 81.5876C47.8431 82.912 47.8901 83.0175 47.8079 83.416C47.7024 83.9434 46.7638 84.1544 46.5878 84.1896C46.5995 84.1661 46.5761 84.1778 46.5643 84.1778Z" fill="#3E3E3E"/>
<path d="M62.0398 162.214C57.6285 161.78 53.0646 161.03 48.536 159.835C46.9639 159.425 45.3918 158.944 43.8314 158.417L43.4559 154.889L43.4325 158.276C41.7548 157.69 40.0888 157.045 38.458 156.319L38.0005 157.631C37.8714 157.995 37.4725 158.194 37.1088 158.065L30.574 155.791L26.5498 154.385C26.585 153.119 26.6319 151.947 26.6789 150.857C26.7023 150.306 26.7258 149.79 26.761 149.298C26.761 149.251 26.761 149.204 26.7727 149.146C26.9018 146.801 27.0778 145.02 27.2772 143.965C27.3007 143.848 27.3241 143.731 27.3476 143.613C27.3945 143.379 27.4415 143.156 27.4884 142.934C27.5353 142.723 27.5822 142.523 27.6174 142.324C27.9107 141.011 28.2392 139.863 28.556 138.843C29.2365 136.733 29.9404 135.245 30.574 134.202C31.6533 132.408 32.4863 131.951 32.4863 131.951H32.545L38.4346 131.893L48.5595 131.799L54.8714 131.74C54.8714 131.74 56.3497 131.483 59.2827 141.234C59.2945 141.269 59.3062 141.293 59.3062 141.328C59.4822 141.926 59.6699 142.57 59.8693 143.25C59.9515 143.555 60.0453 143.871 60.1274 144.188C60.1744 144.352 60.2213 144.528 60.2682 144.692C60.4442 145.348 60.6085 146.145 60.761 147.071C61.242 149.966 61.6057 154.139 61.899 159.096C61.9342 160.116 61.9929 161.148 62.0398 162.214Z" fill="#DB4D30"/>
<path d="M16.9759 117.605C16.7999 117.875 26.8779 122.516 26.8779 122.516L29.4707 119.316L27.2534 146.391L63.2244 147.13L61.0422 120.172L66.6385 121.602C66.6385 121.602 61.359 99.3444 51.4804 97.6918C50.2485 97.4809 48.3948 100.833 46.811 100.868C43.3852 100.95 38.4224 97.1292 34.4921 97.6918C32.5094 97.9848 25.822 103.751 16.9759 117.605Z" fill="#3E3E3E"/>
<path d="M56.6314 111.065L33.7301 110.936C33.7301 110.936 31.8998 121.579 28.5796 123.642L27.2773 146.403L59.7874 147.071L56.6314 111.065Z" fill="#DB4D30"/>
<path d="M61.2299 160.222C61.1126 160.409 60.7958 160.351 60.7841 160.128C60.7254 159.038 60.8897 157.081 60.9835 156.155C61.0539 155.51 60.5494 153.6 60.5494 153.6C60.5494 153.6 58.1091 156.026 57.9449 155.381C57.7689 154.725 60.1506 151.935 60.0919 150.986C60.0332 150.037 57.4639 119.68 57.4639 119.68L64.6675 119.281L62.849 150.728C62.849 150.728 63.9987 154.385 63.8228 155.159C63.5998 156.143 61.9573 158.991 61.2299 160.222Z" fill="white"/>
<path d="M61.0307 160.503C60.9955 160.503 60.9603 160.503 60.9251 160.491C60.7491 160.445 60.6201 160.304 60.6201 160.128C60.5497 158.804 60.7843 156.401 60.8195 156.131C60.8664 155.698 60.6201 154.584 60.4675 153.94C59.7519 154.631 58.4848 155.78 58.0038 155.651C57.8982 155.616 57.816 155.534 57.7809 155.416C57.687 155.041 58.0976 154.362 58.7781 153.271C59.3295 152.404 59.9396 151.42 59.9161 150.986C59.8575 150.048 57.3116 119.985 57.2881 119.68L57.2764 119.504L64.8554 119.082L63.0252 150.705C63.1777 151.209 64.1749 154.42 63.9989 155.194C63.776 156.167 62.2626 158.815 61.3827 160.304C61.3123 160.433 61.1715 160.503 61.0307 160.503ZM60.6553 153.26L60.7374 153.553C60.7608 153.635 61.2419 155.498 61.1715 156.167C61.0776 157.139 60.9251 159.062 60.972 160.116C60.972 160.14 60.9955 160.152 61.0072 160.152C61.019 160.152 61.0659 160.163 61.0776 160.128C61.7815 158.944 63.4358 156.084 63.647 155.123C63.7643 154.584 63.1308 152.24 62.6732 150.787L62.6615 150.752V150.716L64.4682 119.457L57.6401 119.844C57.8512 122.364 60.1977 150.072 60.2564 150.974C60.2916 151.525 59.6932 152.463 59.0597 153.471C58.6373 154.139 58.0624 155.053 58.0976 155.323C58.3675 155.311 59.4116 154.49 60.4206 153.482L60.6553 153.26Z" fill="#3E3E3E"/>
<path d="M48.0776 144.54L31.9106 138.902C31.019 138.585 30.5497 137.613 30.8547 136.722L32.6146 131.682C32.9196 130.791 33.9051 130.322 34.7968 130.627L50.9638 136.265L48.0776 144.54Z" fill="#EAB7C2"/>
<path d="M32.754 139.174L29.2422 149.234L34.8807 151.198L38.3925 141.139L32.754 139.174Z" fill="#EAB7C2"/>
<path d="M39.5259 153.224L38.4465 156.307L37.9889 157.62C37.8599 157.983 37.461 158.182 37.0973 158.053L30.5624 155.78L26.5383 154.373L26.2215 154.268C25.8578 154.139 25.6584 153.74 25.7874 153.377L26.6673 150.857L27.1132 149.568L27.2657 149.146L27.3243 148.982C27.4534 148.618 27.8523 148.419 28.216 148.548L29.354 148.946L29.9406 149.157L30.5624 149.368L34.9972 150.915L39.1035 152.345C39.4555 152.463 39.6549 152.861 39.5259 153.224Z" fill="#3E3E3E"/>
<path d="M49.4862 145.465L47.961 144.938C47.6794 144.844 47.5386 144.539 47.6325 144.27L50.4834 136.112C50.5773 135.831 50.8823 135.69 51.1521 135.784L52.6773 136.311C52.9589 136.405 53.0997 136.71 53.0058 136.98L50.1549 145.137C50.061 145.418 49.7677 145.559 49.4862 145.465Z" fill="#3E3E3E"/>
<path d="M52.1956 145.43L50.2246 144.739L52.6297 137.859L54.6007 138.55C55.246 138.773 55.5862 139.476 55.3633 140.121L53.7795 144.68C53.5331 145.313 52.8292 145.653 52.1956 145.43Z" fill="#3E3E3E"/>
<path d="M59.8338 144.797L53.8503 142.711C53.4749 142.582 53.2754 142.172 53.4045 141.797C53.5336 141.422 53.9442 141.223 54.3196 141.351L60.3031 143.438C60.6785 143.567 60.878 143.977 60.7489 144.352C60.6081 144.739 60.1975 144.938 59.8338 144.797Z" fill="#3E3E3E"/>
<path d="M33.8236 137.472C33.8001 137.472 33.7884 137.472 33.7649 137.46C33.671 137.425 33.6241 137.331 33.6476 137.237L35.2431 132.35C35.2783 132.256 35.3722 132.209 35.4661 132.233C35.5599 132.268 35.6068 132.362 35.5834 132.455L33.9878 137.343C33.9644 137.425 33.894 137.472 33.8236 137.472Z" fill="#3E3E3E"/>
<path d="M44.7106 143.532C44.6871 143.532 44.6754 143.532 44.6519 143.52L31.5235 138.902C31.4297 138.867 31.3827 138.773 31.4179 138.679C31.4531 138.585 31.547 138.539 31.6409 138.574L44.7692 143.192C44.8631 143.227 44.91 143.321 44.8748 143.414C44.8514 143.496 44.781 143.532 44.7106 143.532Z" fill="#3E3E3E"/>
<path d="M21.059 115.636C24.3206 114.054 28.4152 118.918 28.4152 118.918C28.5677 119.047 22.1971 129.865 23.1708 131.272C25.3413 134.401 29.2129 139.933 31.0901 142.137C31.5711 141.621 32.6153 140.824 33.1902 140.707C33.284 140.683 33.3662 140.766 33.3427 140.848C33.2136 141.246 32.8734 142.313 32.6036 143.051C34.2343 143.965 37.402 144.833 37.1205 145.77C36.6277 147.423 35.2081 149.99 33.4835 149.451C30.8085 148.618 28.1336 144.481 27.723 144.024C26.2682 142.442 15.5684 133.932 14.3365 130.088C13.7968 128.388 18.5249 116.867 21.059 115.636Z" fill="white"/>
<path d="M33.9643 149.685C33.7883 149.685 33.6123 149.661 33.4481 149.603C31.1603 148.888 28.9312 145.887 27.9691 144.61C27.7931 144.375 27.6641 144.2 27.5937 144.129C27.2417 143.742 26.3031 142.922 25.1182 141.879C21.3756 138.585 15.0989 133.065 14.1603 130.123C13.8435 129.127 15.0871 125.528 16.3777 122.61C17.023 121.145 19.2638 116.304 20.9767 115.472C24.2735 113.878 28.2624 118.461 28.5323 118.789C28.6731 118.906 28.6379 118.965 27.5585 120.993C26.7255 122.563 25.4584 124.931 24.5316 126.982C23.112 130.111 23.1589 130.943 23.3114 131.166C25.4115 134.202 29.1893 139.582 31.1016 141.867C31.6296 141.34 32.5799 140.648 33.1665 140.519C33.2721 140.496 33.3894 140.531 33.4598 140.613C33.5302 140.683 33.5537 140.789 33.5185 140.883C33.3894 141.281 33.0961 142.23 32.838 142.945C33.3307 143.203 33.9526 143.473 34.5509 143.731C36.1582 144.411 37.5543 145.008 37.3197 145.794C36.9091 147.177 35.9822 148.841 34.8677 149.439C34.5509 149.603 34.2576 149.685 33.9643 149.685ZM22.455 115.496C22.0092 115.496 21.5633 115.589 21.1292 115.789C20.0616 116.304 18.3604 118.977 16.6945 122.751C15.2279 126.091 14.2542 129.279 14.4888 130.018C15.4039 132.877 21.622 138.351 25.3411 141.621C26.5378 142.664 27.4764 143.496 27.8401 143.895C27.9105 143.977 28.0395 144.141 28.239 144.399C29.1775 145.653 31.3597 148.583 33.5302 149.263C33.9056 149.38 34.2928 149.333 34.6682 149.134C35.6889 148.595 36.5571 146.977 36.9443 145.7C37.0851 145.219 35.5833 144.575 34.3749 144.059C33.7062 143.778 33.0257 143.485 32.4978 143.192L32.3687 143.121L32.4156 142.981C32.662 142.313 32.967 141.363 33.1196 140.894C32.5916 141.058 31.6648 141.75 31.1955 142.254L31.0664 142.395L30.9374 142.242C29.0602 140.039 25.1534 134.483 23.0064 131.365C22.2907 130.334 24.8132 125.388 27.2417 120.829C27.6875 119.996 28.1099 119.199 28.2038 118.953C27.7814 118.473 25.0478 115.496 22.455 115.496Z" fill="#3E3E3E"/>
<path d="M43.4673 154.35C43.4556 154.35 43.4556 154.35 43.4438 154.35C43.35 154.338 43.2796 154.244 43.2913 154.15L43.8662 149.626L46.6585 147.786V145.301C46.6585 145.208 46.7406 145.125 46.8345 145.125C46.9283 145.125 47.0104 145.208 47.0104 145.301V147.974L44.1947 149.825L43.6433 154.186C43.6316 154.279 43.5494 154.35 43.4673 154.35Z" fill="#3E3E3E"/>
<path d="M63.7756 112.284C63.7756 112.284 67.0489 120.325 66.6148 122.223H57.4636L56.8066 113.245L63.7756 112.284Z" fill="#3E3E3E"/>
<path d="M30.4331 117.828L26.8665 123.794L17.2344 117.828L23.0418 109.811L30.4331 117.828Z" fill="#3E3E3E"/>
<path d="M33.0957 73.6059V75.5633H53.3455V73.6059C53.3455 69.8787 51.3159 66.6204 48.2889 64.8857C46.7989 64.0301 45.0626 63.5378 43.2206 63.5378C41.2144 63.5378 39.349 64.1122 37.7769 65.1201C37.1551 65.5186 36.5802 65.9757 36.064 66.4915C34.2337 68.3082 33.0957 70.8281 33.0957 73.6059Z" fill="#DB4D30"/>
<path d="M37.7891 65.0615C37.7891 65.0615 45.8374 67.8159 48.1486 75.6922C48.3833 76.4775 51.6096 76.5009 51.7973 75.4461C52.8063 69.8553 48.3011 64.8389 48.3011 64.8389C46.8111 63.9715 45.0748 63.4792 43.2328 63.4792C41.2266 63.4792 39.3612 64.0653 37.7891 65.0615Z" fill="#EAB7C2"/>
<path d="M33.6943 76.8409H54.9414C55.3989 76.8409 55.7744 76.4658 55.7744 76.0087V75.8095C55.7744 75.3524 55.3989 74.9773 54.9414 74.9773H33.6943C33.2368 74.9773 32.8613 75.3524 32.8613 75.8095V76.0087C32.8613 76.4775 33.2368 76.8409 33.6943 76.8409Z" fill="#DB4D30"/>
<path d="M52.2316 97.3989C52.2316 97.3989 55.6927 103.541 55.9038 111.804H53.7568C53.7568 111.804 53.0294 100.669 50.3662 97.481L52.2316 97.3989Z" fill="#DB4D30"/>
<path d="M34.0585 97.3989C34.0585 97.3989 37.6955 103.728 37.9067 111.804H35.7597C35.7597 111.804 35.1144 101.232 32.4395 98.1139L34.0585 97.3989Z" fill="#DB4D30"/>
<path d="M48.9815 123.255H46.4825C43.6082 123.255 41.2734 120.922 41.2734 118.051V115.964C41.2734 115.578 41.5902 115.273 41.9656 115.273H53.4984C53.8856 115.273 54.1906 115.589 54.1906 115.964V118.051C54.1906 120.922 51.8559 123.255 48.9815 123.255ZM41.9774 115.636C41.7897 115.636 41.6371 115.789 41.6371 115.976V118.062C41.6371 120.735 43.8193 122.915 46.4943 122.915H48.9932C51.6682 122.915 53.8504 120.735 53.8504 118.062V115.976C53.8504 115.789 53.6979 115.636 53.5102 115.636H41.9774Z" fill="#3E3E3E"/>
<path d="M77.6903 84.3655C77.6903 84.3655 77.9953 92.6285 77.2679 93.5662C76.5288 94.5038 72.7041 96.6487 72.7041 96.6487L83.7559 110.35L93.5992 96.8128C93.5992 96.8128 89.3991 94.9727 89.0002 93.8827C88.4487 92.3707 88.5543 84.3538 88.5543 84.3538H77.6903V84.3655Z" fill="white"/>
<path d="M83.7562 110.655L72.4229 96.6137L72.5988 96.5082C72.634 96.4847 76.4118 94.375 77.1157 93.4608C77.6202 92.8044 77.632 87.6708 77.5029 84.3655C77.5029 84.2717 77.5733 84.1897 77.6672 84.178C77.761 84.1663 77.8431 84.2483 77.8549 84.3421C77.8901 85.1977 78.1364 92.6989 77.3856 93.66C76.7286 94.5156 73.7251 96.2503 72.9508 96.6957L83.7327 110.057L93.3062 96.8832C92.3911 96.473 89.1882 94.9728 88.8128 93.9413C88.2614 92.4176 88.3552 84.6703 88.3552 84.3421C88.3552 84.2483 88.4373 84.1663 88.5312 84.1663C88.6251 84.1663 88.7072 84.2483 88.7072 84.3421C88.7072 84.4241 88.6133 92.3473 89.1413 93.8124C89.4463 94.6446 92.4967 96.1331 93.6465 96.6371L93.8459 96.7191L83.7562 110.655Z" fill="#3E3E3E"/>
<path d="M80.5889 67.7456C78.8525 67.9331 74.6289 68.3199 74.6289 71.4141C74.6289 74.9421 75.2273 79.478 75.5792 81.869C75.72 82.8066 76.5295 83.5099 77.4798 83.5099H88.1679C89.1417 83.5099 89.9747 82.7715 90.0803 81.8104C90.4557 78.5403 91.1831 71.6134 90.7959 70.5702C89.4819 67.0072 83.3342 67.4525 80.5889 67.7456Z" fill="#3E3E3E"/>
<path d="M80.7292 87.1434C83.7561 87.4951 87.5456 86.9208 88.5898 85.8776C89.1999 85.2681 89.458 82.8302 89.5284 80.0524C89.5284 79.9704 89.5753 79.9001 89.6457 79.8649C90.3966 79.4312 91.4759 78.517 91.4525 77.1457C91.429 75.9502 90.5256 76.208 89.8217 76.5831C89.6926 76.6534 89.5401 76.5597 89.5401 76.419C89.4815 73.0669 89.2937 70.1367 89.2937 70.1367H75.7313C75.7313 70.1367 75.7548 73.1255 75.8838 76.4659C75.8838 76.6183 75.7313 76.712 75.6023 76.6417C74.8866 76.2315 73.9011 75.8916 73.8659 77.1457C73.8307 78.7045 75.2268 79.6774 75.9425 80.0173C76.0129 80.0524 76.0715 80.1227 76.0715 80.2048C76.2241 82.5607 76.4587 84.6118 76.7872 85.3267C76.9632 85.7252 77.3034 86.0417 77.761 86.3113L80.7292 87.1434Z" fill="white"/>
<path d="M82.6419 87.4247C81.9966 87.4247 81.3396 87.3896 80.7061 87.3192C80.6122 87.3075 80.5418 87.2255 80.5536 87.12C80.5653 87.0262 80.6474 86.9559 80.753 86.9676C83.8034 87.3192 87.4873 86.7332 88.4728 85.7487C88.8131 85.4088 89.2472 84.1312 89.3527 80.0407C89.3527 79.9001 89.4349 79.7711 89.5522 79.7008C90.0801 79.3961 91.3003 78.5522 91.2651 77.134C91.2534 76.7941 91.1712 76.5714 91.0187 76.4893C90.8075 76.3721 90.4086 76.4542 89.8924 76.7355C89.7751 76.7941 89.6461 76.7941 89.5287 76.7355C89.4114 76.6652 89.3527 76.5597 89.341 76.419C89.2941 73.5592 89.1416 70.9689 89.1064 70.3126H75.9076C75.9193 71.0041 75.9545 73.6178 76.0601 76.4659C76.0601 76.5948 76.0015 76.7238 75.8841 76.7941C75.7668 76.8644 75.626 76.8644 75.5087 76.7941C74.9456 76.4776 74.5232 76.3604 74.2886 76.4893C74.136 76.5831 74.0422 76.7941 74.0422 77.1457C74.007 78.8569 75.8138 79.7594 76.0249 79.8532C76.154 79.9118 76.2478 80.0407 76.2596 80.1931C76.4825 83.6155 76.7641 84.8345 76.9518 85.2564C77.1043 85.5963 77.4093 85.901 77.8552 86.1589C77.9373 86.2058 77.9725 86.3113 77.9138 86.405C77.8669 86.4871 77.7613 86.5222 77.6674 86.4636C77.163 86.1706 76.811 85.8073 76.6233 85.3971C76.33 84.7407 76.0836 82.9943 75.8959 80.2165C75.8959 80.1931 75.8841 80.1814 75.8724 80.1696C74.84 79.6891 73.655 78.5991 73.6902 77.134C73.702 76.6534 73.8427 76.337 74.1243 76.1846C74.4763 75.9854 75.0042 76.0908 75.6964 76.4893H75.7082C75.7199 76.4893 75.7199 76.4776 75.7199 76.4776C75.5908 73.1607 75.5674 70.1719 75.5674 70.1367V69.9609H89.4701L89.4818 70.125C89.4818 70.1602 89.6695 73.1021 89.7282 76.419C89.7282 76.419 89.7282 76.4307 89.7399 76.4307C89.7516 76.4307 89.7516 76.4307 89.7516 76.4307C90.3969 76.0791 90.8897 75.9971 91.2182 76.1963C91.488 76.3487 91.6288 76.6652 91.6405 77.1457C91.6757 78.7514 90.3265 79.6891 89.7516 80.029C89.7399 80.0407 89.7282 80.0524 89.7282 80.0759C89.6461 83.4983 89.3176 85.4439 88.7427 86.0183C87.851 86.8621 85.2699 87.4247 82.6419 87.4247Z" fill="#3E3E3E"/>
<path d="M78.2418 98.5359L90.3611 99.0516L89.0354 112.319H76.0713L78.2418 98.5359Z" fill="#F9E8F2"/>
<path d="M104.71 130.275C104.71 130.275 96.732 132.619 91.8397 130.275C84.4601 126.736 80.8818 133.616 74.6285 131.893C74.2413 131.787 70.0999 131.6 65.5125 131.248C60.4677 130.861 58.6492 128.529 58.262 127.662C57.6637 126.349 57.5464 123.712 58.086 122.294L64.0812 98.2897C64.0812 98.2897 72.6927 93.9882 73.6078 94.1523C74.7458 94.3516 79.7672 95.8049 79.9197 96.1097C80.4359 97.1645 82.7237 106.693 83.3455 106.518C83.7562 106.4 86.3021 96.555 86.7244 96.2269C88.5077 94.8204 92.2972 93.8007 92.6609 93.9062L100.522 98.3014L108.711 122.633C109.755 125.259 107.232 128.974 104.71 130.275Z" fill="#DB4D30"/>
<path d="M69.2319 122.68C69.2202 122.68 69.2084 122.68 69.185 122.669C69.1029 122.645 69.0677 122.563 69.0911 122.481L71.7426 113.995C71.7661 113.913 71.8482 113.878 71.9303 113.902C72.0124 113.925 72.0476 114.007 72.0242 114.089L69.3727 122.575C69.3492 122.645 69.2906 122.68 69.2319 122.68Z" fill="#3E3E3E"/>
<path d="M98.4687 145.102L98.4569 146.298L98.4452 147.857L98.4335 149.626L98.4217 151.525L98.3865 159.483C97.6357 159.753 96.8848 160.034 96.1222 160.327C96.1222 160.327 95.5239 160.468 94.421 160.679C93.6936 160.82 92.7551 160.984 91.617 161.171C89.2002 161.558 85.9152 162.003 82.0553 162.308C82.0436 162.308 82.0318 162.308 82.0201 162.308H82.0084C77.1981 162.683 71.4845 162.859 65.3838 162.472V144.329L69.0794 144.411L69.8772 144.434L75.6729 144.575L76.4707 144.598L79.1222 144.657L80.0608 144.68L83.1464 144.751L85.9035 144.809L86.7599 144.833L89.0477 144.891L89.8455 144.903L91.6522 144.95L94.8434 145.02L96.0049 145.044L96.8027 145.055H96.8261L98.4687 145.102Z" fill="#DB4D30"/>
<path d="M91.8396 126.138C91.7926 126.138 91.734 126.115 91.7105 126.056C91.6753 125.986 91.6988 125.892 91.7692 125.857L102.387 120.289C102.457 120.254 102.551 120.278 102.586 120.348C102.621 120.418 102.598 120.512 102.528 120.547L91.91 126.115C91.8865 126.138 91.863 126.138 91.8396 126.138Z" fill="#3E3E3E"/>
<path d="M97.0018 123.665C96.9431 123.665 96.8845 123.63 96.861 123.56L93.095 111.663C93.0715 111.581 93.1184 111.511 93.1888 111.476C93.271 111.452 93.3414 111.499 93.3765 111.569L97.1426 123.466C97.166 123.548 97.1191 123.618 97.0487 123.653C97.0253 123.665 97.0135 123.665 97.0018 123.665Z" fill="#3E3E3E"/>
<path d="M86.1498 78.1066C85.9504 78.1066 85.7979 77.9425 85.7979 77.755V77.4385C85.7979 77.2393 85.9504 77.0869 86.1498 77.0869C86.3493 77.0869 86.5018 77.251 86.5018 77.4385V77.755C86.5018 77.9542 86.3375 78.1066 86.1498 78.1066Z" fill="#3E3E3E"/>
<path d="M79.8608 78.1066C79.673 78.1066 79.5088 77.9542 79.5088 77.755V77.4385C79.5088 77.2393 79.6613 77.0869 79.8608 77.0869C80.0485 77.0869 80.2127 77.2393 80.2127 77.4385V77.755C80.2127 77.9425 80.0602 78.1066 79.8608 78.1066Z" fill="#3E3E3E"/>
<path d="M78.5241 75.9033C78.4654 75.9033 78.4068 75.8681 78.3716 75.8213C78.3246 75.7392 78.3481 75.6337 78.4302 75.5751C79.5565 74.907 80.7532 75.2235 80.8001 75.2352C80.894 75.2586 80.9527 75.3524 80.9175 75.4462C80.894 75.5399 80.8002 75.5986 80.7063 75.5634C80.6946 75.5634 79.6035 75.2704 78.6062 75.8681C78.5828 75.8916 78.5593 75.9033 78.5241 75.9033Z" fill="#3E3E3E"/>
<path d="M87.4756 75.9619C87.4404 75.9619 87.4169 75.9502 87.3817 75.9384C86.3845 75.3407 85.2934 75.6337 85.2816 75.6337C85.1878 75.6571 85.0939 75.5985 85.0704 75.5165C85.047 75.4227 85.0939 75.329 85.1878 75.3055C85.2347 75.2938 86.4314 74.9773 87.5577 75.6454C87.6398 75.6923 87.6633 75.7978 87.6163 75.8915C87.5929 75.9267 87.5342 75.9619 87.4756 75.9619Z" fill="#3E3E3E"/>
<path d="M64.6328 130.276L65.3954 144.329L98.4686 145.102L98.7971 127.943L64.6328 130.276Z" fill="#DB4D30"/>
<path d="M67.7069 131.506C66.4398 131.506 65.0437 131.401 63.542 131.131C63.4598 131.119 63.4129 131.037 63.4246 130.967C63.4364 130.885 63.5185 130.838 63.5889 130.85C69.3259 131.893 73.5965 130.44 74.2652 130.193C74.2769 127.334 74.7697 125.189 74.9105 124.649L65.9236 121.626C65.8532 121.602 65.8063 121.52 65.8297 121.438C65.8532 121.368 65.9353 121.321 66.0175 121.344L75.2625 124.45L75.2273 124.579C75.2155 124.603 74.5585 126.958 74.5585 130.275V130.369L74.4647 130.404C74.4295 130.428 71.7662 131.506 67.7069 131.506Z" fill="#3E3E3E"/>
<path d="M82.0201 162.039C81.9262 162.039 81.8559 161.968 81.8441 161.874L81.2458 155.616L79.2982 155.123L78.0781 151.689C78.0429 151.595 78.0898 151.502 78.1837 151.467C78.2775 151.431 78.3714 151.478 78.4066 151.572L79.5681 154.83L81.5743 155.334L82.1961 161.839C82.2078 161.933 82.1374 162.027 82.0318 162.027C82.0318 162.039 82.0318 162.039 82.0201 162.039Z" fill="#3E3E3E"/>
<path d="M74.4053 130.275L91.898 125.822C91.898 125.822 96.5205 123.77 96.544 122.083L94.8076 116.761C94.3618 116.949 92.6841 119.481 90.8187 120.817C89.3169 121.883 87.5454 121.825 87.5454 121.825L75.2031 123.466L74.4053 130.275Z" fill="white"/>
<path d="M74.2061 130.51L75.0508 123.302L87.5456 121.649H87.5573C87.5691 121.649 89.2937 121.696 90.725 120.676C91.8513 119.867 92.9072 118.613 93.6816 117.699C94.2564 117.019 94.538 116.691 94.7375 116.597L94.9134 116.527L96.7085 122.059V122.094C96.6733 123.876 92.1446 125.904 91.9569 125.997L91.9335 126.009L74.2061 130.51ZM75.3675 123.618L74.6167 130.041L91.8396 125.657C93.0949 125.095 96.2978 123.395 96.3682 122.106L94.7257 117.055C94.538 117.242 94.2447 117.582 93.9514 117.934C93.1653 118.86 92.0977 120.137 90.9245 120.969C89.458 122.024 87.745 122.012 87.5573 122.012L75.3675 123.618Z" fill="#3E3E3E"/>
<path d="M72.5636 123.501C72.5636 123.501 71.32 130.627 71.7541 131.494C72.1882 132.362 75.3207 131.237 75.3207 131.237L76.0598 124.321L72.5636 123.501Z" fill="#DB4D30"/>
<path d="M72.6459 131.998C72.1532 131.998 71.7543 131.893 71.6017 131.577C71.1559 130.686 72.2705 124.204 72.3995 123.466L72.4347 123.278L76.2712 124.169L75.4968 131.354L75.3913 131.389C75.0158 131.541 73.6432 131.998 72.6459 131.998ZM72.7046 123.712C72.2118 126.56 71.6252 130.838 71.9068 131.424C72.1532 131.916 73.913 131.541 75.1566 131.108L75.8723 124.45L72.7046 123.712Z" fill="#3E3E3E"/>
<path d="M93.2356 122.739C93.2356 122.739 79.4972 120.922 77.2094 120.7C74.9216 120.477 75.3439 119.164 73.3964 118.93C71.4488 118.707 70.6393 117.992 70.6393 117.992L69.2197 122.528C69.2197 122.528 76.5406 125.013 77.4558 125.47C78.3709 125.927 90.3729 131.178 93.7987 130.838C97.2246 130.498 98.257 130.041 98.257 130.041L93.2356 122.739Z" fill="white"/>
<path d="M93.4587 131.037C89.5402 131.037 78.3007 126.091 77.3856 125.634C76.4939 125.189 69.2434 122.727 69.173 122.704L69.0088 122.645L70.5574 117.688L70.7569 117.863C70.7686 117.875 71.5547 118.531 73.4084 118.754C74.3939 118.871 74.8162 119.258 75.2269 119.633C75.661 120.032 76.0833 120.407 77.2213 120.524C79.4857 120.747 93.1185 122.552 93.2593 122.563L93.3414 122.575L98.5388 130.123L98.3511 130.205C98.3042 130.229 97.26 130.674 93.8342 131.014C93.7169 131.037 93.5995 131.037 93.4587 131.037ZM69.4429 122.434C70.5574 122.809 76.6934 124.907 77.5381 125.329C78.4415 125.775 90.4084 131.014 93.7873 130.674C96.3332 130.416 97.5416 130.1 97.9874 129.959L93.1302 122.903C92.0157 122.751 79.3566 121.087 77.1862 120.876C75.9308 120.747 75.4381 120.289 74.9922 119.891C74.5933 119.528 74.2414 119.211 73.3732 119.106C71.9301 118.942 71.0971 118.508 70.7334 118.285L69.4429 122.434Z" fill="#3E3E3E"/>
<path d="M93.0596 122.633L97.1424 121.637C97.1424 121.637 99.2308 125.681 99.7939 130.861C99.7939 130.861 94.7725 131.858 94.2915 131.354C93.8105 130.861 92.5903 125.868 93.0596 122.633Z" fill="#DB4D30"/>
<path d="M95.1128 131.67C94.6435 131.67 94.2915 131.623 94.1625 131.483C93.5876 130.885 92.4144 125.833 92.8837 122.61L92.8954 122.493L97.2363 121.438L97.295 121.555C97.3185 121.59 99.4068 125.693 99.9582 130.838L99.9699 131.002L99.8174 131.037C98.9375 131.213 96.5089 131.67 95.1128 131.67ZM93.2239 122.774C92.8133 125.915 93.9748 130.779 94.4206 131.236C94.6787 131.494 97.2833 131.178 99.6062 130.721C99.09 126.208 97.4006 122.551 97.0604 121.848L93.2239 122.774Z" fill="#3E3E3E"/>
<path d="M80.1895 96.2268L75.4496 98.1842L69.9707 93.8944L73.901 93.4138L80.1895 96.2268Z" fill="#DB4D30"/>
<path d="M75.4267 98.3952L69.5254 93.7655L73.925 93.238L80.6241 96.2386L75.4267 98.3952ZM70.417 94.0116L75.4854 97.985L79.7442 96.2268L73.878 93.6014L70.417 94.0116Z" fill="#3E3E3E"/>
<path d="M86.5957 96.1565L91.1009 98.5358L95.8172 93.9413L92.9076 93.074L86.5957 96.1565Z" fill="#DB4D30"/>
<path d="M91.1355 98.7468L86.208 96.1448L92.8954 92.8748L96.1569 93.8476L91.1355 98.7468ZM86.9823 96.1565L91.0769 98.3132L95.4882 94.0234L92.9306 93.2615L86.9823 96.1565Z" fill="#3E3E3E"/>
<path d="M83.3449 121.626C83.2511 121.626 83.1689 121.544 83.1689 121.45V106.518C83.1689 106.424 83.2511 106.342 83.3449 106.342C83.4388 106.342 83.5209 106.424 83.5209 106.518V121.45C83.5209 121.555 83.4388 121.626 83.3449 121.626Z" fill="#3E3E3E"/>
<path d="M83.3227 128.049H82.9707V145.301H83.3227V128.049Z" fill="#3E3E3E"/>
<path d="M82.9231 81.4235C82.9114 81.4235 82.8996 81.4235 82.8762 81.4235C82.6884 81.3884 81.7382 81.154 81.6443 80.6265C81.5739 80.2163 81.6091 80.1108 82.137 78.7747C82.2544 78.4817 82.3951 78.13 82.5594 77.6964C82.5946 77.5909 82.7119 77.544 82.8175 77.5792C82.9231 77.6143 82.97 77.7315 82.9348 77.837C82.7706 78.2707 82.6298 78.6223 82.5125 78.9153C81.9963 80.228 81.9845 80.2749 82.0432 80.5562C82.0784 80.7555 82.6063 80.9664 82.97 81.0368C83.0756 81.0602 83.146 81.1657 83.1225 81.2712C83.0991 81.3649 83.0169 81.4235 82.9231 81.4235Z" fill="#3E3E3E"/>
<path d="M84.9417 82.8886C85.1529 83.1934 84.097 84.2365 82.8769 84.1779C80.8824 84.0959 80.2606 82.7246 80.7416 82.8183C80.9293 82.8535 81.6567 83.2637 82.8534 83.2989C84.1322 83.334 84.801 82.6894 84.9417 82.8886Z" fill="#3E3E3E"/>
<path d="M77.0456 70.4297C77.0456 70.4297 86.1381 73.0552 90.2561 69.8554C94.3741 66.6557 87.8275 66.5268 83.8972 66.9253C79.9669 67.3355 74.4528 68.1325 77.0456 70.4297Z" fill="#3E3E3E"/>
<path d="M78.9344 68.4137C78.9344 68.4137 72.775 66.9251 74.6756 75.0007C75.0041 76.3837 74.9454 77.0166 75.098 75.8914C75.2739 74.6139 75.9544 72.0705 78.7349 70.2655C79.2864 69.9139 78.9344 68.4137 78.9344 68.4137Z" fill="#3E3E3E"/>
<path d="M98.7967 142.207H64.9844V146.298H98.7967V142.207Z" fill="#3E3E3E"/>
<path d="M69.8886 141.68H69.0908V146.661H69.8886V141.68Z" fill="#DB4D30"/>
<path d="M76.4706 141.762H75.6729V146.743H76.4706V141.762Z" fill="#DB4D30"/>
<path d="M89.8329 141.762H89.0352V146.743H89.8329V141.762Z" fill="#DB4D30"/>
<path d="M96.7793 141.844H95.9814V146.825H96.7793V141.844Z" fill="#DB4D30"/>
<path d="M86.748 141.762H79.1221V146.907H86.748V141.762Z" fill="#F9E8F2"/>
<path d="M85.9032 142.547H80.0605V146.122H85.9032V142.547Z" fill="#3E3E3E"/>
<path d="M92.1096 69.6209V71.4494H73.209V69.6209C73.209 66.1399 75.1096 63.1042 77.9371 61.4868C79.3332 60.6898 80.9405 60.2327 82.6652 60.2327C84.5306 60.2327 86.2787 60.7718 87.7452 61.7095C88.3201 62.0728 88.8598 62.5065 89.3525 62.987C91.0537 64.6748 92.1096 67.0189 92.1096 69.6209Z" fill="#DB4D30"/>
<path d="M87.7339 61.6509L85.2819 71.4494L85.235 71.6252H80.7533L80.7063 71.4494L77.9141 61.4399C79.3102 60.6312 80.9175 60.1741 82.6422 60.1741C84.531 60.1741 86.2674 60.7132 87.7339 61.6509Z" fill="#EAB7C2"/>
<path d="M92.508 72.4925H72.7978C72.3403 72.4925 71.9648 72.1174 71.9648 71.6603V71.59C71.9648 71.1329 72.3403 70.7578 72.7978 70.7578H92.508C92.9655 70.7578 93.341 71.1329 93.341 71.59V71.6603C93.341 72.1174 92.9773 72.4925 92.508 72.4925Z" fill="#DB4D30"/>
<path d="M130.028 156.225C124.643 155.85 119.481 155.686 114.284 156.12L114.46 154.197L114.917 149.122L113.275 155.58L113.11 156.225C112.97 156.237 112.829 156.248 112.688 156.272L110.259 159.12L107.631 157.01C104.628 157.573 101.554 158.382 98.3864 159.507C97.6355 159.776 96.8847 160.058 96.1221 160.351C96.1221 160.351 95.5237 160.491 94.4209 160.702C95.5941 157.034 96.65 153.67 97.5534 150.775C97.7059 150.271 97.8584 149.779 97.9992 149.31C98.1517 148.818 98.2925 148.337 98.4333 147.88C98.7266 146.907 98.9965 145.993 99.2428 145.184C99.6887 143.684 100.017 142.465 100.24 141.598C100.721 139.652 101.214 138.023 101.695 136.675C101.8 136.382 101.894 136.112 102 135.843C102.622 134.214 103.22 133.042 103.748 132.209C105.121 130.041 106.106 130.029 106.13 130.029H106.341L124.197 130.205C124.197 130.205 124.279 130.252 124.42 130.357C124.514 130.428 124.62 130.51 124.749 130.627C124.948 130.803 125.183 131.026 125.441 131.33C125.992 131.963 126.649 132.924 127.306 134.319C127.471 134.671 127.623 135.034 127.787 135.433C128.362 136.886 128.902 138.726 129.313 141.035C129.371 141.387 129.43 141.832 129.489 142.371C129.524 142.676 129.547 143.016 129.571 143.379C129.77 145.958 129.899 149.966 129.993 154.854C130.016 155.299 130.028 155.756 130.028 156.225Z" fill="#3E3E3E"/>
<path d="M120.068 73.5706C120.068 73.5706 115.903 74.4144 112.148 77.8838C108.394 81.3531 108.664 81.5406 109.004 84.5294C109.356 87.5182 109.074 88.3503 106.705 89.2059C105.848 89.5107 105.226 89.9561 104.663 90.9289C104.112 91.9017 104.335 95.371 104.335 95.371L129.923 95.1718C129.923 95.1718 131.366 91.89 130.803 90.3429C129.77 87.5182 127.377 87.1314 128.268 84.3653C128.773 82.9002 130.052 74.2152 120.068 73.5706Z" fill="#3E3E3E"/>
<path d="M103.373 136.358C103.279 136.358 103.208 136.288 103.197 136.206C103.185 136.112 103.255 136.019 103.349 136.007L110.564 135.163C110.658 135.151 110.752 135.222 110.764 135.315C110.776 135.409 110.705 135.503 110.611 135.515L103.396 136.358C103.384 136.358 103.384 136.358 103.373 136.358Z" fill="#A1C5E2"/>
<path d="M121.803 148.548L115.89 155.451L114.623 156.928L114.002 157.655L111.409 160.691L108.593 158.44L102.07 153.248L98.7496 150.599L98.2921 150.236L95.4529 147.962L94.3031 147.048L93.9746 146.79L94.878 145.688L95.1948 145.313L96.1216 144.188L96.9663 143.156L97.2362 142.828L97.3535 142.688L98.8787 140.859L102.246 136.78L102.551 136.405L103.783 134.905L104.029 134.624L105.883 136.065L107.209 137.12L115.902 143.93L116.618 144.493L121.803 148.548Z" fill="white"/>
<path d="M111.432 160.936L93.7285 146.813L104.006 134.377L122.062 148.524L111.432 160.936ZM94.2213 146.754L111.374 160.444L121.546 148.571L104.053 134.87L94.2213 146.754Z" fill="#3E3E3E"/>
<path d="M101.355 140.461C100.334 144.516 99.7003 146.86 99.8176 147.505C99.9702 148.395 101.554 151.337 101.566 152.052C101.577 152.486 99.7942 150.974 99.712 150.927L99.3953 151.654C99.3953 151.654 98.8908 151.935 98.574 151.701C98.3042 151.49 98.269 150.974 97.9991 150.822C97.9757 150.81 97.3891 150.751 97.2014 150.658C96.9667 150.529 96.908 149.978 96.7673 149.779C96.6617 149.638 96.1337 149.708 95.9577 149.509C95.6762 149.192 95.9225 148.747 95.7231 148.524C95.5354 148.313 95.113 148.548 94.7963 148.161C94.4912 147.786 96.6382 145.946 96.7321 145.43C97.084 143.625 97.1427 134.717 99.1724 131.811C101.214 128.916 103.021 133.874 101.355 140.461Z" fill="white"/>
<path d="M101.496 152.31C101.273 152.31 100.874 152.076 99.8063 151.22C99.7945 151.22 99.7945 151.208 99.7828 151.208L99.5364 151.783L99.4895 151.806C99.466 151.818 98.8794 152.146 98.4805 151.841C98.3163 151.712 98.2224 151.513 98.152 151.325C98.0933 151.185 98.0347 151.044 97.9526 150.986C97.9291 150.986 97.9056 150.974 97.8704 150.974C97.5889 150.939 97.2955 150.892 97.143 150.81C96.9436 150.704 96.8497 150.423 96.7676 150.177C96.7324 150.06 96.6972 149.942 96.6503 149.884C96.6151 149.86 96.4978 149.849 96.4156 149.837C96.2162 149.814 95.9815 149.778 95.8408 149.626C95.6413 149.403 95.6413 149.145 95.653 148.934C95.653 148.806 95.653 148.688 95.6178 148.641C95.5826 148.606 95.5005 148.595 95.3949 148.595C95.1955 148.583 94.9139 148.559 94.691 148.278C94.4329 147.962 94.9022 147.423 95.7352 146.497C96.0989 146.086 96.5564 145.582 96.5916 145.407C96.6737 144.961 96.7441 144.035 96.838 142.875C97.1078 139.312 97.5185 133.92 99.0671 131.717C99.7828 130.697 100.393 130.697 100.78 130.873C102.141 131.494 102.798 135.596 101.566 140.496L101.261 141.715C100.463 144.856 99.9353 146.93 100.029 147.458C100.1 147.856 100.487 148.735 100.874 149.591C101.343 150.634 101.777 151.619 101.789 152.04C101.789 152.146 101.742 152.228 101.66 152.275C101.578 152.298 101.543 152.31 101.496 152.31ZM99.6303 150.681L99.7945 150.775C99.818 150.786 99.8532 150.81 100.017 150.95C100.803 151.572 101.191 151.829 101.367 151.923C101.273 151.49 100.874 150.575 100.51 149.755C100.1 148.841 99.7241 147.985 99.642 147.54C99.5364 146.93 100.017 145.055 100.874 141.644L101.179 140.425C102.434 135.456 101.683 131.705 100.592 131.201C100.111 130.978 99.6303 131.471 99.3252 131.928C97.8352 134.049 97.4129 139.593 97.1665 142.91C97.0726 144.082 97.0022 145.008 96.9201 145.477C96.8732 145.735 96.533 146.122 95.9815 146.731C95.5944 147.153 94.9608 147.868 94.9608 148.067C95.0899 148.22 95.2424 148.231 95.4067 148.243C95.5592 148.255 95.7352 148.266 95.8642 148.407C96.005 148.559 95.9933 148.759 95.9933 148.934C95.9933 149.11 95.9815 149.263 96.0989 149.38C96.1458 149.438 96.3335 149.462 96.4626 149.485C96.6503 149.509 96.838 149.544 96.9319 149.673C97.0022 149.767 97.0492 149.907 97.0961 150.06C97.143 150.212 97.2252 150.446 97.3073 150.493C97.4129 150.552 97.7766 150.599 97.9174 150.622C98.0464 150.634 98.0699 150.646 98.1051 150.657C98.3045 150.763 98.3984 150.974 98.4805 151.173C98.5392 151.325 98.6096 151.466 98.7034 151.548C98.8794 151.677 99.161 151.572 99.2783 151.513L99.6303 150.681Z" fill="#3E3E3E"/>
<path d="M131.424 122.985C131.295 123.102 131.542 123.313 127.47 128.67C124.972 131.963 123.528 133.897 122.977 134.202C121.71 134.893 119.997 136.065 120.232 136.171L126.638 137.179C126.638 137.179 126.133 135.714 126.473 135.315C127.646 133.932 134.874 125.435 135.859 122.059C136.845 118.684 131.424 122.985 131.424 122.985Z" fill="white"/>
<path d="M126.896 137.39L120.161 136.323C120.091 136.288 120.032 136.218 120.032 136.136C120.032 136.03 120.02 135.89 121.041 135.175C121.604 134.788 122.308 134.343 122.883 134.026C123.352 133.768 124.631 132.08 126.567 129.537L127.318 128.541C129.547 125.622 130.849 123.747 131.19 122.985C131.213 122.927 131.236 122.88 131.283 122.833L131.295 122.821C131.893 122.352 134.897 120.043 135.847 120.676C136.164 120.887 136.223 121.344 136 122.071C135.049 125.271 128.55 133.077 126.579 135.386C126.391 135.597 126.591 136.523 126.778 137.085L126.896 137.39ZM120.502 136.03L126.379 136.956C126.239 136.464 126.027 135.55 126.332 135.198C128.292 132.901 134.756 125.142 135.683 122.012C135.836 121.473 135.836 121.122 135.671 121.004C135.096 120.618 132.844 122.094 131.542 123.114C131.542 123.126 131.53 123.138 131.518 123.161C131.154 123.946 129.84 125.833 127.6 128.775L126.849 129.771C124.749 132.538 123.587 134.073 123.047 134.366C122.038 134.905 120.9 135.679 120.502 136.03Z" fill="#3E3E3E"/>
<path d="M122.051 88.7256C122.051 88.7256 121.687 97.5395 122.027 97.9966C123.177 99.5789 126.591 100.985 127.377 101.185C128.151 101.396 114.636 106.553 114.636 106.553L106.963 101.642L110.447 100.376C110.447 100.376 112.747 100.071 113.674 99.1101C114.601 98.1607 115.046 89.1944 115.046 89.1944L122.051 88.7256Z" fill="white"/>
<path d="M114.612 106.752L106.563 101.595L110.423 100.2C110.447 100.2 112.676 99.8835 113.544 98.9927C114.189 98.3246 114.694 92.769 114.87 89.1825L114.882 89.0301L122.238 88.5378L122.226 88.7371C122.085 92.054 121.956 97.4807 122.179 97.9144C123.258 99.3912 126.532 100.798 127.423 101.032C127.541 101.067 127.588 101.149 127.588 101.22C127.599 101.407 127.611 101.63 121.1 104.232C117.932 105.498 114.729 106.717 114.694 106.728L114.612 106.752ZM107.35 101.688L114.647 106.365C119.011 104.701 125.793 102.017 127.06 101.29C125.957 100.915 122.977 99.6139 121.886 98.1136C121.546 97.6565 121.78 91.2102 121.862 88.9246L115.21 89.37C115.14 90.8234 114.694 98.3129 113.791 99.2505C112.864 100.2 110.717 100.528 110.482 100.563L107.35 101.688Z" fill="#3E3E3E"/>
<path d="M121.933 90.1672C122.965 89.4757 124.784 88.0926 124.843 86.733C124.89 85.3734 123.341 85.5375 122.872 85.7485C122.555 85.8891 122.883 79.1029 122.883 79.1029L112.371 78.5403C112.371 78.5403 110.811 84.3772 111.186 88.1161C111.562 91.8784 113.286 92.8512 116.032 92.9684C117.393 93.027 118.449 92.734 119.293 92.3003L121.933 90.1672Z" fill="white"/>
<path d="M116.371 93.1677C116.254 93.1677 116.137 93.1677 116.02 93.156C114.436 93.0857 113.391 92.7458 112.605 92.0425C111.714 91.2573 111.198 89.9797 111.01 88.1396C110.634 84.4007 112.183 78.5638 112.195 78.5052L112.23 78.3645L123.059 78.9388L123.047 79.1146C122.918 81.8338 122.848 84.8578 122.953 85.5258C123.329 85.4086 124.033 85.3266 124.525 85.6665C124.76 85.8189 125.03 86.1353 125.006 86.7331C124.96 88.1513 123.118 89.5812 122.026 90.3079C121.944 90.3665 121.839 90.343 121.78 90.261C121.721 90.179 121.745 90.0735 121.827 90.0149C122.859 89.3233 124.608 87.9872 124.654 86.7214C124.666 86.358 124.561 86.1119 124.326 85.9595C123.915 85.6899 123.211 85.7837 122.93 85.9126C122.871 85.9361 122.789 85.9361 122.73 85.9009C122.613 85.8189 122.472 85.7251 122.566 82.3613C122.601 81.0485 122.66 79.7475 122.672 79.2787L112.488 78.7396C112.253 79.6421 111.01 84.764 111.35 88.1161C111.726 91.8667 113.415 92.6989 116.02 92.8161C117.193 92.863 118.26 92.652 119.199 92.1715C119.281 92.1246 119.387 92.1597 119.434 92.2535C119.481 92.3356 119.445 92.441 119.351 92.4879C118.483 92.9333 117.474 93.1677 116.371 93.1677Z" fill="#3E3E3E"/>
<path d="M129.125 101.806C128.256 101.044 124.842 100.106 124.842 100.106L119.363 101.302L117.428 100.528L114.776 100.364L110.212 99.7781C110.212 99.7781 105.144 101.255 104.323 102.919C101.495 108.639 94.6787 144.61 94.6787 144.61L100.791 145.336L105.742 123.36L106.141 129.994L124.396 130.709L125.769 116.035L129.488 121.532L124.08 131.916L127.811 135.397L139.12 120.055C139.097 120.067 133.031 105.252 129.125 101.806Z" fill="white"/>
<path d="M100.92 145.524L94.5029 144.762L94.5381 144.598C94.8197 143.133 101.401 108.545 104.205 102.861C105.05 101.149 109.978 99.6961 110.189 99.6375L110.224 99.6257H110.259L114.823 100.212L117.486 100.376L119.399 101.138L124.866 99.9539L124.901 99.9656C125.042 100.001 128.374 100.915 129.254 101.689C133.137 105.123 139.015 119.399 139.273 120.008L139.308 120.09L139.25 120.16L127.834 135.643L123.892 131.951L124.455 130.873H124.408L106.012 130.146L105.672 124.497L100.92 145.524ZM94.8784 144.481L100.674 145.172L105.836 122.235L106.294 129.842L124.256 130.545L125.652 115.578L129.664 121.532L124.268 131.893L127.776 135.175L138.921 120.055C138.428 118.859 132.703 105.181 129.031 101.935C128.257 101.243 125.218 100.388 124.842 100.282L119.364 101.478L117.404 100.704L114.776 100.54L110.236 99.9539C109.802 100.083 105.226 101.489 104.475 103.001C101.789 108.428 95.3828 141.797 94.8784 144.481ZM125.887 116.504L124.561 130.639L129.289 121.555L125.887 116.504Z" fill="#3E3E3E"/>
<path d="M113.462 85.3733C113.45 85.3733 113.439 85.3733 113.427 85.3733C113.263 85.3499 113.157 85.2092 113.169 85.0451L113.216 84.7053C113.239 84.5412 113.38 84.4357 113.544 84.4474C113.709 84.4709 113.814 84.6115 113.802 84.7756L113.755 85.1155C113.732 85.2678 113.603 85.3733 113.462 85.3733Z" fill="#3E3E3E"/>
<path d="M118.131 85.5843C118.119 85.5843 118.108 85.5843 118.096 85.5843C117.932 85.5608 117.826 85.4202 117.838 85.2561L117.885 84.9162C117.908 84.7521 118.049 84.6466 118.213 84.6584C118.377 84.6818 118.483 84.8224 118.471 84.9865L118.424 85.3264C118.401 85.4788 118.272 85.5843 118.131 85.5843Z" fill="#3E3E3E"/>
<path d="M119.692 84.0725C119.657 84.0725 119.633 84.0607 119.598 84.049C118.754 83.5216 117.815 83.756 117.803 83.756C117.709 83.7794 117.616 83.7208 117.592 83.6271C117.569 83.5333 117.627 83.4395 117.721 83.4161C117.768 83.4044 118.812 83.1465 119.786 83.7443C119.868 83.7912 119.892 83.9084 119.845 83.9904C119.809 84.049 119.751 84.0725 119.692 84.0725Z" fill="#3E3E3E"/>
<path d="M114.988 87.6942C114.694 87.6942 113.709 87.4012 113.545 87.1902C113.474 87.1082 113.474 87.0027 113.533 86.9206C113.92 86.4049 114.225 85.9478 114.436 85.1508C114.612 84.471 114.683 84.0607 114.647 83.8615C114.624 83.756 114.6 83.7443 114.425 83.674C114.401 83.6622 114.366 83.6505 114.342 83.6388C113.885 83.463 112.923 83.6271 112.583 83.6974C112.489 83.7208 112.395 83.6622 112.371 83.5685C112.348 83.4747 112.407 83.3809 112.5 83.3575C112.559 83.3458 113.814 83.0645 114.46 83.3106C114.483 83.3223 114.518 83.334 114.542 83.334C115.07 83.5216 115.152 83.7677 114.776 85.2211C114.565 86.0298 114.249 86.5221 113.897 87.0144C114.119 87.1316 114.765 87.3191 114.952 87.3426C114.964 87.3426 114.976 87.3308 114.988 87.3308C115.082 87.3308 115.164 87.4012 115.175 87.4949C115.175 87.577 115.128 87.6473 115.058 87.6707C115.035 87.6825 115.011 87.6942 114.988 87.6942Z" fill="#3E3E3E"/>
<path d="M127.318 137.39C127.307 137.39 127.295 137.39 127.295 137.39L118.496 136.03C118.402 136.018 118.331 135.925 118.343 135.831C118.355 135.737 118.449 135.667 118.543 135.679L127.342 137.038C127.436 137.05 127.506 137.144 127.494 137.237C127.483 137.331 127.4 137.39 127.318 137.39Z" fill="#A1C5E2"/>
<path d="M127.107 100.646L123.752 97.8208L116.501 100.481L118.695 103.294L127.107 100.646Z" fill="white"/>
<path d="M108.594 100.294L111.093 97.8208L116.501 100.481L114.343 102.919L108.594 100.294Z" fill="white"/>
<path d="M118.624 103.505L127.494 100.716L123.786 97.6099L116.477 100.282L111.069 97.6333L108.323 100.341L114.389 103.119L116.266 100.985C115.926 104.338 114.131 122.551 114.612 130.006C114.623 130.1 114.694 130.182 114.799 130.182H114.811C114.917 130.17 114.987 130.088 114.987 129.982C114.506 122.493 116.336 104.08 116.653 100.95L118.624 103.505ZM123.716 98.0318L126.743 100.563L118.765 103.072L116.794 100.563L123.716 98.0318ZM114.295 102.732L108.875 100.247L111.127 98.0201L116.242 100.528L114.295 102.732Z" fill="#3E3E3E"/>
<path d="M113.368 88.4912C113.192 88.6787 114.084 89.4522 114.8 89.4522C116.618 89.4522 117.181 88.163 116.771 88.3622C116.618 88.4443 115.703 88.8545 114.8 88.7842C113.65 88.6904 113.556 88.2685 113.368 88.4912Z" fill="#3E3E3E"/>
<path d="M111.879 78.552C111.879 78.552 121.71 80.8727 122.673 85.7603C122.673 85.7603 123.306 85.6079 123.717 85.7251C124.245 85.8775 124.409 86.0884 124.409 86.0884L125.289 78.3411L111.879 78.552Z" fill="#3E3E3E"/>
<path d="M129.054 78.0011V79.8295H110.153V78.0011C110.153 74.52 112.054 71.4844 114.87 69.8669C116.266 69.0699 117.873 68.6128 119.598 68.6128C121.463 68.6128 123.211 69.1519 124.678 70.0896C125.253 70.4529 125.792 70.8866 126.285 71.3672C127.998 73.0549 129.054 75.3991 129.054 78.0011Z" fill="#DB4D30"/>
<path d="M124.678 70.031C124.678 70.031 117.17 72.5978 115.011 79.9467C114.8 80.6851 111.784 80.6968 111.608 79.7123C110.67 74.4966 114.87 69.82 114.87 69.82C116.266 69.0113 117.873 68.5542 119.598 68.5542C121.475 68.5542 123.212 69.0933 124.678 70.031Z" fill="#EAB7C2"/>
<path d="M128.444 81.0249H108.734C108.277 81.0249 107.901 80.6499 107.901 80.1928V80.1224C107.901 79.6653 108.277 79.2903 108.734 79.2903H128.444C128.902 79.2903 129.277 79.6653 129.277 80.1224V80.1928C129.277 80.6499 128.902 81.0249 128.444 81.0249Z" fill="#DB4D30"/>
<path d="M105.742 123.536C105.649 123.536 105.578 123.466 105.578 123.372C105.719 117.64 107.15 110.936 107.162 110.878C107.185 110.795 107.268 110.737 107.35 110.76C107.432 110.784 107.49 110.866 107.467 110.948C107.455 111.018 106.024 117.687 105.883 123.384C105.907 123.466 105.836 123.536 105.742 123.536Z" fill="#3E3E3E"/>
</g>
<defs>
<clipPath id="clip0">
<rect width="221" height="166" fill="white"/>
</clipPath>
</defs>
</svg>
