<svg width="88" height="83" viewBox="0 0 88 83" fill="none" xmlns="http://www.w3.org/2000/svg">
<g style="mix-blend-mode:multiply">
<path d="M70.5746 71.17C63.0146 70.17 61.9046 61.1 61.9046 61.1C61.9046 61.1 52.9646 58.02 45.7546 55.95L58.8246 48.37L45.2546 40.37L11.5846 59.92C8.14462 61.92 5.20461 65.04 6.31461 67.49L0.664612 70.77C0.462863 70.8842 0.29505 71.0499 0.178284 71.2502C0.0615173 71.4505 0 71.6782 0 71.91C0 72.1418 0.0615173 72.3695 0.178284 72.5698C0.29505 72.7701 0.462863 72.9358 0.664612 73.05C1.13739 73.323 1.67372 73.4667 2.21964 73.4667C2.76555 73.4667 3.30185 73.323 3.77463 73.05L9.27463 69.87C11.4228 70.8601 13.7771 71.3206 16.1401 71.2127C18.503 71.1048 20.8056 70.4317 22.8546 69.25L29.9846 65.12C34.6646 66.61 41.6946 68.57 43.7646 69.43C47.0046 70.77 54.5246 76.85 56.9446 77.97C59.3646 79.09 77.1546 80.38 78.7746 81.92C80.3946 83.46 84.5446 82.3 84.5446 82.3V76.19C80.2346 73.6755 75.4994 71.9739 70.5746 71.17Z" fill="#CCC0BC"/>
</g>
<path d="M33.4543 37.58C33.3646 37.5391 33.2876 37.4748 33.2313 37.3939C33.175 37.3129 33.1415 37.2184 33.1343 37.12V14.55H35.3243V37.16C35.3134 37.256 35.2784 37.3477 35.2224 37.4264C35.1664 37.5051 35.0914 37.5683 35.0043 37.61C34.7608 37.7237 34.4945 37.7801 34.2258 37.7749C33.9571 37.7697 33.6932 37.703 33.4543 37.58Z" fill="url(#paint0_linear)"/>
<path d="M26.1145 7.48L22.5845 5.47L32.0645 0L35.5945 2.00999L26.1145 7.48Z" fill="#F3F3F3"/>
<path d="M26.1145 26.5L22.5845 24.49V5.46997L26.1145 7.47997V26.5Z" fill="#AFABAB"/>
<path d="M26.1143 26.5L35.5943 21.03V2.01001L26.1143 7.48001V26.5Z" fill="#DFDBDB"/>
<path d="M27.7344 9.79997V13.79L30.0144 12.48L31.8144 11.44L32.7644 10.89L33.9644 10.2V6.20996L32.5844 7.00996L30.7744 8.04997L29.8344 8.59996L28.0244 9.63997L27.7344 9.79997Z" fill="#77A0BB"/>
<path d="M27.7344 18.9299V21.58L33.9644 17.9899V15.33L27.7344 18.9299Z" fill="#FADA51"/>
<path d="M30.7744 8.05002L32.7644 10.89L33.9644 10.2V8.99001L32.5844 7.01001L30.7744 8.05002Z" fill="#90B1C7"/>
<path d="M28.0244 9.63998L30.0144 12.48L31.8144 11.44L29.8344 8.59998L28.0244 9.63998Z" fill="#90B1C7"/>
<path d="M33.5144 9.99997V6.46997L33.9644 6.20996V10.2L27.7344 13.79V13.34L33.5144 9.99997Z" fill="#C8C2C2"/>
<path d="M49.7647 22.81C49.7647 22.29 49.6947 21.29 49.2447 21.03C49.0147 20.9 48.5147 21.25 48.3647 21.34L20.0447 37.86C20.0447 37.86 19.8447 37.97 19.8447 39.28L20.0447 40.53L49.5147 23.34C49.6021 23.2842 49.672 23.2048 49.7162 23.111C49.7604 23.0172 49.7772 22.9129 49.7647 22.81Z" fill="url(#paint1_linear)"/>
<path d="M24.3347 36.3101C24.2451 36.2717 24.1679 36.2094 24.1114 36.13C24.055 36.0506 24.0215 35.9572 24.0146 35.8601V25.3101L26.1147 26.5101H26.2047V35.9101C26.1957 36.0066 26.1614 36.0991 26.1052 36.1781C26.049 36.2572 25.9729 36.3199 25.8846 36.3601C25.6408 36.4753 25.3731 36.5308 25.1036 36.5221C24.8341 36.5134 24.5705 36.4407 24.3347 36.3101Z" fill="url(#paint2_linear)"/>
<path d="M26.2044 26.4601V27.0401C26.1936 27.136 26.1585 27.2277 26.1025 27.3064C26.0466 27.3851 25.9715 27.4483 25.8844 27.4901C25.6438 27.6106 25.3785 27.6734 25.1094 27.6734C24.8403 27.6734 24.575 27.6106 24.3344 27.4901C24.2545 27.4531 24.1846 27.3974 24.1307 27.3278C24.0767 27.2582 24.0403 27.1767 24.0244 27.0901V25.3101L26.1144 26.5101L26.2044 26.4601Z" fill="#8D8D8D"/>
<path d="M42.0042 36.47C41.9882 36.1857 41.9056 35.9091 41.7632 35.6624C41.6208 35.4158 41.4225 35.2061 41.1842 35.05C41.1006 34.9915 41.0035 34.9553 40.902 34.9448C40.8005 34.9343 40.698 34.9499 40.6042 34.99L12.2742 51.52C12.2742 51.52 12.0742 51.63 12.0742 52.94L12.2742 54.19L41.7542 37C41.84 36.9426 41.9085 36.863 41.9525 36.7696C41.9966 36.6763 42.0144 36.5727 42.0042 36.47Z" fill="url(#paint3_linear)"/>
<path d="M39.3443 38.92L42.3343 38.63L36.3542 35.17L33.3643 35.46L39.3443 38.92Z" fill="#8A8A8A"/>
<path d="M39.3443 53.6601V38.9201L33.3643 35.4601V50.2101L39.3443 53.6601Z" fill="#58544D"/>
<path d="M42.3342 38.63V53.37L39.3442 53.66V38.92L42.3342 38.63Z" fill="#424242"/>
<path d="M26.9845 65.24L35.1845 60.51L26.0345 55.23L17.8345 59.96L26.9845 65.24Z" fill="#CC952A"/>
<path d="M22.4546 59.8V53.25H31.4546V59.84C31.4122 60.2333 31.2683 60.6089 31.0368 60.9297C30.8054 61.2506 30.4945 61.5057 30.1346 61.67C29.1486 62.1683 28.0593 62.4279 26.9546 62.4279C25.8498 62.4279 24.7606 62.1683 23.7746 61.67C23.4048 61.5085 23.0863 61.2489 22.8536 60.9192C22.6209 60.5896 22.4829 60.2025 22.4546 59.8Z" fill="url(#paint4_linear)"/>
<path d="M23.7043 56.05C24.6902 56.5483 25.7795 56.8079 26.8843 56.8079C27.989 56.8079 29.0783 56.5483 30.0642 56.05C31.8242 55.05 31.8242 53.39 30.0642 52.38C29.0794 51.8778 27.9897 51.616 26.8843 51.616C25.7788 51.616 24.6891 51.8778 23.7043 52.38C21.9643 53.4 21.9543 55.04 23.7043 56.05Z" fill="#C2782F"/>
<path d="M26.9845 65.95V65.24L17.8345 59.96V60.67L26.9845 65.95Z" fill="#C18000"/>
<path d="M35.1844 60.51V61.22L26.9844 65.95V65.24L35.1844 60.51Z" fill="#AB5E16"/>
<path d="M40.9544 49.6399C40.8553 47.9198 40.3507 46.2476 39.4817 44.7599C38.6127 43.2721 37.404 42.0111 35.9544 41.0799C35.4512 40.7152 34.8601 40.4906 34.2417 40.4291C33.6233 40.3676 32.9996 40.4714 32.4344 40.7299L22.9844 46.2499L30.1344 58.2499L39.4544 52.8499C39.9737 52.5029 40.3881 52.0202 40.6525 51.4543C40.9169 50.8884 41.0213 50.261 40.9544 49.6399Z" fill="url(#paint5_linear)"/>
<g style="mix-blend-mode:multiply">
<path d="M27.5444 43.5701L32.3244 40.8201L32.9744 41.1501C34.883 42.3917 36.4723 44.0653 37.6137 46.0354C38.7552 48.0055 39.4166 50.2168 39.5444 52.4901C39.5444 52.6001 39.5444 52.6901 39.5444 52.7901L39.4644 52.8501L34.7144 55.5701L27.5444 43.5701Z" fill="#E5BD52"/>
</g>
<path d="M38.8642 51.6C38.7467 49.5277 38.1422 47.5123 37.0996 45.7174C36.0571 43.9226 34.606 42.3989 32.8642 41.27C31.2042 40.27 29.8642 40.15 28.7942 40.77L28.0342 41.22L36.9742 55.52L37.2242 55.41C38.3442 54.81 38.8642 53.54 38.8642 51.6Z" fill="url(#paint6_linear)"/>
<path d="M38.354 51.9299C38.354 55.7299 35.674 57.26 32.354 55.35C30.6108 54.2201 29.1589 52.6948 28.1164 50.8981C27.0738 49.1014 26.47 47.084 26.354 45.0099C26.354 41.2199 29.034 39.69 32.354 41.6C34.0959 42.7288 35.5469 44.2525 36.5894 46.0474C37.632 47.8422 38.2365 49.8576 38.354 51.9299Z" fill="#C18000"/>
<path d="M38.0241 51.99C37.9073 49.9832 37.3196 48.0322 36.3085 46.2949C35.2973 44.5575 33.8912 43.0828 32.2041 41.99C30.5941 41.06 29.1341 40.99 28.0841 41.57L16.9341 48L25.3341 62.06L36.2641 55.8C37.3541 55.17 38.0241 53.87 38.0241 51.99Z" fill="url(#paint7_linear)"/>
<g style="mix-blend-mode:multiply">
<path d="M16.9341 47.96L25.3341 62.02L29.6241 59.56C29.707 59.1182 29.7472 58.6695 29.7441 58.22C29.6175 55.9452 28.9555 53.7325 27.8121 51.762C26.6687 49.7914 25.0761 48.1187 23.1641 46.88C22.3183 46.3557 21.3569 46.0467 20.3641 45.98L16.9341 47.96Z" fill="#E5BD52"/>
</g>
<path d="M26.6642 58.53C26.6642 62.22 24.0542 63.71 20.8442 61.85C19.1568 60.7566 17.75 59.2818 16.7373 57.5448C15.7246 55.8078 15.1344 53.8571 15.0142 51.85C15.0142 48.16 17.6242 46.67 20.8442 48.53C22.5292 49.6251 23.9336 51.1004 24.9444 52.8373C25.9552 54.5741 26.5443 56.524 26.6642 58.53Z" fill="#AF8300"/>
<path d="M29.0941 58.25C28.9625 55.9032 28.279 53.6205 27.0992 51.5875C25.9193 49.5545 24.2765 47.8286 22.3041 46.55C20.4241 45.47 18.7241 45.3601 17.5041 46.0701L16.9141 46.45L27.0341 62.64C28.3041 61.99 29.0941 60.47 29.0941 58.25Z" fill="url(#paint8_linear)"/>
<path d="M28.5842 58.61C28.5842 62.91 25.5842 64.61 21.8042 62.48C19.8318 61.2014 18.1889 59.4755 17.0091 57.4425C15.8293 55.4095 15.1458 53.1268 15.0142 50.78C15.0142 46.48 18.0142 44.78 21.8042 46.91C23.7747 48.1897 25.4156 49.9161 26.5937 51.949C27.7717 53.9819 28.4537 56.264 28.5842 58.61Z" fill="#C18000"/>
<path d="M28.324 58.6499C28.1943 56.3038 27.5127 54.0214 26.3346 51.9884C25.1565 49.9553 23.5151 48.229 21.544 46.9499C19.664 45.8699 17.964 45.76 16.734 46.47L16.144 46.85L26.274 63.05C27.544 62.36 28.324 60.8399 28.324 58.6499Z" fill="url(#paint9_linear)"/>
<path d="M27.8244 58.98C27.8244 63.28 24.8244 64.98 21.0444 62.85C19.072 61.5714 17.4292 59.8455 16.2493 57.8125C15.0695 55.7795 14.386 53.4968 14.2544 51.15C14.2544 46.85 17.2544 45.15 21.0444 47.28C23.0116 48.5632 24.65 50.2904 25.8276 52.3226C27.0053 54.3548 27.6892 56.6351 27.8244 58.98Z" fill="#969696"/>
<g style="mix-blend-mode:multiply">
<path d="M16.4543 48.25C16.3947 48.2939 16.3265 48.3246 16.2542 48.34C16.1741 48.3496 16.0932 48.332 16.0243 48.29C15.9044 48.2104 15.8048 48.1038 15.7336 47.9788C15.6624 47.8538 15.6215 47.7137 15.6143 47.57C15.6183 47.5071 15.6376 47.4461 15.6705 47.3923C15.7033 47.3384 15.7487 47.2933 15.8028 47.2609C15.8568 47.2285 15.918 47.2096 15.981 47.206C16.0439 47.2023 16.1068 47.214 16.1642 47.24C16.2961 47.5656 16.3933 47.9041 16.4543 48.25Z" fill="#D2D1D0"/>
</g>
<path d="M16.6444 47.88C16.6353 47.7369 16.5925 47.598 16.5195 47.4747C16.4465 47.3513 16.3454 47.2469 16.2244 47.17C16.1807 47.1435 16.1305 47.1295 16.0794 47.1295C16.0283 47.1295 15.9782 47.1435 15.9344 47.17L15.8444 47.23L15.7544 47.28L16.3744 48.28L16.5144 48.19C16.5656 48.1582 16.6056 48.1113 16.6289 48.0557C16.6522 48.0002 16.6576 47.9388 16.6444 47.88Z" fill="url(#paint10_linear)"/>
<path d="M16.4543 47.99C16.4543 48.25 16.2743 48.3599 16.0443 48.2199C15.9246 48.1425 15.825 48.0378 15.7538 47.9143C15.6825 47.7909 15.6415 47.6523 15.6343 47.5099C15.6343 47.2499 15.8143 47.1499 16.0443 47.2799C16.164 47.3574 16.2636 47.4621 16.3348 47.5855C16.4061 47.709 16.4471 47.8476 16.4543 47.99Z" fill="#A1A09F"/>
<g style="mix-blend-mode:multiply">
<path d="M24.6545 51.66C24.595 51.7038 24.5268 51.7345 24.4545 51.7499C24.4148 51.7582 24.3738 51.7579 24.3342 51.7493C24.2946 51.7407 24.2572 51.7239 24.2245 51.6999C24.1048 51.6225 24.0052 51.5178 23.9339 51.3943C23.8626 51.2709 23.8217 51.1323 23.8145 50.99C23.8185 50.927 23.8379 50.866 23.8707 50.8122C23.9035 50.7583 23.9489 50.7133 24.003 50.6808C24.0571 50.6484 24.1182 50.6295 24.1812 50.6259C24.2441 50.6223 24.307 50.6339 24.3645 50.66C24.4968 50.9819 24.5941 51.3172 24.6545 51.66Z" fill="#D2D1D0"/>
</g>
<path d="M24.8944 51.33C24.8853 51.1869 24.8425 51.0481 24.7695 50.9247C24.6965 50.8013 24.5954 50.6969 24.4744 50.62C24.4315 50.5912 24.3811 50.5758 24.3294 50.5758C24.2778 50.5758 24.2273 50.5912 24.1844 50.62H24.0944L24.0044 50.68L24.6244 51.68L24.7644 51.59C24.8086 51.5636 24.8443 51.5251 24.8674 51.479C24.8904 51.4329 24.8998 51.3812 24.8944 51.33Z" fill="url(#paint11_linear)"/>
<path d="M24.7143 51.44C24.7143 51.7 24.5243 51.8 24.3043 51.67C24.1833 51.5931 24.0822 51.4887 24.0092 51.3654C23.9362 51.242 23.8934 51.1031 23.8843 50.96C23.8843 50.7 24.0743 50.59 24.3043 50.72C24.4231 50.8007 24.5218 50.9076 24.5929 51.0324C24.664 51.1572 24.7055 51.2967 24.7143 51.44Z" fill="#A1A09F"/>
<path d="M26.6641 58.53C26.5442 56.524 25.9552 54.5742 24.9443 52.8373C23.9335 51.1005 22.5291 49.6252 20.8441 48.53C19.2341 47.6 17.7741 47.53 16.7141 48.11L10.2041 51.89L18.5941 65.94L24.9041 62.34C25.9841 61.71 26.6641 60.41 26.6641 58.53Z" fill="url(#paint12_linear)"/>
<path d="M8.28436 55.7C8.40424 57.706 8.99331 59.6558 10.0041 61.3927C11.015 63.1295 12.4194 64.6048 14.1044 65.7C14.5837 65.9802 15.0982 66.1954 15.6344 66.34C16.3708 66.6221 17.1886 66.603 17.911 66.2867C18.6334 65.9705 19.2022 65.3824 19.4944 64.65C19.7977 63.9325 19.9443 63.1586 19.9244 62.38C19.8076 60.3732 19.2199 58.4222 18.2088 56.6848C17.1976 54.9475 15.7915 53.4727 14.1044 52.38C11.5144 50.88 9.32436 51.55 8.56436 53.81C8.45314 54.1338 8.37935 54.4693 8.34439 54.81C8.30211 55.1047 8.28203 55.4022 8.28436 55.7Z" fill="#969696"/>
<path d="M8.07422 56.55C8.17681 58.3776 8.70938 60.1553 9.6286 61.7383C10.5478 63.3213 11.8277 64.6649 13.3642 65.66C14.0475 66.0888 14.8287 66.3366 15.6342 66.38C16.28 66.4149 16.9174 66.2202 17.4335 65.8304C17.9496 65.4406 18.3112 64.8807 18.4542 64.25C18.5965 63.7457 18.6672 63.2239 18.6642 62.7C18.5604 60.8738 18.0283 59.0976 17.1111 57.515C16.1939 55.9325 14.9172 54.5879 13.3842 53.59C11.2742 52.38 9.45423 52.74 8.61423 54.3C8.50882 54.483 8.42493 54.6777 8.36423 54.88C8.17876 55.4175 8.08084 55.9814 8.07422 56.55Z" fill="#BDBDBD"/>
<g style="mix-blend-mode:screen">
<path d="M8.68447 57.61C8.75637 59.0085 9.1558 60.3706 9.85058 61.5865C10.5454 62.8024 11.5161 63.838 12.6845 64.61C13.2128 64.9365 13.8144 65.1256 14.4345 65.16C14.9328 65.1823 15.4228 65.0266 15.8167 64.7206C16.2107 64.4146 16.4828 63.9783 16.5845 63.49C16.6935 63.1028 16.7473 62.7022 16.7445 62.3C16.6667 60.8959 16.2584 59.5301 15.5529 58.3137C14.8474 57.0973 13.8646 56.0647 12.6845 55.3C11.0745 54.36 9.68447 54.64 9.02447 55.84C8.94742 55.9838 8.88381 56.1344 8.83447 56.29C8.71124 56.7185 8.66055 57.1647 8.68447 57.61Z" fill="#7D7D7D"/>
</g>
<g style="mix-blend-mode:screen">
<path d="M26.3442 56.1701L19.6242 60.0901C19.6242 60.0901 18.3242 60.1601 17.2242 60.0901C15.0529 59.9143 12.95 59.2475 11.0742 58.1401C10.0446 57.4404 9.10725 56.6139 8.28418 55.6801C8.3084 55.0417 8.40229 54.408 8.56418 53.7901L8.78418 53.2701C8.78418 53.2701 9.9142 50.9001 13.6142 52.4601C15.5017 53.2808 17.0535 54.7197 18.0142 56.5401L24.8442 52.6201C25.4954 53.7337 25.9996 54.9269 26.3442 56.1701Z" fill="#7D7D7D"/>
</g>
<path d="M18.644 62.6499C18.5402 60.8237 18.0081 59.0476 17.0909 57.465C16.1737 55.8824 14.897 54.5379 13.364 53.5399C11.614 52.5399 10.074 52.6199 9.104 53.5399C10.004 52.1499 11.744 51.87 13.764 53.03C15.2968 54.0272 16.5728 55.3719 17.4885 56.9547C18.4041 58.5376 18.9336 60.3141 19.034 62.14C19.0759 62.6814 19.009 63.2258 18.8373 63.741C18.6655 64.2563 18.3924 64.7319 18.034 65.14C18.4707 64.3852 18.6824 63.5211 18.644 62.6499Z" fill="#969696"/>
<path d="M19.7244 62.78C19.6053 60.7738 19.0166 58.8237 18.0057 57.0867C16.9948 55.3498 15.59 53.8746 13.9044 52.78C11.6944 51.51 9.78443 51.78 8.79443 53.31C9.70443 51.5 11.7344 51.05 14.1044 52.42C15.7916 53.5128 17.1977 54.9876 18.2088 56.7249C19.22 58.4622 19.8077 60.4133 19.9244 62.42C19.9664 63.3995 19.7195 64.3698 19.2144 65.21C19.5734 64.4515 19.7481 63.6189 19.7244 62.78Z" fill="#969696"/>
<g style="mix-blend-mode:multiply">
<path d="M8.07422 56.55C8.17681 58.3776 8.70938 60.1553 9.6286 61.7383C10.5478 63.3213 11.8277 64.665 13.3642 65.66C14.0475 66.0889 14.8287 66.3366 15.6342 66.38C16.3706 66.6622 17.1885 66.643 17.9109 66.3268C18.6333 66.0105 19.2021 65.4225 19.4942 64.69C19.1622 64.511 18.814 64.3636 18.4542 64.25C17.4332 64.777 16.276 64.9809 15.1364 64.8344C13.9968 64.6879 12.9287 64.1981 12.0742 63.43C9.24422 61.18 8.70423 55.88 8.61423 54.3C8.61423 54.05 8.61423 53.9 8.61423 53.86C8.503 54.1838 8.42919 54.5194 8.39423 54.86C8.19642 55.4022 8.08833 55.973 8.07422 56.55Z" fill="#D9D9D9"/>
</g>
<g style="mix-blend-mode:multiply">
<path d="M20.6042 48.18C20.5446 48.2239 20.4765 48.2546 20.4042 48.27C20.3241 48.2796 20.2431 48.262 20.1742 48.22C20.0545 48.1426 19.9549 48.0378 19.8836 47.9144C19.8123 47.7909 19.7714 47.6523 19.7642 47.51C19.7658 47.446 19.7836 47.3836 19.8158 47.3283C19.848 47.2731 19.8937 47.2268 19.9485 47.1939C20.0034 47.161 20.0656 47.1425 20.1295 47.14C20.1935 47.1376 20.257 47.1513 20.3141 47.18C20.4465 47.5019 20.5437 47.8372 20.6042 48.18Z" fill="#D2D1D0"/>
</g>
<path d="M20.8441 47.84C20.835 47.6969 20.7922 47.558 20.7192 47.4346C20.6462 47.3112 20.5451 47.2069 20.4241 47.13C20.3804 47.1035 20.3302 47.0895 20.2791 47.0895C20.228 47.0895 20.1778 47.1035 20.1341 47.13L20.0441 47.19L19.9541 47.24L20.5741 48.24L20.7141 48.1499C20.7653 48.1182 20.8053 48.0713 20.8286 48.0157C20.8519 47.9602 20.8573 47.8987 20.8441 47.84Z" fill="url(#paint13_linear)"/>
<path d="M20.6642 47.9499C20.6642 48.2099 20.4842 48.3199 20.2542 48.1899C20.1343 48.1103 20.0348 48.0037 19.9636 47.8787C19.8924 47.7536 19.8515 47.6136 19.8442 47.4699C19.8442 47.2099 20.0242 47.1099 20.2542 47.2399C20.3739 47.3173 20.4735 47.4221 20.5448 47.5455C20.6161 47.6689 20.657 47.8075 20.6642 47.9499Z" fill="#A1A09F"/>
<g style="mix-blend-mode:multiply">
<path d="M27.2443 57.25C27.1848 57.2939 27.1166 57.3246 27.0443 57.34C26.9642 57.3496 26.8832 57.332 26.8143 57.29C26.6946 57.2126 26.595 57.1079 26.5237 56.9845C26.4525 56.861 26.4115 56.7224 26.4043 56.58C26.4059 56.5161 26.4237 56.4536 26.4559 56.3984C26.4882 56.3431 26.5338 56.2969 26.5887 56.264C26.6435 56.2311 26.7058 56.2126 26.7697 56.2101C26.8336 56.2077 26.8971 56.2214 26.9543 56.25C27.0866 56.572 27.1839 56.9073 27.2443 57.25Z" fill="#D2D1D0"/>
</g>
<path d="M27.4545 56.93C27.4457 56.788 27.4041 56.65 27.3329 56.5268C27.2618 56.4036 27.163 56.2986 27.0445 56.22C26.9989 56.1937 26.9471 56.1798 26.8945 56.1798C26.8418 56.1798 26.7901 56.1937 26.7445 56.22L26.6545 56.28L26.5645 56.33L27.1845 57.33L27.3245 57.24C27.3768 57.2094 27.4177 57.1626 27.4412 57.1067C27.4646 57.0508 27.4693 56.9888 27.4545 56.93Z" fill="url(#paint14_linear)"/>
<path d="M27.3044 57.04C27.3044 57.3 27.1244 57.41 26.8944 57.28C26.7745 57.2004 26.6749 57.0938 26.6037 56.9688C26.5325 56.8437 26.4916 56.7037 26.4844 56.56C26.4844 56.3 26.6644 56.2 26.8944 56.33C27.0141 56.4074 27.1136 56.5122 27.1849 56.6356C27.2562 56.759 27.2971 56.8976 27.3044 57.04Z" fill="#A1A09F"/>
<g style="mix-blend-mode:multiply">
<path d="M26.4543 62.59C26.3991 62.6349 26.3339 62.6658 26.2643 62.68C26.1843 62.6868 26.1042 62.6694 26.0342 62.63C25.913 62.5509 25.812 62.4447 25.7391 62.3197C25.6662 62.1947 25.6234 62.0544 25.6143 61.91C25.62 61.8467 25.6407 61.7857 25.6746 61.732C25.7086 61.6784 25.7548 61.6335 25.8096 61.6013C25.8643 61.569 25.9259 61.5503 25.9893 61.5466C26.0528 61.5429 26.1161 61.5543 26.1743 61.58C26.3019 61.9062 26.3957 62.2446 26.4543 62.59Z" fill="#D2D1D0"/>
</g>
<path d="M26.6842 62.25C26.677 62.1076 26.636 61.969 26.5647 61.8456C26.4934 61.7221 26.3939 61.6174 26.2742 61.54C26.2305 61.5135 26.1803 61.4995 26.1292 61.4995C26.0781 61.4995 26.0279 61.5135 25.9842 61.54L25.8942 61.59L25.8042 61.65L26.4142 62.65L26.5642 62.56C26.6125 62.5259 26.6497 62.4783 26.6711 62.4231C26.6924 62.368 26.697 62.3077 26.6842 62.25Z" fill="url(#paint15_linear)"/>
<path d="M26.5141 62.3599C26.5141 62.6199 26.3241 62.7299 26.0941 62.5899C25.9755 62.5114 25.8767 62.4063 25.8056 62.2831C25.7345 62.16 25.6929 62.0219 25.6841 61.8799C25.6841 61.6199 25.8741 61.5199 26.0941 61.6499C26.2151 61.7268 26.3161 61.8312 26.3891 61.9546C26.4621 62.078 26.5049 62.2169 26.5141 62.3599Z" fill="#A1A09F"/>
<path d="M13.2745 60.97C13.7445 60.4948 14.0284 59.8667 14.0745 59.2C14.0948 59.081 14.0902 58.9592 14.061 58.8421C14.0317 58.725 13.9784 58.6153 13.9045 58.52L12.0645 56.85L11.0645 59.41L12.8145 61.02C12.9045 61.14 13.0745 61.13 13.2745 60.97Z" fill="#BDBDBD"/>
<path d="M12.6543 58.19C12.6367 57.8635 12.5424 57.5458 12.3791 57.2626C12.2158 56.9794 11.988 56.7387 11.7143 56.56C11.6187 56.4902 11.5064 56.447 11.3887 56.4347C11.271 56.4224 11.1522 56.4415 11.0443 56.49L9.61426 57.32L10.9742 59.6L12.3643 58.8C12.4638 58.7346 12.5436 58.6432 12.5947 58.5356C12.6458 58.428 12.6665 58.3085 12.6543 58.19Z" fill="url(#paint16_linear)"/>
<path d="M10.2442 57.39C9.7242 57.09 9.3042 57.39 9.3042 57.94C9.32176 58.2665 9.41603 58.5842 9.57935 58.8674C9.74267 59.1506 9.97045 59.3913 10.2442 59.57C10.7642 59.87 11.1842 59.63 11.1842 59.02C11.1666 58.6936 11.0724 58.3759 10.9091 58.0927C10.7457 57.8095 10.518 57.5687 10.2442 57.39Z" fill="#AF8300"/>
<path d="M10.3541 57.25C10.6478 57.4437 10.8915 57.7041 11.0653 58.01C11.2391 58.3159 11.3381 58.6586 11.3541 59.01C11.3691 59.1369 11.3491 59.2655 11.2962 59.3819C11.2433 59.4982 11.1596 59.5979 11.0541 59.67L10.8241 59.8L9.4541 57.25L9.58411 57.17C9.70643 57.1074 9.84428 57.0816 9.98096 57.0958C10.1176 57.11 10.2473 57.1636 10.3541 57.25Z" fill="url(#paint17_linear)"/>
<path d="M10.1343 57.36C9.57428 57.04 9.13428 57.31 9.13428 57.96C9.15031 58.3115 9.24927 58.6542 9.42307 58.96C9.59686 59.2659 9.84058 59.5264 10.1343 59.72C10.6943 60.04 11.1343 59.78 11.1343 59.13C11.1166 58.7776 11.0171 58.4341 10.8435 58.1268C10.6699 57.8196 10.4271 57.557 10.1343 57.36Z" fill="#BDBDBD"/>
<path d="M9.45433 57.64C9.407 57.7471 9.38312 57.863 9.38432 57.98C9.40632 58.2784 9.495 58.5682 9.64384 58.8278C9.79268 59.0874 9.9979 59.3103 10.2443 59.48C10.3743 59.55 10.6743 59.69 10.8143 59.48C10.8676 59.375 10.8917 59.2576 10.8843 59.14C10.8667 58.8405 10.7799 58.5492 10.6307 58.2889C10.4815 58.0286 10.2739 57.8065 10.0243 57.64C9.90433 57.53 9.60433 57.39 9.45433 57.64Z" fill="url(#paint18_linear)"/>
<g style="mix-blend-mode:multiply">
<path d="M9.78418 57.51C9.89274 58.006 10.1859 58.4422 10.6042 58.73C10.6831 58.771 10.7672 58.8013 10.8542 58.82C10.7431 58.3224 10.4463 57.886 10.0242 57.6C9.94948 57.5575 9.86845 57.5271 9.78418 57.51Z" fill="#A6A6A6"/>
</g>
<path d="M20.7245 50.7301C20.9645 51.1801 20.8245 51.4301 20.1845 51.5701C19.8451 51.577 19.5069 51.5263 19.1845 51.4201C18.4426 51.0358 17.6414 50.7789 16.8145 50.6601L18.2545 49.5701C18.2545 49.5701 20.2545 49.8601 20.7245 50.7301Z" fill="#B2B2B2"/>
<path d="M18.2646 50.5C17.9733 50.6476 17.6512 50.7245 17.3246 50.7245C16.998 50.7245 16.676 50.6476 16.3846 50.5C16.2768 50.451 16.1839 50.3742 16.1154 50.2776C16.0469 50.181 16.0052 50.068 15.9946 49.95V38.88H18.6446V49.88C18.6503 50.0095 18.6171 50.1376 18.5494 50.2481C18.4817 50.3586 18.3825 50.4463 18.2646 50.5Z" fill="url(#paint19_linear)"/>
<path d="M16.3749 39.39C15.8549 39.1 15.8549 38.61 16.3749 38.31C16.6642 38.1559 16.987 38.0753 17.3148 38.0753C17.6427 38.0753 17.9655 38.1559 18.2548 38.31C18.7748 38.61 18.7748 39.09 18.2548 39.4C17.9627 39.546 17.6403 39.6212 17.3136 39.6195C16.987 39.6178 16.6654 39.5391 16.3749 39.39Z" fill="#AF8300"/>
<path d="M16.2947 39.5601C16.6057 39.7135 16.9479 39.7934 17.2947 39.7934C17.6415 39.7934 17.9837 39.7135 18.2947 39.5601C18.4106 39.5076 18.5105 39.4254 18.5843 39.3217C18.6581 39.2181 18.7031 39.0968 18.7147 38.9701V38.7101L15.8447 38.8201V38.9801C15.8576 39.1093 15.9066 39.2323 15.9862 39.3349C16.0658 39.4375 16.1727 39.5155 16.2947 39.5601Z" fill="url(#paint20_linear)"/>
<path d="M16.2945 39.31C15.7345 38.99 15.7345 38.47 16.2945 38.14C16.6051 37.9851 16.9474 37.9044 17.2945 37.9044C17.6416 37.9044 17.9839 37.9851 18.2945 38.14C18.4157 38.1826 18.5207 38.2617 18.595 38.3665C18.6693 38.4713 18.7092 38.5966 18.7092 38.725C18.7092 38.8535 18.6693 38.9788 18.595 39.0836C18.5207 39.1884 18.4157 39.2675 18.2945 39.31C17.9846 39.4673 17.642 39.5492 17.2945 39.5492C16.947 39.5492 16.6044 39.4673 16.2945 39.31Z" fill="#BDBDBD"/>
<path d="M16.1945 38.5901C16.2552 38.4919 16.3417 38.4124 16.4445 38.3601C16.7128 38.2247 17.0091 38.1542 17.3095 38.1542C17.61 38.1542 17.9063 38.2247 18.1745 38.3601C18.2945 38.4301 18.5645 38.6201 18.4245 38.8701C18.361 38.9658 18.2752 39.0448 18.1745 39.1001C17.9046 39.2296 17.609 39.2968 17.3095 39.2968C17.0101 39.2968 16.7145 39.2296 16.4445 39.1001C16.3145 39.0301 16.0445 38.8401 16.1945 38.5901Z" fill="url(#paint21_linear)"/>
<g style="mix-blend-mode:multiply">
<path d="M16.2446 38.9401C16.7265 38.7878 17.2481 38.8235 17.7046 39.04C17.7843 39.0794 17.8556 39.1337 17.9146 39.2001C17.4297 39.355 16.904 39.3192 16.4446 39.1001C16.3687 39.0595 16.3009 39.0052 16.2446 38.9401Z" fill="#A6A6A6"/>
</g>
<path d="M17.6143 40.77L22.9843 37.68L16.9943 34.22L11.6343 37.32L17.6143 40.77Z" fill="#8A8A8A"/>
<path d="M17.6143 46.53V40.7699L11.6343 37.3199V43.0699L17.6143 46.53Z" fill="#58544D"/>
<path d="M22.9843 37.6799V43.4399L17.6143 46.5299V40.7699L22.9843 37.6799Z" fill="#424242"/>
<path d="M22.3541 40.34V43.12L18.2441 45.49V42.71L22.3541 40.34Z" fill="#CACAB7"/>
<path d="M13.1245 36.86V30.25H22.1245V36.84C22.0822 37.2347 21.9371 37.6114 21.7037 37.9325C21.4703 38.2536 21.1568 38.5079 20.7945 38.67C19.811 39.1705 18.7231 39.4315 17.6195 39.4315C16.5159 39.4315 15.428 39.1705 14.4445 38.67C14.0837 38.5124 13.7714 38.2618 13.5395 37.9437C13.3075 37.6257 13.1643 37.2516 13.1245 36.86Z" fill="url(#paint22_linear)"/>
<path d="M14.4546 32.11C15.4381 32.6106 16.526 32.8715 17.6296 32.8715C18.7332 32.8715 19.8211 32.6106 20.8046 32.11C22.5646 31.11 22.5746 29.45 20.8046 28.44C19.8211 27.9395 18.7332 27.6786 17.6296 27.6786C16.526 27.6786 15.4381 27.9395 14.4546 28.44C12.6946 29.46 12.6846 31.1 14.4546 32.11Z" fill="#8D8D8D"/>
<path d="M29.284 42.62L37.534 37.87L33.364 35.46L25.104 40.21L29.284 42.62Z" fill="#8A8A8A"/>
<path d="M29.2842 45.3V42.62L25.1042 40.21L24.5742 41.61L25.1042 42.89L29.2842 45.3Z" fill="#4E4A42"/>
<path d="M37.5344 37.87V40.55L29.2844 45.3L28.7544 43.91L29.2844 42.62L37.5344 37.87Z" fill="#424242"/>
<path d="M24.5742 41.61L28.7542 43.91L29.2842 42.62L25.1042 40.21L24.5742 41.61Z" fill="#6D6A64"/>
<path d="M2.84442 61.83C2.39442 61.57 2.02441 61.78 2.02441 62.31C2.04043 62.593 2.12304 62.8682 2.26553 63.1132C2.40803 63.3582 2.60638 63.5662 2.84442 63.72C3.29442 63.98 3.65442 63.77 3.65442 63.25C3.64106 62.9662 3.56071 62.6896 3.41992 62.4428C3.27914 62.196 3.08193 61.986 2.84442 61.83Z" fill="#D3A375"/>
<path d="M0.38446 71.3399C0.485757 71.0917 0.67423 70.889 0.914459 70.7699C1.33963 70.5507 1.81108 70.4363 2.28946 70.4363C2.76784 70.4363 3.23928 70.5507 3.66446 70.7699C3.90051 70.8945 4.08734 71.0955 4.19446 71.3399V71.5699C4.18158 71.74 4.12267 71.9034 4.02402 72.0426C3.92537 72.1818 3.7907 72.2915 3.63446 72.3599C3.20929 72.5792 2.73784 72.6936 2.25946 72.6936C1.78108 72.6936 1.30964 72.5792 0.88446 72.3599C0.729983 72.2878 0.596529 72.1773 0.496765 72.039C0.397001 71.9008 0.334234 71.7393 0.314453 71.5699L0.38446 71.3399Z" fill="url(#paint23_linear)"/>
<path d="M0.944674 70.55C1.36985 70.3307 1.84129 70.2163 2.31967 70.2163C2.79805 70.2163 3.2695 70.3307 3.69467 70.55C4.45467 70.99 4.46467 71.7 3.69467 72.14C3.2695 72.3592 2.79805 72.4736 2.31967 72.4736C1.84129 72.4736 1.36985 72.3592 0.944674 72.14C0.194674 71.7 0.184674 70.99 0.944674 70.55Z" fill="#ABABAB"/>
<path d="M1.21453 70.7099C1.55737 70.5375 1.93577 70.4478 2.31951 70.4478C2.70325 70.4478 3.08167 70.5375 3.42452 70.7099C3.55748 70.7546 3.67304 70.84 3.7549 70.9539C3.83677 71.0679 3.88079 71.2046 3.88079 71.3449C3.88079 71.4852 3.83677 71.6219 3.7549 71.7359C3.67304 71.8498 3.55748 71.9351 3.42452 71.9799C3.08343 72.1522 2.70664 72.2419 2.32451 72.2419C1.94239 72.2419 1.5656 72.1522 1.22451 71.9799C1.09119 71.9362 0.974941 71.8518 0.892172 71.7385C0.809403 71.6252 0.764309 71.4888 0.763204 71.3485C0.7621 71.2082 0.805063 71.0711 0.886038 70.9565C0.967013 70.8419 1.08191 70.7557 1.21453 70.7099Z" fill="url(#paint24_linear)"/>
<path d="M3.27463 72C2.98151 72.1477 2.65785 72.2246 2.32962 72.2246C2.00139 72.2246 1.67773 72.1477 1.38461 72C1.27694 71.9535 1.18386 71.8788 1.1152 71.7837C1.04654 71.6886 1.00488 71.5768 0.994629 71.46V49.46L3.65463 47.21V71.45C3.64927 71.568 3.61078 71.6823 3.54358 71.7795C3.47638 71.8768 3.38319 71.9532 3.27463 72Z" fill="url(#paint25_linear)"/>
<path d="M10.9245 59.03C10.9085 58.7456 10.8259 58.469 10.6835 58.2224C10.5411 57.9758 10.3428 57.766 10.1045 57.61C10.0209 57.5515 9.92379 57.5153 9.82231 57.5048C9.72082 57.4943 9.61835 57.5098 9.52455 57.55L3.64454 60.98C3.64454 60.98 3.45454 61.09 3.45454 62.4C3.41727 62.8258 3.48242 63.2544 3.64454 63.65L10.6445 59.56C10.7358 59.5063 10.8104 59.4284 10.8598 59.3347C10.9093 59.2411 10.9317 59.1356 10.9245 59.03Z" fill="url(#paint26_linear)"/>
<path d="M16.5242 45C16.9952 44.5265 17.2762 43.8968 17.3142 43.23C17.3353 43.1117 17.3321 42.9904 17.3046 42.8734C17.277 42.7565 17.2259 42.6464 17.1542 42.55L15.3042 40.88L14.3042 43.44L16.0642 45.05C16.1442 45.17 16.3242 45.16 16.5242 45Z" fill="#424242"/>
<path d="M15.9045 42.25C15.8874 41.9223 15.7923 41.6034 15.6271 41.3199C15.4618 41.0364 15.2312 40.7964 14.9545 40.62C14.8589 40.5502 14.7466 40.507 14.6289 40.4947C14.5113 40.4824 14.3924 40.5015 14.2845 40.55L12.8545 41.38L14.2245 43.66L15.6145 42.86C15.7141 42.7947 15.7938 42.7032 15.8449 42.5957C15.8961 42.4881 15.9167 42.3685 15.9045 42.25Z" fill="url(#paint27_linear)"/>
<path d="M13.4542 41.4201C12.9342 41.1201 12.5142 41.4201 12.5142 41.9701C12.5317 42.2965 12.626 42.6142 12.7893 42.8974C12.9526 43.1806 13.1804 43.4214 13.4542 43.6001C13.9742 43.9001 14.3942 43.6601 14.3942 43.0601C14.3781 42.7319 14.2846 42.4122 14.1212 42.1271C13.9578 41.842 13.7292 41.5998 13.4542 41.4201Z" fill="#AF8300"/>
<path d="M13.6044 41.2501C13.8981 41.4437 14.1418 41.7042 14.3156 42.0101C14.4894 42.3159 14.5883 42.6586 14.6044 43.0101C14.6194 43.137 14.5994 43.2656 14.5465 43.3819C14.4936 43.4983 14.4099 43.5979 14.3044 43.6701L14.0744 43.8001L12.7344 41.2501L12.8744 41.1701C12.9918 41.1156 13.1219 41.0943 13.2505 41.1084C13.3792 41.1225 13.5015 41.1715 13.6044 41.2501Z" fill="url(#paint28_linear)"/>
<path d="M13.3843 41.3901C12.8243 41.0701 12.3843 41.3901 12.3843 41.9901C12.4003 42.3416 12.4993 42.6842 12.6731 42.9901C12.8469 43.296 13.0906 43.5564 13.3843 43.7501C13.9443 44.0701 14.3843 43.8101 14.3843 43.1601C14.3666 42.8077 14.2671 42.4642 14.0935 42.1569C13.9199 41.8497 13.6771 41.5871 13.3843 41.3901Z" fill="#BDBDBD"/>
<path d="M12.7042 41.6701C12.6523 41.7756 12.6282 41.8926 12.6342 42.01C12.6518 42.3095 12.7386 42.6009 12.8879 42.8612C13.0371 43.1214 13.2446 43.3435 13.4942 43.51C13.6142 43.58 13.9142 43.72 14.0642 43.51C14.1128 43.4034 14.1367 43.2872 14.1342 43.1701C14.1122 42.8716 14.0235 42.5819 13.8747 42.3223C13.7258 42.0627 13.5207 41.8398 13.2742 41.6701C13.1442 41.5601 12.8442 41.4301 12.7042 41.6701Z" fill="url(#paint29_linear)"/>
<g style="mix-blend-mode:multiply">
<path d="M13.0342 41.54C13.1427 42.0361 13.4359 42.4722 13.8542 42.76C13.9325 42.8025 14.0168 42.8329 14.1042 42.8501C13.9931 42.3525 13.6963 41.9161 13.2742 41.6301C13.198 41.5908 13.1174 41.5606 13.0342 41.54Z" fill="#A6A6A6"/>
</g>
<path d="M14.1646 43.06C14.1493 42.7755 14.0671 42.4986 13.9246 42.2518C13.7821 42.0051 13.5834 41.7955 13.3446 41.64C13.2571 41.5871 13.1568 41.5591 13.0546 41.5591C12.9523 41.5591 12.852 41.5871 12.7646 41.64L1.35455 48.25C1.35455 48.25 1.16455 48.36 1.16455 49.67L1.35455 50.92L13.9246 43.61C14.0118 43.5497 14.0804 43.4663 14.1228 43.3692C14.1652 43.272 14.1796 43.1649 14.1646 43.06Z" fill="url(#paint30_linear)"/>
<path d="M0.78437 49.2499V51.0899C0.811869 51.1817 0.867924 51.2623 0.944374 51.3199C1.2574 51.5279 1.62906 51.6296 2.00437 51.6099H2.16437C2.51421 51.6188 2.85987 51.5324 3.16438 51.3599C3.43133 51.21 3.63938 50.9737 3.75437 50.6899V49.6899C3.92159 49.3851 3.98148 49.0329 3.92438 48.6899C3.91229 48.539 3.89226 48.3888 3.86439 48.2399C3.83224 48.0615 3.76419 47.8914 3.66438 47.7399C3.57164 47.5948 3.45017 47.4703 3.30741 47.374C3.16466 47.2776 3.00366 47.2116 2.83439 47.1799H2.70438L1.6544 47.7399C1.38056 47.8826 1.15317 48.1005 0.999031 48.368C0.844896 48.6355 0.770418 48.9415 0.78437 49.2499Z" fill="#D1D1D1"/>
<path d="M0.944398 49.2499V51.3199C1.25743 51.5279 1.62909 51.6296 2.0044 51.6099H2.1644C2.51423 51.6188 2.8599 51.5324 3.1644 51.3599C3.43136 51.21 3.6394 50.9737 3.7544 50.6899V49.6899C3.92162 49.3851 3.9815 49.0329 3.92441 48.6899C3.91231 48.539 3.89229 48.3888 3.86441 48.2399C3.83227 48.0615 3.76421 47.8914 3.6644 47.7399C3.57166 47.5948 3.45019 47.4703 3.30744 47.374C3.16468 47.2776 3.00369 47.2116 2.83441 47.1799L1.83441 47.7199C1.55526 47.8631 1.32304 48.0834 1.16528 48.3546C1.00753 48.6258 0.930862 48.9365 0.944398 49.2499Z" fill="#E7E7E7"/>
<path d="M2.00438 49.7099V51.6299H2.16438C2.51421 51.6388 2.85987 51.5524 3.16438 51.3799C3.43134 51.2299 3.63938 50.9937 3.75437 50.7099V49.7099C3.92159 49.4051 3.98148 49.0529 3.92439 48.7099C3.91229 48.559 3.89226 48.4087 3.86439 48.2599C3.83225 48.0814 3.76419 47.9113 3.66438 47.7599L2.8744 48.1799C2.60055 48.3277 2.37375 48.5496 2.21992 48.8201C2.06609 49.0906 1.99139 49.399 2.00438 49.7099Z" fill="#D1D1D1"/>
<path d="M3.16419 50.16V51.39C3.43115 51.24 3.6392 51.0038 3.75419 50.72V49.72C3.92141 49.4151 3.9813 49.0629 3.9242 48.72C3.68097 48.8708 3.48232 49.0837 3.34873 49.3368C3.21515 49.5899 3.15145 49.8741 3.16419 50.16Z" fill="#B2B2B2"/>
<path d="M13.5146 28.35C13.5791 27.2284 13.907 26.1378 14.4716 25.1666C15.0363 24.1954 15.8218 23.3709 16.7646 22.7599C17.0927 22.5201 17.4789 22.3723 17.8833 22.3319C18.2877 22.2914 18.6955 22.3598 19.0646 22.5299L21.4046 23.9299L16.5546 31.6799L14.5046 30.46C14.1619 30.233 13.8882 29.916 13.7136 29.5438C13.539 29.1717 13.4701 28.7586 13.5146 28.35Z" fill="url(#paint31_linear)"/>
<path d="M15.8145 29.7399C15.8145 31.7999 17.2645 32.6199 19.0645 31.5899C20.0061 30.9763 20.7902 30.1496 21.3531 29.1768C21.9159 28.2039 22.2419 27.1122 22.3045 25.9899C22.3045 23.9299 20.8545 23.1099 19.0645 24.1399C18.1198 24.7512 17.333 25.5772 16.7682 26.5504C16.2034 27.5235 15.8766 28.6164 15.8145 29.7399Z" fill="#A43120"/>
<path d="M17.9346 31.25C18.2893 31.228 18.633 31.118 18.9346 30.9299C19.7122 30.4182 20.36 29.7326 20.8269 28.9273C21.2938 28.1219 21.5669 27.219 21.6246 26.2899C21.6246 25.8499 21.5346 24.83 20.6246 24.83C20.2692 24.8562 19.9258 24.9695 19.6246 25.16C18.847 25.6717 18.1991 26.3573 17.7322 27.1627C17.2654 27.968 16.9923 28.8709 16.9346 29.8C16.9646 30.19 17.0546 31.25 17.9346 31.25Z" fill="#CACAB7"/>
<path d="M17.9346 31.25C18.2893 31.228 18.633 31.118 18.9346 30.9299C19.7122 30.4182 20.36 29.7326 20.8269 28.9273C21.2938 28.1219 21.5669 27.219 21.6246 26.2899C21.6246 25.8499 21.5346 24.83 20.6246 24.83C20.2692 24.8562 19.9258 24.9695 19.6246 25.16C18.847 25.6717 18.1991 26.3573 17.7322 27.1627C17.2654 27.968 16.9923 28.8709 16.9346 29.8C16.9646 30.19 17.0546 31.25 17.9346 31.25Z" fill="#CACAB7"/>
<path d="M18.9545 29.56C19.008 29.557 19.0598 29.5397 19.1045 29.51C19.2221 29.4351 19.3204 29.3337 19.3917 29.2138C19.4629 29.094 19.5049 28.9591 19.5145 28.82C19.5145 28.75 19.5145 28.6 19.3645 28.6C19.3112 28.6042 19.2597 28.6214 19.2145 28.65C19.0987 28.7259 19.0023 28.8279 18.9329 28.9477C18.8634 29.0674 18.8229 29.2018 18.8145 29.34C18.8145 29.41 18.8245 29.56 18.9545 29.56Z" fill="#535353"/>
<path d="M19.0146 29.4099C19.0507 29.4188 19.0884 29.4188 19.1246 29.4099C19.2043 29.3561 19.2709 29.285 19.3194 29.2019C19.3678 29.1188 19.397 29.0258 19.4046 28.9299C19.4046 28.8799 19.4046 28.7799 19.3046 28.7799H19.1945C19.1148 28.8337 19.0482 28.9048 18.9998 28.9879C18.9513 29.071 18.9221 29.164 18.9146 29.2599C18.9146 29.3099 18.9246 29.4099 19.0146 29.4099Z" fill="#979797"/>
<path d="M17.6346 30.8899C17.9893 30.868 18.333 30.758 18.6346 30.5699C19.4134 30.0572 20.0621 29.37 20.5291 28.5628C20.996 27.7556 21.2684 26.8507 21.3246 25.9199C21.3297 25.5729 21.2508 25.2298 21.0946 24.9199C21.2827 25.0832 21.4289 25.2892 21.5211 25.5205C21.6134 25.7519 21.6488 26.002 21.6246 26.2499C21.5669 27.179 21.2938 28.0819 20.8269 28.8872C20.36 29.6925 19.7122 30.3782 18.9346 30.8899C18.633 31.078 18.2893 31.188 17.9346 31.2099C17.7823 31.213 17.6321 31.1746 17.5 31.0988C17.3679 31.0231 17.2589 30.9128 17.1846 30.7799C17.3226 30.8548 17.4776 30.8927 17.6346 30.8899Z" fill="url(#paint32_linear)"/>
<path d="M20.7647 26.0399V26.8199L17.5547 28.6699V27.8899L20.7647 26.0399Z" fill="#535353"/>
<path d="M18.8248 27.26V27.86L17.6948 28.51V27.91L18.8248 27.26Z" fill="#D14F29"/>
<path style="mix-blend-mode:hard-light" d="M19.6544 25.11C19.9556 24.9195 20.2991 24.8062 20.6544 24.78C20.8299 24.7741 21.0023 24.8269 21.1444 24.93C21.3923 25.2718 21.5159 25.6882 21.4944 26.11C21.4367 27.0391 21.1636 27.942 20.6967 28.7473C20.2299 29.5526 19.582 30.2382 18.8044 30.75C18.5028 30.938 18.1592 31.048 17.8044 31.07C17.6311 31.0709 17.4611 31.0224 17.3144 30.93C17.0715 30.5861 16.9517 30.1704 16.9744 29.75C17.031 28.8218 17.3026 27.9194 17.7677 27.1142C18.2328 26.3089 18.8787 25.6228 19.6544 25.11Z" fill="url(#paint33_linear)"/>
<g style="mix-blend-mode:multiply">
<path d="M19.6546 25.11C19.9558 24.9195 20.2993 24.8062 20.6546 24.78C20.8301 24.7741 21.0025 24.8269 21.1446 24.93C21.261 25.0705 21.3462 25.2341 21.3946 25.41C21.315 25.3988 21.2343 25.3988 21.1546 25.41C20.7984 25.4315 20.4538 25.5452 20.1546 25.74C19.3771 26.2517 18.7292 26.9374 18.2623 27.7427C17.7954 28.548 17.5224 29.4509 17.4646 30.38C17.4645 30.6169 17.4982 30.8526 17.5646 31.08C17.4727 31.0574 17.3849 31.0202 17.3046 30.97C17.0617 30.6261 16.9419 30.2104 16.9646 29.79C17.0163 28.854 17.2865 27.9431 17.7536 27.1304C18.2208 26.3177 18.8718 25.6257 19.6546 25.11Z" fill="#CFCFCF"/>
</g>
<path d="M51.3842 30.41C49.5942 30.23 43.6942 25.94 43.5742 25.77C42.5775 25.2658 41.5563 24.8119 40.5142 24.41C40.5142 24.41 38.3542 24.58 37.5142 24.55C36.6967 24.5324 35.8896 24.3628 35.1342 24.05C34.8442 23.8 34.8042 22.15 34.8042 22.15C34.8042 22.15 34.9742 21.47 35.0342 21.31C35.0842 21.17 35.4642 21.01 35.6042 20.89C35.7442 20.77 36.5142 20.41 36.5442 20.32C36.6444 20.1725 36.7547 20.0322 36.8742 19.9C37.2207 19.8454 37.5576 19.7409 37.8742 19.59C37.9942 19.45 38.6742 19.59 38.7742 19.68C38.8742 19.77 39.9042 20.68 40.3042 21.07C40.7757 21.3773 41.2917 21.61 41.8342 21.76L46.6142 23.52C46.6142 23.52 52.3342 24.65 52.4642 24.75C52.5942 24.85 53.1742 30.58 51.3842 30.41Z" fill="#FCC7AA"/>
<g style="mix-blend-mode:multiply">
<path d="M51.3842 30.4099C49.5942 30.2299 43.6942 25.9399 43.5742 25.7699C42.5775 25.2657 41.5563 24.8118 40.5142 24.4099C40.5142 24.4099 38.3542 24.5799 37.5142 24.5499C36.6967 24.5323 35.8896 24.3628 35.1342 24.0499C34.8442 23.7999 34.8042 22.1499 34.8042 22.1499C34.8042 22.1499 34.9742 21.4699 35.0342 21.3099C35.0342 21.3999 34.9742 21.8599 35.2642 21.8899L36.5442 22.0499L37.0642 23.0499L36.1442 23.4299C35.8591 23.5139 35.5684 23.5774 35.2742 23.6199C35.2742 23.6199 35.2742 23.9499 35.9042 24.0699C36.5167 24.1674 37.1344 24.2275 37.7542 24.2499C38.4132 24.1023 39.0814 23.9988 39.7542 23.9399C40.8355 24.1811 41.9036 24.4782 42.9542 24.8299C42.9542 24.8299 43.2442 23.9699 43.0542 23.6199C42.9552 23.2939 42.9552 22.9459 43.0542 22.6199C42.6558 22.3328 42.2265 22.0912 41.7742 21.8999C41.3196 21.7142 40.8786 21.497 40.4542 21.2499L38.8342 19.6499C38.9442 19.7199 39.9642 20.6499 40.3642 21.0399C40.8357 21.3472 41.3517 21.58 41.8942 21.7299L46.6742 23.4899C46.6742 23.4899 52.3942 24.6199 52.5242 24.7199C52.6542 24.8199 53.1742 30.5799 51.3842 30.4099Z" fill="#FAD3BE"/>
</g>
<path d="M71.9246 47.74C72.5314 49.0582 72.7532 50.5211 72.5646 51.96C72.2365 55.0246 70.9324 57.9027 68.8446 60.17C67.7025 61.3156 66.7595 62.6439 66.0546 64.1V66.7899C66.0546 66.7899 66.1946 67.7199 63.8346 67.7899C61.4746 67.8599 59.4746 62.7 59.4746 62.7L68.3246 46.2L71.9246 47.74Z" fill="#355FA3"/>
<path d="M84.5843 71.0999L84.4043 70.5399C84.4043 70.5399 83.1043 70.5399 82.5243 70.5399C81.4873 70.6646 80.4588 70.8516 79.4443 71.0999C79.4443 71.0999 78.0843 75.3599 79.2343 75.9399C79.8218 76.2236 80.4263 76.4707 81.0443 76.6799C81.9228 77.5184 82.6441 78.5073 83.1743 79.5999C83.2443 80.1099 83.4543 81.5999 83.4543 81.7999C83.4543 81.9999 83.8043 82.5399 84.5443 82.2899C85.2843 82.0399 85.8143 80.1999 85.8143 80.1999L85.5343 75.2699L84.5843 71.0999Z" fill="#D6A94F"/>
<path d="M81.0444 72.0499C81.0444 72.7999 80.9644 74.0499 80.8844 75.1099C80.8044 76.1699 80.7344 76.9099 80.7344 76.9099C80.7344 76.9099 78.7844 77.0899 75.3444 77.5399C71.9044 77.9899 59.0444 79.4499 56.4444 77.7099C53.8444 75.9699 54.1144 69.7099 54.1144 66.7099C54.1144 63.7099 55.1144 56.0099 55.1144 56.0099C55.1144 56.0099 56.0044 55.4399 57.3144 54.6299C60.7544 52.5099 67.0544 48.7299 67.5944 49.2299C68.1701 49.8704 68.67 50.575 69.0844 51.3299C70.0344 52.9299 70.9944 55.0699 70.8444 56.5999C70.6044 59.0999 68.5944 61.6699 67.1644 63.5999C65.7344 65.5299 65.0444 70.1299 65.0444 70.1299C67.1843 70.218 69.3176 70.425 71.4344 70.7499C74.7044 71.2699 80.4344 70.4399 80.4344 70.4399C80.4976 70.4556 80.5559 70.4865 80.6044 70.5299C80.7444 70.6799 81.0444 71.0699 81.0444 72.0499Z" fill="#355FA3"/>
<path d="M84.4545 70.5399C84.4545 70.5399 83.6245 70.5399 83.6245 71.9799C83.6245 73.4199 85.0045 77.9799 85.0745 78.5399C85.1445 79.0999 84.5245 81.9199 84.5945 82.2899C84.6645 82.6599 86.2645 81.9599 86.7245 81.1099C87.0176 80.6107 87.1853 80.0479 87.2132 79.4696C87.241 78.8914 87.1282 78.315 86.8845 77.7899C86.2825 76.1393 85.8927 74.4188 85.7245 72.6699C85.6745 71.9999 85.5645 70.5899 84.4545 70.5399Z" fill="#2F2720"/>
<g style="mix-blend-mode:multiply">
<path d="M80.5545 70.54C79.4945 70.54 78.7545 71.1 76.9945 71.28C74.459 71.401 71.918 71.3241 69.3945 71.05C68.9345 70.96 65.3945 70.73 65.3945 70.73C65.3945 70.73 63.7745 72.9 63.2245 73C62.2778 73.4999 61.392 74.1072 60.5845 74.81C61.0642 74.0709 61.6583 73.4127 62.3445 72.86C62.9845 72.54 64.1045 70.22 64.1045 70.22C64.1045 70.22 64.0545 68.46 63.9645 68C64.1889 66.8776 64.4998 65.7743 64.8945 64.7C65.326 64.0761 65.79 63.4752 66.2845 62.9C66.2845 62.9 69.4745 58.59 70.0345 56.97C70.1996 56.5151 70.2567 56.028 70.2011 55.5472C70.1456 55.0665 69.979 54.6052 69.7145 54.2C69.4545 53.2 69.2345 52.2 69.0545 51.35C70.0045 52.95 70.9645 55.09 70.8145 56.62C70.5745 59.12 68.5645 61.69 67.1345 63.62C65.7045 65.55 65.0145 70.15 65.0145 70.15C67.1543 70.238 69.2876 70.445 71.4045 70.77C74.6745 71.29 80.4045 70.46 80.4045 70.46C80.4596 70.4756 80.5108 70.5029 80.5545 70.54Z" fill="#6C91C4"/>
</g>
<g style="mix-blend-mode:multiply">
<path d="M80.8844 75.11C80.8044 76.11 80.7344 76.91 80.7344 76.91C80.7344 76.91 78.7844 77.09 75.3444 77.54C71.9044 77.99 59.0444 79.45 56.4444 77.71C53.8444 75.97 54.1144 69.71 54.1144 66.71C54.1144 63.71 55.1144 56.01 55.1144 56.01C55.1144 56.01 56.0044 55.44 57.3144 54.63C57.2217 55.7542 57.0174 56.8663 56.7044 57.95C55.9994 60.3828 55.6161 62.8976 55.5644 65.43C55.5644 67.82 55.8044 73.97 55.8744 74.25C55.9444 74.53 57.0544 76.1 57.1244 76.25C57.8896 76.5442 58.6842 76.7555 59.4944 76.88C60.295 77.0844 61.1062 77.2447 61.9244 77.36C62.3744 77.36 66.3644 77.85 67.5944 77.75C68.8244 77.65 72.2744 76.75 74.2144 76.4C75.5544 76.25 78.9444 75.53 80.8844 75.11Z" fill="#6C91C4"/>
</g>
<path d="M72.7445 48.6299C72.7445 49.0099 70.3745 53.0099 70.2345 53.2499C70.0945 53.4899 67.4845 59.1199 62.7045 60.3399C61.7761 60.5714 60.8211 60.679 59.8645 60.6599C57.9926 60.6344 56.1711 60.0493 54.6345 58.9799C54.6146 58.4352 54.5477 57.8932 54.4345 57.3599C54.2545 56.4999 52.4345 53.3099 51.3745 50.9699C51.1445 50.4399 50.9545 49.9699 50.8245 49.5599C50.2092 46.9569 49.1138 44.4914 47.5945 42.2899C46.6458 40.6222 45.996 38.8015 45.6745 36.9099C45.1795 34.6683 44.9579 32.3749 45.0145 30.0799C45.2145 29.3299 48.2145 26.2099 48.6045 25.7199C51.1922 23.5977 53.9037 21.6309 56.7245 19.8299C58.2645 18.9899 60.2145 19.9299 61.0245 20.8299C61.8345 21.7299 62.7145 24.7399 62.7145 24.7399C63.6753 27.224 64.4802 29.7656 65.1245 32.3499C65.5102 34.3085 66.1594 36.2057 67.0545 37.9899C67.3445 38.6499 67.7745 39.5999 68.2545 40.5099C68.6328 41.3249 69.1661 42.0585 69.8245 42.6699C70.5299 43.3127 71.0337 44.1465 71.2745 45.0699C71.8431 46.2226 72.3342 47.4119 72.7445 48.6299Z" fill="#F9551A"/>
<path d="M55.9043 20.3099C55.9043 20.3099 56.3843 19.9399 56.7243 22.3599C57.0643 24.7799 59.8443 45.6599 59.8443 45.6599L61.9043 43.4999C61.9043 43.4999 58.3843 21.4199 58.3843 21.1699C58.259 20.5519 57.9647 19.9807 57.5343 19.5199C57.0643 19.0899 55.9043 20.3099 55.9043 20.3099Z" fill="#355FA3"/>
<path d="M72.7445 48.63C72.7445 49.01 70.3745 53.01 70.2345 53.25C70.0945 53.49 67.4845 59.12 62.7045 60.34C61.7761 60.5714 60.8211 60.679 59.8645 60.66C57.9926 60.6345 56.1711 60.0494 54.6345 58.98C54.6146 58.4352 54.5477 57.8932 54.4345 57.36C54.2545 56.5 52.4345 53.31 51.3745 50.97L53.9345 51.37C56.4545 51.74 59.4545 48.25 59.4545 48.25C59.4545 48.25 59.7745 44.36 60.5645 43.78C61.3545 43.2 66.0745 39.12 66.0745 39.12L67.7045 41.12L68.2245 40.41C68.6028 41.225 69.1361 41.9586 69.7945 42.57C70.4999 43.2128 71.0037 44.0465 71.2445 44.97C71.8274 46.1543 72.3286 47.3772 72.7445 48.63Z" fill="#355FA3"/>
<path d="M42.8044 37.0099C42.8044 37.0099 41.9744 38.43 41.7244 39.06C41.4014 39.7005 41.0198 40.3098 40.5844 40.88C40.5844 40.88 38.1844 38.88 37.8344 38.47C37.4951 38.0802 37.2215 37.6377 37.0244 37.16C36.8016 36.4722 36.5241 35.8034 36.1944 35.16C35.8639 34.8164 35.4986 34.5081 35.1044 34.24C34.7816 34.1344 34.4441 34.0804 34.1044 34.08C33.9444 34.15 34.0244 34.61 34.0244 34.61L34.6744 34.89L34.5344 35.21L34.0044 34.7299C33.7157 34.6614 33.421 34.6212 33.1244 34.61C32.9944 34.61 32.3944 35.1699 32.3544 35.3999C32.3333 35.6862 32.3333 35.9737 32.3544 36.2599C32.3154 36.5051 32.2887 36.7521 32.2744 37C32.2883 37.1904 32.3252 37.3784 32.3844 37.56V38.46L33.0944 39.35C33.2446 39.4741 33.4194 39.565 33.6073 39.6167C33.7951 39.6684 33.9919 39.6797 34.1844 39.6499C34.7944 39.5399 35.1844 39.4299 35.3744 39.7599C36.1043 41.5745 37.1168 43.2621 38.3744 44.7599C40.3744 46.9699 41.1844 46.76 41.8544 46.84C42.5244 46.92 43.5744 46.44 44.6244 45.09C45.6744 43.74 47.7244 41.2199 48.3844 40.5399C49.0444 39.8599 42.8044 37.0099 42.8044 37.0099Z" fill="#FCC7AA"/>
<path d="M32.3947 35.4C32.3736 35.6863 32.3736 35.9737 32.3947 36.26C32.3947 36.26 32.3947 36.4 32.3947 36.57C32.4841 36.501 32.5859 36.4501 32.6947 36.42C32.5663 36.1216 32.4886 35.8039 32.4647 35.48C32.4647 35.41 32.4647 35.33 32.4647 35.25C32.4341 35.2963 32.4105 35.3468 32.3947 35.4Z" fill="#FCC7AA"/>
<g style="mix-blend-mode:multiply">
<path d="M39.3247 42.42C39.8084 42.2467 40.2296 41.9334 40.5347 41.52C40.9747 40.87 42.2647 38.41 42.6847 37.86C42.8347 37.65 43.5247 37.61 44.3347 37.74C43.4647 37.31 42.8047 37.01 42.8047 37.01C42.8047 37.01 41.9747 38.43 41.7247 39.06C41.4017 39.7006 41.0201 40.3098 40.5847 40.88C40.5847 40.88 40.1547 41.61 39.9747 41.88C39.7729 42.0772 39.5555 42.2577 39.3247 42.42Z" fill="#FAD3BE"/>
</g>
<g style="mix-blend-mode:multiply">
<path d="M44.6945 45.12C45.7545 43.76 47.7945 41.2501 48.4545 40.5701C48.6645 40.3501 48.1545 39.9 47.3645 39.4C47.4267 39.5625 47.4539 39.7363 47.4445 39.91C46.9342 41.0747 46.3113 42.1867 45.5845 43.23C44.716 44.4407 43.6865 45.5274 42.5245 46.4601C42.2364 46.6124 41.9154 46.6921 41.5895 46.6921C41.2636 46.6921 40.9426 46.6124 40.6545 46.4601C39.3737 45.3689 38.2764 44.0791 37.4045 42.64C36.785 41.5502 36.2372 40.4211 35.7645 39.26C35.7145 39 35.6345 37.6301 35.6345 37.6301C35.3293 38.1066 34.9954 38.5641 34.6345 39C34.4154 39.1229 34.174 39.2011 33.9245 39.23C33.7905 39.2582 33.6521 39.2586 33.5179 39.231C33.3837 39.2035 33.2566 39.1487 33.1445 39.0701C32.8122 38.7911 32.566 38.4235 32.4345 38.01L32.5745 37.6301C32.4828 37.3578 32.4061 37.0807 32.3445 36.8C32.3402 36.8666 32.3402 36.9334 32.3445 37C32.3584 37.1905 32.3953 37.3785 32.4545 37.56V38.4601L33.1645 39.3501C33.3147 39.4742 33.4895 39.5651 33.6774 39.6168C33.8652 39.6685 34.0619 39.6798 34.2545 39.65C34.8645 39.54 35.2545 39.43 35.4445 39.76C36.1744 41.5746 37.1869 43.2621 38.4445 44.76C40.4445 46.97 41.2545 46.76 41.9245 46.84C42.5945 46.92 43.6445 46.47 44.6945 45.12Z" fill="#FAD3BE"/>
</g>
<path d="M55.1946 20.78C55.0779 21.2716 54.8562 21.7322 54.5446 22.13C54.2246 22.47 51.2946 24.22 49.7246 25.13L48.7246 25.7C48.7246 25.7 48.1646 22.8 47.7746 22.55C47.3846 22.3 46.3346 22.6 45.9946 22.41C44.6634 20.954 43.7994 19.1321 43.5146 17.18C43.4529 16.4047 43.1873 15.6595 42.7446 15.02C42.7547 13.5362 42.902 12.0566 43.1846 10.6H43.2946C44.1846 10.93 50.2146 13.2 51.5446 13.2C52.8746 13.2 53.7946 15.33 53.9346 17.3C54.0396 18.551 54.4743 19.7518 55.1946 20.78Z" fill="#FCC7AA"/>
<path d="M54.0545 18.07C53.6201 18.4115 53.1623 18.7223 52.6845 19C52.3445 19.14 50.7945 19.48 50.7945 19.48C50.7945 19.48 48.4545 17.54 48.0845 17.14C47.7145 16.74 46.9245 15.14 45.9745 15.2C45.8353 15.1994 45.6974 15.2279 45.5699 15.2837C45.4423 15.3395 45.3277 15.4213 45.2336 15.5239C45.1394 15.6265 45.0678 15.7477 45.0232 15.8796C44.9786 16.0115 44.962 16.1513 44.9745 16.29C45.0245 16.52 45.1545 17.34 45.1545 17.34H44.5345C44.3342 16.6076 44.0768 15.8921 43.7645 15.2C43.5145 14.86 42.7645 13.77 42.7645 13.77C42.6307 12.7257 42.5839 11.672 42.6245 10.62C43.11 9.57737 43.8112 8.64965 44.6817 7.89807C45.5522 7.1465 46.5723 6.58816 47.6745 6.25995C48.9024 6.00789 50.179 6.16471 51.3094 6.70642C52.4398 7.24814 53.3618 8.14497 53.9345 9.25995C54.4385 11.2889 54.6108 13.386 54.4445 15.47C54.2845 16.41 54.0545 18.07 54.0545 18.07Z" fill="#4A2727"/>
<path d="M45.7144 15.6999C46.2963 15.9964 46.7511 16.4938 46.9944 17.0999C47.2744 18.0199 47.0544 18.6199 46.5944 18.5799C46.1344 18.5399 46.0444 17.2999 45.7744 17.1299C45.5141 16.833 45.3046 16.4951 45.1544 16.1299C45.1544 16.1299 45.1344 15.5999 45.7144 15.6999Z" fill="#FFD6BF"/>
<g style="mix-blend-mode:multiply">
<path d="M49.7246 25.15L48.7246 25.72C48.7246 25.72 48.1646 22.82 47.7746 22.57C47.3846 22.32 46.3346 22.62 45.9946 22.43C44.6634 20.974 43.7994 19.1522 43.5146 17.2C43.4529 16.4247 43.1873 15.6795 42.7446 15.04C42.7547 13.5562 42.902 12.0766 43.1846 10.62H43.2946C43.2246 11.95 43.1246 13.44 43.0346 13.95C42.9815 14.2349 42.9983 14.5284 43.0836 14.8054C43.169 15.0823 43.3203 15.3344 43.5246 15.54C43.6882 16.3523 43.8017 17.1738 43.8646 18C44.2141 19.039 44.6593 20.0433 45.1946 21C45.1946 21 46.0946 22 46.4746 22C47.0974 21.8553 47.7039 21.6476 48.2846 21.38C48.1999 21.5124 48.1477 21.6629 48.132 21.8192C48.1164 21.9756 48.1378 22.1335 48.1946 22.28C48.4046 22.66 49.4446 24.17 49.4446 24.17C49.5616 24.4894 49.6552 24.817 49.7246 25.15Z" fill="#FAD3BE"/>
</g>
<g style="mix-blend-mode:multiply">
<path d="M59.8646 60.6599C57.9931 60.6314 56.1725 60.0466 54.6346 58.9799C54.6134 58.4314 54.5432 57.8859 54.4246 57.35C54.2246 56.35 51.4245 51.7199 50.8145 49.5299C50.2014 46.9292 49.1058 44.4666 47.5846 42.2699C46.6374 40.6015 45.9877 38.7811 45.6646 36.8899C47.9346 34.1399 50.2446 32.56 51.5746 34.07C51.5746 34.07 51.5746 34.1699 51.5746 34.3299C51.6546 34.9999 51.8646 36.7899 51.8646 37.3999C51.8725 37.899 51.9533 38.3943 52.1046 38.8699C52.1046 38.8699 50.1046 40.4299 50.1546 41.0899C50.2721 41.6074 50.5525 42.0736 50.9546 42.4199L50.8946 43.7999C50.8946 43.7999 52.0345 49.1199 53.5345 50.8899C55.0345 52.6599 56.1645 55.67 56.5345 56.24C57.7364 57.6418 58.8486 59.118 59.8646 60.6599Z" fill="#F09F69"/>
</g>
<g style="mix-blend-mode:multiply">
<path d="M59.1546 28.2499C59.1546 28.2499 61.8846 34.3099 62.4446 35.2499C63.0046 36.1899 65.3646 41.2499 65.4446 42.4199C65.5764 43.51 65.7701 44.5918 66.0246 45.6599C66.0246 45.6599 66.1446 41.3099 66.0246 40.7099C65.9046 40.1099 63.6346 34.0699 63.6346 34.0699C63.6346 34.0699 61.2746 29.7699 61.0446 29.1699C60.8146 28.5699 57.7046 23.1699 57.7046 23.1699L59.1546 28.2499Z" fill="#F09F69"/>
</g>
<path d="M51.5343 33.41C51.6814 34.8784 51.4 36.358 50.7243 37.67C49.9779 39.0693 49.0499 40.3638 47.9643 41.52C46.5714 41.22 45.2258 40.7322 43.9643 40.07C43.1309 39.4681 42.4941 38.633 42.1343 37.67C42.1343 37.67 44.4943 30.29 45.0543 29.5C45.6143 28.71 47.5043 27.5 49.0543 28.99C50.3721 30.1282 51.2496 31.6921 51.5343 33.41Z" fill="#FF882A"/>
<path d="M56.0946 20.4799L55.1945 19.6499L54.5045 19.5299L54.7346 19.9999C53.5849 20.8455 52.3675 21.5947 51.0946 22.2399C49.8596 22.8943 48.7136 23.7042 47.6846 24.6499L48.1846 26.1599L50.1846 25.2799C51.8461 24.3759 53.4402 23.3533 54.9546 22.2199C55.8146 21.3399 56.1446 20.9699 56.0946 20.4799Z" fill="#FF882A"/>
<path d="M46.7446 27.7699C46.7446 27.7699 47.2446 27.1699 49.4146 27.5499C51.5846 27.9299 66.5546 42.8599 66.5546 42.8599L67.1446 40.4799L66.0946 39.1599C66.0946 39.1599 51.4946 26.0599 50.8146 25.9299C49.8106 25.9971 48.8193 26.192 47.8646 26.5099L46.7446 27.7699Z" fill="#355FA3"/>
<path d="M36.3544 23.2501L29.3544 26.8601L26.6144 28.2501L25.2344 27.5301V26.5301L35.3044 21.8201C35.3044 21.8201 36.3044 22.0801 36.5644 22.4101C36.5683 22.4332 36.5683 22.4569 36.5644 22.4801C36.7244 22.8701 36.3544 23.2501 36.3544 23.2501Z" fill="#8B7C77"/>
<path d="M36.3548 23.25L29.3548 26.86L29.1548 26.1001L36.6148 22.55C36.7248 22.87 36.3548 23.25 36.3548 23.25Z" fill="#545454"/>
<path d="M25.3145 26.17L28.4745 27.95L29.4644 27.4099L29.2344 26.4799L27.9444 25.75L25.3145 25.33V26.17Z" fill="#725656"/>
<path d="M24.4448 26.2V27.0399V27.78L26.3448 28.7699L27.2648 28.6299L28.1748 28.1299L24.4448 26.2Z" fill="#545454"/>
<path d="M27.2646 27.79V28.63L28.1746 28.13V27.34L27.2646 27.79Z" fill="#3B1515"/>
<path d="M29.4646 27.4099V26.5699L28.4746 27.11V27.95L29.4646 27.4099Z" fill="#3B1515"/>
<path d="M25.3145 25.33L28.4745 27.11L29.4644 26.57L29.2344 25.64L27.9444 24.9L26.7144 25.08L25.3145 25.33Z" fill="#A5A5A5"/>
<path d="M24.9048 25.52L24.4448 26.2V26.94L26.3448 27.92L27.2648 27.79L28.1748 27.34L24.9048 25.52Z" fill="#A5A5A5"/>
<path d="M24.4448 26.2L27.2648 27.79L28.1748 27.34L24.9048 25.52L24.4448 26.2Z" fill="#4A2727"/>
<path d="M29.4644 26.5699L26.7144 25.08L25.3145 25.33L28.4745 27.11L29.4644 26.5699Z" fill="#4A2727"/>
<path d="M30.8348 24.25L29.1748 25.09L29.7148 25.43L31.3748 24.59C31.3748 24.59 31.3548 24.25 30.8348 24.25Z" fill="#DFDBDB"/>
<path d="M29.4648 26.57L27.2648 27.79L26.4448 27.26L28.6748 26.14L29.4648 26.57Z" fill="#4A2727"/>
<path d="M29.4646 26.5699L27.2646 27.7899V28.6299L29.4646 27.4099V26.5699Z" fill="#3B1515"/>
<defs>
<linearGradient id="paint0_linear" x1="35.2183" y1="26.1422" x2="33.1481" y2="26.1478" gradientUnits="userSpaceOnUse">
<stop offset="0.01" stop-color="#D2D2D2"/>
<stop offset="0.02" stop-color="#E6E6E6"/>
<stop offset="0.16" stop-color="#E8E8E8"/>
<stop offset="0.24" stop-color="#E2E2E2"/>
<stop offset="0.34" stop-color="#D1D1D1"/>
<stop offset="0.37" stop-color="#CBCBCB"/>
<stop offset="0.38" stop-color="#B3B3B3"/>
<stop offset="0.78" stop-color="#A3A3A3"/>
<stop offset="0.79" stop-color="#8D8D8D"/>
<stop offset="0.88" stop-color="#858585"/>
<stop offset="1" stop-color="#808080"/>
</linearGradient>
<linearGradient id="paint1_linear" x1="5744.34" y1="3486.55" x2="5761.77" y2="3532.64" gradientUnits="userSpaceOnUse">
<stop offset="0.01" stop-color="#D2D2D2"/>
<stop offset="0.02" stop-color="#E6E6E6"/>
<stop offset="0.16" stop-color="#E8E8E8"/>
<stop offset="0.24" stop-color="#E2E2E2"/>
<stop offset="0.34" stop-color="#D1D1D1"/>
<stop offset="0.37" stop-color="#CBCBCB"/>
<stop offset="0.38" stop-color="#B3B3B3"/>
<stop offset="0.78" stop-color="#A3A3A3"/>
<stop offset="0.79" stop-color="#8D8D8D"/>
<stop offset="0.88" stop-color="#858585"/>
<stop offset="1" stop-color="#808080"/>
</linearGradient>
<linearGradient id="paint2_linear" x1="401.243" y1="5787.97" x2="409.351" y2="5790.69" gradientUnits="userSpaceOnUse">
<stop offset="0.01" stop-color="#D2D2D2"/>
<stop offset="0.02" stop-color="#E6E6E6"/>
<stop offset="0.16" stop-color="#E8E8E8"/>
<stop offset="0.24" stop-color="#E2E2E2"/>
<stop offset="0.34" stop-color="#D1D1D1"/>
<stop offset="0.37" stop-color="#CBCBCB"/>
<stop offset="0.38" stop-color="#B3B3B3"/>
<stop offset="0.78" stop-color="#A3A3A3"/>
<stop offset="0.79" stop-color="#8D8D8D"/>
<stop offset="0.88" stop-color="#858585"/>
<stop offset="1" stop-color="#808080"/>
</linearGradient>
<linearGradient id="paint3_linear" x1="5501.75" y1="3715.23" x2="5518.55" y2="3760.73" gradientUnits="userSpaceOnUse">
<stop offset="0.01" stop-color="#D2D2D2"/>
<stop offset="0.02" stop-color="#E6E6E6"/>
<stop offset="0.16" stop-color="#E8E8E8"/>
<stop offset="0.24" stop-color="#E2E2E2"/>
<stop offset="0.34" stop-color="#D1D1D1"/>
<stop offset="0.37" stop-color="#CBCBCB"/>
<stop offset="0.38" stop-color="#B3B3B3"/>
<stop offset="0.78" stop-color="#A3A3A3"/>
<stop offset="0.79" stop-color="#8D8D8D"/>
<stop offset="0.88" stop-color="#858585"/>
<stop offset="1" stop-color="#808080"/>
</linearGradient>
<linearGradient id="paint4_linear" x1="31.3846" y1="57.8" x2="22.4046" y2="57.8" gradientUnits="userSpaceOnUse">
<stop stop-color="#75491C"/>
<stop offset="0.17" stop-color="#7A4C1D"/>
<stop offset="0.21" stop-color="#7C4D1E"/>
<stop offset="0.22" stop-color="#865320"/>
<stop offset="0.62" stop-color="#8C5722"/>
<stop offset="0.63" stop-color="#A56628"/>
<stop offset="0.84" stop-color="#AA6A29"/>
<stop offset="0.96" stop-color="#AA6A29"/>
<stop offset="0.98" stop-color="#AA6A29"/>
<stop offset="0.99" stop-color="#A76828"/>
</linearGradient>
<linearGradient id="paint5_linear" x1="29.7944" y1="42.9899" x2="36.4144" y2="54.4599" gradientUnits="userSpaceOnUse">
<stop offset="0.01" stop-color="#FDC441"/>
<stop offset="0.02" stop-color="#FFD855"/>
<stop offset="0.16" stop-color="#FFD956"/>
<stop offset="0.24" stop-color="#FED350"/>
<stop offset="0.34" stop-color="#FBC23F"/>
<stop offset="0.37" stop-color="#FABD3A"/>
<stop offset="0.38" stop-color="#E2A423"/>
<stop offset="0.78" stop-color="#DA9216"/>
<stop offset="0.79" stop-color="#D28900"/>
<stop offset="0.8" stop-color="#CF8500"/>
<stop offset="0.87" stop-color="#BE6E00"/>
<stop offset="0.94" stop-color="#B46000"/>
<stop offset="1" stop-color="#B05B00"/>
</linearGradient>
<linearGradient id="paint6_linear" x1="30.8342" y1="40.47" x2="38.8242" y2="54.31" gradientUnits="userSpaceOnUse">
<stop offset="0.01" stop-color="#FCDD4F"/>
<stop offset="0.02" stop-color="#FCF162"/>
<stop offset="0.16" stop-color="#FCF263"/>
<stop offset="0.24" stop-color="#FCEC5D"/>
<stop offset="0.35" stop-color="#FCDB4C"/>
<stop offset="0.37" stop-color="#FCD748"/>
<stop offset="0.38" stop-color="#EDBE30"/>
<stop offset="0.78" stop-color="#E5AD21"/>
<stop offset="0.79" stop-color="#E0970F"/>
<stop offset="0.86" stop-color="#CB8007"/>
<stop offset="0.94" stop-color="#BE7202"/>
<stop offset="1" stop-color="#BA6D00"/>
</linearGradient>
<linearGradient id="paint7_linear" x1="24.9341" y1="44.19" x2="32.7041" y2="57.65" gradientUnits="userSpaceOnUse">
<stop offset="0.01" stop-color="#FACF40"/>
<stop offset="0.02" stop-color="#FCE254"/>
<stop offset="0.16" stop-color="#FCE355"/>
<stop offset="0.24" stop-color="#FBDD4F"/>
<stop offset="0.34" stop-color="#F8CD3E"/>
<stop offset="0.37" stop-color="#F7C839"/>
<stop offset="0.38" stop-color="#DEAF22"/>
<stop offset="0.78" stop-color="#D69E16"/>
<stop offset="0.79" stop-color="#CC9200"/>
<stop offset="0.87" stop-color="#BA7B00"/>
<stop offset="0.94" stop-color="#AF6D00"/>
<stop offset="1" stop-color="#AB6800"/>
</linearGradient>
<linearGradient id="paint8_linear" x1="5588.67" y1="3336.69" x2="5762.51" y2="3552.25" gradientUnits="userSpaceOnUse">
<stop offset="0.01" stop-color="#FCDD4F"/>
<stop offset="0.02" stop-color="#FCF162"/>
<stop offset="0.16" stop-color="#FCF263"/>
<stop offset="0.24" stop-color="#FCEC5D"/>
<stop offset="0.35" stop-color="#FCDB4C"/>
<stop offset="0.37" stop-color="#FCD748"/>
<stop offset="0.38" stop-color="#EDBE30"/>
<stop offset="0.78" stop-color="#E5AD21"/>
<stop offset="0.79" stop-color="#E0970F"/>
<stop offset="0.86" stop-color="#CB8007"/>
<stop offset="0.94" stop-color="#BE7202"/>
<stop offset="1" stop-color="#BA6D00"/>
</linearGradient>
<linearGradient id="paint9_linear" x1="19.254" y1="45.99" x2="28.314" y2="61.6699" gradientUnits="userSpaceOnUse">
<stop offset="0.01" stop-color="#E7E7E7"/>
<stop offset="0.02" stop-color="#FBFBFB"/>
<stop offset="0.16" stop-color="#FCFCFC"/>
<stop offset="0.24" stop-color="#F6F6F6"/>
<stop offset="0.34" stop-color="#E5E5E5"/>
<stop offset="0.37" stop-color="#E0E0E0"/>
<stop offset="0.38" stop-color="#C7C7C7"/>
<stop offset="0.78" stop-color="#B8B8B8"/>
<stop offset="0.79" stop-color="#A2A2A2"/>
<stop offset="0.88" stop-color="#999999"/>
<stop offset="1" stop-color="#949494"/>
</linearGradient>
<linearGradient id="paint10_linear" x1="16.0144" y1="47.15" x2="16.5644" y2="48.11" gradientUnits="userSpaceOnUse">
<stop offset="0.01" stop-color="#EAEAE9"/>
<stop offset="0.02" stop-color="#EAEAEA"/>
<stop offset="0.04" stop-color="#EAEAEA"/>
<stop offset="0.16" stop-color="#EAEAEA"/>
<stop offset="0.37" stop-color="#EAEAE9"/>
<stop offset="0.38" stop-color="#DBDADA"/>
<stop offset="0.78" stop-color="#CCCBCA"/>
<stop offset="0.79" stop-color="#B6B5B4"/>
<stop offset="0.88" stop-color="#ADACAB"/>
<stop offset="1" stop-color="#A8A7A6"/>
</linearGradient>
<linearGradient id="paint11_linear" x1="435.598" y1="269.591" x2="436.263" y2="270.528" gradientUnits="userSpaceOnUse">
<stop offset="0.01" stop-color="#EAEAE9"/>
<stop offset="0.02" stop-color="#EAEAEA"/>
<stop offset="0.04" stop-color="#EAEAEA"/>
<stop offset="0.16" stop-color="#EAEAEA"/>
<stop offset="0.37" stop-color="#EAEAE9"/>
<stop offset="0.38" stop-color="#DBDADA"/>
<stop offset="0.78" stop-color="#CCCBCA"/>
<stop offset="0.79" stop-color="#B6B5B4"/>
<stop offset="0.88" stop-color="#ADACAB"/>
<stop offset="1" stop-color="#A8A7A6"/>
</linearGradient>
<linearGradient id="paint12_linear" x1="15.8841" y1="49.4" x2="23.6441" y2="62.85" gradientUnits="userSpaceOnUse">
<stop offset="0.01" stop-color="#D1D1D1"/>
<stop offset="0.02" stop-color="#E5E5E5"/>
<stop offset="0.16" stop-color="#E6E6E6"/>
<stop offset="0.18" stop-color="#E0E0E0"/>
<stop offset="0.22" stop-color="#CACACA"/>
<stop offset="0.23" stop-color="#B1B1B1"/>
<stop offset="0.77" stop-color="#CFCFCF"/>
<stop offset="0.78" stop-color="#A3A3A3"/>
<stop offset="0.79" stop-color="#8C8C8C"/>
<stop offset="0.82" stop-color="#868686"/>
<stop offset="0.92" stop-color="#787878"/>
<stop offset="1" stop-color="#737373"/>
</linearGradient>
<linearGradient id="paint13_linear" x1="430.492" y1="271.272" x2="431.192" y2="272.225" gradientUnits="userSpaceOnUse">
<stop offset="0.01" stop-color="#EAEAE9"/>
<stop offset="0.02" stop-color="#EAEAEA"/>
<stop offset="0.04" stop-color="#EAEAEA"/>
<stop offset="0.16" stop-color="#EAEAEA"/>
<stop offset="0.37" stop-color="#EAEAE9"/>
<stop offset="0.38" stop-color="#DBDADA"/>
<stop offset="0.78" stop-color="#CCCBCA"/>
<stop offset="0.79" stop-color="#B6B5B4"/>
<stop offset="0.88" stop-color="#ADACAB"/>
<stop offset="1" stop-color="#A8A7A6"/>
</linearGradient>
<linearGradient id="paint14_linear" x1="443.718" y1="290.773" x2="444.416" y2="291.715" gradientUnits="userSpaceOnUse">
<stop offset="0.01" stop-color="#EAEAE9"/>
<stop offset="0.02" stop-color="#EAEAEA"/>
<stop offset="0.04" stop-color="#EAEAEA"/>
<stop offset="0.16" stop-color="#EAEAEA"/>
<stop offset="0.37" stop-color="#EAEAE9"/>
<stop offset="0.38" stop-color="#DBDADA"/>
<stop offset="0.78" stop-color="#CCCBCA"/>
<stop offset="0.79" stop-color="#B6B5B4"/>
<stop offset="0.88" stop-color="#ADACAB"/>
<stop offset="1" stop-color="#A8A7A6"/>
</linearGradient>
<linearGradient id="paint15_linear" x1="436.953" y1="302.258" x2="437.656" y2="303.203" gradientUnits="userSpaceOnUse">
<stop offset="0.01" stop-color="#EAEAE9"/>
<stop offset="0.02" stop-color="#EAEAEA"/>
<stop offset="0.04" stop-color="#EAEAEA"/>
<stop offset="0.16" stop-color="#EAEAEA"/>
<stop offset="0.37" stop-color="#EAEAE9"/>
<stop offset="0.38" stop-color="#DBDADA"/>
<stop offset="0.78" stop-color="#CCCBCA"/>
<stop offset="0.79" stop-color="#B6B5B4"/>
<stop offset="0.88" stop-color="#ADACAB"/>
<stop offset="1" stop-color="#A8A7A6"/>
</linearGradient>
<linearGradient id="paint16_linear" x1="618.639" y1="704.673" x2="622.711" y2="711.47" gradientUnits="userSpaceOnUse">
<stop offset="0.01" stop-color="#D2D2D2"/>
<stop offset="0.02" stop-color="#E6E6E6"/>
<stop offset="0.16" stop-color="#E8E8E8"/>
<stop offset="0.24" stop-color="#E2E2E2"/>
<stop offset="0.34" stop-color="#D1D1D1"/>
<stop offset="0.37" stop-color="#CBCBCB"/>
<stop offset="0.38" stop-color="#B3B3B3"/>
<stop offset="0.78" stop-color="#A3A3A3"/>
<stop offset="0.79" stop-color="#8D8D8D"/>
<stop offset="0.88" stop-color="#858585"/>
<stop offset="1" stop-color="#808080"/>
</linearGradient>
<linearGradient id="paint17_linear" x1="9.7522" y1="56.2478" x2="8.379" y2="53.8846" gradientUnits="userSpaceOnUse">
<stop stop-color="#949494"/>
<stop offset="0.12" stop-color="#999999"/>
<stop offset="0.21" stop-color="#A2A2A2"/>
<stop offset="0.22" stop-color="#C1C1C1"/>
<stop offset="0.62" stop-color="#C7C7C7"/>
<stop offset="0.63" stop-color="#E0E0E0"/>
<stop offset="0.66" stop-color="#E5E5E5"/>
<stop offset="0.76" stop-color="#F6F6F6"/>
<stop offset="0.84" stop-color="#FCFCFC"/>
<stop offset="0.98" stop-color="#FBFBFB"/>
<stop offset="0.99" stop-color="#E2E2E2"/>
</linearGradient>
<linearGradient id="paint18_linear" x1="8.09512" y1="54.5199" x2="9.14892" y2="56.1903" gradientUnits="userSpaceOnUse">
<stop stop-color="#808080"/>
<stop offset="0.12" stop-color="#858585"/>
<stop offset="0.21" stop-color="#8D8D8D"/>
<stop offset="0.22" stop-color="#ACACAC"/>
<stop offset="0.62" stop-color="#B3B3B3"/>
<stop offset="0.63" stop-color="#CBCBCB"/>
<stop offset="0.66" stop-color="#D1D1D1"/>
<stop offset="0.76" stop-color="#E2E2E2"/>
<stop offset="0.84" stop-color="#E8E8E8"/>
<stop offset="0.98" stop-color="#E6E6E6"/>
<stop offset="0.99" stop-color="#CDCDCD"/>
</linearGradient>
<linearGradient id="paint19_linear" x1="4444.58" y1="-2157.89" x2="4454.29" y2="-2150.09" gradientUnits="userSpaceOnUse">
<stop offset="0.01" stop-color="#D2D2D2"/>
<stop offset="0.02" stop-color="#E6E6E6"/>
<stop offset="0.16" stop-color="#E8E8E8"/>
<stop offset="0.24" stop-color="#E2E2E2"/>
<stop offset="0.34" stop-color="#D1D1D1"/>
<stop offset="0.37" stop-color="#CBCBCB"/>
<stop offset="0.38" stop-color="#B3B3B3"/>
<stop offset="0.78" stop-color="#A3A3A3"/>
<stop offset="0.79" stop-color="#8D8D8D"/>
<stop offset="0.88" stop-color="#858585"/>
<stop offset="1" stop-color="#808080"/>
</linearGradient>
<linearGradient id="paint20_linear" x1="-796.826" y1="1015.71" x2="-800.009" y2="1014.7" gradientUnits="userSpaceOnUse">
<stop stop-color="#949494"/>
<stop offset="0.12" stop-color="#999999"/>
<stop offset="0.21" stop-color="#A2A2A2"/>
<stop offset="0.22" stop-color="#C1C1C1"/>
<stop offset="0.62" stop-color="#C7C7C7"/>
<stop offset="0.63" stop-color="#E0E0E0"/>
<stop offset="0.66" stop-color="#E5E5E5"/>
<stop offset="0.76" stop-color="#F6F6F6"/>
<stop offset="0.84" stop-color="#FCFCFC"/>
<stop offset="0.98" stop-color="#FBFBFB"/>
<stop offset="0.99" stop-color="#E2E2E2"/>
</linearGradient>
<linearGradient id="paint21_linear" x1="-674.832" y1="754.242" x2="-672.445" y2="754.883" gradientUnits="userSpaceOnUse">
<stop stop-color="#808080"/>
<stop offset="0.12" stop-color="#858585"/>
<stop offset="0.21" stop-color="#8D8D8D"/>
<stop offset="0.22" stop-color="#ACACAC"/>
<stop offset="0.62" stop-color="#B3B3B3"/>
<stop offset="0.63" stop-color="#CBCBCB"/>
<stop offset="0.66" stop-color="#D1D1D1"/>
<stop offset="0.76" stop-color="#E2E2E2"/>
<stop offset="0.84" stop-color="#E8E8E8"/>
<stop offset="0.98" stop-color="#E6E6E6"/>
<stop offset="0.99" stop-color="#CDCDCD"/>
</linearGradient>
<linearGradient id="paint22_linear" x1="22.1145" y1="34.86" x2="13.1245" y2="34.86" gradientUnits="userSpaceOnUse">
<stop offset="0.01" stop-color="#727272"/>
<stop offset="0.02" stop-color="#757575"/>
<stop offset="0.04" stop-color="#757575"/>
<stop offset="0.16" stop-color="#757575"/>
<stop offset="0.37" stop-color="#707070"/>
<stop offset="0.38" stop-color="#575757"/>
<stop offset="0.78" stop-color="#515151"/>
<stop offset="0.79" stop-color="#474747"/>
<stop offset="0.83" stop-color="#454545"/>
<stop offset="1" stop-color="#404040"/>
</linearGradient>
<linearGradient id="paint23_linear" x1="-1374.11" y1="565.513" x2="-1389.2" y2="565.513" gradientUnits="userSpaceOnUse">
<stop offset="0.01" stop-color="#D2D2D2"/>
<stop offset="0.02" stop-color="#E6E6E6"/>
<stop offset="0.16" stop-color="#E8E8E8"/>
<stop offset="0.24" stop-color="#E2E2E2"/>
<stop offset="0.34" stop-color="#D1D1D1"/>
<stop offset="0.37" stop-color="#CBCBCB"/>
<stop offset="0.38" stop-color="#B3B3B3"/>
<stop offset="0.78" stop-color="#A3A3A3"/>
<stop offset="0.79" stop-color="#8D8D8D"/>
<stop offset="0.88" stop-color="#858585"/>
<stop offset="1" stop-color="#808080"/>
</linearGradient>
<linearGradient id="paint24_linear" x1="3.69451" y1="71.3399" x2="0.584533" y2="71.3399" gradientUnits="userSpaceOnUse">
<stop offset="0.01" stop-color="#797979"/>
<stop offset="0.02" stop-color="#8D8D8D"/>
<stop offset="0.16" stop-color="#8E8E8E"/>
<stop offset="0.24" stop-color="#888888"/>
<stop offset="0.34" stop-color="#777777"/>
<stop offset="0.37" stop-color="#727272"/>
<stop offset="0.38" stop-color="#595959"/>
<stop offset="0.78" stop-color="#4A4A4A"/>
<stop offset="0.79" stop-color="#343434"/>
<stop offset="0.88" stop-color="#2B2B2B"/>
<stop offset="1" stop-color="#262626"/>
</linearGradient>
<linearGradient id="paint25_linear" x1="9000.48" y1="-4807.28" x2="9009.25" y2="-4797.05" gradientUnits="userSpaceOnUse">
<stop stop-color="#808080"/>
<stop offset="0.12" stop-color="#858585"/>
<stop offset="0.21" stop-color="#8D8D8D"/>
<stop offset="0.22" stop-color="#ACACAC"/>
<stop offset="0.62" stop-color="#B3B3B3"/>
<stop offset="0.63" stop-color="#CBCBCB"/>
<stop offset="0.66" stop-color="#D1D1D1"/>
<stop offset="0.76" stop-color="#E2E2E2"/>
<stop offset="0.84" stop-color="#E8E8E8"/>
<stop offset="0.98" stop-color="#E6E6E6"/>
<stop offset="0.99" stop-color="#CDCDCD"/>
</linearGradient>
<linearGradient id="paint26_linear" x1="1308.92" y1="1331.81" x2="1315.03" y2="1344.66" gradientUnits="userSpaceOnUse">
<stop offset="0.01" stop-color="#D2D2D2"/>
<stop offset="0.02" stop-color="#E6E6E6"/>
<stop offset="0.16" stop-color="#E8E8E8"/>
<stop offset="0.24" stop-color="#E2E2E2"/>
<stop offset="0.34" stop-color="#D1D1D1"/>
<stop offset="0.37" stop-color="#CBCBCB"/>
<stop offset="0.38" stop-color="#B3B3B3"/>
<stop offset="0.78" stop-color="#A3A3A3"/>
<stop offset="0.79" stop-color="#8D8D8D"/>
<stop offset="0.88" stop-color="#858585"/>
<stop offset="1" stop-color="#808080"/>
</linearGradient>
<linearGradient id="paint27_linear" x1="633.418" y1="638.125" x2="637.484" y2="644.934" gradientUnits="userSpaceOnUse">
<stop offset="0.01" stop-color="#D2D2D2"/>
<stop offset="0.02" stop-color="#E6E6E6"/>
<stop offset="0.16" stop-color="#E8E8E8"/>
<stop offset="0.24" stop-color="#E2E2E2"/>
<stop offset="0.34" stop-color="#D1D1D1"/>
<stop offset="0.37" stop-color="#CBCBCB"/>
<stop offset="0.38" stop-color="#B3B3B3"/>
<stop offset="0.78" stop-color="#A3A3A3"/>
<stop offset="0.79" stop-color="#8D8D8D"/>
<stop offset="0.88" stop-color="#858585"/>
<stop offset="1" stop-color="#808080"/>
</linearGradient>
<linearGradient id="paint28_linear" x1="1531.39" y1="1064.35" x2="1535.56" y2="1069.37" gradientUnits="userSpaceOnUse">
<stop stop-color="#949494"/>
<stop offset="0.12" stop-color="#999999"/>
<stop offset="0.21" stop-color="#A2A2A2"/>
<stop offset="0.22" stop-color="#C1C1C1"/>
<stop offset="0.62" stop-color="#C7C7C7"/>
<stop offset="0.63" stop-color="#E0E0E0"/>
<stop offset="0.66" stop-color="#E5E5E5"/>
<stop offset="0.76" stop-color="#F6F6F6"/>
<stop offset="0.84" stop-color="#FCFCFC"/>
<stop offset="0.98" stop-color="#FBFBFB"/>
<stop offset="0.99" stop-color="#E2E2E2"/>
</linearGradient>
<linearGradient id="paint29_linear" x1="1229.55" y1="838.19" x2="1227.32" y2="835.204" gradientUnits="userSpaceOnUse">
<stop stop-color="#808080"/>
<stop offset="0.12" stop-color="#858585"/>
<stop offset="0.21" stop-color="#8D8D8D"/>
<stop offset="0.22" stop-color="#ACACAC"/>
<stop offset="0.62" stop-color="#B3B3B3"/>
<stop offset="0.63" stop-color="#CBCBCB"/>
<stop offset="0.66" stop-color="#D1D1D1"/>
<stop offset="0.76" stop-color="#E2E2E2"/>
<stop offset="0.84" stop-color="#E8E8E8"/>
<stop offset="0.98" stop-color="#E6E6E6"/>
<stop offset="0.99" stop-color="#CDCDCD"/>
</linearGradient>
<linearGradient id="paint30_linear" x1="2196.26" y1="1847.19" x2="2204.84" y2="1867.84" gradientUnits="userSpaceOnUse">
<stop offset="0.01" stop-color="#D2D2D2"/>
<stop offset="0.02" stop-color="#E6E6E6"/>
<stop offset="0.16" stop-color="#E8E8E8"/>
<stop offset="0.24" stop-color="#E2E2E2"/>
<stop offset="0.34" stop-color="#D1D1D1"/>
<stop offset="0.37" stop-color="#CBCBCB"/>
<stop offset="0.38" stop-color="#B3B3B3"/>
<stop offset="0.78" stop-color="#A3A3A3"/>
<stop offset="0.79" stop-color="#8D8D8D"/>
<stop offset="0.88" stop-color="#858585"/>
<stop offset="1" stop-color="#808080"/>
</linearGradient>
<linearGradient id="paint31_linear" x1="18.8846" y1="22.8999" x2="14.5446" y2="30.4199" gradientUnits="userSpaceOnUse">
<stop offset="0.01" stop-color="#F7AA7D"/>
<stop offset="0.02" stop-color="#F7BE8A"/>
<stop offset="0.16" stop-color="#F7C08B"/>
<stop offset="0.22" stop-color="#F7BA87"/>
<stop offset="0.31" stop-color="#F7A97C"/>
<stop offset="0.37" stop-color="#F79871"/>
<stop offset="0.38" stop-color="#E87856"/>
<stop offset="0.78" stop-color="#DE5942"/>
<stop offset="0.79" stop-color="#DB4334"/>
<stop offset="0.86" stop-color="#C83129"/>
<stop offset="0.93" stop-color="#BA2422"/>
<stop offset="1" stop-color="#B51F1F"/>
</linearGradient>
<linearGradient id="paint32_linear" x1="1672.38" y1="1138.09" x2="1657.31" y2="1122.2" gradientUnits="userSpaceOnUse">
<stop offset="0.01" stop-color="#F7AA7D"/>
<stop offset="0.02" stop-color="#F7BE8A"/>
<stop offset="0.16" stop-color="#F7C08B"/>
<stop offset="0.22" stop-color="#F7BA87"/>
<stop offset="0.31" stop-color="#F7A97C"/>
<stop offset="0.37" stop-color="#F79871"/>
<stop offset="0.38" stop-color="#E87856"/>
<stop offset="0.78" stop-color="#DE5942"/>
<stop offset="0.79" stop-color="#DB4334"/>
<stop offset="0.86" stop-color="#C83129"/>
<stop offset="0.93" stop-color="#BA2422"/>
<stop offset="1" stop-color="#B51F1F"/>
</linearGradient>
<linearGradient id="paint33_linear" x1="20.6044" y1="29.9" x2="13.8144" y2="20.16" gradientUnits="userSpaceOnUse">
<stop offset="0.17" stop-color="#BECCCB"/>
<stop offset="0.39" stop-color="#ABB9B7"/>
<stop offset="0.84" stop-color="#798784"/>
<stop offset="1" stop-color="#65736F"/>
</linearGradient>
</defs>
</svg>
