<svg width="122" height="122" viewBox="0 0 122 122" fill="none" xmlns="http://www.w3.org/2000/svg">
<path d="M108.642 62.7038H62.5776C61.6555 62.7038 60.9097 61.9579 60.9097 61.0358V35.3991C60.9097 34.944 61.0955 34.5103 61.4244 34.1958L75.7808 20.4422C76.0906 20.1443 76.5052 19.9775 76.9341 19.9775H108.642C109.564 19.9775 110.31 20.7234 110.31 21.6455V29.8352C110.31 30.7574 109.564 31.5032 108.642 31.5032C107.72 31.5032 106.974 30.7574 106.974 29.8352V23.3111H77.6037L64.2456 36.1092V59.3654H106.974V39.9002C106.974 38.9781 107.72 38.2323 108.642 38.2323C109.564 38.2323 110.31 38.9781 110.31 39.9002V61.0334C110.31 61.9579 109.564 62.7038 108.642 62.7038Z" fill="#1B3954"/>
<path d="M108.642 36.5357C108.534 36.5357 108.425 36.5261 108.315 36.5047C108.21 36.4832 108.105 36.4499 108.003 36.4094C107.903 36.3665 107.808 36.3165 107.717 36.2545C107.624 36.1949 107.538 36.1258 107.462 36.0472C107.386 35.9709 107.317 35.8852 107.255 35.7946C107.195 35.7041 107.143 35.6064 107.102 35.5063C107.059 35.4062 107.028 35.3014 107.007 35.1941C106.986 35.0869 106.974 34.9773 106.974 34.8677C106.974 34.7605 106.986 34.6509 107.007 34.5436C107.028 34.4364 107.059 34.3316 107.102 34.2315C107.143 34.129 107.195 34.0337 107.255 33.9432C107.317 33.8526 107.386 33.7668 107.462 33.6882C107.538 33.612 107.624 33.5429 107.717 33.4809C107.808 33.4213 107.903 33.3713 108.003 33.3284C108.105 33.2879 108.21 33.2545 108.315 33.2331C108.532 33.1902 108.754 33.1902 108.968 33.2331C109.075 33.2545 109.18 33.2879 109.28 33.3284C109.38 33.3713 109.478 33.4213 109.569 33.4809C109.659 33.5429 109.745 33.612 109.821 33.6882C109.897 33.7668 109.969 33.8526 110.028 33.9432C110.088 34.0337 110.14 34.129 110.181 34.2315C110.224 34.3316 110.257 34.4364 110.279 34.5436C110.3 34.6509 110.31 34.7605 110.31 34.8677C110.31 34.9773 110.3 35.0869 110.279 35.1941C110.257 35.3014 110.224 35.4062 110.181 35.5063C110.14 35.6064 110.088 35.7041 110.028 35.7946C109.969 35.8852 109.897 35.9709 109.821 36.0472C109.745 36.1258 109.659 36.1949 109.569 36.2545C109.478 36.3165 109.38 36.3665 109.28 36.4094C109.18 36.4499 109.075 36.4832 108.968 36.5047C108.861 36.5261 108.751 36.5357 108.642 36.5357Z" fill="#1B3954"/>
<path d="M98.0741 54.3759H73.1475C72.2253 54.3759 71.4795 53.63 71.4795 52.7079V39.9074C71.4795 39.4523 71.6654 39.0186 71.9942 38.7041L80.0266 31.0076C80.3364 30.7098 80.751 30.543 81.1799 30.543H98.0741C98.9962 30.543 99.742 31.2888 99.742 32.2109V52.7079C99.742 53.63 98.9962 54.3759 98.0741 54.3759ZM74.8154 51.0399H96.4061V33.8789H81.8495L74.813 40.6199V51.0399H74.8154Z" fill="#B72A27"/>
<path d="M61.5957 102.025C61.1573 102.025 60.726 101.846 60.4162 101.537C60.34 101.458 60.2709 101.375 60.2089 101.282C60.1493 101.191 60.0969 101.096 60.0564 100.993C60.0135 100.893 59.9825 100.788 59.9611 100.681C59.9396 100.574 59.9277 100.464 59.9277 100.357C59.9277 100.248 59.9396 100.138 59.9611 100.031C59.9825 99.9234 60.0135 99.8186 60.0564 99.7185C60.0969 99.6184 60.1493 99.5207 60.2089 99.4302C60.2709 99.3397 60.34 99.2539 60.4162 99.1776C60.8046 98.7892 61.3789 98.6129 61.9221 98.7201C62.027 98.7416 62.1318 98.7749 62.2343 98.8154C62.3344 98.8583 62.4321 98.9084 62.5226 98.9703C62.6132 99.0299 62.6989 99.099 62.7752 99.1776C62.8514 99.2539 62.9229 99.3397 62.9825 99.4302C63.0421 99.5207 63.0945 99.6184 63.135 99.7185C63.1779 99.8186 63.2089 99.9234 63.2303 100.031C63.2518 100.138 63.2637 100.248 63.2637 100.357C63.2637 100.796 63.085 101.224 62.7752 101.537C62.6989 101.613 62.6132 101.682 62.5226 101.744C62.4321 101.803 62.3344 101.854 62.2343 101.896C62.1318 101.937 62.027 101.97 61.9221 101.992C61.8149 102.013 61.7053 102.025 61.5957 102.025Z" fill="#1B3954"/>
<path d="M108.232 102.025H67.181C66.2589 102.025 65.513 101.279 65.513 100.357C65.513 99.435 66.2589 98.6891 67.181 98.6891H108.234C112.211 98.6891 115.45 95.4533 115.45 91.474V90.478C115.45 86.5011 112.214 83.2628 108.234 83.2628H43.1361C39.1591 83.2628 35.9209 86.4987 35.9209 90.478V91.474C35.9209 95.4509 39.1568 98.6891 43.1361 98.6891H56.7467C57.6688 98.6891 58.4146 99.435 58.4146 100.357C58.4146 101.279 57.6688 102.025 56.7467 102.025H43.1361C37.3196 102.025 32.585 97.2928 32.585 91.474V90.478C32.585 84.6615 37.3172 79.9269 43.1361 79.9269H108.232C114.049 79.9269 118.783 84.6591 118.783 90.478V91.474C118.783 97.2904 114.051 102.025 108.232 102.025Z" fill="#1B3954"/>
<path d="M108.642 75.0113H39.2759C38.3537 75.0113 37.6079 74.2655 37.6079 73.3434V67.6437C37.6079 67.1957 37.7866 66.7668 38.1059 66.4547L44.8326 59.8471C45.1447 59.5397 45.5641 59.3682 46.0026 59.3682H108.642C109.564 59.3682 110.31 60.114 110.31 61.0361V73.3434C110.31 74.2655 109.564 75.0113 108.642 75.0113ZM40.9438 71.6754H106.974V62.7041H46.684L40.9438 68.3442V71.6754Z" fill="#1B3954"/>
<path d="M39.2759 69.3109C38.8447 69.3109 38.4134 69.1441 38.0869 68.8129C37.4412 68.1553 37.4507 67.0997 38.1084 66.4539L43.6198 61.0402L19.1722 37.1573C18.7027 37.9627 18.1047 38.6918 17.4017 39.3089L34.2816 59.1864C34.8773 59.8893 34.7915 60.9401 34.0909 61.5382C33.388 62.1339 32.3348 62.0481 31.7391 61.3476L13.6679 40.0691C13.339 39.6807 13.2056 39.166 13.3033 38.6656C13.401 38.1676 13.7227 37.7411 14.173 37.5075C15.5765 36.7808 16.594 35.4273 16.8918 33.8833C17.0086 33.2804 17.447 32.792 18.0332 32.6085C18.6193 32.425 19.2579 32.5799 19.6964 33.0064L47.1678 59.844C47.4895 60.1562 47.6706 60.5875 47.6706 61.0354C47.6706 61.4834 47.4919 61.9123 47.1726 62.2268L40.4459 68.8344C40.1195 69.1513 39.6977 69.3109 39.2759 69.3109Z" fill="#1B3954"/>
<path d="M14.9905 69.6426H9.73159C8.83327 69.6426 8.0946 68.9301 8.06362 68.0318L7.06046 39.1068C7.0414 38.5207 7.32972 37.9655 7.82296 37.6462C8.3162 37.3269 8.9405 37.2935 9.4671 37.5532C10.1843 37.9083 10.9587 38.0894 11.7713 38.0894C12.5838 38.0894 13.3606 37.9083 14.0778 37.5532C14.5925 37.2983 15.2049 37.3245 15.6934 37.6271C16.1842 37.9297 16.4821 38.4611 16.4869 39.0377L16.6584 67.9627C16.6608 68.4059 16.4869 68.8324 16.1723 69.1493C15.8602 69.4663 15.4337 69.6426 14.9905 69.6426ZM11.3424 66.3066H13.313L13.1652 41.3157C12.286 41.4587 11.3591 41.4634 10.475 41.33L11.3424 66.3066Z" fill="#1B3954"/>
<path d="M23.9856 86.0049H11.1756C10.668 86.0049 10.1891 85.7738 9.87219 85.3782L7.68 82.6356C7.4441 82.3402 7.31543 81.9732 7.31543 81.5943V67.9766C7.31543 67.0544 8.06125 66.3086 8.9834 66.3086H17.0468C17.969 66.3086 18.7148 67.0544 18.7148 67.9766V76.8025H21.2406L25.9323 72.1084C26.4089 71.6318 27.1261 71.4888 27.7504 71.7462C28.3747 72.0035 28.7798 72.6135 28.7798 73.2879V81.2965C28.7798 81.7468 28.5987 82.1781 28.2746 82.4927L25.1484 85.5355C24.8386 85.8357 24.4216 86.0049 23.9856 86.0049ZM11.9786 82.669H23.3089L25.4439 80.5912V77.3148L23.1111 79.65C22.7989 79.9621 22.3748 80.1384 21.9316 80.1384H17.0468C16.1247 80.1384 15.3789 79.3926 15.3789 78.4705V69.6445H10.6514V81.0105L11.9786 82.669Z" fill="#B72A27"/>
<path d="M44.7703 96.2849C41.8419 96.2849 39.4614 93.9045 39.4614 90.976C39.4614 88.0475 41.8419 85.6671 44.7703 85.6671C47.6964 85.6671 50.0792 88.0475 50.0792 90.976C50.0792 93.9045 47.6964 96.2849 44.7703 96.2849ZM44.7703 89.0031C43.6814 89.0031 42.7974 89.8871 42.7974 90.976C42.7974 92.065 43.6814 92.949 44.7703 92.949C45.8569 92.949 46.7433 92.065 46.7433 90.976C46.7433 89.8871 45.8593 89.0031 44.7703 89.0031Z" fill="#B72A27"/>
<path d="M60.2274 96.2849C57.2989 96.2849 54.9185 93.9045 54.9185 90.976C54.9185 88.0475 57.2989 85.6671 60.2274 85.6671C63.1558 85.6671 65.5363 88.0475 65.5363 90.976C65.5363 93.9045 63.1535 96.2849 60.2274 96.2849ZM60.2274 89.0031C59.1384 89.0031 58.2544 89.8871 58.2544 90.976C58.2544 92.065 59.1384 92.949 60.2274 92.949C61.3163 92.949 62.2003 92.065 62.2003 90.976C62.2003 89.8871 61.3139 89.0031 60.2274 89.0031Z" fill="#B72A27"/>
<path d="M75.6849 96.2849C72.7564 96.2849 70.376 93.9045 70.376 90.976C70.376 88.0475 72.7564 85.6671 75.6849 85.6671C78.611 85.6671 80.9938 88.0475 80.9938 90.976C80.9938 93.9045 78.611 96.2849 75.6849 96.2849ZM75.6849 89.0031C74.5959 89.0031 73.7119 89.8871 73.7119 90.976C73.7119 92.065 74.5959 92.949 75.6849 92.949C76.7714 92.949 77.6578 92.065 77.6578 90.976C77.6578 89.8871 76.7714 89.0031 75.6849 89.0031Z" fill="#B72A27"/>
<path d="M91.1424 96.2849C88.2139 96.2849 85.8335 93.9045 85.8335 90.976C85.8335 88.0475 88.2139 85.6671 91.1424 85.6671C94.0709 85.6671 96.4513 88.0475 96.4513 90.976C96.4513 93.9045 94.0685 96.2849 91.1424 96.2849ZM91.1424 89.0031C90.0535 89.0031 89.1694 89.8871 89.1694 90.976C89.1694 92.065 90.0535 92.949 91.1424 92.949C92.2313 92.949 93.1154 92.065 93.1154 90.976C93.1154 89.8871 92.229 89.0031 91.1424 89.0031Z" fill="#B72A27"/>
<path d="M106.599 96.2849C103.671 96.2849 101.291 93.9045 101.291 90.976C101.291 88.0475 103.671 85.6671 106.599 85.6671C109.526 85.6671 111.908 88.0475 111.908 90.976C111.908 93.9045 109.526 96.2849 106.599 96.2849ZM106.599 89.0031C105.51 89.0031 104.626 89.8871 104.626 90.976C104.626 92.065 105.51 92.949 106.599 92.949C107.686 92.949 108.572 92.065 108.572 90.976C108.57 89.8871 107.686 89.0031 106.599 89.0031Z" fill="#B72A27"/>
<path d="M11.771 27.6501C8.8926 27.6501 6.55268 29.9924 6.55268 32.8709C6.55268 34.8724 7.66783 36.6667 9.46447 37.5531C10.1841 37.9105 10.9609 38.0916 11.771 38.0916C12.5836 38.0916 13.3604 37.9105 14.0776 37.5555C14.0871 37.5507 14.099 37.546 14.1086 37.5412C14.13 37.5293 14.1515 37.5174 14.1729 37.5055C15.5764 36.7787 16.5938 35.4253 16.8917 33.8812C16.9608 33.55 16.9918 33.2164 16.9918 32.8733C16.9942 29.9925 14.6519 27.6501 11.771 27.6501ZM11.771 41.4276C10.4414 41.4276 9.16662 41.1297 7.98475 40.5435C5.04436 39.0948 3.21436 36.1544 3.21436 32.8709C3.21436 28.1529 7.05307 24.3142 11.7687 24.3142C16.4866 24.3142 20.3277 28.1529 20.3277 32.8709C20.3277 33.438 20.2729 33.998 20.1633 34.5317C19.6772 37.0337 18.0283 39.2473 15.7503 40.4435C15.6788 40.484 15.605 40.5221 15.5287 40.5578C14.3564 41.1345 13.0935 41.4276 11.771 41.4276Z" fill="#B72A27"/>
</svg>
