<svg width="60" height="60" viewBox="0 0 60 60" fill="none" xmlns="http://www.w3.org/2000/svg">
<path d="M51.9082 31.2715C52.8926 29.9707 53.4375 28.377 53.4375 26.7188C53.4375 24.0879 51.9668 21.5977 49.5996 20.209C48.9902 19.8516 48.2963 19.6634 47.5898 19.6641H33.5391L33.8906 12.4629C33.9727 10.7227 33.3574 9.07036 32.1621 7.81059C31.5755 7.18966 30.8678 6.69563 30.0827 6.35902C29.2976 6.02241 28.4519 5.85038 27.5977 5.85356C24.5508 5.85356 21.8555 7.90434 21.0469 10.8399L16.0137 29.0625H15.9961V54.1407H43.6699C44.209 54.1407 44.7363 54.0352 45.2227 53.8243C48.0117 52.6348 49.8105 49.9102 49.8105 46.8868C49.8105 46.1485 49.7051 45.4219 49.4941 44.7188C50.4785 43.418 51.0234 41.8243 51.0234 40.1661C51.0234 39.4278 50.918 38.7012 50.707 37.9981C51.6914 36.6973 52.2363 35.1036 52.2363 33.4454C52.2246 32.7071 52.1191 31.9747 51.9082 31.2715ZM6.5625 30.9375V52.2657C6.5625 53.3028 7.40039 54.1407 8.4375 54.1407H12.2461V29.0625H8.4375C7.40039 29.0625 6.5625 29.9004 6.5625 30.9375Z" fill="#DB4D30"/>
</svg>
