<svg width="60" height="60" viewBox="0 0 60 60" fill="none" xmlns="http://www.w3.org/2000/svg">
<path d="M36.885 25C39.3 25 41.26 26.96 41.26 29.375V37.5H41.25V40H18.75V32.5H18.755V29.375C18.755 26.96 20.7125 25 23.13 25H36.885Z" fill="#DB4D30"/>
<path d="M55 29.375C55 28.2147 54.5391 27.1019 53.7186 26.2814C52.8981 25.4609 51.7853 25 50.625 25H42.1875C43.17 26.1875 43.76 27.7125 43.76 29.375V32.5H43.75V40H53.125C53.6223 40 54.0992 39.8025 54.4508 39.4508C54.8025 39.0992 55 38.6223 55 38.125V29.375Z" fill="#DB4D30"/>
<path d="M16.25 37.5H16.255V29.375L16.2775 28.825C16.39 27.375 16.9525 26.055 17.8275 25H9.375L9.015 25.015C7.92075 25.1053 6.90047 25.6038 6.1567 26.4115C5.41293 27.2192 5.00004 28.277 5 29.375V38.125C5 39.16 5.84 40 6.875 40H16.25V37.5Z" fill="#DB4D30"/>
<path d="M30 7.5C31.9891 7.5 33.8968 8.29018 35.3033 9.6967C36.7098 11.1032 37.5 13.0109 37.5 15C37.5 16.9891 36.7098 18.8968 35.3033 20.3033C33.8968 21.7098 31.9891 22.5 30 22.5C28.0109 22.5 26.1032 21.7098 24.6967 20.3033C23.2902 18.8968 22.5 16.9891 22.5 15C22.5 13.0109 23.2902 11.1032 24.6967 9.6967C26.1032 8.29018 28.0109 7.5 30 7.5Z" fill="#DB4D30"/>
<path d="M46.25 10C47.9076 10 49.4973 10.6585 50.6694 11.8306C51.8415 13.0027 52.5 14.5924 52.5 16.25C52.5 17.9076 51.8415 19.4973 50.6694 20.6694C49.4973 21.8415 47.9076 22.5 46.25 22.5C44.5924 22.5 43.0027 21.8415 41.8306 20.6694C40.6585 19.4973 40 17.9076 40 16.25C40 14.5924 40.6585 13.0027 41.8306 11.8306C43.0027 10.6585 44.5924 10 46.25 10Z" fill="#DB4D30"/>
<path d="M13.75 10C15.4076 10 16.9973 10.6585 18.1694 11.8306C19.3415 13.0027 20 14.5924 20 16.25C20 17.9076 19.3415 19.4973 18.1694 20.6694C16.9973 21.8415 15.4076 22.5 13.75 22.5C12.0924 22.5 10.5027 21.8415 9.33058 20.6694C8.15848 19.4973 7.5 17.9076 7.5 16.25C7.5 14.5924 8.15848 13.0027 9.33058 11.8306C10.5027 10.6585 12.0924 10 13.75 10Z" fill="#DB4D30"/>
<path d="M5 44.375C5 43.8777 5.19754 43.4008 5.54917 43.0492C5.90081 42.6975 6.37772 42.5 6.875 42.5H53.125C53.6223 42.5 54.0992 42.6975 54.4508 43.0492C54.8025 43.4008 55 43.8777 55 44.375V45.625C55 48.1114 54.0123 50.496 52.2541 52.2541C50.496 54.0123 48.1114 55 45.625 55H14.375C11.8886 55 9.50403 54.0123 7.74587 52.2541C5.98772 50.496 5 48.1114 5 45.625V44.375Z" fill="#DB4D30"/>
</svg>
