<svg width="18" height="18" viewBox="0 0 18 18" fill="none" xmlns="http://www.w3.org/2000/svg">
<path d="M17.6572 9.77458C17.4287 10.0033 17.1533 10.1177 16.8311 10.1177C16.5088 10.1177 16.2363 10.0004 16.0137 9.76578L15.75 9.51946V16.874H17.4375C17.5898 16.874 17.7217 16.9297 17.833 17.0411C17.9443 17.1525 18 17.2845 18 17.437C18 17.5895 17.9443 17.7214 17.833 17.8329C17.7217 17.9443 17.5898 18 17.4375 18H0.580078C0.427734 18 0.295898 17.9443 0.18457 17.8329C0.0732422 17.7214 0.0175781 17.5895 0.0175781 17.437C0.0175781 17.2845 0.0732422 17.1525 0.18457 17.0411C0.295898 16.9297 0.427734 16.874 0.580078 16.874H2.25V9.51946L1.98633 9.76578C1.76367 10.0004 1.49121 10.1177 1.16895 10.1177C0.84668 10.1177 0.571289 10.0033 0.342773 9.77458C0.114258 9.54585 0 9.2702 0 8.94763C0 8.62507 0.111328 8.35236 0.333984 8.12949L8.13867 0.335133C8.37305 0.10054 8.66016 -0.0108918 9 0.000837833C9.33984 -0.0108918 9.62695 0.10054 9.86133 0.335133L17.6484 8.12949C17.8828 8.35236 18 8.62507 18 8.94763C18 9.2702 17.8857 9.54585 17.6572 9.77458ZM7.875 11.8067C7.875 11.6543 7.81934 11.5223 7.70801 11.4109C7.59668 11.2994 7.46484 11.2437 7.3125 11.2437H5.0625C4.91016 11.2437 4.77832 11.2994 4.66699 11.4109C4.55566 11.5223 4.5 11.6543 4.5 11.8067V16.874H7.875V11.8067ZM13.5 11.8067C13.5 11.6543 13.4443 11.5223 13.333 11.4109C13.2217 11.2994 13.0898 11.2437 12.9375 11.2437H10.6875C10.5352 11.2437 10.4033 11.2994 10.292 11.4109C10.1807 11.5223 10.125 11.6543 10.125 11.8067V14.0588C10.125 14.2113 10.1807 14.3433 10.292 14.4547C10.4033 14.5661 10.5352 14.6219 10.6875 14.6219H12.9375C13.0898 14.6219 13.2217 14.5661 13.333 14.4547C13.4443 14.3433 13.5 14.2113 13.5 14.0588V11.8067Z" fill="#B72A27"/>
</svg>
