<svg width="122" height="122" viewBox="0 0 122 122" fill="none" xmlns="http://www.w3.org/2000/svg">
<path d="M28.8559 96.5846C27.9337 96.5846 27.1879 95.8388 27.1879 94.9166C27.1879 89.2265 22.5605 84.599 16.8703 84.599C11.1802 84.599 6.55273 89.2265 6.55273 94.9166C6.55273 95.8388 5.80691 96.5846 4.88477 96.5846C3.96262 96.5846 3.2168 95.8388 3.2168 94.9166V27.0827C3.2168 19.553 9.34063 13.4292 16.8703 13.4292C24.4 13.4292 30.5238 19.553 30.5238 27.0827V94.9166C30.5238 95.8388 29.778 96.5846 28.8559 96.5846ZM16.8703 81.2631C20.9854 81.2631 24.6836 83.0931 27.1879 85.9835V27.0827C27.1879 21.3926 22.5605 16.7651 16.8703 16.7651C11.1802 16.7651 6.55273 21.3926 6.55273 27.0827V85.9835C9.05707 83.0931 12.7552 81.2631 16.8703 81.2631Z" fill="#1B3954"/>
<path d="M117.115 108.57C116.193 108.57 115.447 107.824 115.447 106.902V28.7507H30.5238V94.9167C30.5238 95.8388 29.778 96.5846 28.8559 96.5846C27.9337 96.5846 27.1879 95.8388 27.1879 94.9167C27.1879 89.2265 22.5605 84.5991 16.8703 84.5991C11.1802 84.5991 6.55273 89.2265 6.55273 94.9167C6.55273 100.607 11.1802 105.234 16.8703 105.234H107.577C108.499 105.234 109.245 105.98 109.245 106.902C109.245 107.824 108.499 108.57 107.577 108.57H16.8703C9.34301 108.57 3.2168 102.446 3.2168 94.9167C3.2168 87.387 9.34301 81.2632 16.8703 81.2632C20.9854 81.2632 24.6836 83.0932 27.1879 85.9835V27.0828C27.1879 26.1606 27.9337 25.4148 28.8559 25.4148H117.115C118.037 25.4148 118.783 26.1606 118.783 27.0828V106.902C118.783 107.824 118.037 108.57 117.115 108.57Z" fill="#1B3954"/>
<path d="M54.1611 56.158H37.8555C36.9333 56.158 36.1875 55.4122 36.1875 54.49V38.1844C36.1875 37.2623 36.9333 36.5165 37.8555 36.5165H54.1611C55.0832 36.5165 55.829 37.2623 55.829 38.1844V54.49C55.829 55.4122 55.0808 56.158 54.1611 56.158ZM39.5234 52.8221H52.4931V39.8524H39.5234V52.8221Z" fill="#1B3954"/>
<path d="M68.2745 96.6775H55.9243C55.0022 96.6775 54.2564 95.9317 54.2564 95.0096C54.2564 94.0874 55.0022 93.3416 55.9243 93.3416H66.6065V66.2585H39.5234V93.3416H41.749C42.6711 93.3416 43.417 94.0874 43.417 95.0096C43.417 95.9317 42.6711 96.6775 41.749 96.6775H37.8555C36.9333 96.6775 36.1875 95.9317 36.1875 95.0096V64.5906C36.1875 63.6684 36.9333 62.9226 37.8555 62.9226H68.2745C69.1966 62.9226 69.9424 63.6684 69.9424 64.5906V95.0096C69.9424 95.9293 69.1966 96.6775 68.2745 96.6775Z" fill="#B72A27"/>
<path d="M48.0469 96.6774C47.6061 96.6774 47.1771 96.4987 46.8674 96.1889C46.7911 96.1103 46.7197 96.0269 46.6601 95.9339C46.6005 95.8434 46.5481 95.7481 46.5052 95.6456C46.4647 95.5455 46.4337 95.4407 46.4123 95.3335C46.3884 95.2262 46.3789 95.1166 46.3789 95.0094C46.3789 94.8998 46.3884 94.7902 46.4123 94.6829C46.4337 94.5757 46.4647 94.4709 46.5052 94.3708C46.5481 94.2707 46.6005 94.173 46.6601 94.0825C46.7197 93.9919 46.7911 93.9062 46.8674 93.8299C47.1771 93.5178 47.6061 93.3414 48.0469 93.3414C48.4853 93.3414 48.9142 93.5178 49.2264 93.8299C49.3026 93.9062 49.3717 93.9919 49.4337 94.0825C49.4932 94.173 49.5457 94.2707 49.5862 94.3708C49.6291 94.4709 49.66 94.5757 49.6815 94.6829C49.7029 94.7902 49.7148 94.8998 49.7148 95.0094C49.7148 95.1166 49.7029 95.2262 49.6815 95.3335C49.66 95.4407 49.6291 95.5455 49.5862 95.6456C49.5457 95.7481 49.4932 95.8434 49.4337 95.9339C49.3717 96.0269 49.3026 96.1103 49.2264 96.1889C48.9142 96.4987 48.4853 96.6774 48.0469 96.6774Z" fill="#B72A27"/>
<path d="M104.048 56.158H61C60.0779 56.158 59.332 55.4122 59.332 54.49V38.1844C59.332 37.2623 60.0779 36.5165 61 36.5165H82.0641C82.9862 36.5165 83.732 37.2623 83.732 38.1844C83.732 39.1066 82.9862 39.8524 82.0641 39.8524H62.668V52.8221H102.38V39.8524H94.6787C93.7565 39.8524 93.0107 39.1066 93.0107 38.1844C93.0107 37.2623 93.7565 36.5165 94.6787 36.5165H104.048C104.97 36.5165 105.716 37.2623 105.716 38.1844V54.49C105.716 55.4122 104.97 56.158 104.048 56.158Z" fill="#B72A27"/>
<path d="M87.9877 39.8546C87.8781 39.8546 87.7685 39.8427 87.6613 39.8212C87.5541 39.7998 87.4492 39.7688 87.3491 39.7259C87.2491 39.6854 87.1514 39.633 87.0608 39.5734C86.9703 39.5115 86.8845 39.4424 86.8082 39.3661C86.7296 39.2875 86.6605 39.2041 86.6009 39.1112C86.539 39.0206 86.4889 38.9253 86.4461 38.8252C86.4055 38.7228 86.3722 38.6179 86.3507 38.5131C86.3293 38.4035 86.3174 38.2939 86.3174 38.1866C86.3174 38.077 86.3293 37.9674 86.3507 37.8602C86.3722 37.753 86.4055 37.6481 86.4461 37.548C86.4889 37.448 86.539 37.3503 86.6009 37.2597C86.6605 37.1692 86.7296 37.0834 86.8082 37.0071C86.8845 36.9309 86.9703 36.8594 87.0608 36.7998C87.1514 36.7403 87.2491 36.6878 87.3491 36.645C87.4492 36.6044 87.5541 36.5735 87.6613 36.552C87.8757 36.5067 88.0973 36.5067 88.3118 36.552C88.419 36.5735 88.5239 36.6044 88.6239 36.645C88.724 36.6878 88.8217 36.7403 88.9123 36.7998C89.0028 36.8594 89.0886 36.9309 89.1648 37.0071C89.2435 37.0834 89.3126 37.1692 89.3745 37.2597C89.4341 37.3503 89.4841 37.448 89.527 37.548C89.5675 37.6481 89.6009 37.753 89.6223 37.8602C89.6438 37.9674 89.6533 38.077 89.6533 38.1866C89.6533 38.2939 89.6438 38.4035 89.6223 38.5131C89.6009 38.6179 89.5675 38.7228 89.527 38.8252C89.4841 38.9253 89.4341 39.0206 89.3745 39.1112C89.3126 39.2041 89.2435 39.2875 89.1648 39.3661C89.0886 39.4424 89.0028 39.5115 88.9123 39.5734C88.8217 39.633 88.724 39.6854 88.6239 39.7259C88.5239 39.7688 88.419 39.7998 88.3118 39.8212C88.2046 39.8427 88.095 39.8546 87.9877 39.8546Z" fill="#B72A27"/>
<path d="M87.7419 97.4662H78.6157C77.6936 97.4662 76.9478 96.7204 76.9478 95.7983V64.5906C76.9478 63.6684 77.6936 62.9226 78.6157 62.9226H87.7419C88.664 62.9226 89.4099 63.6684 89.4099 64.5906V95.8007C89.4099 96.7204 88.664 97.4662 87.7419 97.4662ZM80.2861 94.1303H86.0763V66.2585H80.2861V94.1303Z" fill="#1B3954"/>
<path d="M104.048 97.4662H94.9214C93.9992 97.4662 93.2534 96.7204 93.2534 95.7983V64.5906C93.2534 63.6684 93.9992 62.9226 94.9214 62.9226H104.048C104.97 62.9226 105.716 63.6684 105.716 64.5906V95.8007C105.716 96.7204 104.97 97.4662 104.048 97.4662ZM96.5894 94.1303H102.38V66.2585H96.5894V94.1303Z" fill="#1B3954"/>
<path d="M16.1577 75.0273C15.2356 75.0273 14.4897 74.2815 14.4897 73.3593V28.908C14.4897 27.9858 15.2356 27.24 16.1577 27.24C17.0799 27.24 17.8257 27.9858 17.8257 28.908V73.3593C17.8257 74.2815 17.0775 75.0273 16.1577 75.0273Z" fill="#1B3954"/>
<path d="M16.1577 25.3149C15.7169 25.3149 15.288 25.1362 14.9782 24.8264C14.6685 24.5143 14.4897 24.0853 14.4897 23.6469C14.4897 23.2061 14.6685 22.7772 14.9782 22.4674C15.3642 22.079 15.9409 21.9027 16.4842 22.0099C16.589 22.0314 16.6938 22.0647 16.7963 22.1052C16.8964 22.1481 16.9917 22.1982 17.0822 22.2601C17.1752 22.3197 17.261 22.3888 17.3372 22.4674C17.647 22.7772 17.8257 23.2061 17.8257 23.6469C17.8257 24.0853 17.647 24.5143 17.3372 24.8264C17.261 24.9027 17.1752 24.9718 17.0822 25.0337C16.9917 25.0933 16.8964 25.1457 16.7963 25.1862C16.6938 25.2291 16.589 25.2601 16.4842 25.2815C16.3769 25.303 16.2673 25.3149 16.1577 25.3149Z" fill="#1B3954"/>
</svg>
