<svg width="95" height="126" viewBox="0 0 95 126" fill="none" xmlns="http://www.w3.org/2000/svg">
<path d="M36.3996 34.0999C36.3996 34.0999 36.6996 34.7999 35.6996 35.1999C34.6996 35.6999 32.7996 35.6999 32.7996 35.6999L29.5996 29.5999L31.6996 24.3999C31.6996 24.3999 32.7996 25.1999 33.4996 26.2999C34.1996 27.3999 35.3996 32.2999 35.5996 32.2999C35.7996 32.4999 36.3996 34.0999 36.3996 34.0999Z" fill="#FF882A"/>
<path d="M26.3998 91.1L26.2998 92C26.2998 92.1 29.3998 93.4 30.3998 93.6C31.3998 93.8 33.9998 95.2 34.9998 95.3C35.8998 95.4 36.2998 95 36.3998 94.8C36.4998 94.6 36.5998 93.9 36.3998 93.4C36.1998 92.9 33.9998 92.4 33.9998 92.4L26.3998 91.1Z" fill="#2F2720"/>
<path d="M31.1997 89.7C31.1997 89.7 34.1997 91.1 34.7997 91.4C35.3997 91.7 36.0997 92.4 36.2997 93.2C36.4997 94 36.2997 94.6 35.5997 94.8C34.9997 95 32.2997 94 32.1997 93.9C32.0997 93.8 28.2997 92.6 28.1997 92.4C28.0997 92.3 26.2997 92 26.2997 91.2C26.1997 90.4 27.6997 88.1 27.6997 88.1L31.1997 89.7Z" fill="#D6A94F"/>
<path d="M31.6998 90.5C31.6998 91.0999 29.7998 91.7999 29.2998 91.6999C28.8998 91.6999 27.2998 91.5 26.3998 91C26.1998 90.9 25.9998 90.7 25.7998 90.5C25.0998 89.5 25.0998 86.6999 24.5998 84.1999C23.9998 81.5999 23.7998 74.3 23.5998 73.8C23.3998 73.3 22.9998 71.3 23.0998 67.3C23.1998 63.2 23.0998 57.2999 24.0998 56.0999C24.4998 55.5999 25.5998 55.1999 26.7998 54.7999C28.6998 54.1999 30.7998 53.7 30.7998 53.7C30.7998 53.7 31.8998 59 31.8998 60.9C31.7998 62.8 32.0998 69.3 32.1998 70.4C32.2998 71.5 32.0998 74.7 31.8998 75.9C31.6998 77.1 31.4998 84.1999 31.4998 85.5999C31.2998 87.1999 31.7998 90 31.6998 90.5Z" fill="#355FA3"/>
<path d="M26.8002 89.0999C27.0002 89.3999 25.7002 87.4999 25.6002 87.3999C25.6002 87.5999 26.1002 89.9999 26.1002 90.1999C26.1002 90.2999 26.2002 90.5999 26.3002 90.9999C26.1002 90.8999 25.9002 90.6999 25.7002 90.4999C25.0002 89.4999 25.0002 86.6999 24.5002 84.1999C23.9002 81.5999 23.7002 74.2999 23.5002 73.7999C23.3002 73.2999 22.9002 71.2999 23.0002 67.2999C23.1002 63.1999 23.0002 57.2999 24.0002 56.0999C24.4002 55.5999 25.5002 55.1999 26.7002 54.7999C27.5002 56.1999 26.2002 60.9999 26.2002 60.9999C26.2002 60.9999 25.5002 66.9999 25.6002 66.9999L27.0002 68.9999C27.0002 68.9999 28.1002 70.9999 28.2002 71.0999C28.2002 71.1999 27.8002 74.2999 27.8002 74.2999C27.8002 74.2999 27.8002 75.8999 27.5002 75.9999C27.2002 76.0999 26.6002 75.5999 26.3002 76.1999C26.1002 76.7999 26.5002 79.2999 26.5002 79.2999L28.3002 80.3999L26.8002 80.6999L26.5002 82.0999L27.5002 82.5999C27.5002 82.5999 26.9002 82.8999 26.8002 83.3999C26.7002 83.8999 27.0002 85.2999 27.0002 85.2999L28.4002 87.7999L26.9002 86.4999L25.6002 84.6999L25.9002 86.7999C25.8002 86.8999 26.7002 88.7999 26.8002 89.0999Z" fill="#6C91C4"/>
<path d="M14.4002 95.1L13.9002 95.5C13.9002 95.5 13.6002 96.3 13.8002 96.7C14.0002 97.1 14.7002 99.2 14.9002 99.8C15.2002 100.4 16.5002 101.2 17.6002 101.4C18.7002 101.6 19.8002 101.4 20.1002 101.1C20.4002 100.8 20.3002 100 20.3002 100L17.0002 97.5L14.4002 95.1Z" fill="#2F2720"/>
<path d="M18.2002 94C18.2002 94 18.8002 96.2 19.5002 97.4C20.1002 98.6 20.5002 99.9 20.2002 100.4C19.9002 100.9 18.8002 101.1 17.7002 101.1C16.6002 101 15.9002 100.4 15.3002 99.7C14.7002 99 14.3002 96.8 14.3002 96.8C14.3002 96.8 14.0002 95.5 13.8002 95C13.7002 94.4 13.7002 93 13.7002 93L18.2002 94Z" fill="#D6A94F"/>
<path d="M26.9002 57.0999C26.7002 58.8999 26.0002 61.3999 25.9002 61.8999C25.9002 62.3999 24.4002 65.4999 24.2002 65.9999C24.1002 66.2999 23.6002 67.3999 23.0002 68.7999C22.3002 70.3999 21.6002 72.2999 21.1002 73.6999C20.8002 74.7999 20.6002 76.7999 20.5002 78.7999C20.4002 81.6999 20.5002 84.8999 20.5002 86.0999C20.5002 88.1999 19.4002 93.1999 19.4002 93.1999C19.4002 93.1999 18.5002 94.8999 17.8002 94.9999C17.1002 95.1999 15.5002 95.0999 14.6002 94.9999C14.1002 94.9999 13.5002 94.3999 13.1002 93.7999C12.7002 93.2999 12.5002 92.7999 12.5002 92.5999C12.5002 92.1999 12.5002 87.6999 12.4002 85.1999C12.4002 82.6999 13.0002 75.4999 13.0002 75.0999C13.0002 74.6999 12.1002 63.9999 12.0002 61.1999C11.9002 58.5999 12.9002 54.7999 13.0002 54.3999C13.0002 54.3999 13.0002 54.3999 13.1002 54.3999C13.2002 54.3999 13.5002 54.3999 14.0002 54.4999C17.1002 54.7999 27.0002 55.5999 26.9002 57.0999Z" fill="#355FA3"/>
<path d="M21.1002 73.8C20.8002 74.9 20.6002 76.9 20.5002 78.9C20.5002 79 19.5002 80.8 19.5002 81.1C19.5002 81.4 17.9002 82.1 17.9002 82.1L17.2002 78.5L18.0002 74.3L19.0002 69.5L22.5002 67.2L22.9002 68.8C22.4002 70.4 21.6002 72.3 21.1002 73.8Z" fill="#6C91C4"/>
<path d="M13.1998 91.6999C13.1998 92.0999 13.1998 93.0999 13.1998 94C12.7998 93.5 12.5998 93 12.5998 92.8C12.5998 92.4 12.5998 87.9 12.4998 85.4C12.4998 82.9 13.0998 75.7 13.0998 75.3C13.0998 74.9 12.1998 64.2 12.0998 61.4C11.9998 58.8 12.9998 54.9999 13.0998 54.5999H13.1998C13.6998 54.2999 14.0998 54.2 14.0998 54.2L13.9998 54.5999L13.4998 59.0999C13.4998 59.0999 13.4998 65 13.5998 65.3C13.6998 65.6 14.5998 70.5 14.5998 70.5L14.8998 76.4L13.4998 69.5C13.4998 69.5 13.8998 74.8 13.7998 75.4C13.6998 76 13.7998 81.1 13.8998 81.5C13.9998 81.9 13.3998 87.5 13.3998 87.5C13.3998 87.5 13.1998 90.9999 13.1998 91.6999Z" fill="#6C91C4"/>
<path d="M33.9001 32.7C33.8001 34.1 33.1001 38.1 33.1001 39.2C33.0001 40.4 32.1001 43.4 31.5001 47.9C30.9001 52.4 31.4001 53.1 30.9001 54.6C30.4001 56.1 29.4001 58.1 25.6001 59.5C24.3001 60 22.8001 60.1 21.3001 60.1C19.4001 60 17.6001 59.6 16.3001 59.2C15.6001 59 15.1001 58.8 14.7001 58.6C12.8001 57.8 11.4001 55.9 11.6001 54.6C11.8001 53.3 12.4001 52.6 12.5001 52.2C12.6001 51.8 14.6001 46.3 14.8001 45.7C15.1001 45 14.8001 42.5 14.8001 42.2C14.8001 41.9 13.0001 32.3 13.6001 30.7C14.2001 29.1 15.8001 28.1 16.2001 27.7C16.6001 27.3 20.6001 24.5 20.9001 24.4C21.2001 24.2 23.8001 22.5 23.8001 22.5L29.4001 23.6C29.4001 23.6 31.5001 23.8 32.8001 25.8C34.4001 27.7 34.1001 31.3 33.9001 32.7Z" fill="#F9551A"/>
<path d="M33.1005 46.7999C33.2005 48.0999 33.2005 49.1999 32.8005 49.5999C32.0005 50.5999 28.7005 52.2999 28.6005 50.9999C28.4005 49.6999 29.5005 32.1999 29.4005 31.4999C29.3005 30.7999 30.0005 29.9999 30.6005 28.6999C31.2005 27.3999 30.0005 24.0999 30.0005 24.0999C30.0005 24.0999 30.1005 23.8999 30.5005 23.8999C30.7005 23.8999 31.0005 23.8999 31.5005 24.0999C32.1005 24.3999 32.7005 24.9999 33.2005 25.7999C33.8005 26.6999 34.2005 27.9999 34.2005 29.4999C34.2005 32.3999 33.7005 39.1999 33.2005 41.8999C33.1005 42.5999 33.0005 43.3999 33.1005 44.1999C33.0005 45.1999 33.0005 46.0999 33.1005 46.7999Z" fill="#C4FF36"/>
<path d="M32.9996 44.3C32.9996 45.2 33.0996 46 33.0996 46.8C32.7996 47.1 32.4996 47.5 32.1996 47.7C31.7996 48.1 31.2996 48.3 30.8996 48.3C30.6996 48.3 30.5996 48.3 30.3996 48.2C29.7996 47.9 29.5996 47.3 29.5996 46.7L30.3996 32.5C30.4996 31.7 30.5996 30.8 30.9996 30C31.4996 28.7 32.0996 26.3 30.1996 24.1L30.3996 24C30.5996 24 30.8996 24 31.3996 24.2C31.9996 24.5 32.5996 25.1 33.0996 25.9C33.5996 27.9 32.9996 29.8 32.5996 30.7C32.2996 31.3 32.1996 31.9 32.1996 32.6L31.3996 46C31.8996 45.6 32.4996 44.9 32.9996 44.3Z" fill="#99C2D6"/>
<path d="M26.9002 45C26.1002 53.2999 25.4002 53.2 21.5002 54C17.7002 54.7999 12.7002 50.9999 12.7002 50.5999C12.7002 50.4999 13.0002 49.7999 13.3002 49C13.6002 48.2999 14.0002 47.4 14.3002 46.7C14.7002 45.8 15.0002 45.2 15.0002 45.2C15.0002 45.2 21.9002 48 22.1002 43.5C22.4002 39 21.8002 33.5999 19.4002 30.4999C17.1002 27.4 15.4002 28.3999 15.4002 28.3999L14.2002 29.6C14.3002 29.5 14.7002 28.3999 15.1002 27.8999C15.3002 27.6999 16.4002 26.9999 17.5002 26.2999C18.1002 25.8999 18.7002 25.5999 19.2002 25.2999C20.0002 24.7999 20.6002 24.4999 20.6002 24.4999C21.5002 23.9999 21.5002 24.2999 21.5002 24.2999C21.5002 24.2999 20.1002 25.4 20.9002 26.7C21.7002 28.1 24.1002 29.6 25.6002 30.6C27.1002 31.6 27.0002 32.3 27.3002 32.7C27.9002 33.0999 27.3002 41.2 26.9002 45Z" fill="#C4FF36"/>
<path d="M26.7004 32.7999C26.6004 32.1999 26.0004 31.7999 24.8004 30.8999C23.6004 29.9999 22.0004 28.8999 20.6004 27.3999C19.6004 26.2999 19.6004 25.7999 19.6004 25.6999C19.6004 25.7999 19.5004 25.7999 19.5004 25.7999L19.3004 25.2999C18.8004 25.5999 18.2004 25.9999 17.6004 26.2999C17.8004 26.9999 18.3004 27.7999 19.1004 28.6999C20.6004 30.3999 22.4004 31.6999 23.6004 32.4999C24.0004 32.7999 24.4004 33.0999 24.7004 33.2999C24.7004 35.5999 24.0004 48.3999 23.2004 49.7999C23.0004 49.9999 21.7004 50.2999 19.7004 49.9999C17.9004 49.6999 15.6004 48.8999 14.8004 47.3999C14.7004 47.1999 14.5004 46.8999 14.4004 46.6999C14.1004 47.3999 13.7004 48.2999 13.4004 48.9999C14.9004 50.9999 17.9004 51.8999 20.3004 52.1999C20.6004 52.1999 20.9004 52.1999 21.3004 52.1999C22.5004 52.1999 24.0004 51.9999 24.8004 51.0999C26.3004 49.1999 26.7004 32.9999 26.7004 32.7999Z" fill="#99C2D6"/>
<path d="M22.6998 65.7999C22.3998 66.2999 19.0998 69.6999 19.0998 69.6999L17.9998 65.6999L16.2998 59.2999C17.6998 59.6999 19.4998 60.0999 21.2998 60.1999C21.3998 60.1999 22.9998 65.2999 22.6998 65.7999Z" fill="#6C91C4"/>
<path d="M20.9002 42.3999C20.8002 42.8999 20.5002 46.9999 20.5002 46.9999L21.5002 53.5999L21.4002 60.0999C19.5002 59.9999 17.7002 59.5999 16.4002 59.1999L16.3002 58.7999L15.6002 51.9999L15.2002 45.8999L17.1002 41.6999C17.1002 41.6999 19.0002 36.5999 20.2002 36.7999L21.9002 39.8999L21.8002 41.5999C21.8002 41.5999 21.0002 41.8999 20.9002 42.3999Z" fill="#F09F69"/>
<path d="M14.7 39.9L14.5 39.5L14.7 39.9Z" fill="#FCC7AA"/>
<path d="M23.2997 22.1C23.2997 22.1 23.0997 22.8 22.7997 23.1C22.5997 23.5 21.8997 24.1 21.7997 24.2C21.6997 24.3 22.5997 25.7 22.7997 26C22.9997 26.3 24.8997 27.8 25.7997 28.2C26.7997 28.6 27.2997 28.5 27.9997 28C28.5997 27.5 28.7997 25.2 28.7997 25.2C28.7997 25.2 24.5997 21.5 23.2997 22.1Z" fill="#FCC7AA"/>
<path d="M26.8 28.4L26.4 29.8C26.4 29.8 24.3 28.9 22.7 27.7C21.1 26.5 21 24.3 21 24.3L22.2 23.3L22.8 23.1C22.8 23.1 22.5 24.2 22.6 24.7C22.8 25.2 25.4 28.1 27 27.8C28.7 27.5 29.5 26.5 29.5 26.5L28.6 29.8L26.8 28.4Z" fill="#FF882A"/>
<path d="M23.9004 24.8999C23.9004 24.8999 25.0004 26.8999 25.2004 27.2999C25.4004 27.6999 26.4004 29.4999 26.4004 29.5999C26.5004 29.6999 28.2004 30.7999 28.6004 30.6999C29.0004 30.5999 30.8004 28.3999 30.9004 27.9999C31.0004 27.5999 30.9004 25.2999 30.9004 25.2999C30.9004 25.2999 30.2004 24.1999 29.9004 24.1999C29.6004 24.0999 24.0004 23.8999 23.9004 24.8999Z" fill="#FAD3BE"/>
<path d="M33.7002 19.1C33.7002 19.1 32.8002 23.3 32.7002 23.7C32.6002 24.1 31.3002 26.4 30.9002 27C30.4002 27.6 29.3002 28.6 29.2002 28.7C29.0002 28.8 27.8002 28.9 27.5002 28.8C27.2002 28.7 24.9002 26.4 24.1002 24.9C23.3002 23.4 23.2002 20.6 23.4002 19.8C23.6002 19 24.0002 15.6 24.9002 15.4C25.7002 15.3 33.6002 15.8 33.7002 19.1Z" fill="#FCC7AA"/>
<path d="M32.7004 19.7999C32.7004 19.7999 31.5004 20.3999 29.9004 20.2999C28.3004 20.0999 28.0004 19.5999 27.5004 19.5999C27.1004 19.5999 26.3004 20.9999 26.3004 20.9999L25.4004 21.7999L24.5004 22.1999L24.2004 23.8999L23.8004 23.1999C23.8004 23.1999 24.0004 21.5999 24.0004 21.1999C24.0004 20.7999 23.5004 20.0999 23.4004 20.0999C23.3004 19.9999 22.9004 20.8999 22.9004 20.8999C22.9004 20.8999 22.7004 20.2999 22.9004 17.8999C23.1004 15.4999 23.7004 13.5999 25.7004 12.5999C27.7004 11.5999 31.2004 12.2999 32.4004 13.1999C33.5004 14.0999 34.1004 15.3999 34.2004 17.6999C34.2004 20.0999 33.2004 21.7999 33.2004 21.7999C33.2004 21.7999 33.4004 19.8999 33.3004 19.6999C33.2004 19.2999 32.7004 19.7999 32.7004 19.7999Z" fill="#4A2727"/>
<path d="M23.6999 22.7C23.6999 22.7 23.1999 22.7 22.9999 22.3C22.7999 21.9 22.4999 20.6 22.5999 20.2C22.6999 19.8 22.7999 19.6 23.0999 19.6C23.2999 19.6 24.1999 20.6 24.0999 20.9C23.9999 21.3 23.9999 22.7 23.6999 22.7Z" fill="#FFD6BF"/>
<path d="M31.7 21.2999C31.7 21.2999 30.9 22.7999 30.7 23.0999C30.5 23.2999 29.5 23.3999 29.5 23.3999C29.5 23.3999 27.5 23.0999 27.1 22.7999C26.7 22.4999 27.3 20.2999 28.1 20.4999C28.9 20.6999 30.7 21.0999 31.3 21.0999C31.9 20.9999 31.7 21.2999 31.7 21.2999Z" fill="#FFD6BF"/>
<path d="M24.7998 20.2999L23.8998 22.5999L23.7998 24.4999L24.1998 25.3999L24.4998 22.7999L25.6998 20.3999L24.7998 20.2999Z" fill="#C7C7CE"/>
<path d="M34.4998 20.2C34.2998 21.1 33.9998 21.8 33.6998 22C32.8998 22.6 29.2998 23 26.2998 21.6C24.7998 20.9 23.8998 19.4 23.3998 18.1C22.8998 16.9 22.7998 15.8 22.7998 15.8C22.7998 15.5 22.8998 15.2 22.9998 14.9C23.7998 11.9 26.2998 11.3 27.6998 11.2C27.9998 11.2 28.2998 11.2 28.4998 11.2H28.5998C28.8998 11.2 28.9998 11.2 28.9998 11.2C30.2998 11.3 32.7998 11.7 33.7998 13.7C33.8998 14 33.9998 14.2 34.0998 14.5C34.8998 16.7 34.7998 18.8 34.4998 20.2Z" fill="#FFCB21"/>
<path d="M25.2998 21C25.2998 21 25.8998 23.4 28.1998 23.9C30.4998 24.4 33.3998 23.9 33.9998 23.6C34.5998 23.3 34.0998 21.4 34.0998 21.4C34.0998 21.4 32.7998 21.8 30.0998 21.8C27.2998 21.8 25.2998 21 25.2998 21Z" fill="#FFBE24"/>
<path d="M34.3997 17.8999C33.9997 18.4999 28.7997 19.9999 26.3997 16.4999C23.9997 12.9999 26.7997 11.6999 26.7997 11.6999C26.7997 11.6999 27.1997 11.5999 27.6997 11.3999C27.9997 11.3999 28.2997 11.3999 28.4997 11.3999C29.4997 11.3999 32.6997 11.5999 33.7997 13.9999C33.8997 14.2999 33.9997 14.4999 34.0997 14.7999C34.5997 16.0999 34.5997 17.5999 34.3997 17.8999Z" fill="#FFDC42"/>
<path d="M33.2 18.4C33.2 18.4 32.8 15.3 32.4 14.2C32 13.1 31 11.7 31 11.7C31 11.7 33 12.9 33.2 13.8C33.4 14.6 33.2 18.4 33.2 18.4Z" fill="#FFA600"/>
<path d="M31.2004 18.6999C31.2004 18.6999 30.9004 15.1999 30.2004 13.6999C29.5004 12.0999 28.4004 11.3999 28.4004 11.3999L29.9004 11.6999L32.0004 16.2999L31.2004 18.6999Z" fill="#FFA600"/>
<path d="M28.4996 18.2C28.4996 18.2 27.9996 15 27.4996 13.9C27.0996 12.8 26.0996 11.7 26.0996 11.7H26.8996L28.5996 14.9L28.4996 18.2Z" fill="#FFA600"/>
<path d="M28.5998 11.3C27.5998 11.3 25.2998 11.7 24.2998 14.6C23.7998 16.1 23.5998 17.3 23.3998 18.1C22.8998 16.9 22.7998 15.8 22.7998 15.8C23.2998 12 26.0998 11.4 27.5998 11.2C27.8998 11.2 28.1998 11.2 28.3998 11.2H28.5998V11.3Z" fill="#FFA600"/>
<path d="M23.0996 14.8L23.1996 14.6C23.1996 14.6 23.8996 17.7 24.9996 18.9C26.0996 20.1 28.3996 21.3 31.4996 21.2C33.2996 21.1 34.4996 20.3 34.4996 20.3V20.5C34.4996 20.5 34.0996 21.4 33.7996 21.6C33.3996 21.8 30.3996 22.3 28.4996 21.6C26.5996 20.9 25.1996 20.1 24.6996 19.5C24.1996 18.9 23.4996 17 23.4996 17L23.0996 14.8Z" fill="#FFE342"/>
<path d="M34.5004 20.4C34.3004 21.3 34.0004 21.8 33.8004 22C33.0004 22.6 29.4004 23 26.4004 21.6C24.9004 20.9 24.0004 19.4 23.5004 18.1C23.0004 16.9 22.9004 15.8 22.9004 15.8C22.9004 15.5 23.1004 15 23.1004 14.7C23.2004 14.9 23.8004 18.6 25.9004 19.8C29.7004 22.2 34.1004 21.2 34.5004 20.4Z" fill="#FFA600"/>
<path d="M26.2002 11.7C26.2002 11.7 27.4002 12.4 27.9002 14.4C28.4002 16.3 28.5002 18.3 28.5002 18.3C28.5002 18.3 29.1002 18.6 30.0002 18.7C29.7002 14.9 29.5002 14.3 29.0002 13.2C28.5002 12 27.2002 11.5 27.2002 11.5L26.2002 11.7Z" fill="#FFE342"/>
<path d="M31.2004 18.6999C31.2004 18.6999 31.1004 13.9999 30.0004 12.6999C29.0004 11.3999 28.4004 11.2999 28.4004 11.2999C28.4004 11.2999 29.2004 11.1999 30.1004 11.4999C31.8004 12.7999 32.0004 14.6999 32.2004 16.0999C32.4004 17.3999 32.4004 18.5999 32.4004 18.5999C32.4004 18.5999 31.8004 18.6999 31.2004 18.6999Z" fill="#FFE342"/>
<path d="M33.2 18.4C33.2 18.4 33.2 15.9 32.6 14.1C32 12.2 31 11.7 31 11.7C31 11.7 32.1 11.9 32.7 12.6C33.4 13.4 33.9 14.8 34 16.1C34.1 17.4 34.1 18.1 34.1 18.1C34.1 18.1 33.5 18.3 33.2 18.4Z" fill="#FFE342"/>
<path d="M29.8999 25C29.8999 25 29.1999 25.6 28.8999 25.8C28.5999 26 29.5999 26.7 29.5999 26.7H30.0999C30.0999 26.7 30.1999 25.1 30.2999 24.5C30.3999 23.7 29.8999 25 29.8999 25Z" fill="#FFD6BF"/>
<path d="M27.6996 25.7999C27.6996 25.7999 26.4996 26.7999 25.9996 26.2999C25.3996 25.7999 24.6996 24.5 24.7996 23.9C24.7996 23.2 24.8996 22.7 24.8996 22.7C24.8996 22.7 25.3996 23.3 25.4996 23.7C25.6996 24.1 26.8996 25.5 26.9996 25.5C27.1996 25.4 28.3996 25.2999 27.6996 25.7999Z" fill="#FFD6BF"/>
<path d="M68.5001 80.5999C68.5001 80.5999 71.1001 83.0999 71.8001 83.4999C72.5001 83.8999 72.6001 85.2999 72.6001 85.7999C72.6001 86.2999 71.4001 86.8999 70.6001 86.7999C69.8001 86.6999 67.6001 84.5999 67.6001 84.5999C67.6001 84.5999 64.6001 83.0999 63.6001 82.3999C62.7001 81.5999 63.8001 79.7999 63.8001 79.7999L68.5001 80.5999Z" fill="#2F2720"/>
<path d="M68.5001 80.1999C68.5001 80.1999 71.1001 82.6999 71.8001 83.0999C72.5001 83.4999 72.6001 84.8999 72.6001 85.3999C72.6001 85.8999 71.4001 86.4999 70.6001 86.3999C69.8001 86.2999 67.6001 84.1999 67.6001 84.1999C67.6001 84.1999 64.6001 82.6999 63.6001 81.9999C62.7001 81.1999 63.8001 79.3999 63.8001 79.3999L68.5001 80.1999Z" fill="#D6A94F"/>
<path d="M67.1997 81.9999C66.7997 82.0999 64.9997 82.0999 64.1997 81.5999C63.8997 81.3999 63.4997 81.0999 63.0997 80.6999C62.4997 80.0999 61.8997 79.3999 61.8997 79.3999C61.8997 79.3999 61.3997 72.0999 61.4997 71.1999C61.5997 70.2999 60.8997 60.0999 60.3997 58.8999C59.8997 57.6999 58.9997 54.5999 58.8997 54.1999C58.8997 54.0999 58.7997 53.2999 58.6997 52.2999C58.3997 49.4999 58.1997 44.5999 59.9997 44.2999C62.4997 43.8999 67.8997 44.1999 67.8997 44.1999C67.8997 44.1999 69.4997 46.7999 69.6997 50.3999C69.8997 53.8999 69.0997 64.0999 69.0997 66.8999C68.9997 69.6999 68.8997 79.3999 68.9997 80.4999C68.9997 81.2999 67.4997 81.8999 67.1997 81.9999Z" fill="#355FA3"/>
<path d="M62.6002 77.8999C63.0002 78.4999 63.1002 80.6999 63.1002 80.6999C62.5002 80.0999 61.9002 79.3999 61.9002 79.3999C61.9002 79.3999 61.4002 72.0999 61.5002 71.1999C61.6002 70.2999 60.9002 60.0999 60.4002 58.8999C59.9002 57.6999 59.0002 54.5999 58.9002 54.1999C58.9002 54.0999 58.8002 53.2999 58.7002 52.2999C59.7002 52.5999 60.7002 53.0999 60.7002 53.0999C60.7002 53.0999 60.9002 57.2999 61.4002 59.3999C61.8002 61.4999 62.4002 66.6999 62.3002 68.0999C62.3002 69.5999 62.6002 71.1999 62.6002 71.1999C62.6002 71.1999 62.1002 71.1999 62.2002 71.5999C62.3002 71.9999 63.0002 75.2999 63.3002 75.7999C63.6002 76.2999 64.6002 79.0999 64.6002 79.0999L62.6002 76.3999C62.7002 76.2999 62.1002 77.1999 62.6002 77.8999Z" fill="#6C91C4"/>
<path d="M56.9004 83.9C56.9004 83.9 56.6004 86.9 56.9004 87.3C57.2004 87.7 57.6004 89.9 57.5004 90.3C57.3004 90.7 55.9004 90.8 55.9004 90.8C55.9004 90.8 52.9004 90.4 52.7004 89.6C52.5004 88.8 52.3004 87.1 52.4004 86.5C52.5004 85.9 51.7004 84.1 51.9004 83.2C52.1004 82.3 56.9004 83.9 56.9004 83.9Z" fill="#2F2720"/>
<path d="M57 83.4C57 83.4 56.7 86.4 57 86.8C57.3 87.2 57.7 89.4 57.6 89.8C57.4 90.2 56 90.3 56 90.3C56 90.3 53 89.9 52.8 89.1C52.6 88.3 52.4 86.6 52.5 86C52.6 85.4 51.8 83.6 52 82.7C52.1 81.8 57 83.4 57 83.4Z" fill="#D6A94F"/>
<path d="M58.3999 66.1L58.0999 80.8C58.0999 80.8 57.6999 83.7 57.0999 84.1C56.4999 84.5 52.2999 84.2 52.2999 84.2C52.2999 84.2 52.1999 84 51.9999 83.7C51.4999 83 50.5999 81.4 50.6999 80.3C50.7999 78.8 50.8999 72.2 50.8999 71.9C50.8999 71.6 50.3999 61.6 49.5999 57.9C48.7999 54.2 49.6999 45.3 49.6999 45.3L53.9999 45L61.1999 44.6C61.1999 44.6 61.1999 50.6 60.9999 51.9C60.8999 53.2 59.8999 54.7 59.2999 57.2C58.6999 59.8 58.3999 66.1 58.3999 66.1Z" fill="#355FA3"/>
<path d="M56.6003 57.7C56.3003 58.5 55.7003 60 55.7003 60L55.1003 62.5L53.9003 62C53.9003 62 54.0003 65.8 53.8003 66.4C53.6003 67 53.2003 70.7 53.2003 70.7L53.4003 74.1L52.1003 73.1L52.0003 76.4L51.3003 75.4V80.8L51.9003 83.8C51.4003 83.1 50.5003 81.5 50.6003 80.4C50.7003 78.9 50.8003 72.3 50.8003 72C50.8003 71.7 50.3003 61.7 49.5003 58C48.7003 54.3 49.6003 45.4 49.6003 45.4L54.0003 45C54.0003 46.6 54.1003 48.7 54.1003 49.3C54.1003 50.3 55.9003 53.8 55.9003 53.8C55.9003 53.8 56.9003 56.9 56.6003 57.7Z" fill="#6C91C4"/>
<path d="M71.1002 23.8999C70.5002 25.8999 69.4002 31.3999 69.4002 31.3999C69.6002 34.4999 68.5002 36.6999 68.1002 38.3999C67.7002 40.0999 68.5002 42.9999 68.6002 43.2999C68.7002 43.5999 69.2002 45.0999 69.1002 45.2999C69.1002 45.3999 66.1002 47.9999 64.9002 48.6999C63.7002 49.2999 58.6002 50.7999 53.6002 48.8999C52.1002 48.2999 51.1002 47.7999 50.4002 47.3999C48.7002 46.3999 48.7002 45.7999 48.7002 45.7999C48.7002 45.7999 49.3002 43.0999 49.4002 42.6999C49.5002 42.2999 50.2002 37.4999 50.3002 36.7999C50.3002 36.0999 53.5002 31.6999 52.7002 28.1999C52.6002 27.5999 52.4002 26.8999 52.3002 26.1999C51.5002 22.6999 50.6002 18.2999 51.0002 17.6999C51.5002 17.0999 56.4002 14.6999 56.4002 14.6999C56.4002 14.6999 56.4002 14.6999 57.7002 14.2999C59.0002 13.8999 62.9002 13.9999 64.5002 14.0999C66.1002 14.1999 70.7002 16.0999 71.5002 16.5999C72.3002 16.9999 71.6002 21.7999 71.1002 23.8999Z" fill="#325E80"/>
<path d="M55.4998 38.9999L54.8998 43.9999L53.6998 48.6999L50.4998 47.1999C48.7998 46.1999 48.7998 45.5999 48.7998 45.5999C48.7998 45.5999 49.3998 42.8999 49.4998 42.4999C49.5998 42.0999 50.2998 37.2999 50.3998 36.5999C50.3998 35.8999 53.5998 31.4999 52.7998 27.9999C52.6998 27.3999 52.4998 26.6999 52.3998 25.9999C52.9998 25.2999 53.3998 24.7999 53.3998 24.7999C53.3998 24.7999 55.8998 31.4999 55.8998 32.2999C55.8998 33.1999 55.4998 38.9999 55.4998 38.9999Z" fill="#BACEBD"/>
<path d="M66.4001 8.59998C66.4001 8.59998 65.8001 13.1 65.8001 13.6C65.8001 14.1 66.0001 15.8 65.9001 16.6C65.8001 17.5 64.3001 19.6 64.3001 19.6L63.4001 19.7C63.4001 19.7 61.9001 19.3 61.3001 19C60.8001 18.7 60.1001 18.7 59.8001 17.3C59.5001 15.9 60.5001 12.1 60.6001 11.6C60.7001 11.1 66.4001 8.59998 66.4001 8.59998Z" fill="#FCC7AA"/>
<path d="M65.9002 14.7999C65.9002 14.7999 64.7002 17.0999 64.3002 17.8999C63.8002 18.5999 63.2002 19.6999 63.2002 19.6999C63.2002 19.6999 64.2002 19.0999 64.5002 18.7999C64.8002 18.4999 65.8002 17.1999 65.8002 17.1999L66.0002 16.6999L65.9002 14.7999Z" fill="#FFD6BF"/>
<path d="M65.8997 15.1999C65.8997 15.1999 65.2997 16.9999 64.6997 18.0999C64.0997 19.1999 63.3997 19.4999 63.3997 19.4999C63.3997 19.4999 61.7997 19.1999 60.9997 18.6999C60.1997 18.1999 59.5997 16.8999 59.5997 16.8999C59.5997 16.8999 59.0997 18.0999 59.1997 18.2999C59.2997 18.4999 58.9997 18.9999 60.1997 19.6999C61.3997 20.4999 62.5997 20.9999 62.5997 20.9999L63.3997 19.7999L64.4997 20.9999C64.4997 20.9999 65.9997 19.6999 66.2997 18.8999C67.2997 15.8999 66.5997 14.7999 65.7997 14.2999C65.8997 14.6999 65.8997 15.1999 65.8997 15.1999Z" fill="#4D98C7"/>
<path d="M64.7004 12.8999C64.7004 12.8999 64.0004 15.7999 63.7004 16.4999C63.4004 17.1999 60.8004 18.5999 59.7004 18.5999C59.1004 18.5999 58.2004 17.9999 57.7004 17.0999C57.3004 16.2999 56.9004 14.3999 56.9004 14.3999L57.9004 14.0999L62.7004 14.1999L64.7004 12.8999Z" fill="#FAD3BE"/>
<path d="M65.1004 13.1C65.1004 13.1 64.0004 16 63.7004 16.3C63.4004 16.6 60.1004 18.3 59.3004 18.1C58.5004 17.9 58.0004 17.5 57.7004 16.6C57.4004 15.7 56.7004 13.1 56.7004 12.2C56.7004 11.3 56.5004 9.99995 56.5004 9.69995C56.5004 9.39995 56.3004 6.99995 56.8004 5.99995C57.3004 4.99995 59.7004 3.19995 60.5004 3.19995C61.2004 3.19995 64.9004 5.69995 65.0004 5.69995C65.0004 5.79995 66.3004 10.3 65.1004 13.1Z" fill="#FCC7AA"/>
<path d="M64.8001 11.8L64.5001 12.3H63.9001L63.5001 11.2C63.5001 11.2 62.9001 10.1 63.0001 9.4C63.1001 8.8 62.1001 7.4 61.9001 7.5C61.7001 7.6 60.2001 8.2 58.8001 7.8C57.3001 7.4 57.0001 6.5 57.0001 6.5C57.0001 6.5 56.6001 6.7 56.6001 7C56.6001 7.3 56.5001 8 56.5001 8C56.5001 8 56.3001 6.5 56.4001 5.1C56.6001 3.7 57.8001 1.9 60.0001 1C62.1001 0.100003 65.4001 1.5 66.7001 2.5C68.0001 3.7 68.0001 5.8 67.8001 6.7C67.6001 7.6 66.7001 11.1 66.7001 11.1C66.7001 11.1 66.3001 9.9 65.7001 10.5C65.2001 11 64.8001 11.8 64.8001 11.8Z" fill="#4A2727"/>
<path d="M65.3005 11.0999C65.3005 11.0999 65.9005 10.2999 66.6005 10.2999C67.2005 10.2999 67.0005 11.6999 66.8005 11.9999C66.6005 12.2999 66.2005 13.2999 65.9005 13.3999C65.5005 13.4999 65.2004 12.8999 65.2004 12.7999C65.1004 12.7999 65.1005 11.2999 65.3005 11.0999Z" fill="#FFD6BF"/>
<path d="M62.0999 8.80001C62.0999 8.80001 62.2999 10.6 62.7999 11C63.2999 11.4 63.6999 12.3 63.6999 12.4C63.6999 12.5 62.7999 14.4 62.7999 14.4C62.7999 14.4 60.9999 15.3 60.4999 14.9C59.9999 14.5 59.8999 13.9 60.2999 13.9C60.6999 13.9 61.9999 13.4 62.2999 13.2C62.5999 13 62.4999 12 62.4999 12L60.4999 11.3C60.4999 11.3 58.2999 11.2 57.6999 10.7C56.9999 10.2 57.3999 8.60001 57.5999 8.30001C57.7999 8.00001 58.8999 8.40001 59.5999 8.60001C60.1999 8.70001 61.9999 8.40001 62.0999 8.80001Z" fill="#FFD6BF"/>
<path d="M67.9 7.3999C67.8 7.5999 66.1 8.4999 65.1 8.7999C64.1 9.0999 62.2 9.5999 59.1 9.1999C56 8.7999 55.7 7.6999 55.7 7.6999C55.7 7.6999 55.5 6.4999 56.1 3.6999C56.2 2.9999 56.5 2.4999 56.9 1.9999L57 1.8999C58.2 0.499902 60.2 -9.76548e-05 60.2 -9.76548e-05C61.6 -0.100098 62.8 -9.76622e-05 63.8 0.299902C65.3 0.799902 66.4 1.5999 67 2.4999C67.1 2.5999 67.2 2.7999 67.3 2.8999C68.2 4.4999 68 6.8999 67.9 7.3999Z" fill="#F2F0FC"/>
<path d="M59.6005 4.19996C56.2005 3.79996 56.7005 2.39996 56.9005 1.99996L57.0005 1.89996C58.2005 0.499961 60.2005 -3.85456e-05 60.2005 -3.85456e-05C63.7005 -0.300039 65.9005 0.999961 67.0005 2.49996C67.7005 3.59996 63.1005 4.69996 59.6005 4.19996Z" fill="#F2F2F2"/>
<path d="M60.5997 4.29996C60.5997 4.29996 61.6997 1.59996 62.5997 1.09996C63.4997 0.599963 63.8997 0.399963 65.1997 0.899963C64.7997 0.599963 63.8997 0.199963 63.1997 0.299963C62.5997 0.399963 60.3997 1.89996 60.5997 4.29996Z" fill="#CFCFE6"/>
<path d="M67.8998 7.3999C67.5998 7.3999 67.4998 7.3999 67.4998 7.3999C67.4998 7.3999 67.8998 1.5999 63.7998 0.399902C65.2998 0.899902 66.3998 1.6999 66.9998 2.5999C67.0998 2.6999 67.1998 2.8999 67.2998 2.9999C68.1998 4.4999 67.9998 6.8999 67.8998 7.3999Z" fill="#CFCFE6"/>
<path d="M55.7002 6.3999V6.1999C55.7002 6.1999 56.0002 7.3999 59.1002 7.7999C62.2002 8.1999 66.5002 7.1999 67.3002 6.4999C68.0002 6.0999 68.0002 5.8999 68.0002 5.8999L68.2002 5.9999L67.6002 7.0999L60.3002 8.5999L56.8002 7.7999L56.0002 6.7999L55.7002 6.3999Z" fill="#F2F2F2"/>
<path d="M55.7002 6.4C55.7002 6.4 55.7002 7.3 58.9002 7.8C62.2002 8.3 66.7002 7.4 68.0002 6.2C68.2002 6 68.2002 6 68.2002 6V7.5C68.2002 7.5 66.7002 8.8 63.6002 9.2C60.5002 9.6 58.6002 9.2 57.3002 8.9C55.9002 8.6 55.7002 7.4 55.7002 7.4V6.4Z" fill="#CFCFE6"/>
<path d="M55.7004 6.8999C55.7004 6.8999 53.4004 8.2999 55.5004 9.2999C57.6004 10.2999 59.7004 10.1999 61.0004 10.1999C62.3004 10.1999 63.7004 9.0999 63.7004 9.0999C63.7004 9.0999 60.1004 9.2999 57.4004 8.5999C56.1004 8.1999 55.9004 7.7999 55.7004 6.8999Z" fill="#EAEAF5"/>
<path d="M65.2 0.9C65.2 0.9 64.1 0.1 63 0.5C61.9 0.9 61.3 2.2 61 2.9C60.7 3.6 60.6 4.2 60.6 4.2C60.6 4.2 59.8 4.1 59.5 4.1C59.8 2.5 60.1 1.6 60.8 0.8C61.5 0 62.6 0 62.6 0C62.6 0 64.3 0.2 65.2 0.9Z" fill="#F5F5F5"/>
<path d="M58.5001 4C58.5001 4 59.4001 1.2 60.4001 0.6C61.3001 0 61.6001 0 61.6001 0H61.2001C61.2001 0 59.4001 0.3 59.1001 0.8C58.9001 1.4 58.1001 3.2 58.5001 4Z" fill="#CFCFE6"/>
<path d="M61.3 -9.76529e-05C61.3 -9.76529e-05 60.1 -9.76324e-05 59.2 1.6999C58.4 3.3999 58.5 3.9999 58.5 3.9999C58.5 3.9999 57.7 3.7999 57.5 3.5999C57.6 2.4999 58.2 1.0999 58.9 0.499902C59.6 -0.100098 60.7 -9.76529e-05 61.3 -9.76529e-05Z" fill="#F5F5F5"/>
<path d="M58.5998 12.3C58.5998 12.3 58.0998 13.6 57.9998 13.8C57.8998 14 57.8998 14.3 57.9998 14.4C58.1998 14.5 59.0998 14.5 59.1998 14.3C59.3998 14.1 58.8998 13.3 58.8998 13.3C58.8998 13.3 58.6998 12.2 58.5998 12.3Z" fill="#FFD6BF"/>
<path d="M38.5 122L30.8 120.6L71.5 97.0999L83.5 99.0999L83 96.2999L75.3 94.8999L63.2 87.8999L64.4 88.0999L64 85.2999L56.4 83.9999L52.5 81.7999L37.7 90.3999C37.3 89.7999 36.7 89.2999 36 88.8999C31.4 86.0999 22.7 86.7999 16.4 90.3999C10.1 93.9999 8.8 99.1999 13.3 102C14 102.5 14.9 102.8 15.8 103.1L0 112.1L22.8 125.3L26.9 122.9L38.9 124.9L38.5 122Z" fill="#CCC0BC"/>
<path d="M74 48.3999L72.2 49.3999L64.5 88.0999L66.2 87.0999L74 48.3999Z" fill="#B8630F"/>
<path d="M72.2002 49.3999L75.8002 51.3999L83.5002 99.0999L80.0002 96.9999L72.2002 49.3999Z" fill="#8A4807"/>
<path d="M77.5008 50.4999L75.8008 51.3999L83.5008 99.0999L85.2008 98.0999L77.5008 50.4999Z" fill="#B8630F"/>
<path d="M72.2004 49.3999L68.7004 47.2999L60.9004 86.0999L64.5004 88.0999L72.2004 49.3999Z" fill="#8A4807"/>
<path d="M63.6006 70.3V67.6L79.1006 78.4V81.2L63.6006 70.3Z" fill="#7A4006"/>
<path d="M64.4006 67.1L63.6006 67.6L79.1006 78.4L80.0006 77.9L64.4006 67.1Z" fill="#D6802B"/>
<path d="M80.0006 80.5999L79.1006 81.1999V78.3999L80.0006 77.8999V80.5999Z" fill="#B8630F"/>
<path d="M42.2998 91.5V89.3L94.8998 59V61.1L42.2998 91.5Z" fill="#D47D26"/>
<path d="M29.4 74.1L27.7 75.1L20 113.8L21.7 112.8L29.4 74.1Z" fill="#B8630F"/>
<path d="M27.7002 75.1L31.2002 77.2L39.0002 124.8L35.4002 122.8L27.7002 75.1Z" fill="#8A4807"/>
<path d="M33.0002 76.2L31.2002 77.2L39.0002 124.8L40.7002 123.8L33.0002 76.2Z" fill="#B8630F"/>
<path d="M27.7004 75.1L24.1004 73.1L16.4004 111.8L20.0004 113.8L27.7004 75.1Z" fill="#8A4807"/>
<path d="M19 96.0999V93.2999L34.6 104.1V106.9L19 96.0999Z" fill="#7A4006"/>
<path d="M19.9 92.7999L19 93.2999L34.6 104.1L35.5 103.6L19.9 92.7999Z" fill="#D6802B"/>
<path d="M35.5006 106.3L34.6006 106.9V104.1L35.5006 103.6V106.3Z" fill="#B8630F"/>
<path d="M42.2996 89.3L11.5996 71.5L64.0996 41.2L94.8996 59L42.2996 89.3Z" fill="#F8C25A"/>
<path d="M45.5996 82.0999L24.0996 69.6999L60.8996 48.3999L82.3996 60.8999L45.5996 82.0999Z" fill="#3581BD"/>
<path d="M51.9 67.8L47 65.1L55.9 60L60.8 62.8L51.9 67.8ZM48 65.1L51.9 67.3L59.8 62.8L55.9 60.6L48 65.1Z" fill="#C2D9EB"/>
<path d="M45.1004 71.0999L38.4004 67.1999L45.1004 63.2999L51.8004 67.1999L45.1004 71.0999ZM39.5004 67.1999L45.2004 70.4999L50.9004 67.1999L45.2004 63.8999L39.5004 67.1999Z" fill="#C2D9EB"/>
<path d="M57.4998 71.4L50.7998 67.5L57.4998 63.6L64.1998 67.5L57.4998 71.4ZM51.7998 67.5L57.4998 70.8L63.1998 67.5L57.4998 64.2L51.7998 67.5Z" fill="#C2D9EB"/>
<path d="M59.6 65.3L53 61.4L59.7 57.5L66.4 61.4L59.6 65.3ZM54 61.4L59.7 64.7L65.4 61.4L59.7 58.1L54 61.4Z" fill="#C2D9EB"/>
<path d="M46.9004 79.5999L46.8004 79.4999L28.4004 68.8999L59.6004 50.8999L59.7004 50.9999L78.0004 61.5999L46.9004 79.5999ZM29.4004 68.8999L46.9004 78.9999L77.0004 61.5999L59.6004 51.4999L29.4004 68.8999Z" fill="#C2D9EB"/>
<path d="M11.5996 73.7V71.5L42.2996 89.3V91.5L11.5996 73.7Z" fill="#9F5900"/>
<path d="M26.4996 67.8H24.6996L24.0996 70.7L22.2996 71.3H20.0996L16.5996 68.6L24.4996 64.1L26.4996 67.8Z" fill="#D1BF91"/>
<path d="M26.5004 67.5999C26.5004 67.5999 26.5004 67.7 26.4004 67.8C26.2004 68.1 25.3004 67.9 25.3004 67.9L24.7004 67.1999C24.7004 67.1999 24.7004 67.4 24.7004 67.8C24.7004 68.5 24.6004 69.4999 24.6004 69.5999C24.6004 69.8999 24.5004 70.6999 24.1004 70.6999C23.7004 70.6999 23.5004 69.9999 23.5004 69.6999C23.5004 69.3999 23.2004 66.8 23.2004 66.8L22.8004 68L22.5004 69.3L22.3004 70C22.3004 70 22.3004 70.7999 22.2004 71.1999C22.2004 71.2999 22.1004 71.5 22.1004 71.5C21.9004 71.7999 21.4004 71.4 21.4004 71.4L21.3004 71.3C21.3004 71.3 21.1004 71.5 21.0004 71.5999C20.9004 71.6999 20.8004 71.6999 20.8004 71.6999C20.6004 71.6999 20.1004 71.4999 20.1004 71.1999C20.1004 71.0999 20.1004 70.9 20.1004 70.8C20.1004 70.6 20.1004 70.5 20.1004 70.5C20.1004 70.5 19.8004 70.5999 19.6004 70.5999C19.5004 70.5999 19.4004 70.5 19.4004 70.4C19.2004 70.1 18.9004 68.9 19.0004 68.5C19.0004 68.1 19.2004 67.4 19.2004 67.3C19.2004 67.3 19.2004 67.2999 19.2004 67.1999V67.0999C19.3004 66.7999 19.6004 66.1999 19.8004 65.5999C20.0004 64.9999 20.2004 64.3999 20.2004 64.0999C20.2004 63.2999 20.1004 62.7 19.8004 61.7C19.5004 60.7 16.4004 53.0999 16.1004 52.0999C15.8004 51.0999 15.7004 47.4 15.4004 46.7C15.2004 46.2 14.3004 41.9 14.0004 40.4C13.9004 40.1 13.9004 39.9 13.9004 39.9C13.9004 39.9 14.1004 39.7 14.5004 39.5C15.2004 39 16.3004 38.2 16.4004 38.2C16.6004 38.2 19.9004 39.5999 19.9004 39.5999C19.9004 39.5999 20.3004 42.8999 20.3004 44.2999C20.3004 45.7999 20.2004 47.4 20.5004 48.5C20.7004 49.7 22.3004 56.7 22.6004 58C22.9004 59.2999 23.8004 62.4 24.2004 62.9C24.6004 63.4 26.0004 64.8999 26.0004 65.0999C26.0004 65.3999 26.2004 66.5999 26.2004 66.6999C26.1004 66.9999 26.5004 67.2999 26.5004 67.5999Z" fill="#FCC7AA"/>
<path d="M20.0996 70.8C20.0996 70.7 20.0996 70.6 20.0996 70.6C20.0996 70.6 19.7996 70.7 19.5996 70.7C19.5996 70.7 19.8996 70.5 19.7996 69.8C19.6996 69.1 19.8996 68 19.8996 68L20.3996 66.8L20.1996 68.1C20.1996 68.1 20.2996 68.7 20.1996 68.8C19.9996 68.9 20.0996 70.8 20.0996 70.8Z" fill="#FAD3BE"/>
<path d="M22.2996 71.3C22.2996 71.4 22.1996 71.6 22.1996 71.6C21.9996 71.9 21.4996 71.5 21.4996 71.5L21.3996 71.4C21.3996 71.4 21.2996 71.6 21.0996 71.7L21.3996 68.3L21.6996 66.8L21.5996 68.4L21.4996 71.2C21.4996 71.2 21.7996 71.4 22.0996 71.4C21.9996 71.5 22.1996 71.4 22.2996 71.3Z" fill="#FAD3BE"/>
<path d="M23.8 70.2C23.9 70.3 24 70.5 24.1 70.7C23.6 70.7 23.5 70 23.5 69.7C23.5 69.4 23.2 66.8 23.2 66.8L22.8 68L22.5 69.3L22.8 67L23.2 66.1L23.5 68.3C23.6 68.3 23.6 70 23.8 70.2Z" fill="#FAD3BE"/>
<path d="M26.4996 67.6C26.4996 67.6 26.4996 67.7 26.3996 67.7C26.1996 68 25.2996 67.8 25.2996 67.8L24.6996 67.1C24.6996 67.1 24.6996 67.3 24.6996 67.7L24.5996 66.4V65.2L24.9996 66.7C24.9996 66.7 25.2996 67 25.5996 67.4C25.7996 67.7 26.2996 67.7 26.4996 67.6Z" fill="#FAD3BE"/>
<path d="M20.3996 64.4C20.2996 64.5 20.0996 65 19.8996 65.5C20.0996 64.9 20.2996 64.2999 20.2996 64C20.2996 63.2 20.1996 62.5999 19.8996 61.5999C19.5996 60.5999 16.4996 53 16.1996 52C15.8996 51 15.7996 47.2999 15.4996 46.5999C15.2996 46.0999 14.3996 41.7999 14.0996 40.2999L14.5996 39.7C14.5996 39.7 15.4996 43.9 15.6996 45.5C15.8996 47.1 15.9996 47.8 16.5996 49.2C17.1996 50.6 16.0996 50.4 17.2996 53.7C18.4996 57 20.0996 61.7999 20.7996 62.5999C21.1996 62.9999 20.6996 64.1 20.3996 64.4Z" fill="#FAD3BE"/>
<path d="M20.5 40C20.5 40 19.1 40.7 17.2 40.8C15.3 40.9 13.9 40.6 13.8 40.5C13.7 40.5 12.7 35.6 12.8 35C12.8 34.4 13 32.3 13.4 31C13.9 29.7 15.4 28.5 15.4 28.5C15.4 28.5 18.1 29.8 19.2 32.9C20.4 36 20.5 40 20.5 40Z" fill="#FF882A"/>
<path d="M49.5004 58.9999L45.7004 59.0999L43.5004 58.4999L37.4004 56.6999L41.4004 54.2999L47.5004 55.4999L49.5004 58.9999Z" fill="#D1BF91"/>
<path d="M49.7994 57.8999C49.7994 57.8999 49.1994 56.8999 49.1994 56.4999C49.1994 55.9999 45.9994 54.2999 45.9994 54.2999L45.3994 54.7999L46.9994 57.1999C46.9994 57.1999 48.7994 58.2999 48.7994 58.1999C48.7994 58.0999 49.4994 58.8999 49.4994 58.8999L49.7994 57.8999Z" fill="#FA9C69"/>
<path d="M49.9996 57.8999L49.7996 58.5999L49.4996 58.9999L49.2996 58.2999C49.2996 58.2999 48.3996 56.5999 48.2996 56.5999C48.1996 56.4999 47.0996 55.5999 47.0996 55.5999C47.0996 55.5999 45.7996 55.4999 45.6996 55.5999C45.5996 55.6999 45.2996 56.1999 45.2996 56.1999C45.2996 56.1999 45.4996 57.3999 45.4996 57.4999C45.4996 57.4999 45.6996 57.7999 45.7996 58.0999C45.8996 58.2999 45.9996 58.5999 45.9996 58.6999C45.9996 58.8999 45.9996 59.2999 45.6996 59.1999C45.3996 59.1999 45.1996 58.9999 45.1996 58.9999L44.4996 57.9999L43.4996 55.3999C43.4996 55.3999 42.4996 52.5999 42.2996 52.3999C42.0996 52.1999 38.4996 47.7999 36.9996 45.9999C35.4996 44.2999 33.6996 40.2999 33.6996 40.2999L33.0996 39.1999C33.1996 38.4999 33.3996 37.0999 33.5996 35.7999C33.6996 35.7999 33.8996 35.7999 34.0996 35.6999C34.6996 35.5999 35.2996 35.4999 35.7996 35.2999C35.9996 35.1999 36.1996 35.0999 36.2996 34.8999C36.6996 35.5999 37.5996 36.9999 38.0996 37.4999C38.7996 38.2999 40.2996 40.7999 40.8996 42.5999C41.5996 44.3999 43.8996 49.5999 44.0996 49.9999C44.2996 50.3999 45.4996 52.2999 45.6996 52.4999C45.8996 52.7999 48.0996 54.1999 48.1996 54.1999C48.2996 54.1999 49.6996 56.3999 49.6996 56.4999L49.9996 57.8999Z" fill="#FCC7AA"/>
<path d="M45.9996 58.5C45.9996 58.7 45.9996 59.1 45.6996 59C45.3996 59 45.1996 58.7999 45.1996 58.7999L44.4996 58L43.4996 55.4C43.4996 55.4 42.4996 52.6 42.2996 52.4C42.0996 52.2 38.4996 47.8 36.9996 46C35.4996 44.3 33.6996 40.2999 33.6996 40.2999L33.0996 39.2C33.1996 38.5 33.3996 37.0999 33.5996 35.7999C33.6996 35.7999 33.8996 35.8 34.0996 35.7C34.1996 36.7 34.2996 38.8999 34.3996 39.2999C34.4996 39.8999 35.0996 40.8999 35.4996 41.5999C35.8996 42.2999 37.0996 43.9 37.3996 44.4C37.5996 44.9 39.9996 48.4 39.9996 48.4C39.9996 48.4 41.3996 50.1999 41.7996 50.5999C42.1996 50.9999 42.6996 52.1 42.9996 52.5C43.2996 53 44.1996 56.4 44.1996 56.4L44.9996 57.9L45.7996 58C45.8996 58.2 45.9996 58.5 45.9996 58.5Z" fill="#FAD3BE"/>
<path d="M73.1004 52.7999L70.2004 47.2999L66.9004 42.7999L74.2004 47.0999L77.5004 52.6999L77.8004 55.9999L76.5004 56.3999L73.1004 52.7999Z" fill="#D1BF91"/>
<path d="M56.5004 58.7V48.7L55.4004 46.2L51.5004 48.7L52.3004 54.5L51.3004 56.2999C51.3004 56.2999 51.0004 59.1 51.4004 59.7C51.8004 60.3 52.9004 61.9 52.9004 61.9L53.7004 61.4C53.7004 61.4 54.5004 58.9 56.5004 58.7Z" fill="#D1BF91"/>
<path d="M78.4998 54.9C78.3998 55 78.2998 55 78.1998 55.2C78.1998 55.3 78.0998 55.4 78.0998 55.6C78.0998 55.7 78.0998 55.9 77.9998 56C77.9998 56 77.7998 56.2 77.7998 56.1C77.7998 56.3 77.4998 56.6 77.2998 56.4C77.0998 56.3 77.0998 55.9 77.0998 55.7C77.0998 55.6 77.1998 55.4 77.0998 55.4C76.9998 55.4 76.8998 55.5 76.8998 55.6C76.8998 55.7 76.7998 55.7 76.7998 55.8L76.2998 55.4C76.2998 55.4 76.3998 53.9 76.3998 53.5C76.3998 53.2 76.1998 52.7 75.8998 52.1C75.5998 51.4 74.6998 51.2 74.6998 51.2L74.0998 51.9L73.9998 53L73.3998 53.7L73.1998 53.9C73.1998 53.9 72.6998 53.1 72.5998 52.6C72.5998 52 72.9998 49.7 72.9998 49.6C72.9998 49.5 73.7998 46.1 73.5998 44.4C73.3998 42.7 71.9998 36 71.9998 35.3C71.9998 34.6 70.4998 29.3 70.1998 28.9C69.9998 28.6 70.1998 27.4 70.2998 26.9C70.2998 26.7 70.3998 26.6 70.3998 26.6L72.0998 26.1C72.0998 26.1 74.2998 25.5 74.7998 26.6C75.1998 27.7 77.0998 33 77.1998 34.8C77.3998 36.6 76.9998 43.9 76.8998 45.2C76.7998 46.4 77.0998 48.2 77.1998 48.6C77.2998 49 78.2998 51.3 78.3998 51.7C78.4998 52.1 78.4998 52.6 78.5998 53C78.6998 53.4 78.6998 53.9 78.6998 54.3C78.5998 54.4 78.5998 54.8 78.4998 54.9Z" fill="#FCC7AA"/>
<path d="M73.0998 52.8L73.2998 53.6L73.0998 53.8C73.0998 53.8 72.5998 53 72.4998 52.5C72.5998 52 72.9998 49.7 72.9998 49.6C72.9998 49.5 73.7998 46.1 73.5998 44.4C73.3998 42.7 71.9998 36 71.9998 35.3C71.9998 34.6 70.4998 29.3 70.1998 28.9C69.9998 28.6 70.1998 27.4 70.2998 26.9C70.9998 27.1 71.5998 27.3 71.5998 27.3C71.5998 27.3 71.2998 29.2 71.5998 30C71.8998 30.8 72.5998 33.9 72.5998 33.9L74.4998 33.5C74.4998 33.5 73.0998 34.2 72.9998 34.7C72.8998 35.1 73.4998 38 73.3998 39.1C73.2998 40.2 74.0998 45.1 74.1998 45.4C74.2998 45.8 74.1998 47.1 74.1998 47.1C74.1998 47.1 73.0998 51.3 73.0998 51.5C73.0998 51.7 73.0998 52.8 73.0998 52.8Z" fill="#FAD3BE"/>
<path d="M74.7004 51.1L74.0004 52.3L73.2004 53.6L72.5004 54.8C72.5004 54.8 72.3004 55.1 73.2004 55.2C74.1004 55.3 75.5004 55.6 75.7004 55.5C75.9004 55.4 76.3004 54.6 76.3004 54.6V53.5L76.1004 52.9L75.8004 52C75.8004 52 75.7004 51.5 74.7004 51.1Z" fill="#323338"/>
<path d="M56.9007 56.6C56.9007 56.6 56.9007 57.9 56.6007 58.5C56.6007 58.6 56.5007 58.7 56.4007 58.8C56.0007 59.2 55.7007 58.4 55.6007 57.8C55.5007 57.2 55.6007 55.4 55.6007 55.4L55.1007 56.2V58C55.1007 58 54.9007 60 54.9007 60.8C54.8007 61.7 54.0007 61.6 53.8007 61.4C53.8007 61.4 53.7007 61.2 53.7007 61C53.6007 60.3 53.7007 58.9 53.7007 58.9C53.7007 58.9 53.3007 58.9 53.2007 58.9C53.1007 58.9 52.4007 58.4 52.1007 58.2C51.8007 58 51.2007 56.5 51.1007 55.9C50.9007 55.3 50.9007 54.9 51.2007 53.9C51.5007 52.9 52.0007 51.8 52.0007 51.5C52.0007 51.2 50.4007 42.6 50.2007 41.1C50.0007 39.6 50.3007 37.9 50.4007 37C50.5007 36.2 49.6007 31 49.4007 29.2C49.2007 27.4 49.7007 26.1 49.7007 26.1C49.7007 26.1 49.8007 26.1 50.0007 26.1C50.9007 26.1 53.7007 26.3 54.3007 26.7C55.1007 27.2 54.9007 28.4 55.2007 30.3C55.5007 32.2 55.3007 35.4 55.2007 36.2C55.1007 37 55.1007 38.9 55.1007 42.7C55.1007 46.5 55.3007 49.9 55.7007 51C56.1007 52.1 57.2007 54.8 57.2007 54.8L56.9007 56.6Z" fill="#FCC7AA"/>
<path d="M78.4998 54.9001C78.3998 55.0001 78.2998 55 78.1998 55.2001C78.1998 55.3001 78.0998 55.4 78.0998 55.6C78.0998 55.7 78.0998 55.9 77.9998 56C77.9998 56 77.7998 56.2 77.7998 56.1C77.7998 56.3 77.4998 56.6001 77.2998 56.4001C77.0998 56.3001 77.0998 55.9001 77.0998 55.7001C77.0998 55.6 77.1998 55.4001 77.0998 55.4001C76.9998 55.4001 76.8998 55.5 76.8998 55.6L77.1998 53.8L76.9998 51.3L77.3998 53.6L77.1998 55.9001C77.1998 55.9001 77.3998 56.1 77.4998 56.1C77.6998 56.1 77.5998 53.8 77.5998 53.8L77.3998 51.6L77.6998 53.5V55.5L77.8998 55.3L77.9998 54.9001L77.6998 51.6L78.0998 53.2001L78.2998 54.6C78.2998 54.4 78.2998 52.9001 78.2998 52.7001C78.2998 52.5 77.7998 51.3 77.6998 51C77.6998 50.6 76.3998 48.5 76.3998 48.1C76.3998 47.8 76.4998 41.0001 76.6998 38.9001C76.9998 36.8001 76.4998 34.2 76.1998 33C75.8998 31.8 74.2998 27 74.2998 27L74.5998 26.8C74.9998 27.9 76.8998 33.2 76.9998 35C77.1998 36.8 76.7998 44.1001 76.6998 45.4001C76.5998 46.6001 76.8998 48.4 76.9998 48.8C77.0998 49.2 78.0998 51.5001 78.1998 51.9001C78.2998 52.3001 78.2998 52.8001 78.3998 53.2001C78.4998 53.6 78.4998 54.1 78.4998 54.5C78.5998 54.4 78.5998 54.8001 78.4998 54.9001Z" fill="#FAD3BE"/>
<path d="M53.6007 56.5L53.7007 58.9C53.7007 58.9 53.3007 58.9 53.2007 58.9C53.1007 58.9 52.4007 58.4 52.1007 58.2C51.8007 58 51.2007 56.5 51.1007 55.9C50.9007 55.3 50.9007 54.9 51.2007 53.9C51.5007 52.9 52.0007 51.8 52.0007 51.5C52.0007 51.2 50.4007 42.6 50.2007 41.1C50.0007 39.6 50.3007 37.9 50.4007 37C50.5007 36.2 49.6007 31 49.4007 29.2C49.2007 27.4 49.7007 26.1 49.7007 26.1C49.7007 26.1 49.8007 26.1 50.0007 26.1C50.0007 26.8 49.9007 27.5 49.9007 27.8C49.9007 29 50.6007 34.4 50.7007 34.7C50.8007 35 50.7007 37.1 50.6007 39.3C50.4007 41.5 52.0007 50 52.0007 50L52.6007 51.6C52.6007 51.6 52.4007 51.8 52.2007 52.2C52.0007 52.7 51.3007 55.5 51.3007 55.5L51.8007 56.9L52.0007 56L52.2007 57.1L52.6007 57.8L52.8007 56.3L53.0007 58.2L53.5007 58.5L53.6007 56.5Z" fill="#FAD3BE"/>
<path d="M75.4005 27C75.4005 27 74.1005 28.3 72.8005 28.6C71.6005 28.9 70.2005 28.9 70.2005 28.9C70.2005 28.9 69.7005 27.1 69.6005 26.9C69.5005 26.7 71.4005 16.5 71.4005 16.5C71.4005 16.5 72.2005 17 73.1005 19C74.1005 21.1 74.9005 25.6 75.4005 27Z" fill="#4D98C7"/>
<path d="M51.0003 17.6C51.0003 17.6 49.3003 19.1 49.0003 22.1C48.7003 25.1 48.9003 28 48.9003 28C48.9003 28 51.2003 28.1 52.5003 28.3C53.9003 28.5 54.9003 28.2 54.9003 28.2C54.9003 28.2 54.5003 23.9 54.2003 22.7C53.9003 21.5 53.1003 18.9 52.3003 17.8C51.7003 16.7 51.0003 17.6 51.0003 17.6Z" fill="#4D98C7"/>
<path d="M56.7002 58.4001C56.7002 58.5001 56.6002 58.6001 56.5002 58.7001C56.1002 59.1001 55.8002 58.3001 55.7002 57.7001C55.6002 57.1001 55.7002 55.3 55.7002 55.3L55.2002 56.1L55.1002 58C55.1002 58 54.9002 60 54.9002 60.8C54.8002 61.7 54.0002 61.6001 53.8002 61.4001C53.8002 61.4001 53.7002 61.2 53.7002 61C53.8002 61.1 53.9002 61.2001 54.0002 61.2001C54.3002 61.2001 54.7002 60.7001 54.7002 60.7001L55.0002 57.2001L55.3002 55.5L55.8002 54.3C55.8002 54.3 56.0002 54.5001 56.0002 55.2001C56.0002 55.8001 56.0002 57.2001 56.0002 57.2001C56.0002 57.2001 55.9002 57.8001 56.1002 58.2001C56.2002 58.6001 56.6002 58.5001 56.7002 58.4001Z" fill="#FAD3BE"/>
<path d="M68.6996 25.1L65.0996 25.5V26.4L68.6996 26V25.1Z" fill="#4D98C7"/>
<path d="M67.2998 25.2V23H67.9998V25.1L67.2998 25.2Z" fill="#0053D0"/>
<path d="M66.8996 24.3999H66.0996L66.1996 25.2999H66.8996V24.3999Z" fill="#FFE342"/>
</svg>
