<svg width="20" height="20" viewBox="0 0 20 20" fill="none" xmlns="http://www.w3.org/2000/svg">
<path d="M14.7558 10.2426C14.6785 10.1652 14.5866 10.1037 14.4855 10.0618C14.3844 10.0199 14.2761 9.99831 14.1666 9.99831C14.0572 9.99831 13.9488 10.0199 13.8477 10.0618C13.7466 10.1037 13.6548 10.1652 13.5775 10.2426L12.2491 11.571C11.6333 11.3876 10.4841 10.971 9.75579 10.2426C9.02745 9.51431 8.61079 8.36515 8.42745 7.74931L9.75579 6.42098C9.83324 6.34366 9.89469 6.25182 9.93661 6.15072C9.97854 6.04963 10.0001 5.94126 10.0001 5.83181C10.0001 5.72237 9.97854 5.614 9.93661 5.5129C9.89469 5.41181 9.83324 5.31997 9.75579 5.24265L6.42245 1.90931C6.34513 1.83186 6.25329 1.77041 6.1522 1.72848C6.0511 1.68656 5.94273 1.66498 5.83329 1.66498C5.72384 1.66498 5.61547 1.68656 5.51437 1.72848C5.41328 1.77041 5.32144 1.83186 5.24412 1.90931L2.98412 4.16931C2.66745 4.48598 2.48912 4.92098 2.49579 5.36515C2.51495 6.55181 2.82912 10.6735 6.07745 13.9218C9.32579 17.1701 13.4475 17.4835 14.635 17.5035H14.6583C15.0983 17.5035 15.5141 17.3301 15.8291 17.0151L18.0891 14.7551C18.1666 14.6778 18.228 14.586 18.2699 14.4849C18.3119 14.3838 18.3335 14.2754 18.3335 14.166C18.3335 14.0565 18.3119 13.9482 18.2699 13.8471C18.228 13.746 18.1666 13.6541 18.0891 13.5768L14.7558 10.2426ZM14.65 15.836C13.61 15.8185 10.0516 15.5393 7.25579 12.7426C4.45079 9.93765 4.17912 6.36681 4.16245 5.34765L5.83329 3.67681L7.98829 5.83181L6.91079 6.90931C6.81284 7.00719 6.74082 7.12793 6.70125 7.26062C6.66167 7.39331 6.65578 7.53377 6.68412 7.66931C6.70412 7.76515 7.19329 10.0376 8.57662 11.421C9.95995 12.8043 12.2325 13.2935 12.3283 13.3135C12.4637 13.3426 12.6043 13.3372 12.7372 13.2977C12.87 13.2583 12.9907 13.186 13.0883 13.0876L14.1666 12.0101L16.3216 14.1651L14.65 15.836Z" fill="white"/>
</svg>
