<svg width="20" height="20" viewBox="0 0 20 20" fill="none" xmlns="http://www.w3.org/2000/svg">
<path d="M14.7563 10.2427C14.679 10.1653 14.5871 10.1038 14.486 10.0619C14.3849 10.02 14.2766 9.99837 14.1671 9.99837C14.0577 9.99837 13.9493 10.02 13.8482 10.0619C13.7471 10.1038 13.6553 10.1653 13.5779 10.2427L12.2496 11.571C11.6338 11.3877 10.4846 10.971 9.75627 10.2427C9.02794 9.51437 8.61127 8.36521 8.42794 7.74937L9.75627 6.42104C9.83373 6.34372 9.89518 6.25188 9.9371 6.15078C9.97903 6.04969 10.0006 5.94132 10.0006 5.83187C10.0006 5.72243 9.97903 5.61406 9.9371 5.51296C9.89518 5.41187 9.83373 5.32003 9.75627 5.24271L6.42294 1.90937C6.34562 1.83192 6.25378 1.77047 6.15269 1.72854C6.05159 1.68662 5.94322 1.66504 5.83377 1.66504C5.72433 1.66504 5.61596 1.68662 5.51486 1.72854C5.41377 1.77047 5.32193 1.83192 5.24461 1.90937L2.98461 4.16937C2.66794 4.48604 2.48961 4.92104 2.49627 5.36521C2.51544 6.55187 2.82961 10.6735 6.07794 13.9219C9.32627 17.1702 13.4479 17.4835 14.6354 17.5035H14.6588C15.0988 17.5035 15.5146 17.3302 15.8296 17.0152L18.0896 14.7552C18.1671 14.6779 18.2285 14.586 18.2704 14.485C18.3124 14.3839 18.3339 14.2755 18.3339 14.166C18.3339 14.0566 18.3124 13.9482 18.2704 13.8471C18.2285 13.746 18.1671 13.6542 18.0896 13.5769L14.7563 10.2427ZM14.6504 15.836C13.6104 15.8185 10.0521 15.5394 7.25627 12.7427C4.45127 9.93771 4.17961 6.36687 4.16294 5.34771L5.83377 3.67687L7.98877 5.83187L6.91127 6.90937C6.81333 7.00725 6.74131 7.12799 6.70173 7.26068C6.66216 7.39337 6.65627 7.53384 6.68461 7.66937C6.70461 7.76521 7.19377 10.0377 8.57711 11.421C9.96044 12.8044 12.2329 13.2935 12.3288 13.3135C12.4642 13.3427 12.6048 13.3373 12.7376 13.2978C12.8705 13.2583 12.9912 13.1861 13.0888 13.0877L14.1671 12.0102L16.3221 14.1652L14.6504 15.836Z" fill="#AD3A23"/>
</svg>
