<svg width="271" height="222" viewBox="0 0 271 222" fill="none" xmlns="http://www.w3.org/2000/svg">
<path fill-rule="evenodd" clip-rule="evenodd" d="M66.0164 75.9518L66.0162 98.9886L64.5104 98.1942L64.5104 75.1573L66.0164 75.9518Z" fill="#AF8643"/>
<path fill-rule="evenodd" clip-rule="evenodd" d="M66.0159 75.9516L66.0159 98.9884L67.5218 98.1941L67.5217 75.1572L66.0159 75.9516Z" fill="#835F25"/>
<path fill-rule="evenodd" clip-rule="evenodd" d="M64.5097 75.1573L66.0155 75.9517L67.5215 75.1573L66.0155 74.3629L64.5097 75.1573Z" fill="#835F25"/>
<path fill-rule="evenodd" clip-rule="evenodd" d="M75.0515 69.5968L75.0514 92.6337L73.5456 91.8392L73.5456 68.8023L75.0515 69.5968Z" fill="#AF8643"/>
<path fill-rule="evenodd" clip-rule="evenodd" d="M75.0521 69.5966L75.052 92.6335L76.5579 91.8391L76.5579 68.8022L75.0521 69.5966Z" fill="#835F25"/>
<path fill-rule="evenodd" clip-rule="evenodd" d="M73.5449 68.8023L75.0507 69.5967L76.5566 68.8023L75.0507 68.0079L73.5449 68.8023Z" fill="#835F25"/>
<path fill-rule="evenodd" clip-rule="evenodd" d="M85.5926 62.4474L85.5924 85.4842L84.0866 84.6898L84.0866 61.6529L85.5926 62.4474Z" fill="#AF8643"/>
<path fill-rule="evenodd" clip-rule="evenodd" d="M85.5921 62.4472L85.5921 85.484L87.0979 84.6897L87.0979 61.6528L85.5921 62.4472Z" fill="#835F25"/>
<path fill-rule="evenodd" clip-rule="evenodd" d="M84.0868 61.6529L85.5927 62.4473L87.0986 61.6529L85.5927 60.8585L84.0868 61.6529Z" fill="#835F25"/>
<path fill-rule="evenodd" clip-rule="evenodd" d="M95.3806 56.0926L95.3805 79.1295L93.8747 78.335L93.8747 55.2982L95.3806 56.0926Z" fill="#AF8643"/>
<path fill-rule="evenodd" clip-rule="evenodd" d="M95.3802 56.0925L95.3802 79.1293L96.886 78.3349L96.886 55.2981L95.3802 56.0925Z" fill="#835F25"/>
<path fill-rule="evenodd" clip-rule="evenodd" d="M93.8749 55.2981L95.3808 56.0925L96.8867 55.2981L95.3808 54.5038L93.8749 55.2981Z" fill="#835F25"/>
<path fill-rule="evenodd" clip-rule="evenodd" d="M105.922 48.9432L105.921 71.9801L104.416 71.1856L104.416 48.1487L105.922 48.9432Z" fill="#AF8643"/>
<path fill-rule="evenodd" clip-rule="evenodd" d="M105.921 48.9431L105.921 71.9799L107.427 71.1855L107.427 48.1487L105.921 48.9431Z" fill="#835F25"/>
<path fill-rule="evenodd" clip-rule="evenodd" d="M104.415 48.1487L105.921 48.9431L107.427 48.1487L105.921 47.3544L104.415 48.1487Z" fill="#835F25"/>
<path fill-rule="evenodd" clip-rule="evenodd" d="M114.956 42.5882L114.956 65.6251L113.45 64.8306L113.45 41.7938L114.956 42.5882Z" fill="#AF8643"/>
<path fill-rule="evenodd" clip-rule="evenodd" d="M114.955 42.5881L114.955 65.6249L116.461 64.8305L116.461 41.7937L114.955 42.5881Z" fill="#835F25"/>
<path fill-rule="evenodd" clip-rule="evenodd" d="M113.45 41.7938L114.956 42.5881L116.462 41.7937L114.956 40.9994L113.45 41.7938Z" fill="#835F25"/>
<path fill-rule="evenodd" clip-rule="evenodd" d="M123.991 37.8219L123.991 60.8588L122.485 60.0643L122.485 37.0274L123.991 37.8219Z" fill="#AF8643"/>
<path fill-rule="evenodd" clip-rule="evenodd" d="M123.991 37.8217L123.991 60.8586L125.496 60.0642L125.496 37.0273L123.991 37.8217Z" fill="#835F25"/>
<path fill-rule="evenodd" clip-rule="evenodd" d="M122.485 37.0274L123.991 37.8218L125.497 37.0274L123.991 36.233L122.485 37.0274Z" fill="#835F25"/>
<path fill-rule="evenodd" clip-rule="evenodd" d="M157.12 60.8588L157.12 83.8956L155.614 83.1011L155.614 60.0643L157.12 60.8588Z" fill="#AF8643"/>
<path fill-rule="evenodd" clip-rule="evenodd" d="M157.12 60.8586L157.12 83.8954L158.626 83.1011L158.626 60.0642L157.12 60.8586Z" fill="#835F25"/>
<path fill-rule="evenodd" clip-rule="evenodd" d="M155.614 60.0643L157.12 60.8586L158.626 60.0642L157.12 59.2699L155.614 60.0643Z" fill="#835F25"/>
<path fill-rule="evenodd" clip-rule="evenodd" d="M134.532 45.5637L134.532 66.9111L133.026 66.1749L133.026 44.8275L134.532 45.5637Z" fill="#AF8643"/>
<path fill-rule="evenodd" clip-rule="evenodd" d="M134.532 45.5636L134.532 66.911L136.037 66.1749L136.037 44.8275L134.532 45.5636Z" fill="#835F25"/>
<path fill-rule="evenodd" clip-rule="evenodd" d="M133.026 44.8274L134.532 45.5635L136.038 44.8274L134.532 44.0913L133.026 44.8274Z" fill="#835F25"/>
<path fill-rule="evenodd" clip-rule="evenodd" d="M144.32 53.5073L144.32 74.8547L142.814 74.1185L142.814 52.7711L144.32 53.5073Z" fill="#AF8643"/>
<path fill-rule="evenodd" clip-rule="evenodd" d="M144.32 53.5072L144.32 74.8546L145.825 74.1185L145.825 52.7711L144.32 53.5072Z" fill="#835F25"/>
<path fill-rule="evenodd" clip-rule="evenodd" d="M142.813 52.771L144.319 53.5071L145.825 52.771L144.319 52.0349L142.813 52.771Z" fill="#835F25"/>
<path fill-rule="evenodd" clip-rule="evenodd" d="M174.436 71.1857L174.436 94.2225L172.93 93.428L172.93 70.3912L174.436 71.1857Z" fill="#AF8643"/>
<path fill-rule="evenodd" clip-rule="evenodd" d="M174.436 71.1855L174.436 94.2223L175.942 93.428L175.942 70.3911L174.436 71.1855Z" fill="#835F25"/>
<path fill-rule="evenodd" clip-rule="evenodd" d="M172.93 70.3912L174.435 71.1855L175.941 70.3911L174.435 69.5968L172.93 70.3912Z" fill="#835F25"/>
<path fill-rule="evenodd" clip-rule="evenodd" d="M195.518 84.6901L195.518 107.727L194.012 106.932L194.012 83.8956L195.518 84.6901Z" fill="#AF8643"/>
<path fill-rule="evenodd" clip-rule="evenodd" d="M195.518 84.6899L195.518 107.727L197.024 106.932L197.024 83.8955L195.518 84.6899Z" fill="#835F25"/>
<path fill-rule="evenodd" clip-rule="evenodd" d="M194.013 83.8956L195.518 84.6899L197.024 83.8955L195.518 83.1012L194.013 83.8956Z" fill="#835F25"/>
<path fill-rule="evenodd" clip-rule="evenodd" d="M184.224 77.5406L184.224 100.578L182.718 99.783L182.718 76.7461L184.224 77.5406Z" fill="#AF8643"/>
<path fill-rule="evenodd" clip-rule="evenodd" d="M184.225 77.5405L184.225 100.577L185.731 99.7829L185.731 76.7461L184.225 77.5405Z" fill="#835F25"/>
<path fill-rule="evenodd" clip-rule="evenodd" d="M182.719 76.7461L184.225 77.5405L185.73 76.7461L184.225 75.9518L182.719 76.7461Z" fill="#835F25"/>
<path fill-rule="evenodd" clip-rule="evenodd" d="M208.318 93.4281L208.318 116.465L206.812 115.67L206.812 92.6336L208.318 93.4281Z" fill="#AF8643"/>
<path fill-rule="evenodd" clip-rule="evenodd" d="M208.318 93.4279L208.318 116.465L209.824 115.67L209.823 92.6335L208.318 93.4279Z" fill="#835F25"/>
<path fill-rule="evenodd" clip-rule="evenodd" d="M206.812 92.6336L208.318 93.428L209.824 92.6336L208.318 91.8392L206.812 92.6336Z" fill="#835F25"/>
<path fill-rule="evenodd" clip-rule="evenodd" d="M222.624 102.961L222.624 125.997L221.118 125.203L221.118 102.166L222.624 102.961Z" fill="#AF8643"/>
<path fill-rule="evenodd" clip-rule="evenodd" d="M222.624 102.961L222.624 125.997L224.13 125.203L224.13 102.166L222.624 102.961Z" fill="#835F25"/>
<path fill-rule="evenodd" clip-rule="evenodd" d="M221.117 102.166L222.623 102.96L224.129 102.166L222.623 101.372L221.117 102.166Z" fill="#835F25"/>
<path fill-rule="evenodd" clip-rule="evenodd" d="M206.059 113.287L206.059 136.324L204.553 135.53L204.553 112.493L206.059 113.287Z" fill="#AF8643"/>
<path fill-rule="evenodd" clip-rule="evenodd" d="M206.059 113.287L206.059 136.324L207.565 135.53L207.565 112.493L206.059 113.287Z" fill="#835F25"/>
<path fill-rule="evenodd" clip-rule="evenodd" d="M204.553 112.493L206.058 113.287L207.564 112.493L206.059 111.699L204.553 112.493Z" fill="#835F25"/>
<path fill-rule="evenodd" clip-rule="evenodd" d="M214.342 108.521L214.341 131.558L212.836 130.763L212.836 107.727L214.342 108.521Z" fill="#AF8643"/>
<path fill-rule="evenodd" clip-rule="evenodd" d="M214.341 108.521L214.341 131.558L215.847 130.763L215.847 107.727L214.341 108.521Z" fill="#835F25"/>
<path fill-rule="evenodd" clip-rule="evenodd" d="M212.836 107.727L214.342 108.521L215.848 107.727L214.342 106.932L212.836 107.727Z" fill="#835F25"/>
<path fill-rule="evenodd" clip-rule="evenodd" d="M197.024 119.642L197.024 142.679L195.518 141.885L195.518 118.848L197.024 119.642Z" fill="#AF8643"/>
<path fill-rule="evenodd" clip-rule="evenodd" d="M197.024 119.642L197.024 142.679L198.53 141.885L198.53 118.848L197.024 119.642Z" fill="#835F25"/>
<path fill-rule="evenodd" clip-rule="evenodd" d="M195.518 118.848L197.023 119.642L198.529 118.848L197.023 118.054L195.518 118.848Z" fill="#835F25"/>
<path fill-rule="evenodd" clip-rule="evenodd" d="M186.483 126.792L186.483 149.829L184.977 149.034L184.977 125.997L186.483 126.792Z" fill="#AF8643"/>
<path fill-rule="evenodd" clip-rule="evenodd" d="M186.483 126.792L186.483 149.829L187.989 149.034L187.989 125.997L186.483 126.792Z" fill="#835F25"/>
<path fill-rule="evenodd" clip-rule="evenodd" d="M184.976 125.997L186.482 126.792L187.988 125.997L186.482 125.203L184.976 125.997Z" fill="#835F25"/>
<path fill-rule="evenodd" clip-rule="evenodd" d="M175.19 133.941L175.19 156.978L173.684 156.184L173.684 133.147L175.19 133.941Z" fill="#AF8643"/>
<path fill-rule="evenodd" clip-rule="evenodd" d="M175.19 133.941L175.19 156.978L176.696 156.184L176.696 133.147L175.19 133.941Z" fill="#835F25"/>
<path fill-rule="evenodd" clip-rule="evenodd" d="M173.684 133.147L175.189 133.941L176.695 133.147L175.189 132.352L173.684 133.147Z" fill="#835F25"/>
<path fill-rule="evenodd" clip-rule="evenodd" d="M164.649 141.091L164.649 164.128L163.143 163.333L163.143 140.296L164.649 141.091Z" fill="#AF8643"/>
<path fill-rule="evenodd" clip-rule="evenodd" d="M164.65 141.091L164.65 164.127L166.156 163.333L166.156 140.296L164.65 141.091Z" fill="#835F25"/>
<path fill-rule="evenodd" clip-rule="evenodd" d="M163.143 140.296L164.648 141.091L166.154 140.296L164.648 139.502L163.143 140.296Z" fill="#835F25"/>
<path fill-rule="evenodd" clip-rule="evenodd" d="M127.003 115.671L127.003 138.707L125.497 137.913L125.497 114.876L127.003 115.671Z" fill="#AF8643"/>
<path fill-rule="evenodd" clip-rule="evenodd" d="M127.003 115.67L127.003 138.707L128.509 137.913L128.509 114.876L127.003 115.67Z" fill="#835F25"/>
<path fill-rule="evenodd" clip-rule="evenodd" d="M125.497 114.876L127.003 115.67L128.509 114.876L127.003 114.082L125.497 114.876Z" fill="#835F25"/>
<path fill-rule="evenodd" clip-rule="evenodd" d="M139.803 124.409L139.802 147.446L138.297 146.651L138.297 123.614L139.803 124.409Z" fill="#AF8643"/>
<path fill-rule="evenodd" clip-rule="evenodd" d="M139.802 124.409L139.802 147.446L141.308 146.651L141.308 123.614L139.802 124.409Z" fill="#835F25"/>
<path fill-rule="evenodd" clip-rule="evenodd" d="M138.296 123.614L139.802 124.409L141.308 123.614L139.802 122.82L138.296 123.614Z" fill="#835F25"/>
<path fill-rule="evenodd" clip-rule="evenodd" d="M152.602 133.147L152.602 156.184L151.096 155.389L151.096 132.352L152.602 133.147Z" fill="#AF8643"/>
<path fill-rule="evenodd" clip-rule="evenodd" d="M152.603 133.147L152.603 156.184L154.109 155.389L154.109 132.352L152.603 133.147Z" fill="#835F25"/>
<path fill-rule="evenodd" clip-rule="evenodd" d="M151.097 132.352L152.602 133.147L154.108 132.352L152.602 131.558L151.097 132.352Z" fill="#835F25"/>
<path fill-rule="evenodd" clip-rule="evenodd" d="M152.602 98.1942L152.602 121.231L151.096 120.437L151.096 97.3997L152.602 98.1942Z" fill="#AF8643"/>
<path fill-rule="evenodd" clip-rule="evenodd" d="M152.603 98.1943L152.603 121.231L154.109 120.437L154.109 97.3999L152.603 98.1943Z" fill="#835F25"/>
<path fill-rule="evenodd" clip-rule="evenodd" d="M151.097 97.3997L152.602 98.1941L154.108 97.3997L152.602 96.6053L151.097 97.3997Z" fill="#835F25"/>
<path fill-rule="evenodd" clip-rule="evenodd" d="M165.402 106.932L165.402 129.969L163.896 129.175L163.896 106.138L165.402 106.932Z" fill="#AF8643"/>
<path fill-rule="evenodd" clip-rule="evenodd" d="M165.402 106.932L165.402 129.969L166.907 129.175L166.907 106.138L165.402 106.932Z" fill="#835F25"/>
<path fill-rule="evenodd" clip-rule="evenodd" d="M163.895 106.138L165.401 106.932L166.907 106.138L165.401 105.344L163.895 106.138Z" fill="#835F25"/>
<path fill-rule="evenodd" clip-rule="evenodd" d="M181.213 98.1942L181.212 121.231L179.707 120.437L179.707 97.3997L181.213 98.1942Z" fill="#AF8643"/>
<path fill-rule="evenodd" clip-rule="evenodd" d="M181.212 98.1943L181.212 121.231L182.718 120.437L182.718 97.3999L181.212 98.1943Z" fill="#835F25"/>
<path fill-rule="evenodd" clip-rule="evenodd" d="M179.706 97.3997L181.212 98.1941L182.718 97.3997L181.212 96.6053L179.706 97.3997Z" fill="#835F25"/>
<path fill-rule="evenodd" clip-rule="evenodd" d="M74.2986 81.5123L74.2984 104.549L72.7927 103.755L72.7926 80.7178L74.2986 81.5123Z" fill="#AF8643"/>
<path fill-rule="evenodd" clip-rule="evenodd" d="M74.2982 81.5122L74.2981 104.549L75.804 103.755L75.804 80.7178L74.2982 81.5122Z" fill="#835F25"/>
<path fill-rule="evenodd" clip-rule="evenodd" d="M72.7929 80.7178L74.2987 81.5122L75.8047 80.7178L74.2987 79.9235L72.7929 80.7178Z" fill="#835F25"/>
<path fill-rule="evenodd" clip-rule="evenodd" d="M83.3338 87.8675L83.3336 110.904L81.8278 110.11L81.8278 87.0731L83.3338 87.8675Z" fill="#AF8643"/>
<path fill-rule="evenodd" clip-rule="evenodd" d="M83.3333 87.8674L83.3333 110.904L84.8391 110.11L84.8391 87.073L83.3333 87.8674Z" fill="#835F25"/>
<path fill-rule="evenodd" clip-rule="evenodd" d="M81.8281 87.073L83.3339 87.8674L84.8398 87.073L83.3339 86.2787L81.8281 87.073Z" fill="#835F25"/>
<path fill-rule="evenodd" clip-rule="evenodd" d="M93.1219 94.2225L93.1217 117.259L91.6159 116.465L91.6159 93.428L93.1219 94.2225Z" fill="#AF8643"/>
<path fill-rule="evenodd" clip-rule="evenodd" d="M93.1224 94.2224L93.1224 117.259L94.6282 116.465L94.6282 93.428L93.1224 94.2224Z" fill="#835F25"/>
<path fill-rule="evenodd" clip-rule="evenodd" d="M91.6152 93.428L93.121 94.2224L94.6269 93.428L93.121 92.6337L91.6152 93.428Z" fill="#835F25"/>
<path fill-rule="evenodd" clip-rule="evenodd" d="M102.157 99.7831L102.157 122.82L100.651 122.025L100.651 98.9886L102.157 99.7831Z" fill="#AF8643"/>
<path fill-rule="evenodd" clip-rule="evenodd" d="M102.157 99.7829L102.157 122.82L103.662 122.025L103.662 98.9885L102.157 99.7829Z" fill="#835F25"/>
<path fill-rule="evenodd" clip-rule="evenodd" d="M100.651 98.9886L102.157 99.783L103.663 98.9886L102.157 98.1942L100.651 98.9886Z" fill="#835F25"/>
<path fill-rule="evenodd" clip-rule="evenodd" d="M106.674 93.4281L106.673 116.465L105.168 115.67L105.168 92.6336L106.674 93.4281Z" fill="#AF8643"/>
<path fill-rule="evenodd" clip-rule="evenodd" d="M106.673 93.4279L106.673 116.465L108.179 115.67L108.179 92.6335L106.673 93.4279Z" fill="#835F25"/>
<path fill-rule="evenodd" clip-rule="evenodd" d="M105.168 92.6336L106.674 93.428L108.18 92.6336L106.674 91.8392L105.168 92.6336Z" fill="#835F25"/>
<path fill-rule="evenodd" clip-rule="evenodd" d="M114.956 87.8675L114.956 110.904L113.45 110.11L113.45 87.0731L114.956 87.8675Z" fill="#AF8643"/>
<path fill-rule="evenodd" clip-rule="evenodd" d="M114.955 87.8674L114.955 110.904L116.461 110.11L116.461 87.073L114.955 87.8674Z" fill="#835F25"/>
<path fill-rule="evenodd" clip-rule="evenodd" d="M113.45 87.073L114.956 87.8674L116.462 87.073L114.956 86.2787L113.45 87.073Z" fill="#835F25"/>
<path fill-rule="evenodd" clip-rule="evenodd" d="M270.106 135.676L146.357 213.694L0.65625 121.944L124.405 43.927L270.106 135.676Z" fill="#D1C393"/>
<path fill-rule="evenodd" clip-rule="evenodd" d="M0.65625 121.944L146.357 213.694V221.522L0.699978 129.816L0.65625 121.944Z" fill="#AF9D64"/>
<path fill-rule="evenodd" clip-rule="evenodd" d="M270.106 135.676L146.356 213.694V221.522L270.018 143.679L270.106 135.676Z" fill="#9D8B4E"/>
<path fill-rule="evenodd" clip-rule="evenodd" d="M165.553 172.455L120.558 80.1805L142.509 80.0056L232.107 135.457L173.993 172.455H165.553Z" fill="#AF9D64"/>
<path fill-rule="evenodd" clip-rule="evenodd" d="M165.553 172.454L66.9473 110.355V103.096L165.553 165.108V172.454Z" fill="#9A3227"/>
<path fill-rule="evenodd" clip-rule="evenodd" d="M224.629 135.283V128.242C199.004 144.291 191.221 148.84 165.553 164.977V172.455C191.046 156.668 199.223 151.245 224.629 135.283Z" fill="#6E2E2C"/>
<path fill-rule="evenodd" clip-rule="evenodd" d="M165.553 168.3L66.9473 106.332V101.259L165.553 163.271V168.3Z" fill="#612F2B"/>
<path fill-rule="evenodd" clip-rule="evenodd" d="M165.99 167.819L65.0234 104.277V96.3176L166.034 159.947L165.99 167.819Z" fill="#B0B0B0"/>
<path fill-rule="evenodd" clip-rule="evenodd" d="M226.553 129.772V121.857L166.078 159.947V167.819C192.096 151.638 200.535 146.128 226.553 129.772Z" fill="#7F7F7F"/>
<path fill-rule="evenodd" clip-rule="evenodd" d="M141.765 133.84V111.624C138.004 109.262 134.2 106.901 130.439 104.583V126.711L141.765 133.84Z" fill="#979797"/>
<path fill-rule="evenodd" clip-rule="evenodd" d="M141.765 133.84V119.67C138.004 122.032 136.299 123.125 132.494 125.443L130.396 126.755L141.765 133.84Z" fill="#E3E3E3"/>
<path fill-rule="evenodd" clip-rule="evenodd" d="M141.765 111.624L132.495 105.851V125.399L141.765 131.172V111.624Z" fill="#3B3E40"/>
<path fill-rule="evenodd" clip-rule="evenodd" d="M109.451 173.767L60.9131 142.717V140.355L109.451 171.405V173.767Z" fill="#835F25"/>
<path fill-rule="evenodd" clip-rule="evenodd" d="M138.442 153.081L109.451 171.405L60.9131 140.355L89.2486 122.163L136.081 151.638L138.442 153.081Z" fill="#C4984C"/>
<path fill-rule="evenodd" clip-rule="evenodd" d="M138.442 155.443L109.494 173.767V171.405L138.486 153.082V155.443H138.442Z" fill="#835F25"/>
<path fill-rule="evenodd" clip-rule="evenodd" d="M109.451 168.475L66.0293 140.88V138.519L113.78 137.732L109.451 168.475Z" fill="#835F25"/>
<path fill-rule="evenodd" clip-rule="evenodd" d="M136.081 149.233L109.451 166.114L66.0293 138.519L92.397 121.595L133.763 147.79L136.081 149.233Z" fill="#C4984C"/>
<path fill-rule="evenodd" clip-rule="evenodd" d="M136.081 151.638L109.451 168.431V166.07L136.081 149.233V151.638Z" fill="#835F25"/>
<path fill-rule="evenodd" clip-rule="evenodd" d="M109.407 163.184L71.1895 139.044V136.682L109.451 160.822L109.407 163.184Z" fill="#835F25"/>
<path fill-rule="evenodd" clip-rule="evenodd" d="M133.764 145.428L109.407 160.822L71.1895 136.682L95.0647 121.332L133.764 145.428Z" fill="#B65627"/>
<path fill-rule="evenodd" clip-rule="evenodd" d="M133.763 147.79L109.407 163.184V160.822L133.763 145.472V147.79Z" fill="#835F25"/>
<path fill-rule="evenodd" clip-rule="evenodd" d="M226.51 121.857L166.034 159.947L124.843 134.014L126.898 132.746L106.04 119.714L103.941 120.851L65.0674 96.3613L125.586 58.271L226.51 121.857Z" fill="#E3E3E3"/>
<path fill-rule="evenodd" clip-rule="evenodd" d="M103.896 126.842L106.039 119.714L104.902 114.554L127.772 129.16L126.81 132.834L124.842 134.058L124.886 139.918L103.896 126.842Z" fill="#CACACA"/>
<path fill-rule="evenodd" clip-rule="evenodd" d="M222.224 122.076L165.597 157.236L69.3965 96.6238L125.63 61.2449L222.224 122.076Z" fill="#B0B0B0"/>
<path fill-rule="evenodd" clip-rule="evenodd" d="M104.859 118.971L69.3525 96.6238L125.586 61.2449V119.014H104.859V118.971Z" fill="#7F7F7F"/>
<path fill-rule="evenodd" clip-rule="evenodd" d="M74.5557 99.5101L125.804 67.2361L217.414 125.006L166.165 157.28L74.5557 99.5101Z" fill="#CACACA"/>
<path fill-rule="evenodd" clip-rule="evenodd" d="M106.039 125.53V119.714L103.94 120.851V126.842L106.039 125.53Z" fill="#979797"/>
<path fill-rule="evenodd" clip-rule="evenodd" d="M158.601 104.889L164.679 90.7637L163.323 82.0173L177.71 91.1135L175.436 92.6004V98.854L165.991 104.845L158.601 104.889Z" fill="#B0B0B0"/>
<path fill-rule="evenodd" clip-rule="evenodd" d="M171.762 96.5362L170.888 89.7578L175.479 92.6441V98.8977L171.762 96.5362Z" fill="#7F7F7F"/>
<path fill-rule="evenodd" clip-rule="evenodd" d="M158.95 104.627L164.241 91.8132L175.479 98.8978L166.34 104.627H158.95Z" fill="#B0B0B0"/>
<path fill-rule="evenodd" clip-rule="evenodd" d="M165.071 94.7869L158.949 98.679L152.128 94.3496L158.25 90.5012L165.071 94.7869Z" fill="#B65627"/>
<path fill-rule="evenodd" clip-rule="evenodd" d="M165.072 94.7872L158.251 90.5015V84.554L158.951 84.7289V90.0642L165.072 86.2158V94.7872Z" fill="#9A3227"/>
<path fill-rule="evenodd" clip-rule="evenodd" d="M156.676 102.353L154.533 100.997V99.0291L156.676 100.385V102.353Z" fill="#832C2A"/>
<path fill-rule="evenodd" clip-rule="evenodd" d="M154.533 100.997L156.064 99.9912L156.676 100.385V102.353L154.533 100.997Z" fill="#B65627"/>
<path fill-rule="evenodd" clip-rule="evenodd" d="M159.868 94.5684L158.469 95.4431L157.244 94.6559L158.6 93.7812L159.868 94.5684Z" fill="#832C2A"/>
<path fill-rule="evenodd" clip-rule="evenodd" d="M158.601 95.3993V93.825L159.869 94.6121L158.601 95.3993Z" fill="#9A3227"/>
<path fill-rule="evenodd" clip-rule="evenodd" d="M165.116 76.332V70.7344L169.576 73.4895L165.116 76.332Z" fill="#9A3227"/>
<path fill-rule="evenodd" clip-rule="evenodd" d="M165.771 76.7695L164.809 77.3817L158.688 73.6208L159.737 72.9648L165.771 76.7695Z" fill="#B65627"/>
<path fill-rule="evenodd" clip-rule="evenodd" d="M133.764 145.428L109.407 160.822L71.1895 136.682L95.0647 121.332L133.764 145.428Z" fill="#C4984C"/>
<path fill-rule="evenodd" clip-rule="evenodd" d="M120.733 97.5859L124.144 95.3993V89.3206L120.602 91.5509L120.733 97.5859Z" fill="#7F7F7F"/>
<path fill-rule="evenodd" clip-rule="evenodd" d="M118.721 90.3265L122.219 88.0962L124.187 89.3207L120.645 91.551L118.721 90.3265Z" fill="#E3E3E3"/>
<path fill-rule="evenodd" clip-rule="evenodd" d="M130.222 106.288L97.0762 85.4284V79.1748L130.265 99.9474L130.222 106.288Z" fill="#B0B0B0"/>
<path fill-rule="evenodd" clip-rule="evenodd" d="M132.364 98.8102L99 77.9502L97.0322 79.1747L130.221 99.9473L132.364 98.8102Z" fill="#E3E3E3"/>
<path fill-rule="evenodd" clip-rule="evenodd" d="M132.364 104.627V98.8105L130.222 99.9476V105.939L132.364 104.627Z" fill="#979797"/>
<path fill-rule="evenodd" clip-rule="evenodd" d="M127.335 108.038L132.451 104.802V98.7666L127.335 102.003V108.038Z" fill="#7F7F7F"/>
<path fill-rule="evenodd" clip-rule="evenodd" d="M125.236 100.734L130.309 97.4983L132.495 98.8102L127.379 102.046L125.236 100.734Z" fill="#E3E3E3"/>
<path fill-rule="evenodd" clip-rule="evenodd" d="M125.236 106.726V100.691L127.335 102.047V108.038L125.236 106.726Z" fill="#979797"/>
<path fill-rule="evenodd" clip-rule="evenodd" d="M160.83 128.766L152.479 123.475V117.484L165.597 125.749L160.83 128.766Z" fill="#B0B0B0"/>
<path fill-rule="evenodd" clip-rule="evenodd" d="M246.623 148.84L194.019 182.032L185.317 176.565L237.878 143.329L246.623 148.84Z" fill="#AF9D64"/>
<path fill-rule="evenodd" clip-rule="evenodd" d="M223.667 161.872L221.568 163.184L216.627 160.079L218.726 158.767L223.667 161.872Z" fill="#C4984C"/>
<path fill-rule="evenodd" clip-rule="evenodd" d="M216.627 160.035L221.568 163.14V164.933L216.627 161.828V160.035Z" fill="#B08743"/>
<path fill-rule="evenodd" clip-rule="evenodd" d="M223.667 161.872L221.568 163.184V164.977L223.667 163.665V161.872Z" fill="#835F25"/>
<path fill-rule="evenodd" clip-rule="evenodd" d="M240.94 150.982L238.841 152.294L233.899 149.189L235.998 147.877L240.94 150.982Z" fill="#C4984C"/>
<path fill-rule="evenodd" clip-rule="evenodd" d="M233.899 149.189L238.841 152.294V154.087L233.899 150.982V149.189Z" fill="#B08743"/>
<path fill-rule="evenodd" clip-rule="evenodd" d="M240.939 150.982L238.84 152.294V154.087L240.895 152.775L240.939 150.982Z" fill="#835F25"/>
<path fill-rule="evenodd" clip-rule="evenodd" d="M207.488 172.236L205.389 173.548L200.448 170.443L202.547 169.131L207.488 172.236Z" fill="#C4984C"/>
<path fill-rule="evenodd" clip-rule="evenodd" d="M200.448 170.399L205.389 173.504V175.253L200.448 172.148V170.399Z" fill="#B08743"/>
<path fill-rule="evenodd" clip-rule="evenodd" d="M207.488 172.236L205.389 173.548V175.297L207.444 173.985L207.488 172.236Z" fill="#835F25"/>
<path fill-rule="evenodd" clip-rule="evenodd" d="M187.417 176.609V174.772L239.584 141.93V143.767L187.417 176.609Z" fill="#835F25"/>
<path fill-rule="evenodd" clip-rule="evenodd" d="M239.584 141.93L187.417 174.772L184.706 173.067L236.873 140.268L239.584 141.93Z" fill="#C4984C"/>
<path fill-rule="evenodd" clip-rule="evenodd" d="M187.417 176.609V174.772L184.706 173.067V174.86L187.417 176.609Z" fill="#B08743"/>
<path fill-rule="evenodd" clip-rule="evenodd" d="M187.417 174.554V172.761L239.584 139.918V141.755L187.417 174.554Z" fill="#835F25"/>
<path fill-rule="evenodd" clip-rule="evenodd" d="M239.584 139.918L187.417 172.761L184.706 171.055L236.829 138.213L239.584 139.918Z" fill="#C4984C"/>
<path fill-rule="evenodd" clip-rule="evenodd" d="M187.417 174.554V172.761L184.706 171.055V172.848L187.417 174.554Z" fill="#B08743"/>
<path fill-rule="evenodd" clip-rule="evenodd" d="M187.417 172.542V170.705L239.584 137.863V139.7L187.417 172.542Z" fill="#835F25"/>
<path fill-rule="evenodd" clip-rule="evenodd" d="M239.584 137.906L187.417 170.749L184.706 169.043L236.829 136.201L239.584 137.906Z" fill="#C4984C"/>
<path fill-rule="evenodd" clip-rule="evenodd" d="M187.417 172.542V170.705L184.706 169V170.793L187.417 172.542Z" fill="#B08743"/>
<path fill-rule="evenodd" clip-rule="evenodd" d="M187.417 170.531V168.738L239.584 135.895V137.775L187.417 170.531Z" fill="#835F25"/>
<path fill-rule="evenodd" clip-rule="evenodd" d="M239.584 135.895L187.417 168.737L184.706 167.032L236.829 134.189L239.584 135.895Z" fill="#C4984C"/>
<path fill-rule="evenodd" clip-rule="evenodd" d="M187.417 170.53V168.737L184.706 167.032V168.825L187.417 170.53Z" fill="#B08743"/>
<path fill-rule="evenodd" clip-rule="evenodd" d="M187.417 168.519V166.682L239.584 133.84V135.676L187.417 168.519Z" fill="#835F25"/>
<path fill-rule="evenodd" clip-rule="evenodd" d="M239.584 133.84L187.417 166.682L184.706 164.977L236.829 132.134L239.584 133.84Z" fill="#C4984C"/>
<path fill-rule="evenodd" clip-rule="evenodd" d="M187.417 168.519V166.682L184.706 164.976V166.769L187.417 168.519Z" fill="#B08743"/>
<path fill-rule="evenodd" clip-rule="evenodd" d="M187.417 166.507V164.714L239.584 131.872V133.752L187.417 166.507Z" fill="#835F25"/>
<path fill-rule="evenodd" clip-rule="evenodd" d="M239.584 131.828L187.417 164.67L184.706 162.965L236.829 130.122L239.584 131.828Z" fill="#C4984C"/>
<path fill-rule="evenodd" clip-rule="evenodd" d="M187.417 166.507V164.714L184.706 163.008V164.801L187.417 166.507Z" fill="#B08743"/>
<path fill-rule="evenodd" clip-rule="evenodd" d="M190.435 178.358V176.565L242.558 143.723L242.602 145.56L190.435 178.358Z" fill="#835F25"/>
<path fill-rule="evenodd" clip-rule="evenodd" d="M242.557 143.723L190.434 176.565L187.723 174.86L239.846 142.017L242.557 143.723Z" fill="#C4984C"/>
<path fill-rule="evenodd" clip-rule="evenodd" d="M190.434 178.358V176.565L187.723 174.86V176.609L190.434 178.358Z" fill="#B08743"/>
<path fill-rule="evenodd" clip-rule="evenodd" d="M190.435 176.347V174.554L242.558 141.711L242.602 143.548L190.435 176.347Z" fill="#835F25"/>
<path fill-rule="evenodd" clip-rule="evenodd" d="M242.557 141.711L190.434 174.554L187.723 172.848L239.846 140.006L242.557 141.711Z" fill="#C4984C"/>
<path fill-rule="evenodd" clip-rule="evenodd" d="M190.434 176.347V174.554L187.723 172.848V174.641L190.434 176.347Z" fill="#B08743"/>
<path fill-rule="evenodd" clip-rule="evenodd" d="M190.435 174.335V172.498L242.558 139.656L242.602 141.492L190.435 174.335Z" fill="#835F25"/>
<path fill-rule="evenodd" clip-rule="evenodd" d="M242.557 139.656L190.434 172.498L187.723 170.793L239.846 137.994L242.557 139.656Z" fill="#C4984C"/>
<path fill-rule="evenodd" clip-rule="evenodd" d="M190.434 174.335V172.498L187.723 170.793V172.542L190.434 174.335Z" fill="#B08743"/>
<path fill-rule="evenodd" clip-rule="evenodd" d="M190.435 172.323V170.53L242.558 137.644L242.602 139.481L190.435 172.323Z" fill="#835F25"/>
<path fill-rule="evenodd" clip-rule="evenodd" d="M242.557 137.644L190.434 170.487L187.723 168.781L239.846 135.982L242.557 137.644Z" fill="#C4984C"/>
<path fill-rule="evenodd" clip-rule="evenodd" d="M190.434 172.323V170.53L187.723 168.825V170.618L190.434 172.323Z" fill="#B08743"/>
<path fill-rule="evenodd" clip-rule="evenodd" d="M190.435 170.312V168.475L242.558 135.632L242.602 137.469L190.435 170.312Z" fill="#835F25"/>
<path fill-rule="evenodd" clip-rule="evenodd" d="M242.557 135.633L190.434 168.475L187.723 166.77L239.846 133.927L242.557 135.633Z" fill="#C4984C"/>
<path fill-rule="evenodd" clip-rule="evenodd" d="M190.434 170.312V168.475L187.723 166.77V168.519L190.434 170.312Z" fill="#B08743"/>
<path fill-rule="evenodd" clip-rule="evenodd" d="M190.435 168.3V166.507L242.558 133.665L242.602 135.501L190.435 168.3Z" fill="#835F25"/>
<path fill-rule="evenodd" clip-rule="evenodd" d="M242.557 133.621L190.434 166.463L187.723 164.758L239.846 131.915L242.557 133.621Z" fill="#C4984C"/>
<path fill-rule="evenodd" clip-rule="evenodd" d="M190.434 168.3V166.507L187.723 164.802V166.595L190.434 168.3Z" fill="#B08743"/>
<path fill-rule="evenodd" clip-rule="evenodd" d="M193.408 180.151V178.358L245.531 145.516L245.575 147.396L193.408 180.151Z" fill="#835F25"/>
<path fill-rule="evenodd" clip-rule="evenodd" d="M245.575 145.472L193.451 178.315L190.74 176.609L242.864 143.767L245.575 145.472Z" fill="#C4984C"/>
<path fill-rule="evenodd" clip-rule="evenodd" d="M193.407 180.151V178.358L190.696 176.653V178.446L193.407 180.151Z" fill="#B08743"/>
<path fill-rule="evenodd" clip-rule="evenodd" d="M193.408 178.14V176.347L245.531 143.504L245.575 145.341L193.408 178.14Z" fill="#835F25"/>
<path fill-rule="evenodd" clip-rule="evenodd" d="M245.575 143.46L193.451 176.303L190.74 174.597L242.864 141.755L245.575 143.46Z" fill="#C4984C"/>
<path fill-rule="evenodd" clip-rule="evenodd" d="M193.407 178.14V176.347L190.696 174.641V176.434L193.407 178.14Z" fill="#B08743"/>
<path fill-rule="evenodd" clip-rule="evenodd" d="M193.408 176.128V174.335L245.531 141.493L245.575 143.373L193.408 176.128Z" fill="#835F25"/>
<path fill-rule="evenodd" clip-rule="evenodd" d="M245.575 141.449L193.451 174.291L190.74 172.586L242.864 139.743L245.575 141.449Z" fill="#C4984C"/>
<path fill-rule="evenodd" clip-rule="evenodd" d="M193.407 176.128V174.335L190.696 172.629V174.422L193.407 176.128Z" fill="#B08743"/>
<path fill-rule="evenodd" clip-rule="evenodd" d="M193.408 174.116V172.28L245.531 139.437L245.575 141.274L193.408 174.116Z" fill="#835F25"/>
<path fill-rule="evenodd" clip-rule="evenodd" d="M245.575 139.437L193.451 172.28L190.74 170.574L242.864 137.732L245.575 139.437Z" fill="#C4984C"/>
<path fill-rule="evenodd" clip-rule="evenodd" d="M193.407 174.116V172.323L190.696 170.618V172.411L193.407 174.116Z" fill="#B08743"/>
<path fill-rule="evenodd" clip-rule="evenodd" d="M193.408 172.061V170.268L245.531 137.425L245.575 139.262L193.408 172.061Z" fill="#835F25"/>
<path fill-rule="evenodd" clip-rule="evenodd" d="M245.575 137.426L193.451 170.268L190.74 168.563L242.864 135.72L245.575 137.426Z" fill="#C4984C"/>
<path fill-rule="evenodd" clip-rule="evenodd" d="M193.407 172.061V170.268L190.696 168.562V170.355L193.407 172.061Z" fill="#B08743"/>
<path fill-rule="evenodd" clip-rule="evenodd" d="M193.408 170.049V168.256L245.531 135.414L245.575 137.251L193.408 170.049Z" fill="#835F25"/>
<path fill-rule="evenodd" clip-rule="evenodd" d="M245.575 135.414L193.451 168.256L190.74 166.551L242.864 133.708L245.575 135.414Z" fill="#C4984C"/>
<path fill-rule="evenodd" clip-rule="evenodd" d="M193.407 170.049V168.256L190.696 166.551V168.344L193.407 170.049Z" fill="#B08743"/>
<path fill-rule="evenodd" clip-rule="evenodd" d="M201.585 152.294L210.155 157.673L208.887 158.46L200.36 153.125L201.585 152.294Z" fill="#E3E3E3"/>
<path fill-rule="evenodd" clip-rule="evenodd" d="M210.199 169.568V157.673L208.931 158.461L209.018 170.356L210.199 169.568Z" fill="#979797"/>
<path fill-rule="evenodd" clip-rule="evenodd" d="M224.017 138.082L232.632 143.461L231.32 144.248L222.793 138.869L224.017 138.082Z" fill="#E3E3E3"/>
<path fill-rule="evenodd" clip-rule="evenodd" d="M232.631 155.312V143.417L231.319 144.204L231.407 156.099L232.631 155.312Z" fill="#979797"/>
<path fill-rule="evenodd" clip-rule="evenodd" d="M134.245 137.469L143.952 131.39V125.312L129.479 134.452L134.245 137.469Z" fill="#7F7F7F"/>
<path d="M152.61 143.985C149.986 146.172 151.2 147.527 152.468 148.796C154.577 150.326 155.889 149.889 157.201 149.014L156.545 148.358C155.452 149.014 154.532 148.971 153.124 148.14C151.298 146.828 151.954 145.516 153.266 144.641L152.61 143.985Z" fill="#D44B27"/>
<path d="M188.029 136.114C190.434 134.583 189.492 132.529 188.171 131.148C186.891 129.811 184.749 129.991 183.437 130.866L184.093 131.522C185.186 130.866 186.597 130.829 187.515 131.804C188.473 132.823 189.122 134.364 187.373 135.458L188.029 136.114Z" fill="#D44B27"/>
<path d="M196.774 133.052C196.774 133.052 200.71 135.458 196.774 137.863L196.118 137.207C198.961 135.676 196.118 133.708 196.118 133.708L196.774 133.052Z" fill="#D44B27"/>
<path d="M181.251 125.837C181.251 125.837 182.782 123.65 185.187 125.618L184.531 126.274C183 124.962 181.907 126.493 181.907 126.493L181.251 125.837Z" fill="#D44B27"/>
<path d="M163.104 151.201C160.699 152.732 161.595 154.711 162.916 156.092C164.195 157.429 166.338 157.185 167.649 156.31L166.993 155.654C165.9 156.31 164.489 156.411 163.572 155.436C162.613 154.417 162.011 152.95 163.76 151.857L163.104 151.201Z" fill="#D44B27"/>
<path d="M210.111 123.3C212.517 124.831 211.793 127.029 210.472 128.409C209.193 129.746 207.051 129.422 205.739 128.548L206.395 127.892C207.488 128.548 208.899 128.729 209.816 127.753C210.775 126.735 211.205 125.049 209.456 123.956L210.111 123.3Z" fill="#D44B27"/>
<path d="M170.976 106.245C168.571 104.714 169.344 102.622 170.665 101.241C171.945 99.9041 174.255 100.341 175.567 101.216L174.911 101.872C173.818 101.216 172.239 100.922 171.321 101.897C170.363 102.916 169.883 104.496 171.632 105.589L170.976 106.245Z" fill="#D44B27"/>
<path d="M94.3209 87.5713C95.5453 86.4343 97.3818 86.4343 98.3001 87.3964L98.3876 87.4839L98.475 87.5713C99.3496 88.5334 99.2621 89.7579 97.994 90.8949L80.1969 102.44L79.7159 101.959L97.513 90.4139C98.3876 89.583 98.4313 88.8395 97.8191 88.1836L97.7316 88.0961L97.6442 88.0086C97.032 87.3527 95.6765 87.2652 94.8019 88.0961L76.0865 100.035L75.6055 99.5538L94.3209 87.5713Z" fill="#D44B27"/>
<path d="M102.716 91.9444C103.941 90.8073 105.777 90.8073 106.696 91.7694L106.783 91.8569L106.871 91.9444C107.745 92.9065 107.658 94.131 106.39 95.268L88.5924 106.813L88.1114 106.332L105.908 94.7869C106.783 93.956 106.827 93.2126 106.215 92.5566L106.127 92.4691L106.04 92.3817C105.427 91.7257 104.072 91.6382 103.197 92.4691L84.482 104.408L84.001 103.927L102.716 91.9444Z" fill="#D44B27"/>
<path d="M109.8 97.105C111.025 95.968 112.861 95.968 113.78 96.9301L113.867 97.0175L113.954 97.105C114.829 98.0671 114.742 99.2916 113.473 100.429L95.6764 111.974L95.1954 111.493L112.992 99.9476C113.867 99.1167 113.911 98.3732 113.299 97.7173L113.211 97.6298L113.124 97.5423C112.511 96.8864 111.156 96.7989 110.281 97.6298L91.566 109.569L91.085 109.087L109.8 97.105Z" fill="#D44B27"/>
<path d="M117.89 101.653C119.115 100.516 120.951 100.516 121.869 101.478L121.957 101.565L122.044 101.653C122.919 102.615 122.831 103.839 121.563 104.976L103.766 116.522L103.285 116.041L121.082 104.495C121.957 103.665 122.001 102.921 121.388 102.265L121.301 102.178L121.214 102.09C120.601 101.434 119.246 101.347 118.371 102.178L99.6558 114.116L99.1748 113.635L117.89 101.653Z" fill="#D44B27"/>
<path d="M122.831 108.213C124.055 107.076 125.892 107.076 126.81 108.038L126.898 108.125L126.985 108.213C127.86 109.175 127.772 110.399 126.504 111.536L108.707 123.081L108.663 122.119L126.023 111.055C126.898 110.224 126.941 109.481 126.329 108.825L126.242 108.737L126.154 108.65C125.542 107.994 124.187 107.907 123.312 108.737L106.258 119.627L105.777 119.146L122.831 108.213Z" fill="#D44B27"/>
<path d="M135.775 109.699C136.999 108.562 138.836 108.562 139.754 109.525L139.841 109.612L139.929 109.699C140.803 110.662 140.716 111.886 139.448 113.023L115.791 128.373L115.223 127.804L138.967 112.542C139.841 111.711 139.885 110.968 139.273 110.312L139.185 110.224L139.098 110.137C138.486 109.481 137.13 109.393 136.256 110.224L117.54 122.163L117.059 121.682L135.775 109.699Z" fill="#D44B27"/>
<path d="M177.972 115.953C179.196 117.09 181.251 117.09 182.17 116.128L182.257 116.041L182.345 115.953C183.219 114.991 183.132 113.767 181.864 112.629L171.631 105.589L170.975 106.245L181.251 113.242C182.126 114.073 182.301 114.685 181.689 115.341L181.601 115.428L181.514 115.516C180.902 116.172 179.502 116.041 178.628 115.21L165.509 106.463L164.854 107.119L177.972 115.953Z" fill="#D44B27"/>
<path d="M165.431 106.465C164.206 105.328 162.37 105.328 161.451 106.29L161.364 106.377L161.277 106.465C160.402 107.427 160.489 108.651 161.758 109.788L172.069 116.74L172.646 116.173L162.37 109.176C161.495 108.345 161.32 107.733 161.932 107.077L162.02 106.989L162.107 106.902C162.72 106.246 164.119 106.377 164.993 107.208L178.112 115.954L178.768 115.298L165.431 106.465Z" fill="#D44B27"/>
<path d="M171.412 121.201C172.636 122.338 174.473 122.338 175.391 121.376L175.479 121.288L175.566 121.201C176.441 120.239 176.397 118.971 175.129 117.834L164.853 110.836L164.197 111.492L174.473 118.49C175.347 119.32 175.522 119.933 174.91 120.589L174.823 120.676L174.735 120.764C174.123 121.42 172.724 121.288 171.849 120.457L144.957 102.527L144.301 103.183L171.412 121.201Z" fill="#D44B27"/>
<path d="M142.333 95.9691C140.802 94.8771 139.211 94.832 138.293 95.7941L138.205 95.8816L138.118 95.9691C137.243 96.9312 137.287 98.1994 138.555 99.3364L148.892 106.245L149.548 105.589L139.211 98.6804C138.336 97.8495 138.162 97.2373 138.774 96.5813L138.861 96.4938L138.949 96.4064C139.561 95.7504 140.96 95.8816 141.835 96.7125L145.831 99.3364L146.487 98.8103C146.487 98.8103 143.863 97.061 142.333 95.9691Z" fill="#D44B27"/>
<path d="M146.924 100.121C148.455 101.213 150.046 101.258 150.964 100.296L151.052 100.208L151.139 100.121C152.014 99.1587 151.97 97.8905 150.702 96.7534L142.333 91.3758V92.4691L150.046 97.4094C150.921 98.2403 151.096 98.8526 150.483 99.5085L150.396 99.596L150.309 99.6835C149.696 100.339 148.455 100.297 147.58 99.4662L143.208 96.6236L142.77 97.2796C142.77 97.2796 145.394 99.0289 146.924 100.121Z" fill="#D44B27"/>
<path d="M145.832 88.9559C144.302 87.864 142.71 87.8189 141.792 88.781L141.705 88.8684L141.617 88.9559C140.743 89.918 140.786 91.1862 142.054 92.3232L146.051 94.8744L146.488 94.2184L142.71 91.6672C141.836 90.8363 141.661 90.2241 142.273 89.5681L142.361 89.4807L142.448 89.3932C143.06 88.7372 144.46 88.8684 145.334 89.6993L149.33 92.3232L149.986 91.6672C149.986 91.6672 147.363 90.0478 145.832 88.9559Z" fill="#D44B27"/>
<path d="M146.706 84.5828C145.176 83.4909 143.584 83.4458 142.666 84.4079C141.677 85.2535 130.527 92.0319 130.527 92.0319L131.401 92.4692C131.401 92.4692 142.71 85.6761 143.322 85.0202C143.934 84.3642 145.333 84.4954 146.208 85.3263L149.986 87.8774L150.423 87.2214C150.423 87.2214 148.236 85.6748 146.706 84.5828Z" fill="#D44B27"/>
<path d="M149.985 92.7026C151.516 93.7945 153.107 93.8396 154.025 92.8775L154.113 92.79L154.2 92.7026C155.075 91.7405 155.031 90.4722 153.763 89.3352L149.767 86.7841L149.329 87.4401L153.107 89.9912C153.982 90.8221 154.156 91.4343 153.544 92.0903L153.457 92.1778L153.369 92.2652C152.757 92.9212 151.358 92.79 150.483 91.9591L146.487 89.3352L145.831 89.9912C145.831 89.9912 148.455 91.6106 149.985 92.7026Z" fill="#D44B27"/>
<path d="M132.713 91.8278C131.183 92.9197 129.591 92.9648 128.673 92.0027L128.586 91.9153L128.498 91.8278C127.624 90.8657 124.186 88.5332 125.935 87.0026L130.308 83.9414L130.745 84.5974L126.81 87.4399C125.471 88.5332 128.542 90.5596 129.154 91.2156L129.241 91.303L129.329 91.3905C129.941 92.0465 131.34 91.9153 132.215 91.0844L136.211 88.5332L136.867 89.1164C136.867 89.1164 134.244 90.7359 132.713 91.8278Z" fill="#D44B27"/>
<path d="M143.295 114.729C144.519 113.592 146.356 113.592 147.274 114.554L147.362 114.641L147.449 114.729C148.324 115.691 148.236 116.915 146.968 118.052L123.312 133.402L123.312 132.615L146.487 117.571C147.362 116.74 147.405 115.997 146.793 115.341L146.706 115.253L146.618 115.166C146.006 114.51 144.651 114.422 143.776 115.253L125.061 127.192L124.58 126.711L143.295 114.729Z" fill="#D44B27"/>
<path d="M156.326 116.653C158.513 115.341 160.262 117.09 160.262 117.09L175.348 126.493L174.692 127.149L159.337 117.364C158.294 116.653 156.905 117.364 156.905 117.364C156.905 117.364 156.072 116.806 156.326 116.653Z" fill="#D44B27"/>
<path d="M184.798 116.572C186.984 115.26 188.904 116.959 188.904 116.959L206.395 127.892L205.739 128.548L187.808 117.283C186.765 116.572 185.376 117.283 185.376 117.283C185.376 117.283 184.543 116.725 184.798 116.572Z" fill="#D44B27"/>
<path d="M152.611 143.986L153.266 144.642C153.266 144.642 175.949 130.165 176.223 129.991C176.715 129.678 177.002 129.074 176.879 128.461C176.66 127.367 175.349 126.493 175.349 126.493L174.693 127.149C174.693 127.149 175.802 127.765 176.004 128.461C176.125 128.877 175.767 129.309 175.348 129.554C175.076 129.714 152.611 143.986 152.611 143.986Z" fill="#D44B27"/>
<path d="M156.545 148.358L157.201 149.014L184.093 131.522L183.438 130.866L156.545 148.358Z" fill="#D44B27"/>
<path d="M163.104 151.201L163.76 151.857L188.029 136.114L187.373 135.458L163.104 151.201Z" fill="#D44B27"/>
<path d="M166.901 155.695L167.557 156.351L196.775 137.863L196.119 137.207L166.901 155.695Z" fill="#D44B27"/>
<path d="M210.112 123.3L209.456 123.956L174.911 101.872L175.567 101.216L210.112 123.3Z" fill="#D44B27"/>
<path d="M196.775 133.052L196.119 133.708L184.531 126.274L185.186 125.618L196.775 133.052Z" fill="#D44B27"/>
<path d="M153.221 126.536C154.446 125.399 155.408 125.487 156.326 126.449L156.413 126.536L156.501 126.624C157.375 127.586 157.288 128.81 156.02 129.947L137.129 141.842L136.648 141.361L155.539 129.466C156.413 128.635 156.457 127.892 155.845 127.236L155.757 127.148L155.67 127.061C155.058 126.405 154.533 126.23 153.658 127.061" fill="#D44B27"/>
<path d="M142.814 124.918C144.039 123.781 145.875 123.781 146.794 124.743L146.881 124.831L148.718 126.58C149.592 127.542 149.505 128.767 148.237 129.904L133.588 139.612L132.932 138.956L147.756 129.423C148.63 128.592 148.674 127.848 148.062 127.192L146.225 125.443L146.138 125.356C145.526 124.7 144.17 124.612 143.295 125.443L126.81 135.676L126.329 135.195L142.814 124.918Z" fill="#D44B27"/>
<path d="M154.14 126.711C152.959 127.761 150.554 128.198 149.68 127.236L149.592 127.148L147.756 125.399C146.881 124.437 146.969 123.213 148.237 122.076L156.327 116.653L156.982 117.309L148.718 122.557C147.843 123.388 147.8 124.131 148.412 124.787L150.248 126.536L150.336 126.624C150.948 127.28 152.435 127.105 153.222 126.536" fill="#D44B27"/>
<path d="M181.907 126.493C181.033 127.805 180.377 128.023 178.846 126.93L176.581 125.399C175.348 124.087 175.61 123.038 176.879 121.901L184.094 115.778L184.75 116.434L177.543 122.557C176.669 123.388 176.562 124.224 177.237 124.787C177.972 125.399 179.502 126.274 179.502 126.274C180.595 126.93 180.595 126.493 181.251 125.837" fill="#D44B27"/>
<path d="M80.1968 102.44C79.3223 103.271 78.885 103.533 79.7595 104.627L79.847 104.714L79.9344 104.802C80.5466 105.458 81.9022 105.545 82.7767 104.714L101.492 92.7754L101.973 93.2564L83.2577 105.195C82.0334 106.332 80.2842 106.245 79.366 105.283H79.1911L79.1036 105.195C77.8792 103.708 78.6226 102.702 79.7158 101.915" fill="#D44B27"/>
<path d="M88.6363 106.726C87.7617 107.557 87.3244 107.819 88.199 108.912L88.2864 109L88.3739 109.087C88.9861 109.743 90.3416 109.831 91.2162 109L109.932 97.061L110.413 97.5421L91.6972 109.481C90.4728 110.618 88.6363 110.618 87.718 109.656L87.6305 109.568L87.5431 109.481C86.3187 107.994 87.0621 106.988 88.1553 106.201" fill="#D44B27"/>
<path d="M129.108 71.3896C130.207 70.3693 131.855 70.3693 132.679 71.2326L132.757 71.3111L132.836 71.3896C133.621 72.2529 133.542 73.3517 132.404 74.3719L116.434 84.7317L116.003 84.3L131.973 73.9403C132.757 73.1947 132.797 72.5276 132.247 71.939L132.169 71.8605L132.09 71.782C131.541 71.1934 130.325 71.1149 129.54 71.8605L112.746 82.5734L112.314 82.1418L129.108 71.3896Z" fill="#D44B27"/>
<path d="M112.599 82.8484C111.5 83.8687 109.725 83.654 108.901 82.7907L108.823 82.7122L108.744 82.6337C107.959 81.7704 107.963 80.5888 109.101 79.5685L125.146 69.2916L125.577 69.7232L109.607 80.083C108.823 80.8286 108.783 81.4957 109.333 82.0843L109.411 82.1628L109.49 82.2413C110.039 82.8299 111.255 82.9084 112.04 82.1628L128.834 71.4498L129.266 71.8815L112.599 82.8484Z" fill="#D44B27"/>
<path d="M135.337 76.0697C136.436 75.0494 138.261 75.1795 139.085 76.0428L139.164 76.1213L139.242 76.1998C140.027 77.0631 139.948 78.1618 138.81 79.1821L126.81 87.2213L127.029 86.3466L138.379 78.7505C139.164 78.0049 139.203 77.3378 138.654 76.7492L138.575 76.6707L138.497 76.5922C137.947 76.0036 136.731 75.9251 135.946 76.6707L119.152 87.3836L118.721 86.952L135.337 76.0697Z" fill="#D44B27"/>
<path d="M116.772 84.5237C115.987 85.2693 115.594 85.5048 116.379 86.4858L116.458 86.5643L116.536 86.6428C117.085 87.2314 118.302 87.3099 119.087 86.5643L135.88 75.8513L136.312 76.283L119.595 87.0744C118.497 88.0947 116.772 88.0162 115.948 87.1529L115.869 87.0744L115.791 86.9959C114.692 85.6617 115.359 84.7592 116.34 84.0528" fill="#D44B27"/>
<path d="M95.8511 111.798C94.9765 112.629 94.5393 112.892 95.4138 113.985L95.5013 114.073L95.5887 114.16C96.2009 114.816 97.5565 114.903 98.431 114.073L117.146 102.134L117.627 102.615L98.912 114.554C97.6877 115.691 95.8511 115.691 94.9328 114.729L94.8454 114.641L94.7579 114.554C93.5335 113.067 94.2769 112.061 95.3701 111.274" fill="#D44B27"/>
<path d="M104.465 115.997C103.591 116.828 103.154 117.09 104.028 118.184L104.116 118.271L104.203 118.358C104.815 119.014 106.171 119.102 107.045 118.271L123.662 107.732L124.143 108.213L107.526 118.708C106.302 119.845 104.465 119.845 103.547 118.883L103.46 118.796L103.372 118.708C102.148 117.221 102.891 116.216 103.984 115.428" fill="#D44B27"/>
<path d="M109.101 122.775C108.226 123.606 107.789 123.869 108.663 124.962L108.751 125.049L108.838 125.137C109.451 125.793 110.806 125.88 111.681 125.049L128.297 114.51L128.778 114.991L112.162 125.487C110.937 126.624 109.101 126.624 108.182 125.662L108.095 125.574L108.008 125.487C106.783 124 107.57 122.907 108.663 122.119" fill="#D44B27"/>
<path d="M115.879 128.286C115.004 129.116 114.567 129.379 115.441 130.472L115.529 130.56L115.616 130.647C116.229 131.303 117.584 131.391 118.459 130.56L135.075 120.02L135.556 120.501L118.94 130.997C117.715 132.134 115.879 132.134 114.96 131.172L114.873 131.084L114.786 130.997C113.561 129.51 114.13 128.592 115.223 127.805" fill="#D44B27"/>
<path d="M123.837 133.052C122.963 133.883 122.525 134.146 123.4 135.239L123.487 135.326L123.575 135.414C124.187 136.07 125.543 136.157 126.417 135.326L143.034 124.787L143.515 125.268L126.898 135.764C125.674 136.901 123.837 136.901 122.919 135.939L122.832 135.851L122.744 135.764C121.52 134.277 122.219 133.271 123.313 132.615" fill="#D44B27"/>
<path d="M133.588 139.437C132.714 140.268 132.277 140.53 133.151 141.624L133.239 141.711L133.326 141.799C133.938 142.455 135.294 142.542 136.168 141.711L152.785 131.172L153.266 131.653L136.649 142.149C135.425 143.286 133.588 143.286 132.67 142.323L132.583 142.236L132.495 142.149C131.271 140.662 132.014 139.656 133.107 138.869" fill="#D44B27"/>
<path fill-rule="evenodd" clip-rule="evenodd" d="M177.666 123.956V118.14L179.634 119.408V125.268L177.666 123.956Z" fill="#979797"/>
<path fill-rule="evenodd" clip-rule="evenodd" d="M208.275 131.041L182.738 114.948L180.771 116.172L206.176 132.178L208.275 131.041Z" fill="#E3E3E3"/>
<path fill-rule="evenodd" clip-rule="evenodd" d="M201.497 135.151L180.771 122.076L180.814 116.172L206.22 132.178L201.497 135.151Z" fill="#B0B0B0"/>
<path fill-rule="evenodd" clip-rule="evenodd" d="M179.634 125.268L182.738 123.344V117.44L179.634 119.408V125.268Z" fill="#7F7F7F"/>
<path fill-rule="evenodd" clip-rule="evenodd" d="M177.666 118.14L180.771 116.172L182.738 117.396L179.634 119.364L177.666 118.14Z" fill="#E3E3E3"/>
<path fill-rule="evenodd" clip-rule="evenodd" d="M167.565 124.525L154.446 116.303L152.479 117.527L165.597 125.793L167.565 124.525Z" fill="#E3E3E3"/>
<path fill-rule="evenodd" clip-rule="evenodd" d="M151.254 126.755L154.446 124.743V118.708L151.254 120.72V126.755Z" fill="#7F7F7F"/>
<path fill-rule="evenodd" clip-rule="evenodd" d="M149.286 119.495L152.478 117.484L154.446 118.708L151.254 120.72L149.286 119.495Z" fill="#E3E3E3"/>
<path fill-rule="evenodd" clip-rule="evenodd" d="M149.286 125.312V119.495L151.254 120.764V126.755L149.286 125.312Z" fill="#979797"/>
<path fill-rule="evenodd" clip-rule="evenodd" d="M140.628 141.492L170.188 122.906L172.112 124.131L142.596 142.717L140.628 141.492Z" fill="#E3E3E3"/>
<path fill-rule="evenodd" clip-rule="evenodd" d="M147.318 145.691L172.112 129.991V124.131L142.596 142.717L147.318 145.691Z" fill="#7F7F7F"/>
<path fill-rule="evenodd" clip-rule="evenodd" d="M137.305 146.609L124.843 138.431V133.971L139.973 143.548L137.305 146.609Z" fill="#B0B0B0"/>
<path fill-rule="evenodd" clip-rule="evenodd" d="M139.36 143.198L124.886 134.058L126.853 132.834L141.371 141.974L139.36 143.198Z" fill="#E3E3E3"/>
<path fill-rule="evenodd" clip-rule="evenodd" d="M165.947 159.816L151.954 150.982L153.922 149.758L168.352 158.504L165.947 159.816Z" fill="#E3E3E3"/>
<path fill-rule="evenodd" clip-rule="evenodd" d="M127.466 133.227L141.983 124.087L143.951 125.312L129.434 134.583L127.466 133.227Z" fill="#E3E3E3"/>
<path fill-rule="evenodd" clip-rule="evenodd" d="M100.749 116.39L117.409 105.807L119.377 107.032L102.629 117.571L100.749 116.39Z" fill="#E3E3E3"/>
<path fill-rule="evenodd" clip-rule="evenodd" d="M102.629 120.02L73.2441 101.565L75.4305 100.472L106.04 119.714L102.629 120.02Z" fill="#E3E3E3"/>
<path fill-rule="evenodd" clip-rule="evenodd" d="M106.04 121.507L119.377 113.067V107.032L102.629 117.571L105.996 119.67V121.507H106.04Z" fill="#7F7F7F"/>
<path fill-rule="evenodd" clip-rule="evenodd" d="M130.09 88.9708V82.9358L132.189 84.2915V90.3265L130.09 88.9708Z" fill="#979797"/>
<path fill-rule="evenodd" clip-rule="evenodd" d="M132.232 90.3263L147.143 81.0552V74.8015L132.188 84.2913L132.232 90.3263Z" fill="#7F7F7F"/>
<path fill-rule="evenodd" clip-rule="evenodd" d="M130.09 82.9356L145.088 73.4895L147.144 74.8015L132.189 84.2912L130.09 82.9356Z" fill="#E3E3E3"/>
<path fill-rule="evenodd" clip-rule="evenodd" d="M67.5222 75.3241L67.5221 97.1587L66.0163 96.4057L66.0163 74.5711L67.5222 75.3241Z" fill="#AF8643"/>
<path fill-rule="evenodd" clip-rule="evenodd" d="M67.5218 75.3242L67.5218 97.1587L69.0276 96.4058L69.0276 74.5712L67.5218 75.3242Z" fill="#835F25"/>
<path fill-rule="evenodd" clip-rule="evenodd" d="M66.0156 74.571L67.5214 75.324L69.0273 74.571L67.5214 73.8181L66.0156 74.571Z" fill="#835F25"/>
<path fill-rule="evenodd" clip-rule="evenodd" d="M76.5584 69.3006L76.5582 91.1353L75.0524 90.3823L75.0524 68.5476L76.5584 69.3006Z" fill="#AF8643"/>
<path fill-rule="evenodd" clip-rule="evenodd" d="M76.5579 69.3007L76.5579 91.1353L78.0637 90.3824L78.0637 68.5478L76.5579 69.3007Z" fill="#835F25"/>
<path fill-rule="evenodd" clip-rule="evenodd" d="M75.0517 68.5476L76.5575 69.3005L78.0635 68.5476L76.5575 67.7947L75.0517 68.5476Z" fill="#835F25"/>
<path fill-rule="evenodd" clip-rule="evenodd" d="M87.0994 62.5243L87.0992 84.3589L85.5934 83.6059L85.5934 61.7713L87.0994 62.5243Z" fill="#AF8643"/>
<path fill-rule="evenodd" clip-rule="evenodd" d="M87.0989 62.5244L87.0989 84.3589L88.6048 83.606L88.6047 61.7714L87.0989 62.5244Z" fill="#835F25"/>
<path fill-rule="evenodd" clip-rule="evenodd" d="M85.5927 61.7712L87.0985 62.5242L88.6045 61.7712L87.0985 61.0183L85.5927 61.7712Z" fill="#835F25"/>
<path fill-rule="evenodd" clip-rule="evenodd" d="M96.8865 56.5011L96.8863 78.3357L95.3805 77.5827L95.3805 55.7481L96.8865 56.5011Z" fill="#AF8643"/>
<path fill-rule="evenodd" clip-rule="evenodd" d="M96.886 56.5012L96.886 78.3357L98.3919 77.5828L98.3919 55.7482L96.886 56.5012Z" fill="#835F25"/>
<path fill-rule="evenodd" clip-rule="evenodd" d="M95.3798 55.748L96.8856 56.501L98.3916 55.748L96.8856 54.9951L95.3798 55.748Z" fill="#835F25"/>
<path fill-rule="evenodd" clip-rule="evenodd" d="M107.428 49.7247L107.427 71.5593L105.922 70.8063L105.922 48.9717L107.428 49.7247Z" fill="#AF8643"/>
<path fill-rule="evenodd" clip-rule="evenodd" d="M107.427 49.7248L107.427 71.5594L108.933 70.8065L108.933 48.9718L107.427 49.7248Z" fill="#835F25"/>
<path fill-rule="evenodd" clip-rule="evenodd" d="M105.921 48.9717L107.427 49.7246L108.933 48.9716L107.427 48.2188L105.921 48.9717Z" fill="#835F25"/>
<path fill-rule="evenodd" clip-rule="evenodd" d="M116.463 43.7015L116.463 65.5361L114.957 64.7831L114.957 42.9485L116.463 43.7015Z" fill="#AF8643"/>
<path fill-rule="evenodd" clip-rule="evenodd" d="M116.462 43.7016L116.462 65.5362L117.968 64.7833L117.968 42.9487L116.462 43.7016Z" fill="#835F25"/>
<path fill-rule="evenodd" clip-rule="evenodd" d="M114.956 42.9485L116.462 43.7014L117.968 42.9485L116.462 42.1956L114.956 42.9485Z" fill="#835F25"/>
<path fill-rule="evenodd" clip-rule="evenodd" d="M125.497 39.1839L125.497 61.0186L123.991 60.2656L123.991 38.4309L125.497 39.1839Z" fill="#AF8643"/>
<path fill-rule="evenodd" clip-rule="evenodd" d="M125.496 39.184L125.496 61.0186L127.002 60.2657L127.002 38.4311L125.496 39.184Z" fill="#835F25"/>
<path fill-rule="evenodd" clip-rule="evenodd" d="M123.991 38.4309L125.497 39.1838L127.003 38.4309L125.497 37.678L123.991 38.4309Z" fill="#835F25"/>
<path fill-rule="evenodd" clip-rule="evenodd" d="M158.626 61.0184L158.626 82.853L157.12 82.1L157.12 60.2654L158.626 61.0184Z" fill="#AF8643"/>
<path fill-rule="evenodd" clip-rule="evenodd" d="M158.626 61.0185L158.626 82.8531L160.132 82.1002L160.132 60.2655L158.626 61.0185Z" fill="#835F25"/>
<path fill-rule="evenodd" clip-rule="evenodd" d="M157.12 60.2654L158.626 61.0183L160.132 60.2654L158.626 59.5125L157.12 60.2654Z" fill="#835F25"/>
<path fill-rule="evenodd" clip-rule="evenodd" d="M136.038 46.5214L136.038 66.7547L134.532 66.0569L134.532 45.8236L136.038 46.5214Z" fill="#AF8643"/>
<path fill-rule="evenodd" clip-rule="evenodd" d="M136.037 46.5215L136.037 66.7548L137.543 66.0571L137.543 45.8238L136.037 46.5215Z" fill="#835F25"/>
<path fill-rule="evenodd" clip-rule="evenodd" d="M134.531 45.8236L136.037 46.5213L137.543 45.8236L136.037 45.1259L134.531 45.8236Z" fill="#835F25"/>
<path fill-rule="evenodd" clip-rule="evenodd" d="M145.826 54.0507L145.826 74.284L144.32 73.5862L144.32 53.3529L145.826 54.0507Z" fill="#AF8643"/>
<path fill-rule="evenodd" clip-rule="evenodd" d="M145.825 54.0508L145.825 74.2841L147.331 73.5864L147.331 53.3531L145.825 54.0508Z" fill="#835F25"/>
<path fill-rule="evenodd" clip-rule="evenodd" d="M144.319 53.3529L145.825 54.0506L147.331 53.3529L145.825 52.6552L144.319 53.3529Z" fill="#835F25"/>
<path fill-rule="evenodd" clip-rule="evenodd" d="M175.943 70.8065L175.943 92.6411L174.437 91.8881L174.437 70.0535L175.943 70.8065Z" fill="#AF8643"/>
<path fill-rule="evenodd" clip-rule="evenodd" d="M175.943 70.8066L175.943 92.6412L177.449 91.8882L177.448 70.0536L175.943 70.8066Z" fill="#835F25"/>
<path fill-rule="evenodd" clip-rule="evenodd" d="M174.437 70.0535L175.943 70.8064L177.449 70.0534L175.943 69.3005L174.437 70.0535Z" fill="#835F25"/>
<path fill-rule="evenodd" clip-rule="evenodd" d="M197.025 83.6061L197.025 105.441L195.519 104.688L195.519 82.853L197.025 83.6061Z" fill="#AF8643"/>
<path fill-rule="evenodd" clip-rule="evenodd" d="M197.025 83.6061L197.025 105.441L198.531 104.688L198.531 82.8532L197.025 83.6061Z" fill="#835F25"/>
<path fill-rule="evenodd" clip-rule="evenodd" d="M195.518 82.853L197.024 83.6059L198.53 82.853L197.024 82.1001L195.518 82.853Z" fill="#835F25"/>
<path fill-rule="evenodd" clip-rule="evenodd" d="M185.731 76.8297L185.731 98.6643L184.225 97.9113L184.225 76.0767L185.731 76.8297Z" fill="#AF8643"/>
<path fill-rule="evenodd" clip-rule="evenodd" d="M185.731 76.8295L185.731 98.6641L187.237 97.9112L187.237 76.0766L185.731 76.8295Z" fill="#835F25"/>
<path fill-rule="evenodd" clip-rule="evenodd" d="M184.225 76.0767L185.73 76.8296L187.236 76.0766L185.73 75.3237L184.225 76.0767Z" fill="#835F25"/>
<path fill-rule="evenodd" clip-rule="evenodd" d="M209.824 91.888L209.824 113.723L208.318 112.97L208.318 91.135L209.824 91.888Z" fill="#AF8643"/>
<path fill-rule="evenodd" clip-rule="evenodd" d="M209.824 91.8881L209.824 113.723L211.329 112.97L211.329 91.1352L209.824 91.8881Z" fill="#835F25"/>
<path fill-rule="evenodd" clip-rule="evenodd" d="M208.318 91.135L209.824 91.8879L211.33 91.135L209.824 90.3821L208.318 91.135Z" fill="#835F25"/>
<path fill-rule="evenodd" clip-rule="evenodd" d="M224.129 100.923L224.129 122.758L222.623 122.005L222.623 100.17L224.129 100.923Z" fill="#AF8643"/>
<path fill-rule="evenodd" clip-rule="evenodd" d="M224.128 100.923L224.128 122.758L225.634 122.005L225.634 100.17L224.128 100.923Z" fill="#835F25"/>
<path fill-rule="evenodd" clip-rule="evenodd" d="M222.622 100.17L224.128 100.923L225.634 100.17L224.128 99.4172L222.622 100.17Z" fill="#835F25"/>
<path fill-rule="evenodd" clip-rule="evenodd" d="M207.565 110.711L207.565 132.546L206.059 131.793L206.059 109.958L207.565 110.711Z" fill="#AF8643"/>
<path fill-rule="evenodd" clip-rule="evenodd" d="M207.565 110.711L207.565 132.546L209.071 131.793L209.071 109.958L207.565 110.711Z" fill="#835F25"/>
<path fill-rule="evenodd" clip-rule="evenodd" d="M206.059 109.958L207.564 110.711L209.07 109.958L207.564 109.205L206.059 109.958Z" fill="#835F25"/>
<path fill-rule="evenodd" clip-rule="evenodd" d="M215.847 106.193L215.847 128.028L214.341 127.275L214.341 105.44L215.847 106.193Z" fill="#AF8643"/>
<path fill-rule="evenodd" clip-rule="evenodd" d="M215.847 106.194L215.847 128.028L217.353 127.275L217.353 105.441L215.847 106.194Z" fill="#835F25"/>
<path fill-rule="evenodd" clip-rule="evenodd" d="M214.341 105.44L215.847 106.193L217.353 105.44L215.847 104.688L214.341 105.44Z" fill="#835F25"/>
<path fill-rule="evenodd" clip-rule="evenodd" d="M198.53 116.734L198.53 138.569L197.024 137.816L197.024 115.981L198.53 116.734Z" fill="#AF8643"/>
<path fill-rule="evenodd" clip-rule="evenodd" d="M198.53 116.735L198.53 138.569L200.035 137.816L200.035 115.982L198.53 116.735Z" fill="#835F25"/>
<path fill-rule="evenodd" clip-rule="evenodd" d="M197.023 115.981L198.529 116.734L200.035 115.981L198.529 115.229L197.023 115.981Z" fill="#835F25"/>
<path fill-rule="evenodd" clip-rule="evenodd" d="M187.99 123.511L187.99 145.345L186.484 144.592L186.484 122.758L187.99 123.511Z" fill="#AF8643"/>
<path fill-rule="evenodd" clip-rule="evenodd" d="M187.991 123.511L187.991 145.345L189.496 144.592L189.496 122.758L187.991 123.511Z" fill="#835F25"/>
<path fill-rule="evenodd" clip-rule="evenodd" d="M186.484 122.758L187.99 123.51L189.496 122.758L187.99 122.005L186.484 122.758Z" fill="#835F25"/>
<path fill-rule="evenodd" clip-rule="evenodd" d="M176.696 130.287L176.696 152.122L175.19 151.369L175.19 129.534L176.696 130.287Z" fill="#AF8643"/>
<path fill-rule="evenodd" clip-rule="evenodd" d="M176.696 130.287L176.696 152.122L178.201 151.369L178.201 129.534L176.696 130.287Z" fill="#835F25"/>
<path fill-rule="evenodd" clip-rule="evenodd" d="M175.189 129.534L176.695 130.287L178.201 129.534L176.695 128.781L175.189 129.534Z" fill="#835F25"/>
<path fill-rule="evenodd" clip-rule="evenodd" d="M166.155 137.063L166.155 158.898L164.649 158.145L164.649 136.31L166.155 137.063Z" fill="#AF8643"/>
<path fill-rule="evenodd" clip-rule="evenodd" d="M166.155 137.063L166.155 158.898L167.66 158.145L167.66 136.31L166.155 137.063Z" fill="#835F25"/>
<path fill-rule="evenodd" clip-rule="evenodd" d="M164.648 136.31L166.154 137.063L167.66 136.31L166.154 135.557L164.648 136.31Z" fill="#835F25"/>
<path fill-rule="evenodd" clip-rule="evenodd" d="M128.51 112.97L128.509 134.804L127.004 134.051L127.004 112.217L128.51 112.97Z" fill="#AF8643"/>
<path fill-rule="evenodd" clip-rule="evenodd" d="M128.51 112.97L128.51 134.804L130.016 134.052L130.016 112.217L128.51 112.97Z" fill="#835F25"/>
<path fill-rule="evenodd" clip-rule="evenodd" d="M127.004 112.217L128.51 112.97L130.016 112.217L128.51 111.464L127.004 112.217Z" fill="#835F25"/>
<path fill-rule="evenodd" clip-rule="evenodd" d="M141.308 121.252L141.308 143.087L139.802 142.334L139.802 120.499L141.308 121.252Z" fill="#AF8643"/>
<path fill-rule="evenodd" clip-rule="evenodd" d="M141.308 121.252L141.308 143.087L142.814 142.334L142.814 120.499L141.308 121.252Z" fill="#835F25"/>
<path fill-rule="evenodd" clip-rule="evenodd" d="M139.802 120.499L141.308 121.252L142.813 120.499L141.308 119.746L139.802 120.499Z" fill="#835F25"/>
<path fill-rule="evenodd" clip-rule="evenodd" d="M154.107 129.534L154.107 151.369L152.601 150.616L152.601 128.781L154.107 129.534Z" fill="#AF8643"/>
<path fill-rule="evenodd" clip-rule="evenodd" d="M154.107 129.534L154.107 151.369L155.613 150.616L155.613 128.781L154.107 129.534Z" fill="#835F25"/>
<path fill-rule="evenodd" clip-rule="evenodd" d="M152.601 128.781L154.107 129.534L155.613 128.781L154.107 128.028L152.601 128.781Z" fill="#835F25"/>
<path fill-rule="evenodd" clip-rule="evenodd" d="M154.107 96.4056L154.107 118.24L152.601 117.487L152.601 95.6526L154.107 96.4056Z" fill="#AF8643"/>
<path fill-rule="evenodd" clip-rule="evenodd" d="M154.107 96.4057L154.107 118.24L155.613 117.487L155.613 95.6528L154.107 96.4057Z" fill="#835F25"/>
<path fill-rule="evenodd" clip-rule="evenodd" d="M152.601 95.6526L154.107 96.4055L155.613 95.6526L154.107 94.8997L152.601 95.6526Z" fill="#835F25"/>
<path fill-rule="evenodd" clip-rule="evenodd" d="M166.908 104.688L166.908 126.522L165.402 125.769L165.402 103.935L166.908 104.688Z" fill="#AF8643"/>
<path fill-rule="evenodd" clip-rule="evenodd" d="M166.908 104.688L166.908 126.523L168.413 125.77L168.413 103.935L166.908 104.688Z" fill="#835F25"/>
<path fill-rule="evenodd" clip-rule="evenodd" d="M165.402 103.935L166.908 104.688L168.414 103.935L166.908 103.182L165.402 103.935Z" fill="#835F25"/>
<path fill-rule="evenodd" clip-rule="evenodd" d="M182.72 96.4056L182.719 118.24L181.214 117.487L181.214 95.6526L182.72 96.4056Z" fill="#AF8643"/>
<path fill-rule="evenodd" clip-rule="evenodd" d="M182.72 96.4057L182.72 118.24L184.226 117.487L184.226 95.6528L182.72 96.4057Z" fill="#835F25"/>
<path fill-rule="evenodd" clip-rule="evenodd" d="M181.213 95.6526L182.719 96.4055L184.225 95.6526L182.719 94.8997L181.213 95.6526Z" fill="#835F25"/>
<path fill-rule="evenodd" clip-rule="evenodd" d="M75.8055 80.5943L75.8053 102.429L74.2995 101.676L74.2995 79.8413L75.8055 80.5943Z" fill="#AF8643"/>
<path fill-rule="evenodd" clip-rule="evenodd" d="M75.806 80.5944L75.806 102.429L77.3118 101.676L77.3118 79.8415L75.806 80.5944Z" fill="#835F25"/>
<path fill-rule="evenodd" clip-rule="evenodd" d="M74.2997 79.8413L75.8056 80.5942L77.3115 79.8413L75.8056 79.0884L74.2997 79.8413Z" fill="#835F25"/>
<path fill-rule="evenodd" clip-rule="evenodd" d="M84.8396 86.6178L84.8395 108.452L83.3337 107.699L83.3337 85.8648L84.8396 86.6178Z" fill="#AF8643"/>
<path fill-rule="evenodd" clip-rule="evenodd" d="M84.8392 86.6179L84.8392 108.452L86.345 107.7L86.345 85.8649L84.8392 86.6179Z" fill="#835F25"/>
<path fill-rule="evenodd" clip-rule="evenodd" d="M83.3339 85.8647L84.8397 86.6177L86.3457 85.8647L84.8397 85.1118L83.3339 85.8647Z" fill="#835F25"/>
<path fill-rule="evenodd" clip-rule="evenodd" d="M94.6277 92.641L94.6275 114.476L93.1218 113.723L93.1217 91.888L94.6277 92.641Z" fill="#AF8643"/>
<path fill-rule="evenodd" clip-rule="evenodd" d="M94.6273 92.6411L94.6272 114.476L96.1331 113.723L96.1331 91.8881L94.6273 92.6411Z" fill="#835F25"/>
<path fill-rule="evenodd" clip-rule="evenodd" d="M93.121 91.8879L94.6269 92.6408L96.1328 91.8879L94.6269 91.135L93.121 91.8879Z" fill="#835F25"/>
<path fill-rule="evenodd" clip-rule="evenodd" d="M103.663 97.9115L103.663 119.746L102.157 118.993L102.157 97.1585L103.663 97.9115Z" fill="#AF8643"/>
<path fill-rule="evenodd" clip-rule="evenodd" d="M103.662 97.9116L103.662 119.746L105.168 118.993L105.168 97.1586L103.662 97.9116Z" fill="#835F25"/>
<path fill-rule="evenodd" clip-rule="evenodd" d="M102.156 97.1584L103.662 97.9114L105.168 97.1584L103.662 96.4055L102.156 97.1584Z" fill="#835F25"/>
<path fill-rule="evenodd" clip-rule="evenodd" d="M108.18 91.888L108.18 113.723L106.674 112.97L106.674 91.135L108.18 91.888Z" fill="#AF8643"/>
<path fill-rule="evenodd" clip-rule="evenodd" d="M108.181 91.8881L108.181 113.723L109.687 112.97L109.687 91.1352L108.181 91.8881Z" fill="#835F25"/>
<path fill-rule="evenodd" clip-rule="evenodd" d="M106.675 91.135L108.181 91.8879L109.687 91.135L108.181 90.3821L106.675 91.135Z" fill="#835F25"/>
<path fill-rule="evenodd" clip-rule="evenodd" d="M116.463 86.6178L116.463 108.452L114.957 107.699L114.957 85.8648L116.463 86.6178Z" fill="#AF8643"/>
<path fill-rule="evenodd" clip-rule="evenodd" d="M116.462 86.6179L116.462 108.452L117.968 107.7L117.968 85.8649L116.462 86.6179Z" fill="#835F25"/>
<path fill-rule="evenodd" clip-rule="evenodd" d="M114.956 85.8647L116.462 86.6177L117.968 85.8647L116.462 85.1118L114.956 85.8647Z" fill="#835F25"/>
<path fill-rule="evenodd" clip-rule="evenodd" d="M169.576 73.5334L159.081 80.1806L154.621 77.3818L165.072 70.7783L169.576 73.5334Z" fill="#832C2A"/>
<path fill-rule="evenodd" clip-rule="evenodd" d="M159.649 79.7871V74.1895L164.153 76.9446L159.649 79.7871Z" fill="#9A3227"/>
<path fill-rule="evenodd" clip-rule="evenodd" d="M123.306 111.111V109.067L63.9508 71.6436L63.901 73.7365L123.306 111.111Z" fill="#835F25"/>
<path fill-rule="evenodd" clip-rule="evenodd" d="M63.9016 71.6436L123.257 109.068L126.344 107.124L66.9888 69.7002L63.9016 71.6436Z" fill="#C4984C"/>
<path fill-rule="evenodd" clip-rule="evenodd" d="M123.306 111.111V109.067L126.394 107.124V109.167L123.306 111.111Z" fill="#B08743"/>
<path fill-rule="evenodd" clip-rule="evenodd" d="M137.612 101.323V99.2796L78.2574 61.8557L78.2076 63.9487L137.612 101.323Z" fill="#835F25"/>
<path fill-rule="evenodd" clip-rule="evenodd" d="M78.2073 61.8558L137.562 99.2797L140.649 97.3363L81.2945 59.9124L78.2073 61.8558Z" fill="#C4984C"/>
<path fill-rule="evenodd" clip-rule="evenodd" d="M137.612 101.323V99.2796L140.699 97.3362V99.3793L137.612 101.323Z" fill="#B08743"/>
<path fill-rule="evenodd" clip-rule="evenodd" d="M152.67 92.2878V90.2447L93.315 52.8208L93.2652 54.9138L152.67 92.2878Z" fill="#835F25"/>
<path fill-rule="evenodd" clip-rule="evenodd" d="M93.2659 52.8209L152.621 90.2448L155.708 88.3013L96.3531 50.8774L93.2659 52.8209Z" fill="#C4984C"/>
<path fill-rule="evenodd" clip-rule="evenodd" d="M152.671 92.2878V90.2447L155.758 88.3013V90.3444L152.671 92.2878Z" fill="#B08743"/>
<path fill-rule="evenodd" clip-rule="evenodd" d="M165.47 84.0056V81.9625L106.115 44.5386L106.065 46.6315L165.47 84.0056Z" fill="#835F25"/>
<path fill-rule="evenodd" clip-rule="evenodd" d="M106.066 44.5387L165.421 81.9626L168.508 80.0191L109.153 42.5952L106.066 44.5387Z" fill="#C4984C"/>
<path fill-rule="evenodd" clip-rule="evenodd" d="M165.469 84.0056V81.9625L168.557 80.019V82.0622L165.469 84.0056Z" fill="#B08743"/>
<path fill-rule="evenodd" clip-rule="evenodd" d="M177.516 76.4765V74.4334L118.161 37.0095L118.111 39.1025L177.516 76.4765Z" fill="#835F25"/>
<path fill-rule="evenodd" clip-rule="evenodd" d="M118.112 37.0096L177.466 74.4335L180.554 72.4901L121.199 35.0662L118.112 37.0096Z" fill="#C4984C"/>
<path fill-rule="evenodd" clip-rule="evenodd" d="M177.516 76.4766V74.4334L180.604 72.49V74.5331L177.516 76.4766Z" fill="#B08743"/>
<path fill-rule="evenodd" clip-rule="evenodd" d="M172.245 141.98V139.937L112.89 102.513L112.84 104.606L172.245 141.98Z" fill="#835F25"/>
<path fill-rule="evenodd" clip-rule="evenodd" d="M112.842 102.514L172.197 139.937L175.284 137.994L115.929 100.57L112.842 102.514Z" fill="#C4984C"/>
<path fill-rule="evenodd" clip-rule="evenodd" d="M172.246 141.98V139.937L175.333 137.994V140.037L172.246 141.98Z" fill="#B08743"/>
<path fill-rule="evenodd" clip-rule="evenodd" d="M186.551 132.192V130.149L127.196 92.7253L127.146 94.8183L186.551 132.192Z" fill="#835F25"/>
<path fill-rule="evenodd" clip-rule="evenodd" d="M127.147 92.7254L186.502 130.149L189.589 128.206L130.234 90.782L127.147 92.7254Z" fill="#C4984C"/>
<path fill-rule="evenodd" clip-rule="evenodd" d="M186.551 132.192V130.149L189.639 128.206V130.249L186.551 132.192Z" fill="#B08743"/>
<path fill-rule="evenodd" clip-rule="evenodd" d="M201.608 123.157V121.114L142.254 83.6904L142.204 85.7834L201.608 123.157Z" fill="#835F25"/>
<path fill-rule="evenodd" clip-rule="evenodd" d="M142.205 83.6905L201.56 121.114L204.647 119.171L145.293 81.7471L142.205 83.6905Z" fill="#C4984C"/>
<path fill-rule="evenodd" clip-rule="evenodd" d="M201.609 123.157V121.114L204.696 119.171V121.214L201.609 123.157Z" fill="#B08743"/>
<path fill-rule="evenodd" clip-rule="evenodd" d="M214.409 114.875V112.832L155.054 75.4082L155.005 77.5012L214.409 114.875Z" fill="#835F25"/>
<path fill-rule="evenodd" clip-rule="evenodd" d="M155.006 75.4083L214.361 112.832L217.448 110.889L158.093 73.4648L155.006 75.4083Z" fill="#C4984C"/>
<path fill-rule="evenodd" clip-rule="evenodd" d="M214.41 114.875V112.832L217.497 110.889V112.932L214.41 114.875Z" fill="#B08743"/>
<path fill-rule="evenodd" clip-rule="evenodd" d="M226.455 107.346V105.303L167.1 67.8792L167.05 69.9721L226.455 107.346Z" fill="#835F25"/>
<path fill-rule="evenodd" clip-rule="evenodd" d="M167.051 67.8792L226.406 105.303L229.493 103.36L170.138 65.9358L167.051 67.8792Z" fill="#C4984C"/>
<path fill-rule="evenodd" clip-rule="evenodd" d="M226.456 107.346V105.303L229.543 103.36V105.403L226.456 107.346Z" fill="#B08743"/>
<path fill-rule="evenodd" clip-rule="evenodd" d="M140.022 122.405V120.361L199.377 82.9375L199.427 85.0305L140.022 122.405Z" fill="#835F25"/>
<path fill-rule="evenodd" clip-rule="evenodd" d="M199.426 82.9376L140.071 120.361L136.983 118.418L196.338 80.9941L199.426 82.9376Z" fill="#B89559"/>
<path fill-rule="evenodd" clip-rule="evenodd" d="M140.022 122.405V120.361L136.935 118.418V120.461L140.022 122.405Z" fill="#B08743"/>
<path fill-rule="evenodd" clip-rule="evenodd" d="M101.623 99.8169V97.7737L160.978 60.3499L161.028 62.4428L101.623 99.8169Z" fill="#835F25"/>
<path fill-rule="evenodd" clip-rule="evenodd" d="M161.027 60.3499L101.672 97.7738L98.585 95.8304L157.94 58.4065L161.027 60.3499Z" fill="#B89559"/>
<path fill-rule="evenodd" clip-rule="evenodd" d="M101.622 99.8169V97.7738L98.5352 95.8303V97.8734L101.622 99.8169Z" fill="#B08743"/>
<path fill-rule="evenodd" clip-rule="evenodd" d="M68.4951 76.4765V74.4334L127.85 37.0095L127.9 39.1025L68.4951 76.4765Z" fill="#835F25"/>
<path fill-rule="evenodd" clip-rule="evenodd" d="M127.899 37.0096L68.5443 74.4335L65.457 72.4901L124.812 35.0662L127.899 37.0096Z" fill="#B89559"/>
<path fill-rule="evenodd" clip-rule="evenodd" d="M68.4944 76.4766V74.4334L65.4072 72.49V74.5331L68.4944 76.4766Z" fill="#B08743"/>
<path fill-rule="evenodd" clip-rule="evenodd" d="M90.3301 91.5349V89.4918L149.685 52.0679L149.735 54.1608L90.3301 91.5349Z" fill="#835F25"/>
<path fill-rule="evenodd" clip-rule="evenodd" d="M149.734 52.068L90.3792 89.4919L87.292 87.5484L146.647 50.1245L149.734 52.068Z" fill="#B89559"/>
<path fill-rule="evenodd" clip-rule="evenodd" d="M90.3294 91.5349V89.4918L87.2422 87.5483V89.5915L90.3294 91.5349Z" fill="#B08743"/>
<path fill-rule="evenodd" clip-rule="evenodd" d="M150.168 144.998V129.457L144.897 126.175V141.701L150.168 144.998Z" fill="#7E7E7E"/>
<path fill-rule="evenodd" clip-rule="evenodd" d="M150.167 144.998V137.939L145.883 140.813L144.896 141.472L150.167 144.998Z" fill="#E3E3E3"/>
<path fill-rule="evenodd" clip-rule="evenodd" d="M150.167 129.546L146.026 126.928V141.233L150.167 143.429V129.546Z" fill="#3A3D3F"/>
<path fill-rule="evenodd" clip-rule="evenodd" d="M146.026 135.963L150.167 133.233V143.868L146.026 141.233V135.963Z" fill="#666666"/>
<path fill-rule="evenodd" clip-rule="evenodd" d="M153.179 144.245L153.179 150.645L141.742 143.31L141.742 137.238L141.742 122.787L141.885 122.41L144.897 123.916L150.167 127.304L150.167 129.563L144.897 126.175L144.897 141.515L150.167 144.998L150.167 127.304L153.179 129.187L153.179 144.245Z" fill="#AF8643"/>
<path fill-rule="evenodd" clip-rule="evenodd" d="M81.9757 101.72V87.2212L77.3975 84.1587V98.6445L81.9757 101.72Z" fill="#7E7E7E"/>
<path fill-rule="evenodd" clip-rule="evenodd" d="M81.9757 101.72V95.1348L78.2545 97.8157L77.3975 98.4311L81.9757 101.72Z" fill="#E3E3E3"/>
<path fill-rule="evenodd" clip-rule="evenodd" d="M81.9761 87.3041L78.3789 84.8611V98.2079L81.9761 100.257V87.3041Z" fill="#3A3D3F"/>
<path fill-rule="evenodd" clip-rule="evenodd" d="M78.3789 93.2908L81.9761 90.7444V100.667L78.3789 98.208V93.2908Z" fill="#666666"/>
<path fill-rule="evenodd" clip-rule="evenodd" d="M84.5907 101.018L84.5906 107.723L74.6557 101.72L74.656 94.48L74.656 80.9976L74.7802 80.6464L77.3964 82.0514L81.9744 85.1351L81.9744 87.3198L77.3964 84.1587L77.3964 98.4705L81.9744 101.72L81.9744 85.1351L84.5905 86.641L84.5907 101.018Z" fill="#AF8643"/>
<path fill-rule="evenodd" clip-rule="evenodd" d="M79.0361 84.0056V81.9625L138.391 44.5386L138.441 46.6315L79.0361 84.0056Z" fill="#835F25"/>
<path fill-rule="evenodd" clip-rule="evenodd" d="M138.44 44.5387L79.0853 81.9626L75.998 80.0191L135.353 42.5952L138.44 44.5387Z" fill="#B89559"/>
<path fill-rule="evenodd" clip-rule="evenodd" d="M79.0355 84.0056V81.9625L75.9482 80.019V82.0622L79.0355 84.0056Z" fill="#B08743"/>
<path fill-rule="evenodd" clip-rule="evenodd" d="M127.976 114.875V112.832L187.33 75.4082L187.38 77.5012L127.976 114.875Z" fill="#835F25"/>
<path fill-rule="evenodd" clip-rule="evenodd" d="M187.379 75.4083L128.024 112.832L124.937 110.889L184.291 73.4648L187.379 75.4083Z" fill="#B89559"/>
<path fill-rule="evenodd" clip-rule="evenodd" d="M127.975 114.875V112.832L124.888 110.889V112.932L127.975 114.875Z" fill="#B08743"/>
<path fill-rule="evenodd" clip-rule="evenodd" d="M115.175 108.099V106.056L174.53 68.6321L174.579 70.725L115.175 108.099Z" fill="#835F25"/>
<path fill-rule="evenodd" clip-rule="evenodd" d="M174.58 68.6322L115.225 106.056L112.138 104.113L171.493 66.6887L174.58 68.6322Z" fill="#B89559"/>
<path fill-rule="evenodd" clip-rule="evenodd" d="M115.175 108.099V106.056L112.088 104.113V106.156L115.175 108.099Z" fill="#B08743"/>
<path fill-rule="evenodd" clip-rule="evenodd" d="M152.822 130.686V128.643L212.177 91.2195L212.227 93.3124L152.822 130.686Z" fill="#835F25"/>
<path fill-rule="evenodd" clip-rule="evenodd" d="M212.226 91.2196L152.871 128.643L149.784 126.7L209.139 89.2761L212.226 91.2196Z" fill="#B89559"/>
<path fill-rule="evenodd" clip-rule="evenodd" d="M152.822 130.687V128.643L149.734 126.7V128.743L152.822 130.687Z" fill="#B08743"/>
<path fill-rule="evenodd" clip-rule="evenodd" d="M166.374 138.216V136.173L225.729 98.7488L225.779 100.842L166.374 138.216Z" fill="#835F25"/>
<path fill-rule="evenodd" clip-rule="evenodd" d="M225.778 98.7489L166.423 136.173L163.336 134.229L222.691 96.8054L225.778 98.7489Z" fill="#B89559"/>
<path fill-rule="evenodd" clip-rule="evenodd" d="M166.373 138.216V136.173L163.286 134.229V136.272L166.373 138.216Z" fill="#B08743"/>
<path fill-rule="evenodd" clip-rule="evenodd" d="M67.5222 41.1827L67.5221 73.4333L66.0163 72.3211L66.0163 40.0704L67.5222 41.1827Z" fill="#AF8643"/>
<path fill-rule="evenodd" clip-rule="evenodd" d="M67.5218 41.1827L67.5218 73.4333L69.0276 72.3212L69.0276 40.0706L67.5218 41.1827Z" fill="#835F25"/>
<path fill-rule="evenodd" clip-rule="evenodd" d="M66.0156 40.0706L67.5214 41.1827L69.0273 40.0706L67.5214 38.9585L66.0156 40.0706Z" fill="#835F25"/>
<path fill-rule="evenodd" clip-rule="evenodd" d="M82.5799 32.1475L82.5797 64.3981L81.0739 63.2859L81.0739 31.0353L82.5799 32.1475Z" fill="#AF8643"/>
<path fill-rule="evenodd" clip-rule="evenodd" d="M82.5794 32.1476L82.5794 64.3982L84.0852 63.2861L84.0852 31.0355L82.5794 32.1476Z" fill="#835F25"/>
<path fill-rule="evenodd" clip-rule="evenodd" d="M81.0732 31.0354L82.579 32.1475L84.0849 31.0354L82.579 29.9233L81.0732 31.0354Z" fill="#835F25"/>
<path fill-rule="evenodd" clip-rule="evenodd" d="M97.6394 23.1126L97.6393 55.3632L96.1335 54.251L96.1335 22.0003L97.6394 23.1126Z" fill="#AF8643"/>
<path fill-rule="evenodd" clip-rule="evenodd" d="M97.639 23.1127L97.639 55.3633L99.1448 54.2512L99.1448 22.0005L97.639 23.1127Z" fill="#835F25"/>
<path fill-rule="evenodd" clip-rule="evenodd" d="M96.1327 22.0005L97.6386 23.1126L99.1445 22.0005L97.6386 20.8884L96.1327 22.0005Z" fill="#835F25"/>
<path fill-rule="evenodd" clip-rule="evenodd" d="M110.439 14.8304L110.439 47.081L108.933 45.9688L108.933 13.7181L110.439 14.8304Z" fill="#AF8643"/>
<path fill-rule="evenodd" clip-rule="evenodd" d="M110.439 14.8305L110.439 47.081L111.945 45.9689L111.945 13.7183L110.439 14.8305Z" fill="#835F25"/>
<path fill-rule="evenodd" clip-rule="evenodd" d="M108.933 13.7183L110.438 14.8304L111.944 13.7183L110.438 12.6062L108.933 13.7183Z" fill="#835F25"/>
<path fill-rule="evenodd" clip-rule="evenodd" d="M123.239 7.30131L123.239 39.552L121.733 38.4397L121.733 6.18906L123.239 7.30131Z" fill="#AF8643"/>
<path fill-rule="evenodd" clip-rule="evenodd" d="M123.24 7.3014L123.24 39.552L124.745 38.4399L124.745 6.18926L123.24 7.3014Z" fill="#835F25"/>
<path fill-rule="evenodd" clip-rule="evenodd" d="M121.733 6.18925L123.239 7.30134L124.745 6.18921L123.239 5.07716L121.733 6.18925Z" fill="#835F25"/>
<path fill-rule="evenodd" clip-rule="evenodd" d="M134.533 14.0774L134.533 46.3281L133.027 45.2158L133.027 12.9652L134.533 14.0774Z" fill="#AF8643"/>
<path fill-rule="evenodd" clip-rule="evenodd" d="M134.533 14.0775L134.533 46.3281L136.038 45.216L136.038 12.9654L134.533 14.0775Z" fill="#835F25"/>
<path fill-rule="evenodd" clip-rule="evenodd" d="M133.026 12.9654L134.532 14.0775L136.038 12.9653L134.532 11.8533L133.026 12.9654Z" fill="#835F25"/>
<path fill-rule="evenodd" clip-rule="evenodd" d="M145.826 21.6067L145.826 53.8574L144.32 52.7451L144.32 20.4945L145.826 21.6067Z" fill="#AF8643"/>
<path fill-rule="evenodd" clip-rule="evenodd" d="M145.825 21.6068L145.825 53.8574L147.331 52.7453L147.331 20.4947L145.825 21.6068Z" fill="#835F25"/>
<path fill-rule="evenodd" clip-rule="evenodd" d="M144.319 20.4947L145.825 21.6068L147.331 20.4946L145.825 19.3826L144.319 20.4947Z" fill="#835F25"/>
<path fill-rule="evenodd" clip-rule="evenodd" d="M157.12 29.8887L157.12 62.1394L155.614 61.0271L155.614 28.7765L157.12 29.8887Z" fill="#AF8643"/>
<path fill-rule="evenodd" clip-rule="evenodd" d="M157.119 29.8888L157.119 62.1394L158.625 61.0273L158.625 28.7767L157.119 29.8888Z" fill="#835F25"/>
<path fill-rule="evenodd" clip-rule="evenodd" d="M155.613 28.7766L157.119 29.8887L158.625 28.7766L157.119 27.6646L155.613 28.7766Z" fill="#835F25"/>
<path fill-rule="evenodd" clip-rule="evenodd" d="M170.673 38.1709L170.672 70.4216L169.167 69.3093L169.167 37.0587L170.673 38.1709Z" fill="#AF8643"/>
<path fill-rule="evenodd" clip-rule="evenodd" d="M170.672 38.171L170.672 70.4216L172.178 69.3095L172.178 37.0589L170.672 38.171Z" fill="#835F25"/>
<path fill-rule="evenodd" clip-rule="evenodd" d="M169.166 37.0589L170.672 38.171L172.178 37.0588L170.672 35.9468L169.166 37.0589Z" fill="#835F25"/>
<path fill-rule="evenodd" clip-rule="evenodd" d="M183.471 44.9473L183.471 77.1979L181.966 76.0857L181.965 43.8351L183.471 44.9473Z" fill="#AF8643"/>
<path fill-rule="evenodd" clip-rule="evenodd" d="M183.471 44.9474L183.471 77.198L184.977 76.0859L184.977 43.8353L183.471 44.9474Z" fill="#835F25"/>
<path fill-rule="evenodd" clip-rule="evenodd" d="M181.965 43.8352L183.471 44.9473L184.977 43.8352L183.471 42.7232L181.965 43.8352Z" fill="#835F25"/>
<path fill-rule="evenodd" clip-rule="evenodd" d="M195.518 52.4764L195.518 84.727L194.012 83.6148L194.012 51.3641L195.518 52.4764Z" fill="#AF8643"/>
<path fill-rule="evenodd" clip-rule="evenodd" d="M195.518 52.4764L195.518 84.727L197.024 83.6149L197.024 51.3643L195.518 52.4764Z" fill="#835F25"/>
<path fill-rule="evenodd" clip-rule="evenodd" d="M194.012 51.3643L195.517 52.4764L197.023 51.3643L195.517 50.2522L194.012 51.3643Z" fill="#835F25"/>
<path fill-rule="evenodd" clip-rule="evenodd" d="M208.318 60.7583L208.318 93.009L206.812 91.8967L206.812 59.6461L208.318 60.7583Z" fill="#AF8643"/>
<path fill-rule="evenodd" clip-rule="evenodd" d="M208.319 60.7584L208.319 93.009L209.824 91.8969L209.824 59.6463L208.319 60.7584Z" fill="#835F25"/>
<path fill-rule="evenodd" clip-rule="evenodd" d="M206.812 59.6463L208.318 60.7584L209.824 59.6462L208.318 58.5342L206.812 59.6463Z" fill="#835F25"/>
<path fill-rule="evenodd" clip-rule="evenodd" d="M221.118 68.2876L221.118 100.538L219.612 99.426L219.612 67.1754L221.118 68.2876Z" fill="#AF8643"/>
<path fill-rule="evenodd" clip-rule="evenodd" d="M221.117 68.2877L221.117 100.538L222.623 99.4262L222.623 67.1756L221.117 68.2877Z" fill="#835F25"/>
<path fill-rule="evenodd" clip-rule="evenodd" d="M219.611 67.1756L221.117 68.2877L222.623 67.1755L221.117 66.0635L219.611 67.1756Z" fill="#835F25"/>
<path fill-rule="evenodd" clip-rule="evenodd" d="M209.071 76.5696L209.071 108.82L207.565 107.708L207.565 75.4574L209.071 76.5696Z" fill="#AF8643"/>
<path fill-rule="evenodd" clip-rule="evenodd" d="M209.071 76.5697L209.071 108.82L210.576 107.708L210.576 75.4576L209.071 76.5697Z" fill="#835F25"/>
<path fill-rule="evenodd" clip-rule="evenodd" d="M207.564 75.4576L209.07 76.5696L210.576 75.4575L209.07 74.3455L207.564 75.4576Z" fill="#835F25"/>
<path fill-rule="evenodd" clip-rule="evenodd" d="M181.214 93.8868L181.213 126.137L179.708 125.025L179.708 92.7745L181.214 93.8868Z" fill="#AF8643"/>
<path fill-rule="evenodd" clip-rule="evenodd" d="M181.214 93.8868L181.214 126.137L182.72 125.025L182.72 92.7747L181.214 93.8868Z" fill="#835F25"/>
<path fill-rule="evenodd" clip-rule="evenodd" d="M179.708 92.7747L181.214 93.8868L182.72 92.7747L181.214 91.6626L179.708 92.7747Z" fill="#835F25"/>
<path fill-rule="evenodd" clip-rule="evenodd" d="M166.908 102.922L166.908 135.173L165.402 134.06L165.402 101.81L166.908 102.922Z" fill="#AF8643"/>
<path fill-rule="evenodd" clip-rule="evenodd" d="M166.908 102.922L166.908 135.173L168.413 134.06L168.413 101.81L166.908 102.922Z" fill="#835F25"/>
<path fill-rule="evenodd" clip-rule="evenodd" d="M165.402 101.81L166.908 102.922L168.414 101.81L166.908 100.698L165.402 101.81Z" fill="#835F25"/>
<path fill-rule="evenodd" clip-rule="evenodd" d="M154.107 94.6397L154.107 126.89L152.601 125.778L152.601 93.5274L154.107 94.6397Z" fill="#AF8643"/>
<path fill-rule="evenodd" clip-rule="evenodd" d="M154.107 94.6398L154.107 126.89L155.613 125.778L155.613 93.5276L154.107 94.6398Z" fill="#835F25"/>
<path fill-rule="evenodd" clip-rule="evenodd" d="M152.601 93.5276L154.107 94.6397L155.613 93.5276L154.107 92.4155L152.601 93.5276Z" fill="#835F25"/>
<path fill-rule="evenodd" clip-rule="evenodd" d="M141.308 86.3577L141.308 118.608L139.802 117.496L139.802 85.2455L141.308 86.3577Z" fill="#AF8643"/>
<path fill-rule="evenodd" clip-rule="evenodd" d="M141.308 86.3578L141.308 118.608L142.814 117.496L142.814 85.2457L141.308 86.3578Z" fill="#835F25"/>
<path fill-rule="evenodd" clip-rule="evenodd" d="M139.802 85.2456L141.308 86.3577L142.813 85.2456L141.308 84.1336L139.802 85.2456Z" fill="#835F25"/>
<path fill-rule="evenodd" clip-rule="evenodd" d="M129.262 78.8284L129.262 111.079L127.757 109.967L127.757 77.7162L129.262 78.8284Z" fill="#AF8643"/>
<path fill-rule="evenodd" clip-rule="evenodd" d="M129.262 78.8285L129.262 111.079L130.768 109.967L130.768 77.7164L129.262 78.8285Z" fill="#835F25"/>
<path fill-rule="evenodd" clip-rule="evenodd" d="M127.756 77.7163L129.262 78.8284L130.768 77.7163L129.262 76.6043L127.756 77.7163Z" fill="#835F25"/>
<path fill-rule="evenodd" clip-rule="evenodd" d="M103.663 63.7701L103.663 96.0207L102.157 94.9085L102.157 62.6578L103.663 63.7701Z" fill="#AF8643"/>
<path fill-rule="evenodd" clip-rule="evenodd" d="M103.662 63.7702L103.662 96.0207L105.168 94.9086L105.168 62.658L103.662 63.7702Z" fill="#835F25"/>
<path fill-rule="evenodd" clip-rule="evenodd" d="M102.156 62.658L103.662 63.7701L105.168 62.658L103.662 61.5459L102.156 62.658Z" fill="#835F25"/>
<path fill-rule="evenodd" clip-rule="evenodd" d="M92.3689 55.4881L92.3688 87.7387L90.863 86.6265L90.863 54.3758L92.3689 55.4881Z" fill="#AF8643"/>
<path fill-rule="evenodd" clip-rule="evenodd" d="M92.3685 55.4882L92.3685 87.7388L93.8743 86.6267L93.8743 54.376L92.3685 55.4882Z" fill="#835F25"/>
<path fill-rule="evenodd" clip-rule="evenodd" d="M90.8622 54.376L92.3681 55.4881L93.874 54.376L92.3681 53.2639L90.8622 54.376Z" fill="#835F25"/>
<path fill-rule="evenodd" clip-rule="evenodd" d="M80.3221 48.7117L80.3219 80.9624L78.8161 79.8501L78.8161 47.5995L80.3221 48.7117Z" fill="#AF8643"/>
<path fill-rule="evenodd" clip-rule="evenodd" d="M80.3216 48.7118L80.3216 80.9624L81.8274 79.8503L81.8274 47.5997L80.3216 48.7118Z" fill="#835F25"/>
<path fill-rule="evenodd" clip-rule="evenodd" d="M78.8154 47.5996L80.3212 48.7117L81.8271 47.5996L80.3212 46.4876L78.8154 47.5996Z" fill="#835F25"/>
<path fill-rule="evenodd" clip-rule="evenodd" d="M195.518 84.8518L195.518 117.102L194.012 115.99L194.012 83.7396L195.518 84.8518Z" fill="#AF8643"/>
<path fill-rule="evenodd" clip-rule="evenodd" d="M195.518 84.8519L195.518 117.103L197.024 115.99L197.024 83.7398L195.518 84.8519Z" fill="#835F25"/>
<path fill-rule="evenodd" clip-rule="evenodd" d="M194.012 83.7398L195.517 84.8519L197.023 83.7397L195.517 82.6277L194.012 83.7398Z" fill="#835F25"/>
<path fill-rule="evenodd" clip-rule="evenodd" d="M127.9 102.829L127.9 110.358L103.578 95.4586L103.578 88.6823L103.577 66.4712L110.96 70.4533L112.842 71.9591L125.641 79.3786L125.392 83.2529L107.776 71.9591L107.776 92.8419L125.392 103.582L125.392 97.1818L125.641 79.3786L127.9 81.3707L127.9 88.1468L127.9 102.829Z" fill="#AF8643"/>
<path fill-rule="evenodd" clip-rule="evenodd" d="M112.842 90.7822V74.9709L107.571 71.5828V92.6645L112.842 90.7822Z" fill="#7E7E7E"/>
<path fill-rule="evenodd" clip-rule="evenodd" d="M125.641 103.958V100.57L112.842 89.2764L108.558 92.1499L107.571 92.8095L125.641 103.958Z" fill="#E3E3E3"/>
<path fill-rule="evenodd" clip-rule="evenodd" d="M125.641 82.8318L118.112 78.359L109.83 73.0886V91.5351L125.641 101.699V82.8318Z" fill="#3A3D3F"/>
<path fill-rule="evenodd" clip-rule="evenodd" d="M224.918 64.3569L223.466 65.2572L123.925 5.39816L125.377 4.4978L224.918 64.3569Z" fill="#AF8643"/>
<path fill-rule="evenodd" clip-rule="evenodd" d="M123.911 5.39819L223.466 65.2573V68.5101L123.925 8.63656L123.911 5.39819Z" fill="#825E22"/>
<path fill-rule="evenodd" clip-rule="evenodd" d="M224.917 64.3569L223.465 65.2573V68.5103L224.875 67.668L224.917 64.3569Z" fill="#75541E"/>
<path fill-rule="evenodd" clip-rule="evenodd" d="M165.165 98.3963L166.617 99.2967L223.48 65.2574L221.986 64.3716L165.165 98.3963Z" fill="#AF8643"/>
<path fill-rule="evenodd" clip-rule="evenodd" d="M223.48 65.2573L166.617 99.2965V102.549L223.466 68.5102L223.48 65.2573Z" fill="#75541E"/>
<path fill-rule="evenodd" clip-rule="evenodd" d="M67.1035 39.4228L68.5555 40.3377L125.418 6.29855L123.924 5.39819L67.1035 39.4228Z" fill="#AF8643"/>
<path fill-rule="evenodd" clip-rule="evenodd" d="M125.418 6.29858L68.5557 40.3377V43.5761L125.404 9.53695L125.418 6.29858Z" fill="#75541E"/>
<path fill-rule="evenodd" clip-rule="evenodd" d="M166.646 99.2819L165.208 100.139L65.6523 40.2797L67.1182 39.3794L166.646 99.2819Z" fill="#AF8643"/>
<path fill-rule="evenodd" clip-rule="evenodd" d="M65.6523 40.2798L165.207 100.139V103.392L65.6663 43.5182L65.6523 40.2798Z" fill="#825E22"/>
<path fill-rule="evenodd" clip-rule="evenodd" d="M166.645 99.282L165.207 100.139V103.392L166.617 102.549L166.645 99.282Z" fill="#75541E"/>
<path fill-rule="evenodd" clip-rule="evenodd" d="M164.704 49.4286L138.514 89.0878L136.895 88.1148L164.704 46.0015V49.4286Z" fill="#AF8643"/>
<path fill-rule="evenodd" clip-rule="evenodd" d="M136.895 88.1147L138.514 89.0877V92.3988L136.895 91.4258V88.1147Z" fill="#825E22"/>
<path fill-rule="evenodd" clip-rule="evenodd" d="M164.704 49.4285L138.514 89.0876V92.3986L164.69 52.7394L164.704 49.4285Z" fill="#75541E"/>
<path fill-rule="evenodd" clip-rule="evenodd" d="M164.69 78.9078L152.363 97.5828L150.743 96.6099L164.69 75.4807V78.9078Z" fill="#AF8643"/>
<path fill-rule="evenodd" clip-rule="evenodd" d="M150.743 96.6099L152.362 97.5829V100.705L150.743 99.7467V96.6099Z" fill="#825E22"/>
<path fill-rule="evenodd" clip-rule="evenodd" d="M164.691 78.9077L152.363 97.5829V100.705L152.447 100.763L164.691 82.2187V78.9077Z" fill="#75541E"/>
<path fill-rule="evenodd" clip-rule="evenodd" d="M166.926 65.4171L186.429 94.8821L188.049 93.9091L166.926 61.9319V65.4171Z" fill="#AF8643"/>
<path fill-rule="evenodd" clip-rule="evenodd" d="M188.048 93.9089L186.429 94.8819V98.0768L188.048 97.1038V93.9089Z" fill="#825E22"/>
<path fill-rule="evenodd" clip-rule="evenodd" d="M166.925 65.4172L186.428 94.8819V98.0767L186.372 98.1058L166.925 68.7282V65.4172Z" fill="#825E22"/>
<path fill-rule="evenodd" clip-rule="evenodd" d="M165.612 31.2471L234.244 65.78L234.3 69.1201L165.738 34.7178L165.612 31.2471Z" fill="#75541E"/>
<path fill-rule="evenodd" clip-rule="evenodd" d="M202.496 49.8059L219.305 75.2627L220.924 74.2898L205.889 51.505L202.496 49.8059Z" fill="#AF8643"/>
<path fill-rule="evenodd" clip-rule="evenodd" d="M220.924 74.2898L219.305 75.2627V78.3849L220.924 77.4119V74.2898Z" fill="#825E22"/>
<path fill-rule="evenodd" clip-rule="evenodd" d="M202.496 49.8059L219.305 75.2628V78.385L219.221 78.4431L202.552 53.1895L202.496 49.8059Z" fill="#825E22"/>
<path fill-rule="evenodd" clip-rule="evenodd" d="M128.895 9.84204L169.255 34.2678L169.423 37.7675L128.895 13.3999V9.84204Z" fill="#825E22"/>
<path fill-rule="evenodd" clip-rule="evenodd" d="M166.924 32.8591V104.989L164.69 105.004L164.704 31.5085L166.924 32.8591Z" fill="#AF8643"/>
<path d="M166.933 104.948L164.699 104.952L164.705 108.249L166.939 108.244L166.933 104.948Z" fill="#825E22"/>
<path fill-rule="evenodd" clip-rule="evenodd" d="M102.467 23.3184L78.6916 28.3574L78.6357 31.712L102.341 26.7891L102.467 23.3184Z" fill="#75541E"/>
<path fill-rule="evenodd" clip-rule="evenodd" d="M102.467 23.3182L78.6924 28.3573L80.4514 27.3407L103.738 22.4905L102.467 23.3182Z" fill="#AF8643"/>
<path fill-rule="evenodd" clip-rule="evenodd" d="M130.347 8.92714L126.424 0.431885L124.749 0.635189L128.881 9.82749L130.347 8.92714Z" fill="#AF8643"/>
<path fill-rule="evenodd" clip-rule="evenodd" d="M128.951 12.8915L124.749 3.77175V0.63501L128.881 9.82739L128.951 12.8915Z" fill="#825E22"/>
<path fill-rule="evenodd" clip-rule="evenodd" d="M126.382 4.28003L114.348 6.8795L114.292 10.2341L126.55 7.69275L126.382 4.28003Z" fill="#75541E"/>
<path fill-rule="evenodd" clip-rule="evenodd" d="M126.382 4.28011L114.348 6.87949L116.163 5.86297L126.145 3.75732L126.382 4.28011Z" fill="#AF8643"/>
<path fill-rule="evenodd" clip-rule="evenodd" d="M128.895 9.84204L96.0734 17.8872L96.0176 21.2417L128.756 13.2982L128.895 9.84204Z" fill="#75541E"/>
<path fill-rule="evenodd" clip-rule="evenodd" d="M128.895 9.84188L96.0723 17.887L97.7756 16.9286L130.347 8.927L128.895 9.84188Z" fill="#AF8643"/>
<path fill-rule="evenodd" clip-rule="evenodd" d="M131.101 11.207L59.4396 42.1095L59.3838 45.4496L130.975 14.6778L131.101 11.207Z" fill="#644617"/>
<path fill-rule="evenodd" clip-rule="evenodd" d="M131.1 11.2069L59.4395 42.1093L60.7797 40.5991L130.221 10.6841L131.1 11.2069Z" fill="#AF8643"/>
<path fill-rule="evenodd" clip-rule="evenodd" d="M135.359 13.7774L100.736 66.2884L99.1162 65.3155L133.74 12.8044L135.359 13.7774Z" fill="#AF8643"/>
<path fill-rule="evenodd" clip-rule="evenodd" d="M99.1162 65.3154L100.736 66.2884V69.5849L99.1162 68.6119V65.3154Z" fill="#825E22"/>
<path fill-rule="evenodd" clip-rule="evenodd" d="M135.36 13.7773L100.736 66.2883V69.5848L135.346 17.1319L135.36 13.7773Z" fill="#75541E"/>
<path fill-rule="evenodd" clip-rule="evenodd" d="M86.4111 57.6914L88.0446 58.6789V61.9752L86.4251 61.0023L86.4111 57.6914Z" fill="#825E22"/>
<path fill-rule="evenodd" clip-rule="evenodd" d="M114.808 18.2356L88.0449 58.679V61.9754L114.808 21.0674V18.2356Z" fill="#75541E"/>
<path fill-rule="evenodd" clip-rule="evenodd" d="M114.809 18.2356L88.0452 58.6789L86.4258 57.6914L111.654 19.6006L114.809 18.2356Z" fill="#AF8643"/>
<path fill-rule="evenodd" clip-rule="evenodd" d="M157.878 27.3118L122.766 49.3415L121.188 48.3976L156.3 26.3679L157.878 27.3118Z" fill="#AF8643"/>
<path fill-rule="evenodd" clip-rule="evenodd" d="M121.188 48.3975L122.766 49.3414V52.5507L121.202 51.6068L121.188 48.3975Z" fill="#825E22"/>
<path fill-rule="evenodd" clip-rule="evenodd" d="M157.878 27.3118L122.767 49.3415V52.5508L157.85 30.5647L157.878 27.3118Z" fill="#75541E"/>
<path fill-rule="evenodd" clip-rule="evenodd" d="M147.672 21.0239L112.575 43.0535L110.997 42.095L146.108 20.0654L147.672 21.0239Z" fill="#AF8643"/>
<path fill-rule="evenodd" clip-rule="evenodd" d="M110.997 42.095L112.574 43.0534V46.2627L110.997 45.3188V42.095Z" fill="#825E22"/>
<path fill-rule="evenodd" clip-rule="evenodd" d="M147.673 21.0237L112.575 43.0533V46.2626L147.659 24.2766L147.673 21.0237Z" fill="#75541E"/>
<path fill-rule="evenodd" clip-rule="evenodd" d="M138.389 15.5636L103.277 37.5933L101.699 36.6493L136.811 14.6196L138.389 15.5636Z" fill="#AF8643"/>
<path fill-rule="evenodd" clip-rule="evenodd" d="M101.699 36.6494L103.277 37.5933V40.8026L101.713 39.8587L101.699 36.6494Z" fill="#825E22"/>
<path fill-rule="evenodd" clip-rule="evenodd" d="M138.389 15.5635L103.277 37.5933V40.8026L138.361 18.8164L138.389 15.5635Z" fill="#75541E"/>
<path fill-rule="evenodd" clip-rule="evenodd" d="M160.684 29.0833L126.116 81.449L124.497 80.4761L159.064 28.1104L160.684 29.0833Z" fill="#AF8643"/>
<path fill-rule="evenodd" clip-rule="evenodd" d="M148.25 20.8831L113.683 73.2489L112.063 72.2759L146.631 19.9102L148.25 20.8831Z" fill="#AF8643"/>
<path fill-rule="evenodd" clip-rule="evenodd" d="M124.497 80.4761L126.117 81.4491V84.7601L124.497 83.7871V80.4761Z" fill="#825E22"/>
<path fill-rule="evenodd" clip-rule="evenodd" d="M112.063 72.2759L113.683 73.2489V76.5599L112.063 75.587V72.2759Z" fill="#825E22"/>
<path fill-rule="evenodd" clip-rule="evenodd" d="M160.684 29.0835L126.117 81.4492V84.7602L160.67 32.4235L160.684 29.0835Z" fill="#75541E"/>
<path fill-rule="evenodd" clip-rule="evenodd" d="M148.251 20.8833L113.684 73.249V76.56L148.237 24.2233L148.251 20.8833Z" fill="#75541E"/>
<path fill-rule="evenodd" clip-rule="evenodd" d="M91.8565 28.1248L76.2623 51.7664L74.6289 50.7934L88.7013 29.4898L91.8565 28.1248Z" fill="#AF8643"/>
<path fill-rule="evenodd" clip-rule="evenodd" d="M74.6289 50.7937L76.2625 51.7666L76.2486 55.034L74.6429 54.0611L74.6289 50.7937Z" fill="#825E22"/>
<path fill-rule="evenodd" clip-rule="evenodd" d="M91.8712 28.1248L76.2629 51.7664L76.249 55.0338L76.2769 55.0484L91.8573 31.4357L91.8712 28.1248Z" fill="#75541E"/>
<path fill-rule="evenodd" clip-rule="evenodd" d="M162.275 28.1104L193.799 40.1344V44.0554L170.778 33.3527L170.875 33.2947L162.275 28.1104Z" fill="#75541E"/>
<path fill-rule="evenodd" clip-rule="evenodd" d="M162.275 28.1104L193.798 40.1346L192.165 39.1471L160.655 27.1375L162.275 28.1104Z" fill="#C5984C"/>
<path fill-rule="evenodd" clip-rule="evenodd" d="M165.612 31.2472L234.244 65.7803L232.904 64.27L166.492 30.7244L165.612 31.2472Z" fill="#C5984C"/>
<path fill-rule="evenodd" clip-rule="evenodd" d="M170.875 33.2947L169.255 34.2677L128.895 9.84188L130.347 8.927L170.875 33.2947Z" fill="#C5984C"/>
<path fill-rule="evenodd" clip-rule="evenodd" d="M182.645 38.8855L207.034 47.9907L207.048 51.2437L206.28 50.8225L182.645 38.8855Z" fill="#75541E"/>
<path fill-rule="evenodd" clip-rule="evenodd" d="M182.644 38.8857L207.034 47.9909L205.414 47.0034L180.578 37.8401L182.644 38.8857Z" fill="#C5984C"/>
<path fill-rule="evenodd" clip-rule="evenodd" d="M208.151 51.7664L221.051 56.3697V58.2576L208.151 51.7664Z" fill="#75541E"/>
<path fill-rule="evenodd" clip-rule="evenodd" d="M208.151 51.7665L221.051 56.37L219.431 55.3971L206.085 50.7209L208.151 51.7665Z" fill="#C5984C"/>
<path fill-rule="evenodd" clip-rule="evenodd" d="M129.021 6.05176L144.754 10.5535V14.489L135.526 12.0493L130.347 8.9271L129.021 6.05176Z" fill="#75541E"/>
<path fill-rule="evenodd" clip-rule="evenodd" d="M129.021 6.05177L144.754 10.5535L143.121 9.58055L128.686 5.32568L129.021 6.05177Z" fill="#C5984C"/>
<path fill-rule="evenodd" clip-rule="evenodd" d="M130.319 8.86898L151.134 15.4184V14.9682L130.067 8.34619L130.319 8.86898Z" fill="#C5984C"/>
<path fill-rule="evenodd" clip-rule="evenodd" d="M204.507 84.1357L202.888 85.1087V88.4052L204.507 87.4322V84.1357Z" fill="#825E22"/>
<path fill-rule="evenodd" clip-rule="evenodd" d="M169.256 34.2676L202.887 85.1085V88.405L169.284 37.6802L169.256 34.2676Z" fill="#825E22"/>
<path fill-rule="evenodd" clip-rule="evenodd" d="M169.257 34.2676L202.888 85.1086L204.508 84.1356L170.876 33.2947L169.257 34.2676Z" fill="#AF8643"/>
<path fill-rule="evenodd" clip-rule="evenodd" d="M130.263 8.85449L151.134 15.4184V18.4825L141.041 15.3312L130.263 8.85449Z" fill="#75541E"/>
<path fill-rule="evenodd" clip-rule="evenodd" d="M137.41 13.1531L151.134 17.4515V21.4305L137.41 13.1531Z" fill="#75541E"/>
<path fill-rule="evenodd" clip-rule="evenodd" d="M137.397 13.1529L151.135 17.4514V17.0012L135.792 12.1799L137.397 13.1529Z" fill="#C5984C"/>
</svg>
