<svg width="20" height="20" viewBox="0 0 20 20" fill="none" xmlns="http://www.w3.org/2000/svg">
<path d="M13.4075 13.4064L13.4336 13.3803C13.4973 13.3226 13.5705 13.2762 13.65 13.2432C13.7411 13.2055 13.8387 13.186 13.9372 13.186C14.0358 13.186 14.1334 13.2055 14.2244 13.2432C14.3155 13.2809 14.3982 13.3363 14.4679 13.406L14.4681 13.4062L19.2806 18.2187L19.2807 18.2188C19.4214 18.3595 19.5005 18.5503 19.5006 18.7493C19.5007 18.9482 19.4217 19.1391 19.2811 19.2798C19.1404 19.4206 18.9496 19.4997 18.7506 19.4998C18.5516 19.4998 18.3608 19.4209 18.22 19.2802L13.4077 14.4678L13.4075 14.4676C13.3377 14.398 13.2824 14.3153 13.2447 14.2242C13.2069 14.1332 13.1875 14.0356 13.1875 13.937C13.1875 13.8385 13.2069 13.7409 13.2447 13.6498C13.2824 13.5588 13.3377 13.476 13.4075 13.4064Z" stroke="white"/>
<path d="M8.125 15.5C9.0935 15.5 10.0525 15.3092 10.9473 14.9386C11.8421 14.568 12.6551 14.0247 13.3399 13.3399C14.0247 12.6551 14.568 11.8421 14.9386 10.9473C15.3092 10.0525 15.5 9.0935 15.5 8.125C15.5 7.1565 15.3092 6.19749 14.9386 5.30271C14.568 4.40793 14.0247 3.59492 13.3399 2.91009C12.6551 2.22526 11.8421 1.68202 10.9473 1.31139C10.0525 0.94076 9.0935 0.75 8.125 0.75C6.16903 0.75 4.29317 1.52701 2.91009 2.91009C1.52701 4.29317 0.75 6.16903 0.75 8.125C0.75 10.081 1.52701 11.9568 2.91009 13.3399C4.29317 14.723 6.16903 15.5 8.125 15.5ZM15.75 8.125C15.75 10.1473 14.9467 12.0867 13.5167 13.5167C12.0867 14.9467 10.1473 15.75 8.125 15.75C6.10272 15.75 4.16328 14.9467 2.73331 13.5167C1.30335 12.0867 0.5 10.1473 0.5 8.125C0.5 6.10272 1.30335 4.16328 2.73331 2.73331C4.16328 1.30335 6.10272 0.5 8.125 0.5C10.1473 0.5 12.0867 1.30335 13.5167 2.73331C14.9467 4.16328 15.75 6.10272 15.75 8.125Z" stroke="white"/>
</svg>
