<svg width="20" height="20" viewBox="0 0 20 20" fill="none" xmlns="http://www.w3.org/2000/svg">
<path d="M10.0003 1.66516C5.40533 1.66516 1.66699 5.40349 1.66699 9.9985C1.66699 14.5935 5.40533 18.3318 10.0003 18.3318C14.5953 18.3318 18.3337 14.5935 18.3337 9.9985C18.3337 5.40349 14.5953 1.66516 10.0003 1.66516ZM10.0003 16.6652C6.32449 16.6652 3.33366 13.6743 3.33366 9.9985C3.33366 6.32266 6.32449 3.33183 10.0003 3.33183C13.6762 3.33183 16.667 6.32266 16.667 9.9985C16.667 13.6743 13.6762 16.6652 10.0003 16.6652Z" fill="#AD3A23"/>
<path d="M10.8337 5.83484H9.16699V10.3465L11.9112 13.0907L13.0895 11.9123L10.8337 9.65651V5.83484Z" fill="#AD3A23"/>
</svg>
