<svg width="20" height="20" viewBox="0 0 20 20" fill="none" xmlns="http://www.w3.org/2000/svg">
<path d="M10.0001 1.66522C5.40508 1.66522 1.66675 5.40356 1.66675 9.99856C1.66675 14.5936 5.40508 18.3319 10.0001 18.3319C14.5951 18.3319 18.3334 14.5936 18.3334 9.99856C18.3334 5.40356 14.5951 1.66522 10.0001 1.66522ZM10.0001 16.6652C6.32425 16.6652 3.33341 13.6744 3.33341 9.99856C3.33341 6.32272 6.32425 3.33189 10.0001 3.33189C13.6759 3.33189 16.6667 6.32272 16.6667 9.99856C16.6667 13.6744 13.6759 16.6652 10.0001 16.6652Z" fill="white"/>
<path d="M10.8334 5.83478H9.16675V10.3464L11.9109 13.0906L13.0892 11.9123L10.8334 9.65644V5.83478Z" fill="white"/>
</svg>
