<svg width="60" height="60" viewBox="0 0 60 60" fill="none" xmlns="http://www.w3.org/2000/svg">
<path d="M29.9992 32.8573C23.512 32.8573 18.0004 34.7437 14.4004 37.7005V43.2001H45.6004V37.7005C42.0004 34.7437 36.4876 32.8573 29.9992 32.8573ZM58.6444 30.0349L29.9236 16.8L1.21484 30.0349L6.00044 32.2249V35.5933C4.80044 35.8417 4.79684 36.4705 4.79684 37.2181C4.79684 37.6597 4.94324 38.1768 5.22164 38.4865L3.58004 42.0001H9.43604L7.80884 38.4841C8.08244 38.1745 8.30684 37.7185 8.30684 37.2768C8.30684 36.5305 7.20044 35.8405 7.20044 35.5921V32.7877L13.2004 35.4829V35.2441C16.8004 32.1133 23.1256 30.126 29.998 30.126C36.8728 30.126 43.2004 32.1133 46.8004 35.2441V35.4829L58.6444 30.0349Z" fill="#DB4D30"/>
</svg>
