<svg width="66" height="140" viewBox="0 0 66 140" fill="none" xmlns="http://www.w3.org/2000/svg">
<path d="M37.1598 66.48V112.7L34.2598 114.39L33.3198 114.94L21.8498 121.62L15.9698 125.04L0.00976562 134.33V21.62L37.1498 0L37.1598 66.48Z" fill="#D7D3C2"/>
<path d="M0 91.7599L1.49 77.5699L3.21 80.0999L4.5 74.1199L6.72 77.5699L6.97 69.4899L5.16 59.7099L6.97 53.4699L5.83 46.7399L6.72 42.2899L5.65 37.42L6.97 32.9699L9.23 40.3199L10.17 39.2599L11.38 33.95L13.32 37.1299L14.97 34.8699L16.59 35.4099L18.29 32.33L20.83 38.8499L21.42 32.9699L22.22 31.45L22.59 36.1599L23.84 32.7199L25.43 31.9299L26.87 36.5899L26.27 41.7899L27.69 46.3099L26.55 51.1799L27.69 55.45V62.9599L28.94 66.17L31.31 61.4299H33.32H36.03L37.16 58.7V112.71L0 134.34V91.7599Z" fill="#5E9F24"/>
<g style="mix-blend-mode:multiply">
<path d="M28.6896 74.7C28.6896 74.7 25.5696 57.35 24.5596 55.46C23.9596 54.34 21.4996 53.31 19.3896 52.76L16.1896 37.54C20.1896 35.63 24.2596 33.66 24.2596 33.66C24.2596 33.66 24.7596 30.56 23.8396 29.32C22.9196 28.08 6.97957 35.32 6.97957 35.32C6.58523 35.6306 6.27194 36.032 6.06646 36.49C5.86097 36.948 5.7694 37.4489 5.79957 37.95C5.86957 39.7 6.61957 42.01 8.92957 40.95C9.83957 40.55 12.3796 39.34 15.1496 38.02L18.1496 52.43C17.5296 52.2712 16.8796 52.2712 16.2596 52.43C15.3496 52.9 12.7996 62.5 12.7996 62.5L16.3496 77.11C16.3496 77.11 15.2496 95.52 15.2496 96.9C15.2496 99.48 15.9696 125.03 15.9696 125.03L21.8496 121.6L33.3196 114.93V95.03L28.6896 74.7Z" fill="#919191"/>
</g>
<g style="mix-blend-mode:multiply">
<path d="M63.7997 127.14C61.2397 124.63 56.7197 123.14 52.0297 123C50.9999 122.489 49.9254 122.074 48.8197 121.76L33.2797 114.95L21.8097 121.62L15.9297 125.05L30.6197 132.83C33.1797 135.34 37.6997 136.83 42.3897 136.96C47.5432 139.325 53.3847 139.72 58.8097 138.07C65.5897 135.9 67.7997 131.03 63.7997 127.14Z" fill="#CCC0BC"/>
</g>
<path d="M29.7991 92.24C29.8591 92.24 30.7391 98.12 30.6791 98.24C30.3324 98.3338 29.9774 98.3941 29.6191 98.42L28.6191 91.75L29.7991 92.24Z" fill="#4A2727"/>
<path d="M51.7998 127.06L51.3398 127.29C51.209 127.568 51.1245 127.865 51.0898 128.17C51.1152 128.529 51.1619 128.886 51.2298 129.24C51.2298 129.49 53.6398 132.81 53.9198 133.36C54.4396 134.357 55.2529 135.17 56.2498 135.69C57.2498 136 58.4598 134.86 58.4598 134.86V133.57L54.9598 130.35L51.7998 127.06Z" fill="#2F2720"/>
<path d="M57.9192 130.07C57.9192 130.07 58.4092 133.14 58.4092 133.57C58.4092 134 57.9192 134.47 56.7892 134.57C55.9348 134.546 55.1165 134.22 54.4792 133.65L52.7992 130.5C52.7992 130.5 51.4392 128.29 51.2292 128.05C51.0192 127.81 51.5192 126.71 51.5192 126.71C51.5192 126.71 54.0492 126.14 54.2392 126.14C54.4292 126.14 57.9192 130.07 57.9192 130.07Z" fill="#D6A94F"/>
<path d="M58.5994 130.14C58.5161 130.794 58.3653 131.437 58.1494 132.06C58.1494 132.06 56.9794 132.63 56.2894 132.9C56.1487 132.963 56.001 133.01 55.8494 133.04C55.072 132.912 54.3062 132.721 53.5594 132.47C53.0192 131.662 52.5635 130.801 52.1994 129.9C52.0494 129.2 51.4694 126.54 51.4694 126.42C51.4694 126.3 50.0394 118.8 50.0394 118.8C50.0394 118.8 49.7994 112.7 49.5094 111.8C49.2194 110.9 47.7094 105.62 47.2594 104.68C47.0739 103.901 46.9932 103.1 47.0194 102.3C46.9394 99.0899 47.2294 93.7299 48.1994 92.7199C49.5294 91.3299 55.8494 91.3099 55.8494 91.3099C55.9657 91.4312 56.0574 91.5738 56.1194 91.7299C56.3994 92.3499 56.7794 93.7999 56.6794 96.9799C56.5094 101.85 56.7594 106.44 56.6794 107.14C56.6743 107.415 56.6944 107.689 56.7394 107.96C57.0294 110.5 58.2294 117.8 58.2294 118.68C58.2294 119.56 58.5194 126.83 58.5194 126.83C58.5194 126.83 58.5994 129.56 58.5994 130.14Z" fill="#355FA3"/>
<g style="mix-blend-mode:multiply">
<path d="M56.2895 132.9C56.1487 132.963 56.0011 133.01 55.8495 133.04C55.072 132.912 54.3062 132.721 53.5595 132.47C53.0193 131.662 52.5636 130.801 52.1995 129.9C52.0495 129.2 51.4695 126.54 51.4695 126.42C51.4695 126.3 50.0395 118.8 50.0395 118.8C50.0395 118.8 49.7995 112.7 49.5095 111.8C49.2195 110.9 47.7095 105.62 47.2595 104.68C47.0739 103.901 46.9932 103.1 47.0195 102.3L49.6395 99.3599C50.758 98.1528 51.719 96.8087 52.4995 95.3599C52.4395 95.5099 51.5995 99.7499 51.5595 99.9899C51.5195 100.23 49.4295 104.17 49.1795 104.58C48.9295 104.99 48.4495 105.68 48.4495 105.68L49.0595 108.42C49.0595 108.42 49.8195 110.72 50.0595 110.76C50.2995 110.8 50.9895 114.2 50.9895 114.2L52.4895 116.2L50.9895 115.42L50.4395 115.25C50.4395 115.25 51.2995 118.04 51.4395 118.86C51.5504 119.715 51.6039 120.577 51.5995 121.44L52.1195 123.28L53.0695 121.48C52.8533 122.53 52.7361 123.598 52.7195 124.67C52.8295 125.53 53.0695 126.96 53.0695 126.96L54.7995 123.67L53.3995 127.06C53.6842 127.654 53.8764 128.288 53.9695 128.94C53.8595 129.26 55.5695 126.33 55.5695 126.33L54.4995 128.9L54.7295 130.33C54.7295 130.33 56.2695 131.19 56.2595 131.33C56.2495 131.47 56.2795 132.31 56.2895 132.9Z" fill="#6C91C4"/>
</g>
<g style="mix-blend-mode:multiply">
<path d="M56.7396 107.99C56.1896 108.53 56.1396 113.18 56.0196 113.14C55.9082 112.04 55.8681 110.935 55.8996 109.83C55.8996 109.35 56.0696 105.05 56.1996 103.44C55.8496 104.71 54.6696 107.44 54.6696 107.44C54.6696 107.44 55.7296 103.92 55.8496 103.18C55.9696 102.44 56.2896 99.1799 56.2896 99.1799L54.5796 100.79C54.9124 100.479 55.1897 100.114 55.3996 99.7099C55.6096 99.2199 56.2896 97.4199 56.2896 97.4199L54.0996 99.2199C54.9387 98.3043 55.6732 97.2981 56.2896 96.2199C56.5196 95.4499 55.5296 91.9499 55.5296 91.9499C55.5296 91.9499 55.3696 91.8499 55.7296 91.6899C56.5032 93.3257 56.831 95.1368 56.6796 96.9399C56.5096 101.81 56.7596 106.4 56.6796 107.1C56.6699 107.398 56.6901 107.696 56.7396 107.99Z" fill="#6C91C4"/>
</g>
<path d="M36.0295 126.33L35.5195 126.88L35.7795 127.96C36.8032 128.726 37.8718 129.431 38.9795 130.07C39.9586 130.65 40.9857 131.145 42.0495 131.55C42.7406 131.473 43.3871 131.171 43.8895 130.69C43.9495 130.5 44.2595 130.48 44.1195 129.95C43.9795 129.42 39.8695 128.42 39.8695 128.42L36.0295 126.33Z" fill="#2F2720"/>
<path d="M44.2598 128.26C44.258 128.826 44.2112 129.391 44.1198 129.95C44.1198 129.95 42.9398 131 42.2598 131.03C41.5798 131.06 38.5798 129.4 38.2598 129.24C37.3742 128.731 36.5489 128.124 35.7998 127.43C35.6007 127.099 35.5066 126.715 35.5298 126.33C35.5647 125.808 35.6552 125.292 35.7998 124.79C36.0406 124.464 36.3995 124.245 36.7998 124.18C38.0832 124.261 39.3557 124.465 40.5998 124.79C40.7298 124.98 44.2598 128.26 44.2598 128.26Z" fill="#D6A94F"/>
<path d="M50.8592 100.08C49.9497 101.792 48.8674 103.408 47.6292 104.9C47.085 106.851 46.651 108.83 46.3292 110.83C46.3292 111.89 45.1792 121.72 45.1792 121.72L45.7092 126.51L45.4192 127.99C45.4192 127.99 44.8292 128.65 44.2292 129.2C44.0392 129.37 43.8392 129.54 43.6592 129.67C42.5028 130.27 41.1763 130.457 39.8992 130.2C39.5258 130.03 39.1869 129.793 38.8992 129.5C38.5737 129.177 38.2821 128.822 38.0292 128.44C37.9686 127.511 37.9686 126.579 38.0292 125.65C38.0292 125.04 37.7492 119.1 37.7492 118.65C37.7494 117.358 37.6255 116.068 37.3792 114.8C36.6879 110.805 36.2504 106.77 36.0692 102.72C35.9092 98.4199 36.2292 94.0799 36.2292 94.0799L37.3792 93.9199L45.5192 92.7699C45.5192 92.7699 51.3792 91.9999 51.9992 93.5899C52.6192 95.1799 51.6792 98.1999 50.8592 100.08Z" fill="#355FA3"/>
<g style="mix-blend-mode:multiply">
<path d="M38.9 123.58C39.0824 125.063 39.1859 126.555 39.21 128.05C39.0661 128.53 38.9656 129.022 38.91 129.52C38.5844 129.197 38.2929 128.842 38.04 128.46C37.9794 127.531 37.9794 126.599 38.04 125.67C38.04 125.06 37.76 119.12 37.76 118.67C37.7602 117.378 37.6363 116.088 37.39 114.82C36.6986 110.825 36.2611 106.79 36.08 102.74C35.92 98.4399 36.24 94.0999 36.24 94.0999L37.39 93.9399C37.39 93.9399 36.73 98.0899 36.76 98.4199C36.79 98.7499 37.02 106.16 37.08 106.62C37.14 107.08 37.87 113.5 37.87 113.5L38.33 115.22C38.33 115.22 38.78 120.39 38.78 120.59C38.7629 121.588 38.803 122.586 38.9 123.58Z" fill="#6C91C4"/>
</g>
<g style="mix-blend-mode:multiply">
<path d="M46.3197 110.9C46.3197 111.96 45.1697 121.79 45.1697 121.79L45.6997 126.58L45.4097 128.06C45.4097 128.06 44.8197 128.72 44.2197 129.27C44.3997 128.69 44.5497 128.18 44.5497 128.18L44.7997 126.62L44.2697 122.53L45.3297 115.77C45.3297 115.77 46.3297 108.49 46.4797 108.08C46.7464 106.983 47.1286 105.917 47.6197 104.9C47.073 106.874 46.6389 108.877 46.3197 110.9Z" fill="#6C91C4"/>
</g>
<path d="M56.5894 92.0299C56.5035 92.2659 56.3784 92.4856 56.2194 92.6799C54.4859 93.8814 52.6525 94.932 50.7394 95.8199C47.5729 97.1629 44.1783 97.886 40.7394 97.9499C39.3494 97.8299 37.8794 96.2299 37.5494 96.3099C37.5078 96.3271 37.461 96.3271 37.4194 96.3099C36.9057 95.8867 36.4634 95.3836 36.1094 94.8199V94.7599C36.1094 94.7599 36.1094 93.7099 36.1794 92.6199V92.0599V91.8999C36.1794 91.3299 36.1794 90.8099 36.2494 90.5399C36.3194 90.2699 36.3694 89.0199 36.4994 87.4599L36.6094 85.8899C36.6894 84.7499 36.7794 83.5399 36.8694 82.4699C36.9794 80.9999 37.0694 79.7999 37.1094 79.3599C37.2394 78.0099 37.3994 67.5599 37.6794 66.8199C37.9594 66.0799 39.2094 65.1999 39.6794 64.8199C40.4455 63.8702 41.1534 62.8751 41.7994 61.8399C42.5694 60.7599 47.9694 58.6399 47.9694 58.6399C47.9694 58.6399 49.6294 58.6399 50.0694 58.6399C50.1618 58.6527 50.2524 58.6762 50.3394 58.7099C50.6893 58.8241 51.0249 58.9785 51.3394 59.1699C53.5794 61.0199 53.6294 63.1699 53.7394 65.4499C53.8494 67.7299 54.1594 74.7799 53.6594 76.8199C53.2794 78.4299 53.7994 80.7599 54.4394 82.9699C54.6194 83.5799 54.7994 84.1899 54.9794 84.7699C55.5822 87.0701 56.0266 89.4089 56.3094 91.7699C56.3094 91.7699 56.6494 91.8999 56.5894 92.0299Z" fill="#F9551A"/>
<g style="mix-blend-mode:multiply">
<path d="M54.4098 82.95L53.9098 83.07L53.3598 81.07C53.3598 81.07 53.2098 81.4 52.9698 81.89C52.8138 81.3908 52.5699 80.9235 52.2498 80.5099V80.25L52.1498 80.44C52.075 80.3419 51.9801 80.2608 51.8714 80.2021C51.7628 80.1435 51.643 80.1087 51.5198 80.1L51.9198 79.15C52.7398 78.15 53.3098 75.1 53.3098 75.1C53.3098 75.1 53.1398 71.73 53.1398 70.84C53.1398 69.95 53.0198 65.31 52.9798 62.95C52.9398 60.59 50.5798 58.89 50.3398 58.71C50.664 58.8288 50.9755 58.9795 51.2698 59.16C53.5098 61.02 53.5498 63.16 53.6698 65.44C53.7898 67.72 54.0898 74.77 53.5998 76.82C53.2598 78.42 53.7998 80.75 54.4098 82.95Z" fill="#F09F69"/>
</g>
<path d="M39.3691 64.95C39.3691 64.95 41.0591 64.02 43.1491 66.01C45.2391 68 50.9091 82.36 50.9091 82.36L52.5191 81.01C52.5191 81.01 45.9391 66.39 44.3991 64.73C43.8768 64.2497 43.2432 63.9069 42.5554 63.7324C41.8677 63.5578 41.1473 63.557 40.4591 63.73L39.3691 64.95Z" fill="#355FA3"/>
<path d="M49.0291 58.71C49.0291 58.71 49.6291 63.7999 49.2091 66.0099C48.7891 68.2199 44.8691 82.67 44.8691 82.67L46.9191 82.36C46.9191 82.36 50.4591 67.7399 50.9191 66.0099C51.3791 64.2799 51.0391 59.45 50.3791 58.71H49.0291Z" fill="#355FA3"/>
<path d="M56.5994 92.0199C56.5044 92.2547 56.3801 92.4764 56.2294 92.6799C54.4927 93.8819 52.6559 94.9324 50.7394 95.8199C47.573 97.1632 44.1783 97.8862 40.7394 97.9499C39.3394 97.8299 37.8694 96.2299 37.5394 96.3199C37.5009 96.3355 37.4579 96.3355 37.4194 96.3199C37.3597 96.2881 37.3028 96.2513 37.2494 96.2099C37.0131 95.9919 36.7957 95.7544 36.5994 95.4999L36.4394 95.2899L36.1094 94.8299V94.3899C36.1094 94.1699 36.1094 93.8699 36.1094 93.5399V92.6699C36.1094 92.4299 36.1094 92.1799 36.1094 91.9399L36.4294 87.5099L36.5094 86.2899V85.9299C36.5094 85.9299 38.3994 85.9299 40.2194 85.8699C41.8594 85.8099 43.4394 85.7099 43.4994 85.4999C43.6394 85.0599 44.7694 81.8699 46.2694 81.4999C47.7694 81.1299 50.3894 80.1899 51.5094 80.1899C51.6325 80.1987 51.7523 80.2335 51.861 80.2921C51.9696 80.3508 52.0645 80.4318 52.1394 80.5299C52.1449 80.5529 52.1449 80.5769 52.1394 80.5999C52.4595 81.0135 52.7033 81.4808 52.8594 81.9799C53.0156 82.4109 53.1425 82.8519 53.2394 83.2999L53.7994 83.1499L54.2994 83.0299C54.4794 83.6499 54.6594 84.2599 54.8394 84.8399C54.8394 84.9999 54.9494 85.1799 54.9894 85.3599C55.0794 85.7199 55.1794 86.0999 55.2594 86.4699C55.8194 88.9899 56.1694 91.8799 56.1694 91.8799C56.1694 91.8799 56.6494 91.8999 56.5994 92.0199Z" fill="#355FA3"/>
<path d="M48.7997 58.8999C48.3337 59.4055 47.7641 59.8046 47.1297 60.0699C46.1297 60.4799 42.1997 61.4499 42.1997 61.4499L41.3597 62.4499C41.3597 62.4499 41.3597 62.0999 41.4397 61.6699C41.5097 61.0699 41.5897 60.3199 41.5897 60.2199C41.5144 59.4004 41.3604 58.59 41.1297 57.7999C40.9297 57.4299 39.9697 57.0099 39.9697 57.0099C39.184 56.7833 38.4126 56.5095 37.6597 56.1899C37.5236 56.1113 37.4133 55.9947 37.3422 55.8544C37.2712 55.7141 37.2425 55.5562 37.2597 55.3999C37.2597 55.0999 37.3297 54.7999 37.3297 54.6999C37.3297 54.5999 37.4397 53.5499 37.4397 53.1899C37.5464 52.7053 37.7109 52.2353 37.9297 51.7899C37.9297 51.7899 37.2497 51.2399 37.2597 50.9699C37.2697 50.6999 37.6997 50.3099 37.6997 50.3099L38.8097 49.6299C38.8097 49.6299 38.9297 48.5399 38.9697 48.4199C39.6325 47.117 40.5587 45.966 41.6897 45.0399C43.0397 44.2099 46.6897 43.8599 48.3197 46.1299C49.9497 48.3999 48.2597 56.2599 48.2597 56.2599C48.2597 56.2599 48.0997 57.9099 48.3997 58.2599C48.6997 58.6099 48.9597 58.7699 48.7997 58.8999Z" fill="#FCC7AA"/>
<path d="M43.5293 52.28C43.5293 52.28 42.7293 51.81 42.2393 52.1C42.095 52.183 41.9685 52.2937 41.8673 52.4259C41.766 52.5581 41.6919 52.709 41.6493 52.87L41.3993 53.7299L40.6393 52.87C40.817 52.2151 40.817 51.5248 40.6393 50.87C40.4235 50.2208 40.4235 49.5192 40.6393 48.87C40.7693 48.65 41.3793 46.6 41.3793 46.6C41.1908 46.2398 40.9591 45.904 40.6893 45.6C40.4657 45.4256 40.2582 45.2315 40.0693 45.02L41.7993 43.8C43.2016 43.4151 44.6587 43.2697 46.1093 43.37C47.7435 43.5773 49.2342 44.4086 50.2693 45.69C50.8271 46.2373 51.2489 46.9078 51.5007 47.6476C51.7525 48.3874 51.8274 49.176 51.7193 49.9499C51.6393 51.2999 50.3693 52.95 49.8593 53.84C49.3493 54.73 48.4893 56.46 48.4193 56.6C48.3493 56.74 47.9493 56.8199 47.7893 56.9499C47.4831 57.0636 47.1554 57.1073 46.8301 57.0779C46.5048 57.0485 46.1902 56.9467 45.9093 56.78C45.6089 56.5881 45.3539 56.3331 45.1622 56.0326C44.9705 55.732 44.8466 55.3933 44.7993 55.04C44.6993 54.53 44.5493 52.9 43.5293 52.28Z" fill="#4A2727"/>
<path d="M43.5299 53.0599C43.6227 53.3236 43.6564 53.6045 43.6288 53.8827C43.6011 54.1609 43.5127 54.4296 43.3699 54.6699C42.8999 55.6699 42.1799 55.9399 42.0799 55.8199C41.9275 55.3802 41.8696 54.9134 41.9099 54.4499C41.9908 53.8156 42.1144 53.1875 42.2799 52.5699C42.4299 52.2799 43.1399 52.4199 43.5299 53.0599Z" fill="#FFD6BF"/>
<path d="M38.4498 50.2L37.5498 50.74C37.6932 51.069 37.8673 51.3837 38.0698 51.68C38.2498 51.86 38.4798 51.84 38.4498 51.77C38.4198 51.7 38.3898 50.5099 38.3898 50.5099L38.4498 50.2Z" fill="#FFD6BF"/>
<g style="mix-blend-mode:multiply">
<path d="M42.0595 59.69L41.7995 61.84L41.4095 61.72C41.4795 61.12 41.5595 60.37 41.5595 60.27C41.4842 59.4504 41.3301 58.64 41.0995 57.85C40.8995 57.48 39.9395 57.06 39.9395 57.06C39.1537 56.8333 38.3823 56.5595 37.6295 56.24C37.4933 56.1613 37.383 56.0447 37.312 55.9044C37.2409 55.7642 37.2123 55.6062 37.2295 55.45C37.2295 55.45 37.3795 55.8 38.5895 56.17L41.0195 56.91H41.6595V57.7299L42.0595 59.69Z" fill="#FAD3BE"/>
</g>
<g style="mix-blend-mode:multiply">
<path d="M43.4896 78.63C43.1879 79.5547 42.9409 80.4963 42.7496 81.45L43.4896 83.17L42.0596 83.46C42.0596 83.46 41.3596 83.75 41.1996 84.03L40.2696 85.79C38.4496 85.85 36.5596 85.85 36.5596 85.85C36.6496 84.71 36.7296 83.5 36.8196 82.43L37.8196 80.02L43.4696 71.34C43.4696 71.34 43.6496 78.42 43.4896 78.63Z" fill="#F09F69"/>
</g>
<g style="mix-blend-mode:multiply">
<path d="M40.27 85.7899C39.85 86.6099 39.42 87.4499 39.27 87.6799C39.07 88.1199 37.51 90.4199 37.43 90.5899C37.35 90.7599 36.86 93.6599 36.86 93.6599C36.86 93.6599 37.39 95.9099 37.43 96.1099C37.4162 96.1718 37.3889 96.2298 37.35 96.2799C37.2882 96.2478 37.231 96.2074 37.18 96.1599C36.9388 95.9469 36.7209 95.7089 36.53 95.4499L36.37 95.2399L36.04 94.7799V94.3399C36.04 94.1199 36.04 93.8199 36.04 93.4899V92.6199C36.04 92.3799 36.04 92.1299 36.04 91.8899C36.04 91.3099 36.04 90.7999 36.11 90.5299C36.18 90.2599 36.28 88.3299 36.44 86.2399V85.8799C36.44 85.8799 38.45 85.8999 40.27 85.7899Z" fill="#6C91C4"/>
</g>
<path d="M41.0191 62.9699C41.0191 62.9699 40.8291 60.9199 40.8491 60.8399C41.3586 60.5926 41.9064 60.4337 42.4691 60.3699C42.7491 60.3699 45.9491 60.2499 46.4691 60.2199C47.1515 59.9751 47.7974 59.6387 48.3891 59.2199L48.7891 58.6599L48.3691 58.1699V58.0099C48.3691 58.0099 49.4591 58.1499 49.5391 58.2999C49.6237 58.5175 49.6906 58.7415 49.7391 58.9699C49.6457 59.3403 49.4718 59.6855 49.2299 59.981C48.9879 60.2766 48.6838 60.5152 48.3391 60.6799C46.6091 61.6799 43.4191 61.9799 43.2391 62.1699C42.5182 62.4867 41.7765 62.754 41.0191 62.9699Z" fill="#FF882A"/>
<path d="M41.8693 78.4599C41.6893 80.1999 39.7893 84.7299 39.4793 85.3899C38.9029 86.3846 38.2333 87.3222 37.4793 88.1899C36.7893 89.0199 33.4793 90.8599 32.2293 91.4099C30.9793 91.9599 31.1093 92.2399 30.1693 92.5299C29.563 92.7418 28.9137 92.8001 28.2793 92.6999C27.9429 92.5301 27.6384 92.3035 27.3793 92.0299C27.2714 91.8131 27.1876 91.5851 27.1293 91.3499C27.0703 91.1422 26.9899 90.9411 26.8893 90.7499C26.8127 90.6092 26.7587 90.4574 26.7293 90.2999C26.7293 90.0699 26.6393 89.4399 26.5893 89.2399C26.548 89.0069 26.5982 88.767 26.7293 88.5699C27.0309 88.297 27.3671 88.065 27.7293 87.8799C27.8393 87.8799 28.8093 87.2599 28.8093 87.2599C29.0894 87.1528 29.3768 87.066 29.6693 86.9999C29.8593 86.9999 30.0493 87.2199 30.1993 87.3199C30.4383 87.5748 30.6558 87.849 30.8493 88.1399C30.8493 88.1399 30.9293 88.1399 31.0493 88.0099C31.1693 87.8799 32.0493 86.9499 32.3793 86.4999C32.7093 86.0499 33.9793 83.6299 34.1193 83.3699C34.2593 83.1099 35.3693 80.5999 35.5293 80.0699C35.6893 79.5399 36.2893 76.0699 36.2893 76.0699C36.2893 76.0699 36.9493 76.1399 37.8093 76.3099C39.3293 76.5899 41.4993 77.1599 41.8893 78.0899C41.9175 78.2127 41.9106 78.3409 41.8693 78.4599Z" fill="#FCC7AA"/>
<g style="mix-blend-mode:multiply">
<path d="M41.1992 78.61C41.1992 78.61 40.0692 79.02 39.8892 79.06C39.7092 79.1 36.7092 78.2 36.7092 78.2L35.7092 80.57C35.7092 80.57 34.0192 84.38 34.0192 84.41C34.0192 84.44 32.6992 86.9 32.5992 87.12C32.322 87.4731 32.0213 87.8072 31.6992 88.12C31.4481 88.6194 31.2276 89.1337 31.0392 89.66C30.9792 89.97 30.8192 90.4199 30.8192 90.4799C30.8192 90.54 30.5492 91.38 30.5492 91.38L30.1992 90.75V89.29L30.6192 88.29L30.7592 88.15C30.7592 88.15 30.8392 88.15 30.9592 88.02C31.0792 87.89 31.9592 86.9599 32.2892 86.5099C32.6192 86.0599 33.8892 83.64 34.0292 83.38C34.1692 83.12 35.2792 80.61 35.4392 80.08C35.5992 79.55 36.1992 76.08 36.1992 76.08C36.1992 76.08 36.8592 76.15 37.7192 76.32C39.3792 77.32 41.1992 78.61 41.1992 78.61Z" fill="#FAD3BE"/>
</g>
<g style="mix-blend-mode:multiply">
<path d="M41.8696 78.46C41.6896 80.2 39.7896 84.73 39.4796 85.39C38.9033 86.3846 38.2336 87.3222 37.4796 88.19C36.7896 89.02 33.4796 90.86 32.2296 91.41C30.9796 91.96 31.1097 92.24 30.1697 92.53C29.5633 92.7418 28.914 92.8002 28.2797 92.7C27.9433 92.5301 27.6388 92.3035 27.3797 92.03C27.2718 91.8131 27.1879 91.5851 27.1297 91.35C27.0707 91.1422 26.9903 90.9411 26.8896 90.75C26.9596 90.88 27.5797 91.96 27.6297 92.02C27.6797 92.08 28.6896 92.46 28.6896 92.46L29.9496 92.3L30.3396 91.6C30.4829 91.7098 30.6513 91.782 30.8296 91.81C31.0296 91.81 32.8296 90.62 32.8296 90.62L35.0396 89.05L35.9396 88.45C35.9396 88.45 34.9396 88.05 35.0396 87.86C35.4165 87.6031 35.8186 87.3853 36.2397 87.21L37.6596 86.69L38.8596 85.63C39.557 84.3508 40.1393 83.0122 40.5997 81.63C40.9097 80.52 41.8196 78.56 41.7996 78.1C41.856 78.2111 41.8803 78.3358 41.8696 78.46Z" fill="#FAD3BE"/>
</g>
<path d="M39.5796 70.5199C39.2918 71.4607 38.7565 72.3069 38.0296 72.9699C37.8863 73.1226 37.71 73.2407 37.5142 73.3152C37.3184 73.3897 37.1082 73.4187 36.8996 73.3999C36.0096 73.1899 28.2896 71.3999 27.8996 71.2199C27.4629 71.1441 27.0163 71.1441 26.5796 71.2199C26.3196 71.2199 25.4396 71.1099 25.1696 71.0699L23.2196 70.7599L22.9196 69.8899L22.8596 69.7199L22.7196 69.5899C22.5896 69.4699 22.6496 68.8999 22.6496 68.8999L22.2896 68.2899L22.3896 67.3699L22.0996 66.5999C22.141 66.3718 22.2116 66.15 22.3096 65.9399C22.633 65.7829 22.9672 65.6492 23.3096 65.5399L24.8496 65.7899C25.3083 65.8976 25.7518 66.0622 26.1696 66.2799C26.2496 66.3699 27.5796 67.7599 27.8696 67.7599C29.5819 68.0914 31.3112 68.3285 33.0496 68.4699C34.7249 68.3876 36.3943 68.2107 38.0496 67.9399C38.0496 67.9399 40.0096 69.0499 39.5796 70.5199Z" fill="#FCC7AA"/>
<path d="M24.5596 65.9999C24.3575 66.1023 24.1359 66.1602 23.9096 66.1699C23.7048 66.1646 23.5049 66.106 23.3296 65.9999L17.0996 36.1899H18.2896L24.5596 65.9999Z" fill="#A5A4A9"/>
<g style="mix-blend-mode:multiply">
<path d="M38.0299 72.9699C37.8865 73.1227 37.7103 73.2408 37.5145 73.3153C37.3187 73.3898 37.1085 73.4187 36.8999 73.3999C36.0099 73.1899 28.2899 71.3999 27.8999 71.2199C27.4631 71.1441 27.0166 71.1441 26.5799 71.2199C26.3199 71.2199 25.4399 71.1099 25.1699 71.0699L23.2199 70.7599L22.9199 69.8899L23.3899 68.1699L22.6299 67.2899L23.0399 67.0799C23.628 66.9685 24.2318 66.9685 24.8199 67.0799C25.3077 67.2454 25.7357 67.5516 26.0499 67.9599C26.1299 68.1899 25.6099 68.5999 25.6099 68.5999C25.7158 68.8663 25.8429 69.1238 25.9899 69.3699C26.1143 69.4532 26.2487 69.5204 26.3899 69.5699L25.6099 69.9399C25.6099 69.9399 25.6099 70.4599 25.6099 70.5099C25.6099 70.5599 25.7199 70.8299 25.7899 70.8499C25.8599 70.8699 26.7899 70.8499 26.7899 70.8499L27.1799 70.4899L28.1799 71.0699L28.7799 70.5999C29.0438 70.8943 29.3506 71.1471 29.6899 71.3499C32.3271 72.0108 34.9975 72.5315 37.6899 72.9099C37.8063 72.9036 37.9227 72.9241 38.0299 72.9699Z" fill="#FAD3BE"/>
</g>
<path d="M24.7993 67.53L28.8993 87.64L28.1393 88.02C28.0817 88.0587 28.0138 88.0793 27.9443 88.0793C27.8749 88.0793 27.807 88.0587 27.7493 88.02L23.5693 67.08L24.7993 67.53Z" fill="#4A2727"/>
<path d="M25.6193 69.2899V69.5199C25.6193 69.5799 25.4993 69.7399 25.4393 69.8499C25.4162 69.9007 25.3859 69.9478 25.3493 69.9899C25.3503 70.0066 25.3503 70.0233 25.3493 70.0399C25.3493 70.1399 25.3493 70.3699 25.3493 70.4899C25.3485 70.5117 25.3427 70.5329 25.3323 70.552C25.3219 70.5711 25.3072 70.5875 25.2893 70.5999C25.1749 70.683 25.046 70.744 24.9093 70.7799L23.7993 70.8999C23.6009 70.8823 23.4039 70.8523 23.2093 70.8099C23.0393 70.7599 22.8193 69.8099 22.8193 69.8099C22.8193 69.8099 22.5593 69.5399 22.5593 69.3499C22.5648 69.2022 22.5816 69.0551 22.6093 68.9099L22.2793 68.3399L22.3793 67.4199L23.0593 67.6199C23.2588 67.8 23.4848 67.9484 23.7293 68.0599C24.1228 68.122 24.522 68.1387 24.9193 68.1099L24.9893 68.1799C25.1093 68.2799 25.3093 68.4899 25.2993 68.5999C25.3081 68.6529 25.3081 68.7069 25.2993 68.7599C25.2675 68.8164 25.2306 68.87 25.1893 68.9199C25.2756 68.9573 25.3591 69.0008 25.4393 69.0499C25.4893 69.0799 25.6193 69.1799 25.6193 69.2899Z" fill="#FFD6BF"/>
<g style="mix-blend-mode:multiply">
<path d="M25.3393 69.9899C25.3403 70.0066 25.3403 70.0233 25.3393 70.0399C25.0101 70.1163 24.6759 70.1697 24.3393 70.1999C23.9416 70.1342 23.5477 70.0474 23.1593 69.9399L23.0393 69.8399C23.0393 69.8399 23.3493 70.4199 23.3793 70.4599C23.5475 70.5536 23.7211 70.6371 23.8993 70.7099C24.3848 70.7111 24.8696 70.6744 25.3493 70.5999C25.2349 70.683 25.106 70.744 24.9693 70.7799L23.7993 70.8999C23.6009 70.8823 23.4039 70.8523 23.2093 70.8099C23.0393 70.7599 22.8193 69.8099 22.8193 69.8099C22.8193 69.8099 22.5593 69.5399 22.5593 69.3499C22.5648 69.2022 22.5816 69.0551 22.6093 68.9099L22.2793 68.3399L22.3793 67.4199L23.0593 67.6199C23.2588 67.8 23.4848 67.9484 23.7293 68.0599C24.1228 68.122 24.522 68.1387 24.9193 68.1099L24.9893 68.1799L23.9893 68.2599C23.6693 68.1949 23.355 68.1046 23.0493 67.9899L22.5393 67.7499C22.5393 67.7999 22.8793 68.6299 22.9293 68.7499C23.1903 68.8846 23.4701 68.979 23.7593 69.0299C24.2064 69.0078 24.651 68.9509 25.0893 68.8599L25.2193 68.7899C25.1875 68.8464 25.1507 68.9 25.1093 68.9499C25.1956 68.9873 25.2791 69.0308 25.3593 69.0799C25.0321 69.1914 24.6981 69.2816 24.3593 69.3499L23.6493 69.2699L22.9793 69.1199C23.0022 69.3108 23.0563 69.4966 23.1393 69.6699C23.5036 69.8785 23.9105 70.0017 24.3293 70.0299C24.7013 70.0242 25.0723 69.9908 25.4393 69.9299C25.4081 69.9532 25.3746 69.9733 25.3393 69.9899Z" fill="#FAD3BE"/>
</g>
<path d="M26.4897 69.48C26.1159 69.252 25.7787 68.9688 25.4897 68.64C25.2316 68.2777 25.0009 67.8967 24.7997 67.5L23.8797 67.16H22.6097C22.3897 67.16 21.9397 66.43 22.1197 66.33C22.561 66.2031 23.0128 66.1161 23.4697 66.07C23.7762 66.0043 24.0931 66.0043 24.3997 66.07L25.8897 66.62C25.8897 66.62 26.8197 67.35 26.8897 67.46C27.2065 67.829 27.4599 68.248 27.6397 68.7C27.5865 68.9537 27.4368 69.1768 27.2223 69.3223C27.0077 69.4679 26.7451 69.5244 26.4897 69.48Z" fill="#FFD6BF"/>
<path d="M38.2295 65.9499C37.5805 66.5214 37.1465 67.2977 36.9995 68.1499C36.7295 69.5999 35.9995 72.1499 35.9995 72.7899C35.9995 73.4299 35.7295 76.7899 35.7095 76.9099C35.6895 77.0299 36.2395 78.0699 38.9195 78.6099C41.5995 79.1499 42.2995 78.7099 42.2995 78.7099C42.8304 76.906 43.2216 75.0639 43.4695 73.1999C43.4695 71.8499 43.7995 68.9199 42.8995 67.6699C41.9995 66.4199 40.6595 64.9899 38.2295 65.9499Z" fill="#FF882A"/>
<path d="M24.9103 28.8999C24.9088 29.0815 24.8677 29.2605 24.79 29.4245C24.7123 29.5886 24.5998 29.7338 24.4603 29.8499C24.1303 30.0999 9.57031 38.3599 9.57031 38.3599L7.57031 34.0699C7.57031 34.0699 21.9603 25.8799 22.2103 25.7099C22.4149 25.594 22.6511 25.546 22.8848 25.573C23.1184 25.6 23.3375 25.7004 23.5103 25.8599C23.9649 26.222 24.3284 26.6857 24.5715 27.2136C24.8146 27.7415 24.9307 28.3191 24.9103 28.8999Z" fill="#388BC9"/>
<path d="M10.16 37.29C10.07 38.36 9.27999 38.72 8.39999 38.1C7.94895 37.7424 7.58626 37.2859 7.34002 36.7656C7.09377 36.2454 6.97058 35.6755 6.97999 35.1C7.07999 34.04 7.86999 33.68 8.74999 34.29C9.20153 34.6465 9.56397 35.1031 9.80868 35.6237C10.0534 36.1444 10.1737 36.7149 10.16 37.29Z" fill="#63474B"/>
<path d="M17.07 35.4999C16.95 35.6199 17.23 36.4999 17.64 36.5899C18.05 36.6799 18.29 36.1899 18.29 36.1899C18.29 36.1899 17.8 34.7799 17.07 35.4999Z" fill="#A5A4A9"/>
<path d="M7.27973 40.92L6.21973 37.2499L8.34973 35.8099L8.82973 36.52L7.21973 37.61L7.82973 39.7199L17.1497 35.45L17.4997 36.2399L7.27973 40.92Z" fill="#A5A4A9"/>
<path d="M8.57031 33.46C8.93805 33.5169 9.28263 33.6753 9.56528 33.9173C9.84794 34.1594 10.0575 34.4754 10.1703 34.83C10.4122 35.5501 10.5502 36.301 10.5803 37.06L11.0303 37.5L11.6603 36.19L12.4703 36.6L13.3303 36.17L24.2603 29.95C24.2603 29.95 24.0003 28.46 23.7903 27.81C23.5935 27.2873 23.3664 26.7764 23.1103 26.28L21.8803 25.9L8.57031 33.46Z" fill="#8DC42C"/>
</svg>
