<svg width="116" height="55" viewBox="0 0 116 55" fill="none" xmlns="http://www.w3.org/2000/svg">
<path d="M4.3609 54.1086H0.327068V30.604H4.3609V54.1086ZM0 24.3695C0 23.7178 0.196241 23.1675 0.588722 22.7185C0.995739 22.2696 1.59173 22.0451 2.37669 22.0451C3.16165 22.0451 3.75764 22.2696 4.16466 22.7185C4.57168 23.1675 4.77519 23.7178 4.77519 24.3695C4.77519 25.0212 4.57168 25.5643 4.16466 25.9987C3.75764 26.4332 3.16165 26.6504 2.37669 26.6504C1.59173 26.6504 0.995739 26.4332 0.588722 25.9987C0.196241 25.5643 0 25.0212 0 24.3695Z" fill="white"/>
<path d="M14.6526 30.604L14.7835 33.5584C16.586 31.2992 18.9409 30.1696 21.8481 30.1696C26.8341 30.1696 29.3489 32.9719 29.3925 38.5765V54.1086H25.3586V38.5547C25.3441 36.8603 24.9516 35.6076 24.1812 34.7966C23.4253 33.9856 22.2406 33.5801 20.6271 33.5801C19.3188 33.5801 18.1704 33.9277 17.182 34.6228C16.1935 35.318 15.4231 36.2304 14.8707 37.36V54.1086H10.8368V30.604H14.6526Z" fill="white"/>
<path d="M42.0609 43.2252L39.5316 45.8537V54.1086H35.4977V20.7417H39.5316V40.9226L41.6902 38.3375L49.0383 30.604H53.9444L44.7647 40.4229L55.0128 54.1086H50.2812L42.0609 43.2252Z" fill="white"/>
<path d="M67.4632 54.543C64.2652 54.543 61.6632 53.5003 59.6571 51.4149C57.6511 49.315 56.6481 46.5127 56.6481 43.008V42.2694C56.6481 39.9378 57.0915 37.8596 57.9782 36.0348C58.8794 34.1956 60.1296 32.7619 61.7286 31.7336C63.3421 30.6909 65.0865 30.1696 66.9617 30.1696C70.0288 30.1696 72.4128 31.1761 74.1135 33.1891C75.8143 35.2021 76.6647 38.0841 76.6647 41.8349V43.5076H60.682C60.7401 45.8248 61.416 47.7002 62.7098 49.1339C64.018 50.5532 65.6752 51.2628 67.6812 51.2628C69.1058 51.2628 70.3123 50.9732 71.3008 50.3939C72.2892 49.8146 73.1541 49.047 73.8955 48.0912L76.3594 50.0029C74.3825 53.0296 71.417 54.543 67.4632 54.543ZM66.9617 33.4715C65.3336 33.4715 63.9672 34.0653 62.8624 35.2528C61.7576 36.4259 61.0744 38.0768 60.8128 40.2057H72.6308V39.9016C72.5145 37.8596 71.9622 36.281 70.9737 35.1659C69.9852 34.0363 68.6479 33.4715 66.9617 33.4715Z" fill="white"/>
<path d="M92.7564 34.2101C92.1459 34.1087 91.4845 34.058 90.7722 34.058C88.1266 34.058 86.3313 35.1804 85.3865 37.4251V54.1086H81.3526V30.604H85.2774L85.3429 33.3194C86.6657 31.2195 88.5409 30.1696 90.9684 30.1696C91.7534 30.1696 92.3494 30.2709 92.7564 30.4737V34.2101Z" fill="white"/>
<path d="M107.889 34.2101C107.278 34.1087 106.617 34.058 105.905 34.058C103.259 34.058 101.464 35.1804 100.519 37.4251V54.1086H96.485V30.604H100.41L100.475 33.3194C101.798 31.2195 103.673 30.1696 106.101 30.1696C106.886 30.1696 107.482 30.2709 107.889 30.4737V34.2101Z" fill="white"/>
<path d="M116 54.1086H111.966V30.604H116V54.1086Z" fill="white"/>
<path d="M68.3711 15.809L116 0V26.1192H68.3711V15.809Z" fill="#B72A27"/>
</svg>
