<svg width="270" height="213" viewBox="0 0 270 213" fill="none" xmlns="http://www.w3.org/2000/svg">
<path fill-rule="evenodd" clip-rule="evenodd" d="M65.7223 67.0598L65.7221 90.0339L64.2204 89.2416L64.2204 66.2675L65.7223 67.0598Z" fill="#AF8643"/>
<path fill-rule="evenodd" clip-rule="evenodd" d="M65.7228 67.0597L65.7227 90.0338L67.2245 89.2416L67.2245 66.2675L65.7228 67.0597Z" fill="#835F25"/>
<path fill-rule="evenodd" clip-rule="evenodd" d="M64.2204 66.2674L65.7222 67.0596L67.224 66.2674L65.7222 65.4752L64.2204 66.2674Z" fill="#835F25"/>
<path fill-rule="evenodd" clip-rule="evenodd" d="M74.733 60.7219L74.7328 83.696L73.2311 82.9037L73.2311 59.9296L74.733 60.7219Z" fill="#AF8643"/>
<path fill-rule="evenodd" clip-rule="evenodd" d="M74.7335 60.7221L74.7335 83.6962L76.2352 82.904L76.2352 59.9298L74.7335 60.7221Z" fill="#835F25"/>
<path fill-rule="evenodd" clip-rule="evenodd" d="M73.2307 59.9298L74.7324 60.722L76.2343 59.9297L74.7324 59.1376L73.2307 59.9298Z" fill="#835F25"/>
<path fill-rule="evenodd" clip-rule="evenodd" d="M85.2452 53.5923L85.245 76.5664L83.7433 75.7741L83.7433 52.7999L85.2452 53.5923Z" fill="#AF8643"/>
<path fill-rule="evenodd" clip-rule="evenodd" d="M85.2457 53.5922L85.2457 76.5663L86.7474 75.7741L86.7474 52.8L85.2457 53.5922Z" fill="#835F25"/>
<path fill-rule="evenodd" clip-rule="evenodd" d="M83.7439 52.7999L85.2456 53.5921L86.7474 52.7999L85.2456 52.0077L83.7439 52.7999Z" fill="#835F25"/>
<path fill-rule="evenodd" clip-rule="evenodd" d="M95.0064 47.2546L95.0063 70.2287L93.5046 69.4364L93.5046 46.4623L95.0064 47.2546Z" fill="#AF8643"/>
<path fill-rule="evenodd" clip-rule="evenodd" d="M95.0069 47.2546L95.0069 70.2286L96.5087 69.4364L96.5086 46.4623L95.0069 47.2546Z" fill="#835F25"/>
<path fill-rule="evenodd" clip-rule="evenodd" d="M93.5046 46.4622L95.0064 47.2544L96.5082 46.4622L95.0064 45.67L93.5046 46.4622Z" fill="#835F25"/>
<path fill-rule="evenodd" clip-rule="evenodd" d="M105.519 40.1247L105.518 63.0988L104.017 62.3065L104.017 39.3324L105.519 40.1247Z" fill="#AF8643"/>
<path fill-rule="evenodd" clip-rule="evenodd" d="M105.519 40.1247L105.519 63.0988L107.021 62.3065L107.021 39.3324L105.519 40.1247Z" fill="#835F25"/>
<path fill-rule="evenodd" clip-rule="evenodd" d="M104.016 39.3324L105.518 40.1246L107.02 39.3323L105.518 38.5401L104.016 39.3324Z" fill="#835F25"/>
<path fill-rule="evenodd" clip-rule="evenodd" d="M114.528 33.7871L114.528 56.7612L113.027 55.9689L113.027 32.9948L114.528 33.7871Z" fill="#AF8643"/>
<path fill-rule="evenodd" clip-rule="evenodd" d="M114.529 33.787L114.529 56.7611L116.031 55.9689L116.031 32.9948L114.529 33.787Z" fill="#835F25"/>
<path fill-rule="evenodd" clip-rule="evenodd" d="M113.027 32.9947L114.528 33.7869L116.03 32.9947L114.528 32.2025L113.027 32.9947Z" fill="#835F25"/>
<path fill-rule="evenodd" clip-rule="evenodd" d="M123.54 29.0337L123.539 52.0078L122.038 51.2155L122.038 28.2413L123.54 29.0337Z" fill="#AF8643"/>
<path fill-rule="evenodd" clip-rule="evenodd" d="M123.54 29.0336L123.54 52.0077L125.042 51.2155L125.042 28.2414L123.54 29.0336Z" fill="#835F25"/>
<path fill-rule="evenodd" clip-rule="evenodd" d="M122.038 28.2413L123.54 29.0335L125.041 28.2413L123.54 27.4491L122.038 28.2413Z" fill="#835F25"/>
<path fill-rule="evenodd" clip-rule="evenodd" d="M156.577 52.0078L156.577 74.9819L155.075 74.1896L155.075 51.2155L156.577 52.0078Z" fill="#AF8643"/>
<path fill-rule="evenodd" clip-rule="evenodd" d="M156.578 52.0077L156.578 74.9818L158.079 74.1896L158.079 51.2155L156.578 52.0077Z" fill="#835F25"/>
<path fill-rule="evenodd" clip-rule="evenodd" d="M155.075 51.2154L156.577 52.0076L158.079 51.2154L156.577 50.4232L155.075 51.2154Z" fill="#835F25"/>
<path fill-rule="evenodd" clip-rule="evenodd" d="M134.051 36.754L134.051 58.0433L132.549 57.3091L132.549 36.0198L134.051 36.754Z" fill="#AF8643"/>
<path fill-rule="evenodd" clip-rule="evenodd" d="M134.052 36.7543L134.052 58.0435L135.554 57.3094L135.554 36.0201L134.052 36.7543Z" fill="#835F25"/>
<path fill-rule="evenodd" clip-rule="evenodd" d="M132.55 36.02L134.051 36.7541L135.553 36.0199L134.051 35.2859L132.55 36.02Z" fill="#835F25"/>
<path fill-rule="evenodd" clip-rule="evenodd" d="M143.812 44.6762L143.812 65.9654L142.31 65.2312L142.31 43.942L143.812 44.6762Z" fill="#AF8643"/>
<path fill-rule="evenodd" clip-rule="evenodd" d="M143.813 44.6764L143.813 65.9656L145.314 65.2315L145.314 43.9422L143.813 44.6764Z" fill="#835F25"/>
<path fill-rule="evenodd" clip-rule="evenodd" d="M142.31 43.9421L143.812 44.6762L145.314 43.9421L143.812 43.208L142.31 43.9421Z" fill="#835F25"/>
<path fill-rule="evenodd" clip-rule="evenodd" d="M173.847 62.3064L173.847 85.2805L172.345 84.4882L172.345 61.514L173.847 62.3064Z" fill="#AF8643"/>
<path fill-rule="evenodd" clip-rule="evenodd" d="M173.847 62.3063L173.847 85.2804L175.349 84.4882L175.349 61.5141L173.847 62.3063Z" fill="#835F25"/>
<path fill-rule="evenodd" clip-rule="evenodd" d="M172.345 61.514L173.847 62.3062L175.349 61.514L173.847 60.7218L172.345 61.514Z" fill="#835F25"/>
<path fill-rule="evenodd" clip-rule="evenodd" d="M194.872 75.7741L194.871 98.7483L193.37 97.9559L193.37 74.9818L194.872 75.7741Z" fill="#AF8643"/>
<path fill-rule="evenodd" clip-rule="evenodd" d="M194.872 75.7741L194.872 98.7482L196.374 97.956L196.374 74.9818L194.872 75.7741Z" fill="#835F25"/>
<path fill-rule="evenodd" clip-rule="evenodd" d="M193.37 74.9818L194.872 75.774L196.373 74.9817L194.872 74.1896L193.37 74.9818Z" fill="#835F25"/>
<path fill-rule="evenodd" clip-rule="evenodd" d="M183.609 68.6443L183.609 91.6184L182.107 90.8261L182.107 67.8519L183.609 68.6443Z" fill="#AF8643"/>
<path fill-rule="evenodd" clip-rule="evenodd" d="M183.609 68.6442L183.609 91.6183L185.111 90.8261L185.111 67.852L183.609 68.6442Z" fill="#835F25"/>
<path fill-rule="evenodd" clip-rule="evenodd" d="M182.107 67.8519L183.608 68.6441L185.11 67.8519L183.608 67.0597L182.107 67.8519Z" fill="#835F25"/>
<path fill-rule="evenodd" clip-rule="evenodd" d="M207.636 84.4885L207.636 107.463L206.134 106.67L206.134 83.6962L207.636 84.4885Z" fill="#AF8643"/>
<path fill-rule="evenodd" clip-rule="evenodd" d="M207.637 84.4884L207.637 107.463L209.139 106.67L209.139 83.6962L207.637 84.4884Z" fill="#835F25"/>
<path fill-rule="evenodd" clip-rule="evenodd" d="M206.135 83.6961L207.636 84.4883L209.138 83.6961L207.636 82.9039L206.135 83.6961Z" fill="#835F25"/>
<path fill-rule="evenodd" clip-rule="evenodd" d="M221.903 93.9948L221.903 116.969L220.402 116.177L220.402 93.2025L221.903 93.9948Z" fill="#AF8643"/>
<path fill-rule="evenodd" clip-rule="evenodd" d="M221.903 93.9948L221.903 116.969L223.405 116.177L223.405 93.2025L221.903 93.9948Z" fill="#835F25"/>
<path fill-rule="evenodd" clip-rule="evenodd" d="M220.402 93.2025L221.903 93.9947L223.405 93.2024L221.903 92.4103L220.402 93.2025Z" fill="#835F25"/>
<path fill-rule="evenodd" clip-rule="evenodd" d="M205.383 104.294L205.383 127.268L203.882 126.475L203.882 103.501L205.383 104.294Z" fill="#AF8643"/>
<path fill-rule="evenodd" clip-rule="evenodd" d="M205.384 104.294L205.384 127.268L206.886 126.475L206.886 103.501L205.384 104.294Z" fill="#835F25"/>
<path fill-rule="evenodd" clip-rule="evenodd" d="M203.882 103.501L205.383 104.294L206.885 103.501L205.383 102.709L203.882 103.501Z" fill="#835F25"/>
<path fill-rule="evenodd" clip-rule="evenodd" d="M213.644 99.5405L213.643 122.515L212.142 121.722L212.142 98.7482L213.644 99.5405Z" fill="#AF8643"/>
<path fill-rule="evenodd" clip-rule="evenodd" d="M213.644 99.5404L213.644 122.515L215.146 121.722L215.146 98.7482L213.644 99.5404Z" fill="#835F25"/>
<path fill-rule="evenodd" clip-rule="evenodd" d="M212.141 98.7481L213.643 99.5403L215.145 98.7481L213.643 97.9559L212.141 98.7481Z" fill="#835F25"/>
<path fill-rule="evenodd" clip-rule="evenodd" d="M196.374 110.631L196.373 133.605L194.872 132.813L194.872 109.839L196.374 110.631Z" fill="#AF8643"/>
<path fill-rule="evenodd" clip-rule="evenodd" d="M196.374 110.631L196.374 133.605L197.876 132.813L197.876 109.839L196.374 110.631Z" fill="#835F25"/>
<path fill-rule="evenodd" clip-rule="evenodd" d="M194.872 109.839L196.374 110.631L197.875 109.839L196.374 109.047L194.872 109.839Z" fill="#835F25"/>
<path fill-rule="evenodd" clip-rule="evenodd" d="M185.861 117.761L185.861 140.735L184.359 139.943L184.359 116.969L185.861 117.761Z" fill="#AF8643"/>
<path fill-rule="evenodd" clip-rule="evenodd" d="M185.861 117.761L185.861 140.735L187.363 139.943L187.363 116.969L185.861 117.761Z" fill="#835F25"/>
<path fill-rule="evenodd" clip-rule="evenodd" d="M184.359 116.969L185.861 117.761L187.363 116.969L185.861 116.177L184.359 116.969Z" fill="#835F25"/>
<path fill-rule="evenodd" clip-rule="evenodd" d="M174.598 124.891L174.598 147.865L173.096 147.073L173.096 124.099L174.598 124.891Z" fill="#AF8643"/>
<path fill-rule="evenodd" clip-rule="evenodd" d="M174.599 124.891L174.599 147.865L176.1 147.073L176.1 124.099L174.599 124.891Z" fill="#835F25"/>
<path fill-rule="evenodd" clip-rule="evenodd" d="M173.096 124.099L174.598 124.891L176.1 124.099L174.598 123.307L173.096 124.099Z" fill="#835F25"/>
<path fill-rule="evenodd" clip-rule="evenodd" d="M164.086 132.021L164.086 154.995L162.584 154.203L162.584 131.229L164.086 132.021Z" fill="#AF8643"/>
<path fill-rule="evenodd" clip-rule="evenodd" d="M164.087 132.021L164.087 154.995L165.588 154.203L165.588 131.229L164.087 132.021Z" fill="#835F25"/>
<path fill-rule="evenodd" clip-rule="evenodd" d="M162.584 131.229L164.086 132.021L165.588 131.229L164.086 130.436L162.584 131.229Z" fill="#835F25"/>
<path fill-rule="evenodd" clip-rule="evenodd" d="M126.543 106.67L126.542 129.645L125.041 128.852L125.041 105.878L126.543 106.67Z" fill="#AF8643"/>
<path fill-rule="evenodd" clip-rule="evenodd" d="M126.543 106.67L126.543 129.644L128.045 128.852L128.045 105.878L126.543 106.67Z" fill="#835F25"/>
<path fill-rule="evenodd" clip-rule="evenodd" d="M125.041 105.878L126.542 106.67L128.044 105.878L126.542 105.086L125.041 105.878Z" fill="#835F25"/>
<path fill-rule="evenodd" clip-rule="evenodd" d="M139.307 115.385L139.307 138.359L137.805 137.567L137.805 114.592L139.307 115.385Z" fill="#AF8643"/>
<path fill-rule="evenodd" clip-rule="evenodd" d="M139.308 115.385L139.308 138.359L140.809 137.567L140.809 114.592L139.308 115.385Z" fill="#835F25"/>
<path fill-rule="evenodd" clip-rule="evenodd" d="M137.805 114.592L139.307 115.385L140.809 114.592L139.307 113.8L137.805 114.592Z" fill="#835F25"/>
<path fill-rule="evenodd" clip-rule="evenodd" d="M152.072 124.099L152.072 147.073L150.57 146.281L150.57 123.307L152.072 124.099Z" fill="#AF8643"/>
<path fill-rule="evenodd" clip-rule="evenodd" d="M152.073 124.099L152.073 147.073L153.575 146.281L153.575 123.307L152.073 124.099Z" fill="#835F25"/>
<path fill-rule="evenodd" clip-rule="evenodd" d="M150.57 123.306L152.072 124.099L153.574 123.306L152.072 122.514L150.57 123.306Z" fill="#835F25"/>
<path fill-rule="evenodd" clip-rule="evenodd" d="M152.072 89.2417L152.072 112.216L150.57 111.423L150.57 88.4493L152.072 89.2417Z" fill="#AF8643"/>
<path fill-rule="evenodd" clip-rule="evenodd" d="M152.073 89.2416L152.073 112.216L153.575 111.423L153.575 88.4494L152.073 89.2416Z" fill="#835F25"/>
<path fill-rule="evenodd" clip-rule="evenodd" d="M150.57 88.4493L152.072 89.2415L153.574 88.4493L152.072 87.6571L150.57 88.4493Z" fill="#835F25"/>
<path fill-rule="evenodd" clip-rule="evenodd" d="M164.837 97.9558L164.837 120.93L163.335 120.138L163.335 97.1635L164.837 97.9558Z" fill="#AF8643"/>
<path fill-rule="evenodd" clip-rule="evenodd" d="M164.837 97.956L164.837 120.93L166.339 120.138L166.339 97.1637L164.837 97.956Z" fill="#835F25"/>
<path fill-rule="evenodd" clip-rule="evenodd" d="M163.335 97.1637L164.837 97.9559L166.339 97.1636L164.837 96.3714L163.335 97.1637Z" fill="#835F25"/>
<path fill-rule="evenodd" clip-rule="evenodd" d="M180.605 89.2417L180.605 112.216L179.103 111.423L179.103 88.4493L180.605 89.2417Z" fill="#AF8643"/>
<path fill-rule="evenodd" clip-rule="evenodd" d="M180.606 89.2416L180.606 112.216L182.107 111.423L182.107 88.4494L180.606 89.2416Z" fill="#835F25"/>
<path fill-rule="evenodd" clip-rule="evenodd" d="M179.103 88.4493L180.605 89.2415L182.107 88.4493L180.605 87.6571L179.103 88.4493Z" fill="#835F25"/>
<path fill-rule="evenodd" clip-rule="evenodd" d="M73.982 72.6052L73.9818 95.5793L72.4802 94.787L72.4802 71.8129L73.982 72.6052Z" fill="#AF8643"/>
<path fill-rule="evenodd" clip-rule="evenodd" d="M73.9825 72.6051L73.9825 95.5792L75.4842 94.787L75.4842 71.8129L73.9825 72.6051Z" fill="#835F25"/>
<path fill-rule="evenodd" clip-rule="evenodd" d="M72.4802 71.8128L73.9819 72.605L75.4838 71.8128L73.9819 71.0206L72.4802 71.8128Z" fill="#835F25"/>
<path fill-rule="evenodd" clip-rule="evenodd" d="M82.9918 78.9428L82.9916 101.917L81.4899 101.125L81.4899 78.1505L82.9918 78.9428Z" fill="#AF8643"/>
<path fill-rule="evenodd" clip-rule="evenodd" d="M82.9923 78.9428L82.9923 101.917L84.494 101.125L84.494 78.1505L82.9923 78.9428Z" fill="#835F25"/>
<path fill-rule="evenodd" clip-rule="evenodd" d="M81.49 78.1505L82.9917 78.9427L84.4935 78.1504L82.9917 77.3583L81.49 78.1505Z" fill="#835F25"/>
<path fill-rule="evenodd" clip-rule="evenodd" d="M92.7535 85.2805L92.7533 108.255L91.2516 107.462L91.2516 84.4882L92.7535 85.2805Z" fill="#AF8643"/>
<path fill-rule="evenodd" clip-rule="evenodd" d="M92.754 85.2804L92.754 108.255L94.2557 107.462L94.2557 84.4882L92.754 85.2804Z" fill="#835F25"/>
<path fill-rule="evenodd" clip-rule="evenodd" d="M91.2517 84.4881L92.7534 85.2803L94.2553 84.4881L92.7534 83.6959L91.2517 84.4881Z" fill="#835F25"/>
<path fill-rule="evenodd" clip-rule="evenodd" d="M101.764 90.8261L101.764 113.8L100.262 113.008L100.262 90.0338L101.764 90.8261Z" fill="#AF8643"/>
<path fill-rule="evenodd" clip-rule="evenodd" d="M101.765 90.8261L101.765 113.8L103.266 113.008L103.266 90.0338L101.765 90.8261Z" fill="#835F25"/>
<path fill-rule="evenodd" clip-rule="evenodd" d="M100.262 90.0338L101.764 90.826L103.266 90.0337L101.764 89.2416L100.262 90.0338Z" fill="#835F25"/>
<path fill-rule="evenodd" clip-rule="evenodd" d="M106.27 84.4885L106.269 107.463L104.768 106.67L104.768 83.6962L106.27 84.4885Z" fill="#AF8643"/>
<path fill-rule="evenodd" clip-rule="evenodd" d="M106.27 84.4884L106.27 107.463L107.772 106.67L107.772 83.6962L106.27 84.4884Z" fill="#835F25"/>
<path fill-rule="evenodd" clip-rule="evenodd" d="M104.767 83.6961L106.269 84.4883L107.771 83.6961L106.269 82.9039L104.767 83.6961Z" fill="#835F25"/>
<path fill-rule="evenodd" clip-rule="evenodd" d="M114.528 78.9428L114.528 101.917L113.027 101.125L113.027 78.1505L114.528 78.9428Z" fill="#AF8643"/>
<path fill-rule="evenodd" clip-rule="evenodd" d="M114.529 78.9428L114.529 101.917L116.031 101.125L116.031 78.1505L114.529 78.9428Z" fill="#835F25"/>
<path fill-rule="evenodd" clip-rule="evenodd" d="M113.027 78.1505L114.528 78.9427L116.03 78.1504L114.528 77.3583L113.027 78.1505Z" fill="#835F25"/>
<path fill-rule="evenodd" clip-rule="evenodd" d="M269.255 126.621L145.843 204.426L0.539551 112.927L123.952 35.1221L269.255 126.621Z" fill="#D1C393"/>
<path fill-rule="evenodd" clip-rule="evenodd" d="M0.539551 112.927L145.843 204.426V212.233L0.583159 120.777L0.539551 112.927Z" fill="#AF9D64"/>
<path fill-rule="evenodd" clip-rule="evenodd" d="M269.255 126.621L145.843 204.426V212.233L269.168 134.602L269.255 126.621Z" fill="#9D8B4E"/>
<path fill-rule="evenodd" clip-rule="evenodd" d="M164.987 163.3L120.114 71.277L142.006 71.1025L231.36 126.403L173.404 163.3H164.987Z" fill="#AF9D64"/>
<path fill-rule="evenodd" clip-rule="evenodd" d="M164.987 163.3L66.6499 101.37V94.1299L164.987 155.973V163.3Z" fill="#9A3227"/>
<path fill-rule="evenodd" clip-rule="evenodd" d="M223.902 126.229V119.207C198.348 135.213 190.585 139.749 164.987 155.842V163.3C190.411 147.555 198.566 142.148 223.902 126.229Z" fill="#6E2E2C"/>
<path fill-rule="evenodd" clip-rule="evenodd" d="M164.987 159.156L66.6499 97.3572V92.2981L164.987 154.141V159.156Z" fill="#612F2B"/>
<path fill-rule="evenodd" clip-rule="evenodd" d="M165.423 158.677L64.731 95.3076V87.3701L165.467 150.826L165.423 158.677Z" fill="#B0B0B0"/>
<path fill-rule="evenodd" clip-rule="evenodd" d="M225.821 120.734V112.84L165.511 150.826V158.677C191.458 142.54 199.874 137.045 225.821 120.734Z" fill="#7F7F7F"/>
<path fill-rule="evenodd" clip-rule="evenodd" d="M141.264 124.79V102.634C137.514 100.279 133.72 97.9243 129.97 95.6128V117.681L141.264 124.79Z" fill="#979797"/>
<path fill-rule="evenodd" clip-rule="evenodd" d="M141.264 124.79V110.659C137.514 113.014 135.813 114.105 132.019 116.416L129.926 117.724L141.264 124.79Z" fill="#E3E3E3"/>
<path fill-rule="evenodd" clip-rule="evenodd" d="M141.264 102.635L132.019 96.8777V116.373L141.264 122.129V102.635Z" fill="#3B3E40"/>
<path fill-rule="evenodd" clip-rule="evenodd" d="M109.037 164.608L60.6318 133.643V131.288L109.037 162.253V164.608Z" fill="#835F25"/>
<path fill-rule="evenodd" clip-rule="evenodd" d="M137.95 143.979L109.037 162.253L60.6318 131.288L88.8901 113.145L135.595 142.54L137.95 143.979Z" fill="#C4984C"/>
<path fill-rule="evenodd" clip-rule="evenodd" d="M137.95 146.334L109.081 164.608V162.253L137.993 143.979V146.334H137.95Z" fill="#835F25"/>
<path fill-rule="evenodd" clip-rule="evenodd" d="M109.038 159.331L65.7344 131.811V129.456L113.355 128.671L109.038 159.331Z" fill="#835F25"/>
<path fill-rule="evenodd" clip-rule="evenodd" d="M135.595 140.141L109.038 156.976L65.7344 129.456L92.0303 112.578L133.284 138.702L135.595 140.141Z" fill="#C4984C"/>
<path fill-rule="evenodd" clip-rule="evenodd" d="M135.595 142.54L109.038 159.287V156.932L135.595 140.141V142.54Z" fill="#835F25"/>
<path fill-rule="evenodd" clip-rule="evenodd" d="M108.994 154.054L70.8804 129.98V127.625L109.038 151.699L108.994 154.054Z" fill="#835F25"/>
<path fill-rule="evenodd" clip-rule="evenodd" d="M133.284 136.347L108.994 151.699L70.8804 127.624L94.6906 112.316L133.284 136.347Z" fill="#B65627"/>
<path fill-rule="evenodd" clip-rule="evenodd" d="M133.284 138.702L108.994 154.054V151.699L133.284 136.391V138.702Z" fill="#835F25"/>
<path fill-rule="evenodd" clip-rule="evenodd" d="M225.777 112.84L165.467 150.826L124.388 124.964L126.437 123.699L105.636 110.703L103.543 111.837L64.7749 87.4136L125.129 49.427L225.777 112.84Z" fill="#E3E3E3"/>
<path fill-rule="evenodd" clip-rule="evenodd" d="M103.5 117.812L105.636 110.703L104.503 105.556L127.31 120.123L126.35 123.786L124.388 125.008L124.432 130.852L103.5 117.812Z" fill="#CACACA"/>
<path fill-rule="evenodd" clip-rule="evenodd" d="M221.503 113.058L165.03 148.122L69.0918 87.6752L125.172 52.3926L221.503 113.058Z" fill="#B0B0B0"/>
<path fill-rule="evenodd" clip-rule="evenodd" d="M104.458 109.961L69.0483 87.6752L125.129 52.3926V110.005H104.458V109.961Z" fill="#7F7F7F"/>
<path fill-rule="evenodd" clip-rule="evenodd" d="M74.2378 90.5538L125.347 58.3677L216.707 115.98L165.598 148.166L74.2378 90.5538Z" fill="#CACACA"/>
<path fill-rule="evenodd" clip-rule="evenodd" d="M105.636 116.503V110.703L103.543 111.837V117.812L105.636 116.503Z" fill="#979797"/>
<path fill-rule="evenodd" clip-rule="evenodd" d="M158.053 95.918L164.115 81.8312L162.763 73.1086L177.11 82.1801L174.842 83.6629V89.8995L165.423 95.8744L158.053 95.918Z" fill="#B0B0B0"/>
<path fill-rule="evenodd" clip-rule="evenodd" d="M171.179 87.5878L170.307 80.8279L174.886 83.7063V89.9429L171.179 87.5878Z" fill="#7F7F7F"/>
<path fill-rule="evenodd" clip-rule="evenodd" d="M158.402 95.6564L163.679 82.8779L174.886 89.9432L165.772 95.6564H158.402Z" fill="#B0B0B0"/>
<path fill-rule="evenodd" clip-rule="evenodd" d="M164.508 85.8436L158.403 89.7251L151.6 85.4075L157.705 81.5696L164.508 85.8436Z" fill="#B65627"/>
<path fill-rule="evenodd" clip-rule="evenodd" d="M164.508 85.8435L157.705 81.5695V75.6382L158.402 75.8126V81.1334L164.508 77.2955V85.8435Z" fill="#9A3227"/>
<path fill-rule="evenodd" clip-rule="evenodd" d="M156.135 93.3885L153.998 92.0365V90.074L156.135 91.426V93.3885Z" fill="#832C2A"/>
<path fill-rule="evenodd" clip-rule="evenodd" d="M153.998 92.0365L155.524 91.0334L156.135 91.426V93.3885L153.998 92.0365Z" fill="#B65627"/>
<path fill-rule="evenodd" clip-rule="evenodd" d="M159.318 85.6254L157.923 86.4976L156.702 85.7126L158.054 84.8403L159.318 85.6254Z" fill="#832C2A"/>
<path fill-rule="evenodd" clip-rule="evenodd" d="M158.053 86.4541V84.884L159.318 85.6691L158.053 86.4541Z" fill="#9A3227"/>
<path fill-rule="evenodd" clip-rule="evenodd" d="M164.551 67.4389V61.8564L168.999 64.604L164.551 67.4389Z" fill="#9A3227"/>
<path fill-rule="evenodd" clip-rule="evenodd" d="M165.205 67.8751L164.246 68.4857L158.141 64.735L159.187 64.0808L165.205 67.8751Z" fill="#B65627"/>
<path fill-rule="evenodd" clip-rule="evenodd" d="M133.284 136.347L108.994 151.699L70.8804 127.624L94.6906 112.316L133.284 136.347Z" fill="#C4984C"/>
<path fill-rule="evenodd" clip-rule="evenodd" d="M120.289 88.6349L123.69 86.4542V80.3921L120.158 82.6163L120.289 88.6349Z" fill="#7F7F7F"/>
<path fill-rule="evenodd" clip-rule="evenodd" d="M118.283 81.3951L121.771 79.1709L123.734 80.3921L120.201 82.6163L118.283 81.3951Z" fill="#E3E3E3"/>
<path fill-rule="evenodd" clip-rule="evenodd" d="M129.752 97.3137L96.6963 76.5105V70.2739L129.795 90.9899L129.752 97.3137Z" fill="#B0B0B0"/>
<path fill-rule="evenodd" clip-rule="evenodd" d="M131.888 89.856L98.6152 69.0527L96.6528 70.2739L129.752 90.9899L131.888 89.856Z" fill="#E3E3E3"/>
<path fill-rule="evenodd" clip-rule="evenodd" d="M131.889 95.6564V89.856L129.752 90.9899V96.9648L131.889 95.6564Z" fill="#979797"/>
<path fill-rule="evenodd" clip-rule="evenodd" d="M126.874 99.0581L131.976 95.8308V89.8123L126.874 93.0396V99.0581Z" fill="#7F7F7F"/>
<path fill-rule="evenodd" clip-rule="evenodd" d="M124.78 91.7747L129.838 88.5474L132.019 89.8557L126.917 93.0831L124.78 91.7747Z" fill="#E3E3E3"/>
<path fill-rule="evenodd" clip-rule="evenodd" d="M124.78 97.7497V91.7312L126.873 93.0832V99.0581L124.78 97.7497Z" fill="#979797"/>
<path fill-rule="evenodd" clip-rule="evenodd" d="M160.278 119.731L151.949 114.453V108.479L165.031 116.721L160.278 119.731Z" fill="#B0B0B0"/>
<path fill-rule="evenodd" clip-rule="evenodd" d="M245.837 139.749L193.376 172.851L184.698 167.399L237.116 134.254L245.837 139.749Z" fill="#AF9D64"/>
<path fill-rule="evenodd" clip-rule="evenodd" d="M222.943 152.745L220.85 154.054L215.922 150.957L218.016 149.649L222.943 152.745Z" fill="#C4984C"/>
<path fill-rule="evenodd" clip-rule="evenodd" d="M215.922 150.914L220.85 154.01V155.798L215.922 152.702V150.914Z" fill="#B08743"/>
<path fill-rule="evenodd" clip-rule="evenodd" d="M222.943 152.745L220.85 154.054V155.842L222.943 154.533V152.745Z" fill="#835F25"/>
<path fill-rule="evenodd" clip-rule="evenodd" d="M240.168 141.886L238.075 143.194L233.147 140.098L235.241 138.789L240.168 141.886Z" fill="#C4984C"/>
<path fill-rule="evenodd" clip-rule="evenodd" d="M233.147 140.098L238.075 143.194V144.982L233.147 141.886V140.098Z" fill="#B08743"/>
<path fill-rule="evenodd" clip-rule="evenodd" d="M240.168 141.886L238.075 143.194V144.982L240.125 143.674L240.168 141.886Z" fill="#835F25"/>
<path fill-rule="evenodd" clip-rule="evenodd" d="M206.808 163.082L204.715 164.39L199.787 161.293L201.88 159.985L206.808 163.082Z" fill="#C4984C"/>
<path fill-rule="evenodd" clip-rule="evenodd" d="M199.787 161.25L204.715 164.346V166.091L199.787 162.994V161.25Z" fill="#B08743"/>
<path fill-rule="evenodd" clip-rule="evenodd" d="M206.808 163.081L204.714 164.39V166.134L206.764 164.826L206.808 163.081Z" fill="#835F25"/>
<path fill-rule="evenodd" clip-rule="evenodd" d="M186.791 167.443V165.611L238.816 132.858V134.69L186.791 167.443Z" fill="#835F25"/>
<path fill-rule="evenodd" clip-rule="evenodd" d="M238.817 132.858L186.792 165.611L184.088 163.91L236.113 131.201L238.817 132.858Z" fill="#C4984C"/>
<path fill-rule="evenodd" clip-rule="evenodd" d="M186.792 167.443V165.611L184.088 163.91V165.698L186.792 167.443Z" fill="#B08743"/>
<path fill-rule="evenodd" clip-rule="evenodd" d="M186.791 165.393V163.605L238.816 130.852V132.684L186.791 165.393Z" fill="#835F25"/>
<path fill-rule="evenodd" clip-rule="evenodd" d="M238.817 130.852L186.792 163.605L184.088 161.904L236.069 129.151L238.817 130.852Z" fill="#C4984C"/>
<path fill-rule="evenodd" clip-rule="evenodd" d="M186.792 165.393V163.605L184.088 161.904V163.692L186.792 165.393Z" fill="#B08743"/>
<path fill-rule="evenodd" clip-rule="evenodd" d="M186.791 163.387V161.555L238.816 128.802V130.634L186.791 163.387Z" fill="#835F25"/>
<path fill-rule="evenodd" clip-rule="evenodd" d="M238.817 128.846L186.792 161.599L184.088 159.898L236.069 127.145L238.817 128.846Z" fill="#C4984C"/>
<path fill-rule="evenodd" clip-rule="evenodd" d="M186.792 163.387V161.555L184.088 159.854V161.642L186.792 163.387Z" fill="#B08743"/>
<path fill-rule="evenodd" clip-rule="evenodd" d="M186.791 161.381V159.592L238.816 126.839V128.715L186.791 161.381Z" fill="#835F25"/>
<path fill-rule="evenodd" clip-rule="evenodd" d="M238.817 126.839L186.792 159.592L184.088 157.892L236.069 125.138L238.817 126.839Z" fill="#C4984C"/>
<path fill-rule="evenodd" clip-rule="evenodd" d="M186.792 161.381V159.592L184.088 157.892V159.68L186.792 161.381Z" fill="#B08743"/>
<path fill-rule="evenodd" clip-rule="evenodd" d="M186.791 159.374V157.543L238.816 124.79V126.621L186.791 159.374Z" fill="#835F25"/>
<path fill-rule="evenodd" clip-rule="evenodd" d="M238.817 124.79L186.792 157.543L184.088 155.842L236.069 123.089L238.817 124.79Z" fill="#C4984C"/>
<path fill-rule="evenodd" clip-rule="evenodd" d="M186.792 159.374V157.543L184.088 155.842V157.63L186.792 159.374Z" fill="#B08743"/>
<path fill-rule="evenodd" clip-rule="evenodd" d="M186.791 157.368V155.58L238.816 122.827V124.702L186.791 157.368Z" fill="#835F25"/>
<path fill-rule="evenodd" clip-rule="evenodd" d="M238.817 122.783L186.792 155.536L184.088 153.836L236.069 121.083L238.817 122.783Z" fill="#C4984C"/>
<path fill-rule="evenodd" clip-rule="evenodd" d="M186.792 157.368V155.58L184.088 153.879V155.667L186.792 157.368Z" fill="#B08743"/>
<path fill-rule="evenodd" clip-rule="evenodd" d="M189.801 169.187V167.399L241.782 134.646L241.826 136.478L189.801 169.187Z" fill="#835F25"/>
<path fill-rule="evenodd" clip-rule="evenodd" d="M241.782 134.646L189.8 167.399L187.097 165.698L239.078 132.945L241.782 134.646Z" fill="#C4984C"/>
<path fill-rule="evenodd" clip-rule="evenodd" d="M189.8 169.187V167.399L187.097 165.698V167.443L189.8 169.187Z" fill="#B08743"/>
<path fill-rule="evenodd" clip-rule="evenodd" d="M189.801 167.181V165.393L241.782 132.64L241.826 134.472L189.801 167.181Z" fill="#835F25"/>
<path fill-rule="evenodd" clip-rule="evenodd" d="M241.782 132.64L189.8 165.393L187.097 163.692L239.078 130.939L241.782 132.64Z" fill="#C4984C"/>
<path fill-rule="evenodd" clip-rule="evenodd" d="M189.8 167.181V165.393L187.097 163.692V165.48L189.8 167.181Z" fill="#B08743"/>
<path fill-rule="evenodd" clip-rule="evenodd" d="M189.801 165.175V163.343L241.782 130.59L241.826 132.422L189.801 165.175Z" fill="#835F25"/>
<path fill-rule="evenodd" clip-rule="evenodd" d="M241.782 130.59L189.8 163.343L187.097 161.642L239.078 128.933L241.782 130.59Z" fill="#C4984C"/>
<path fill-rule="evenodd" clip-rule="evenodd" d="M189.8 165.175V163.343L187.097 161.642V163.387L189.8 165.175Z" fill="#B08743"/>
<path fill-rule="evenodd" clip-rule="evenodd" d="M189.801 163.169V161.381L241.782 128.584L241.826 130.416L189.801 163.169Z" fill="#835F25"/>
<path fill-rule="evenodd" clip-rule="evenodd" d="M241.782 128.584L189.8 161.337L187.097 159.636L239.078 126.927L241.782 128.584Z" fill="#C4984C"/>
<path fill-rule="evenodd" clip-rule="evenodd" d="M189.8 163.169V161.381L187.097 159.68V161.468L189.8 163.169Z" fill="#B08743"/>
<path fill-rule="evenodd" clip-rule="evenodd" d="M189.801 161.162V159.331L241.782 126.578L241.826 128.409L189.801 161.162Z" fill="#835F25"/>
<path fill-rule="evenodd" clip-rule="evenodd" d="M241.782 126.578L189.8 159.331L187.097 157.63L239.078 124.877L241.782 126.578Z" fill="#C4984C"/>
<path fill-rule="evenodd" clip-rule="evenodd" d="M189.8 161.163V159.331L187.097 157.63V159.375L189.8 161.163Z" fill="#B08743"/>
<path fill-rule="evenodd" clip-rule="evenodd" d="M189.801 159.156V157.368L241.782 124.615L241.826 126.447L189.801 159.156Z" fill="#835F25"/>
<path fill-rule="evenodd" clip-rule="evenodd" d="M241.782 124.572L189.8 157.325L187.097 155.624L239.078 122.871L241.782 124.572Z" fill="#C4984C"/>
<path fill-rule="evenodd" clip-rule="evenodd" d="M189.8 159.156V157.368L187.097 155.667V157.455L189.8 159.156Z" fill="#B08743"/>
<path fill-rule="evenodd" clip-rule="evenodd" d="M192.766 170.975V169.187L244.747 136.434L244.791 138.309L192.766 170.975Z" fill="#835F25"/>
<path fill-rule="evenodd" clip-rule="evenodd" d="M244.791 136.391L192.81 169.144L190.106 167.443L242.087 134.69L244.791 136.391Z" fill="#C4984C"/>
<path fill-rule="evenodd" clip-rule="evenodd" d="M192.766 170.975V169.187L190.062 167.486V169.274L192.766 170.975Z" fill="#B08743"/>
<path fill-rule="evenodd" clip-rule="evenodd" d="M192.766 168.969V167.181L244.747 134.428L244.791 136.26L192.766 168.969Z" fill="#835F25"/>
<path fill-rule="evenodd" clip-rule="evenodd" d="M244.791 134.384L192.81 167.137L190.106 165.436L242.087 132.683L244.791 134.384Z" fill="#C4984C"/>
<path fill-rule="evenodd" clip-rule="evenodd" d="M192.766 168.969V167.181L190.062 165.48V167.268L192.766 168.969Z" fill="#B08743"/>
<path fill-rule="evenodd" clip-rule="evenodd" d="M192.766 166.963V165.175L244.747 132.422L244.791 134.297L192.766 166.963Z" fill="#835F25"/>
<path fill-rule="evenodd" clip-rule="evenodd" d="M244.791 132.378L192.81 165.131L190.106 163.431L242.087 130.677L244.791 132.378Z" fill="#C4984C"/>
<path fill-rule="evenodd" clip-rule="evenodd" d="M192.766 166.963V165.175L190.062 163.474V165.262L192.766 166.963Z" fill="#B08743"/>
<path fill-rule="evenodd" clip-rule="evenodd" d="M192.766 164.957V163.125L244.747 130.372L244.791 132.204L192.766 164.957Z" fill="#835F25"/>
<path fill-rule="evenodd" clip-rule="evenodd" d="M244.791 130.372L192.81 163.125L190.106 161.424L242.087 128.671L244.791 130.372Z" fill="#C4984C"/>
<path fill-rule="evenodd" clip-rule="evenodd" d="M192.766 164.957V163.169L190.062 161.468V163.256L192.766 164.957Z" fill="#B08743"/>
<path fill-rule="evenodd" clip-rule="evenodd" d="M192.766 162.907V161.119L244.747 128.366L244.791 130.197L192.766 162.907Z" fill="#835F25"/>
<path fill-rule="evenodd" clip-rule="evenodd" d="M244.791 128.366L192.81 161.119L190.106 159.418L242.087 126.665L244.791 128.366Z" fill="#C4984C"/>
<path fill-rule="evenodd" clip-rule="evenodd" d="M192.766 162.907V161.119L190.062 159.418V161.206L192.766 162.907Z" fill="#B08743"/>
<path fill-rule="evenodd" clip-rule="evenodd" d="M192.766 160.901V159.113L244.747 126.36L244.791 128.191L192.766 160.901Z" fill="#835F25"/>
<path fill-rule="evenodd" clip-rule="evenodd" d="M244.791 126.36L192.81 159.113L190.106 157.412L242.087 124.659L244.791 126.36Z" fill="#C4984C"/>
<path fill-rule="evenodd" clip-rule="evenodd" d="M192.766 160.901V159.113L190.062 157.412V159.2L192.766 160.901Z" fill="#B08743"/>
<path fill-rule="evenodd" clip-rule="evenodd" d="M200.921 143.194L209.468 148.558L208.203 149.343L199.7 144.023L200.921 143.194Z" fill="#E3E3E3"/>
<path fill-rule="evenodd" clip-rule="evenodd" d="M209.511 160.421V148.558L208.247 149.344L208.334 161.206L209.511 160.421Z" fill="#979797"/>
<path fill-rule="evenodd" clip-rule="evenodd" d="M223.291 129.02L231.882 134.384L230.574 135.169L222.07 129.805L223.291 129.02Z" fill="#E3E3E3"/>
<path fill-rule="evenodd" clip-rule="evenodd" d="M231.882 146.203V134.341L230.574 135.126L230.661 146.988L231.882 146.203Z" fill="#979797"/>
<path fill-rule="evenodd" clip-rule="evenodd" d="M133.764 128.409L143.445 122.347V116.285L129.01 125.4L133.764 128.409Z" fill="#7F7F7F"/>
<path d="M152.079 134.908C149.463 137.088 150.673 138.44 151.937 139.705C154.042 141.232 155.35 140.795 156.658 139.923L156.004 139.269C154.914 139.923 153.996 139.88 152.592 139.051C150.771 137.743 151.425 136.434 152.733 135.562L152.079 134.908Z" fill="#D44B27"/>
<path d="M187.402 127.057C189.8 125.531 188.861 123.482 187.544 122.106C186.268 120.772 184.131 120.952 182.823 121.824L183.477 122.478C184.567 121.824 185.975 121.787 186.889 122.76C187.845 123.776 188.492 125.313 186.748 126.403L187.402 127.057Z" fill="#D44B27"/>
<path d="M196.123 124.005C196.123 124.005 200.048 126.403 196.123 128.802L195.469 128.148C198.304 126.621 195.469 124.659 195.469 124.659L196.123 124.005Z" fill="#D44B27"/>
<path d="M180.643 116.808C180.643 116.808 182.169 114.628 184.567 116.59L183.913 117.245C182.387 115.936 181.297 117.463 181.297 117.463L180.643 116.808Z" fill="#D44B27"/>
<path d="M162.545 142.104C160.147 143.63 161.04 145.605 162.357 146.981C163.633 148.315 165.769 148.072 167.078 147.199L166.424 146.545C165.333 147.199 163.926 147.3 163.011 146.327C162.056 145.311 161.455 143.848 163.199 142.758L162.545 142.104Z" fill="#D44B27"/>
<path d="M209.424 114.279C211.822 115.805 211.101 117.998 209.784 119.374C208.508 120.708 206.371 120.385 205.063 119.513L205.717 118.858C206.807 119.513 208.215 119.693 209.13 118.72C210.085 117.704 210.514 116.024 208.77 114.933L209.424 114.279Z" fill="#D44B27"/>
<path d="M170.394 97.27C167.996 95.7436 168.767 93.6565 170.085 92.2799C171.361 90.9466 173.665 91.3823 174.973 92.2546L174.319 92.9088C173.229 92.2546 171.654 91.9614 170.739 92.9341C169.783 93.9501 169.304 95.5255 171.048 96.6158L170.394 97.27Z" fill="#D44B27"/>
<path d="M93.9491 78.6475C95.1702 77.5136 97.0017 77.5136 97.9175 78.4731L98.0047 78.5603L98.0919 78.6475C98.9641 79.607 98.8769 80.8282 97.6122 81.9621L79.8636 93.4758L79.3839 92.9961L97.1325 81.4824C98.0047 80.6537 98.0483 79.9123 97.4378 79.2581L97.3506 79.1709L97.2634 79.0837C96.6528 78.4295 95.301 78.3423 94.4288 79.1709L75.7644 91.0771L75.2847 90.5974L93.9491 78.6475Z" fill="#D44B27"/>
<path d="M102.322 83.0086C103.543 81.8747 105.374 81.8747 106.29 82.8342L106.377 82.9214L106.464 83.0086C107.337 83.9681 107.249 85.1893 105.985 86.3232L88.2361 97.8369L87.7564 97.3572L105.505 85.8434C106.377 85.0148 106.421 84.2734 105.81 83.6192L105.723 83.532L105.636 83.4448C105.025 82.7906 103.674 82.7033 102.801 83.532L84.1369 95.4382L83.6572 94.9585L102.322 83.0086Z" fill="#D44B27"/>
<path d="M109.387 88.1551C110.608 87.0212 112.439 87.0212 113.355 87.9807L113.442 88.0679L113.529 88.1551C114.402 89.1146 114.314 90.3357 113.05 91.4697L95.3011 102.983L94.8214 102.504L112.57 90.9899C113.442 90.1613 113.486 89.4199 112.875 88.7657L112.788 88.6785L112.701 88.5912C112.09 87.937 110.738 87.8498 109.866 88.6785L91.2019 100.585L90.7222 100.105L109.387 88.1551Z" fill="#D44B27"/>
<path d="M117.454 92.6908C118.675 91.5568 120.507 91.5568 121.422 92.5163L121.51 92.6035L121.597 92.6908C122.469 93.6502 122.382 94.8714 121.117 96.0053L103.368 107.519L102.889 107.039L120.637 95.5256C121.51 94.6969 121.553 93.9555 120.943 93.3013L120.855 93.2141L120.768 93.1269C120.158 92.4727 118.806 92.3855 117.934 93.2141L99.2692 105.12L98.7896 104.641L117.454 92.6908Z" fill="#D44B27"/>
<path d="M122.382 99.2325C123.603 98.0986 125.434 98.0986 126.35 99.0581L126.437 99.1453L126.525 99.2325C127.397 100.192 127.31 101.413 126.045 102.547L108.296 114.061L108.253 113.101L125.565 102.067C126.437 101.239 126.481 100.497 125.87 99.8431L125.783 99.7559L125.696 99.6686C125.086 99.0144 123.734 98.9272 122.862 99.7559L105.854 110.615L105.375 110.136L122.382 99.2325Z" fill="#D44B27"/>
<path d="M135.289 100.715C136.51 99.5815 138.342 99.5815 139.258 100.541L139.345 100.628L139.432 100.715C140.304 101.675 140.217 102.896 138.953 104.03L115.36 119.338L114.793 118.771L138.473 103.55C139.345 102.722 139.389 101.98 138.778 101.326L138.691 101.239L138.604 101.152C137.993 100.497 136.641 100.41 135.769 101.239L117.105 113.145L116.625 112.665L135.289 100.715Z" fill="#D44B27"/>
<path d="M177.372 106.952C178.593 108.086 180.643 108.086 181.559 107.127L181.646 107.039L181.733 106.952C182.605 105.993 182.518 104.771 181.253 103.638L171.049 96.6159L170.395 97.2701L180.643 104.248C181.515 105.077 181.689 105.687 181.079 106.341L180.992 106.429L180.904 106.516C180.294 107.17 178.898 107.039 178.026 106.211L164.944 97.4881L164.29 98.1423L177.372 106.952Z" fill="#D44B27"/>
<path d="M164.865 97.4893C163.644 96.3554 161.812 96.3554 160.897 97.3149L160.809 97.4021L160.722 97.4893C159.85 98.4488 159.937 99.67 161.202 100.804L171.485 107.737L172.06 107.171L161.812 100.193C160.94 99.3647 160.766 98.7541 161.376 98.0999L161.463 98.0127L161.551 97.9255C162.161 97.2713 163.557 97.4021 164.429 98.2308L177.511 106.953L178.166 106.299L164.865 97.4893Z" fill="#D44B27"/>
<path d="M170.83 112.185C172.051 113.319 173.883 113.319 174.799 112.36L174.886 112.273L174.973 112.185C175.845 111.226 175.802 109.961 174.537 108.827L164.289 101.849L163.635 102.503L173.883 109.481C174.755 110.31 174.929 110.921 174.319 111.575L174.232 111.662L174.144 111.749C173.534 112.404 172.138 112.273 171.266 111.444L144.447 93.5629L143.793 94.2171L170.83 112.185Z" fill="#D44B27"/>
<path d="M141.831 87.0224C140.305 85.9334 138.718 85.8885 137.802 86.8479L137.715 86.9352L137.627 87.0224C136.755 87.9819 136.799 89.2466 138.064 90.3806L148.372 97.27L149.026 96.6158L138.718 89.7264C137.846 88.8977 137.671 88.2872 138.282 87.633L138.369 87.5457L138.456 87.4585C139.067 86.8043 140.462 86.9352 141.334 87.7638L145.32 90.3806L145.974 89.8558C145.974 89.8558 143.357 88.1113 141.831 87.0224Z" fill="#D44B27"/>
<path d="M146.41 91.1629C147.936 92.2519 149.523 92.2968 150.439 91.3374L150.526 91.2501L150.613 91.1629C151.486 90.2034 151.442 88.9387 150.177 87.8047L141.831 82.4418V83.5321L149.523 88.4589C150.395 89.2876 150.57 89.8982 149.959 90.5523L149.872 90.6396L149.785 90.7268C149.174 91.381 147.936 91.3387 147.064 90.5101L142.703 87.6753L142.267 88.3295C142.267 88.3295 144.884 90.074 146.41 91.1629Z" fill="#D44B27"/>
<path d="M145.32 80.0282C143.793 78.9393 142.206 78.8943 141.291 79.8538L141.203 79.941L141.116 80.0282C140.244 80.9877 140.288 82.2525 141.552 83.3864L145.538 85.9306L145.974 85.2764L142.206 82.7322C141.334 81.9036 141.16 81.293 141.77 80.6388L141.857 80.5516L141.945 80.4644C142.555 79.8102 143.951 79.941 144.823 80.7697L148.808 83.3864L149.462 82.7322C149.462 82.7322 146.846 81.1172 145.32 80.0282Z" fill="#D44B27"/>
<path d="M146.192 75.6669C144.665 74.578 143.078 74.533 142.163 75.4925C141.177 76.3358 130.057 83.0957 130.057 83.0957L130.929 83.5319C130.929 83.5319 142.206 76.7572 142.817 76.103C143.427 75.4489 144.823 75.5797 145.695 76.4083L149.462 78.9525L149.898 78.2983C149.898 78.2983 147.718 76.7559 146.192 75.6669Z" fill="#D44B27"/>
<path d="M149.462 83.7647C150.988 84.8537 152.575 84.8987 153.491 83.9392L153.578 83.852L153.666 83.7647C154.538 82.8052 154.494 81.5405 153.23 80.4066L149.244 77.8624L148.808 78.5165L152.575 81.0607C153.448 81.8894 153.622 82.5 153.012 83.1541L152.924 83.2414L152.837 83.3286C152.227 83.9828 150.831 83.852 149.959 83.0233L145.973 80.4066L145.319 81.0607C145.319 81.0607 147.936 82.6758 149.462 83.7647Z" fill="#D44B27"/>
<path d="M132.237 82.8924C130.711 83.9814 129.124 84.0263 128.208 83.0669L128.121 82.9796L128.034 82.8924C127.161 81.9329 123.733 79.6068 125.478 78.0804L129.839 75.0275L130.275 75.6817L126.35 78.5165C125.015 79.6068 128.077 81.6276 128.688 82.2818L128.775 82.3691L128.862 82.4563C129.473 83.1105 130.868 82.9796 131.74 82.151L135.726 79.6068L136.38 80.1884C136.38 80.1884 133.763 81.8035 132.237 82.8924Z" fill="#D44B27"/>
<path d="M142.79 105.731C144.011 104.597 145.843 104.597 146.759 105.556L146.846 105.644L146.933 105.731C147.805 106.69 147.718 107.911 146.454 109.045L122.861 124.353L122.861 123.568L145.974 108.566C146.846 107.737 146.89 106.996 146.279 106.341L146.192 106.254L146.105 106.167C145.494 105.513 144.142 105.426 143.27 106.254L124.606 118.16L124.126 117.681L142.79 105.731Z" fill="#D44B27"/>
<path d="M155.786 107.65C157.966 106.342 159.71 108.086 159.71 108.086L174.755 117.463L174.101 118.117L158.788 108.359C157.748 107.65 156.363 108.359 156.363 108.359C156.363 108.359 155.532 107.802 155.786 107.65Z" fill="#D44B27"/>
<path d="M184.18 107.569C186.36 106.261 188.274 107.955 188.274 107.955L205.718 118.858L205.064 119.512L187.182 108.278C186.142 107.569 184.757 108.278 184.757 108.278C184.757 108.278 183.926 107.722 184.18 107.569Z" fill="#D44B27"/>
<path d="M152.08 134.909L152.734 135.563C152.734 135.563 175.355 121.125 175.628 120.952C176.119 120.64 176.405 120.037 176.283 119.425C176.065 118.335 174.756 117.463 174.756 117.463L174.102 118.117C174.102 118.117 175.209 118.731 175.41 119.425C175.531 119.841 175.173 120.271 174.756 120.516C174.484 120.675 152.08 134.909 152.08 134.909Z" fill="#D44B27"/>
<path d="M156.004 139.269L156.658 139.923L183.477 122.478L182.823 121.824L156.004 139.269Z" fill="#D44B27"/>
<path d="M162.545 142.104L163.199 142.758L187.402 127.058L186.748 126.403L162.545 142.104Z" fill="#D44B27"/>
<path d="M166.332 146.585L166.986 147.239L196.124 128.802L195.47 128.148L166.332 146.585Z" fill="#D44B27"/>
<path d="M209.424 114.279L208.77 114.933L174.32 92.909L174.974 92.2547L209.424 114.279Z" fill="#D44B27"/>
<path d="M196.124 124.005L195.47 124.659L183.913 117.245L184.567 116.59L196.124 124.005Z" fill="#D44B27"/>
<path d="M152.69 117.506C153.911 116.372 154.87 116.46 155.786 117.419L155.873 117.506L155.96 117.594C156.833 118.553 156.745 119.774 155.481 120.908L136.642 132.771L136.162 132.291L155.001 120.428C155.873 119.6 155.917 118.858 155.306 118.204L155.219 118.117L155.132 118.03C154.521 117.376 153.998 117.201 153.126 118.03" fill="#D44B27"/>
<path d="M142.311 115.893C143.532 114.759 145.364 114.759 146.279 115.718L146.367 115.805L148.198 117.55C149.07 118.509 148.983 119.731 147.718 120.865L133.11 130.547L132.456 129.892L147.239 120.385C148.111 119.556 148.155 118.815 147.544 118.161L145.712 116.416L145.625 116.329C145.015 115.675 143.663 115.587 142.791 116.416L126.35 126.621L125.871 126.142L142.311 115.893Z" fill="#D44B27"/>
<path d="M153.606 117.681C152.428 118.728 150.03 119.164 149.157 118.204L149.07 118.117L147.239 116.372C146.367 115.413 146.454 114.192 147.718 113.058L155.786 107.65L156.44 108.304L148.198 113.538C147.326 114.366 147.282 115.108 147.893 115.762L149.724 117.506L149.812 117.594C150.422 118.248 151.905 118.073 152.69 117.506" fill="#D44B27"/>
<path d="M181.297 117.463C180.425 118.771 179.771 118.989 178.244 117.899L175.985 116.372C174.756 115.064 175.017 114.017 176.282 112.883L183.477 106.778L184.131 107.432L176.945 113.538C176.072 114.366 175.966 115.201 176.639 115.762C177.372 116.372 178.898 117.245 178.898 117.245C179.989 117.899 179.989 117.463 180.643 116.808" fill="#D44B27"/>
<path d="M79.8635 93.4758C78.9913 94.3044 78.5552 94.5661 79.4274 95.6564L79.5146 95.7436L79.6018 95.8309C80.2124 96.4851 81.5642 96.5723 82.4364 95.7436L101.101 83.8374L101.581 84.3171L82.9161 96.2234C81.695 97.3573 79.9507 97.2701 79.0349 96.3106H78.8605L78.7733 96.2234C77.5522 94.7406 78.2936 93.7375 79.3838 92.9524" fill="#D44B27"/>
<path d="M88.28 97.7497C87.4078 98.5784 86.9717 98.84 87.8439 99.9304L87.9311 100.018L88.0183 100.105C88.6289 100.759 89.9807 100.846 90.8529 100.018L109.517 88.1113L109.997 88.5911L91.3326 100.497C90.1116 101.631 88.28 101.631 87.3642 100.672L87.277 100.585L87.1898 100.497C85.9687 99.0145 86.7101 98.0114 87.8003 97.2264" fill="#D44B27"/>
<path d="M128.642 62.5097C129.737 61.4922 131.381 61.4922 132.203 62.3532L132.281 62.4315L132.359 62.5097C133.142 63.3707 133.063 64.4665 131.929 65.484L116.002 75.8155L115.572 75.3851L131.498 65.0535C132.281 64.3099 132.32 63.6447 131.772 63.0576L131.694 62.9794L131.616 62.9011C131.068 62.3141 129.855 62.2358 129.072 62.9794L112.324 73.6631L111.894 73.2326L128.642 62.5097Z" fill="#D44B27"/>
<path d="M112.178 73.9374C111.082 74.9549 109.312 74.7408 108.49 73.8798L108.412 73.8016L108.333 73.7233C107.551 72.8623 107.554 71.684 108.689 70.6665L124.69 60.4175L125.121 60.848L109.194 71.1795C108.412 71.9231 108.372 72.5884 108.92 73.1754L108.999 73.2537L109.077 73.3319C109.625 73.919 110.838 73.9972 111.62 73.2537L128.368 62.5699L128.799 63.0004L112.178 73.9374Z" fill="#D44B27"/>
<path d="M134.854 67.1771C135.95 66.1596 137.77 66.2893 138.592 67.1503L138.67 67.2286L138.748 67.3068C139.531 68.1678 139.453 69.2636 138.318 70.2811L126.35 78.2983L126.568 77.4261L137.887 69.8506C138.67 69.107 138.709 68.4417 138.161 67.8547L138.083 67.7764L138.005 67.6982C137.457 67.1112 136.244 67.0329 135.461 67.7764L118.713 78.4602L118.283 78.0297L134.854 67.1771Z" fill="#D44B27"/>
<path d="M116.338 75.608C115.555 76.3516 115.164 76.5864 115.947 77.5647L116.025 77.643L116.103 77.7213C116.651 78.3083 117.864 78.3866 118.647 77.643L135.395 66.9592L135.825 67.3897L119.154 78.1518C118.059 79.1693 116.338 79.091 115.516 78.23L115.438 78.1518L115.36 78.0735C114.264 76.7429 114.929 75.8428 115.908 75.1384" fill="#D44B27"/>
<path d="M95.4753 102.809C94.6031 103.637 94.1671 103.899 95.0392 104.989L95.1264 105.077L95.2137 105.164C95.8242 105.818 97.176 105.905 98.0482 105.077L116.713 93.1704L117.192 93.6501L98.5279 105.556C97.3069 106.69 95.4753 106.69 94.5595 105.731L94.4723 105.644L94.3851 105.556C93.1641 104.074 93.9054 103.07 94.9956 102.285" fill="#D44B27"/>
<path d="M104.066 106.996C103.194 107.824 102.758 108.086 103.63 109.176L103.717 109.264L103.804 109.351C104.415 110.005 105.767 110.092 106.639 109.264L123.21 98.7529L123.69 99.2327L107.119 109.7C105.898 110.834 104.066 110.834 103.15 109.874L103.063 109.787L102.976 109.7C101.755 108.217 102.496 107.214 103.586 106.429" fill="#D44B27"/>
<path d="M108.688 113.755C107.816 114.584 107.38 114.846 108.252 115.936L108.339 116.023L108.427 116.111C109.037 116.765 110.389 116.852 111.261 116.023L127.832 105.513L128.312 105.992L111.741 116.459C110.52 117.593 108.688 117.593 107.773 116.634L107.685 116.547L107.598 116.459C106.377 114.977 107.162 113.886 108.252 113.101" fill="#D44B27"/>
<path d="M115.448 119.251C114.576 120.079 114.14 120.341 115.012 121.431L115.099 121.519L115.186 121.606C115.797 122.26 117.149 122.347 118.021 121.519L134.592 111.008L135.072 111.488L118.501 121.955C117.28 123.089 115.448 123.089 114.532 122.129L114.445 122.042L114.358 121.955C113.137 120.472 113.704 119.556 114.794 118.771" fill="#D44B27"/>
<path d="M123.385 124.005C122.513 124.833 122.077 125.095 122.949 126.185L123.036 126.272L123.123 126.36C123.734 127.014 125.086 127.101 125.958 126.272L142.529 115.762L143.009 116.241L126.437 126.708C125.216 127.842 123.385 127.842 122.469 126.883L122.382 126.796L122.295 126.708C121.074 125.226 121.771 124.223 122.861 123.568" fill="#D44B27"/>
<path d="M133.109 130.372C132.237 131.201 131.801 131.463 132.673 132.553L132.76 132.64L132.847 132.727C133.458 133.381 134.81 133.469 135.682 132.64L152.253 122.129L152.733 122.609L136.162 133.076C134.941 134.21 133.109 134.21 132.193 133.251L132.106 133.163L132.019 133.076C130.798 131.593 131.539 130.59 132.629 129.805" fill="#D44B27"/>
<path fill-rule="evenodd" clip-rule="evenodd" d="M177.066 114.933V109.133L179.029 110.398V116.242L177.066 114.933Z" fill="#979797"/>
<path fill-rule="evenodd" clip-rule="evenodd" d="M207.593 121.998L182.126 105.949L180.164 107.17L205.5 123.132L207.593 121.998Z" fill="#E3E3E3"/>
<path fill-rule="evenodd" clip-rule="evenodd" d="M200.834 126.098L180.164 113.058L180.207 107.17L205.544 123.132L200.834 126.098Z" fill="#B0B0B0"/>
<path fill-rule="evenodd" clip-rule="evenodd" d="M179.029 116.241L182.125 114.323V108.435L179.029 110.397V116.241Z" fill="#7F7F7F"/>
<path fill-rule="evenodd" clip-rule="evenodd" d="M177.066 109.133L180.163 107.17L182.125 108.391L179.029 110.354L177.066 109.133Z" fill="#E3E3E3"/>
<path fill-rule="evenodd" clip-rule="evenodd" d="M166.994 115.5L153.911 107.301L151.949 108.522L165.031 116.765L166.994 115.5Z" fill="#E3E3E3"/>
<path fill-rule="evenodd" clip-rule="evenodd" d="M150.728 117.724L153.911 115.718V109.7L150.728 111.706V117.724Z" fill="#7F7F7F"/>
<path fill-rule="evenodd" clip-rule="evenodd" d="M148.765 110.485L151.948 108.479L153.91 109.7L150.727 111.706L148.765 110.485Z" fill="#E3E3E3"/>
<path fill-rule="evenodd" clip-rule="evenodd" d="M148.765 116.285V110.485L150.727 111.749V117.724L148.765 116.285Z" fill="#979797"/>
<path fill-rule="evenodd" clip-rule="evenodd" d="M140.13 132.422L169.61 113.886L171.528 115.108L142.093 133.643L140.13 132.422Z" fill="#E3E3E3"/>
<path fill-rule="evenodd" clip-rule="evenodd" d="M146.802 136.608L171.529 120.952V115.107L142.093 133.643L146.802 136.608Z" fill="#7F7F7F"/>
<path fill-rule="evenodd" clip-rule="evenodd" d="M136.816 137.524L124.388 129.369V124.92L139.476 134.472L136.816 137.524Z" fill="#B0B0B0"/>
<path fill-rule="evenodd" clip-rule="evenodd" d="M138.866 134.123L124.431 125.008L126.394 123.787L140.872 132.902L138.866 134.123Z" fill="#E3E3E3"/>
<path fill-rule="evenodd" clip-rule="evenodd" d="M165.38 150.695L151.425 141.886L153.387 140.665L167.778 149.387L165.38 150.695Z" fill="#E3E3E3"/>
<path fill-rule="evenodd" clip-rule="evenodd" d="M127.004 124.179L141.482 115.064L143.445 116.285L128.967 125.531L127.004 124.179Z" fill="#E3E3E3"/>
<path fill-rule="evenodd" clip-rule="evenodd" d="M100.359 107.388L116.974 96.834L118.937 98.0551L102.235 108.566L100.359 107.388Z" fill="#E3E3E3"/>
<path fill-rule="evenodd" clip-rule="evenodd" d="M102.235 111.008L72.9297 92.6035L75.1101 91.5132L105.636 110.703L102.235 111.008Z" fill="#E3E3E3"/>
<path fill-rule="evenodd" clip-rule="evenodd" d="M105.636 112.491L118.937 104.073V98.0549L102.235 108.566L105.593 110.659V112.491H105.636Z" fill="#7F7F7F"/>
<path fill-rule="evenodd" clip-rule="evenodd" d="M129.621 80.043V74.0244L131.714 75.3764V81.3949L129.621 80.043Z" fill="#979797"/>
<path fill-rule="evenodd" clip-rule="evenodd" d="M131.757 81.3951L146.628 72.1492V65.9126L131.714 75.3765L131.757 81.3951Z" fill="#7F7F7F"/>
<path fill-rule="evenodd" clip-rule="evenodd" d="M129.621 74.0243L144.579 64.604L146.628 65.9124L131.714 75.3763L129.621 74.0243Z" fill="#E3E3E3"/>
<path fill-rule="evenodd" clip-rule="evenodd" d="M67.2237 66.4333L67.2235 88.2084L65.7219 87.4575L65.7219 65.6823L67.2237 66.4333Z" fill="#AF8643"/>
<path fill-rule="evenodd" clip-rule="evenodd" d="M67.2242 66.4334L67.2242 88.2085L68.7259 87.4577L68.7259 65.6825L67.2242 66.4334Z" fill="#835F25"/>
<path fill-rule="evenodd" clip-rule="evenodd" d="M65.7219 65.6824L67.2236 66.4333L68.7255 65.6824L67.2236 64.9316L65.7219 65.6824Z" fill="#835F25"/>
<path fill-rule="evenodd" clip-rule="evenodd" d="M76.234 60.4265L76.2338 82.2016L74.7321 81.4506L74.7321 59.6755L76.234 60.4265Z" fill="#AF8643"/>
<path fill-rule="evenodd" clip-rule="evenodd" d="M76.2345 60.4266L76.2345 82.2017L77.7362 81.4508L77.7362 59.6757L76.2345 60.4266Z" fill="#835F25"/>
<path fill-rule="evenodd" clip-rule="evenodd" d="M74.7322 59.6756L76.2339 60.4265L77.7357 59.6756L76.2339 58.9247L74.7322 59.6756Z" fill="#835F25"/>
<path fill-rule="evenodd" clip-rule="evenodd" d="M86.7467 53.6686L86.7465 75.4438L85.2448 74.6928L85.2448 52.9177L86.7467 53.6686Z" fill="#AF8643"/>
<path fill-rule="evenodd" clip-rule="evenodd" d="M86.7472 53.6688L86.7472 75.4439L88.2489 74.693L88.2489 52.9179L86.7472 53.6688Z" fill="#835F25"/>
<path fill-rule="evenodd" clip-rule="evenodd" d="M85.2449 52.9178L86.7466 53.6686L88.2484 52.9178L86.7466 52.1669L85.2449 52.9178Z" fill="#835F25"/>
<path fill-rule="evenodd" clip-rule="evenodd" d="M96.5079 47.6618L96.5077 69.437L95.006 68.686L95.006 46.9108L96.5079 47.6618Z" fill="#AF8643"/>
<path fill-rule="evenodd" clip-rule="evenodd" d="M96.5084 47.6619L96.5084 69.437L98.0101 68.6862L98.0101 46.911L96.5084 47.6619Z" fill="#835F25"/>
<path fill-rule="evenodd" clip-rule="evenodd" d="M95.0061 46.9109L96.5078 47.6618L98.0097 46.9109L96.5078 46.1601L95.0061 46.9109Z" fill="#835F25"/>
<path fill-rule="evenodd" clip-rule="evenodd" d="M107.02 40.904L107.019 62.6791L105.518 61.9282L105.518 40.153L107.02 40.904Z" fill="#AF8643"/>
<path fill-rule="evenodd" clip-rule="evenodd" d="M107.02 40.9041L107.02 62.6792L108.522 61.9284L108.522 40.1532L107.02 40.9041Z" fill="#835F25"/>
<path fill-rule="evenodd" clip-rule="evenodd" d="M105.518 40.1531L107.02 40.904L108.521 40.1531L107.02 39.4023L105.518 40.1531Z" fill="#835F25"/>
<path fill-rule="evenodd" clip-rule="evenodd" d="M116.03 34.8969L116.03 56.6721L114.529 55.9211L114.528 34.1459L116.03 34.8969Z" fill="#AF8643"/>
<path fill-rule="evenodd" clip-rule="evenodd" d="M116.031 34.897L116.031 56.6722L117.533 55.9213L117.533 34.1461L116.031 34.897Z" fill="#835F25"/>
<path fill-rule="evenodd" clip-rule="evenodd" d="M114.529 34.1461L116.03 34.8969L117.532 34.146L116.03 33.3952L114.529 34.1461Z" fill="#835F25"/>
<path fill-rule="evenodd" clip-rule="evenodd" d="M125.041 30.3918L125.04 52.1669L123.539 51.416L123.539 29.6408L125.041 30.3918Z" fill="#AF8643"/>
<path fill-rule="evenodd" clip-rule="evenodd" d="M125.041 30.3919L125.041 52.167L126.543 51.4162L126.543 29.641L125.041 30.3919Z" fill="#835F25"/>
<path fill-rule="evenodd" clip-rule="evenodd" d="M123.539 29.6409L125.041 30.3918L126.542 29.6409L125.041 28.8901L123.539 29.6409Z" fill="#835F25"/>
<path fill-rule="evenodd" clip-rule="evenodd" d="M158.079 52.1669L158.079 73.9421L156.577 73.1911L156.577 51.416L158.079 52.1669Z" fill="#AF8643"/>
<path fill-rule="evenodd" clip-rule="evenodd" d="M158.08 52.1671L158.08 73.9422L159.581 73.1913L159.581 51.4162L158.08 52.1671Z" fill="#835F25"/>
<path fill-rule="evenodd" clip-rule="evenodd" d="M156.577 51.4161L158.079 52.1669L159.581 51.416L158.079 50.6652L156.577 51.4161Z" fill="#835F25"/>
<path fill-rule="evenodd" clip-rule="evenodd" d="M135.553 37.7093L135.553 57.8875L134.051 57.1916L134.051 37.0134L135.553 37.7093Z" fill="#AF8643"/>
<path fill-rule="evenodd" clip-rule="evenodd" d="M135.554 37.7093L135.554 57.8875L137.056 57.1917L137.056 37.0135L135.554 37.7093Z" fill="#835F25"/>
<path fill-rule="evenodd" clip-rule="evenodd" d="M134.051 37.0135L135.553 37.7093L137.055 37.0135L135.553 36.3177L134.051 37.0135Z" fill="#835F25"/>
<path fill-rule="evenodd" clip-rule="evenodd" d="M145.314 45.2181L145.314 65.3963L143.812 64.7004L143.812 44.5222L145.314 45.2181Z" fill="#AF8643"/>
<path fill-rule="evenodd" clip-rule="evenodd" d="M145.315 45.2181L145.315 65.3963L146.816 64.7005L146.816 44.5223L145.315 45.2181Z" fill="#835F25"/>
<path fill-rule="evenodd" clip-rule="evenodd" d="M143.812 44.5223L145.314 45.2181L146.816 44.5223L145.314 43.8265L143.812 44.5223Z" fill="#835F25"/>
<path fill-rule="evenodd" clip-rule="evenodd" d="M175.349 61.9282L175.349 83.7033L173.847 82.9524L173.847 61.1772L175.349 61.9282Z" fill="#AF8643"/>
<path fill-rule="evenodd" clip-rule="evenodd" d="M175.349 61.9283L175.349 83.7034L176.851 82.9525L176.851 61.1774L175.349 61.9283Z" fill="#835F25"/>
<path fill-rule="evenodd" clip-rule="evenodd" d="M173.847 61.1773L175.349 61.9282L176.85 61.1773L175.349 60.4264L173.847 61.1773Z" fill="#835F25"/>
<path fill-rule="evenodd" clip-rule="evenodd" d="M196.374 74.6928L196.373 96.468L194.872 95.717L194.872 73.9418L196.374 74.6928Z" fill="#AF8643"/>
<path fill-rule="evenodd" clip-rule="evenodd" d="M196.375 74.6929L196.375 96.4681L197.876 95.7172L197.876 73.942L196.375 74.6929Z" fill="#835F25"/>
<path fill-rule="evenodd" clip-rule="evenodd" d="M194.872 73.942L196.374 74.6928L197.875 73.9419L196.374 73.1911L194.872 73.942Z" fill="#835F25"/>
<path fill-rule="evenodd" clip-rule="evenodd" d="M185.109 67.9352L185.109 89.7104L183.608 88.9594L183.608 67.1843L185.109 67.9352Z" fill="#AF8643"/>
<path fill-rule="evenodd" clip-rule="evenodd" d="M185.11 67.9354L185.11 89.7105L186.612 88.9596L186.612 67.1845L185.11 67.9354Z" fill="#835F25"/>
<path fill-rule="evenodd" clip-rule="evenodd" d="M183.608 67.1844L185.109 67.9352L186.611 67.1844L185.109 66.4335L183.608 67.1844Z" fill="#835F25"/>
<path fill-rule="evenodd" clip-rule="evenodd" d="M209.138 82.9526L209.138 104.728L207.636 103.977L207.636 82.2016L209.138 82.9526Z" fill="#AF8643"/>
<path fill-rule="evenodd" clip-rule="evenodd" d="M209.138 82.9527L209.138 104.728L210.64 103.977L210.64 82.2018L209.138 82.9527Z" fill="#835F25"/>
<path fill-rule="evenodd" clip-rule="evenodd" d="M207.636 82.2017L209.138 82.9526L210.64 82.2017L209.138 81.4509L207.636 82.2017Z" fill="#835F25"/>
<path fill-rule="evenodd" clip-rule="evenodd" d="M223.404 91.9628L223.404 113.738L221.903 112.987L221.903 91.2119L223.404 91.9628Z" fill="#AF8643"/>
<path fill-rule="evenodd" clip-rule="evenodd" d="M223.405 91.963L223.405 113.738L224.907 112.987L224.907 91.2121L223.405 91.963Z" fill="#835F25"/>
<path fill-rule="evenodd" clip-rule="evenodd" d="M221.903 91.212L223.404 91.9628L224.906 91.2119L223.404 90.4611L221.903 91.212Z" fill="#835F25"/>
<path fill-rule="evenodd" clip-rule="evenodd" d="M206.885 101.724L206.885 123.499L205.383 122.748L205.383 100.973L206.885 101.724Z" fill="#AF8643"/>
<path fill-rule="evenodd" clip-rule="evenodd" d="M206.886 101.724L206.886 123.499L208.388 122.748L208.388 100.973L206.886 101.724Z" fill="#835F25"/>
<path fill-rule="evenodd" clip-rule="evenodd" d="M205.384 100.973L206.885 101.724L208.387 100.973L206.885 100.222L205.384 100.973Z" fill="#835F25"/>
<path fill-rule="evenodd" clip-rule="evenodd" d="M215.144 97.2189L215.144 118.994L213.642 118.243L213.642 96.468L215.144 97.2189Z" fill="#AF8643"/>
<path fill-rule="evenodd" clip-rule="evenodd" d="M215.145 97.2191L215.145 118.994L216.646 118.243L216.646 96.4682L215.145 97.2191Z" fill="#835F25"/>
<path fill-rule="evenodd" clip-rule="evenodd" d="M213.642 96.4681L215.144 97.2189L216.646 96.4681L215.144 95.7172L213.642 96.4681Z" fill="#835F25"/>
<path fill-rule="evenodd" clip-rule="evenodd" d="M197.876 107.731L197.875 129.506L196.374 128.755L196.374 106.98L197.876 107.731Z" fill="#AF8643"/>
<path fill-rule="evenodd" clip-rule="evenodd" d="M197.876 107.731L197.876 129.506L199.378 128.756L199.378 106.98L197.876 107.731Z" fill="#835F25"/>
<path fill-rule="evenodd" clip-rule="evenodd" d="M196.373 106.98L197.875 107.731L199.377 106.98L197.875 106.229L196.373 106.98Z" fill="#835F25"/>
<path fill-rule="evenodd" clip-rule="evenodd" d="M187.362 114.489L187.362 136.264L185.861 135.513L185.861 113.738L187.362 114.489Z" fill="#AF8643"/>
<path fill-rule="evenodd" clip-rule="evenodd" d="M187.363 114.489L187.363 136.264L188.865 135.513L188.865 113.738L187.363 114.489Z" fill="#835F25"/>
<path fill-rule="evenodd" clip-rule="evenodd" d="M185.861 113.738L187.362 114.489L188.864 113.738L187.362 112.987L185.861 113.738Z" fill="#835F25"/>
<path fill-rule="evenodd" clip-rule="evenodd" d="M176.1 121.247L176.1 143.022L174.598 142.271L174.598 120.496L176.1 121.247Z" fill="#AF8643"/>
<path fill-rule="evenodd" clip-rule="evenodd" d="M176.1 121.247L176.1 143.022L177.602 142.271L177.602 120.496L176.1 121.247Z" fill="#835F25"/>
<path fill-rule="evenodd" clip-rule="evenodd" d="M174.598 120.496L176.1 121.247L177.601 120.496L176.1 119.745L174.598 120.496Z" fill="#835F25"/>
<path fill-rule="evenodd" clip-rule="evenodd" d="M165.588 128.005L165.588 149.78L164.086 149.029L164.086 127.254L165.588 128.005Z" fill="#AF8643"/>
<path fill-rule="evenodd" clip-rule="evenodd" d="M165.588 128.005L165.588 149.78L167.09 149.029L167.09 127.254L165.588 128.005Z" fill="#835F25"/>
<path fill-rule="evenodd" clip-rule="evenodd" d="M164.086 127.254L165.587 128.005L167.089 127.254L165.587 126.503L164.086 127.254Z" fill="#835F25"/>
<path fill-rule="evenodd" clip-rule="evenodd" d="M128.045 103.977L128.044 125.752L126.543 125.001L126.543 103.226L128.045 103.977Z" fill="#AF8643"/>
<path fill-rule="evenodd" clip-rule="evenodd" d="M128.045 103.977L128.045 125.752L129.547 125.001L129.547 103.226L128.045 103.977Z" fill="#835F25"/>
<path fill-rule="evenodd" clip-rule="evenodd" d="M126.543 103.226L128.044 103.977L129.546 103.226L128.044 102.475L126.543 103.226Z" fill="#835F25"/>
<path fill-rule="evenodd" clip-rule="evenodd" d="M140.809 112.236L140.809 134.011L139.307 133.26L139.307 111.485L140.809 112.236Z" fill="#AF8643"/>
<path fill-rule="evenodd" clip-rule="evenodd" d="M140.809 112.236L140.809 134.012L142.311 133.261L142.311 111.485L140.809 112.236Z" fill="#835F25"/>
<path fill-rule="evenodd" clip-rule="evenodd" d="M139.307 111.485L140.809 112.236L142.31 111.485L140.809 110.735L139.307 111.485Z" fill="#835F25"/>
<path fill-rule="evenodd" clip-rule="evenodd" d="M153.573 120.496L153.573 142.271L152.071 141.52L152.071 119.745L153.573 120.496Z" fill="#AF8643"/>
<path fill-rule="evenodd" clip-rule="evenodd" d="M153.574 120.496L153.574 142.271L155.076 141.52L155.076 119.745L153.574 120.496Z" fill="#835F25"/>
<path fill-rule="evenodd" clip-rule="evenodd" d="M152.072 119.745L153.573 120.496L155.075 119.745L153.573 118.994L152.072 119.745Z" fill="#835F25"/>
<path fill-rule="evenodd" clip-rule="evenodd" d="M153.573 87.4577L153.573 109.233L152.071 108.482L152.071 86.7067L153.573 87.4577Z" fill="#AF8643"/>
<path fill-rule="evenodd" clip-rule="evenodd" d="M153.574 87.4578L153.574 109.233L155.076 108.482L155.076 86.7069L153.574 87.4578Z" fill="#835F25"/>
<path fill-rule="evenodd" clip-rule="evenodd" d="M152.072 86.7068L153.573 87.4577L155.075 86.7068L153.573 85.956L152.072 86.7068Z" fill="#835F25"/>
<path fill-rule="evenodd" clip-rule="evenodd" d="M166.339 95.7172L166.339 117.492L164.837 116.741L164.837 94.9663L166.339 95.7172Z" fill="#AF8643"/>
<path fill-rule="evenodd" clip-rule="evenodd" d="M166.34 95.7174L166.34 117.492L167.842 116.742L167.842 94.9665L166.34 95.7174Z" fill="#835F25"/>
<path fill-rule="evenodd" clip-rule="evenodd" d="M164.837 94.9664L166.339 95.7172L167.841 94.9663L166.339 94.2155L164.837 94.9664Z" fill="#835F25"/>
<path fill-rule="evenodd" clip-rule="evenodd" d="M182.106 87.4577L182.106 109.233L180.604 108.482L180.604 86.7067L182.106 87.4577Z" fill="#AF8643"/>
<path fill-rule="evenodd" clip-rule="evenodd" d="M182.107 87.4578L182.107 109.233L183.608 108.482L183.608 86.7069L182.107 87.4578Z" fill="#835F25"/>
<path fill-rule="evenodd" clip-rule="evenodd" d="M180.604 86.7068L182.106 87.4577L183.608 86.7068L182.106 85.956L180.604 86.7068Z" fill="#835F25"/>
<path fill-rule="evenodd" clip-rule="evenodd" d="M75.483 71.6894L75.4828 93.4645L73.9811 92.7136L73.9811 70.9384L75.483 71.6894Z" fill="#AF8643"/>
<path fill-rule="evenodd" clip-rule="evenodd" d="M75.4835 71.6895L75.4835 93.4646L76.9852 92.7138L76.9852 70.9386L75.4835 71.6895Z" fill="#835F25"/>
<path fill-rule="evenodd" clip-rule="evenodd" d="M73.9812 70.9385L75.4829 71.6894L76.9848 70.9385L75.4829 70.1877L73.9812 70.9385Z" fill="#835F25"/>
<path fill-rule="evenodd" clip-rule="evenodd" d="M84.4937 77.6965L84.4936 99.4716L82.9919 98.7207L82.9919 76.9455L84.4937 77.6965Z" fill="#AF8643"/>
<path fill-rule="evenodd" clip-rule="evenodd" d="M84.4942 77.6966L84.4942 99.4717L85.996 98.7208L85.9959 76.9457L84.4942 77.6966Z" fill="#835F25"/>
<path fill-rule="evenodd" clip-rule="evenodd" d="M82.9919 76.9456L84.4937 77.6965L85.9955 76.9456L84.4937 76.1947L82.9919 76.9456Z" fill="#835F25"/>
<path fill-rule="evenodd" clip-rule="evenodd" d="M94.255 83.7033L94.2548 105.478L92.7531 104.727L92.7531 82.9523L94.255 83.7033Z" fill="#AF8643"/>
<path fill-rule="evenodd" clip-rule="evenodd" d="M94.2555 83.7034L94.2555 105.479L95.7572 104.728L95.7572 82.9525L94.2555 83.7034Z" fill="#835F25"/>
<path fill-rule="evenodd" clip-rule="evenodd" d="M92.7532 82.9524L94.2549 83.7033L95.7567 82.9524L94.2549 82.2016L92.7532 82.9524Z" fill="#835F25"/>
<path fill-rule="evenodd" clip-rule="evenodd" d="M103.266 88.9594L103.266 110.735L101.764 109.984L101.764 88.2084L103.266 88.9594Z" fill="#AF8643"/>
<path fill-rule="evenodd" clip-rule="evenodd" d="M103.267 88.9595L103.267 110.735L104.768 109.984L104.768 88.2086L103.267 88.9595Z" fill="#835F25"/>
<path fill-rule="evenodd" clip-rule="evenodd" d="M101.764 88.2086L103.266 88.9594L104.768 88.2085L103.266 87.4577L101.764 88.2086Z" fill="#835F25"/>
<path fill-rule="evenodd" clip-rule="evenodd" d="M107.77 82.9523L107.77 104.727L106.268 103.977L106.268 82.2014L107.77 82.9523Z" fill="#AF8643"/>
<path fill-rule="evenodd" clip-rule="evenodd" d="M107.771 82.9525L107.771 104.728L109.272 103.977L109.272 82.2016L107.771 82.9525Z" fill="#835F25"/>
<path fill-rule="evenodd" clip-rule="evenodd" d="M106.268 82.2015L107.77 82.9523L109.272 82.2015L107.77 81.4506L106.268 82.2015Z" fill="#835F25"/>
<path fill-rule="evenodd" clip-rule="evenodd" d="M116.03 77.6965L116.03 99.4716L114.529 98.7207L114.528 76.9455L116.03 77.6965Z" fill="#AF8643"/>
<path fill-rule="evenodd" clip-rule="evenodd" d="M116.031 77.6966L116.031 99.4717L117.533 98.7208L117.533 76.9457L116.031 77.6966Z" fill="#835F25"/>
<path fill-rule="evenodd" clip-rule="evenodd" d="M114.529 76.9456L116.03 77.6965L117.532 76.9456L116.03 76.1947L114.529 76.9456Z" fill="#835F25"/>
<path fill-rule="evenodd" clip-rule="evenodd" d="M168.999 64.6477L158.533 71.2769L154.085 68.4856L164.507 61.9001L168.999 64.6477Z" fill="#832C2A"/>
<path fill-rule="evenodd" clip-rule="evenodd" d="M159.1 70.8844V65.302L163.592 68.0496L159.1 70.8844Z" fill="#9A3227"/>
<path fill-rule="evenodd" clip-rule="evenodd" d="M122.855 102.123V100.085L63.6622 62.7632L63.6126 64.8504L122.855 102.123Z" fill="#835F25"/>
<path fill-rule="evenodd" clip-rule="evenodd" d="M63.6132 62.7634L122.806 100.085L125.885 98.1472L66.692 60.8252L63.6132 62.7634Z" fill="#C4984C"/>
<path fill-rule="evenodd" clip-rule="evenodd" d="M122.856 102.123V100.085L125.935 98.1472V100.185L122.856 102.123Z" fill="#B08743"/>
<path fill-rule="evenodd" clip-rule="evenodd" d="M137.122 92.3615V90.3239L77.9284 53.002L77.8787 55.0892L137.122 92.3615Z" fill="#835F25"/>
<path fill-rule="evenodd" clip-rule="evenodd" d="M77.8793 53.0021L137.073 90.3241L140.151 88.3859L80.9581 51.064L77.8793 53.0021Z" fill="#C4984C"/>
<path fill-rule="evenodd" clip-rule="evenodd" d="M137.122 92.3617V90.3241L140.201 88.386V90.4235L137.122 92.3617Z" fill="#B08743"/>
<path fill-rule="evenodd" clip-rule="evenodd" d="M152.139 83.3512V81.3137L92.9459 43.9917L92.8963 46.079L152.139 83.3512Z" fill="#835F25"/>
<path fill-rule="evenodd" clip-rule="evenodd" d="M92.8969 43.9919L152.09 81.3138L155.169 79.3757L95.9757 42.0537L92.8969 43.9919Z" fill="#C4984C"/>
<path fill-rule="evenodd" clip-rule="evenodd" d="M152.139 83.3514V81.3139L155.218 79.3757V81.4133L152.139 83.3514Z" fill="#B08743"/>
<path fill-rule="evenodd" clip-rule="evenodd" d="M164.904 75.0914V73.0539L105.711 35.7319L105.661 37.8192L164.904 75.0914Z" fill="#835F25"/>
<path fill-rule="evenodd" clip-rule="evenodd" d="M105.662 35.7321L164.855 73.0541L167.934 71.1159L108.74 33.7939L105.662 35.7321Z" fill="#C4984C"/>
<path fill-rule="evenodd" clip-rule="evenodd" d="M164.904 75.0917V73.0541L167.983 71.116V73.1535L164.904 75.0917Z" fill="#B08743"/>
<path fill-rule="evenodd" clip-rule="evenodd" d="M176.918 67.5829V65.5453L117.725 28.2234L117.675 30.3106L176.918 67.5829Z" fill="#835F25"/>
<path fill-rule="evenodd" clip-rule="evenodd" d="M117.676 28.2236L176.869 65.5455L179.948 63.6074L120.755 26.2854L117.676 28.2236Z" fill="#C4984C"/>
<path fill-rule="evenodd" clip-rule="evenodd" d="M176.918 67.5831V65.5456L179.997 63.6074V65.645L176.918 67.5831Z" fill="#B08743"/>
<path fill-rule="evenodd" clip-rule="evenodd" d="M171.662 132.908V130.871L112.469 93.5488L112.419 95.6361L171.662 132.908Z" fill="#835F25"/>
<path fill-rule="evenodd" clip-rule="evenodd" d="M112.42 93.549L171.613 130.871L174.692 128.933L115.499 91.6108L112.42 93.549Z" fill="#C4984C"/>
<path fill-rule="evenodd" clip-rule="evenodd" d="M171.662 132.909V130.871L174.741 128.933V130.97L171.662 132.909Z" fill="#B08743"/>
<path fill-rule="evenodd" clip-rule="evenodd" d="M185.928 123.147V121.11L126.735 83.7876L126.685 85.8749L185.928 123.147Z" fill="#835F25"/>
<path fill-rule="evenodd" clip-rule="evenodd" d="M126.686 83.7878L185.879 121.11L188.958 119.172L129.765 81.8496L126.686 83.7878Z" fill="#C4984C"/>
<path fill-rule="evenodd" clip-rule="evenodd" d="M185.929 123.147V121.11L189.007 119.172V121.209L185.929 123.147Z" fill="#B08743"/>
<path fill-rule="evenodd" clip-rule="evenodd" d="M200.945 114.137V112.099L141.752 74.7771L141.702 76.8644L200.945 114.137Z" fill="#835F25"/>
<path fill-rule="evenodd" clip-rule="evenodd" d="M141.703 74.7773L200.896 112.099L203.975 110.161L144.781 72.8391L141.703 74.7773Z" fill="#C4984C"/>
<path fill-rule="evenodd" clip-rule="evenodd" d="M200.945 114.137V112.099L204.024 110.161V112.199L200.945 114.137Z" fill="#B08743"/>
<path fill-rule="evenodd" clip-rule="evenodd" d="M213.71 105.877V103.84L154.517 66.5176L154.467 68.6048L213.71 105.877Z" fill="#835F25"/>
<path fill-rule="evenodd" clip-rule="evenodd" d="M154.468 66.5177L213.661 103.84L216.74 101.902L157.547 64.5796L154.468 66.5177Z" fill="#C4984C"/>
<path fill-rule="evenodd" clip-rule="evenodd" d="M213.71 105.877V103.84L216.789 101.902V103.939L213.71 105.877Z" fill="#B08743"/>
<path fill-rule="evenodd" clip-rule="evenodd" d="M225.724 98.3685V96.331L166.53 59.009L166.481 61.0963L225.724 98.3685Z" fill="#835F25"/>
<path fill-rule="evenodd" clip-rule="evenodd" d="M166.481 59.0092L225.674 96.3312L228.753 94.393L169.56 57.071L166.481 59.0092Z" fill="#C4984C"/>
<path fill-rule="evenodd" clip-rule="evenodd" d="M225.724 98.3688V96.3312L228.803 94.3931V96.4306L225.724 98.3688Z" fill="#B08743"/>
<path fill-rule="evenodd" clip-rule="evenodd" d="M139.526 113.386V111.348L198.719 74.0264L198.769 76.1136L139.526 113.386Z" fill="#835F25"/>
<path fill-rule="evenodd" clip-rule="evenodd" d="M198.768 74.0265L139.575 111.349L136.496 109.41L195.689 72.0884L198.768 74.0265Z" fill="#B89559"/>
<path fill-rule="evenodd" clip-rule="evenodd" d="M139.526 113.386V111.349L136.447 109.41V111.448L139.526 113.386Z" fill="#B08743"/>
<path fill-rule="evenodd" clip-rule="evenodd" d="M101.232 90.8598V88.8222L160.425 51.5002L160.475 53.5875L101.232 90.8598Z" fill="#835F25"/>
<path fill-rule="evenodd" clip-rule="evenodd" d="M160.474 51.5004L101.281 88.8224L98.2021 86.8842L157.395 49.5623L160.474 51.5004Z" fill="#B89559"/>
<path fill-rule="evenodd" clip-rule="evenodd" d="M101.232 90.86V88.8224L98.1528 86.8843V88.9218L101.232 90.86Z" fill="#B08743"/>
<path fill-rule="evenodd" clip-rule="evenodd" d="M68.1934 67.5829V65.5453L127.387 28.2234L127.436 30.3106L68.1934 67.5829Z" fill="#835F25"/>
<path fill-rule="evenodd" clip-rule="evenodd" d="M127.436 28.2236L68.2424 65.5455L65.1636 63.6074L124.357 26.2854L127.436 28.2236Z" fill="#B89559"/>
<path fill-rule="evenodd" clip-rule="evenodd" d="M68.1931 67.5831V65.5456L65.1143 63.6074V65.645L68.1931 67.5831Z" fill="#B08743"/>
<path fill-rule="evenodd" clip-rule="evenodd" d="M88.4663 82.6002V80.5627L147.66 43.2407L147.709 45.328L88.4663 82.6002Z" fill="#835F25"/>
<path fill-rule="evenodd" clip-rule="evenodd" d="M147.709 43.2409L88.5154 80.5629L85.4365 78.6247L144.63 41.3027L147.709 43.2409Z" fill="#B89559"/>
<path fill-rule="evenodd" clip-rule="evenodd" d="M88.466 82.6005V80.5629L85.3872 78.6248V80.6623L88.466 82.6005Z" fill="#B08743"/>
<path fill-rule="evenodd" clip-rule="evenodd" d="M78.7051 75.0914V73.0539L137.898 35.7319L137.948 37.8192L78.7051 75.0914Z" fill="#835F25"/>
<path fill-rule="evenodd" clip-rule="evenodd" d="M137.947 35.7321L78.7541 73.0541L75.6753 71.1159L134.869 33.7939L137.947 35.7321Z" fill="#B89559"/>
<path fill-rule="evenodd" clip-rule="evenodd" d="M78.7048 75.0917V73.0541L75.626 71.116V73.1535L78.7048 75.0917Z" fill="#B08743"/>
<path fill-rule="evenodd" clip-rule="evenodd" d="M127.512 105.877V103.84L186.705 66.5176L186.755 68.6048L127.512 105.877Z" fill="#835F25"/>
<path fill-rule="evenodd" clip-rule="evenodd" d="M186.754 66.5177L127.561 103.84L124.482 101.902L183.676 64.5796L186.754 66.5177Z" fill="#B89559"/>
<path fill-rule="evenodd" clip-rule="evenodd" d="M127.511 105.877V103.84L124.433 101.902V103.939L127.511 105.877Z" fill="#B08743"/>
<path fill-rule="evenodd" clip-rule="evenodd" d="M114.748 99.1193V97.0817L173.941 59.7598L173.99 61.847L114.748 99.1193Z" fill="#835F25"/>
<path fill-rule="evenodd" clip-rule="evenodd" d="M173.99 59.7599L114.797 97.0819L111.718 95.1437L170.911 57.8218L173.99 59.7599Z" fill="#B89559"/>
<path fill-rule="evenodd" clip-rule="evenodd" d="M114.747 99.1195V97.082L111.668 95.1438V97.1814L114.747 99.1195Z" fill="#B08743"/>
<path fill-rule="evenodd" clip-rule="evenodd" d="M152.29 121.645V119.608L211.483 82.2859L211.533 84.3731L152.29 121.645Z" fill="#835F25"/>
<path fill-rule="evenodd" clip-rule="evenodd" d="M211.532 82.2861L152.339 119.608L149.26 117.67L208.453 80.3479L211.532 82.2861Z" fill="#B89559"/>
<path fill-rule="evenodd" clip-rule="evenodd" d="M152.29 121.646V119.608L149.211 117.67V119.707L152.29 121.646Z" fill="#B08743"/>
<path fill-rule="evenodd" clip-rule="evenodd" d="M165.806 129.154V127.116L224.999 89.7944L225.049 91.8817L165.806 129.154Z" fill="#835F25"/>
<path fill-rule="evenodd" clip-rule="evenodd" d="M225.048 89.7946L165.855 127.117L162.776 125.178L221.969 87.8564L225.048 89.7946Z" fill="#B89559"/>
<path fill-rule="evenodd" clip-rule="evenodd" d="M165.805 129.154V127.117L162.727 125.178V127.216L165.805 129.154Z" fill="#B08743"/>
<path fill-rule="evenodd" clip-rule="evenodd" d="M67.2237 43.1564L67.2235 64.9316L65.7219 64.1806L65.7219 42.4055L67.2237 43.1564Z" fill="#AF8643"/>
<path fill-rule="evenodd" clip-rule="evenodd" d="M67.2242 43.1566L67.2242 64.9317L68.7259 64.1808L68.7259 42.4057L67.2242 43.1566Z" fill="#835F25"/>
<path fill-rule="evenodd" clip-rule="evenodd" d="M65.7219 42.4056L67.2236 43.1564L68.7255 42.4056L67.2236 41.6547L65.7219 42.4056Z" fill="#835F25"/>
<path fill-rule="evenodd" clip-rule="evenodd" d="M76.234 37.1496L76.2338 58.9248L74.7321 58.1738L74.7321 36.3986L76.234 37.1496Z" fill="#AF8643"/>
<path fill-rule="evenodd" clip-rule="evenodd" d="M76.2345 37.1497L76.2345 58.9248L77.7362 58.174L77.7362 36.3988L76.2345 37.1497Z" fill="#835F25"/>
<path fill-rule="evenodd" clip-rule="evenodd" d="M74.7322 36.3987L76.2339 37.1496L77.7357 36.3987L76.2339 35.6479L74.7322 36.3987Z" fill="#835F25"/>
<path fill-rule="evenodd" clip-rule="evenodd" d="M86.7467 30.3918L86.7465 52.1669L85.2448 51.416L85.2448 29.6408L86.7467 30.3918Z" fill="#AF8643"/>
<path fill-rule="evenodd" clip-rule="evenodd" d="M86.7472 30.3919L86.7472 52.167L88.2489 51.4162L88.2489 29.641L86.7472 30.3919Z" fill="#835F25"/>
<path fill-rule="evenodd" clip-rule="evenodd" d="M85.2449 29.6409L86.7466 30.3918L88.2484 29.6409L86.7466 28.8901L85.2449 29.6409Z" fill="#835F25"/>
<path fill-rule="evenodd" clip-rule="evenodd" d="M96.5079 24.385L96.5077 46.1601L95.006 45.4091L95.006 23.634L96.5079 24.385Z" fill="#AF8643"/>
<path fill-rule="evenodd" clip-rule="evenodd" d="M96.5084 24.3851L96.5084 46.1602L98.0101 45.4093L98.0101 23.6342L96.5084 24.3851Z" fill="#835F25"/>
<path fill-rule="evenodd" clip-rule="evenodd" d="M95.0061 23.6341L96.5078 24.385L98.0097 23.6341L96.5078 22.8832L95.0061 23.6341Z" fill="#835F25"/>
<path fill-rule="evenodd" clip-rule="evenodd" d="M107.02 17.6271L107.019 39.4023L105.518 38.6513L105.518 16.8762L107.02 17.6271Z" fill="#AF8643"/>
<path fill-rule="evenodd" clip-rule="evenodd" d="M107.02 17.6273L107.02 39.4024L108.522 38.6515L108.522 16.8764L107.02 17.6273Z" fill="#835F25"/>
<path fill-rule="evenodd" clip-rule="evenodd" d="M105.518 16.8763L107.02 17.6271L108.521 16.8763L107.02 16.1254L105.518 16.8763Z" fill="#835F25"/>
<path fill-rule="evenodd" clip-rule="evenodd" d="M116.03 11.6201L116.03 33.3952L114.529 32.6442L114.528 10.8691L116.03 11.6201Z" fill="#AF8643"/>
<path fill-rule="evenodd" clip-rule="evenodd" d="M116.031 11.6202L116.031 33.3953L117.533 32.6444L117.533 10.8693L116.031 11.6202Z" fill="#835F25"/>
<path fill-rule="evenodd" clip-rule="evenodd" d="M114.529 10.8692L116.03 11.6201L117.532 10.8692L116.03 10.1183L114.529 10.8692Z" fill="#835F25"/>
<path fill-rule="evenodd" clip-rule="evenodd" d="M125.041 7.11494L125.04 28.8901L123.539 28.1391L123.539 6.36396L125.041 7.11494Z" fill="#AF8643"/>
<path fill-rule="evenodd" clip-rule="evenodd" d="M125.041 7.11506L125.041 28.8902L126.543 28.1393L126.543 6.36416L125.041 7.11506Z" fill="#835F25"/>
<path fill-rule="evenodd" clip-rule="evenodd" d="M123.539 6.36407L125.041 7.11494L126.542 6.36405L125.041 5.6132L123.539 6.36407Z" fill="#835F25"/>
<path fill-rule="evenodd" clip-rule="evenodd" d="M158.079 28.8901L158.079 50.6652L156.577 49.9143L156.577 28.1391L158.079 28.8901Z" fill="#AF8643"/>
<path fill-rule="evenodd" clip-rule="evenodd" d="M158.08 28.8902L158.08 50.6653L159.581 49.9145L159.581 28.1393L158.08 28.8902Z" fill="#835F25"/>
<path fill-rule="evenodd" clip-rule="evenodd" d="M156.577 28.1392L158.079 28.8901L159.581 28.1392L158.079 27.3884L156.577 28.1392Z" fill="#835F25"/>
<path fill-rule="evenodd" clip-rule="evenodd" d="M135.553 14.4324L135.553 34.6106L134.051 33.9147L134.051 13.7365L135.553 14.4324Z" fill="#AF8643"/>
<path fill-rule="evenodd" clip-rule="evenodd" d="M135.554 14.4325L135.554 34.6107L137.056 33.9149L137.056 13.7367L135.554 14.4325Z" fill="#835F25"/>
<path fill-rule="evenodd" clip-rule="evenodd" d="M134.051 13.7367L135.553 14.4325L137.055 13.7366L135.553 13.0409L134.051 13.7367Z" fill="#835F25"/>
<path fill-rule="evenodd" clip-rule="evenodd" d="M145.314 21.9412L145.314 42.1194L143.812 41.4235L143.812 21.2453L145.314 21.9412Z" fill="#AF8643"/>
<path fill-rule="evenodd" clip-rule="evenodd" d="M145.315 21.9413L145.315 42.1195L146.816 41.4237L146.816 21.2455L145.315 21.9413Z" fill="#835F25"/>
<path fill-rule="evenodd" clip-rule="evenodd" d="M143.812 21.2455L145.314 21.9413L146.816 21.2454L145.314 20.5497L143.812 21.2455Z" fill="#835F25"/>
<path fill-rule="evenodd" clip-rule="evenodd" d="M175.349 38.6513L175.349 60.4265L173.847 59.6755L173.847 37.9003L175.349 38.6513Z" fill="#AF8643"/>
<path fill-rule="evenodd" clip-rule="evenodd" d="M175.349 38.6514L175.349 60.4265L176.851 59.6757L176.851 37.9005L175.349 38.6514Z" fill="#835F25"/>
<path fill-rule="evenodd" clip-rule="evenodd" d="M173.847 37.9004L175.349 38.6513L176.85 37.9004L175.349 37.1496L173.847 37.9004Z" fill="#835F25"/>
<path fill-rule="evenodd" clip-rule="evenodd" d="M196.374 51.416L196.373 73.1911L194.872 72.4401L194.872 50.665L196.374 51.416Z" fill="#AF8643"/>
<path fill-rule="evenodd" clip-rule="evenodd" d="M196.375 51.4161L196.375 73.1912L197.876 72.4403L197.876 50.6652L196.375 51.4161Z" fill="#835F25"/>
<path fill-rule="evenodd" clip-rule="evenodd" d="M194.872 50.6651L196.374 51.416L197.875 50.6651L196.374 49.9142L194.872 50.6651Z" fill="#835F25"/>
<path fill-rule="evenodd" clip-rule="evenodd" d="M185.109 44.6584L185.109 66.4335L183.608 65.6826L183.608 43.9074L185.109 44.6584Z" fill="#AF8643"/>
<path fill-rule="evenodd" clip-rule="evenodd" d="M185.11 44.6585L185.11 66.4336L186.612 65.6828L186.612 43.9076L185.11 44.6585Z" fill="#835F25"/>
<path fill-rule="evenodd" clip-rule="evenodd" d="M183.608 43.9075L185.109 44.6584L186.611 43.9075L185.109 43.1567L183.608 43.9075Z" fill="#835F25"/>
<path fill-rule="evenodd" clip-rule="evenodd" d="M209.138 59.6757L209.138 81.4509L207.636 80.6999L207.636 58.9248L209.138 59.6757Z" fill="#AF8643"/>
<path fill-rule="evenodd" clip-rule="evenodd" d="M209.138 59.6759L209.138 81.451L210.64 80.7001L210.64 58.925L209.138 59.6759Z" fill="#835F25"/>
<path fill-rule="evenodd" clip-rule="evenodd" d="M207.636 58.9249L209.138 59.6757L210.64 58.9248L209.138 58.174L207.636 58.9249Z" fill="#835F25"/>
<path fill-rule="evenodd" clip-rule="evenodd" d="M223.404 68.686L223.404 90.4611L221.903 89.7102L221.903 67.935L223.404 68.686Z" fill="#AF8643"/>
<path fill-rule="evenodd" clip-rule="evenodd" d="M223.405 68.6861L223.405 90.4612L224.907 89.7103L224.907 67.9352L223.405 68.6861Z" fill="#835F25"/>
<path fill-rule="evenodd" clip-rule="evenodd" d="M221.903 67.9351L223.404 68.686L224.906 67.9351L223.404 67.1842L221.903 67.9351Z" fill="#835F25"/>
<path fill-rule="evenodd" clip-rule="evenodd" d="M206.885 78.4472L206.885 100.222L205.383 99.4714L205.383 77.6962L206.885 78.4472Z" fill="#AF8643"/>
<path fill-rule="evenodd" clip-rule="evenodd" d="M206.886 78.4473L206.886 100.222L208.388 99.4716L208.388 77.6964L206.886 78.4473Z" fill="#835F25"/>
<path fill-rule="evenodd" clip-rule="evenodd" d="M205.384 77.6963L206.885 78.4472L208.387 77.6963L206.885 76.9455L205.384 77.6963Z" fill="#835F25"/>
<path fill-rule="evenodd" clip-rule="evenodd" d="M215.144 73.9421L215.144 95.7172L213.642 94.9663L213.642 73.1911L215.144 73.9421Z" fill="#AF8643"/>
<path fill-rule="evenodd" clip-rule="evenodd" d="M215.145 73.9422L215.145 95.7173L216.646 94.9665L216.646 73.1913L215.145 73.9422Z" fill="#835F25"/>
<path fill-rule="evenodd" clip-rule="evenodd" d="M213.642 73.1912L215.144 73.9421L216.646 73.1912L215.144 72.4404L213.642 73.1912Z" fill="#835F25"/>
<path fill-rule="evenodd" clip-rule="evenodd" d="M197.876 84.4543L197.875 106.229L196.374 105.478L196.374 83.7033L197.876 84.4543Z" fill="#AF8643"/>
<path fill-rule="evenodd" clip-rule="evenodd" d="M197.876 84.4544L197.876 106.23L199.378 105.479L199.378 83.7035L197.876 84.4544Z" fill="#835F25"/>
<path fill-rule="evenodd" clip-rule="evenodd" d="M196.373 83.7034L197.875 84.4543L199.377 83.7034L197.875 82.9526L196.373 83.7034Z" fill="#835F25"/>
<path fill-rule="evenodd" clip-rule="evenodd" d="M187.362 91.2121L187.362 112.987L185.861 112.236L185.861 90.4611L187.362 91.2121Z" fill="#AF8643"/>
<path fill-rule="evenodd" clip-rule="evenodd" d="M187.363 91.2122L187.363 112.987L188.865 112.236L188.865 90.4613L187.363 91.2122Z" fill="#835F25"/>
<path fill-rule="evenodd" clip-rule="evenodd" d="M185.861 90.4612L187.362 91.2121L188.864 90.4612L187.362 89.7104L185.861 90.4612Z" fill="#835F25"/>
<path fill-rule="evenodd" clip-rule="evenodd" d="M176.1 97.9699L176.1 119.745L174.598 118.994L174.598 97.2189L176.1 97.9699Z" fill="#AF8643"/>
<path fill-rule="evenodd" clip-rule="evenodd" d="M176.1 97.97L176.1 119.745L177.602 118.994L177.602 97.2191L176.1 97.97Z" fill="#835F25"/>
<path fill-rule="evenodd" clip-rule="evenodd" d="M174.598 97.2191L176.1 97.9699L177.601 97.219L176.1 96.4682L174.598 97.2191Z" fill="#835F25"/>
<path fill-rule="evenodd" clip-rule="evenodd" d="M165.588 104.728L165.588 126.503L164.086 125.752L164.086 103.977L165.588 104.728Z" fill="#AF8643"/>
<path fill-rule="evenodd" clip-rule="evenodd" d="M165.588 104.728L165.588 126.503L167.09 125.752L167.09 103.977L165.588 104.728Z" fill="#835F25"/>
<path fill-rule="evenodd" clip-rule="evenodd" d="M164.086 103.977L165.587 104.728L167.089 103.977L165.587 103.226L164.086 103.977Z" fill="#835F25"/>
<path fill-rule="evenodd" clip-rule="evenodd" d="M128.045 80.6999L128.044 102.475L126.543 101.724L126.543 79.9489L128.045 80.6999Z" fill="#AF8643"/>
<path fill-rule="evenodd" clip-rule="evenodd" d="M128.045 80.7L128.045 102.475L129.547 101.724L129.547 79.9491L128.045 80.7Z" fill="#835F25"/>
<path fill-rule="evenodd" clip-rule="evenodd" d="M126.543 79.949L128.044 80.6999L129.546 79.949L128.044 79.1982L126.543 79.949Z" fill="#835F25"/>
<path fill-rule="evenodd" clip-rule="evenodd" d="M140.809 88.9594L140.809 110.735L139.307 109.984L139.307 88.2084L140.809 88.9594Z" fill="#AF8643"/>
<path fill-rule="evenodd" clip-rule="evenodd" d="M140.809 88.9595L140.809 110.735L142.311 109.984L142.311 88.2086L140.809 88.9595Z" fill="#835F25"/>
<path fill-rule="evenodd" clip-rule="evenodd" d="M139.307 88.2086L140.809 88.9594L142.31 88.2085L140.809 87.4577L139.307 88.2086Z" fill="#835F25"/>
<path fill-rule="evenodd" clip-rule="evenodd" d="M153.573 97.2189L153.573 118.994L152.071 118.243L152.071 96.468L153.573 97.2189Z" fill="#AF8643"/>
<path fill-rule="evenodd" clip-rule="evenodd" d="M153.574 97.2191L153.574 118.994L155.076 118.243L155.076 96.4682L153.574 97.2191Z" fill="#835F25"/>
<path fill-rule="evenodd" clip-rule="evenodd" d="M152.072 96.4681L153.573 97.2189L155.075 96.4681L153.573 95.7172L152.072 96.4681Z" fill="#835F25"/>
<path fill-rule="evenodd" clip-rule="evenodd" d="M153.573 64.1809L153.573 85.956L152.071 85.205L152.071 63.4299L153.573 64.1809Z" fill="#AF8643"/>
<path fill-rule="evenodd" clip-rule="evenodd" d="M153.574 64.181L153.574 85.9561L155.076 85.2052L155.076 63.4301L153.574 64.181Z" fill="#835F25"/>
<path fill-rule="evenodd" clip-rule="evenodd" d="M152.072 63.43L153.573 64.1809L155.075 63.43L153.573 62.6791L152.072 63.43Z" fill="#835F25"/>
<path fill-rule="evenodd" clip-rule="evenodd" d="M166.339 72.4404L166.339 94.2155L164.837 93.4646L164.837 71.6894L166.339 72.4404Z" fill="#AF8643"/>
<path fill-rule="evenodd" clip-rule="evenodd" d="M166.34 72.4405L166.34 94.2156L167.842 93.4647L167.842 71.6896L166.34 72.4405Z" fill="#835F25"/>
<path fill-rule="evenodd" clip-rule="evenodd" d="M164.837 71.6895L166.339 72.4404L167.841 71.6895L166.339 70.9386L164.837 71.6895Z" fill="#835F25"/>
<path fill-rule="evenodd" clip-rule="evenodd" d="M182.106 64.1809L182.106 85.956L180.604 85.205L180.604 63.4299L182.106 64.1809Z" fill="#AF8643"/>
<path fill-rule="evenodd" clip-rule="evenodd" d="M182.107 64.181L182.107 85.9561L183.608 85.2052L183.608 63.4301L182.107 64.181Z" fill="#835F25"/>
<path fill-rule="evenodd" clip-rule="evenodd" d="M180.604 63.43L182.106 64.1809L183.608 63.43L182.106 62.6791L180.604 63.43Z" fill="#835F25"/>
<path fill-rule="evenodd" clip-rule="evenodd" d="M75.483 48.4125L75.4828 70.1877L73.9811 69.4367L73.9811 47.6616L75.483 48.4125Z" fill="#AF8643"/>
<path fill-rule="evenodd" clip-rule="evenodd" d="M75.4835 48.4127L75.4835 70.1878L76.9852 69.4369L76.9852 47.6618L75.4835 48.4127Z" fill="#835F25"/>
<path fill-rule="evenodd" clip-rule="evenodd" d="M73.9812 47.6617L75.4829 48.4125L76.9848 47.6617L75.4829 46.9108L73.9812 47.6617Z" fill="#835F25"/>
<path fill-rule="evenodd" clip-rule="evenodd" d="M84.4937 54.4196L84.4936 76.1948L82.9919 75.4438L82.9919 53.6686L84.4937 54.4196Z" fill="#AF8643"/>
<path fill-rule="evenodd" clip-rule="evenodd" d="M84.4942 54.4197L84.4942 76.1949L85.996 75.444L85.9959 53.6688L84.4942 54.4197Z" fill="#835F25"/>
<path fill-rule="evenodd" clip-rule="evenodd" d="M82.9919 53.6688L84.4937 54.4196L85.9955 53.6687L84.4937 52.9179L82.9919 53.6688Z" fill="#835F25"/>
<path fill-rule="evenodd" clip-rule="evenodd" d="M94.255 60.4265L94.2548 82.2016L92.7531 81.4506L92.7531 59.6755L94.255 60.4265Z" fill="#AF8643"/>
<path fill-rule="evenodd" clip-rule="evenodd" d="M94.2555 60.4266L94.2555 82.2017L95.7572 81.4508L95.7572 59.6757L94.2555 60.4266Z" fill="#835F25"/>
<path fill-rule="evenodd" clip-rule="evenodd" d="M92.7532 59.6756L94.2549 60.4265L95.7567 59.6756L94.2549 58.9247L92.7532 59.6756Z" fill="#835F25"/>
<path fill-rule="evenodd" clip-rule="evenodd" d="M103.266 65.6826L103.266 87.4577L101.764 86.7067L101.764 64.9316L103.266 65.6826Z" fill="#AF8643"/>
<path fill-rule="evenodd" clip-rule="evenodd" d="M103.267 65.6827L103.267 87.4578L104.768 86.7069L104.768 64.9318L103.267 65.6827Z" fill="#835F25"/>
<path fill-rule="evenodd" clip-rule="evenodd" d="M101.764 64.9317L103.266 65.6826L104.768 64.9317L103.266 64.1808L101.764 64.9317Z" fill="#835F25"/>
<path fill-rule="evenodd" clip-rule="evenodd" d="M107.77 59.6755L107.77 81.4506L106.268 80.6997L106.268 58.9245L107.77 59.6755Z" fill="#AF8643"/>
<path fill-rule="evenodd" clip-rule="evenodd" d="M107.771 59.6756L107.771 81.4507L109.272 80.6999L109.272 58.9247L107.771 59.6756Z" fill="#835F25"/>
<path fill-rule="evenodd" clip-rule="evenodd" d="M106.268 58.9246L107.77 59.6755L109.272 58.9246L107.77 58.1738L106.268 58.9246Z" fill="#835F25"/>
<path fill-rule="evenodd" clip-rule="evenodd" d="M116.03 54.4196L116.03 76.1948L114.529 75.4438L114.528 53.6686L116.03 54.4196Z" fill="#AF8643"/>
<path fill-rule="evenodd" clip-rule="evenodd" d="M116.031 54.4197L116.031 76.1949L117.533 75.444L117.533 53.6688L116.031 54.4197Z" fill="#835F25"/>
<path fill-rule="evenodd" clip-rule="evenodd" d="M114.529 53.6688L116.03 54.4196L117.532 53.6687L116.03 52.9179L114.529 53.6688Z" fill="#835F25"/>
<path fill-rule="evenodd" clip-rule="evenodd" d="M224.941 64.5068L223.493 65.4047L124.224 5.70869L125.672 4.81079L224.941 64.5068Z" fill="#AF8643"/>
<path fill-rule="evenodd" clip-rule="evenodd" d="M124.209 5.70874L223.493 65.4048V68.6488L124.223 8.93829L124.209 5.70874Z" fill="#825E22"/>
<path fill-rule="evenodd" clip-rule="evenodd" d="M224.941 64.5066L223.493 65.4045V68.6487L224.899 67.8087L224.941 64.5066Z" fill="#75541E"/>
<path fill-rule="evenodd" clip-rule="evenodd" d="M165.352 98.4533L166.8 99.3512L223.508 65.4047L222.018 64.5212L165.352 98.4533Z" fill="#AF8643"/>
<path fill-rule="evenodd" clip-rule="evenodd" d="M223.507 65.4048L166.8 99.3512V102.595L223.493 68.6488L223.507 65.4048Z" fill="#75541E"/>
<path fill-rule="evenodd" clip-rule="evenodd" d="M67.5571 39.6407L69.0052 40.5531L125.713 6.60664L124.223 5.70874L67.5571 39.6407Z" fill="#AF8643"/>
<path fill-rule="evenodd" clip-rule="evenodd" d="M125.713 6.60669L69.0059 40.5531V43.7827L125.699 9.83624L125.713 6.60669Z" fill="#75541E"/>
<path fill-rule="evenodd" clip-rule="evenodd" d="M166.828 99.3368L165.394 100.191L66.1094 40.4953L67.5713 39.5974L166.828 99.3368Z" fill="#AF8643"/>
<path fill-rule="evenodd" clip-rule="evenodd" d="M66.1094 40.4951L165.393 100.191V103.435L66.1233 43.7247L66.1094 40.4951Z" fill="#825E22"/>
<path fill-rule="evenodd" clip-rule="evenodd" d="M166.828 99.3367L165.394 100.191V103.435L166.8 102.595L166.828 99.3367Z" fill="#75541E"/>
<path fill-rule="evenodd" clip-rule="evenodd" d="M164.892 49.619L138.773 89.1701L137.158 88.1998L164.892 46.2012V49.619Z" fill="#AF8643"/>
<path fill-rule="evenodd" clip-rule="evenodd" d="M137.158 88.1997L138.773 89.17V92.472L137.158 91.5017V88.1997Z" fill="#825E22"/>
<path fill-rule="evenodd" clip-rule="evenodd" d="M164.892 49.6191L138.773 89.1703V92.4723L164.878 52.9211L164.892 49.6191Z" fill="#75541E"/>
<path fill-rule="evenodd" clip-rule="evenodd" d="M164.878 79.0181L152.584 97.6423L150.969 96.6719L164.878 75.6003V79.0181Z" fill="#AF8643"/>
<path fill-rule="evenodd" clip-rule="evenodd" d="M150.969 96.6719L152.584 97.6422V100.756L150.969 99.8001V96.6719Z" fill="#825E22"/>
<path fill-rule="evenodd" clip-rule="evenodd" d="M164.878 79.0181L152.584 97.6424V100.756L152.668 100.814L164.878 82.32V79.0181Z" fill="#75541E"/>
<path fill-rule="evenodd" clip-rule="evenodd" d="M167.107 65.5639L186.557 94.9486L188.172 93.9782L167.107 62.0881V65.5639Z" fill="#AF8643"/>
<path fill-rule="evenodd" clip-rule="evenodd" d="M188.171 93.9783L186.557 94.9486V98.1348L188.171 97.1644V93.9783Z" fill="#825E22"/>
<path fill-rule="evenodd" clip-rule="evenodd" d="M167.106 65.564L186.556 94.9484V98.1345L186.501 98.1635L167.106 68.8659V65.564Z" fill="#825E22"/>
<path fill-rule="evenodd" clip-rule="evenodd" d="M165.797 31.4871L234.243 65.926L234.298 69.2569L165.923 34.9483L165.797 31.4871Z" fill="#75541E"/>
<path fill-rule="evenodd" clip-rule="evenodd" d="M202.581 49.9956L219.344 75.3831L220.959 74.4128L205.964 51.69L202.581 49.9956Z" fill="#AF8643"/>
<path fill-rule="evenodd" clip-rule="evenodd" d="M220.96 74.4128L219.345 75.3831V78.4968L220.96 77.5265V74.4128Z" fill="#825E22"/>
<path fill-rule="evenodd" clip-rule="evenodd" d="M202.581 49.9956L219.344 75.3831V78.4968L219.261 78.5548L202.637 53.37L202.581 49.9956Z" fill="#825E22"/>
<path fill-rule="evenodd" clip-rule="evenodd" d="M129.18 10.1404L169.431 34.4996L169.598 37.9898L129.18 13.6885V10.1404Z" fill="#825E22"/>
<path fill-rule="evenodd" clip-rule="evenodd" d="M167.106 33.0947V105.028L164.878 105.043L164.892 31.7478L167.106 33.0947Z" fill="#AF8643"/>
<path d="M167.115 104.987L164.887 104.992L164.893 108.279L167.121 108.275L167.115 104.987Z" fill="#825E22"/>
<path fill-rule="evenodd" clip-rule="evenodd" d="M102.824 23.5798L79.1139 28.6052L79.0581 31.9506L102.699 27.0411L102.824 23.5798Z" fill="#75541E"/>
<path fill-rule="evenodd" clip-rule="evenodd" d="M102.824 23.5799L79.1138 28.6052L80.868 27.5915L104.091 22.7544L102.824 23.5799Z" fill="#AF8643"/>
<path fill-rule="evenodd" clip-rule="evenodd" d="M130.628 9.22798L126.716 0.755859L125.045 0.95861L129.166 10.1259L130.628 9.22798Z" fill="#AF8643"/>
<path fill-rule="evenodd" clip-rule="evenodd" d="M129.236 13.1816L125.045 4.08669V0.958496L129.166 10.1258L129.236 13.1816Z" fill="#825E22"/>
<path fill-rule="evenodd" clip-rule="evenodd" d="M126.674 4.59351L114.672 7.1859L114.617 10.5314L126.841 7.99693L126.674 4.59351Z" fill="#75541E"/>
<path fill-rule="evenodd" clip-rule="evenodd" d="M126.674 4.59362L114.672 7.18592L116.482 6.17217L126.437 4.07227L126.674 4.59362Z" fill="#AF8643"/>
<path fill-rule="evenodd" clip-rule="evenodd" d="M129.18 10.1404L96.4478 18.1636L96.3921 21.509L129.041 13.5872L129.18 10.1404Z" fill="#75541E"/>
<path fill-rule="evenodd" clip-rule="evenodd" d="M129.18 10.1404L96.4473 18.1636L98.1459 17.2078L130.628 9.22803L129.18 10.1404Z" fill="#AF8643"/>
<path fill-rule="evenodd" clip-rule="evenodd" d="M131.38 11.5017L59.9141 42.32L59.8584 45.651L131.255 14.963L131.38 11.5017Z" fill="#644617"/>
<path fill-rule="evenodd" clip-rule="evenodd" d="M131.379 11.5016L59.9136 42.3199L61.2502 40.8137L130.502 10.9802L131.379 11.5016Z" fill="#AF8643"/>
<path fill-rule="evenodd" clip-rule="evenodd" d="M135.626 14.065L101.097 66.433L99.4819 65.4627L134.011 13.0947L135.626 14.065Z" fill="#AF8643"/>
<path fill-rule="evenodd" clip-rule="evenodd" d="M99.4819 65.4626L101.097 66.433V69.7205L99.4819 68.7501V65.4626Z" fill="#825E22"/>
<path fill-rule="evenodd" clip-rule="evenodd" d="M135.627 14.0649L101.098 66.4329V69.7204L135.613 17.4104L135.627 14.0649Z" fill="#75541E"/>
<path fill-rule="evenodd" clip-rule="evenodd" d="M86.8125 57.8596L88.4415 58.8444V62.1318L86.8264 61.1615L86.8125 57.8596Z" fill="#825E22"/>
<path fill-rule="evenodd" clip-rule="evenodd" d="M115.132 18.511L88.4419 58.8442V62.1317L115.132 21.335V18.511Z" fill="#75541E"/>
<path fill-rule="evenodd" clip-rule="evenodd" d="M115.132 18.511L88.4412 58.8442L86.8262 57.8594L111.985 19.8723L115.132 18.511Z" fill="#AF8643"/>
<path fill-rule="evenodd" clip-rule="evenodd" d="M158.084 27.5624L123.068 49.5321L121.495 48.5907L156.511 26.6211L158.084 27.5624Z" fill="#AF8643"/>
<path fill-rule="evenodd" clip-rule="evenodd" d="M121.495 48.5908L123.068 49.5322V52.7328L121.509 51.7914L121.495 48.5908Z" fill="#825E22"/>
<path fill-rule="evenodd" clip-rule="evenodd" d="M158.085 27.5625L123.068 49.5322V52.7328L158.057 30.8065L158.085 27.5625Z" fill="#75541E"/>
<path fill-rule="evenodd" clip-rule="evenodd" d="M147.906 21.2918L112.904 43.2613L111.331 42.3055L146.347 20.3359L147.906 21.2918Z" fill="#AF8643"/>
<path fill-rule="evenodd" clip-rule="evenodd" d="M111.331 42.3054L112.904 43.2612V46.4617L111.331 45.5204V42.3054Z" fill="#825E22"/>
<path fill-rule="evenodd" clip-rule="evenodd" d="M147.906 21.2917L112.904 43.2614V46.462L147.892 24.5358L147.906 21.2917Z" fill="#75541E"/>
<path fill-rule="evenodd" clip-rule="evenodd" d="M138.648 15.8464L103.632 37.8161L102.059 36.8747L137.075 14.905L138.648 15.8464Z" fill="#AF8643"/>
<path fill-rule="evenodd" clip-rule="evenodd" d="M102.059 36.8748L103.632 37.8161V41.0167L102.073 40.0753L102.059 36.8748Z" fill="#825E22"/>
<path fill-rule="evenodd" clip-rule="evenodd" d="M138.648 15.8462L103.632 37.816V41.0166L138.62 19.0902L138.648 15.8462Z" fill="#75541E"/>
<path fill-rule="evenodd" clip-rule="evenodd" d="M160.882 29.3294L126.409 81.5525L124.794 80.5822L159.267 28.3591L160.882 29.3294Z" fill="#AF8643"/>
<path fill-rule="evenodd" clip-rule="evenodd" d="M148.483 21.1515L114.01 73.3746L112.395 72.4042L146.867 20.1812L148.483 21.1515Z" fill="#AF8643"/>
<path fill-rule="evenodd" clip-rule="evenodd" d="M124.794 80.582L126.409 81.5524V84.8544L124.794 83.8841V80.582Z" fill="#825E22"/>
<path fill-rule="evenodd" clip-rule="evenodd" d="M112.395 72.4043L114.01 73.3746V76.6767L112.395 75.7064V72.4043Z" fill="#825E22"/>
<path fill-rule="evenodd" clip-rule="evenodd" d="M160.883 29.3293L126.41 81.5525V84.8544L160.869 32.6603L160.883 29.3293Z" fill="#75541E"/>
<path fill-rule="evenodd" clip-rule="evenodd" d="M148.483 21.1514L114.01 73.3745V76.6764L148.469 24.4823L148.483 21.1514Z" fill="#75541E"/>
<path fill-rule="evenodd" clip-rule="evenodd" d="M92.2431 28.3733L76.6914 51.9505L75.0625 50.9802L89.0966 29.7346L92.2431 28.3733Z" fill="#AF8643"/>
<path fill-rule="evenodd" clip-rule="evenodd" d="M75.0625 50.9805L76.6917 51.9508L76.6778 55.2092L75.0764 54.2389L75.0625 50.9805Z" fill="#825E22"/>
<path fill-rule="evenodd" clip-rule="evenodd" d="M92.2569 28.3733L76.6911 51.9506L76.6772 55.2091L76.705 55.2236L92.243 31.6753L92.2569 28.3733Z" fill="#75541E"/>
<path fill-rule="evenodd" clip-rule="evenodd" d="M162.469 28.3591L193.907 40.3505V44.2607L170.948 33.5872L171.046 33.5293L162.469 28.3591Z" fill="#75541E"/>
<path fill-rule="evenodd" clip-rule="evenodd" d="M162.47 28.359L193.907 40.3504L192.278 39.3656L160.854 27.3887L162.47 28.359Z" fill="#C5984C"/>
<path fill-rule="evenodd" clip-rule="evenodd" d="M165.797 31.4872L234.242 65.9262L232.906 64.4201L166.675 30.9658L165.797 31.4872Z" fill="#C5984C"/>
<path fill-rule="evenodd" clip-rule="evenodd" d="M171.046 33.5294L169.431 34.4997L129.18 10.1404L130.628 9.22803L171.046 33.5294Z" fill="#C5984C"/>
<path fill-rule="evenodd" clip-rule="evenodd" d="M182.783 39.1047L207.107 48.1852L207.12 51.4292L206.355 51.0092L182.783 39.1047Z" fill="#75541E"/>
<path fill-rule="evenodd" clip-rule="evenodd" d="M182.783 39.105L207.106 48.1854L205.491 47.2006L180.723 38.0623L182.783 39.105Z" fill="#C5984C"/>
<path fill-rule="evenodd" clip-rule="evenodd" d="M208.221 51.9507L221.085 56.5415V58.4242L208.221 51.9507Z" fill="#75541E"/>
<path fill-rule="evenodd" clip-rule="evenodd" d="M208.22 51.9507L221.085 56.5417L219.47 55.5713L206.16 50.908L208.22 51.9507Z" fill="#C5984C"/>
<path fill-rule="evenodd" clip-rule="evenodd" d="M129.306 6.36035L144.997 10.8499V14.7746L135.794 12.3416L130.629 9.22786L129.306 6.36035Z" fill="#75541E"/>
<path fill-rule="evenodd" clip-rule="evenodd" d="M129.306 6.36058L144.997 10.8501L143.368 9.87975L128.972 5.63647L129.306 6.36058Z" fill="#C5984C"/>
<path fill-rule="evenodd" clip-rule="evenodd" d="M130.6 9.16981L151.359 15.7014V15.2524L130.35 8.64844L130.6 9.16981Z" fill="#C5984C"/>
<path fill-rule="evenodd" clip-rule="evenodd" d="M204.587 84.2319L202.971 85.2022V88.4897L204.587 87.5194V84.2319Z" fill="#825E22"/>
<path fill-rule="evenodd" clip-rule="evenodd" d="M169.431 34.4995L202.971 85.202V88.4894L169.459 37.9029L169.431 34.4995Z" fill="#825E22"/>
<path fill-rule="evenodd" clip-rule="evenodd" d="M169.431 34.4996L202.971 85.2021L204.586 84.2318L171.046 33.5293L169.431 34.4996Z" fill="#AF8643"/>
<path fill-rule="evenodd" clip-rule="evenodd" d="M130.545 9.15552L151.36 15.7015V18.7573L141.293 15.6146L130.545 9.15552Z" fill="#75541E"/>
<path fill-rule="evenodd" clip-rule="evenodd" d="M137.673 13.4424L151.359 17.7291V21.6973L137.673 13.4424Z" fill="#75541E"/>
<path fill-rule="evenodd" clip-rule="evenodd" d="M137.66 13.4422L151.359 17.729V17.2801L136.059 12.4719L137.66 13.4422Z" fill="#C5984C"/>
</svg>
