<svg width="269" height="251" viewBox="0 0 269 251" fill="none" xmlns="http://www.w3.org/2000/svg">
<path fill-rule="evenodd" clip-rule="evenodd" d="M83.3039 143.32V111.549L71.9893 104.838V136.581L83.3039 143.32Z" fill="#7E7E7E"/>
<path fill-rule="evenodd" clip-rule="evenodd" d="M83.3039 143.32V129.826L71.9893 136.523L83.3039 143.32Z" fill="#3A3D3F"/>
<path fill-rule="evenodd" clip-rule="evenodd" d="M83.3034 142.088V111.549L73.0479 105.476V135.914L83.3034 142.088Z" fill="white"/>
<path fill-rule="evenodd" clip-rule="evenodd" d="M83.3042 111.839L73.8428 106.23V135.218L83.3042 140.856V111.839Z" fill="#5A9FB0"/>
<path fill-rule="evenodd" clip-rule="evenodd" d="M79.5556 109.317V139.856L78.8311 139.421V108.882L79.5556 109.317Z" fill="white"/>
<path fill-rule="evenodd" clip-rule="evenodd" d="M83.2343 121.782L73.7871 116.188V116.999L83.2343 122.637V121.782Z" fill="white"/>
<path fill-rule="evenodd" clip-rule="evenodd" d="M83.2343 131.102L73.7871 125.507V126.333L83.2343 131.957V131.102Z" fill="white"/>
<path fill-rule="evenodd" clip-rule="evenodd" d="M83.3039 96.0261V64.2405L71.9893 57.5732V89.3009L83.3039 96.0261Z" fill="#7E7E7E"/>
<path fill-rule="evenodd" clip-rule="evenodd" d="M83.3039 96.026V82.5176L74.0794 88.0253L71.9893 89.2718L83.3039 96.026Z" fill="#E3E3E3"/>
<path fill-rule="evenodd" clip-rule="evenodd" d="M83.304 64.2404L74.0654 58.7761V88.0108L83.304 93.5186V64.2404Z" fill="#3A3D3F"/>
<path fill-rule="evenodd" clip-rule="evenodd" d="M75.333 172.99L78.2174 167.873L90.2289 167.975L92.5281 172.975L75.333 172.99Z" fill="#6D2D2B"/>
<path fill-rule="evenodd" clip-rule="evenodd" d="M83.3039 143.32V111.535L71.9893 104.838V136.566L83.3039 143.32Z" fill="#7E7E7E"/>
<path fill-rule="evenodd" clip-rule="evenodd" d="M83.3039 143.32V129.812L74.0794 135.32L71.9893 136.566L83.3039 143.32Z" fill="#E3E3E3"/>
<path fill-rule="evenodd" clip-rule="evenodd" d="M83.304 111.535L74.0654 106.056V135.32L83.304 140.827V111.535Z" fill="#3A3D3F"/>
<path fill-rule="evenodd" clip-rule="evenodd" d="M80.1405 170.12L75.333 172.99V124.376L80.1405 126.681V170.12Z" fill="#979797"/>
<path fill-rule="evenodd" clip-rule="evenodd" d="M75.3329 172.99L70.5117 170.192V129.058L75.0264 127.246H75.6535L75.3608 126.768L75.3329 172.99Z" fill="#E3E3E3"/>
<path fill-rule="evenodd" clip-rule="evenodd" d="M70.5117 138.595V129.058L75.0264 127.246H75.6535L75.3608 126.768V141.508L70.5117 138.595Z" fill="#666666"/>
<path fill-rule="evenodd" clip-rule="evenodd" d="M90.104 27.6572L73.4945 52.5436L73.0625 52.2828L89.2958 27.9761L90.104 27.6572Z" fill="#437254"/>
<path d="M75.2913 33.397L65.6488 47.8331L65.2168 47.5867L74.4691 33.7158L75.2913 33.397Z" fill="#437254"/>
<path fill-rule="evenodd" clip-rule="evenodd" d="M92.3472 104.737L61.5802 126.797L61.1064 126.507L91.8735 104.447L92.3472 104.737Z" fill="#437254"/>
<path fill-rule="evenodd" clip-rule="evenodd" d="M92.8203 105.012L62.0539 127.072L61.5801 126.797L92.3465 104.737L92.8203 105.012Z" fill="#213929"/>
<path fill-rule="evenodd" clip-rule="evenodd" d="M268.949 169.149L145.534 243.388L0.186523 156.104L123.63 81.8799L268.949 169.149Z" fill="#D1C393"/>
<path fill-rule="evenodd" clip-rule="evenodd" d="M0.186523 156.104L145.548 243.387L145.534 250.823L0.214419 163.554L0.186523 156.104Z" fill="#AF9D64"/>
<path fill-rule="evenodd" clip-rule="evenodd" d="M268.949 169.149L145.534 243.388V250.823L268.866 176.758L268.949 169.149Z" fill="#9D8A4E"/>
<path fill-rule="evenodd" clip-rule="evenodd" d="M164.68 204.167L117.902 116.68L156.444 101.592L268.949 169.149L211.15 203.92L164.68 204.167Z" fill="#AF9D64"/>
<path fill-rule="evenodd" clip-rule="evenodd" d="M237.006 152.58V109.324L151.366 125.053L202.925 129.423L237.006 152.58Z" fill="#A9A9A9"/>
<path fill-rule="evenodd" clip-rule="evenodd" d="M123.1 200.775L102.923 188.353L136.867 167.366L157.002 179.816L123.1 200.775Z" fill="#AF9D64"/>
<path fill-rule="evenodd" clip-rule="evenodd" d="M164.911 204.139L66.3174 145.204V55.3701L164.651 114.361L164.911 204.139Z" fill="#993127"/>
<path fill-rule="evenodd" clip-rule="evenodd" d="M164.911 200.206L66.3174 141.233V136.421L164.651 195.427L164.911 200.206Z" fill="#612E2B"/>
<path fill-rule="evenodd" clip-rule="evenodd" d="M113.959 164.699H140.838V189.875L113.959 173.772V164.699Z" fill="#612E2B"/>
<path fill-rule="evenodd" clip-rule="evenodd" d="M191.398 142.453L191.398 185.633L189.65 184.144L189.65 140.964L191.398 142.453Z" fill="#AF8643"/>
<path fill-rule="evenodd" clip-rule="evenodd" d="M191.398 142.453L191.398 185.633L193.146 184.144L193.146 140.964L191.398 142.453Z" fill="#835F25"/>
<path fill-rule="evenodd" clip-rule="evenodd" d="M189.651 140.964L191.398 142.453L193.146 140.964L191.398 139.475L189.651 140.964Z" fill="#835F25"/>
<path fill-rule="evenodd" clip-rule="evenodd" d="M210.623 95.2636L210.623 138.444L208.875 136.954L208.875 93.7744L210.623 95.2636Z" fill="#AF8643"/>
<path fill-rule="evenodd" clip-rule="evenodd" d="M210.624 95.2637L210.624 138.443L212.372 136.955L212.372 93.7746L210.624 95.2637Z" fill="#835F25"/>
<path fill-rule="evenodd" clip-rule="evenodd" d="M208.876 93.7745L210.624 95.2635L212.372 93.7744L210.624 92.2855L208.876 93.7745Z" fill="#835F25"/>
<path fill-rule="evenodd" clip-rule="evenodd" d="M208.002 131.092L208.002 174.272L206.254 172.783L206.254 129.603L208.002 131.092Z" fill="#AF8643"/>
<path fill-rule="evenodd" clip-rule="evenodd" d="M208.003 131.093L208.003 174.272L209.751 172.783L209.751 129.603L208.003 131.093Z" fill="#835F25"/>
<path fill-rule="evenodd" clip-rule="evenodd" d="M206.255 129.603L208.003 131.092L209.751 129.603L208.003 128.114L206.255 129.603Z" fill="#835F25"/>
<path fill-rule="evenodd" clip-rule="evenodd" d="M224.606 118.858L224.606 162.038L222.858 160.549L222.858 117.369L224.606 118.858Z" fill="#AF8643"/>
<path fill-rule="evenodd" clip-rule="evenodd" d="M224.606 118.858L224.606 162.038L226.354 160.549L226.354 117.369L224.606 118.858Z" fill="#835F25"/>
<path fill-rule="evenodd" clip-rule="evenodd" d="M222.859 117.369L224.606 118.858L226.354 117.369L224.606 115.88L222.859 117.369Z" fill="#835F25"/>
<path fill-rule="evenodd" clip-rule="evenodd" d="M235.091 112.741L235.091 155.921L233.343 154.432L233.343 111.252L235.091 112.741Z" fill="#AF8643"/>
<path fill-rule="evenodd" clip-rule="evenodd" d="M235.092 112.741L235.092 155.921L236.839 154.432L236.839 111.252L235.092 112.741Z" fill="#835F25"/>
<path fill-rule="evenodd" clip-rule="evenodd" d="M233.344 111.252L235.092 112.741L236.84 111.252L235.092 109.763L233.344 111.252Z" fill="#835F25"/>
<path fill-rule="evenodd" clip-rule="evenodd" d="M165.171 161.746L68.3486 100.763L68.3515 93.5457L165.171 153.478V161.746Z" fill="#B0B0B0"/>
<path fill-rule="evenodd" clip-rule="evenodd" d="M237.006 115.004V108.886L165.057 153.873V161.746C189.996 146.236 212.067 130.681 237.006 115.004Z" fill="#835F25"/>
<path fill-rule="evenodd" clip-rule="evenodd" d="M237.006 109.324L165.06 154.529L124.622 128.886L121.387 127.003L107.212 117.949L104.442 116.222L68.3525 93.5457L125.34 56.0173L237.006 109.324Z" fill="#A8926F"/>
<path fill-rule="evenodd" clip-rule="evenodd" d="M236.569 104.08V71.7471L150.056 76.1164L196.808 87.4768L236.569 104.08Z" fill="#7F7F7F"/>
<path fill-rule="evenodd" clip-rule="evenodd" d="M234.821 109.76L233.089 78.0933L146.139 82.4626L192.891 93.823L234.821 109.76Z" fill="#A9A9A9"/>
<path fill-rule="evenodd" clip-rule="evenodd" d="M228.267 108.013V74.8057L141.754 79.1689L187.632 91.6097L228.267 108.013Z" fill="#E2E2E2"/>
<path fill-rule="evenodd" clip-rule="evenodd" d="M172.776 147.774L233.947 108.45L173.65 86.166L97.1865 95.3355L143.065 107.776L172.776 147.774Z" fill="#444444"/>
<path fill-rule="evenodd" clip-rule="evenodd" d="M224.772 107.441V74.2334L138.259 78.5966L186.322 90.0983L224.772 107.441Z" fill="#8FAF46"/>
<path fill-rule="evenodd" clip-rule="evenodd" d="M197.681 131.17V94.4678L111.168 99.2903L160.542 111.508L197.681 131.17Z" fill="#8FAF46"/>
<path fill-rule="evenodd" clip-rule="evenodd" d="M229.141 106.702V74.0669L228.268 74.7998V106.378L229.141 106.702Z" fill="#727171"/>
<path fill-rule="evenodd" clip-rule="evenodd" d="M225.645 107.004V73.4949L224.771 74.2278V107.441L225.645 107.004Z" fill="#727171"/>
<path fill-rule="evenodd" clip-rule="evenodd" d="M198.556 130.687V93.5938L197.682 94.4051V131.17L198.556 130.687Z" fill="#727171"/>
<path fill-rule="evenodd" clip-rule="evenodd" d="M172.776 149.959V108.45L165.348 110.634L164.911 146.463V154.765L172.776 149.959Z" fill="#835F25"/>
<path fill-rule="evenodd" clip-rule="evenodd" d="M165.125 199.659L64.4092 139.291V47.2678L165.125 107.694V199.659Z" fill="#AF8643"/>
<path fill-rule="evenodd" clip-rule="evenodd" d="M64.4092 59.8345V47.0652L165.154 107.578L165.126 118.695L64.4092 59.8345Z" fill="#666666"/>
<path fill-rule="evenodd" clip-rule="evenodd" d="M137.257 135.131L141.382 185.426L96.6672 160.249L90.4805 106.273L137.257 135.131Z" fill="#666666"/>
<path fill-rule="evenodd" clip-rule="evenodd" d="M164.791 192.252V160.481L146.021 149.364V181.092L164.791 192.252Z" fill="#7E7E7E"/>
<path fill-rule="evenodd" clip-rule="evenodd" d="M165.46 192.252V160.481C169.222 158.249 186.361 146.059 190.137 143.842V177.599L165.46 192.252Z" fill="#AFAFAF"/>
<path fill-rule="evenodd" clip-rule="evenodd" d="M165.125 192.47V178.976C162.115 180.744 152.055 177.744 147.666 180.179L146.021 181.092L165.125 192.47Z" fill="#E3E3E3"/>
<path fill-rule="evenodd" clip-rule="evenodd" d="M165.126 192.47V178.976C168.136 180.744 184.104 174.251 188.48 176.686L190.138 177.599L165.126 192.47Z" fill="#E3E3E3"/>
<path fill-rule="evenodd" clip-rule="evenodd" d="M189.816 177.923V175.301L237.005 146.463L238.753 146.9L189.816 177.923Z" fill="#E3E3E3"/>
<path fill-rule="evenodd" clip-rule="evenodd" d="M165.124 160.67C161.975 158.8 151.037 152.394 147.874 150.524V179.715C151.037 181.599 161.975 188.035 165.124 189.861V160.67Z" fill="#3A3D3F"/>
<path fill-rule="evenodd" clip-rule="evenodd" d="M165.126 160.67L188.215 145.152V176.222C185.066 178.106 168.219 188.035 165.07 189.904L165.126 160.67Z" fill="#3A3D3F"/>
<path fill-rule="evenodd" clip-rule="evenodd" d="M140.949 167.38V146.263L129.69 139.552V160.641L140.949 167.38Z" fill="#979797"/>
<path fill-rule="evenodd" clip-rule="evenodd" d="M140.949 167.38V153.886L129.69 160.583L140.949 167.38Z" fill="#E3E3E3"/>
<path fill-rule="evenodd" clip-rule="evenodd" d="M140.95 146.263L131.502 140.653V159.264L140.95 164.902V146.263Z" fill="#3A3D3F"/>
<path fill-rule="evenodd" clip-rule="evenodd" d="M108.719 205.384L108.705 205.398L60.2981 175.86L60.2842 173.613L108.705 203.152L108.719 205.384Z" fill="#993127"/>
<path fill-rule="evenodd" clip-rule="evenodd" d="M137.466 185.759L108.705 203.152L60.2842 173.613L88.5287 156.336L137.466 185.759Z" fill="#B55525"/>
<path fill-rule="evenodd" clip-rule="evenodd" d="M137.605 187.948L108.719 205.384L108.705 203.152L137.605 185.701V187.948Z" fill="#822B29"/>
<path fill-rule="evenodd" clip-rule="evenodd" d="M120.437 196.064L112.467 191.267L129.731 180.889L137.604 185.701L120.437 196.064Z" fill="#6D2D2B"/>
<path fill-rule="evenodd" clip-rule="evenodd" d="M108.719 200.34L108.705 200.355L65.4113 174.091L65.3975 171.845L113.025 171.105L108.719 200.34Z" fill="#993127"/>
<path fill-rule="evenodd" clip-rule="evenodd" d="M135.25 182.106L108.705 198.108L65.3975 171.845L91.9004 155.64L135.25 182.106Z" fill="#B55525"/>
<path fill-rule="evenodd" clip-rule="evenodd" d="M135.333 184.31L108.719 200.34L108.733 198.093L135.347 182.02L135.333 184.31Z" fill="#822B29"/>
<path fill-rule="evenodd" clip-rule="evenodd" d="M117.722 192.672L109.752 187.875L127.17 177.425L135.335 182.019L117.722 192.672Z" fill="#6D2D2B"/>
<path fill-rule="evenodd" clip-rule="evenodd" d="M108.664 195.31H108.65L70.5403 172.337L70.5264 170.091L108.678 193.049L108.664 195.31Z" fill="#993127"/>
<path fill-rule="evenodd" clip-rule="evenodd" d="M132.757 178.555L108.65 193.064L70.5264 170.091L94.3399 155.51L132.757 178.555Z" fill="#B55525"/>
<path fill-rule="evenodd" clip-rule="evenodd" d="M115.353 189.035L78.8311 167.105L96.2629 156.655L132.966 178.439L115.353 189.035Z" fill="#6D2D2B"/>
<path fill-rule="evenodd" clip-rule="evenodd" d="M132.966 180.686L108.664 195.311L108.678 193.049L132.966 178.439V180.686Z" fill="#822B29"/>
<path fill-rule="evenodd" clip-rule="evenodd" d="M157.656 140.596V108.81L146.411 102.114V133.856L157.656 140.596Z" fill="#7E7E7E"/>
<path fill-rule="evenodd" clip-rule="evenodd" d="M157.656 140.596V127.145L148.46 132.653L146.342 133.914L157.656 140.596Z" fill="#E3E3E3"/>
<path fill-rule="evenodd" clip-rule="evenodd" d="M157.657 108.795L148.433 103.331V132.609L157.657 138.117V108.795Z" fill="#3A3D3F"/>
<path fill-rule="evenodd" clip-rule="evenodd" d="M126.359 121.695V89.924C122.583 87.6919 105.458 77.5316 101.668 75.314V107.041L126.359 121.695Z" fill="#7E7E7E"/>
<path fill-rule="evenodd" clip-rule="evenodd" d="M126.359 121.71V108.201C123.349 109.984 108.036 103.201 103.744 105.795L101.668 107.041L126.359 121.71Z" fill="#E3E3E3"/>
<path fill-rule="evenodd" clip-rule="evenodd" d="M126.36 89.8516C123.211 87.9819 106.852 78.4012 103.745 76.5315V105.795C106.894 107.665 123.253 117.274 126.36 119.159V89.8516Z" fill="#3A3D3F"/>
<path fill-rule="evenodd" clip-rule="evenodd" d="M234.821 72.7825L234.821 108.617L234.821 110.635L233.948 110.198L233.948 108.45L233.123 108.152L233.123 71.4763L234.821 72.7825Z" fill="#AF8643"/>
<path fill-rule="evenodd" clip-rule="evenodd" d="M234.822 72.7825L234.822 110.66L236.519 109.354L236.519 71.4763L234.822 72.7825Z" fill="#835F25"/>
<path fill-rule="evenodd" clip-rule="evenodd" d="M233.124 71.4764L234.822 72.7825L236.52 71.4763L234.822 70.1703L233.124 71.4764Z" fill="#835F25"/>
<path fill-rule="evenodd" clip-rule="evenodd" d="M108.678 193.05L110.559 187.919L117.122 187.977L108.692 193.05H108.678Z" fill="#6D2D2B"/>
<path fill-rule="evenodd" clip-rule="evenodd" d="M119.212 188.962L120.104 191.238L115.575 193.962H110.894L119.212 188.962Z" fill="#6D2D2B"/>
<path fill-rule="evenodd" clip-rule="evenodd" d="M123.894 191.194L124.786 193.47L120.257 196.195L115.575 196.209L123.894 191.194Z" fill="#6D2D2B"/>
<path fill-rule="evenodd" clip-rule="evenodd" d="M114.656 167.236V135.638C110.893 133.387 107.122 131.15 103.341 128.928V160.67C107.117 162.916 110.893 164.989 114.656 167.236Z" fill="#979797"/>
<path fill-rule="evenodd" clip-rule="evenodd" d="M124.117 173.729V165.366C120.94 167.25 113.29 154.771 108.678 157.524L102.909 160.945L124.117 173.729Z" fill="#6D2D2B"/>
<path fill-rule="evenodd" clip-rule="evenodd" d="M114.628 136.189L105.167 130.594V159.583L114.628 165.206V136.189Z" fill="#3A3D3F"/>
<path fill-rule="evenodd" clip-rule="evenodd" d="M124.117 141.813L114.67 136.218V165.206L124.117 170.83V141.813Z" fill="#3A3D3F"/>
<path fill-rule="evenodd" clip-rule="evenodd" d="M108.664 193.064L103.843 190.18V148.973L108.344 147.147H108.971L108.692 146.668L108.664 193.064Z" fill="#E3E3E3"/>
<path fill-rule="evenodd" clip-rule="evenodd" d="M113.444 190.194L108.664 193.064V144.292L113.472 146.582L113.444 190.194Z" fill="#979797"/>
<path fill-rule="evenodd" clip-rule="evenodd" d="M103.843 158.612V148.857L108.344 147.031H108.971L108.692 146.552L108.678 161.51L103.843 158.612Z" fill="#666666"/>
<path fill-rule="evenodd" clip-rule="evenodd" d="M168.762 36.1655L167.745 109.158L54.8086 41.3254L129.329 12.4531L168.762 36.1655Z" fill="#335840"/>
<path fill-rule="evenodd" clip-rule="evenodd" d="M168.762 36.1655L167.745 109.158L236.719 68.1105L168.762 36.1655Z" fill="#274230"/>
<path fill-rule="evenodd" clip-rule="evenodd" d="M129.371 12.5835L123.407 0.0895996L236.72 68.1104L168.763 36.1654L129.371 12.5835Z" fill="#213929"/>
<path fill-rule="evenodd" clip-rule="evenodd" d="M123.406 0.104004L54.8086 41.3251L129.37 12.5834L123.406 0.104004Z" fill="#274230"/>
<path fill-rule="evenodd" clip-rule="evenodd" d="M170.49 29.8025L157.671 27.2081L157.685 9.5978L170.49 1.88696V29.8025Z" fill="#7E7E7E"/>
<path d="M167.982 91.9821L159.733 104.346L159.301 104.085L167.996 91.0544L167.982 91.9821Z" fill="#437254"/>
<path d="M167.968 92.9098L160.165 104.607L159.733 104.346L167.982 91.9822L167.968 92.9098Z" fill="#213929"/>
<path fill-rule="evenodd" clip-rule="evenodd" d="M168.218 75.169L151.887 99.6351L151.455 99.3742L168.232 74.2559L168.218 75.169Z" fill="#437254"/>
<path fill-rule="evenodd" clip-rule="evenodd" d="M168.205 76.0966L152.32 99.8958L151.888 99.6349L168.219 75.1689L168.205 76.0966Z" fill="#213929"/>
<path fill-rule="evenodd" clip-rule="evenodd" d="M168.456 58.3705L144.043 94.9245L143.625 94.6636L168.47 57.4429L168.456 58.3705Z" fill="#437254"/>
<path fill-rule="evenodd" clip-rule="evenodd" d="M168.442 59.2835L144.475 95.1854L144.043 94.9245L168.455 58.3704L168.442 59.2835Z" fill="#213929"/>
<path fill-rule="evenodd" clip-rule="evenodd" d="M168.693 41.5573L136.212 90.214L135.78 89.9531L168.707 40.6296L168.693 41.5573Z" fill="#437254"/>
<path fill-rule="evenodd" clip-rule="evenodd" d="M168.679 42.4703L136.644 90.4748L136.212 90.2139L168.693 41.5571L168.679 42.4703Z" fill="#213929"/>
<path fill-rule="evenodd" clip-rule="evenodd" d="M163.44 32.9623L128.368 85.5034L127.936 85.257L163.008 32.7014L163.44 32.9623Z" fill="#437254"/>
<path fill-rule="evenodd" clip-rule="evenodd" d="M163.872 33.2233L128.799 85.7644L128.367 85.5035L163.44 32.9624L163.872 33.2233Z" fill="#213929"/>
<path fill-rule="evenodd" clip-rule="evenodd" d="M155.609 28.2516L120.523 80.8072L120.104 80.5464L155.177 27.9907L155.609 28.2516Z" fill="#437254"/>
<path fill-rule="evenodd" clip-rule="evenodd" d="M156.04 28.5126L120.954 81.0537L120.522 80.7929L155.608 28.2517L156.04 28.5126Z" fill="#213929"/>
<path fill-rule="evenodd" clip-rule="evenodd" d="M147.763 23.5412L112.691 76.0967L112.259 75.8358L147.331 23.2803L147.763 23.5412Z" fill="#437254"/>
<path fill-rule="evenodd" clip-rule="evenodd" d="M148.195 23.8019L113.122 76.3429L112.69 76.0965L147.763 23.541L148.195 23.8019Z" fill="#213929"/>
<path fill-rule="evenodd" clip-rule="evenodd" d="M139.932 18.8305L104.846 71.3859L104.414 71.125L139.5 18.5696L139.932 18.8305Z" fill="#437254"/>
<path fill-rule="evenodd" clip-rule="evenodd" d="M140.351 19.0914L105.279 71.6326L104.847 71.3862L139.933 18.8306L140.351 19.0914Z" fill="#213929"/>
<path fill-rule="evenodd" clip-rule="evenodd" d="M132.087 14.12L97.0011 66.6756L96.583 66.4148L131.655 13.8591L132.087 14.12Z" fill="#437254"/>
<path fill-rule="evenodd" clip-rule="evenodd" d="M132.519 14.3808L97.4329 66.9364L97.001 66.6755L132.087 14.1199L132.519 14.3808Z" fill="#213929"/>
<path fill-rule="evenodd" clip-rule="evenodd" d="M119.741 16.178L89.1693 61.9649L88.7373 61.704L118.919 16.4823L119.741 16.178Z" fill="#437254"/>
<path fill-rule="evenodd" clip-rule="evenodd" d="M120.536 15.8591L89.6028 62.2257L89.1709 61.9648L119.728 16.178L120.536 15.8591Z" fill="#213929"/>
<path fill-rule="evenodd" clip-rule="evenodd" d="M104.916 21.9177L81.3255 57.2543L80.8936 56.9934L104.108 22.2366L104.916 21.9177Z" fill="#437254"/>
<path fill-rule="evenodd" clip-rule="evenodd" d="M105.724 21.5989L81.7572 57.5153L81.3252 57.2544L104.916 21.9177L105.724 21.5989Z" fill="#213929"/>
<path fill-rule="evenodd" clip-rule="evenodd" d="M90.9117 27.3384L73.9124 52.8046L73.4805 52.5437L90.1035 27.6573L90.9117 27.3384Z" fill="#213929"/>
<path d="M76.0862 33.0928L66.0814 48.0941L65.6494 47.8332L75.278 33.3971L76.0862 33.0928Z" fill="#213929"/>
<path fill-rule="evenodd" clip-rule="evenodd" d="M157.976 36.7888L129.954 79.1115L129.885 58.5444L157.976 36.7888Z" fill="#7E7E7E"/>
<path fill-rule="evenodd" clip-rule="evenodd" d="M107.619 44.2678L129.886 57.7473L129.941 79.1116L107.591 65.4727L107.619 44.2678Z" fill="#CACACA"/>
<path fill-rule="evenodd" clip-rule="evenodd" d="M157.671 27.208L151.052 23.2221L151.038 5.61182L157.685 9.59769L157.671 27.208Z" fill="#CACACA"/>
<path fill-rule="evenodd" clip-rule="evenodd" d="M129.9 62.0374L107.619 48.6593V44.3545L107.675 44.311L129.886 57.7471L129.9 62.0374Z" fill="#666666"/>
<path fill-rule="evenodd" clip-rule="evenodd" d="M123.253 72.6034V55.544L113.917 50.0217V67.0377L123.253 72.6034Z" fill="#7E7E7E"/>
<path fill-rule="evenodd" clip-rule="evenodd" d="M123.253 72.6036V61.4575L113.917 66.9943L123.253 72.6036Z" fill="#E3E3E3"/>
<path fill-rule="evenodd" clip-rule="evenodd" d="M123.253 55.5442L115.45 50.9351V65.9074L123.253 70.5454V55.5442Z" fill="#3A3D3F"/>
<path fill-rule="evenodd" clip-rule="evenodd" d="M162.144 32.1941L130.625 58.7762L104.763 43.2385L136.282 16.6709L162.144 32.1941Z" fill="#437254"/>
<path fill-rule="evenodd" clip-rule="evenodd" d="M104.763 43.2385L130.625 58.7762V60.5879L104.763 45.0503V43.2385Z" fill="#274230"/>
<path fill-rule="evenodd" clip-rule="evenodd" d="M162.144 32.1941L130.625 58.7761V60.5879L159.72 36.0785L162.144 32.1941Z" fill="#213929"/>
<path fill-rule="evenodd" clip-rule="evenodd" d="M167.968 93.3592L175.45 104.563L175.882 104.302L167.982 92.4751L167.968 93.3592Z" fill="#213929"/>
<path fill-rule="evenodd" clip-rule="evenodd" d="M167.955 94.2433L175.02 104.824L175.452 104.563L167.969 93.3591L167.955 94.2433Z" fill="#335840"/>
<path fill-rule="evenodd" clip-rule="evenodd" d="M168.191 77.2562L183.324 99.8816L183.756 99.6352L168.205 76.3721L168.191 77.2562Z" fill="#213929"/>
<path fill-rule="evenodd" clip-rule="evenodd" d="M168.178 78.1405L182.892 100.143L183.324 99.8817L168.192 77.2563L168.178 78.1405Z" fill="#335840"/>
<path fill-rule="evenodd" clip-rule="evenodd" d="M168.414 61.1097L191.182 95.2142L191.614 94.9533L168.428 60.2256L168.414 61.1097Z" fill="#213929"/>
<path fill-rule="evenodd" clip-rule="evenodd" d="M168.4 61.994L190.751 95.4609L191.183 95.2145L168.414 61.1099L168.4 61.994Z" fill="#335840"/>
<path fill-rule="evenodd" clip-rule="evenodd" d="M168.637 44.9923L199.041 90.5327L199.473 90.2718L168.651 44.1082L168.637 44.9923Z" fill="#213929"/>
<path fill-rule="evenodd" clip-rule="evenodd" d="M168.623 45.8766L198.609 90.7937L199.041 90.5329L168.637 44.9924L168.623 45.8766Z" fill="#335840"/>
<path fill-rule="evenodd" clip-rule="evenodd" d="M175.994 39.5569L206.9 85.8511L207.332 85.5902L176.872 39.9772L175.994 39.5569Z" fill="#213929"/>
<path fill-rule="evenodd" clip-rule="evenodd" d="M175.131 39.1511L206.469 86.1119L206.901 85.851L176.009 39.557L175.131 39.1511Z" fill="#335840"/>
<path fill-rule="evenodd" clip-rule="evenodd" d="M192.005 47.094L214.76 81.184L215.192 80.9232L192.883 47.4998L192.005 47.094Z" fill="#213929"/>
<path fill-rule="evenodd" clip-rule="evenodd" d="M191.127 46.6736L214.328 81.4304L214.76 81.1695L192.005 47.0939L191.127 46.6736Z" fill="#335840"/>
<path fill-rule="evenodd" clip-rule="evenodd" d="M208.015 54.6021L222.618 76.5026L223.05 76.2417L208.893 55.0224L208.015 54.6021Z" fill="#213929"/>
<path fill-rule="evenodd" clip-rule="evenodd" d="M207.137 54.1963L222.2 76.7491L222.618 76.5027L208.015 54.6166L207.137 54.1963Z" fill="#335840"/>
<path fill-rule="evenodd" clip-rule="evenodd" d="M157.809 29.5852L126.276 56.1674L125.816 55.892L157.35 29.3098L157.809 29.5852Z" fill="#538F67"/>
<path fill-rule="evenodd" clip-rule="evenodd" d="M158.269 29.875L126.736 56.4427L126.276 56.1673L157.809 29.5996L158.269 29.875Z" fill="#213929"/>
<path fill-rule="evenodd" clip-rule="evenodd" d="M149.435 24.5703L117.916 51.138L117.456 50.8626L148.975 24.2949L149.435 24.5703Z" fill="#538F67"/>
<path fill-rule="evenodd" clip-rule="evenodd" d="M149.895 24.8455L118.376 51.4131L117.916 51.1377L149.435 24.5701L149.895 24.8455Z" fill="#213929"/>
<path fill-rule="evenodd" clip-rule="evenodd" d="M141.076 19.5408L109.543 46.1228L109.083 45.8329L140.616 19.2654L141.076 19.5408Z" fill="#538F67"/>
<path fill-rule="evenodd" clip-rule="evenodd" d="M141.535 19.8162L110.002 46.3838L109.542 46.1084L141.075 19.5408L141.535 19.8162Z" fill="#213929"/>
<path fill-rule="evenodd" clip-rule="evenodd" d="M117.916 51.1379L117.456 50.8625L117.916 51.1379Z" fill="#437254"/>
<path fill-rule="evenodd" clip-rule="evenodd" d="M110.003 46.3838L109.542 46.1084L110.003 46.3838Z" fill="#213929"/>
<path fill-rule="evenodd" clip-rule="evenodd" d="M137.327 131.74L106.365 153.698L59.4766 125.536L90.4243 103.578L137.327 131.74Z" fill="#335840"/>
<path fill-rule="evenodd" clip-rule="evenodd" d="M59.4766 125.536L106.365 153.698V156.988L59.4766 128.826V125.536Z" fill="#E3E3E3"/>
<path fill-rule="evenodd" clip-rule="evenodd" d="M137.327 131.74L106.365 153.698V156.988L137.299 135.073L137.327 131.74Z" fill="#AFAFAF"/>
<path fill-rule="evenodd" clip-rule="evenodd" d="M135.599 130.71L104.832 152.77L104.358 152.48L135.125 130.42L135.599 130.71Z" fill="#437254"/>
<path fill-rule="evenodd" clip-rule="evenodd" d="M136.073 130.986L105.306 153.06L104.832 152.77L135.599 130.71L136.073 130.986Z" fill="#213929"/>
<path fill-rule="evenodd" clip-rule="evenodd" d="M126.946 125.507L96.1788 147.582L95.7051 147.292L126.486 125.232L126.946 125.507Z" fill="#437254"/>
<path fill-rule="evenodd" clip-rule="evenodd" d="M127.434 125.797L96.6535 147.857L96.1797 147.582L126.946 125.507L127.434 125.797Z" fill="#213929"/>
<path fill-rule="evenodd" clip-rule="evenodd" d="M118.306 120.318L87.5255 142.378L87.0518 142.103L117.832 120.028L118.306 120.318Z" fill="#437254"/>
<path fill-rule="evenodd" clip-rule="evenodd" d="M118.78 120.608L88.0002 142.668L87.5264 142.378L118.293 120.318L118.78 120.608Z" fill="#213929"/>
<path fill-rule="evenodd" clip-rule="evenodd" d="M109.653 115.129L78.8862 137.189L78.3984 136.899L109.179 114.839L109.653 115.129Z" fill="#437254"/>
<path fill-rule="evenodd" clip-rule="evenodd" d="M110.127 115.405L79.3597 137.465L78.8721 137.189L109.653 115.115L110.127 115.405Z" fill="#213929"/>
<path fill-rule="evenodd" clip-rule="evenodd" d="M101.001 109.926L70.2336 131.986L69.7598 131.71L100.527 109.65L101.001 109.926Z" fill="#437254"/>
<path fill-rule="evenodd" clip-rule="evenodd" d="M101.474 110.216L70.7072 132.276L70.2334 131.986L101.001 109.926L101.474 110.216Z" fill="#213929"/>
<path fill-rule="evenodd" clip-rule="evenodd" d="M236.65 72.2556V68.1538L167.718 108.926V113.52L236.65 72.2556Z" fill="#AFAFAF"/>
<path fill-rule="evenodd" clip-rule="evenodd" d="M167.717 113.52L54.8359 45.7749V41.3252L167.717 108.926V113.52Z" fill="#E3E3E3"/>
<path fill-rule="evenodd" clip-rule="evenodd" d="M172.776 148.648L233.947 110.197V108.45L172.776 146.026V148.648Z" fill="#727171"/>
<path fill-rule="evenodd" clip-rule="evenodd" d="M238.316 157.387V146.9L164.911 192.341V199.769C195.109 180.989 208.119 176.37 238.316 157.387Z" fill="#7F7F7F"/>
<path fill-rule="evenodd" clip-rule="evenodd" d="M238.316 158.697V157.386L164.911 199.332V200.206L238.316 158.697Z" fill="#3A1D1B"/>
<path fill-rule="evenodd" clip-rule="evenodd" d="M238.316 161.756V158.697L164.911 200.206V204.139L238.316 161.756Z" fill="#612E2B"/>
<path fill-rule="evenodd" clip-rule="evenodd" d="M84.0322 98.8108V67.0975C80.27 64.8461 76.4985 62.6092 72.7178 60.3867V92.129L84.0322 98.8108Z" fill="#7E7E7E"/>
<path fill-rule="evenodd" clip-rule="evenodd" d="M84.0322 98.8109V85.3169L74.8079 90.8247L72.7178 92.0712L84.0322 98.8109Z" fill="#E3E3E3"/>
<path fill-rule="evenodd" clip-rule="evenodd" d="M84.0321 67.0977L74.7939 61.6189V90.8825L84.0321 96.3902V67.0977Z" fill="#3A3D3F"/>
</svg>
