<svg width="122" height="122" viewBox="0 0 122 122" fill="none" xmlns="http://www.w3.org/2000/svg">
<g clip-path="url(#clip0)">
<path d="M109.572 39.8463C109.011 38.5604 107.52 37.967 106.226 38.5305C104.94 39.0915 104.349 40.5894 104.91 41.8768C112.827 60.0556 108.882 80.8604 94.8589 94.8823C85.8131 103.928 73.7858 108.911 60.994 108.911C49.8265 108.911 39.242 105.112 30.7148 98.1288L48.6539 94.2867C50.0267 93.9923 50.903 92.6407 50.6077 91.2681C50.3123 89.8952 48.9517 89.0177 47.5916 89.3143L24.7982 94.196C23.4253 94.4901 22.549 95.842 22.8444 97.2146L27.7249 120.01C28.3076 122.305 30.4783 122.008 30.7412 121.963C32.018 121.744 32.9901 120.317 32.6948 118.945L29.4005 103.553C38.484 110.33 49.4572 113.995 60.9942 113.995C75.1439 113.995 88.4472 108.484 98.454 98.4772C113.966 82.9681 118.33 59.955 109.572 39.8463Z" fill="#1B3954"/>
<path d="M27.1394 27.1402C44.6588 9.61974 72.4854 8.54025 91.2823 23.8947L73.3445 27.7361C71.9717 28.0302 71.0956 29.3821 71.3909 30.7547C71.6467 31.9475 72.6991 32.764 73.8732 32.764C74.0116 32.9617 97.2029 27.8265 97.2029 27.8265C99.1662 27.3825 99.2982 25.467 99.1565 24.8079L94.2735 2.01348C93.9806 0.641885 92.6227 -0.243126 91.2574 0.05968C89.8848 0.353771 89.0082 1.70569 89.3036 3.07828L92.6023 18.4818C71.8721 3.05911 42.3427 4.74521 23.5446 23.5458C8.0345 39.0544 3.6702 62.069 12.4259 82.1779C12.8428 83.1349 13.9945 84.1668 15.7722 83.4937C16.9979 83.0298 17.6491 81.4344 17.0881 80.1474C9.17151 61.9684 13.1162 41.1621 27.1394 27.1402Z" fill="#1B3954"/>
<path d="M37.1118 61.7112L29.0436 69.817V73.621H47.2309V69.3217H35.1709L41.4083 62.9665C43.3141 61.0157 44.6197 59.4177 45.3301 58.1746C46.0403 56.9315 46.3954 55.6234 46.3954 54.2556C46.3954 51.8197 45.555 49.8985 43.8846 48.4906C42.2089 47.0826 40.2631 46.3796 38.0421 46.3796C35.8211 46.3796 34.0105 46.8224 32.5998 47.7101C31.1941 48.5981 29.9037 49.9187 28.7383 51.6668L32.3548 53.76C33.8003 51.5291 35.6112 50.4112 37.7968 50.4112C39.0374 50.4112 40.0629 50.7865 40.8779 51.5343C41.6882 52.2821 42.0936 53.1898 42.0936 54.2556C42.0936 55.3209 41.7136 56.3737 40.9534 57.4116C40.1931 58.4525 38.9124 59.8856 37.1118 61.7112Z" fill="#B72A27"/>
<path d="M66.3285 73.6213V66.9259H69.5247V62.8542H66.3285V57.9847H62.0668V62.8542H55.7141L65.3382 47.0251H60.431L50.6523 62.9668V66.9259H62.0668V73.6213H66.3285Z" fill="#B72A27"/>
<path d="M92.7343 73.6213V61.2187C92.7343 58.5801 92.0341 56.5643 90.6234 55.1688C89.2177 53.7733 87.372 53.0756 85.0862 53.0756C83.6656 53.0756 82.34 53.4307 81.1094 54.1409C79.8787 54.8511 78.9636 55.829 78.3533 57.0696V45.4272H74.0913V73.6213H78.3533V62.6645C78.3533 60.7862 78.8984 59.3608 79.9888 58.3829C81.0793 57.4073 82.3597 56.9197 83.8304 56.9197C86.9267 56.9197 88.4721 58.7828 88.4721 62.5121V73.6216L92.7343 73.6213Z" fill="#1B3954"/>
<path d="M103.5 32C104.881 32 106 33.1189 106 34.4994C106 35.8803 104.881 37 103.5 37C102.119 37 101 35.8807 101 34.5C101 33.1193 102.119 32 103.5 32Z" fill="#B72A27"/>
<path d="M18.4999 85C19.8805 85 20.9997 86.1189 21 87.4994C21.0003 88.8803 19.8809 90 18.5 90C17.1192 90 16 88.8807 16 87.5C16 86.1193 17.1192 85 18.4999 85Z" fill="#B72A27"/>
</g>
<defs>
<clipPath id="clip0">
<rect width="122" height="122" fill="white"/>
</clipPath>
</defs>
</svg>
