<svg width="122" height="122" viewBox="0 0 122 122" fill="none" xmlns="http://www.w3.org/2000/svg">
<path d="M44.8687 70.863H12.603C11.6809 70.863 10.9351 70.1172 10.9351 69.195V65.9877C10.9351 65.0656 11.6809 64.3198 12.603 64.3198C13.5252 64.3198 14.271 65.0656 14.271 65.9877V67.527H43.2007V54.474H14.271V56.1372C14.271 57.0593 13.5252 57.8052 12.603 57.8052C11.6809 57.8052 10.9351 57.0593 10.9351 56.1372V52.806C10.9351 51.8839 11.6809 51.1381 12.603 51.1381H44.8687C45.7908 51.1381 46.5367 51.8839 46.5367 52.806V69.195C46.5367 70.1148 45.7908 70.863 44.8687 70.863Z" fill="#1B3954"/>
<path d="M28.7347 54.4735H12.603C11.6809 54.4735 10.9351 53.7277 10.9351 52.8055V36.4189C10.9351 35.4968 11.6809 34.751 12.603 34.751H28.7347C29.6568 34.751 30.4026 35.4968 30.4026 36.4189V52.8055C30.4026 53.7277 29.6568 54.4735 28.7347 54.4735ZM14.271 51.1376H27.0667V38.0869H14.271V51.1376Z" fill="#1B3954"/>
<path d="M28.7347 87.2494H12.603C11.6809 87.2494 10.9351 86.5036 10.9351 85.5814V69.1948C10.9351 68.2727 11.6809 67.5269 12.603 67.5269H28.7347C29.6568 67.5269 30.4026 68.2727 30.4026 69.1948V85.5814C30.4026 86.5012 29.6568 87.2494 28.7347 87.2494ZM14.271 83.9135H27.0667V70.8628H14.271V83.9135Z" fill="#1B3954"/>
<path d="M93.2662 87.2494H61.0005C60.0783 87.2494 59.3325 86.5036 59.3325 85.5814V69.1948C59.3325 68.2727 60.0783 67.5269 61.0005 67.5269H93.2662C94.1883 67.5269 94.9341 68.2727 94.9341 69.1948V85.5814C94.9341 86.5036 94.1883 87.2494 93.2662 87.2494ZM62.6685 83.9135H91.5982V70.8628H62.6685V83.9135Z" fill="#1B3954"/>
<path d="M61 87.2494H28.7344C27.8122 87.2494 27.0664 86.5036 27.0664 85.5814V69.1948C27.0664 68.2727 27.8122 67.5269 28.7344 67.5269H61C61.9222 67.5269 62.668 68.2727 62.668 69.1948V85.5814C62.668 86.5036 61.9222 87.2494 61 87.2494ZM30.4023 83.9135H59.3321V70.8628H30.4023V83.9135Z" fill="#B72A27"/>
<path d="M44.8684 83.9135H30.4047V70.8628H59.3321V83.9135H62.668V69.1948C62.668 68.2727 61.9222 67.5269 61 67.5269H28.7344C27.8122 67.5269 27.0664 68.2727 27.0664 69.1948V85.5814C27.0664 86.5036 27.8122 87.2494 28.7344 87.2494H43.198V85.5814C43.2004 84.6593 43.9463 83.9135 44.8684 83.9135Z" fill="#B72A27"/>
<path d="M77.1343 83.9138H62.6683V85.5818C62.6683 86.5039 61.9224 87.2498 61.0003 87.2498H75.464V100.3H46.5366V87.2498H43.2007V101.968C43.2007 102.891 43.9465 103.636 44.8687 103.636H77.1343C78.0565 103.636 78.8023 102.891 78.8023 101.968V85.5818C78.8023 84.6596 78.0541 83.9138 77.1343 83.9138Z" fill="#1B3954"/>
<path d="M61.0003 87.2498C61.9224 87.2498 62.6683 86.5039 62.6683 85.5818V83.9138H59.3323H44.8687C43.9465 83.9138 43.2007 84.6596 43.2007 85.5818V87.2498H46.5366H61.0003Z" fill="#B72A27"/>
<path d="M93.8428 103.638C93.7355 103.638 93.6259 103.626 93.5187 103.605C93.4115 103.584 93.3066 103.553 93.2066 103.51C93.1041 103.469 93.0088 103.417 92.9182 103.357C92.8253 103.295 92.7419 103.226 92.6633 103.15C92.587 103.071 92.5179 102.988 92.456 102.895C92.3964 102.804 92.344 102.709 92.3035 102.607C92.2606 102.507 92.2296 102.402 92.2082 102.294C92.1867 102.187 92.1748 102.078 92.1748 101.97C92.1748 101.861 92.1867 101.751 92.2082 101.644C92.2296 101.537 92.2606 101.432 92.3035 101.332C92.344 101.232 92.3964 101.134 92.456 101.044C92.5179 100.953 92.587 100.867 92.6633 100.791C92.7419 100.712 92.8253 100.643 92.9182 100.581C93.0088 100.522 93.1041 100.472 93.2066 100.429C93.3066 100.388 93.4115 100.355 93.5187 100.333C93.7332 100.291 93.9548 100.291 94.1692 100.333C94.2765 100.355 94.3813 100.388 94.4814 100.429C94.5815 100.472 94.6791 100.522 94.7697 100.581C94.8602 100.643 94.946 100.712 95.0223 100.791C95.1009 100.867 95.17 100.953 95.2296 101.044C95.2915 101.134 95.3416 101.232 95.3845 101.332C95.425 101.432 95.4559 101.537 95.4774 101.644C95.5012 101.751 95.5107 101.861 95.5107 101.97C95.5107 102.078 95.5012 102.187 95.4774 102.294C95.4559 102.402 95.425 102.507 95.3845 102.607C95.3416 102.709 95.2915 102.804 95.2296 102.895C95.17 102.988 95.1009 103.071 95.0223 103.15C94.946 103.226 94.8602 103.295 94.7697 103.357C94.6791 103.417 94.5815 103.469 94.4814 103.51C94.3813 103.553 94.2765 103.584 94.1692 103.605C94.062 103.626 93.9524 103.638 93.8428 103.638Z" fill="#1B3954"/>
<path d="M109.4 103.638H99.4255C98.5033 103.638 97.7575 102.892 97.7575 101.97C97.7575 101.048 98.5033 100.302 99.4255 100.302H107.732V87.2516H78.8022V100.302H88.262C89.1842 100.302 89.93 101.048 89.93 101.97C89.93 102.892 89.1842 103.638 88.262 103.638H77.1343C76.2121 103.638 75.4663 102.892 75.4663 101.97V85.5836C75.4663 84.6615 76.2121 83.9156 77.1343 83.9156H109.4C110.322 83.9156 111.068 84.6615 111.068 85.5836V101.97C111.068 102.89 110.32 103.638 109.4 103.638Z" fill="#1B3954"/>
<path d="M44.8687 103.638H12.603C11.6809 103.638 10.9351 102.892 10.9351 101.97V85.5836C10.9351 84.6615 11.6809 83.9156 12.603 83.9156H44.8687C45.7908 83.9156 46.5367 84.6615 46.5367 85.5836V101.97C46.5367 102.89 45.7908 103.638 44.8687 103.638ZM14.271 100.302H43.2007V87.2516H14.271V100.302Z" fill="#B72A27"/>
<path d="M61.0005 54.4735H28.7349C27.8127 54.4735 27.0669 53.7277 27.0669 52.8055V36.4189C27.0669 35.4968 27.8127 34.751 28.7349 34.751H61.0005C61.9227 34.751 62.6685 35.4968 62.6685 36.4189V45.5118C62.6685 46.4339 61.9227 47.1797 61.0005 47.1797C60.0784 47.1797 59.3326 46.4339 59.3326 45.5118V38.0845H30.4028V51.1352H61.0005C61.9227 51.1352 62.6685 51.881 62.6685 52.8032C62.6685 53.7253 61.9227 54.4735 61.0005 54.4735Z" fill="#1B3954"/>
<path d="M44.8686 38.0872H12.6006C11.6784 38.0872 10.9326 37.3414 10.9326 36.4193V20.0303C10.9326 19.1081 11.6784 18.3623 12.6006 18.3623H44.8686C45.7908 18.3623 46.5366 19.1081 46.5366 20.0303V36.4169C46.5366 37.339 45.7884 38.0872 44.8686 38.0872ZM14.2686 34.7513H43.2007V21.6982H14.2686V34.7513Z" fill="#1B3954"/>
<path d="M12.603 62.5851C12.4934 62.5851 12.3838 62.5756 12.2766 62.5541C12.1717 62.5327 12.0669 62.4993 11.9644 62.4588C11.8644 62.4159 11.7667 62.3659 11.6785 62.3039C11.5856 62.2444 11.4998 62.1753 11.4235 62.0966C11.3473 62.0204 11.2782 61.9346 11.2162 61.8441C11.1567 61.7535 11.1042 61.6558 11.0637 61.5557C11.0208 61.4557 10.9899 61.3508 10.9684 61.2436C10.947 61.1364 10.9351 61.0268 10.9351 60.9171C10.9351 60.8099 10.947 60.7003 10.9684 60.5907C10.9899 60.4859 11.0208 60.381 11.0637 60.2809C11.1042 60.1785 11.1567 60.0832 11.2162 59.9926C11.2782 59.8997 11.3473 59.8139 11.4235 59.7377C11.4998 59.6614 11.5856 59.5923 11.6785 59.5303C11.7667 59.4708 11.8644 59.4184 11.9644 59.3778C12.0669 59.3373 12.1717 59.304 12.2766 59.2825C12.4934 59.2396 12.7126 59.2396 12.9295 59.2825C13.0343 59.304 13.1415 59.3373 13.2416 59.3778C13.3417 59.4184 13.4394 59.4708 13.5276 59.5303C13.6205 59.5923 13.7063 59.6614 13.7825 59.7377C13.8588 59.8139 13.9279 59.8997 13.9898 59.9926C14.0494 60.0832 14.1018 60.1785 14.1423 60.2809C14.1852 60.381 14.2162 60.4859 14.2376 60.5907C14.2615 60.7003 14.271 60.8099 14.271 60.9171C14.271 61.0268 14.2615 61.1364 14.2376 61.2436C14.2162 61.3508 14.1852 61.4557 14.1423 61.5557C14.1018 61.6558 14.0494 61.7535 13.9898 61.8441C13.9279 61.9346 13.8588 62.0204 13.7825 62.0966C13.7063 62.1753 13.6205 62.2444 13.5276 62.3039C13.4394 62.3659 13.3417 62.4159 13.2416 62.4588C13.1415 62.4993 13.0343 62.5327 12.9295 62.5541C12.8222 62.5756 12.7126 62.5851 12.603 62.5851Z" fill="#1B3954"/>
<path d="M77.1343 70.863H44.8687C43.9465 70.863 43.2007 70.1172 43.2007 69.195V52.806C43.2007 51.8839 43.9465 51.1381 44.8687 51.1381H77.1343C78.0565 51.1381 78.8023 51.8839 78.8023 52.806V69.195C78.8023 70.1148 78.0541 70.863 77.1343 70.863ZM46.5366 67.527H75.4664V54.474H46.5366V67.527Z" fill="#B72A27"/>
</svg>
