<svg width="122" height="122" viewBox="0 0 122 122" fill="none" xmlns="http://www.w3.org/2000/svg">
<path d="M61.0001 59.5036C59.3775 59.5036 57.8072 59.1819 56.3275 58.5481C51.9455 56.6728 49.1123 52.3814 49.1123 47.6134V30.1926C49.1123 29.2705 49.8581 28.5247 50.7803 28.5247H71.22C72.1422 28.5247 72.888 29.2705 72.888 30.1926V47.6134C72.888 52.3814 70.0548 56.6728 65.6705 58.5505C64.1931 59.1819 62.6228 59.5036 61.0001 59.5036ZM52.4482 31.8606V47.6134C52.4482 51.0446 54.4855 54.1327 57.6404 55.4814C58.7007 55.9365 59.8326 56.1677 61.0001 56.1677C62.1677 56.1677 63.2972 55.9365 64.3575 55.4838C67.5124 54.1327 69.5521 51.0446 69.5521 47.6134V31.8606H52.4482Z" fill="#1B3954"/>
<path d="M50.7803 45.5495C46.8082 45.5495 43.5747 42.3184 43.5747 38.3462C43.5747 34.3741 46.8082 31.1406 50.7803 31.1406C51.7025 31.1406 52.4483 31.8864 52.4483 32.8086V43.8815C52.4483 44.8037 51.7025 45.5495 50.7803 45.5495ZM49.1124 34.8554C47.8113 35.4797 46.9106 36.8093 46.9106 38.3462C46.9106 39.8832 47.8113 41.2128 49.1124 41.8347V34.8554Z" fill="#1B3954"/>
<path d="M71.2202 45.5495C70.2981 45.5495 69.5522 44.8037 69.5522 43.8815V32.8086C69.5522 31.8864 70.2981 31.1406 71.2202 31.1406C75.1924 31.1406 78.4258 34.3741 78.4258 38.3462C78.4258 42.3184 75.1924 45.5495 71.2202 45.5495ZM72.8882 34.8554V41.8371C74.1892 41.2128 75.0899 39.8832 75.0899 38.3486C75.0899 36.8093 74.1892 35.4797 72.8882 34.8554Z" fill="#1B3954"/>
<path d="M57.5691 24.7054H47.0299C46.5533 24.7054 46.1006 24.5028 45.7837 24.1478C45.4667 23.7927 45.3166 23.3186 45.3714 22.8468C46.1196 16.3965 50.8591 10.9994 57.1616 9.41724C57.6596 9.29334 58.1886 9.40295 58.5937 9.71986C58.9987 10.0368 59.2346 10.5205 59.2346 11.0352V23.0398C59.237 23.9595 58.4888 24.7054 57.5691 24.7054ZM49.0505 21.3694H55.9011V13.3751C52.5652 14.8882 50.0322 17.8357 49.0505 21.3694Z" fill="#1B3954"/>
<path d="M74.9703 24.7051H64.4312C63.509 24.7051 62.7632 23.9592 62.7632 23.0371V11.0325C62.7632 10.5178 62.9991 10.0341 63.4042 9.71717C63.8092 9.40026 64.3382 9.29065 64.8362 9.41456C71.1388 10.9967 75.8782 16.3938 76.6264 22.8441C76.6812 23.3159 76.5311 23.7901 76.2142 24.1451C75.8996 24.5025 75.4469 24.7051 74.9703 24.7051ZM66.0991 21.3691H72.9497C71.968 17.8354 69.4351 14.8855 66.0991 13.3748V21.3691Z" fill="#1B3954"/>
<path d="M64.4313 24.705H57.5688C56.6467 24.705 55.9009 23.9592 55.9009 23.037V8.31602C55.9009 5.5043 58.1884 3.2168 61.0001 3.2168C62.3631 3.2168 63.6426 3.74816 64.6053 4.71082C65.568 5.67348 66.0993 6.95543 66.0993 8.3184V23.0394C66.0993 23.9592 65.3535 24.705 64.4313 24.705ZM59.2368 21.3691H62.7634V8.31602C62.7634 7.84422 62.5799 7.40102 62.2463 7.06742C61.9127 6.73383 61.4695 6.55035 60.9977 6.55035C60.0255 6.55035 59.2344 7.34144 59.2344 8.31363V21.3691H59.2368Z" fill="#1B3954"/>
<path d="M69.9883 24.705C69.0661 24.705 68.3203 23.9592 68.3203 23.0371V11.0325C68.3203 10.1103 69.0661 9.3645 69.9883 9.3645C70.9104 9.3645 71.6562 10.1103 71.6562 11.0325V23.0371C71.6562 23.9592 70.9104 24.705 69.9883 24.705Z" fill="#B72A27"/>
<path d="M52.0122 24.705C51.0901 24.705 50.3442 23.9592 50.3442 23.0371V11.0325C50.3442 10.1103 51.0901 9.3645 52.0122 9.3645C52.9344 9.3645 53.6802 10.1103 53.6802 11.0325V23.0371C53.6802 23.9592 52.932 24.705 52.0122 24.705Z" fill="#B72A27"/>
<path d="M60.9998 72.0894C57.8664 72.0894 55.3167 69.5398 55.3167 66.4064V62.5153C55.3167 61.5931 56.0626 60.8473 56.9847 60.8473C57.9069 60.8473 58.6527 61.5931 58.6527 62.5153V66.4064C58.6527 67.7003 59.7059 68.7535 60.9998 68.7535C62.2936 68.7535 63.3468 67.7003 63.3468 66.4064V59.2723C62.5796 59.4272 61.7956 59.5034 60.9998 59.5034C59.3771 59.5034 57.8044 59.1817 56.3271 58.5479C55.4812 58.1857 55.088 57.204 55.4502 56.3581C55.8124 55.5122 56.7941 55.119 57.64 55.4812C58.7003 55.9364 59.8298 56.1651 60.9974 56.1651C62.165 56.1651 63.2944 55.934 64.3548 55.4812C64.8694 55.2596 65.4628 55.3121 65.9298 55.6218C66.3968 55.9292 66.6804 56.4534 66.6804 57.0134V66.404C66.6828 69.5398 64.1332 72.0894 60.9998 72.0894Z" fill="#1B3954"/>
<path d="M77.0006 31.8602H44.9995C42.1067 31.8602 39.7549 29.506 39.7549 26.6157C39.7549 25.2146 40.3005 23.8969 41.2894 22.908C42.2807 21.9168 43.5984 21.3711 44.9995 21.3711H76.9982C79.891 21.3711 82.2428 23.7253 82.2428 26.6157C82.2428 28.0168 81.6971 29.3345 80.7083 30.3233C79.7194 31.3146 78.4017 31.8602 77.0006 31.8602ZM44.9995 24.7046C44.4895 24.7046 44.0082 24.9024 43.646 25.2646C43.2862 25.6244 43.0884 26.1034 43.0884 26.6157C43.0884 27.6689 43.9462 28.5243 44.9971 28.5243H76.9959C77.5082 28.5243 77.9871 28.3265 78.3493 27.9643C78.7091 27.6045 78.9069 27.1256 78.9069 26.6133C78.9069 25.5601 78.0491 24.7046 76.9982 24.7046H44.9995Z" fill="#B72A27"/>
<path d="M60.9738 107.846C56.4988 107.846 52.8579 104.205 52.8579 99.7303V88.4143C52.8579 87.4922 53.6037 86.7463 54.5259 86.7463H67.424C68.3462 86.7463 69.092 87.4922 69.092 88.4143V99.7303C69.092 104.203 65.4511 107.846 60.9738 107.846ZM56.1938 90.0799V99.7279C56.1938 102.363 58.3384 104.508 60.9738 104.508C63.6092 104.508 65.7537 102.363 65.7537 99.7279V90.0799H56.1938Z" fill="#B72A27"/>
<path d="M73.1426 118.783H48.8569C47.9348 118.783 47.189 118.037 47.189 117.115V79.6121C47.189 78.6899 47.9348 77.9441 48.8569 77.9441H73.1426C74.0647 77.9441 74.8105 78.6899 74.8105 79.6121V117.115C74.8105 118.037 74.0647 118.783 73.1426 118.783ZM50.5249 115.447H71.4746V81.28H50.5249V115.447Z" fill="#1B3954"/>
<path d="M28.0029 105.958C26.3683 105.958 24.8623 105.289 23.7639 104.071L9.48606 88.266C9.18583 87.9348 9.03333 87.4964 9.05954 87.0484C9.08575 86.6028 9.29067 86.1834 9.62903 85.8904L14.509 81.6299C15.1476 81.0723 16.1031 81.0842 16.7298 81.6537L26.6328 90.687L39.9551 65.7889C40.3149 65.1146 41.0893 64.7715 41.8304 64.9573C42.5714 65.1432 43.0933 65.8104 43.0933 66.5753V83.7482C43.0933 84.0222 43.0265 84.2939 42.8955 84.5345L33.0497 102.937C32.0513 104.8 30.1164 105.958 28.0029 105.958ZM13.0984 87.2891L26.2396 101.836C26.7043 102.351 27.3143 102.622 28.0053 102.622C28.8869 102.622 29.6947 102.139 30.1117 101.362L39.7573 83.3312V73.2305L28.5629 94.1516C28.3198 94.6043 27.8814 94.9212 27.3738 95.0094C26.8663 95.0975 26.3468 94.945 25.968 94.5972L15.5789 85.1231L13.0984 87.2891Z" fill="#1B3954"/>
<path d="M73.143 81.2798H48.8574C47.9353 81.2798 47.1895 80.5339 47.1895 79.6118V66.4063C47.1895 65.4841 47.9353 64.7383 48.8574 64.7383H56.9852C57.9073 64.7383 58.6532 65.4841 58.6532 66.4063C58.6532 67.7001 59.7064 68.7533 61.0002 68.7533C62.2941 68.7533 63.3473 67.7001 63.3473 66.4063C63.3473 65.4841 64.0931 64.7383 65.0153 64.7383H73.143C74.0652 64.7383 74.811 65.4841 74.811 66.4063V79.6118C74.811 80.5339 74.0652 81.2798 73.143 81.2798ZM50.5254 77.9438H71.4751V68.0742H66.433C65.7182 70.3975 63.5522 72.0893 61.0002 72.0893C58.4482 72.0893 56.2823 70.3975 55.5674 68.0742H50.5254V77.9438Z" fill="#1B3954"/>
<path d="M12.1453 87.5753C12.0881 87.5753 12.0309 87.5729 11.9737 87.5658C11.5138 87.5181 11.0921 87.2822 10.8133 86.9105L4.52982 78.5873C4.31061 78.299 4.19385 77.944 4.19385 77.5818V70.4334C4.19385 69.7757 4.57986 69.18 5.18033 68.9107C5.7808 68.6415 6.48373 68.7511 6.97221 69.1895L10.7561 72.5731L12.1405 71.9512C12.6147 71.7391 13.1628 71.7582 13.6179 72.006C14.0754 72.2538 14.3899 72.7018 14.4709 73.2141L16.0984 83.6294C16.1865 84.1941 15.9792 84.766 15.548 85.1425L13.2414 87.1559C12.9364 87.43 12.548 87.5753 12.1453 87.5753ZM7.52979 77.0242L12.3979 83.4721L12.6624 83.241L11.5138 75.8924L11.135 76.0616C10.5345 76.3308 9.83158 76.2212 9.34072 75.7828L7.52979 74.1625V77.0242Z" fill="#1B3954"/>
<path d="M48.8572 118.783H41.4229C40.5007 118.783 39.7549 118.037 39.7549 117.115V109.492C39.7549 108.57 40.5007 107.824 41.4229 107.824C42.345 107.824 43.0908 108.57 43.0908 109.492V115.447H47.1893V68.0742H43.0908V99.3629C43.0908 100.285 42.345 101.031 41.4229 101.031C40.5007 101.031 39.7549 100.285 39.7549 99.3629V66.5778C39.7549 66.3014 39.824 66.0274 39.955 65.7843L40.048 65.6128C40.3387 65.0743 40.9034 64.7383 41.5158 64.7383H48.8572C49.7794 64.7383 50.5252 65.4841 50.5252 66.4063V117.115C50.5252 118.037 49.7794 118.783 48.8572 118.783Z" fill="#B72A27"/>
<path d="M41.4229 106.121C40.9844 106.121 40.5531 105.942 40.2434 105.632C39.9336 105.322 39.7549 104.893 39.7549 104.453C39.7549 104.345 39.7668 104.236 39.7882 104.129C39.8097 104.021 39.8407 103.917 39.8836 103.816C39.9241 103.714 39.9765 103.619 40.0361 103.528C40.098 103.435 40.1671 103.349 40.2434 103.273C40.5531 102.963 40.9844 102.785 41.4229 102.785C41.8613 102.785 42.2926 102.963 42.6023 103.273C42.9121 103.585 43.0908 104.014 43.0908 104.453C43.0908 104.891 42.9121 105.322 42.6023 105.632C42.2926 105.942 41.8613 106.121 41.4229 106.121Z" fill="#B72A27"/>
<path d="M93.9972 105.959C91.8836 105.959 89.9487 104.801 88.9503 102.94L79.1069 84.5371C78.9783 84.2941 78.9092 84.0248 78.9092 83.7508V66.5779C78.9092 65.6557 79.655 64.9099 80.5771 64.9099C81.4993 64.9099 82.2451 65.6557 82.2451 66.5779V83.3314L91.8907 101.362C92.3077 102.139 93.1131 102.62 93.9972 102.62C94.6858 102.62 95.2958 102.349 95.7628 101.834L108.904 87.2869L106.424 85.1209L96.0345 94.5974C95.6532 94.9453 95.1338 95.0954 94.6286 95.0096C94.1211 94.9214 93.6826 94.6069 93.4396 94.1518L84.3825 77.2243C83.9488 76.4117 84.2538 75.4014 85.0664 74.9678C85.8789 74.5341 86.8892 74.8391 87.3229 75.6516L95.3673 90.6896L105.27 81.6563C105.897 81.0844 106.852 81.0749 107.491 81.6325L112.371 85.893C112.707 86.186 112.912 86.6054 112.938 87.051C112.964 87.4966 112.809 87.935 112.512 88.2686L98.2338 104.074C97.1377 105.289 95.6318 105.959 93.9972 105.959Z" fill="#1B3954"/>
<path d="M109.855 87.5752C109.455 87.5752 109.064 87.4299 108.759 87.163L106.453 85.1495C106.021 84.7731 105.814 84.2012 105.902 83.6365L107.53 73.2212C107.611 72.7065 107.925 72.2609 108.383 72.0131C108.84 71.7653 109.386 71.7438 109.86 71.9583L111.245 72.5802L115.028 69.1966C115.519 68.7582 116.22 68.6486 116.82 68.9178C117.421 69.1871 117.807 69.7828 117.807 70.4404V77.5889C117.807 77.9511 117.688 78.3037 117.471 78.5944L111.187 86.9176C110.909 87.2869 110.489 87.5228 110.027 87.5729C109.97 87.5705 109.913 87.5752 109.855 87.5752ZM109.338 83.2409L109.603 83.472L114.471 77.0241V74.1648L112.66 75.7851C112.169 76.2235 111.466 76.3331 110.866 76.0639L110.487 75.8947L109.338 83.2409Z" fill="#1B3954"/>
<path d="M80.5774 118.783H73.1431C72.2209 118.783 71.4751 118.037 71.4751 117.115V66.4063C71.4751 65.4841 72.2209 64.7383 73.1431 64.7383H80.4845C81.0969 64.7383 81.6592 65.0743 81.9499 65.6128L82.0429 65.7843C82.1739 66.0274 82.2454 66.3014 82.2454 66.5778V117.115C82.2454 118.037 81.4996 118.783 80.5774 118.783ZM74.811 115.447H78.9095V68.0742H74.811V115.447Z" fill="#B72A27"/>
<path d="M57.1279 39.5466C57.0183 39.5466 56.9087 39.5347 56.8015 39.5133C56.6943 39.4918 56.5894 39.4608 56.4893 39.418C56.3893 39.3774 56.2916 39.325 56.201 39.2655C56.1105 39.2035 56.0247 39.1344 55.9484 39.0582C55.6363 38.746 55.46 38.3171 55.46 37.8787C55.46 37.7691 55.4695 37.6594 55.4909 37.5522C55.5124 37.445 55.5457 37.3401 55.5862 37.2401C55.6291 37.14 55.6792 37.0423 55.7411 36.9517C55.8007 36.8612 55.8698 36.7754 55.9484 36.6992C56.2582 36.387 56.6871 36.2107 57.1279 36.2107C57.5664 36.2107 57.9953 36.387 58.3074 36.6992C58.3837 36.7754 58.4528 36.8612 58.5147 36.9517C58.5743 37.0423 58.6243 37.14 58.6672 37.2401C58.7077 37.3401 58.7411 37.445 58.7625 37.5522C58.784 37.6594 58.7959 37.7691 58.7959 37.8787C58.7959 38.3171 58.6172 38.746 58.3074 39.0582C57.9953 39.3679 57.5664 39.5466 57.1279 39.5466Z" fill="#1B3954"/>
<path d="M64.8721 39.5451C64.7648 39.5451 64.6552 39.5332 64.548 39.5118C64.4408 39.4903 64.3359 39.4594 64.2359 39.4165C64.1334 39.376 64.0381 39.3235 63.9475 39.264C63.8546 39.202 63.7712 39.1329 63.6926 39.0567C63.3828 38.7445 63.2041 38.3156 63.2041 37.8772C63.2041 37.7676 63.216 37.658 63.2375 37.5507C63.2589 37.4435 63.2923 37.3387 63.3328 37.2386C63.3757 37.1385 63.4257 37.0408 63.4853 36.9503C63.5472 36.8597 63.6163 36.7739 63.6926 36.6977C63.7712 36.6214 63.8546 36.5499 63.9475 36.4904C64.0381 36.4308 64.1334 36.3784 64.2359 36.3355C64.3359 36.295 64.4408 36.2616 64.548 36.2402C64.7625 36.1973 64.9841 36.1973 65.1985 36.2402C65.3057 36.2616 65.4106 36.295 65.5107 36.3355C65.6107 36.3784 65.7084 36.4308 65.799 36.4904C65.8895 36.5499 65.9753 36.6214 66.0516 36.6977C66.3637 37.0074 66.5424 37.4387 66.5424 37.8772C66.5424 38.3156 66.3637 38.7445 66.0516 39.0567C65.9753 39.1329 65.8895 39.202 65.799 39.264C65.7084 39.3235 65.6107 39.376 65.5107 39.4165C65.4106 39.4594 65.3057 39.4903 65.1985 39.5118C65.0913 39.5332 64.9817 39.5451 64.8721 39.5451Z" fill="#1B3954"/>
</svg>
