<svg width="122" height="122" viewBox="0 0 122 122" fill="none" xmlns="http://www.w3.org/2000/svg">
<path d="M39.9556 118.783C39.846 118.783 39.7363 118.772 39.6291 118.75C39.5243 118.729 39.4194 118.698 39.317 118.655C39.2169 118.614 39.1192 118.562 39.031 118.502C38.9381 118.44 38.8523 118.371 38.7761 118.295C38.4663 117.985 38.2876 117.554 38.2876 117.116C38.2876 117.006 38.2995 116.896 38.321 116.789C38.3424 116.684 38.3734 116.579 38.4163 116.477C38.4568 116.377 38.5092 116.279 38.5688 116.189C38.6307 116.098 38.6998 116.012 38.7761 115.936C38.8523 115.86 38.9381 115.788 39.0287 115.729C39.1192 115.669 39.2169 115.617 39.317 115.576C39.4171 115.533 39.5243 115.502 39.6291 115.481C39.8436 115.438 40.0676 115.438 40.282 115.481C40.3892 115.502 40.4941 115.533 40.5942 115.576C40.6942 115.617 40.7919 115.669 40.8825 115.729C40.973 115.788 41.0588 115.86 41.1351 115.936C41.2113 116.012 41.2828 116.098 41.3424 116.189C41.4019 116.279 41.4544 116.377 41.4949 116.477C41.5378 116.579 41.5687 116.684 41.5902 116.789C41.6116 116.896 41.6235 117.006 41.6235 117.116C41.6235 117.554 41.4448 117.985 41.1351 118.295C41.0588 118.371 40.973 118.44 40.8825 118.502C40.7919 118.562 40.6942 118.614 40.5942 118.655C40.4941 118.698 40.3892 118.729 40.282 118.75C40.1748 118.772 40.0652 118.783 39.9556 118.783Z" fill="#1B3954"/>
<path d="M108.492 46.4104H103.209C102.287 46.4104 101.542 45.6646 101.542 44.7424C101.542 43.8203 102.287 43.0745 103.209 43.0745H108.492C109.414 43.0745 110.16 43.8203 110.16 44.7424C110.16 45.6646 109.414 46.4104 108.492 46.4104Z" fill="#B72A27"/>
<path d="M108.492 58.6223H103.209C102.287 58.6223 101.542 57.8765 101.542 56.9543C101.542 56.0322 102.287 55.2864 103.209 55.2864H108.492C109.414 55.2864 110.16 56.0322 110.16 56.9543C110.16 57.8765 109.414 58.6223 108.492 58.6223Z" fill="#B72A27"/>
<path d="M108.492 70.8342H103.209C102.287 70.8342 101.542 70.0884 101.542 69.1663C101.542 68.2441 102.287 67.4983 103.209 67.4983H108.492C109.414 67.4983 110.16 68.2441 110.16 69.1663C110.16 70.0884 109.414 70.8342 108.492 70.8342Z" fill="#B72A27"/>
<path d="M108.492 83.0437H103.209C102.287 83.0437 101.542 82.2979 101.542 81.3757C101.542 80.4536 102.287 79.7078 103.209 79.7078H108.492C109.414 79.7078 110.16 80.4536 110.16 81.3757C110.16 82.2979 109.414 83.0437 108.492 83.0437Z" fill="#B72A27"/>
<path d="M108.492 95.2556H103.209C102.287 95.2556 101.542 94.5098 101.542 93.5876C101.542 92.6655 102.287 91.9197 103.209 91.9197H108.492C109.414 91.9197 110.16 92.6655 110.16 93.5876C110.16 94.5098 109.414 95.2556 108.492 95.2556Z" fill="#B72A27"/>
<path d="M108.492 107.467H103.209C102.287 107.467 101.542 106.721 101.542 105.799C101.542 104.877 102.287 104.131 103.209 104.131H108.492C109.414 104.131 110.16 104.877 110.16 105.799C110.16 106.721 109.414 107.467 108.492 107.467Z" fill="#B72A27"/>
<path d="M90.3278 100.619C89.4056 100.619 88.6598 99.8735 88.6598 98.9513V72.676L64.0549 97.2833H81.8426C82.7647 97.2833 83.5105 98.0292 83.5105 98.9513C83.5105 99.8735 82.7647 100.619 81.8426 100.619H60.0279C59.3536 100.619 58.746 100.212 58.4862 99.5899C58.2289 98.9656 58.3719 98.2484 58.8484 97.7718L89.1483 67.472C89.6248 66.9954 90.3421 66.8524 90.9664 67.1098C91.5907 67.3671 91.9957 67.9771 91.9957 68.6515V98.9513C91.9957 99.8711 91.2499 100.619 90.3278 100.619Z" fill="#B72A27"/>
<path d="M108.492 118.783H45.4001C44.4779 118.783 43.7321 118.038 43.7321 117.115C43.7321 116.193 44.4779 115.448 45.4001 115.448H106.824V28.8228L20.2019 115.448H34.2366C35.1588 115.448 35.9046 116.193 35.9046 117.115C35.9046 118.038 35.1588 118.783 34.2366 118.783H16.1749C15.5006 118.783 14.8929 118.376 14.6332 117.754C14.3759 117.13 14.5188 116.413 14.9954 115.936L107.313 23.6187C107.789 23.1421 108.507 22.9992 109.131 23.2565C109.755 23.5139 110.16 24.1239 110.16 24.7982V117.115C110.16 118.038 109.414 118.783 108.492 118.783Z" fill="#1B3954"/>
<path d="M91.0308 26.1204C90.6758 26.1204 90.3184 26.0084 90.0181 25.7773C89.3891 25.296 89.1889 24.4429 89.5225 23.7376C89.7274 23.242 90.1587 22.8726 90.6829 22.7511C91.2453 22.6201 91.8362 22.7869 92.2437 23.1967L92.2651 23.2182C92.9156 23.8687 92.9156 24.9266 92.2651 25.5771L92.2103 25.6319C91.8863 25.956 91.4597 26.1204 91.0308 26.1204Z" fill="#1B3954"/>
<path d="M24.1025 90.871C22.3297 90.871 20.5593 90.1967 19.2106 88.848L14.0113 83.6487C11.3139 80.9514 11.3139 76.5622 14.0113 73.8649L18.6435 69.2327C19.294 68.5822 20.352 68.5822 21.0025 69.2327C21.653 69.8832 21.653 70.9412 21.0025 71.5917L16.3703 76.2239C14.9739 77.6202 14.9739 79.8934 16.3703 81.2897L21.5696 86.489C22.9659 87.8854 25.2391 87.8854 26.6354 86.489L85.8793 27.2452C85.0072 26.9449 84.1923 26.4469 83.5036 25.7607C82.2932 24.5502 81.6331 22.8775 81.6927 21.1666C79.9842 21.2262 78.3115 20.5662 77.0986 19.3557C76.41 18.667 75.912 17.8521 75.6118 16.98L25.6871 66.9071C25.0366 67.5576 23.9786 67.5576 23.3281 66.9071C22.6776 66.2566 22.6776 65.1986 23.3281 64.5481L76.4291 11.4471C77.0271 10.849 77.9755 10.7942 78.6379 11.3161C79.3027 11.8379 79.4719 12.7744 79.0311 13.494C78.3448 14.621 78.5212 16.0626 79.4576 16.9991C80.0295 17.571 80.7896 17.8712 81.5974 17.8354C82.5124 17.7973 83.4083 18.1476 84.0588 18.7981C84.7117 19.4486 85.0644 20.3469 85.0262 21.2643C84.9929 22.0745 85.2884 22.8322 85.8626 23.4065C86.7967 24.3405 88.2359 24.5169 89.363 23.8354C90.085 23.3993 91.019 23.5709 91.5385 24.2333C92.0579 24.8981 92.0007 25.8441 91.405 26.4422L28.9944 88.848C27.6457 90.1967 25.8753 90.871 24.1025 90.871Z" fill="#1B3954"/>
<path d="M26.1351 78.3925C25.7086 78.3925 25.2821 78.2305 24.9557 77.904C24.3051 77.2535 24.3051 76.1956 24.9557 75.545L72.4213 28.0794C73.0718 27.4289 74.1298 27.4289 74.7803 28.0794C75.4308 28.7299 75.4308 29.7879 74.7803 30.4384L27.3146 77.904C26.9906 78.2281 26.5641 78.3925 26.1351 78.3925Z" fill="#1B3954"/>
<path d="M77.5703 26.9574C77.4631 26.9574 77.3535 26.9455 77.2462 26.9241C77.139 26.9026 77.0342 26.8717 76.9341 26.8288C76.8316 26.7883 76.7363 26.7358 76.6458 26.6763C76.5529 26.6143 76.4695 26.5452 76.3908 26.469C76.0811 26.1568 75.9023 25.7279 75.9023 25.2895C75.9023 25.1799 75.9143 25.0702 75.9357 24.963C75.9571 24.8558 75.9905 24.751 76.031 24.6509C76.0715 24.5508 76.1239 24.4531 76.1835 24.3626C76.2455 24.272 76.3146 24.1862 76.3908 24.11C76.4695 24.0337 76.5529 23.9622 76.6458 23.9027C76.7363 23.8431 76.8316 23.7907 76.9341 23.7502C77.0342 23.7073 77.139 23.6763 77.2462 23.6549C77.7871 23.5452 78.3638 23.7216 78.7498 24.11C78.8284 24.1862 78.8975 24.272 78.9571 24.3626C79.0191 24.4531 79.0691 24.5508 79.112 24.6509C79.1525 24.751 79.1859 24.8558 79.2073 24.963C79.2287 25.0702 79.2383 25.1799 79.2383 25.2895C79.2383 25.7279 79.0619 26.1568 78.7498 26.469C78.44 26.7787 78.0111 26.9574 77.5703 26.9574Z" fill="#1B3954"/>
<path d="M24.1024 91.0167C22.4202 91.0167 20.7379 90.3757 19.456 89.0961L13.7634 83.4036C11.2019 80.8421 11.2019 76.6745 13.7634 74.113L18.6434 69.233C19.2939 68.5825 20.3519 68.5825 21.0024 69.233L33.6265 81.8571C34.2771 82.5077 34.2771 83.5656 33.6265 84.2161L28.7465 89.0961C27.467 90.3757 25.7847 91.0167 24.1024 91.0167ZM21.8149 86.7348C23.0755 87.9953 25.1271 87.9953 26.3876 86.7348L30.0881 83.0343L19.8229 72.7691L16.1224 76.4696C14.8619 77.7301 14.8619 79.7817 16.1224 81.0422L21.8149 86.7348Z" fill="#B72A27"/>
<path d="M87.8807 27.5789C86.2795 27.5789 84.6997 26.957 83.5035 25.7608C82.2931 24.5503 81.633 22.8776 81.6926 21.1667C79.9817 21.2239 78.3114 20.5663 77.0985 19.3558C75.0707 17.328 74.6943 14.2042 76.1811 11.757C76.2669 11.6164 76.3551 11.4877 76.4456 11.3591C76.7578 10.923 77.1748 10.5727 77.6561 10.3345C77.7228 10.3011 77.7919 10.2701 77.861 10.2439C78.0493 10.1653 78.2447 10.1033 78.4496 10.0628L97.412 3.3147C98.0172 3.09786 98.6963 3.25036 99.1514 3.70786C99.6066 4.16536 99.7591 4.8397 99.5446 5.44732L92.7917 24.4169C92.7512 24.6123 92.6916 24.8029 92.6178 24.984C92.5868 25.065 92.5534 25.1436 92.5129 25.2175C92.2794 25.6869 91.9363 26.0968 91.5193 26.4018C91.3811 26.4995 91.25 26.5876 91.1047 26.6782C90.0991 27.2834 88.9864 27.5789 87.8807 27.5789ZM81.7331 17.8308C82.5981 17.8308 83.4416 18.1787 84.0587 18.7958C84.7116 19.4463 85.0643 20.3447 85.0261 21.262C84.9928 22.0722 85.2882 22.8299 85.8625 23.4042C86.7966 24.3383 88.2358 24.5146 89.3629 23.8331C89.4105 23.8021 89.4701 23.764 89.532 23.7235C89.5487 23.621 89.5725 23.5186 89.6083 23.4209L95.227 7.63712L79.4408 13.2558C79.3431 13.2915 79.2431 13.3154 79.1406 13.332C79.1025 13.3868 79.0643 13.444 79.0286 13.5036C78.3471 14.6235 78.5211 16.0651 79.4575 17.0016C80.0294 17.5735 80.7919 17.8713 81.5973 17.8379C81.6425 17.8308 81.6878 17.8308 81.7331 17.8308Z" fill="#B72A27"/>
<path d="M94.5098 16.2869C94.0833 16.2869 93.6568 16.1249 93.3303 15.7984L87.0611 9.52924C86.4106 8.87873 86.4106 7.82076 87.0611 7.17025C87.7116 6.51975 88.7696 6.51975 89.4201 7.17025L95.6893 13.4394C96.3398 14.0899 96.3398 15.1479 95.6893 15.7984C95.3628 16.1249 94.9363 16.2869 94.5098 16.2869Z" fill="#B72A27"/>
</svg>
