<svg width="603" height="419" viewBox="0 0 603 419" fill="none" xmlns="http://www.w3.org/2000/svg">
<g clip-path="url(#clip0)">
<g opacity="0.5">
<path opacity="0.5" d="M287.61 355.083C270.542 355.143 253.474 355.567 236.467 357.441C230.051 358.167 223.757 359.739 217.341 360.344C204.51 361.614 191.861 363.972 178.969 365.06C168.559 365.907 158.149 366.451 147.799 367.54C138.116 368.568 127.342 368.326 117.719 366.633C110.577 365.363 103.435 364.637 96.4146 362.581C88.5465 360.283 80.0126 358.651 71.8419 358.711C60.1608 358.771 48.8428 358.832 37.6459 362.823C33.7118 364.214 28.9304 366.572 25.9647 369.535C19.1255 376.368 18.2177 393.361 25.0569 400.436C36.4959 412.348 60.9476 417.005 76.9864 417.246C94.5989 417.488 111.667 416.158 129.279 415.432C145.621 414.707 161.962 413.679 178.364 413.739C211.834 413.8 245.364 413.739 278.773 411.502C310.185 409.385 341.658 410.111 373.13 410.111C405.389 410.111 437.467 410.353 469.484 414.646C483.465 416.521 497.688 417.186 511.73 418.456C524.319 419.605 536.363 418.456 548.892 417.367C559.423 416.46 569.833 413.739 579.396 409.204C586.961 405.576 600.397 394.389 602.758 385.741C609.234 361.614 511.185 362.158 496.115 362.218C479.289 362.279 462.282 362.823 445.456 362.218C438.375 361.976 431.415 360.586 424.515 359.074C417.615 357.562 410.715 357.925 403.695 357.32C374.583 354.659 345.41 355.083 316.238 355.083C306.614 355.143 297.112 355.022 287.61 355.083Z" fill="#EED5D5"/>
</g>
<path d="M565.959 238.738L568.804 258.088L563.175 366.875L553.733 364.879L538.058 241.217L565.959 238.738Z" fill="#292949"/>
<path d="M519.598 235.17L517.722 307.311L536.06 369.596L546.773 365.605L537.755 310.032L546.047 234.505L519.598 235.17Z" fill="#292949"/>
<path d="M546.834 359.739L534.063 365.605L538.361 374.555L531.642 378.787C531.642 378.787 531.037 382.537 533.277 384.109C535.516 385.681 550.163 373.406 550.163 373.406L546.834 359.739Z" fill="#1C1C35"/>
<path d="M565.959 361.856L552.099 364.214L553.915 373.95L546.349 376.308C546.349 376.308 544.776 379.755 546.531 381.871C548.286 383.988 565.596 375.945 565.596 375.945L565.959 361.856Z" fill="#1C1C35"/>
<path d="M538.965 117.495C539.934 120.7 541.386 123.784 543.202 126.626C543.263 120.76 544.11 114.834 545.744 109.15C545.865 108.726 545.986 108.243 545.744 107.819C545.502 107.457 545.078 107.336 544.655 107.215C537.392 105.461 537.271 111.871 538.965 117.495Z" fill="#292949"/>
<path d="M543.021 126.746C543.807 129.165 545.018 131.886 547.56 133.398C550.525 135.152 553.673 134.245 555.912 132.914C563.235 128.5 575.885 104.13 556.82 98.1439C539.51 92.7015 539.813 116.648 543.021 126.746Z" fill="#EAC1A4"/>
<path d="M558.03 126.807C559.18 128.5 561.783 128.077 563.598 127.23C571.164 123.662 575.764 114.773 574.311 106.549C573.101 99.6556 564.567 94.3342 562.63 102.8C561.964 105.763 563.659 109.996 563.175 113.322C562.449 118.039 560.149 122.574 558.03 126.807Z" fill="#292949"/>
<path d="M539.45 89.3757C530.795 94.1529 526.921 104.735 518.932 110.661C526.074 113.927 534.547 114.108 541.81 111.206C548.952 108.363 565.899 106.61 563.659 96.7531C561.48 86.6546 547.076 85.1428 539.45 89.3757Z" fill="#292949"/>
<path d="M573.101 151.6C578.064 160.187 578.064 169.983 577.338 179.295C575.764 200.4 577.822 224.89 570.498 245.087C556.76 245.087 530.371 238.798 516.632 237.347C513.969 218.964 515.543 208.261 516.995 187.459C517.722 177.179 519.356 163.452 522.987 153.656C525.953 145.674 533.881 135.333 545.865 135.636C557.123 136.059 568.562 143.799 573.101 151.6Z" fill="#8CABEF"/>
<path d="M550.707 139.99C549.436 140.534 547.923 140.292 546.41 138.841C545.139 137.631 545.502 137.208 545.805 135.394C546.228 132.733 546.894 130.012 547.499 127.351L554.883 128.863C554.883 128.863 553.37 136.059 553.31 136.543C552.886 138.176 551.918 139.445 550.707 139.99Z" fill="#EAC1A4"/>
<path d="M476.626 159.098L470.816 153.414L461.676 153.656L460.647 158.252L474.447 164.238L476.626 159.098Z" fill="#EAC1A4"/>
<path d="M544.594 141.925L537.997 135.999L502.53 164.238L476.989 155.289L468.818 165.75L502.954 185.705L539.026 162.606L544.594 141.925Z" fill="#8CABEF"/>
<path d="M97.2015 366.391L106.643 371.591L105.856 376.005L89.0308 373.708L89.9386 367.358L97.2015 366.391Z" fill="#292949"/>
<path d="M54.4715 371.228L47.9349 371.168L46.3008 376.731L46.4824 376.792H46.4218L57.3767 383.081L62.5817 383.564L63.1264 377.699L61.7344 376.671L54.4715 371.228Z" fill="#292949"/>
<path d="M74.7467 266.554C75.7756 266.433 78.6808 304.227 78.6808 304.227L58.2237 372.861L46.4215 370.563L53.6239 302.05C53.6239 302.05 28.688 273.266 35.8298 251.799C46.7242 257 74.7467 266.554 74.7467 266.554Z" fill="#8CABEF"/>
<path d="M104.222 266.856L106.583 300.539L99.9855 367.54L87.8202 366.935C87.8202 366.935 84.9151 303.441 83.7046 302.171C82.4941 300.901 72.1445 267.582 72.1445 267.582L104.222 266.856Z" fill="#8CABEF"/>
<path d="M88.2438 282.216C49.69 281.49 46.8454 262.079 38.372 259.963C29.8987 257.846 34.3169 247.748 34.3169 247.748C34.3169 247.748 35.9511 243.212 36.6168 240.915C41.5798 223.983 56.4082 202.213 56.4082 202.213C63.7316 192.236 71.1155 183.407 77.4705 178.086C96.354 162.242 116.629 161.517 116.629 161.517C145.802 170.648 135.513 184.314 135.816 187.942C126.253 196.711 119.293 209.893 114.148 223.983C111.727 231.481 108.882 244.361 110.88 260.084C111.545 265.103 112.272 269.457 112.998 273.266C113.119 278.164 108.398 282.579 88.2438 282.216Z" fill="#5D66D3"/>
<path d="M116.751 164.48C116.751 164.48 123.227 160.912 127.282 167.08C132.184 174.578 104.585 208.381 105.251 280.704C98.0486 282.155 79.4073 285.663 60.2212 276.592C64.5184 255.185 83.3413 190.361 116.751 164.48Z" fill="white"/>
<path d="M130.973 141.683C134.242 144.222 137.086 149.665 135.936 153.898C135.392 155.954 133.939 157.344 133.394 159.521C132.426 163.875 124.8 167.141 128.008 172.16C129.642 174.76 132.85 175.848 135.755 176.816C136.118 176.937 136.481 177.058 136.844 176.997C137.45 176.876 137.873 176.272 137.994 175.667C138.115 175.062 137.994 174.458 137.934 173.853C137.268 167.443 141.626 161.033 143.199 154.986C144.773 148.939 144.712 142.045 140.536 137.026C136.965 137.329 135.513 136.664 133.213 139.445L130.973 141.683Z" fill="#292949"/>
<path d="M123.347 167.261C127.584 167.624 131.76 165.266 134.423 161.94C137.147 158.614 138.539 154.502 139.447 150.33C142.412 136.482 125.405 131.947 116.387 140.473C108.579 147.85 111 166.294 123.347 167.261Z" fill="#EACDB0"/>
<path d="M102.164 164.661C104.404 164.48 106.703 164.238 108.701 162.787C111.969 160.428 113.906 155.107 115.903 151.721C118.021 148.153 120.442 144.343 124.376 143.013C126.918 142.106 129.218 142.71 131.579 143.678C133.213 144.343 133.031 144.948 134.787 144.706C136.118 144.464 137.873 142.831 138.6 141.803C139.871 139.989 139.931 137.571 139.265 135.515C138.236 132.31 136.36 130.133 133.394 128.802C122.863 124.086 112.272 127.049 104.888 136.18C101.377 140.534 100.106 146.581 96.5354 150.693C94.3565 153.232 91.633 154.442 89.5146 157.284C84.0675 164.601 75.1705 173.188 71.9627 181.835C71.8416 182.137 71.7206 182.5 71.9022 182.802C72.2048 183.407 73.1126 183.226 73.7784 182.923C77.4098 181.109 81.0413 179.295 84.6122 177.481C86.0042 176.755 87.4568 176.03 88.6673 175.002C91.5724 172.341 92.6013 167.745 96.1117 165.931C97.988 164.903 100.106 164.843 102.164 164.661Z" fill="#292949"/>
<path d="M87.3962 182.863L58.2842 176.09L50.5371 137.449L60.1604 138.296L67.6654 163.512L105.372 164.601L107.49 167.443L87.3962 182.863Z" fill="#5D66D3"/>
<path d="M62.8844 134.487L61.9161 124.388L54.7137 118.885L54.29 121.848L56.832 124.388C56.832 124.388 57.4373 127.351 59.253 128.802C59.0714 130.496 57.6794 134.063 57.6794 134.063L62.8844 134.487Z" fill="#EBCEB1"/>
<path d="M233.683 363.186L242.035 368.507L244.94 372.74C244.94 372.74 241.975 374.252 240.28 374.615C238.585 375.038 225.391 373.647 225.391 373.647L225.028 365.907L233.683 363.186Z" fill="#273140"/>
<path d="M192.042 368.991L196.158 373.587C196.158 373.587 199.487 379.815 197.853 379.755C196.158 379.634 187.019 380.178 186.414 379.09C185.808 378.062 180.966 374.373 180.301 373.708C179.695 372.982 180.301 367.116 180.301 367.116L192.042 368.991Z" fill="#273140"/>
<path d="M215.586 246.236L205.237 309.125L192.042 368.991L180.301 368.326L182.54 305.134C182.54 305.134 174.067 247.022 174.006 229.849L215.586 246.236Z" fill="#BDBFC1"/>
<path d="M241.551 249.32L236.83 365.363L224.725 365.967L218.249 307.009L208.929 254.943L233.925 222.773L241.551 249.32Z" fill="#BDBFC1"/>
<path d="M235.196 188.245C228.841 157.405 236.891 142.529 223.031 133.942C223.031 133.942 200.395 127.714 185.99 138.054C185.808 138.175 185.566 138.357 185.385 138.477L180.119 149.362L176.124 198.162C176.124 198.162 170.193 265.517 176.124 266C182.843 266.605 208.323 249.018 214.134 249.38C219.944 249.743 231.174 253.685 248 248C262.465 243.102 241.551 219.085 235.196 188.245Z" fill="#8CABEF"/>
<path d="M207.052 132.974L202.634 133.156L202.21 137.57L218.37 182.742L222.002 163.149L218.068 134.728L207.052 132.974Z" fill="white"/>
<path d="M220.368 200.097L214.134 249.32L227.267 251.194L236.346 250.469L224.847 207.776L220.368 200.097Z" fill="white"/>
<path d="M213.044 134.91C210.018 135.03 206.992 135.151 203.966 135.272C203.602 132.914 203.421 130.495 203.421 128.076C200.818 127.532 197.792 126.625 196.945 124.146C196.703 123.36 196.703 122.513 196.763 121.666C196.884 118.22 195.916 114.712 197.066 111.326C197.429 110.177 197.126 108.907 197.671 107.819C198.518 105.884 200.576 104.856 202.574 104.19C207.658 102.558 213.528 102.86 218.068 105.702C219.278 106.488 220.428 107.395 221.094 108.665C222.123 110.6 221.881 112.959 221.639 115.136C221.397 117.131 221.154 119.187 220.912 121.183C220.67 123.481 220.126 126.141 218.128 127.29C217.039 127.895 215.707 127.955 214.739 128.742C213.105 130.193 213.71 132.854 213.044 134.91Z" fill="#E7CAAD"/>
<path d="M216.5 96.0004C211.658 94.6096 206.166 93.3669 200.5 96.0001C196.735 97.7496 194.638 99.3568 192.5 103C190.794 105.907 191 111.5 191 111.5L192.5 120.5L195.5 124.5C195.5 124.5 196.773 125.443 199.799 125.866C199.496 123.266 195.986 115.404 197.68 113.046C199.92 109.841 204.822 109.539 208.393 109.539C212.63 109.599 215.959 107.967 220.135 107.785C222.253 107.725 226.164 102.007 226 100.5C225.888 99.4727 221.384 100.28 220.135 98.4998C219.145 97.0898 216.5 96.0004 216.5 96.0004Z" fill="#292949"/>
<path d="M254.382 158.07L226.965 133.277L220.368 138.84L243.064 176.695L253.293 177.662C253.293 177.662 256.258 167.14 256.864 165.991L254.382 158.07Z" fill="#8CABEF"/>
<path d="M189.198 248.171C183.932 243.454 177.759 241.217 170.798 241.58C163.838 241.942 157.907 244.784 153.186 250.045C148.465 255.306 146.226 261.474 146.589 268.428C146.952 275.383 149.797 281.309 155.062 286.025C157.12 287.9 159.359 289.412 161.72 290.44C165.291 292.072 169.225 292.798 173.401 292.617C180.361 292.254 186.293 289.412 191.013 284.151C195.734 278.89 197.974 272.722 197.61 265.768C197.308 258.874 194.463 252.948 189.198 248.171Z" fill="#B0422B"/>
<path d="M197.671 265.828C197.308 258.874 194.463 252.948 189.198 248.231C187.503 246.719 185.687 245.449 183.811 244.421C186.656 248.352 188.29 252.827 188.532 257.906C188.895 264.86 186.656 271.028 181.935 276.289C177.214 281.55 171.282 284.392 164.322 284.755C160.146 284.997 156.212 284.271 152.641 282.578C152.217 282.397 151.733 282.155 151.31 281.913C152.399 283.364 153.609 284.755 155.062 286.025C157.12 287.9 159.359 289.411 161.72 290.439C165.291 292.072 169.225 292.798 173.401 292.616C180.361 292.254 186.292 289.411 191.013 284.15C195.795 278.95 198.034 272.722 197.671 265.828Z" fill="#B72A27"/>
<path d="M387.353 156.074C385.416 134.97 374.825 115.619 355.82 98.5062C336.816 81.3931 316.358 72.7458 294.993 72.8667C276.413 72.9272 259.708 79.8208 245.243 93.3058C242.822 95.6036 241.43 98.8086 241.49 102.134C241.49 105.46 242.943 108.665 245.424 110.903L256.742 121.062C261.282 125.113 268.121 125.174 272.66 121.122C280.71 113.987 289.183 110.479 298.383 110.358C309.58 110.298 320.777 115.196 331.671 124.992C342.505 134.789 348.436 145.431 349.162 156.739C349.889 167.987 345.41 179.053 335.787 189.696C322.592 204.39 309.519 210.437 296.87 207.776C283.554 204.995 267.637 195.078 249.419 178.388L244.516 173.973C239.614 169.559 232.109 169.982 227.691 174.82L189.258 217.391C187.14 219.75 186.05 222.834 186.232 225.978C186.414 229.183 187.806 232.086 190.166 234.202L201.605 244.542C202.513 245.389 203.542 246.054 204.631 246.538C209.231 248.654 214.86 247.626 218.431 243.696L243.306 216.121C243.609 215.758 244.153 215.758 244.516 216.061C266.366 234.746 287.065 244.784 306.009 245.933C326.163 247.143 345.41 237.709 363.386 217.815C381.24 198.041 389.29 177.239 387.353 156.074Z" fill="#B0422B"/>
<path d="M387.353 156.074C385.416 134.97 374.825 115.619 355.82 98.5062C344.078 87.9239 331.732 80.6069 319.022 76.5554C325.013 80.1836 330.884 84.598 336.634 89.738C355.639 106.851 366.23 126.202 368.167 147.306C370.104 168.471 361.994 189.272 344.139 209.046C326.224 228.941 306.917 238.374 286.762 237.165C280.952 236.802 274.96 235.593 268.847 233.597C281.799 241.096 294.207 245.208 305.948 245.933C326.103 247.143 345.349 237.709 363.325 217.814C381.24 198.041 389.29 177.239 387.353 156.074Z" fill="#B72A27"/>
<path d="M190.771 135.333L177.819 139.324L146.71 192.236L148.828 202.455L189.077 222.592L194.766 211.647L169.285 192.236L184.84 171.071L190.832 137.208L190.771 135.333Z" fill="#8CABEF"/>
<path d="M226.42 133.7L219.823 126.625L213.468 128.379L211.713 134.728L217.342 135.756L222.668 136.845L226.42 133.7Z" fill="#EAC1A4"/>
<path d="M194.161 212.735L200.516 214.065L199.487 217.754L204.994 224.225L197.489 226.946L190.105 220.657L194.161 212.735Z" fill="#E7CAAD"/>
<path d="M61.1293 170.225C57.1952 171.434 54.2901 173.792 52.4138 177.36C50.5376 180.928 50.1745 184.677 51.3849 188.608C52.5954 192.538 54.9559 195.441 58.5268 197.315C62.0977 199.19 65.8502 199.553 69.7842 198.343C71.3578 197.86 72.7499 197.195 73.9604 196.348C75.8366 195.078 77.3497 193.324 78.4997 191.208C80.3759 187.64 80.739 183.891 79.5286 179.96C78.3181 176.03 75.9577 173.127 72.3867 171.253C68.8158 169.378 65.0028 169.015 61.1293 170.225Z" fill="#B0422B"/>
<path d="M72.3865 171.253C68.8156 169.378 65.0631 169.015 61.1291 170.225C59.8581 170.587 58.7081 171.132 57.6792 171.736C60.4633 171.495 63.1869 172.039 65.7894 173.43C69.3603 175.304 71.7207 178.267 72.9312 182.137C74.1417 186.068 73.7786 189.817 71.9023 193.385C70.7524 195.501 69.2393 197.255 67.363 198.525C67.1209 198.706 66.8788 198.827 66.6367 199.009C67.6656 198.888 68.6946 198.706 69.784 198.404C71.3576 197.92 72.7497 197.255 73.9601 196.408C75.8364 195.138 77.3495 193.385 78.4994 191.268C80.3757 187.701 80.7388 183.951 79.5283 180.021C78.3179 176.09 75.8969 173.127 72.3865 171.253Z" fill="#B72A27"/>
<path d="M74.4444 44.7483C63.4291 39.4269 50.6585 38.8827 36.5565 43.1761C22.4544 47.53 12.1048 55.0888 5.74977 65.6711C0.242095 74.8626 -1.33153 85.2031 1.08943 96.3296C1.5131 98.2042 2.66305 99.8369 4.35772 100.804C5.99187 101.772 8.04968 102.014 9.8654 101.47L18.2782 98.9299C21.607 97.9019 23.6649 94.5155 23.0596 91.0687C21.9097 84.9612 22.6965 79.7607 25.4201 75.165C28.6883 69.6017 34.4986 65.5502 42.6089 63.0709C50.6585 60.5916 57.7398 60.8939 63.5501 63.857C69.3604 66.8201 73.4761 72.3833 75.897 80.2445C79.2258 91.1292 78.318 99.4136 73.234 104.916C67.9079 110.661 58.224 115.62 44.5456 119.611L40.9142 120.699C37.2827 121.788 35.2249 125.658 36.3144 129.286L45.9377 160.973C46.4824 162.726 47.6323 164.178 49.2665 165.024C50.9006 165.871 52.7769 166.052 54.5321 165.508L63.0659 162.908C63.7317 162.726 64.3975 162.363 64.9422 162.001C67.3631 160.368 68.5131 157.284 67.6658 154.321L61.4318 133.821C61.3713 133.579 61.4923 133.277 61.7344 133.217C77.4706 127.956 88.607 120.699 94.841 111.689C101.438 102.074 102.467 89.7384 97.9883 74.9836C93.3884 60.2892 85.5203 50.1302 74.4444 44.7483Z" fill="#B0422B"/>
<path d="M74.4446 44.7483C63.4293 39.4269 50.6587 38.8827 36.5567 43.1761C27.8412 45.8973 20.5178 49.8278 14.7075 54.9074C18.2784 53.0328 22.2125 51.4001 26.5097 50.1302C40.6118 45.8368 53.3823 46.381 64.3977 51.7024C75.4736 57.0843 83.3417 67.2433 87.8204 81.9377C92.2992 96.6925 91.2703 109.089 84.6732 118.643C82.7969 121.425 80.376 124.025 77.5919 126.444C85.1574 122.271 90.9072 117.373 94.7202 111.75C101.317 102.135 102.346 89.7988 97.8674 75.044C93.3886 60.2892 85.5205 50.1302 74.4446 44.7483Z" fill="#B72A27"/>
<path d="M448.906 185.282C443.943 184.556 439.464 185.705 435.53 188.668C431.596 191.631 429.236 195.622 428.57 200.581C427.844 205.54 428.994 210.014 431.96 213.945C434.925 217.875 438.92 220.234 443.883 220.899C445.82 221.201 447.756 221.141 449.572 220.839C452.356 220.355 454.898 219.266 457.319 217.452C461.253 214.489 463.614 210.498 464.279 205.54C465.006 200.581 463.856 196.106 460.89 192.176C457.864 188.366 453.869 186.008 448.906 185.282Z" fill="#B0422B"/>
<path d="M460.829 192.297C457.864 188.366 453.869 186.008 448.906 185.343C447.333 185.101 445.759 185.101 444.246 185.222C447.454 186.371 450.177 188.427 452.356 191.269C455.322 195.199 456.472 199.735 455.745 204.633C455.019 209.591 452.719 213.582 448.785 216.545C446.425 218.299 443.822 219.448 441.038 219.932C440.675 219.992 440.372 220.053 440.009 220.053C441.22 220.476 442.491 220.778 443.822 220.96C445.759 221.262 447.696 221.202 449.512 220.899C452.296 220.416 454.838 219.327 457.259 217.513C461.193 214.55 463.553 210.559 464.219 205.6C464.945 200.702 463.795 196.227 460.829 192.297Z" fill="#B72A27"/>
<path d="M528.677 52.9726C519.175 41.3622 505.315 34.1662 487.399 31.687C469.484 29.1472 454.111 32.1707 441.583 40.6366C430.689 48.014 423.607 58.6568 420.521 72.2626C419.976 74.5605 420.46 76.9793 421.792 78.9144C423.123 80.8495 425.241 82.1798 427.541 82.4822L438.194 83.9939C442.43 84.5986 446.485 81.9379 447.514 77.7655C449.451 70.3881 452.961 65.0062 458.348 61.3175C464.885 56.8427 473.418 55.3309 483.647 56.7822C493.876 58.2335 501.562 62.1641 506.465 68.5135C511.367 74.8024 513.122 83.0869 511.67 93.125C509.733 106.973 504.407 115.68 495.994 119.127C487.097 122.756 473.842 123.239 456.532 120.639L451.932 119.974C447.333 119.309 443.035 122.514 442.37 127.109L436.68 167.262C436.378 169.499 436.923 171.737 438.315 173.49C439.646 175.304 441.643 176.453 443.883 176.756L454.717 178.267C455.564 178.388 456.472 178.388 457.259 178.267C460.769 177.663 463.735 174.881 464.219 171.132L467.911 145.13C467.971 144.827 468.274 144.585 468.577 144.585C488.792 146.883 504.891 144.646 516.451 137.813C528.737 130.556 536.303 117.374 538.966 98.6882C541.689 80.0029 538.179 64.6434 528.677 52.9726Z" fill="#B0422B"/>
<path d="M528.677 52.9726C519.174 41.3623 505.314 34.1663 487.399 31.687C476.323 30.1148 466.216 30.659 457.137 33.3197C462.1 33.0778 467.305 33.3197 472.692 34.1058C490.607 36.6456 504.467 43.8416 513.969 55.3914C523.472 67.0622 526.982 82.4217 524.319 101.107C521.656 119.853 514.09 133.036 501.804 140.232C498.233 142.348 494.299 143.981 489.881 145.19C500.472 144.464 509.369 141.985 516.511 137.752C528.798 130.496 536.363 117.313 539.026 98.6278C541.689 80.0029 538.179 64.6434 528.677 52.9726Z" fill="#B72A27"/>
<path d="M464.824 367.721L470.816 366.088L480.378 380.541H470.816L465.005 377.638L464.824 367.721Z" fill="#292949"/>
<path d="M358.665 338.453C358.665 338.453 350.373 344.561 350.434 349.943C350.434 349.943 349.526 361.251 351.826 365.726L364.354 377.094L387.474 375.643L394.919 342.928L358.665 338.453Z" fill="#3B3387"/>
<path d="M384.025 345.71C384.025 345.71 374.038 343.351 370.649 350.185L363.87 362.702L375.854 378.666L466.579 378.364L466.398 367.54L436.983 359.255C439.586 357.502 441.704 354.78 443.035 351.999C445.335 346.98 443.52 343.291 441.704 338.574C441.159 337.123 438.375 329.141 436.015 329.806L384.025 345.71Z" fill="#474EBB"/>
<path d="M330.521 221.806L326.345 214.368L329.432 212.433L333.487 216.908L334.516 215.275L337.3 222.108L334.334 224.587L330.521 221.806Z" fill="#A0734B"/>
<path d="M391.348 239.1L362.599 246.78L337.118 219.508L331.49 224.648L354.973 269.759L390.077 262.684L391.348 239.1Z" fill="#EED5D5"/>
<path d="M363.023 320.191C369.257 302.776 370.467 284.332 372.767 266.01C373.433 260.628 374.159 255.125 376.58 250.227C379.364 244.663 383.722 241.761 388.745 240.31C395.161 238.435 402.666 238.798 409.263 238.616C415.557 238.616 420.278 262.321 426.331 273.931C430.023 281.067 433.836 287.356 436.257 295.035C438.556 302.413 440.735 309.972 441.946 317.591C443.822 329.141 449.209 337.365 443.64 341.114C443.156 341.235 442.672 341.416 442.188 341.537C433.17 344.44 423.849 346.496 414.407 347.403C406.055 348.249 397.582 348.129 389.229 347.04C377.79 345.528 366.775 343.533 356.849 337.244C358.907 331.62 360.965 325.936 363.023 320.191Z" fill="#EED5D5"/>
<path d="M412.834 221.262C409.626 210.377 394.011 206.144 389.956 218.54C388.746 222.29 387.959 226.22 388.564 230.09C389.169 233.96 391.409 237.71 394.98 239.403H395.04C394.859 240.37 394.677 241.398 394.495 242.366C394.435 242.608 394.435 242.789 394.556 242.97C394.677 243.152 394.98 243.212 395.222 243.273C396.432 243.515 397.582 243.696 398.793 243.938C399.398 244.059 400.003 244.18 400.548 243.998C401.819 243.636 402.364 242.184 402.485 240.854C402.485 240.552 402.545 240.249 402.545 239.886C409.626 237.77 414.953 228.337 412.834 221.262Z" fill="#A0734B"/>
<path d="M394.314 202.274C391.469 201.73 388.927 204.451 386.203 205.842C383.964 206.991 381.422 207.232 379.122 208.139C376.822 209.047 374.462 211.103 374.341 213.763C372.041 212.493 369.559 211.163 366.957 211.586C364.354 212.01 361.812 215.033 362.781 217.633C363.628 219.931 366.594 220.596 367.502 222.894C368.954 226.523 364.536 231.904 367.32 234.384C367.986 234.988 368.954 235.17 369.62 235.774C370.467 236.5 370.709 237.77 371.012 238.919C372.586 243.998 377.549 247.445 382.572 246.962C385.719 245.631 388.322 242.668 389.532 239.282C390.985 235.17 388.806 233.658 388.564 229.727C388.322 225.434 389.774 220.959 392.619 217.754C394.435 215.638 396.977 213.884 399.64 213.703C400.729 213.642 400.366 214.549 401.577 213.703C402.121 213.34 402.848 212.01 403.029 211.405C400.306 208.865 398.066 202.939 394.314 202.274Z" fill="#292949"/>
<path d="M425.242 208.804C426.694 209.288 428.328 209.228 429.72 209.893C431.839 210.921 431.597 213.098 432.141 215.033C432.747 217.149 433.594 220.052 434.986 221.745C435.954 222.955 437.346 223.68 438.557 224.648C439.767 225.615 440.857 227.006 440.736 228.639C440.675 230.211 439.586 231.602 439.344 233.114C439.102 235.411 439.465 236.621 438.678 238.979C438.254 240.189 437.831 241.458 436.862 242.305C435.591 243.394 433.897 243.273 432.383 242.97C430.87 242.668 429.297 242.184 427.784 242.668C424.515 243.635 424.999 246.961 424.031 249.682C422.579 253.855 417.616 256.092 413.984 254.52C410.897 253.129 409.142 249.441 409.445 245.812C409.566 243.998 410.353 242.366 410.474 240.551C410.595 238.798 409.687 236.379 411.321 235.049C411.745 234.746 412.229 234.565 412.592 234.202C412.895 233.9 413.076 233.476 413.137 233.053C413.5 231.602 413.258 230.03 412.411 228.881C411.805 228.094 410.958 227.429 410.595 226.462C410.171 225.373 410.595 224.103 410.716 222.894C410.958 219.991 409.445 217.028 407.084 215.819C405.511 215.033 404.058 214.549 402.666 213.34C402.485 213.158 399.337 210.195 399.216 210.86C399.398 209.772 400.064 208.865 400.729 208.079C401.819 206.688 403.029 205.358 404.482 204.571C409.263 202.032 409.324 208.321 413.137 207.655C414.045 207.474 414.771 206.688 415.618 206.204C417.192 205.297 419.129 205.72 420.642 206.446C422.155 207.172 423.607 208.26 425.242 208.804Z" fill="#292949"/>
<path d="M339.116 337.849C335.908 337.063 332.821 337.547 330.037 339.24C327.253 340.933 325.437 343.412 324.65 346.678C323.864 349.883 324.348 352.967 326.042 355.748C327.737 358.53 330.219 360.344 333.487 361.13C334.758 361.432 336.029 361.553 337.239 361.493C339.116 361.372 340.871 360.767 342.565 359.739C345.349 358.046 347.165 355.567 347.952 352.301C348.739 349.096 348.255 346.012 346.56 343.231C344.805 340.449 342.323 338.635 339.116 337.849Z" fill="#B0422B"/>
<path d="M346.56 343.231C344.865 340.449 342.384 338.635 339.116 337.849C338.087 337.607 337.058 337.486 336.029 337.486C338.087 338.454 339.781 339.965 340.992 341.961C342.686 344.743 343.171 347.766 342.384 351.032C341.597 354.236 339.781 356.776 336.997 358.469C335.303 359.497 333.547 360.102 331.671 360.223C331.429 360.223 331.187 360.223 331.005 360.223C331.792 360.586 332.579 360.888 333.487 361.07C334.758 361.372 336.029 361.493 337.239 361.432C339.116 361.312 340.871 360.707 342.565 359.679C345.35 357.986 347.165 355.506 347.952 352.241C348.678 349.036 348.255 346.012 346.56 343.231Z" fill="#B72A27"/>
<path d="M400.124 255.609C394.616 247.325 385.901 241.762 374.22 238.92C362.599 236.138 352.189 237.166 343.413 241.943C335.787 246.116 330.4 252.707 327.495 261.475C327.011 262.926 327.132 264.559 327.919 265.95C328.706 267.341 329.977 268.308 331.49 268.671L338.45 270.364C341.234 271.029 344.018 269.518 344.987 266.857C346.742 262.08 349.405 258.754 353.157 256.698C357.757 254.158 363.446 253.674 370.165 255.307C376.822 256.879 381.664 259.963 384.509 264.499C387.353 268.973 387.959 274.537 386.385 281.067C384.206 290.078 380.151 295.52 374.401 297.213C368.288 299.027 359.512 298.543 348.255 295.701L345.229 294.976C342.203 294.25 339.237 296.125 338.511 299.088L332.216 325.211C331.853 326.662 332.095 328.174 332.882 329.444C333.669 330.714 334.879 331.621 336.332 331.984L343.353 333.677C343.897 333.798 344.502 333.858 345.047 333.798C347.408 333.616 349.526 331.984 350.131 329.504L354.186 312.573C354.247 312.391 354.428 312.21 354.67 312.27C367.865 315.052 378.638 314.568 386.688 310.819C395.222 306.828 401.092 298.604 403.997 286.389C406.963 274.295 405.632 263.894 400.124 255.609Z" fill="#B0422B"/>
<path d="M400.124 255.609C394.616 247.325 385.901 241.761 374.219 238.919C367.017 237.166 360.299 236.924 354.125 238.133C357.394 238.254 360.844 238.798 364.354 239.645C376.035 242.427 384.69 248.05 390.258 256.335C395.826 264.619 397.097 275.02 394.192 287.175C391.227 299.39 385.416 307.553 376.882 311.605C374.401 312.754 371.677 313.6 368.712 314.145C375.733 314.326 381.785 313.238 386.748 310.94C395.282 306.949 401.153 298.725 404.058 286.51C406.963 274.295 405.631 263.894 400.124 255.609Z" fill="#B72A27"/>
<path d="M135.089 93.2456C132.124 93.1851 129.521 94.1526 127.403 96.1482C125.284 98.1437 124.134 100.683 124.074 103.647C124.013 106.61 124.982 109.21 126.979 111.326C128.976 113.443 131.518 114.592 134.484 114.652C135.634 114.713 136.784 114.531 137.813 114.229C139.387 113.806 140.839 112.959 142.171 111.75C144.289 109.754 145.439 107.214 145.499 104.251C145.56 101.288 144.592 98.6879 142.594 96.5715C140.597 94.455 138.055 93.3061 135.089 93.2456Z" fill="#B0422B"/>
<path d="M142.594 96.5717C140.597 94.4553 138.055 93.3063 135.089 93.2458C134.121 93.2458 133.213 93.3063 132.366 93.4877C134.363 93.9715 136.118 94.9995 137.571 96.5113C139.568 98.6277 140.536 101.228 140.476 104.191C140.415 107.154 139.265 109.694 137.147 111.689C135.876 112.899 134.423 113.745 132.789 114.169C132.608 114.229 132.366 114.29 132.184 114.29C132.91 114.471 133.697 114.592 134.484 114.592C135.634 114.652 136.784 114.471 137.813 114.169C139.386 113.745 140.839 112.899 142.171 111.689C144.289 109.694 145.439 107.154 145.499 104.191C145.56 101.288 144.592 98.6882 142.594 96.5717Z" fill="#B72A27"/>
<path d="M173.401 9.85695C167.046 3.62849 158.391 0.363082 147.678 0.000259139C136.965 -0.302093 128.068 2.47955 121.229 8.34519C115.298 13.4247 111.848 20.1974 110.88 28.4214C110.698 29.8122 111.182 31.203 112.09 32.2915C112.998 33.3195 114.329 33.9847 115.721 34.0451L122.137 34.2266C124.679 34.287 126.858 32.4729 127.221 29.9332C127.887 25.4583 129.581 22.0115 132.547 19.4718C136.118 16.3878 141.02 14.9365 147.194 15.1179C153.307 15.2993 158.149 17.1134 161.417 20.4998C164.746 23.8861 166.32 28.6633 166.138 34.6498C165.835 42.9343 163.293 48.4371 158.572 51.0373C153.549 53.7585 145.741 54.9075 135.392 54.5446L132.608 54.4842C129.824 54.4237 127.524 56.6006 127.463 59.3218L126.737 83.3891C126.676 84.7194 127.161 85.9893 128.129 86.9568C129.037 87.9243 130.308 88.4686 131.639 88.529L138.115 88.7105C138.66 88.7105 139.144 88.65 139.628 88.529C141.686 87.9243 143.199 86.1102 143.26 83.8728L143.744 68.2714C143.744 68.09 143.926 67.9086 144.107 67.9086C156.212 67.9086 165.533 65.5503 171.948 60.7731C178.727 55.6936 182.298 47.4091 182.661 36.1616C182.903 24.9746 179.816 16.1459 173.401 9.85695Z" fill="#B0422B"/>
<path d="M173.401 9.85714C167.046 3.62868 158.391 0.36328 147.678 0.000457177C141.021 -0.180954 135.089 0.786573 129.884 2.96351C132.789 2.47975 135.876 2.29834 139.144 2.41928C149.857 2.72163 158.573 6.0475 164.928 12.276C171.343 18.5044 174.369 27.3936 174.067 38.5806C173.764 49.8281 170.133 58.1126 163.354 63.1921C161.417 64.6434 159.178 65.9133 156.636 66.9413C162.809 65.7923 167.893 63.7363 171.888 60.7733C178.667 55.6938 182.237 47.4093 182.601 36.1618C182.903 24.9748 179.817 16.1461 173.401 9.85714Z" fill="#B72A27"/>
<path d="M362.539 308.521L355.155 306.767L355.76 303.623L361.086 303.683L360.662 302.051L366.775 304.288L366.594 307.735L362.539 308.521Z" fill="#A0734B"/>
<path d="M411.381 278.104L399.034 302.111L364.959 302.836V309.609L405.329 317.652L419.613 294.975L411.381 278.104Z" fill="#EED5D5"/>
<path d="M139.689 215.336L136.36 178.509L127.766 178.146L121.895 206.507L114.753 218.48L125.708 229.063C125.708 229.063 135.029 223.318 136.239 222.895L139.689 215.336Z" fill="#5D66D3"/>
<path d="M135.634 178.509L135.574 168.834L129.703 165.811L124.074 169.318L127.524 173.914L130.732 178.328L135.634 178.509Z" fill="#EAC1A4"/>
<path d="M589.685 160.126L579.517 124.569L570.983 125.839L570.256 169.983L578.427 176.211C578.427 176.211 586.477 168.834 587.627 168.169L589.685 160.126Z" fill="#8CABEF"/>
<path d="M578.79 124.69L576.914 115.196L570.559 113.382L565.717 117.857L569.954 121.727L573.888 125.416L578.79 124.69Z" fill="#EAC1A4"/>
</g>
<defs>
<clipPath id="clip0">
<rect width="603" height="419" fill="white"/>
</clipPath>
</defs>
</svg>
