<svg width="521" height="402" viewBox="0 0 521 402" fill="none" xmlns="http://www.w3.org/2000/svg">
<path d="M519.302 398.602H1.75977C0.849726 398.602 0.0610211 399.3 0.000351528 400.18C-0.060318 401.181 0.728386 402 1.6991 402H519.302C520.242 402 521 401.242 521 400.301C521 399.361 520.242 398.602 519.302 398.602Z" fill="#4951EC"/>
<path d="M181.563 74.6968C196.976 74.626 209.413 62.0717 209.343 46.6561C209.272 31.2405 196.72 18.801 181.306 18.8719C165.893 18.9427 153.456 31.4969 153.527 46.9125C153.597 62.3282 166.15 74.7676 181.563 74.6968Z" fill="#92B5F9"/>
<path d="M191.959 71.8442C178.157 77.6391 162.201 71.1161 156.407 57.2812C150.613 43.4767 157.135 27.518 170.967 21.7232C184.77 15.9283 200.726 22.4513 206.52 36.2862C212.283 50.0907 205.761 66.0493 191.959 71.8442Z" fill="#92B5F9"/>
<path d="M200.353 58.5792C206.801 48.1653 203.587 34.4953 193.175 28.0464C182.762 21.5974 169.095 24.8116 162.647 35.2255C156.199 45.6393 159.412 59.3093 169.825 65.7583C180.237 72.2072 193.905 68.9931 200.353 58.5792Z" fill="white"/>
<path d="M189.562 66.2008C178.854 70.6911 166.508 65.6244 162.048 54.9448C157.559 44.2349 162.625 31.8867 173.303 27.4268C184.011 22.9365 196.357 28.0032 200.816 38.6828C205.336 49.3623 200.27 61.7106 189.562 66.2008Z" fill="white"/>
<path d="M164.234 52.7907L160.775 54.247C160.199 54.4898 159.926 55.1572 160.169 55.7033C160.411 56.2798 161.079 56.5528 161.625 56.3101L165.083 54.8538C165.659 54.6111 165.932 53.9436 165.69 53.3975C165.447 52.8211 164.81 52.548 164.234 52.7907Z" fill="#92B5F9"/>
<path d="M188.047 62.56C187.471 62.8027 187.198 63.4702 187.44 64.0163L188.896 67.475C189.139 68.0514 189.806 68.3245 190.352 68.0818C190.929 67.8391 191.202 67.1716 190.959 66.6255L189.503 63.1668C189.291 62.5903 188.623 62.3173 188.047 62.56Z" fill="#92B5F9"/>
<path d="M201.273 37.2569L197.814 38.7132C197.238 38.9559 196.965 39.6234 197.208 40.1695C197.45 40.7459 198.118 41.019 198.664 40.7763L202.122 39.32C202.698 39.0773 202.971 38.4098 202.729 37.8637C202.516 37.2872 201.849 37.0445 201.273 37.2569Z" fill="#92B5F9"/>
<path d="M172.515 25.485C171.938 25.7278 171.665 26.3952 171.908 26.9413L173.364 30.4001C173.607 30.9765 174.274 31.2496 174.82 31.0068C175.396 30.7641 175.669 30.0967 175.427 29.5505L174.001 26.0918C173.758 25.5154 173.091 25.2727 172.515 25.485Z" fill="#92B5F9"/>
<path d="M180.341 16.0496L180.645 11.6504C180.675 11.2863 180.978 11.0132 181.342 11.0436L186.408 11.4076C186.772 11.438 187.045 11.7414 187.015 12.1054L186.711 16.5047C186.681 16.8688 186.378 17.1418 186.014 17.1115L180.948 16.7474C180.584 16.7171 180.311 16.4137 180.341 16.0496Z" fill="#92B5F9"/>
<path d="M160.623 24.4236L157.256 21.5413C156.983 21.2986 156.558 21.3289 156.346 21.602L153.04 25.4854C152.797 25.7585 152.827 26.1833 153.1 26.3956L156.467 29.2779C156.74 29.5206 157.165 29.4903 157.408 29.2172L160.684 25.3641C160.927 25.091 160.896 24.6663 160.623 24.4236Z" fill="#92B5F9"/>
<path d="M166.023 17.2024C165.689 17.3238 165.325 17.1721 165.173 16.8687L163.96 13.9257C163.839 13.592 163.99 13.2279 164.294 13.0762L170.269 10.558C170.603 10.4367 170.967 10.5884 171.119 10.8918L172.332 13.8347C172.454 14.1685 172.302 14.5325 171.999 14.6842L166.023 17.2024Z" fill="#92B5F9"/>
<path d="M167.6 18.2644C164.688 18.4768 161.837 16.8384 160.623 14.0169C159.137 10.4671 160.805 6.37127 164.355 4.88463C167.904 3.39799 171.999 5.06667 173.485 8.6164C174.668 11.4683 173.849 14.654 171.635 16.5654L172.302 18.143C175.336 15.8069 176.549 11.6504 175.002 7.94893C173.212 3.58003 168.116 1.51693 163.748 3.33731C159.349 5.18803 157.287 10.2547 159.107 14.654C160.654 18.3554 164.476 20.3882 168.268 19.8724L167.6 18.2644Z" fill="#92B5F9"/>
<path d="M170.451 20.5397C171.149 20.2363 171.847 19.9936 172.544 19.7508L170.785 15.5336L167.479 16.9293L169.238 21.1161C169.632 20.9037 170.027 20.7217 170.451 20.5397Z" fill="#92B5F9"/>
<path d="M183.344 45.9644C183.769 46.9959 183.283 48.2095 182.252 48.6343C181.22 49.059 180.007 48.5736 179.582 47.542C179.158 46.5105 179.643 45.2969 180.674 44.8721C181.706 44.4171 182.889 44.9328 183.344 45.9644Z" fill="#92B5F9"/>
<path d="M183.616 30.0362L182.16 46.8443C182.13 47.2691 181.736 47.5725 181.341 47.5421C180.917 47.5118 180.613 47.1174 180.644 46.7229C180.644 46.6319 180.492 47.3904 183.616 30.0362Z" fill="#92B5F9"/>
<path d="M196.236 55.0666L181.159 47.4817C180.765 47.2997 180.613 46.8142 180.826 46.4502C181.008 46.0558 181.493 45.9041 181.857 46.1164C181.887 46.1468 181.25 45.7524 196.236 55.0666Z" fill="#92B5F9"/>
<path d="M182.222 46.4195C182.404 46.8442 182.192 47.3297 181.767 47.5117C181.342 47.6938 180.857 47.4814 180.675 47.0566C180.493 46.6319 180.705 46.1464 181.13 45.9644C181.555 45.8127 182.04 45.9947 182.222 46.4195Z" fill="#92B5F9"/>
<path d="M388.923 167.565C388.71 167.323 388.407 167.232 388.104 167.323C386.617 167.717 383.948 167.141 382.644 166.655L381.218 159.525C382.249 158.585 384.494 157.007 386.011 156.795C386.314 156.765 386.587 156.552 386.678 156.249L388.498 150.848C388.589 150.545 388.528 150.242 388.286 149.999C387.194 148.907 386.375 146.297 386.132 144.932L391.562 140.138C392.897 140.563 395.384 141.716 396.325 142.93C396.507 143.172 396.84 143.294 397.144 143.233L402.725 142.111C403.028 142.05 403.271 141.807 403.362 141.504C403.757 140.017 405.607 138.015 406.669 137.105L413.555 139.41C413.858 140.776 414.101 143.506 413.524 144.902C413.403 145.175 413.464 145.509 413.676 145.751L417.438 150.029C417.65 150.272 417.953 150.363 418.257 150.272C419.743 149.877 422.412 150.454 423.717 150.939L425.143 158.069C424.111 159.01 421.866 160.587 420.35 160.8C420.046 160.83 419.773 161.042 419.682 161.346L417.862 166.746C417.771 167.05 417.832 167.353 418.075 167.596C419.167 168.688 419.986 171.297 420.228 172.663L414.798 177.456C413.464 177.031 410.976 175.879 410.036 174.665C409.854 174.422 409.52 174.301 409.217 174.362L403.635 175.484C403.332 175.545 403.089 175.788 402.998 176.091C402.604 177.578 400.753 179.58 399.692 180.49L392.806 178.184C392.502 176.819 392.26 174.089 392.836 172.693C392.957 172.42 392.897 172.086 392.684 171.843L388.923 167.565ZM404.576 165.836C408.458 165.047 410.946 161.285 410.157 157.402C409.368 153.518 405.607 151.03 401.724 151.819C397.841 152.608 395.354 156.37 396.143 160.254C396.962 164.107 400.723 166.625 404.576 165.836ZM405.486 170.326C411.826 169.052 415.951 162.863 414.677 156.492C413.403 150.151 407.215 146.024 400.844 147.299C394.504 148.573 390.379 154.762 391.653 161.133C392.957 167.505 399.146 171.601 405.486 170.326Z" fill="#FA7167"/>
<path d="M435.153 193.051C435.214 192.808 435.396 192.626 435.639 192.596L440.067 191.716C440.31 191.655 440.553 191.746 440.704 191.959C441.432 192.93 443.404 193.809 444.466 194.143L448.773 190.351C448.561 189.259 447.924 187.195 447.075 186.346C446.893 186.164 446.832 185.921 446.923 185.678L448.349 181.401C448.44 181.158 448.622 181.006 448.864 180.976C450.048 180.824 451.837 179.55 452.656 178.822L451.504 173.179C450.472 172.814 448.349 172.329 447.166 172.663C446.923 172.723 446.68 172.663 446.498 172.481L443.495 169.083C443.344 168.901 443.283 168.628 443.374 168.415C443.829 167.293 443.617 165.139 443.404 164.046L437.944 162.226C437.095 162.954 435.639 164.532 435.335 165.715C435.275 165.958 435.093 166.14 434.85 166.17L430.421 167.05C430.178 167.111 429.936 167.02 429.784 166.807C429.056 165.836 427.084 164.956 426.022 164.623L421.715 168.415C421.927 169.507 422.564 171.571 423.414 172.42C423.596 172.602 423.656 172.845 423.565 173.087L422.14 177.365C422.049 177.608 421.867 177.76 421.624 177.79C420.441 177.942 418.651 179.216 417.832 179.944L418.985 185.587C420.016 185.951 422.14 186.437 423.323 186.103C423.565 186.043 423.808 186.103 423.99 186.285L426.993 189.683C427.145 189.865 427.205 190.138 427.114 190.351C426.659 191.473 426.872 193.627 427.084 194.72L432.544 196.54C433.363 195.812 434.85 194.234 435.153 193.051ZM436.67 186.255C432.848 187.013 429.147 184.556 428.358 180.733C427.6 176.91 430.057 173.209 433.879 172.42C437.701 171.662 441.402 174.119 442.191 177.942C442.949 181.765 440.492 185.496 436.67 186.255Z" fill="#FA7167"/>
<path d="M123.676 103.488L118.762 101.638L114.454 104.641C113.969 104.975 113.301 104.611 113.332 104.004L113.574 98.7553L109.358 95.5697C108.872 95.2056 109.024 94.4471 109.6 94.2954L114.666 92.8998L116.395 87.9241C116.577 87.3476 117.366 87.2566 117.669 87.7724L120.551 92.1716L125.799 92.293C126.406 92.293 126.709 92.9908 126.345 93.4762L123.069 97.5721L124.586 102.608C124.798 103.185 124.252 103.701 123.676 103.488Z" fill="#92B5F9"/>
<path d="M131.229 72.026L128.529 64.8658L121.704 66.8986L118.761 59.9508L111.966 61.0734L108.902 56.2494L106.445 57.7967L110.541 64.259L116.971 63.1971L120.035 70.418L126.77 68.4155L129.196 74.9082L131.229 72.026Z" fill="#7C9AF2"/>
<path d="M418.833 105.127L412.129 101.426L408.277 107.463L401.482 104.126L397.113 109.435L391.623 107.767L390.804 110.527L398.114 112.773L402.27 107.736L409.338 111.195L413.1 105.279L419.197 108.616L418.833 105.127Z" fill="#BED1F9"/>
<path d="M241.647 14.563L238.766 21.6928L245.197 24.7874L242.679 31.9172L248.442 35.649L247.411 41.2922L250.293 41.8079L251.628 34.2534L246.167 30.734L248.806 23.3008L242.466 20.2668L245.075 13.8045L241.647 14.563Z" fill="#92B5F9"/>
<path d="M411.128 197.784L409.733 194.993L406.547 195.084L405.182 191.868L401.815 193.021L400.116 189.44L396.901 190.108L394.687 186.922L395.9 186.103L397.538 188.47L400.935 187.741L402.574 191.2L406.001 190.017L407.488 193.597L410.612 193.506L411.917 196.085L413.949 195.569L414.313 196.995L411.128 197.784Z" fill="#FA7167"/>
<path d="M352.308 68.7497L350.822 64.3201L357.677 61.1345L356.282 54.3991L361.014 51.1831L359.406 48.7862L353.067 53.0945L354.371 59.4658L347.242 62.7728L349.457 69.4475L352.308 68.7497Z" fill="#FA7167"/>
<path d="M407.215 58.5554C414.768 70.1148 404.485 86.1645 391.016 83.7676C388.589 83.3429 386.072 83.889 383.918 85.2239L376.486 89.8052C374.423 91.0795 371.845 90.5334 370.57 88.5309L367.719 84.162C366.415 82.19 366.839 79.4291 368.69 77.8514C375.424 72.0869 378.276 70.4485 379.186 65.6245C381.825 51.4863 399.662 46.996 407.215 58.5554Z" fill="#BED1F9"/>
<path d="M389.469 64.8963C389.317 64.2591 389.165 63.5613 389.105 62.8635C388.771 58.8283 391.896 57.4327 393.534 58.4642C394.595 59.1317 395.02 60.679 394.413 62.1353C393.867 63.4399 392.684 64.4108 391.501 65.4424C392.138 67.6875 393.139 69.7506 394.504 71.6013C398.175 69.3865 400.814 70.6001 400.996 72.6025C401.117 73.8768 400.268 75.2117 399.024 75.7578C398.266 76.0916 396.355 76.5163 394.08 73.9981C387.861 78.3671 379.762 84.8597 379.731 84.8901L378.7 83.4641C378.73 83.4338 386.799 77.0018 392.988 72.6329C391.714 70.8732 390.713 68.9011 390.015 66.7773C382.947 72.9666 376.698 77.8513 376.485 78.0333L375.454 76.6074C375.879 76.2433 381.915 71.5103 389.469 64.8963ZM392.472 59.9812C391.926 59.7689 390.47 60.3756 391.046 63.531C392.684 62.0747 393.17 61.4679 392.472 59.9812ZM395.627 72.9969C396.537 73.9375 397.902 74.787 398.812 73.7858C399.995 72.4812 398.327 71.48 395.627 72.9969Z" fill="white"/>
<path d="M384.13 85.1024C384.069 85.1327 384.009 85.1631 383.948 85.2237L376.516 89.805C374.453 91.0793 371.875 90.5332 370.601 88.5307L367.749 84.1618C366.445 82.1898 366.87 79.4289 368.72 77.8512C371.723 75.2723 373.938 73.543 375.576 71.9653L384.13 85.1024Z" fill="#92B5F9"/>
<path d="M49.9015 302.061C49.9015 302.061 49.6589 300.878 49.5982 300.484C49.5375 300.028 49.4768 298.603 49.4768 298.603C49.4768 298.603 49.4768 293.657 49.8409 293.687C50.2049 293.718 50.6902 294.567 50.7812 294.871C50.9026 295.174 51.0543 295.508 51.1453 295.842C51.2666 296.145 51.5699 296.327 51.9643 296.206C52.3587 296.084 52.1766 294.78 52.0553 294.355C51.6003 292.99 49.6285 289.561 49.4465 289.167C49.2342 288.712 50.8116 280.156 51.1149 277.152C51.752 272.298 52.662 267.322 52.753 266.807L61.4288 247.632L55.6348 241.716C55.6348 241.716 45.7153 262.832 45.3513 263.955C45.1693 264.47 44.5323 275.878 44.5626 275.878C44.5929 281.521 44.6536 286.467 44.6536 287.438C44.6536 287.438 43.8346 290.289 43.1975 292.049C42.5605 293.839 42.7122 295.72 42.6212 296.236C42.6212 296.327 42.1662 298.117 42.4695 300.362C42.7425 302.304 43.3796 300.332 43.3796 300.332C43.3796 300.332 43.5312 296.661 43.8346 296.721C44.0469 296.782 43.8346 298.785 44.1076 300.908C44.1683 301.454 44.2593 302.001 44.3199 302.516C44.5019 303.821 45.3513 304.094 45.3817 302.668C45.3817 302.183 45.3816 301.363 45.321 300.757C45.23 300.119 45.3513 299.513 45.3513 298.967C45.3513 297.874 45.3513 297.086 45.412 297.116C45.4727 297.146 45.6243 296.934 45.7153 297.51C45.8367 298.208 45.7153 299.755 45.958 300.787C46.1097 301.363 46.2917 302.577 46.2917 302.577C46.2917 302.577 46.8681 304.519 46.9591 304.519C47.5961 304.488 47.5961 302.971 47.3231 302.213C47.3837 301.636 47.1411 300.362 47.1411 300.362C47.1411 300.362 47.2017 297.632 47.5961 297.632C47.8994 297.632 49.0218 304.155 49.6589 304.064C50.1442 304.033 49.9015 302.061 49.9015 302.061Z" fill="#FB9390"/>
<path d="M57.879 258.706C57.879 258.706 54.2692 258.099 52.3884 257.371C49.8403 256.43 48.1719 255.581 48.1719 255.581C48.1719 255.581 50.9627 243.627 54.4512 236.376C55.8769 233.372 57.3633 231.916 59.3654 231.582C59.3654 231.582 63.6426 234.404 63.4909 241.169C63.4303 242.777 57.879 258.706 57.879 258.706Z" fill="#E8605D"/>
<path d="M68.9512 298.906L73.6227 341.806C73.6227 341.806 71.3476 350.878 71.6206 353.457C71.8936 356.035 76.6865 389.834 76.6865 389.834L76.4742 391.745V397.358H94.2504C94.2504 397.358 90.4889 395.629 85.1803 392.17C84.7859 391.927 83.8759 391.108 83.6635 389.5C82.2681 379.094 85.0286 344.324 85.0286 344.324L87.2127 299.088L68.9512 298.906Z" fill="#FB9390"/>
<path d="M54.633 307.917C53.6319 308.19 52.0848 345.052 51.2355 346.691C45.9572 357.067 44.7135 388.559 44.7135 388.559L43.1664 393.05L41.5283 398.541C41.5283 398.541 46.8066 399.997 49.567 398.42L49.2637 392.989L48.9907 388.013L62.3077 348.754L69.588 308.706L54.633 307.917Z" fill="#FB9390"/>
<path d="M81.1153 236.467C78.9615 233.433 70.1038 224.695 69.1331 224.725C66.2513 224.786 56.8475 224.786 54.9971 225.757V227.82C55.0577 237.043 56.2105 246.206 58.5462 255.126C60.154 261.345 61.7011 267.99 61.4887 270.356L61.519 270.387C66.9793 275.817 75.564 275.362 80.539 269.446C80.539 269.446 80.5086 262.832 81.2973 256.825C82.541 247.359 86.4542 243.991 81.1153 236.467Z" fill="#FA7167"/>
<path d="M66.2521 215.351C66.2521 215.351 66.4948 221.51 65.9791 223.815C65.433 226.152 64.7353 226.334 69.3462 227.031C71.1663 227.304 72.8954 227.729 72.8954 227.729C72.8954 227.729 72.41 224.301 72.3494 222.875C72.228 220.508 72.8954 213.136 72.8954 213.136L66.2521 215.351Z" fill="#FB9390"/>
<path d="M69.7399 218.385C70.6803 218.9 71.56 219.234 72.379 219.355C72.5307 216.443 72.834 213.136 72.834 213.136L66.5244 215.229C67.2828 216.504 68.3142 217.596 69.7399 218.385Z" fill="#EF7F7F"/>
<path d="M67.7079 198.117C67.7079 198.117 65.0688 199.058 63.6127 201.94C62.1566 204.822 61.6106 212.984 67.3439 216.169C70.165 217.747 73.4412 218.051 74.9883 216.655C76.5657 215.229 76.3533 212.104 76.2016 209.495C75.8983 204.307 74.7456 196.479 67.7079 198.117Z" fill="#FB9390"/>
<path d="M63.4913 208.342C63.8249 209.707 63.3699 211.012 62.5206 211.285C61.6712 211.558 60.7005 210.648 60.3668 209.283C60.0331 207.917 60.4881 206.613 61.3375 206.34C62.1869 206.097 63.1576 206.977 63.4913 208.342Z" fill="#F7A491"/>
<path d="M49.294 392.989C46.8672 394.111 44.2585 393.414 43.2271 393.049L41.5283 398.571C41.5283 398.571 46.8369 400.149 49.5974 398.571L49.294 392.989Z" fill="#FA7167"/>
<path d="M76.2923 398.723H94.7965C95.4942 398.662 95.6459 398.086 95.4032 397.722C94.9178 396.994 92.7641 396.448 90.3373 395.295C86.0904 395.75 77.172 392.746 76.4743 391.715C76.0799 393.747 75.8979 398.632 76.2923 398.723Z" fill="#FA7167"/>
<path d="M113.422 250.454C113.786 249.968 114.969 247.511 114.969 247.511C114.969 247.511 116.213 243.324 115.94 243.384C115.788 243.415 115.273 244.022 114.666 245.266C114.302 246.024 113.877 247.389 113.513 248.057C112.846 249.24 112.088 249.725 112.27 249.27C112.391 248.937 112.876 248.664 113.271 247.966C114.272 246.267 115.121 243.475 114.757 243.506C114.423 243.566 113.453 245.478 112.421 246.965C111.966 247.632 110.662 248.451 109.812 248.967C109.812 248.603 109.934 248.239 109.994 248.057C110.085 247.723 111.572 245.781 110.996 245.539C110.419 245.296 106.931 249.513 106.931 249.513L105.505 251.971L105.384 252.062C105.384 252.062 87.9411 258.888 87.3647 258.706C85.9997 258.281 81.2978 244.689 81.2978 244.689L71.53 246.449C71.3783 246.358 81.7831 266.685 83.7246 267.656C85.4233 268.536 103.564 259.07 106.961 257.068C111.663 255.247 113.483 253.123 114.241 252.001C114.636 251.424 116.213 248.846 116.213 248.846C116.213 248.846 116.547 245.296 116.304 245.266C115.455 245.174 115.212 248.512 115.212 248.512C115.212 248.512 114.059 250.09 113.847 250.302C113.331 250.848 113.422 250.454 113.422 250.454Z" fill="#FB9390"/>
<path d="M65.2199 232.857C63.8851 238.5 70.9835 251.091 70.9835 251.091C70.9835 251.091 81.1153 246.176 82.8747 244.052C82.8747 244.052 75.8977 232.523 75.473 231.765C74.5326 230.126 71.2565 226.789 69.042 227.396C67.6466 227.821 65.2199 232.857 65.2199 232.857Z" fill="#E8605D"/>
<path d="M66.828 218.931C67.5864 213.743 76.1711 203.184 72.8646 198.785C70.1951 195.205 65.4933 196.297 62.5204 197.298C48.9911 201.94 49.7798 218.961 45.5026 221.601C37.7673 226.425 33.0047 229.428 32.4587 240.29C31.7913 253.184 42.7422 259.737 55.8771 256.582C62.9451 254.883 64.8259 252.577 67.647 245.903C68.9211 242.899 71.4995 233.494 70.8018 228.912C70.1648 224.847 66.2213 223.118 66.828 218.931Z" fill="#0B0754"/>
<path d="M71.9543 209.434C71.9543 210.982 71.4082 212.225 70.7105 212.225C70.0128 212.225 69.4668 210.982 69.4668 209.434C69.4668 207.887 70.0128 206.643 70.7105 206.643C71.4082 206.643 71.9543 207.917 71.9543 209.434Z" fill="#FB9390"/>
<path d="M88.9114 326.818L89.5484 301.363C89.6698 294.173 88.244 287.043 85.3925 280.49L80.5693 269.446C78.6279 270.083 76.7775 270.629 74.745 270.872C70.2858 271.388 65.9176 270.872 61.4887 270.356C61.4887 270.538 61.4584 270.69 61.4281 270.811C60.6394 274.573 56.1498 282.917 54.2691 294.324C52.1456 307.279 51.3266 326.667 51.5996 328.214C72.0756 329.124 76.9291 329.852 88.9114 326.818Z" fill="#92B5F9"/>
<path d="M343.512 199.392L358.892 214.774C358.892 214.774 388.195 226.242 391.472 233.281C394.748 240.32 388.529 239.986 381.643 239.015C374.757 238.044 355.282 225.909 355.282 225.909L337.445 205.278L343.512 199.392Z" fill="#4951EC"/>
<path d="M388.559 230.217L384.737 228.852L377.365 232.28C377.365 232.28 373.543 234.859 371.723 241.261C369.873 247.662 371.723 285.86 374.787 291.989C377.881 298.148 388.559 230.217 388.559 230.217Z" fill="#BED1F9"/>
<path d="M412.736 383.401C412.736 383.401 415.436 385.131 415.679 385.95C415.891 386.739 417.893 395.446 417.135 396.448C416.407 397.449 413.677 396.963 414.738 397.691C415.527 398.238 420.684 398.662 423.96 397.782C424.931 397.509 424.476 389.409 424.628 388.165C424.84 386.375 426.084 382.309 425.325 381.247C424.961 380.732 422.838 379.821 420.957 379.093C418.955 378.304 416.741 376.12 416.741 376.12L412.736 383.401Z" fill="#FB9390"/>
<path d="M420.775 379.002C420.775 379.002 419.167 394.415 417.316 395.537C416.831 395.841 414.192 396.053 413.949 397.328C413.949 397.358 413.889 398.632 414.677 398.662L424.657 398.632C424.657 398.632 424.748 391.047 424.688 388.104C424.688 388.104 426.053 380.519 425.628 379.973C425.143 379.366 420.775 379.002 420.775 379.002Z" fill="#0B0754"/>
<path d="M451.777 383.401C451.777 383.401 454.477 385.131 454.72 385.95C454.932 386.739 456.934 395.446 456.176 396.448C455.418 397.449 452.718 396.963 453.779 397.691C454.568 398.238 459.725 398.662 463.001 397.782C463.972 397.509 463.517 389.409 463.669 388.165C463.881 386.375 465.125 382.309 464.366 381.247C464.002 380.732 461.879 379.821 459.998 379.093C457.996 378.304 455.782 376.12 455.782 376.12L451.777 383.401Z" fill="#FB9390"/>
<path d="M402.786 283.341C402.786 283.341 411.917 301.454 413.767 306.339L427.661 341.624L458.329 377.698C458.329 377.698 456.084 383.493 452.687 385.04C452.687 385.04 415.709 355.186 412.675 350.483C408.034 343.323 386.921 299.391 386.921 299.391L383.008 290.957L402.786 283.341Z" fill="#E8605D"/>
<path d="M380.703 283.129L380.855 298.572C380.855 298.572 374.242 349.057 375.546 352.061C378.671 359.372 412.979 384.16 412.979 384.16L417.651 376.12L393.019 348.602L402.362 321.812C404.971 315.592 410.522 303.578 410.401 296.812C410.28 291.017 398.813 277.637 398.813 277.637L380.703 283.129Z" fill="#FA7167"/>
<path d="M394.718 305.975C403.818 303.912 411.159 300.696 411.918 298.178C412.251 297.025 407.185 285.496 403.454 270.114C402.241 265.077 402.453 260.375 400.512 242.747C400.087 239.015 398.54 231.188 392.776 229.155C390.744 228.457 389.621 228.548 389.621 228.548C389.561 228.548 382.25 228.609 378.913 230.46C378.094 231.582 375 237.711 374.181 254.428C373.817 261.709 372.361 285.132 372.664 288.954C372.695 289.531 372.755 290.077 372.846 290.593C374.151 300.666 384.798 308.22 394.718 305.975Z" fill="#4951EC"/>
<path d="M378.67 241.867C382.401 241.443 391.714 229.246 391.714 229.246L391.684 229.216L385.92 220.114C385.92 220.114 377.456 221.661 379.095 224.24C380.763 226.819 381.673 233.008 381.673 233.008C381.643 233.069 381.612 233.16 381.552 233.281C381.006 234.525 379.125 238.257 378.67 241.867Z" fill="#FB9390"/>
<path d="M379.125 224.24C377.457 221.661 385.951 220.114 385.951 220.114L386.436 220.872C386.436 221.51 386.375 222.086 386.193 222.602C385.283 225.181 383.069 227.456 380.794 228.548C380.369 226.971 379.793 225.302 379.125 224.24Z" fill="#EF7F7F"/>
<path d="M381.157 205.733C381.339 205.551 387.77 216.14 386.223 220.478C384.676 224.817 379.489 228.306 376.425 226.758C373.027 225.029 367.871 212.924 370.965 207.796C374.059 202.608 381.157 205.733 381.157 205.733Z" fill="#FB9390"/>
<path d="M371.845 200.97C375.636 200.15 382.371 201.273 386.193 203.943C390.864 207.22 391.016 213.075 388.923 216.898C386.83 220.721 388.074 223.512 388.074 223.512C388.074 223.512 381.491 223.087 380.187 218.627C379.641 216.746 380.308 215.472 379.064 214.41C378.094 213.591 377.274 211.224 376.304 209.313C376.304 209.313 372.057 207.068 370.449 208.919C369.903 209.586 367.021 202.031 371.845 200.97Z" fill="#0B0754"/>
<path d="M378.397 215.26C378.973 216.625 380.096 217.474 380.884 217.141C381.673 216.807 381.885 215.411 381.309 214.046C380.733 212.681 379.61 211.831 378.822 212.165C378.003 212.469 377.821 213.864 378.397 215.26Z" fill="#FB9390"/>
<path d="M459.846 379.033C459.846 379.033 458.208 394.415 456.327 395.538C455.842 395.841 453.203 396.053 452.96 397.328C452.96 397.358 452.869 398.663 453.688 398.632L463.668 398.602C463.668 398.602 463.79 391.017 463.729 388.074C463.729 388.074 465.094 380.489 464.669 379.943C464.214 379.367 459.846 379.033 459.846 379.033Z" fill="#0B0754"/>
<path d="M239.433 307.947C231.516 291.381 229.332 266.624 237.977 247.025C252.538 213.894 292.58 200.393 289.637 162.863C288.909 153.397 284.693 145.812 278.505 140.897C262.215 128.033 235.975 134.829 217.259 143.84C205.307 149.574 194.204 157.735 183.951 168.294L178.733 102.002C201.211 86.0429 228.391 77.6995 255.541 75.5758C311.145 71.2069 354.099 92.0805 358.467 147.723C362.441 198.482 328.163 220.963 305.169 246.327C292.398 260.405 289.516 271.266 290.517 283.827C291.033 290.32 293.46 298.329 297.373 303.457L239.433 307.947ZM279.354 398.602C225.297 402.849 219.018 330.216 273.651 325.908C327.435 321.691 333.229 394.354 279.354 398.602Z" fill="#FA7167"/>
<path d="M335.261 202.76C335.17 202.304 335.534 202.669 334.837 199.089C334.624 198.057 333.987 196.965 333.502 196.388C333.229 196.085 332.653 195.539 332.289 195.326C331.682 194.962 331.196 195.569 331.318 195.903C331.439 196.237 332.076 197.42 332.197 197.754C332.319 198.087 332.38 198.937 332.107 199.21C331.834 199.483 327.344 194.356 327.071 193.9C326.828 193.506 326.313 191.837 326.313 191.837C326.313 191.837 325.918 190.624 325.433 190.927C325.129 191.14 324.765 192.141 325.675 194.113C326.464 195.842 327.556 197.207 327.435 197.298C327.101 197.572 325.16 195.235 325.16 195.235C325.16 195.235 324.492 193.931 324.007 193.476C323.704 192.626 323.188 191.534 322.642 191.959C322.551 192.05 322.915 193.87 322.915 193.87C322.915 193.87 323.582 195.084 323.886 195.69C324.401 196.752 325.554 198.027 325.949 198.724C326.282 199.301 325.949 199.149 325.918 199.24C325.888 199.301 325.402 198.664 324.644 197.723C324.25 197.238 323.734 196.813 323.37 196.176C323.036 195.599 322.46 194.871 322.096 194.447C321.095 193.233 320.549 194.052 321.307 195.326C321.611 195.812 321.914 196.328 322.248 196.874C323.522 198.937 325.099 200.545 324.947 200.727C324.735 200.97 322.035 197.875 322.035 197.875C322.035 197.875 320.124 196.601 321.277 198.482C322.581 200.666 324.007 202.031 324.098 202.092C324.553 202.487 325.736 204.337 327.496 205.429C329.255 206.552 332.107 208.251 332.107 208.251C332.44 208.645 333.259 209.92 334.412 211.74L338.689 206.613C337.172 205.035 335.322 203.063 335.261 202.76Z" fill="#FB9390"/>
<path d="M331.894 209.98L337.779 204.822L358.012 224.816C358.012 224.816 389.348 227.577 389.439 227.577L390.682 227.971C402.058 231.885 397.356 241.169 395.172 242.625C390.076 245.963 361.743 243.96 352.643 238.348C345.211 233.675 331.894 209.98 331.894 209.98Z" fill="#7C9AF2"/>
<path d="M120.915 238.621C121.127 239.44 121.279 239.713 121.552 240.29C123.402 243.9 127.71 249.027 127.71 249.027L131.047 241.048C131.047 241.048 130.501 238.53 129.56 234.95C126.345 235.83 123.281 236.345 120.915 238.621Z" fill="#FB9390"/>
<path d="M139.996 231.703C139.996 231.703 121.461 240.229 120.855 240.047C120.46 239.956 113.24 227.031 113.18 214.926C113.149 209.313 118.579 202.577 124.677 203.912C127.741 204.58 127.68 205.49 132.23 212.529C136.72 219.568 139.996 231.703 139.996 231.703Z" fill="#4951EC"/>
<path d="M155.799 384.494C155.799 384.494 155.344 392.261 155.344 392.291C155.193 393.293 154.556 395.72 154.556 396.6C154.556 399.967 169.541 393.748 166.174 392.231C165.871 392.109 164.263 391.078 164.172 389.925C164.02 388.165 163.626 384.585 163.626 384.585L155.799 384.494Z" fill="#FB9390"/>
<path d="M166.174 392.2C166.174 392.2 162.655 393.232 160.866 393.474C159.076 393.717 156.679 391.563 155.405 392.14C154.01 392.777 154.071 398.602 154.071 398.602C154.071 398.602 172.939 400.24 178.248 398.541C180.31 397.874 173.364 394.597 166.174 392.2Z" fill="#0B0754"/>
<path d="M125.131 384.494C125.131 384.494 124.676 392.261 124.676 392.291C124.525 393.293 123.888 395.72 123.888 396.6C123.888 399.967 138.873 393.748 135.506 392.231C135.203 392.109 133.14 390.319 133.049 389.166C132.897 387.407 132.988 384.585 132.988 384.585L125.131 384.494Z" fill="#FB9390"/>
<path d="M135.506 392.2C135.506 392.2 131.987 393.232 130.198 393.474C128.408 393.717 126.011 391.563 124.737 392.14C123.342 392.777 123.281 398.602 123.281 398.602C123.281 398.602 142.24 400.544 147.579 398.541C149.612 397.783 142.696 394.597 135.506 392.2Z" fill="#0B0754"/>
<path d="M129.712 242.929L142.908 223.178C142.968 222.996 143.09 222.662 143.272 222.116C143.939 220.144 145.334 216.079 146.517 212.013V211.983C146.881 210.557 147.7 208.099 148.489 205.703C149.339 203.033 150.431 199.756 150.461 199.18C150.431 199.089 150.37 198.907 150.279 198.694C149.794 197.359 149.126 194.143 148.914 192.778C148.762 191.898 148.611 189.744 149.612 189.744C151.159 189.744 150.431 191.898 151.128 193.233C151.401 192.323 151.917 190.563 152.19 188.773L152.463 184.586C152.524 184.283 152.19 181.947 153.282 181.947H153.343C154.313 182.038 154.283 184.495 154.708 188.652C154.829 188.166 154.95 187.59 155.072 187.074C155.072 186.801 155.254 185.527 155.405 184.89C155.223 183.737 155.314 181.886 156.467 182.068C157.044 182.159 157.013 184.708 157.013 184.708C157.013 185.072 156.983 187.772 156.983 188.288C157.104 187.377 157.559 183.524 158.469 183.524C159.228 183.524 159.288 184.556 159.258 185.375C159.258 185.86 158.773 190.047 158.742 190.533C159.106 189.896 159.531 186.194 159.865 186.194C161.321 186.194 160.805 191.443 160.259 192.808C160.198 192.96 160.168 193.233 160.077 193.536C159.895 194.477 159.592 196.024 158.803 197.45C157.893 199.119 156.619 201.819 156.407 202.214C156.255 203.063 155.83 206.067 155.254 209.829C155.011 211.437 154.768 213.227 154.495 215.047C154.435 215.442 154.162 216.716 153.13 221.449C151.705 227.942 151.553 228.215 151.492 228.336C150.886 229.519 136.628 250.15 136.022 251.03L135.658 251.546L129.712 242.929Z" fill="#FB9390"/>
<path d="M154.283 196.904C154.283 196.904 153.222 193.992 151.311 193.961C151.311 193.961 152.372 193.536 153.282 194.325C154.192 195.114 154.283 196.904 154.283 196.904Z" fill="#EF7F7F"/>
<path d="M126.527 191.23L124.828 202.699C124.828 202.699 131.289 208.251 135.081 207.068C138.236 206.097 136.082 201.667 136.082 201.667C136.082 201.667 134.384 195.539 134.899 192.323C135.445 189.137 126.527 191.23 126.527 191.23Z" fill="#FB9390"/>
<path d="M127.771 194.72C129.409 195.539 132.594 196.661 135.112 196.934C134.869 195.326 134.748 193.627 134.93 192.383C135.172 190.897 133.413 190.563 131.441 190.593C128.863 190.836 126.557 191.261 126.557 191.261L126.224 193.476C126.709 193.991 127.225 194.447 127.771 194.72Z" fill="#EF7F7F"/>
<path d="M118.367 178.003C118.094 178.003 120.915 190.806 125.313 193.021C129.682 195.236 136.204 194.083 137.447 190.624C138.812 186.801 133.868 173.725 127.71 172.056C121.522 170.418 118.367 178.003 118.367 178.003Z" fill="#FB9390"/>
<path d="M123.433 166.231C119.944 168.385 118.336 171.571 117.79 172.875C116.152 173.694 114.15 175.515 113.21 180.339C112.027 186.285 116.213 190.897 120.612 192.262C125.04 193.658 125.768 196.752 125.768 196.752L126.193 193.385C126.193 193.385 125.222 190.472 123.736 188.986C122.25 187.529 124.434 185.405 124.616 183.646C124.767 182.311 123.827 179.702 124.039 177.517C124.039 177.517 126.497 173.543 128.923 172.572C133.079 170.933 127.922 163.47 123.433 166.231Z" fill="#0B0754"/>
<path d="M125.283 185.921C125.86 187.408 125.617 188.864 124.768 189.198C123.918 189.531 122.735 188.591 122.189 187.135C121.613 185.648 121.855 184.192 122.705 183.858C123.554 183.524 124.707 184.465 125.283 185.921Z" fill="#FB9390"/>
<path d="M141.573 243.263L167.054 238.834C167.054 238.834 164.142 231.036 163.111 231.036C162.08 231.036 143.848 239.531 143.848 239.531L142.392 242.626L141.573 243.263Z" fill="#FB9390"/>
<path d="M128.529 261.892C128.529 261.892 125.981 274.999 127.013 284.95C128.044 294.901 128.135 330.217 128.135 330.217L124.191 386.709L133.565 386.921C133.565 386.921 144.667 330.459 144.485 331.885C144.273 333.342 148.217 292.11 148.217 292.11L134.96 260.618L128.529 261.892Z" fill="#0B0754"/>
<path d="M131.017 261.285C131.017 261.285 129.348 273.087 131.441 278.275C133.504 283.463 149.187 334.252 149.4 338.408C149.612 342.565 154.83 388.317 154.83 388.317L165.72 387.983L168.086 337.073L163.141 273.087L158.348 256.916L131.017 261.285Z" fill="#0B0754"/>
<path d="M124.828 202.729C124.828 202.729 127.528 204.611 130.015 204.398C132.533 204.186 136.052 201.698 136.052 201.698L135.567 199.908C135.567 199.908 129.075 198.907 128.923 198.998C128.772 199.119 124.828 202.729 124.828 202.729Z" fill="#FB9390"/>
<path d="M153.494 230.642C153.494 230.642 163.141 240.351 167.478 238.682C171.816 237.013 173.636 231.37 163.019 223.087C153.494 215.684 153.494 230.642 153.494 230.642Z" fill="#FB9390"/>
<path d="M160.016 242.626C158.59 234.313 148.216 208.464 147.397 203.7C147.003 201.394 141.391 201.334 136.082 201.637C130.44 201.971 124.858 202.729 124.858 202.729C124.858 202.729 119.883 203.609 117.669 205.794C115.485 207.978 114.908 214.046 118.033 225.575C120.52 234.647 123.614 239.653 125.131 246.267C125.435 248.482 125.708 250.666 126.041 253.245C126.587 263.136 126.041 276.212 126.041 276.212C126.041 276.212 153.161 282.219 163.323 273.117C163.323 273.087 161.472 251.151 160.016 242.626Z" fill="#7C9AF2"/>
<path d="M166.932 224.756C166.932 224.756 156.285 234.131 155.678 234.131C155.284 234.131 140.48 222.511 137.083 212.984C135.202 207.705 139.146 201.819 143.666 201.819C146.79 201.819 148.185 202.699 154.404 208.282C160.592 213.894 166.932 224.756 166.932 224.756Z" fill="#4951EC"/>
<path d="M329.527 38.8348L306.443 54.4597C304.107 56.0373 300.922 55.4305 299.344 53.0944L283.722 30.0059C282.144 27.6698 282.751 24.4841 285.087 22.9064L308.172 7.28154C310.508 5.70388 313.693 6.31067 315.27 8.64682L330.892 31.7353C332.47 34.0714 331.863 37.2571 329.527 38.8348Z" fill="#FA7167"/>
<path d="M317.909 22.4819C321.943 28.4588 320.396 36.5898 314.42 40.625C308.444 44.6602 300.315 43.1128 296.28 37.1359C292.246 31.159 293.793 23.028 299.769 18.9928C305.745 14.9273 313.874 16.505 317.909 22.4819Z" fill="white"/>
<path d="M302.803 24.4235L308.172 30.279C308.566 30.7038 308.536 31.3713 308.111 31.7657C307.687 32.1601 307.019 32.1298 306.625 31.705C306.564 31.6443 306.504 31.5533 306.473 31.4926L302.803 24.4235Z" fill="#FA7167"/>
<path d="M306.867 30.3092L314.936 25.7886L307.899 31.7959C307.504 32.1296 306.958 32.0689 306.624 31.7049C306.291 31.3104 306.351 30.7643 306.715 30.4306C306.776 30.3699 306.837 30.3396 306.867 30.3092Z" fill="#FA7167"/>
<path d="M102.046 165.26H55.3004C46.8673 165.26 40.042 158.433 40.042 149.999V140.321C40.042 131.886 46.8673 125.06 55.3004 125.06H102.046C110.479 125.06 117.305 131.886 117.305 140.321V149.999C117.305 158.433 110.449 165.26 102.046 165.26Z" fill="#BED1F9"/>
<path d="M108.113 150.09L127.133 158.616L114.423 140.806L108.113 150.09Z" fill="#BED1F9"/>
<path d="M65.7664 143.87C65.7664 145.509 64.28 146.844 62.4296 146.844C60.5792 146.844 59.0928 145.509 59.0928 143.87C59.0928 142.232 60.5792 140.897 62.4296 140.897C64.28 140.897 65.7664 142.232 65.7664 143.87Z" fill="white"/>
<path d="M81.2674 143.87C81.2674 145.509 79.781 146.844 77.9306 146.844C76.0802 146.844 74.5938 145.509 74.5938 143.87C74.5938 142.232 76.0802 140.897 77.9306 140.897C79.781 140.897 81.2674 142.232 81.2674 143.87Z" fill="white"/>
<path d="M96.7684 143.87C96.7684 145.509 95.282 146.844 93.4316 146.844C91.5811 146.844 90.0947 145.509 90.0947 143.87C90.0947 142.232 91.5811 140.897 93.4316 140.897C95.282 140.897 96.7684 142.232 96.7684 143.87Z" fill="white"/>
<path d="M276.32 7.91864L273.195 1.21358L275.774 0L277.564 3.79245L281.901 1.15291L283.388 3.61041L276.32 7.91864Z" fill="#BED1F9"/>
<path d="M98.8617 104.065L91.8847 106.552L90.9443 103.852L94.8879 102.426L92.6734 97.8754L95.2822 96.6011L98.8617 104.065Z" fill="#FA7167"/>
<path d="M387.012 36.7414C387.528 38.3797 388.043 40.0484 388.559 41.6867C388.953 42.961 389.257 45.0544 390.531 45.8129C390.834 45.9949 391.35 45.9039 391.532 45.5399C392.169 44.1746 391.259 42.4149 390.834 41.0799C390.318 39.4416 389.772 37.8032 389.257 36.1346C388.802 34.7086 386.587 35.3154 387.012 36.7414Z" fill="#92B5F9"/>
<path d="M404.455 34.9511C401.785 44.053 401.755 43.7799 401.967 44.7204C402.119 45.4486 403.12 45.661 403.605 45.1452C404.242 44.5081 404.06 44.6901 406.639 35.5579C407.033 34.1319 404.849 33.5555 404.455 34.9511Z" fill="#92B5F9"/>
<path d="M414.617 55.2179C416.194 54.4595 417.772 53.701 419.319 52.9425C420.714 52.275 422.534 51.7289 423.474 50.4546C423.899 49.9085 423.323 49.15 422.716 49.15C421.169 49.0893 419.501 50.3029 418.166 50.9401C416.588 51.6985 415.041 52.457 413.464 53.2155C412.16 53.883 413.312 55.8551 414.617 55.2179Z" fill="#92B5F9"/>
<path d="M409.49 82.5539C411.098 84.6473 412.706 86.7711 414.556 88.6522C415.527 89.6837 416.952 88.1667 416.103 87.1049C414.404 85.0721 412.675 83.1 411.037 81.0066C410.158 79.9447 408.641 81.492 409.49 82.5539Z" fill="#92B5F9"/>
<path d="M415.405 71.9351C416.861 72.5722 418.347 73.179 419.803 73.7554C421.168 74.2712 422.746 75.2421 424.232 75.0297C425.021 74.9083 425.112 73.8768 424.657 73.3914C424.111 72.7846 423.807 72.8453 420.592 71.6013C419.136 71.0552 417.71 70.4484 416.254 69.9023C415.101 69.4776 414.252 71.4496 415.405 71.9351Z" fill="#92B5F9"/>
</svg>
